<svg width="30" height="30" viewBox="0 0 30 30" fill="none" xmlns="http://www.w3.org/2000/svg">
<circle cx="15" cy="15" r="15" fill="#9785C2"/>
<path d="M19.0276 7.53776C17.0747 7.72497 15.533 8.71609 14.2115 10.6249L13.9619 10.9847H12.5817C11.8218 10.9847 11.0987 10.9993 10.9812 11.0214C10.6802 11.0691 10.4159 11.2086 10.1883 11.4362C10.0194 11.605 9.91665 11.7886 9.2816 13.0587C8.7787 14.0718 8.56579 14.5417 8.54743 14.6628C8.51807 14.8941 8.63553 15.1364 8.8411 15.2722L8.9916 15.3713L10.493 15.3823L11.9943 15.3933L11.6493 15.7494C11.2418 16.1715 11.1574 16.333 11.1904 16.6671C11.1978 16.7882 11.2381 16.9387 11.2712 17.0085C11.3042 17.0782 11.7007 17.5004 12.1485 17.9482C12.9231 18.7227 12.9708 18.7631 13.1727 18.8219C13.5765 18.9393 13.8334 18.8365 14.3253 18.352L14.663 18.0216L14.674 19.5267L14.685 21.028L14.7878 21.1859C14.8539 21.285 14.9493 21.3694 15.0448 21.4135C15.3605 21.5566 15.3788 21.5493 16.9756 20.749C18.3816 20.0442 18.444 20.0075 18.6422 19.7983C18.767 19.6625 18.8771 19.4936 18.9285 19.3651C19.0129 19.1559 19.0166 19.1229 19.0276 17.5885L19.0386 16.0247L19.3947 15.7824C21.087 14.6335 22.056 13.2826 22.3938 11.6014C22.5479 10.8305 22.5553 9.51633 22.4121 8.54356C22.324 7.96357 22.2947 7.87915 22.1295 7.76902C21.8285 7.56713 20.0811 7.43498 19.0276 7.53776ZM19.5012 10.0229C19.8499 10.2028 20.0628 10.5258 20.0922 10.9149C20.1179 11.271 20.0298 11.4986 19.7728 11.7592C19.4571 12.0712 19.1084 12.1593 18.6679 12.0272C18.3926 11.9464 18.0732 11.6271 17.9925 11.3517C17.8676 10.9296 17.9447 10.5845 18.2347 10.2688C18.477 10.0045 18.6972 9.91645 19.0717 9.93113C19.2626 9.94215 19.3947 9.96784 19.5012 10.0229Z" fill="white"/>
<path d="M9.89876 17.9058C9.61244 17.9828 9.29674 18.1627 9.09118 18.3646C8.74979 18.6987 8.32765 19.6421 7.7807 21.2829C7.50538 22.0978 7.47602 22.2153 7.51273 22.3144C7.56045 22.4539 7.71462 22.5273 7.87981 22.4906C8.07069 22.4466 9.54269 21.9473 9.98686 21.7748C10.5522 21.5545 11.1615 21.2609 11.4075 21.092C12.182 20.5561 12.3949 19.4842 11.8847 18.673C11.4846 18.0379 10.6293 17.7075 9.89876 17.9058Z" fill="white"/>
</svg>
