<svg width="540" height="301" viewBox="0 0 540 301" fill="none" xmlns="http://www.w3.org/2000/svg">
<g clip-path="url(#clip0_6897_84405)">
<path d="M539.531 281.662C539.531 284.712 473.813 287.183 309.791 287.183C145.769 287.183 12.8352 284.712 12.8352 281.662C12.8352 278.612 145.798 276.141 309.791 276.141C473.783 276.141 539.531 278.612 539.531 281.662Z" fill="#BED0DB"/>
<path d="M82.3962 0.757814H411.364C415.596 0.756225 419.681 2.3096 422.843 5.12272C426.005 7.93583 428.023 11.8126 428.514 16.0162L436.015 255.362H72.1384L65.2461 19.9976C64.9681 17.5798 65.2043 15.1306 65.9393 12.8106C66.6742 10.4906 67.8913 8.35208 69.5106 6.53539C71.13 4.7187 73.1151 3.26484 75.3358 2.26915C77.5564 1.27345 79.9625 0.75842 82.3962 0.757814Z" fill="#90ABAF"/>
<path d="M512.864 255.359C514.067 255.357 515.258 255.591 516.37 256.049C517.482 256.507 518.492 257.18 519.343 258.03C520.195 258.879 520.87 259.888 521.331 260.999C521.792 262.109 522.029 263.3 522.029 264.503V272.517C522.029 274.942 521.066 277.267 519.351 278.982C517.637 280.697 515.311 281.66 512.886 281.66H81.2888C80.0875 281.661 78.8977 281.425 77.7876 280.966C76.6774 280.507 75.6686 279.834 74.8188 278.985C73.969 278.136 73.2948 277.127 72.8349 276.018C72.3749 274.908 72.1382 273.718 72.1382 272.517V255.359H512.864Z" fill="#CDE4E8"/>
<path d="M81.2888 281.66C80.0875 281.661 78.8977 281.425 77.7876 280.966C76.6774 280.507 75.6686 279.834 74.8188 278.985C73.969 278.136 73.2948 277.127 72.8349 276.017C72.3749 274.908 72.1382 273.718 72.1382 272.517V255.359H225.514V281.66H81.2888Z" fill="#7C9496"/>
<path d="M94.0544 0.757814H423.044C427.276 0.756225 431.362 2.3096 434.523 5.12272C437.685 7.93583 439.704 11.8126 440.194 16.0162L447.695 255.362H83.9432L76.9043 19.9976C76.6263 17.5798 76.8625 15.1306 77.5975 12.8106C78.3324 10.4906 79.5495 8.35208 81.1689 6.53539C82.7882 4.7187 84.7733 3.26484 86.994 2.26915C89.2146 1.27345 91.6207 0.75842 94.0544 0.757814Z" fill="#B8D2D8"/>
<path d="M433.793 242.228H95.946L95.4474 220.246L95.3227 215.157L95.2714 212.921L94.9268 197.545L90.8794 21.4688H428.727L432.767 197.545L433.111 212.921L433.163 215.157L433.28 220.246L433.793 242.228Z" fill="white"/>
<path d="M287.259 7.58594H232.347C231.441 7.58594 230.572 7.94592 229.931 8.5867C229.291 9.22748 228.931 10.0966 228.931 11.0028C228.931 11.909 229.291 12.778 229.931 13.4188C230.572 14.0596 231.441 14.4196 232.347 14.4196H287.259C288.165 14.4196 289.034 14.0596 289.675 13.4188C290.315 12.778 290.675 11.909 290.675 11.0028C290.675 10.0966 290.315 9.22748 289.675 8.5867C289.034 7.94592 288.165 7.58594 287.259 7.58594Z" fill="#3F434C"/>
<path d="M433.793 242.221H95.946L95.4475 220.239L95.3228 215.15L95.2715 212.914H433.111L433.163 215.15L433.28 220.239L433.793 242.221Z" fill="#4D7AC0"/>
<path d="M272.535 223.869C272.535 224.594 272.32 225.303 271.918 225.906C271.515 226.509 270.942 226.979 270.272 227.256C269.602 227.534 268.865 227.606 268.154 227.465C267.443 227.323 266.79 226.974 266.277 226.462C265.764 225.949 265.415 225.296 265.274 224.584C265.132 223.873 265.205 223.136 265.482 222.466C265.76 221.796 266.23 221.224 266.832 220.821C267.435 220.418 268.144 220.203 268.869 220.203C269.842 220.203 270.774 220.589 271.462 221.277C272.149 221.964 272.535 222.897 272.535 223.869Z" fill="white"/>
<path d="M268.847 226.062C266.098 226.062 262.366 228.335 262.366 234.949H275.329C275.329 228.335 271.597 226.062 268.847 226.062Z" fill="white"/>
<path d="M294.789 222.68L294.759 232.424L305.259 232.454L305.274 229.543L309.944 231.838L309.974 223.486L305.787 225.759L305.802 222.709L294.789 222.68Z" fill="white"/>
<path d="M235.398 219.68C234.643 219.676 233.918 219.97 233.379 220.499C232.841 221.028 232.533 221.748 232.524 222.503L232.48 227.511C232.474 228.266 232.767 228.994 233.296 229.534C233.825 230.074 234.547 230.382 235.302 230.392C236.058 230.396 236.785 230.101 237.324 229.57C237.862 229.04 238.169 228.318 238.177 227.562L238.228 222.554C238.232 221.798 237.936 221.071 237.406 220.533C236.876 219.994 236.154 219.687 235.398 219.68Z" fill="white"/>
<path d="M240.398 227.591C240.383 227.455 240.318 227.33 240.216 227.239C240.114 227.148 239.982 227.098 239.845 227.098C239.708 227.098 239.576 227.148 239.474 227.239C239.372 227.33 239.307 227.455 239.291 227.591C239.239 228.613 238.794 229.575 238.049 230.276C237.303 230.978 236.316 231.364 235.293 231.354C234.27 231.345 233.29 230.94 232.558 230.226C231.826 229.511 231.399 228.54 231.365 227.518C231.367 227.371 231.311 227.23 231.21 227.124C231.108 227.018 230.969 226.957 230.823 226.953C230.675 226.953 230.534 227.011 230.428 227.113C230.323 227.216 230.262 227.356 230.258 227.503C230.249 228.752 230.7 229.96 231.525 230.897C232.35 231.834 233.491 232.435 234.731 232.584V234.909C234.73 234.981 234.743 235.053 234.77 235.12C234.796 235.187 234.836 235.248 234.886 235.3C234.937 235.351 234.997 235.393 235.063 235.421C235.13 235.45 235.201 235.465 235.273 235.466C235.42 235.466 235.562 235.408 235.667 235.306C235.773 235.203 235.834 235.063 235.838 234.916V232.592C237.08 232.465 238.232 231.885 239.074 230.963C239.915 230.04 240.387 228.84 240.398 227.591Z" fill="white"/>
<path d="M344.406 220.93H327.366C327.051 220.932 326.75 221.057 326.528 221.28C326.306 221.502 326.18 221.803 326.178 222.118V231.312C326.18 231.627 326.306 231.928 326.528 232.15C326.75 232.372 327.051 232.498 327.366 232.5H331.538C331.538 232.5 331.538 232.5 331.538 232.551V233.79C331.54 233.9 331.585 234.004 331.663 234.081C331.741 234.158 331.846 234.201 331.956 234.201H339.838C339.947 234.201 340.051 234.158 340.128 234.081C340.205 234.004 340.249 233.899 340.249 233.79V232.551C340.253 232.534 340.253 232.517 340.249 232.5H344.421C344.735 232.498 345.036 232.372 345.258 232.15C345.481 231.928 345.607 231.627 345.609 231.312V222.118C345.608 221.961 345.576 221.805 345.515 221.661C345.454 221.516 345.365 221.385 345.253 221.275C345.142 221.164 345.009 221.077 344.864 221.018C344.719 220.959 344.563 220.929 344.406 220.93ZM344.868 231.312C344.868 231.435 344.819 231.552 344.733 231.639C344.646 231.725 344.529 231.774 344.406 231.774H327.366C327.243 231.774 327.126 231.725 327.039 231.639C326.953 231.552 326.904 231.435 326.904 231.312V222.118C326.904 221.995 326.953 221.878 327.039 221.791C327.126 221.704 327.243 221.656 327.366 221.656H344.406C344.529 221.656 344.646 221.704 344.733 221.791C344.819 221.878 344.868 221.995 344.868 222.118V231.312Z" fill="white"/>
<path d="M198.561 224.042V231.096L206.714 235.114V220.031L198.561 224.042Z" fill="white"/>
<path d="M194.425 224.038C193.995 224.04 193.583 224.212 193.279 224.517C192.975 224.822 192.805 225.235 192.805 225.666V229.449C192.804 229.663 192.845 229.874 192.926 230.072C193.007 230.269 193.126 230.449 193.277 230.6C193.427 230.751 193.606 230.871 193.803 230.953C194 231.035 194.212 231.077 194.425 231.077H197.358V224.023L194.425 224.038Z" fill="white"/>
<path d="M207.667 224.047H208.862C209.119 224.047 209.372 224.097 209.609 224.195C209.845 224.293 210.06 224.437 210.242 224.618C210.423 224.799 210.566 225.014 210.664 225.251C210.762 225.488 210.813 225.741 210.813 225.997V229.15C210.813 229.406 210.762 229.66 210.664 229.896C210.566 230.133 210.423 230.348 210.242 230.529C210.06 230.71 209.845 230.854 209.609 230.952C209.372 231.05 209.119 231.1 208.862 231.1H207.667V224.047Z" fill="white"/>
<path d="M282.999 56.5401C282.999 56.4375 282.999 56.3348 282.999 56.2395C282.943 51.6732 281.485 47.2343 278.822 43.5245C276.159 39.8147 272.42 37.0134 268.111 35.5002C263.802 33.987 259.133 33.8351 254.735 35.0651C250.337 36.2951 246.423 38.8475 243.525 42.3764C240.626 45.9053 238.883 50.24 238.531 54.7931C238.179 59.3462 239.235 63.8974 241.556 67.83C243.878 71.7626 247.352 74.8864 251.509 76.778C255.665 78.6696 260.303 79.2375 264.793 78.4048C275.241 76.5571 282.661 67.2452 282.977 56.8261C282.991 56.7314 282.998 56.6358 282.999 56.5401ZM266.706 72.8103C263.245 74.0852 259.467 74.2225 255.922 73.2022C252.377 72.1819 249.25 70.0572 246.996 67.1372C244.741 64.2171 243.477 60.6541 243.388 56.9663C243.298 53.2784 244.387 49.6582 246.497 46.6321C248.607 43.606 251.627 41.3318 255.118 40.1405C258.609 38.9491 262.39 38.9026 265.909 40.0078C269.429 41.113 272.504 43.3122 274.687 46.2855C276.871 49.2588 278.048 52.8512 278.049 56.5401C278.02 60.0806 276.92 63.5294 274.894 66.4333C272.869 69.3372 270.012 71.5602 266.699 72.8103H266.706Z" fill="#F96969"/>
<path d="M272.154 51.4078L265.856 45.1094L260.723 50.2419L255.591 45.1094L249.292 51.4078L254.425 56.5403L249.292 61.6729L255.591 67.9713L260.723 62.8387L265.856 67.9713L272.154 61.6729L267.022 56.5403L272.154 51.4078Z" fill="#F96969"/>
<path d="M175.809 117.389C175.809 117.287 175.809 117.184 175.809 117.089C175.751 112.522 174.291 108.084 171.626 104.375C168.961 100.667 165.22 97.8669 160.91 96.3558C156.601 94.8448 151.931 94.6953 147.533 95.9277C143.136 97.1601 139.224 99.7147 136.327 103.245C133.43 106.776 131.689 111.112 131.34 115.665C130.99 120.219 132.049 124.77 134.373 128.701C136.697 132.632 140.174 135.754 144.332 137.643C148.489 139.532 153.128 140.097 157.617 139.262C168.066 137.414 175.486 128.102 175.809 117.683C175.809 117.602 175.809 117.492 175.809 117.389ZM159.516 133.66C156.055 134.935 152.277 135.072 148.732 134.052C145.187 133.031 142.06 130.907 139.805 127.986C137.551 125.066 136.287 121.503 136.198 117.816C136.108 114.128 137.197 110.508 139.307 107.481C141.417 104.455 144.437 102.181 147.928 100.99C151.419 99.7984 155.2 99.752 158.719 100.857C162.238 101.962 165.314 104.162 167.497 107.135C169.68 110.108 170.858 113.701 170.859 117.389C170.833 120.93 169.735 124.379 167.71 127.283C165.685 130.187 162.829 132.41 159.516 133.66Z" fill="#F96969"/>
<path d="M164.972 112.259L158.673 105.961L153.541 111.093L148.408 105.961L142.11 112.259L147.242 117.392L142.11 122.524L148.408 128.823L153.541 123.69L158.673 128.823L164.972 122.524L159.839 117.392L164.972 112.259Z" fill="#F96969"/>
<path d="M286.173 178.243C286.173 178.133 286.173 178.038 286.173 177.942C286.115 173.376 284.653 168.939 281.988 165.231C279.323 161.523 275.582 158.725 271.273 157.214C266.963 155.704 262.294 155.555 257.897 156.787C253.5 158.02 249.589 160.574 246.692 164.104C243.796 167.634 242.055 171.969 241.705 176.522C241.355 181.075 242.413 185.626 244.736 189.557C247.059 193.488 250.534 196.61 254.691 198.5C258.848 200.39 263.485 200.956 267.975 200.122C278.416 198.275 285.836 188.963 286.159 178.544C286.166 178.448 286.173 178.346 286.173 178.243ZM269.874 194.513C266.412 195.786 262.634 195.922 259.09 194.9C255.545 193.879 252.419 191.753 250.166 188.832C247.913 185.911 246.651 182.348 246.562 178.66C246.474 174.973 247.564 171.353 249.675 168.328C251.785 165.303 254.806 163.029 258.297 161.839C261.788 160.649 265.568 160.603 269.087 161.709C272.606 162.815 275.681 165.015 277.864 167.988C280.046 170.962 281.224 174.554 281.224 178.243C281.197 181.784 280.098 185.234 278.072 188.138C276.046 191.042 273.188 193.265 269.874 194.513Z" fill="#F96969"/>
<path d="M275.329 173.111L269.031 166.812L263.906 171.945L258.773 166.812L252.475 173.111L257.6 178.243L252.475 183.376L258.773 189.674L263.906 184.542L269.031 189.674L275.329 183.376L270.197 178.243L275.329 173.111Z" fill="#F96969"/>
<path d="M394.94 178.243C394.947 178.143 394.947 178.042 394.94 177.942C394.881 173.376 393.42 168.939 390.755 165.231C388.089 161.523 384.348 158.725 380.039 157.214C375.73 155.704 371.061 155.555 366.664 156.787C362.267 158.02 358.355 160.574 355.459 164.104C352.562 167.634 350.821 171.969 350.471 176.522C350.121 181.075 351.179 185.626 353.502 189.557C355.825 193.488 359.301 196.61 363.457 198.5C367.614 200.39 372.252 200.956 376.741 200.122C387.19 198.275 394.61 188.963 394.932 178.544C394.942 178.444 394.944 178.343 394.94 178.243ZM378.648 194.513C375.186 195.788 371.408 195.925 367.863 194.905C364.318 193.885 361.191 191.76 358.937 188.84C356.682 185.92 355.418 182.357 355.329 178.669C355.239 174.981 356.328 171.361 358.438 168.335C360.548 165.309 363.568 163.035 367.059 161.843C370.55 160.652 374.331 160.605 377.85 161.711C381.37 162.816 384.445 165.015 386.628 167.988C388.812 170.962 389.989 174.554 389.991 178.243C389.964 181.783 388.866 185.232 386.841 188.136C384.816 191.04 381.96 193.264 378.648 194.513Z" fill="#F96969"/>
<path d="M384.103 173.111L377.804 166.812L372.672 171.945L367.539 166.812L361.241 173.111L366.373 178.243L361.241 183.376L367.539 189.674L372.672 184.542L377.804 189.674L384.103 183.376L378.97 178.243L384.103 173.111Z" fill="#F96969"/>
<path d="M379.476 83.4038H347.815L344.949 59.9846C344.837 59.0583 344.922 58.1187 345.2 57.2278C345.478 56.337 345.942 55.5153 346.56 54.8168C347.179 54.1184 347.939 53.5591 348.79 53.1759C349.641 52.7927 350.563 52.5943 351.496 52.5938H370.157C371.719 52.6515 373.21 53.2666 374.358 54.3276C375.507 55.3887 376.237 56.8258 376.418 58.3789L376.602 59.8453L376.734 60.9452L376.858 61.9497L377.093 63.8487V64.0027L377.144 64.4206L379.476 83.4038Z" fill="#2F335B"/>
<path d="M384.865 83.4043H353.197L350.338 59.9852C350.226 59.0594 350.311 58.1204 350.589 57.2301C350.866 56.3398 351.329 55.5185 351.947 54.8201C352.565 54.1218 353.324 53.5623 354.174 53.1787C355.024 52.795 355.946 52.5958 356.878 52.5943H375.253C375.431 52.5832 375.61 52.5832 375.788 52.5943C376.794 52.6666 377.769 52.9756 378.633 53.4962C379.361 53.9267 380 54.4915 380.517 55.1606C381.243 56.0964 381.701 57.2112 381.844 58.3868L382.578 64.5898L384.865 83.4043Z" fill="#454C7F"/>
<path d="M364.533 45.914C365.252 48.0355 365.985 50.1545 366.733 52.271C367.231 53.7375 367.818 55.3359 369.123 56.1938C369.732 56.5771 370.441 56.7724 371.161 56.7555C371.881 56.7385 372.58 56.51 373.17 56.0985C371.297 54.5905 369.842 52.6261 368.947 50.394C368.611 49.3119 368.159 48.2695 367.598 47.2851C367.259 46.8003 366.795 46.4166 366.255 46.1751C365.715 45.9336 365.12 45.8433 364.533 45.914Z" fill="#2F335B"/>
<path d="M378.992 60.9021C378.992 60.9021 375.282 58.3725 368.83 59.6336V62.8965L377.423 63.9083L379.307 62.7865L378.992 60.9021Z" fill="#D1D1D1"/>
<path d="M390.489 83.4082H356.453C356.365 82.675 356.284 82.0151 356.204 81.3918C355.558 76.6772 354.942 71.3247 357.985 67.6806C359.738 65.5689 362.385 64.4764 364.929 63.4572L367.217 62.5407L367.832 62.2914L367.92 62.2547L368.83 61.8954L369.358 61.6828L370.494 61.2282L373.119 60.1797C374.299 60.7809 375.561 61.3822 376.858 61.9834L378.779 62.8559H378.845L379.021 62.9439L379.601 63.2006L381.067 63.8751L382.534 64.5717C383.106 64.843 383.721 65.1363 384.279 65.4149H384.323C385.344 65.9379 386.228 66.6934 386.905 67.6205C387.581 68.5476 388.03 69.6204 388.216 70.7528L390.489 83.4082Z" fill="#EAEAEA"/>
<path d="M366.681 50.9469C367.224 51.6801 368.25 49.3631 368.639 50.1623C369.028 50.9615 368.412 51.4088 368.639 52.2593C368.866 53.1099 369.314 58.3011 369.372 59.0783C369.372 59.0783 369.145 60.8527 369.145 60.882C369.314 62.6931 371.132 63.2723 370.611 65.0541C373.977 65.362 375.847 64.4528 379.087 63.331C378.809 62.7518 378.457 62.1725 378.186 61.5786C378.09 61.3795 378.009 61.1737 377.944 60.9627C377.79 60.4788 377.65 59.9875 377.54 59.4962C377.43 59.005 377.379 57.5825 377.313 57.1499C377.247 56.7173 377.21 56.49 377.174 56.1527C377.094 55.388 377.062 54.6191 377.078 53.8504C376.897 53.6158 376.696 53.3974 376.477 53.1978C374.167 50.9835 370.186 50.287 366.681 50.9469Z" fill="#FFA59D"/>
<path d="M370.105 52.5625C370.105 52.5625 372.54 59.7701 378.171 61.5738C378.075 61.3748 377.994 61.1689 377.929 60.9579C377.775 60.474 377.636 59.9827 377.526 59.4915C377.416 59.0002 377.364 57.5777 377.298 57.1451C377.232 56.7125 377.196 56.4852 377.159 56.148C377.08 55.3832 377.048 54.6143 377.064 53.8456C376.883 53.611 376.682 53.3926 376.462 53.1931L370.105 52.5625Z" fill="#DD6478"/>
<path d="M377.423 63.9134L380.077 67.5795C380.077 67.5795 381.617 66.4504 381.082 63.9134L378.992 60.9219C378.992 60.9219 379.307 63.8548 377.423 63.9134Z" fill="white"/>
<path d="M368.83 59.6328C371.027 62.1244 374.111 63.6585 377.423 63.9075L375.429 68.0209C372.108 67.269 369.183 65.3155 367.217 62.5364L368.83 59.6328Z" fill="white"/>
<path d="M377.152 40.3141C377.606 41.3586 377.83 42.4885 377.808 43.6272C377.787 44.7659 377.52 45.8866 377.027 46.9131C376.675 45.3514 376.294 43.8483 375.979 42.2865C375.817 41.5533 375.685 40.7174 376.184 40.1675C376.255 40.0786 376.347 40.0091 376.452 39.9655C376.558 39.9219 376.672 39.9056 376.785 39.9182C377.005 39.9255 377.254 40.1161 377.152 40.3141Z" fill="#222747"/>
<path d="M376.477 39.6461C376.175 42.807 376.903 45.981 378.552 48.6941C379.483 50.2119 380.752 51.715 380.708 53.5041C380.649 55.8504 378.134 57.5954 375.788 57.4635C373.442 57.3315 371.389 55.7917 369.922 53.9733C368.564 52.2992 367.554 50.3704 366.952 48.3003C366.35 46.2302 366.168 44.0606 366.417 41.9191C369.474 40.1888 372.973 39.3981 376.477 39.6461Z" fill="#FFA59D"/>
<path d="M367.693 49.8142C368.28 48.7055 368.545 47.4552 368.46 46.2038C368.374 44.9525 367.941 43.7498 367.209 42.7313C369.227 42.9803 371.271 42.9085 373.266 42.5186C374.256 42.3235 375.192 41.9131 376.007 41.3163C376.822 40.7195 377.495 39.951 377.98 39.0651C378.555 37.873 378.647 36.5051 378.237 35.2468C377.827 33.9885 376.947 32.9371 375.781 32.3122C375.425 32.0891 375.022 31.9535 374.604 31.9166C374.186 31.8796 373.765 31.9423 373.376 32.0995C372.816 32.4347 372.388 32.9526 372.166 33.566C371.959 34.1771 371.714 34.7746 371.433 35.355C370.575 36.8215 368.852 37.496 367.261 38.0826C365.669 38.6692 363.954 39.3731 363.132 40.8542C362.311 42.3353 362.722 44.5203 363.8 45.9868C364.844 47.497 366.165 48.7957 367.693 49.8142Z" fill="#2F335B"/>
<path d="M367.781 49.3029C367.779 49.0714 367.692 48.8487 367.536 48.6771C367.381 48.5055 367.168 48.3968 366.938 48.3717C366.707 48.3519 366.475 48.3978 366.268 48.5042C366.062 48.6106 365.89 48.7731 365.772 48.9729C365.536 49.3754 365.465 49.8537 365.574 50.3074C365.691 50.7574 365.898 51.179 366.183 51.5465C366.564 52.125 367.126 52.5608 367.781 52.7857C368.11 52.8887 368.462 52.8876 368.791 52.7826C369.119 52.6776 369.406 52.4738 369.614 52.1991C368.786 51.3486 367.73 50.542 367.781 49.3029Z" fill="#FFA59D"/>
<path d="M375.546 50.2898C375.546 50.3485 375.7 50.4071 375.935 50.3631C376.259 50.3118 376.554 50.1483 376.77 49.9012C376.913 49.7312 377.013 49.5303 377.064 49.3146C377.131 49.1123 377.131 48.8937 377.064 48.6914C377.064 48.6254 377.005 48.6034 376.968 48.6107H376.924C376.851 48.7479 376.787 48.89 376.734 49.036C376.662 49.2016 376.568 49.357 376.455 49.4979C376.445 49.5207 376.43 49.5409 376.411 49.5566C376.24 49.7552 376.037 49.9237 375.81 50.0552C375.649 50.1578 375.539 50.2238 375.546 50.2898Z" fill="#DD6478"/>
<path d="M374.6 51.7185C375.842 51.6879 377.061 51.3824 378.171 50.824C378.216 50.7956 378.267 50.7787 378.32 50.7745C378.374 50.7703 378.427 50.779 378.476 50.7999C378.525 50.8208 378.568 50.8532 378.602 50.8944C378.635 50.9357 378.659 50.9844 378.67 51.0366C379.271 55.1133 375.399 53.7789 374.424 52.2024C374.278 52.0118 374.322 51.7258 374.6 51.7185Z" fill="white"/>
<path d="M273.753 144.392H239.005L235.867 118.73C235.749 117.717 235.847 116.69 236.154 115.718C236.461 114.745 236.97 113.849 237.648 113.087C238.326 112.326 239.157 111.716 240.087 111.298C241.018 110.881 242.026 110.664 243.045 110.664H263.524C265.043 110.729 266.503 111.271 267.696 112.213C268.889 113.156 269.753 114.451 270.167 115.914C270.273 116.271 270.349 116.637 270.395 117.006L270.593 118.634L270.739 119.837L270.878 120.944L271.128 123.026V123.195L271.186 123.657L273.753 144.392Z" fill="#2F335B"/>
<path d="M279.655 144.393H244.915L241.777 118.73C241.659 117.717 241.757 116.691 242.063 115.718C242.37 114.746 242.879 113.849 243.557 113.087C244.235 112.326 245.067 111.716 245.997 111.298C246.927 110.881 247.935 110.665 248.955 110.664H269.119C269.314 110.654 269.51 110.654 269.705 110.664C270.807 110.747 271.874 111.086 272.821 111.654C273.602 112.122 274.288 112.731 274.845 113.451C275.647 114.473 276.154 115.695 276.312 116.985L277.133 123.789L279.655 144.393Z" fill="#454C7F"/>
<path d="M273.217 119.743C273.217 119.743 269.148 116.971 262.065 118.357V121.935L271.494 123.049L273.562 121.818L273.217 119.743Z" fill="#98C2F4"/>
<path d="M285.829 144.394H248.486C248.39 143.609 248.302 142.869 248.214 142.194C247.481 137.062 246.829 131.152 250.172 127.149C252.093 124.832 254.989 123.629 257.79 122.515C258.619 122.177 259.455 121.84 260.298 121.517L260.972 121.239L261.068 121.202L262.065 120.799L262.644 120.572L263.891 120.066L266.765 118.922C268.07 119.582 269.449 120.242 270.878 120.902C271.568 121.224 272.271 121.539 272.983 121.855L273.049 121.891L273.247 121.987C273.452 122.075 273.672 122.17 273.885 122.273L275.512 123.006C275.952 123.204 276.524 123.475 277.133 123.739L279.046 124.656H279.098C280.218 125.232 281.187 126.063 281.928 127.082C282.669 128.1 283.161 129.278 283.365 130.521L285.829 144.394Z" fill="#B8D5FF"/>
<path d="M261.515 98.9375C256.72 99.5901 259.257 107.465 261.816 111.989C263.091 114.233 267.3 115.12 269.265 114.731C266.882 111.908 263.619 109.232 262.923 105.199C262.065 105.537 262.402 99.3261 261.515 98.9375Z" fill="#8A4632"/>
<path d="M273.049 122.497C270.033 123.815 266.633 123.959 263.517 122.9C264.675 119.667 264.587 114.358 263.436 111.117C265.093 111.63 266.75 112.026 268.408 112.444C269.617 112.752 270.827 113.06 272.03 113.434C272.071 115.47 272.231 117.502 272.506 119.52C272.635 120.521 272.816 121.515 273.049 122.497Z" fill="#FFA59D"/>
<path d="M272.521 119.513C270.787 119.18 269.159 118.434 267.775 117.339C266.39 116.244 265.289 114.832 264.565 113.222L268.422 112.438C269.632 112.745 270.842 113.053 272.044 113.427C272.086 115.463 272.245 117.495 272.521 119.513Z" fill="#F17785"/>
<path d="M273.467 98.0625C274.237 98.6541 274.809 99.4663 275.107 100.391C275.404 101.316 275.413 102.309 275.131 103.239C274.834 104.436 274.167 105.508 273.225 106.304C273.159 104.28 273.034 102.264 272.968 100.248C273.621 100.152 272.91 98.3778 273.467 98.0625Z" fill="#8A4632"/>
<path d="M274.061 115.652C272.426 117.213 269.148 117.015 267.227 116.07C265.451 115.181 264.08 113.65 263.392 111.788C263.348 111.678 263.297 111.56 263.253 111.436C263.253 111.172 263.304 110.915 263.312 110.644C263.312 109.911 263.312 109.229 263.246 108.517C263.112 107.336 263.24 106.139 263.62 105.013C264.17 103.641 262.923 101.104 264.243 100.415C266.846 99.3887 272.389 100.181 273.379 99.968C273.419 99.9584 273.46 99.9573 273.5 99.965C273.54 99.9727 273.578 99.9889 273.612 100.013C273.645 100.036 273.673 100.067 273.693 100.102C273.714 100.137 273.727 100.177 273.731 100.217L273.987 102.952C274.002 103.347 274.039 103.742 274.097 104.133C274.391 106.134 275.102 108.041 275.322 110.05C275.542 112.059 275.564 114.2 274.061 115.652Z" fill="#FFA59D"/>
<path d="M263.37 107.92C263.3 107.656 263.177 107.409 263.008 107.194C262.839 106.98 262.628 106.803 262.388 106.673C262.177 106.628 261.959 106.645 261.757 106.72C261.556 106.795 261.381 106.927 261.251 107.098C260.474 107.905 260.687 109.364 261.134 110.332C261.372 110.812 261.755 111.206 262.228 111.459C262.701 111.711 263.242 111.809 263.773 111.74C263.707 110.486 263.451 109.203 263.37 107.92Z" fill="#FFA59D"/>
<path d="M270.893 109.202C270.893 109.246 270.988 109.327 271.186 109.342C271.467 109.362 271.746 109.287 271.978 109.129C272.139 109.022 272.272 108.879 272.367 108.711C272.466 108.562 272.515 108.384 272.506 108.205C272.506 108.147 272.506 108.117 272.447 108.117H272.404C272.312 108.217 272.226 108.323 272.147 108.432C272.045 108.553 271.929 108.661 271.802 108.755L271.758 108.792C271.571 108.92 271.362 109.014 271.142 109.07C271.003 109.078 270.9 109.107 270.893 109.202Z" fill="#DD6478"/>
<path d="M268.796 110.381C270.374 110.652 271.99 110.6 273.547 110.227C273.608 110.201 273.674 110.191 273.739 110.197C273.805 110.204 273.868 110.227 273.922 110.264C273.976 110.301 274.02 110.352 274.05 110.411C274.079 110.47 274.093 110.535 274.09 110.601C273.452 115.499 269.089 112.977 268.4 110.909C268.334 110.609 268.444 110.323 268.796 110.381Z" fill="white"/>
<path d="M263.099 106.849C264.067 105.155 265.372 103.286 264.646 101.475C266.918 101.834 269.231 101.856 271.509 101.541C272.113 101.51 272.702 101.342 273.231 101.048C273.76 100.755 274.214 100.344 274.559 99.8468C276.686 97.3465 274.442 92.9472 273.152 92.1406C272.587 93.6071 270.952 94.3843 269.361 94.5969C267.77 94.8095 266.149 94.6996 264.668 95.2641C263.562 95.7402 262.622 96.5348 261.969 97.5469C261.316 98.5589 260.98 99.7424 261.002 100.947C261.002 103.337 261.068 105.537 263.099 106.849Z" fill="#8A4632"/>
<path d="M268.539 123.978L271.23 127.798L270.886 144.428H275.432L272.521 127.798L273.562 123.978L271.494 123.047L268.539 123.978Z" fill="#454C7F"/>
<path d="M271.494 123.041L274.427 127.015C274.427 127.015 276.113 125.776 275.527 123.027L273.239 119.734C273.239 119.734 273.562 122.975 271.494 123.041Z" fill="#E1EFFF"/>
<path d="M262.065 118.352C262.065 118.352 265.1 122.384 271.494 123.044L269.295 127.554C265.646 126.73 262.431 124.586 260.269 121.534L262.065 118.352Z" fill="#E1EFFF"/>
<path d="M159.179 83.4274H127.511L124.622 60.0083C124.51 59.0776 124.597 58.1336 124.878 57.2392C125.159 56.3448 125.627 55.5204 126.251 54.8211C126.876 54.1219 127.642 53.5636 128.499 53.1836C129.356 52.8036 130.284 52.6106 131.221 52.6174H149.889C151.449 52.6854 152.933 53.3039 154.08 54.3631C155.226 55.4222 155.96 56.8534 156.151 58.4025L156.327 59.8689L156.459 60.9688L156.591 61.9733L156.818 63.8723V64.0263L156.87 64.4443L159.179 83.4274Z" fill="#2F335B"/>
<path d="M164.561 83.4272H132.893L130.034 60.0081C129.922 59.0823 130.007 58.1433 130.285 57.253C130.562 56.3627 131.025 55.5413 131.643 54.843C132.261 54.1447 133.02 53.5852 133.87 53.2016C134.72 52.8179 135.641 52.6187 136.574 52.6172H154.956C155.132 52.6172 155.315 52.6172 155.491 52.6172C157.004 52.7407 158.428 53.3821 159.523 54.4333C160.619 55.4844 161.318 56.881 161.503 58.3876L162.237 64.5907L164.561 83.4272Z" fill="#454C7F"/>
<path d="M172.942 83.4081H167.567C167.549 81.0224 167.795 78.6419 168.301 76.3105C168.435 75.742 168.634 75.1908 168.895 74.668C169.068 74.3037 169.318 73.9811 169.628 73.7222C169.654 73.6997 169.683 73.6823 169.716 73.6709C169.988 73.5021 170.303 73.4157 170.623 73.4222C170.943 73.4287 171.254 73.5278 171.519 73.7075C172.158 76.9148 172.633 80.1525 172.942 83.4081Z" fill="#FFA799"/>
<path d="M161.078 61.8672C161.078 61.8672 169.386 62.4464 171.519 73.7087C171.519 73.7087 170.581 76.3997 165.932 76.7663C165.932 76.7663 164.884 63.9129 161.078 61.8672Z" fill="#4D7AC0"/>
<path d="M162.295 43.4467C162.332 45.1716 162.275 46.8971 162.127 48.6159C161.949 50.1549 161.63 51.6742 161.174 53.1546C161.078 53.4919 160.976 53.8218 160.873 54.1591C160.462 55.5449 160.022 56.9454 159.67 58.3385C159.487 59.0717 159.326 59.8049 159.194 60.4942C159.12 60.8974 159.055 61.3007 159.003 61.7113C158.864 62.6972 158.805 63.6928 158.827 64.6882C158.827 65.0988 158.871 65.5167 158.915 65.9273C158.967 66.5286 159.047 67.1298 159.135 67.7311C159.434 69.3273 159.628 70.9414 159.714 72.563C159.738 76.5007 158.408 80.3269 155.946 83.4H124.659L124.366 83.0701C123.428 82.1048 122.704 80.9533 122.241 79.6901C121.777 78.4269 121.584 77.0804 121.675 75.7379C121.836 71.1919 125.576 67.5111 129.183 64.5855C132.79 61.66 136.809 58.5585 137.982 54.1224C138.774 51.0869 139.529 48.6453 140.071 45.5657C140.68 42.1123 142.667 37.141 145.739 35.3446C149.581 33.1449 154.193 31.6052 157.654 37.097C160.858 35.9972 162.295 39.1354 162.295 43.4467Z" fill="url(#paint0_linear_6897_84405)"/>
<path d="M162.317 64.2971C160.714 65.5181 158.76 66.1892 156.745 66.2108C154.842 66.1814 153.011 65.4802 151.576 64.2311C151.773 62.8405 151.898 61.4406 151.95 60.0371C151.95 59.7145 151.95 59.3919 151.95 59.0692C151.95 58.6953 151.986 58.336 151.95 57.9474V57.7494C151.939 56.1537 151.836 54.56 151.642 52.9762L151.598 52.6829C151.581 52.2089 151.507 51.7386 151.378 51.2824C151.378 49.7206 150.74 48.1662 150.285 46.6484C152.991 47.4916 155.682 48.4742 157.83 50.3146C157.881 50.7838 157.947 51.2457 158.013 51.715C158.087 52.1916 158.175 52.6609 158.263 53.1375L158.351 53.5994C158.461 54.1566 158.585 54.6992 158.717 55.2418C158.717 55.2858 158.717 55.3298 158.754 55.3738C158.857 55.7844 158.967 56.195 159.084 56.6056C159.172 56.9062 159.252 57.2068 159.355 57.5075V57.5515C160.108 59.8957 161.101 62.1561 162.317 64.2971Z" fill="#FFA799"/>
<path d="M171.079 78.8855C170.991 79.6188 170.786 81.2685 170.596 83.4022H149.332C148.958 82.8083 148.599 82.229 148.196 81.6424H148.159C143.437 83.9521 139.859 82.4343 139.859 82.4343C139.639 81.5226 139.468 80.5999 139.346 79.6701C137.879 68.921 143.84 64.2724 148.049 62.366C148.24 62.2707 148.445 62.19 148.635 62.1094C149.431 61.7815 150.25 61.512 151.084 61.3028C151.339 61.2588 151.583 61.2222 151.818 61.1929H151.876C152.052 61.1929 152.228 61.1929 152.404 61.1929C154.714 61.0609 156.701 61.5888 158.959 61.7428H159.619C160.095 61.7521 160.57 61.7913 161.042 61.8601L161.694 61.9701C163.674 62.7766 165.074 64.4044 166.248 66.4061C166.57 66.978 166.878 67.5719 167.179 68.1878C167.912 69.6982 168.557 71.326 169.254 72.9538C169.356 73.2104 169.466 73.4523 169.576 73.687L170.082 74.7355C170.086 74.7573 170.086 74.7796 170.082 74.8015C170.153 74.9563 170.215 75.1155 170.266 75.2781C170.649 76.4525 170.921 77.6603 171.079 78.8855Z" fill="#4D7AC0"/>
<path d="M158.666 54.9388C156.759 55.1221 154.032 56.4492 151.979 57.7104C151.968 56.1147 151.865 54.5209 151.671 52.9371L151.627 52.6438C151.61 52.1698 151.537 51.6996 151.407 51.2434C151.407 49.6816 150.769 48.1271 150.314 46.6094C153.02 47.4526 155.711 48.4351 157.859 50.2755C157.918 50.7741 157.977 51.2433 158.043 51.6759C158.194 52.7736 158.402 53.8627 158.666 54.9388Z" fill="#F17785"/>
<path d="M161.79 53.3145C160.514 55.0889 157.229 55.4262 155.125 54.7809C153.184 54.2105 151.515 52.958 150.425 51.2541C150.359 51.1441 150.278 51.0415 150.205 50.9315C150.182 50.6706 150.145 50.4112 150.095 50.1543C149.97 49.4724 149.765 48.7832 149.574 48.1086C149.191 47.0003 149.06 45.8203 149.193 44.6551C149.52 43.2433 150.359 42.0026 151.546 41.1723C153.542 40.044 155.618 39.0637 157.757 38.2394C157.796 38.2244 157.837 38.2174 157.879 38.219C157.921 38.2205 157.962 38.2305 157.999 38.2483C158.037 38.2661 158.071 38.2914 158.098 38.3227C158.126 38.3539 158.147 38.3904 158.16 38.43L159.003 41.0403C159.101 41.4234 159.221 41.8004 159.363 42.1695C160.096 44.0539 161.188 45.7843 161.841 47.698C162.493 49.6117 162.963 51.6647 161.79 53.3145Z" fill="#FFA59D"/>
<path d="M149.552 47.5332C149.435 47.1226 149.215 46.668 148.819 46.58C148.608 46.5676 148.399 46.6163 148.215 46.7204C148.032 46.8245 147.882 46.9795 147.785 47.1666C147.485 47.6255 147.335 48.1657 147.354 48.7134C147.373 49.2611 147.56 49.7896 147.89 50.2268C148.221 50.6639 148.678 50.9884 149.2 51.1559C149.722 51.3235 150.283 51.3258 150.806 51.1627C150.454 49.9602 149.919 48.7284 149.552 47.5332Z" fill="#FFA59D"/>
<path d="M157.617 47.2631C157.617 47.3218 157.779 47.3658 158.006 47.3071C158.319 47.2229 158.593 47.0339 158.783 46.7719C158.911 46.5937 158.994 46.3875 159.025 46.1706C159.064 45.9651 159.039 45.7524 158.952 45.562C158.952 45.496 158.879 45.4741 158.842 45.4887C158.83 45.4856 158.817 45.4856 158.805 45.4887C158.746 45.6325 158.695 45.7793 158.651 45.9286C158.595 46.0962 158.519 46.2563 158.424 46.4052C158.414 46.4264 158.402 46.4461 158.387 46.4639C158.235 46.6735 158.049 46.8568 157.837 47.0065C157.705 47.1238 157.617 47.1971 157.617 47.2631Z" fill="#DD6478"/>
<path d="M155.579 48.6732C157.162 48.669 158.725 48.3134 160.154 47.632C160.213 47.5963 160.279 47.5754 160.347 47.5711C160.415 47.5669 160.483 47.5794 160.546 47.6076C160.608 47.6359 160.662 47.6789 160.704 47.733C160.746 47.7871 160.773 47.8506 160.785 47.918C161.437 53.1312 156.547 51.3201 155.337 49.2891C155.168 48.9958 155.227 48.6732 155.579 48.6732Z" fill="white"/>
<path d="M150.608 51.3103C150.608 51.4974 150.537 51.6775 150.409 51.8138C150.281 51.9501 150.105 52.0323 149.919 52.0435C149.83 52.0485 149.741 52.0354 149.658 52.0048C149.574 51.9743 149.498 51.927 149.433 51.8659C149.369 51.8048 149.317 51.7311 149.282 51.6495C149.247 51.5678 149.229 51.4798 149.229 51.391C149.229 51.2039 149.3 51.0238 149.428 50.8875C149.557 50.7512 149.732 50.669 149.919 50.6578C150.008 50.6517 150.097 50.6641 150.181 50.6942C150.265 50.7244 150.342 50.7716 150.406 50.8329C150.471 50.8943 150.523 50.9683 150.557 51.0505C150.592 51.1327 150.609 51.2211 150.608 51.3103Z" fill="#F4E4EB"/>
<path d="M171.153 83.408H169.921C170.211 81.9604 170.329 80.4838 170.273 79.0086C170.182 77.9142 169.899 76.8444 169.437 75.8484C169.268 75.4598 169.078 75.1152 168.872 74.7046L168.806 74.5799C167.501 72.1823 165.822 69.8287 165.939 66.9764C165.938 66.8632 165.972 66.7525 166.037 66.6593C166.101 66.5661 166.193 66.4951 166.299 66.4558C166.393 66.4154 166.497 66.3993 166.599 66.409C166.702 66.4188 166.8 66.4541 166.885 66.5117C166.971 66.5693 167.04 66.6474 167.088 66.7389C167.135 66.8303 167.159 66.9321 167.157 67.0351C167.144 67.4373 167.168 67.8399 167.23 68.2376C167.62 69.941 168.324 71.5571 169.305 73.0035C169.444 73.2381 169.584 73.4728 169.716 73.7367C169.847 74.0007 170.089 74.4113 170.258 74.7559C170.331 74.8952 170.397 75.0272 170.463 75.1665C171.034 76.3617 171.379 77.6517 171.483 78.9719C171.543 80.4584 171.433 81.9469 171.153 83.408Z" fill="#2A5EA8"/>
<path d="M161.078 61.8623C161.078 61.8623 166.68 77.0474 151.862 61.1291C153.222 60.1045 154.911 59.6135 156.609 59.7485C158.307 59.8836 159.897 60.6355 161.078 61.8623Z" fill="#FFA799"/>
<path d="M148.196 83.4091H139.969C139.896 82.8006 139.866 82.4559 139.866 82.4559C142.658 82.6742 145.466 82.4063 148.166 81.6641H148.203C148.181 82.17 148.181 82.7566 148.196 83.4091Z" fill="#FFA799"/>
<path d="M383.106 144.564H350.411L347.478 120.368C347.362 119.412 347.45 118.443 347.736 117.523C348.022 116.604 348.501 115.756 349.139 115.035C349.777 114.315 350.561 113.738 351.439 113.342C352.317 112.947 353.268 112.742 354.231 112.742H373.478C374.908 112.804 376.282 113.313 377.405 114.199C378.529 115.085 379.346 116.301 379.74 117.677C379.834 118.016 379.903 118.361 379.945 118.711L380.129 120.243L380.268 121.38L380.4 122.413L380.635 124.378V124.532L380.686 124.965L383.106 144.564Z" fill="#2F335B"/>
<path d="M388.663 144.564H355.969L353.036 120.368C352.92 119.412 353.008 118.443 353.294 117.523C353.58 116.604 354.058 115.756 354.697 115.035C355.335 114.315 356.119 113.738 356.997 113.342C357.875 112.947 358.826 112.742 359.789 112.742H378.765H379.315C380.352 112.821 381.357 113.143 382.248 113.681C383.143 114.214 383.904 114.948 384.468 115.825C385.033 116.701 385.387 117.696 385.503 118.733L386.288 125.141L388.663 144.564Z" fill="#454C7F"/>
<path d="M381.984 96.0047C380.919 94.9784 379.605 94.2477 378.171 93.8848C376.738 93.5219 375.234 93.5395 373.809 93.9356C372.385 94.3318 371.088 95.0929 370.047 96.1438C369.007 97.1946 368.259 98.4988 367.876 99.9274C367.385 101.68 367.458 103.594 366.989 105.324C366.256 108.044 364.306 110.244 362.509 112.422C360.713 114.599 358.953 117.019 358.733 119.834C358.617 121.95 359.276 124.036 360.588 125.7C361.903 127.347 363.613 128.633 365.559 129.44C368.208 130.59 371.121 130.993 373.983 130.605C376.845 130.218 379.546 129.055 381.793 127.242C384.041 125.429 385.75 123.036 386.735 120.322C387.72 117.607 387.943 114.675 387.38 111.842C386.918 109.533 385.914 107.289 386.002 104.935C386.002 103.66 386.376 102.42 386.515 101.152C386.727 99.8895 386.491 98.5925 385.848 97.4858C385.1 96.4006 383.054 95.3375 381.984 96.0047Z" fill="#8A4632"/>
<path d="M386.383 124.817C384.717 126.085 382.685 126.779 380.591 126.797C378.627 126.77 376.737 126.045 375.26 124.751C375.464 123.317 375.591 121.873 375.641 120.425C375.641 120.088 375.641 119.758 375.641 119.42C375.641 119.032 375.641 118.65 375.641 118.262V117.998C375.632 116.353 375.527 114.71 375.326 113.078C375.326 112.975 375.326 112.88 375.282 112.77C375.269 112.274 375.192 111.781 375.055 111.304C375.055 109.69 374.395 108.085 373.926 106.516C376.712 107.388 379.498 108.407 381.712 110.27C381.764 110.754 381.83 111.238 381.903 111.736C381.9 111.748 381.9 111.761 381.903 111.773C381.976 112.264 382.064 112.748 382.16 113.239L382.248 113.709C382.365 114.28 382.49 114.845 382.629 115.402C382.629 115.454 382.629 115.498 382.666 115.542C382.776 115.967 382.886 116.392 383.01 116.817C383.098 117.125 383.186 117.441 383.289 117.749V117.793C384.076 120.234 385.113 122.588 386.383 124.817Z" fill="#FFA799"/>
<path d="M382.578 115.162C380.605 115.352 377.79 116.724 375.671 118.021C375.661 116.377 375.556 114.734 375.355 113.101C375.355 112.999 375.355 112.903 375.311 112.793C375.298 112.297 375.222 111.804 375.084 111.327C375.084 109.714 374.424 108.108 373.955 106.539C376.741 107.412 379.527 108.431 381.742 110.293C381.8 110.814 381.859 111.298 381.932 111.76C381.929 111.772 381.929 111.784 381.932 111.796C382.084 112.929 382.3 114.053 382.578 115.162Z" fill="#F17785"/>
<path d="M385.76 113.8C384.396 115.597 380.994 115.853 378.845 115.164C376.857 114.527 375.166 113.19 374.087 111.403L373.867 111.065C373.852 110.795 373.823 110.526 373.779 110.259C373.662 109.526 373.471 108.836 373.295 108.132C372.93 106.977 372.827 105.755 372.994 104.554C373.367 103.106 374.267 101.848 375.517 101.028C377.605 99.8921 379.774 98.9118 382.006 98.0946C382.047 98.081 382.09 98.0757 382.133 98.0791C382.176 98.0825 382.218 98.0944 382.256 98.1143C382.294 98.1341 382.328 98.1614 382.356 98.1945C382.383 98.2277 382.404 98.266 382.416 98.3073L383.208 101.02C383.304 101.416 383.421 101.805 383.553 102.186C384.242 104.158 385.342 105.977 385.965 107.964C386.588 109.951 387.014 112.136 385.76 113.8Z" fill="#FFA59D"/>
<path d="M373.302 107.509C373.192 107.084 372.972 106.607 372.569 106.504C372.352 106.485 372.135 106.53 371.944 106.633C371.752 106.736 371.595 106.892 371.491 107.084C371.168 107.548 370.997 108.101 371.001 108.667C371.005 109.233 371.184 109.784 371.513 110.244C371.842 110.704 372.306 111.051 372.84 111.238C373.375 111.424 373.953 111.441 374.497 111.285C374.145 110.038 373.632 108.755 373.302 107.509Z" fill="#FFA59D"/>
<path d="M381.617 107.431C381.617 107.497 381.778 107.541 382.013 107.489C382.339 107.412 382.629 107.226 382.834 106.961C382.97 106.78 383.06 106.569 383.098 106.345C383.148 106.134 383.128 105.913 383.039 105.715C383.003 105.649 382.973 105.627 382.929 105.634H382.885C382.822 105.78 382.768 105.929 382.724 106.081C382.659 106.255 382.573 106.42 382.468 106.573C382.47 106.592 382.47 106.612 382.468 106.631C382.309 106.846 382.113 107.03 381.888 107.174C381.712 107.291 381.602 107.365 381.617 107.431Z" fill="#DD6478"/>
<path d="M379.989 109.203C381.458 109.237 382.915 108.944 384.257 108.345C384.311 108.315 384.372 108.299 384.435 108.297C384.497 108.295 384.559 108.309 384.615 108.336C384.671 108.363 384.72 108.404 384.757 108.454C384.794 108.504 384.819 108.562 384.829 108.624C385.312 113.471 380.825 111.682 379.755 109.768C379.601 109.453 379.667 109.159 379.989 109.203Z" fill="white"/>
<path d="M395.842 134.528C393.642 122.9 385.071 122.306 385.071 122.306C384.585 122.231 384.095 122.189 383.604 122.181C383.377 122.181 383.15 122.181 382.922 122.181C380.598 122.027 378.523 121.448 376.162 121.616C375.979 121.616 375.795 121.616 375.612 121.653H375.546L374.754 121.763C373.895 121.981 373.052 122.257 372.232 122.592L371.616 122.863C367.693 124.645 362.26 128.729 362.392 137.711V144.566H397.315C396.995 141.198 396.503 137.847 395.842 134.528Z" fill="#FBC96A"/>
<path d="M394.72 144.546H393.62C393.886 143.249 393.992 141.924 393.935 140.601C393.859 139.629 393.611 138.678 393.202 137.793C393.055 137.448 392.887 137.111 392.711 136.781L392.645 136.664C391.486 134.537 389.998 132.448 390.093 129.903C390.093 129.803 390.125 129.706 390.182 129.625C390.24 129.543 390.322 129.482 390.416 129.449C390.498 129.418 390.587 129.407 390.674 129.418C390.762 129.429 390.845 129.462 390.918 129.512C390.99 129.563 391.049 129.63 391.089 129.708C391.129 129.787 391.15 129.874 391.149 129.962C391.138 130.32 391.16 130.678 391.215 131.032C391.566 132.545 392.189 133.981 393.055 135.27C393.18 135.476 393.305 135.681 393.422 135.886C393.539 136.092 393.759 136.495 393.906 136.796C393.972 136.92 394.031 137.038 394.089 137.162C394.599 138.225 394.907 139.374 394.998 140.55C395.059 141.888 394.966 143.229 394.72 144.546Z" fill="#EFB250"/>
<path d="M385.071 122.302C385.071 122.302 390.848 137.978 375.539 121.569C376.941 120.502 378.687 119.988 380.444 120.123C382.201 120.258 383.847 121.033 385.071 122.302Z" fill="#FFA799"/>
<path d="M166.871 205.493H134.03L131.097 181.209C130.98 180.254 131.066 179.285 131.35 178.365C131.634 177.446 132.109 176.596 132.744 175.873C133.378 175.15 134.159 174.569 135.034 174.168C135.908 173.767 136.858 173.555 137.82 173.547H157.178C158.614 173.609 159.994 174.122 161.122 175.013C162.25 175.904 163.068 177.128 163.461 178.511C163.555 178.85 163.626 179.196 163.674 179.545L163.857 181.084L163.997 182.221L164.129 183.269L164.363 185.234V185.396L164.414 185.828L166.871 205.493Z" fill="#2F335B"/>
<path d="M172.458 205.494H139.617L136.647 181.209C136.531 180.249 136.62 179.275 136.908 178.351C137.196 177.427 137.677 176.575 138.319 175.851C138.96 175.127 139.748 174.547 140.631 174.15C141.513 173.753 142.469 173.547 143.437 173.547H162.501C162.686 173.536 162.872 173.536 163.058 173.547C164.095 173.629 165.099 173.95 165.991 174.486C166.73 174.927 167.382 175.501 167.912 176.179C168.662 177.15 169.136 178.305 169.283 179.523L170.067 185.961L172.458 205.494Z" fill="#454C7F"/>
<path d="M152.221 187.279C148.797 185.813 146.047 183.144 146.15 179.214C146.201 177.109 147.198 175.394 148.349 173.7C150.307 170.811 151.062 169.403 150.439 165.635C149.097 157.569 160.44 152.004 166.211 157.796C166.377 157.956 166.475 158.174 166.482 158.405C167.756 158.839 168.842 159.699 169.558 160.839C170.273 161.979 170.575 163.33 170.412 164.667C170.141 167.218 168.542 169.205 169.158 171.889C169.686 174.184 171.145 176.098 171.248 178.488C171.688 188.526 159.296 190.249 152.221 187.279Z" fill="#C94B5A"/>
<path d="M170.082 185.525C168.513 186.719 166.599 187.375 164.627 187.394C162.764 187.37 160.971 186.684 159.568 185.459C159.763 184.098 159.885 182.727 159.934 181.353C159.934 181.037 159.934 180.722 159.934 180.407C159.934 180.04 159.971 179.674 159.934 179.307V179.109C159.922 177.55 159.822 175.993 159.634 174.446L159.59 174.16C159.573 173.696 159.501 173.236 159.377 172.789C159.377 171.256 158.747 169.738 158.307 168.25C160.946 169.079 163.586 170.039 165.69 171.806C165.742 172.268 165.8 172.723 165.866 173.177C165.863 173.189 165.863 173.202 165.866 173.214C165.939 173.683 166.027 174.145 166.115 174.614C166.115 174.761 166.167 174.915 166.196 175.054C166.306 175.604 166.431 176.139 166.555 176.667C166.555 176.711 166.555 176.755 166.592 176.799C166.695 177.203 166.805 177.606 166.915 178.002C167.025 178.398 167.083 178.596 167.186 178.889C167.186 178.889 167.186 178.889 167.186 178.933C167.922 181.224 168.893 183.433 170.082 185.525Z" fill="#FFA799"/>
<path d="M180.303 205.474H145.512L146.084 197.482V197.379C146.428 189.204 151.568 185.391 155.337 183.675C155.535 183.58 155.748 183.492 155.946 183.411C156.769 183.069 157.617 182.79 158.483 182.575L159.282 182.465H159.348C159.531 182.465 159.714 182.465 159.898 182.429C162.288 182.289 164.356 182.839 166.687 182.993C166.915 182.993 167.149 183.03 167.377 183.037C167.868 183.043 168.358 183.082 168.843 183.155C168.843 183.155 177.458 183.748 179.673 195.436C180.369 198.734 180.582 202.115 180.303 205.474Z" fill="#B8D5FF"/>
<path d="M166.541 176.372C164.671 176.548 162.002 177.839 159.993 179.078C159.981 177.519 159.88 175.962 159.692 174.414L159.648 174.129C159.631 173.665 159.56 173.205 159.436 172.757C159.436 171.225 158.805 169.707 158.365 168.219C161.005 169.047 163.644 170.008 165.749 171.775C165.807 172.266 165.859 172.728 165.925 173.146C165.921 173.158 165.921 173.171 165.925 173.183C166.073 174.256 166.278 175.321 166.541 176.372Z" fill="#F17785"/>
<path d="M169.591 174.765C168.344 176.503 165.126 176.833 163.073 176.232C161.172 175.677 159.538 174.449 158.475 172.778L158.255 172.463C158.255 172.214 158.197 171.965 158.153 171.73C158.021 171.055 157.823 170.388 157.639 169.728C157.265 168.641 157.137 167.484 157.265 166.341C157.582 164.959 158.403 163.746 159.568 162.939C161.519 161.812 163.55 160.832 165.646 160.006C165.684 159.991 165.725 159.983 165.766 159.984C165.806 159.986 165.847 159.995 165.884 160.012C165.921 160.029 165.954 160.054 165.981 160.084C166.008 160.115 166.029 160.15 166.042 160.189L166.863 162.748C166.966 163.122 167.083 163.481 167.215 163.855C167.949 165.703 169.004 167.397 169.642 169.266C170.28 171.136 170.742 173.16 169.591 174.765Z" fill="#FFA59D"/>
<path d="M163.96 170.326C165.229 170.329 166.482 170.046 167.626 169.497C167.673 169.471 167.726 169.456 167.779 169.453C167.833 169.451 167.887 169.461 167.936 169.483C167.986 169.506 168.029 169.539 168.063 169.581C168.097 169.623 168.12 169.672 168.132 169.725C168.652 173.882 164.752 172.438 163.791 170.825C163.63 170.59 163.681 170.326 163.96 170.326Z" fill="white"/>
<path d="M178.837 205.48H177.664C177.948 204.094 178.061 202.678 178.001 201.264C177.915 200.223 177.647 199.206 177.209 198.258C177.048 197.891 176.865 197.525 176.674 197.173L176.608 197.048C175.362 194.775 173.77 192.539 173.88 189.818C173.879 189.711 173.912 189.605 173.973 189.517C174.035 189.429 174.123 189.363 174.225 189.327C174.315 189.289 174.414 189.274 174.512 189.284C174.609 189.294 174.703 189.328 174.784 189.384C174.865 189.439 174.931 189.514 174.975 189.602C175.02 189.689 175.042 189.786 175.039 189.884C175.027 190.264 175.049 190.645 175.105 191.021C175.477 192.64 176.145 194.177 177.077 195.552L177.466 196.219C177.649 196.542 177.825 196.865 177.986 197.187C178.052 197.319 178.118 197.451 178.177 197.583C178.723 198.718 179.053 199.943 179.152 201.198C179.216 202.633 179.11 204.07 178.837 205.48Z" fill="#98C2F4"/>
<path d="M166.343 184.815L160.917 182.007L168.235 181.75L166.343 184.815Z" fill="#FFA799"/>
<path d="M163.901 185.876L165.998 189.249L165.25 205.475H169.628L167.098 189.249L168.234 185.846L166.343 184.812L163.901 185.876Z" fill="#477DB2"/>
<path d="M159.979 179.93L166.343 184.813L163.557 188.919L158.175 182.657L159.979 179.93Z" fill="#E1EFFF"/>
<path d="M166.343 184.814L169.518 187.821L170.126 182.681L167.993 180.906L166.343 184.814Z" fill="#E1EFFF"/>
<path d="M166.775 162.566C166.278 162.606 165.81 162.813 165.446 163.154C165.082 163.495 164.845 163.949 164.774 164.443C164.558 164.414 164.338 164.442 164.136 164.524C163.969 164.6 163.819 164.71 163.696 164.846C163.381 164.443 162.944 164.151 162.451 164.013C161.958 163.875 161.433 163.899 160.955 164.081C160.476 164.263 160.068 164.594 159.791 165.024C159.514 165.455 159.381 165.963 159.414 166.474C159.414 166.474 159.414 166.54 159.414 166.577C158.727 166.651 158.075 166.921 157.537 167.354C156.911 167.858 156.468 168.553 156.276 169.334L156.782 169.458C156.934 168.826 157.282 168.258 157.776 167.834C158.269 167.411 158.883 167.153 159.531 167.097C159.713 167.653 160.092 168.122 160.595 168.418C161.099 168.714 161.694 168.816 162.268 168.704C162.841 168.593 163.355 168.275 163.711 167.812C164.067 167.349 164.241 166.771 164.202 166.188C164.185 165.888 164.111 165.594 163.982 165.323C164.061 165.182 164.185 165.071 164.334 165.007C164.454 164.957 164.586 164.939 164.715 164.956V165.095C164.78 165.517 164.965 165.91 165.249 166.227C165.532 166.545 165.902 166.774 166.314 166.885C166.725 166.997 167.159 166.986 167.565 166.856C167.97 166.725 168.329 166.479 168.597 166.148C168.866 165.818 169.032 165.416 169.077 164.992C169.121 164.569 169.042 164.141 168.848 163.762C168.655 163.382 168.355 163.068 167.986 162.855C167.616 162.643 167.193 162.542 166.768 162.566H166.775ZM161.921 168.212C161.551 168.233 161.183 168.144 160.863 167.955C160.543 167.767 160.286 167.489 160.125 167.155C159.964 166.821 159.905 166.446 159.956 166.079C160.007 165.712 160.166 165.367 160.412 165.09C160.659 164.813 160.982 164.615 161.341 164.521C161.7 164.428 162.078 164.443 162.429 164.564C162.78 164.685 163.086 164.908 163.31 165.203C163.535 165.499 163.666 165.854 163.689 166.225C163.717 166.722 163.546 167.211 163.215 167.583C162.884 167.955 162.419 168.181 161.921 168.212ZM167.054 166.841C166.676 166.907 166.287 166.857 165.939 166.697C165.59 166.537 165.298 166.275 165.102 165.946C164.906 165.616 164.814 165.235 164.84 164.852C164.865 164.469 165.006 164.104 165.244 163.803C165.482 163.502 165.806 163.281 166.173 163.169C166.539 163.056 166.931 163.058 167.297 163.173C167.663 163.289 167.985 163.513 168.22 163.816C168.456 164.118 168.594 164.485 168.616 164.868C168.642 165.102 168.622 165.339 168.556 165.566C168.49 165.792 168.38 166.003 168.232 166.187C168.084 166.37 167.901 166.522 167.694 166.635C167.487 166.747 167.259 166.817 167.025 166.841H167.054Z" fill="#2F335B"/>
<path d="M157.617 169.113C157.5 168.717 157.28 168.27 156.884 168.182C156.677 168.168 156.471 168.216 156.291 168.319C156.111 168.422 155.965 168.576 155.872 168.761C155.587 169.209 155.445 169.733 155.466 170.264C155.486 170.794 155.667 171.306 155.986 171.73C156.305 172.155 156.745 172.472 157.249 172.64C157.753 172.808 158.296 172.818 158.805 172.669C158.497 171.525 157.977 170.286 157.617 169.113Z" fill="#FFA59D"/>
<path d="M165.632 168.925C165.632 168.984 165.8 169.006 166.013 168.925C166.306 168.808 166.548 168.589 166.695 168.309C166.794 168.116 166.847 167.903 166.849 167.686C166.864 167.481 166.809 167.277 166.695 167.107C166.651 167.055 166.621 167.033 166.585 167.055C166.573 167.051 166.56 167.051 166.548 167.055C166.509 167.202 166.48 167.352 166.46 167.503C166.426 167.675 166.372 167.842 166.299 168.001C166.301 168.021 166.301 168.04 166.299 168.06C166.183 168.285 166.027 168.487 165.837 168.654C165.683 168.786 165.61 168.866 165.632 168.925Z" fill="#DD6478"/>
<path d="M101.548 84.3484H203.935C204.145 84.3519 204.35 84.2819 204.514 84.1504C204.633 84.07 204.73 83.9603 204.794 83.8318C204.858 83.7034 204.888 83.5606 204.881 83.4172L203.539 36.3736C203.481 34.1397 203.417 31.9034 203.349 29.6646C203.347 29.4156 203.247 29.1772 203.072 29.0004C202.897 28.8237 202.659 28.7226 202.41 28.7188H100.015C99.7658 28.7225 99.5274 28.8234 99.3508 29C99.1742 29.1765 99.0734 29.4149 99.0696 29.6646L100.426 76.6862C100.485 78.9299 100.548 81.1686 100.617 83.4025C100.62 83.6497 100.719 83.886 100.893 84.0622C101.066 84.2383 101.301 84.3409 101.548 84.3484ZM189.674 30.5885H201.494C201.929 45.9568 202.366 61.3227 202.806 76.6862L202.967 82.4567H102.464L101.159 36.3589L100.998 30.5885H189.674Z" fill="#C0DEE2"/>
<path d="M210.314 84.3552H312.709C312.919 84.3588 313.124 84.2888 313.288 84.1573C313.407 84.0768 313.503 83.9671 313.567 83.8387C313.632 83.7103 313.662 83.5675 313.655 83.424L312.328 36.3658C312.262 34.1661 312.203 31.8931 312.137 29.6568C312.133 29.4071 312.032 29.1687 311.856 28.9922C311.679 28.8156 311.441 28.7147 311.191 28.7109H208.782C208.533 28.7148 208.295 28.8159 208.12 28.9926C207.944 29.1694 207.845 29.4078 207.843 29.6568C208.293 45.3331 208.738 61.0119 209.178 76.6931L209.376 83.4094C209.378 83.6584 209.477 83.8968 209.652 84.0735C209.828 84.2503 210.065 84.3514 210.314 84.3552ZM298.448 30.5953H310.26C310.7 45.9637 311.137 61.3296 311.572 76.6931C311.631 78.6214 311.682 80.5425 311.741 82.4635H211.231C210.796 67.1049 210.358 51.739 209.918 36.3658L209.757 30.5953H298.448Z" fill="#C0DEE2"/>
<path d="M319.088 84.3411H421.475C421.684 84.3467 421.889 84.2793 422.054 84.1504C422.173 84.07 422.269 83.9603 422.334 83.8318C422.398 83.7034 422.428 83.5606 422.421 83.4172C421.971 67.736 421.526 52.0572 421.086 36.3809C421.018 34.1373 420.954 31.8985 420.896 29.6646C420.89 29.4155 420.789 29.1782 420.612 29.002C420.436 28.8258 420.199 28.7243 419.95 28.7188H317.555C317.306 28.7226 317.069 28.8237 316.893 29.0004C316.718 29.1772 316.619 29.4156 316.617 29.6646C317.057 45.3409 317.501 61.0197 317.951 76.7009C318.017 78.9372 318.076 81.1809 318.142 83.4172C318.149 83.6636 318.252 83.8975 318.429 84.0698C318.605 84.242 318.841 84.3393 319.088 84.3411ZM407.221 30.5958H419.033C419.463 45.9544 419.901 61.3178 420.346 76.6862C420.397 78.6072 420.456 80.5356 420.507 82.4567H320.004C319.564 67.0981 319.127 51.7346 318.692 36.3663C318.64 34.4379 318.582 32.5168 318.53 30.5958H407.221Z" fill="#C0DEE2"/>
<path d="M103.132 145.2H205.526C205.736 145.204 205.941 145.133 206.105 145.002C206.224 144.922 206.321 144.812 206.385 144.683C206.449 144.555 206.479 144.412 206.472 144.269L205.13 97.2252C205.064 95.0255 205.006 92.7525 204.94 90.5162C204.936 90.2665 204.835 90.0281 204.658 89.8515C204.482 89.675 204.243 89.5741 203.994 89.5703H101.606C101.356 89.5722 101.117 89.6725 100.94 89.8495C100.763 90.0264 100.663 90.2659 100.661 90.5162L102.002 137.552L102.193 144.269C102.201 144.515 102.302 144.748 102.477 144.922C102.651 145.095 102.886 145.194 103.132 145.2ZM191.265 91.44H203.077C203.517 106.808 203.955 122.174 204.39 137.538C204.448 139.466 204.5 141.387 204.558 143.308H104.048C103.618 127.95 103.18 112.584 102.736 97.2105C102.684 95.2895 102.626 93.3684 102.574 91.44H191.265Z" fill="#C0DEE2"/>
<path d="M211.876 145.2H314.3C314.51 145.204 314.715 145.133 314.879 145.002C314.998 144.922 315.094 144.812 315.157 144.684C315.22 144.555 315.248 144.412 315.238 144.269C314.798 128.588 314.354 112.906 313.904 97.2252C313.835 94.9913 313.772 92.7549 313.713 90.5162C313.709 90.2665 313.609 90.0281 313.432 89.8515C313.255 89.675 313.017 89.5741 312.767 89.5703H210.409C210.16 89.5741 209.923 89.6753 209.747 89.852C209.572 90.0288 209.473 90.2672 209.471 90.5162C209.911 106.192 210.356 121.871 210.805 137.552C210.871 139.789 210.937 142.032 210.996 144.269C211.004 144.505 211.098 144.729 211.26 144.901C211.422 145.072 211.641 145.179 211.876 145.2ZM300.009 91.44H311.822C312.261 106.808 312.699 122.174 313.134 137.538C313.193 139.464 313.246 141.387 313.295 143.308H212.822C212.382 127.95 211.944 112.584 211.509 97.2105C211.458 95.2895 211.399 93.3684 211.348 91.44H300.009Z" fill="#C0DEE2"/>
<path d="M320.679 145.2H423.044C423.255 145.205 423.46 145.135 423.623 145.002C423.745 144.924 423.842 144.814 423.907 144.685C423.971 144.556 424 144.413 423.99 144.269L422.648 97.2252C422.59 94.9913 422.526 92.7549 422.458 90.5162C422.456 90.2672 422.357 90.0288 422.181 89.852C422.006 89.6753 421.768 89.5741 421.519 89.5703H319.147C318.898 89.5721 318.66 89.6701 318.482 89.8437C318.304 90.0174 318.201 90.2531 318.193 90.5015L319.535 137.538L319.726 144.254C319.73 144.505 319.831 144.744 320.01 144.921C320.188 145.098 320.428 145.198 320.679 145.2ZM408.812 91.44H420.625C421.055 106.808 421.492 122.174 421.937 137.538C421.988 139.466 422.047 141.387 422.098 143.308H321.596C321.156 127.95 320.718 112.584 320.283 97.2105C320.224 95.2895 320.173 93.3684 320.114 91.44H408.812Z" fill="#C0DEE2"/>
<path d="M206.531 151.345C206.525 151.096 206.423 150.86 206.247 150.685C206.071 150.51 205.833 150.41 205.585 150.406H103.19C102.943 150.41 102.706 150.51 102.531 150.685C102.356 150.86 102.255 151.097 102.252 151.345C102.697 167.026 103.141 182.707 103.586 198.388C103.652 200.625 103.718 202.868 103.777 205.105C103.782 205.353 103.884 205.59 104.061 205.765C104.237 205.94 104.474 206.039 104.723 206.043H207.117C207.327 206.049 207.531 205.981 207.697 205.853C207.815 205.772 207.912 205.662 207.976 205.534C208.04 205.406 208.07 205.263 208.063 205.119L206.743 158.061C206.655 155.825 206.597 153.588 206.531 151.345ZM117.451 204.137H105.639C105.199 188.768 104.762 173.403 104.327 158.039C104.275 156.118 104.217 154.19 104.165 152.269H204.668C205.108 167.637 205.546 183.003 205.981 198.366C206.039 200.287 206.091 202.216 206.149 204.137H117.451Z" fill="#C0DEE2"/>
<path d="M315.304 151.345C315.299 151.096 315.197 150.86 315.021 150.685C314.844 150.51 314.607 150.41 314.359 150.406H211.964C211.715 150.408 211.477 150.507 211.3 150.683C211.123 150.858 211.022 151.096 211.018 151.345L212.36 198.388C212.426 200.625 212.485 202.868 212.551 205.105C212.554 205.354 212.655 205.591 212.832 205.767C213.009 205.942 213.247 206.041 213.496 206.043H315.891C316.098 206.05 316.301 205.983 316.463 205.853C316.584 205.774 316.682 205.665 316.746 205.536C316.811 205.407 316.84 205.263 316.83 205.119C316.38 189.438 315.935 173.757 315.495 158.076C315.427 155.827 315.363 153.584 315.304 151.345ZM226.225 204.137H214.413C213.973 188.768 213.535 173.403 213.1 158.039C213.042 156.118 212.99 154.19 212.932 152.269H313.442C313.872 167.637 314.31 183.003 314.754 198.366C314.806 200.287 314.864 202.216 314.916 204.137H226.225Z" fill="#C0DEE2"/>
<path d="M425.603 205.105L424.261 158.061C424.203 155.822 424.139 153.584 424.071 151.345C424.067 151.097 423.967 150.86 423.792 150.685C423.616 150.51 423.38 150.41 423.132 150.406H320.738C320.489 150.408 320.25 150.507 320.073 150.683C319.897 150.858 319.796 151.096 319.792 151.345L321.126 198.388C321.185 200.625 321.251 202.868 321.317 205.105C321.321 205.354 321.422 205.591 321.599 205.767C321.775 205.942 322.014 206.041 322.263 206.043H424.657C424.867 206.049 425.071 205.981 425.237 205.853C425.358 205.771 425.455 205.659 425.52 205.528C425.584 205.396 425.613 205.251 425.603 205.105ZM334.999 204.159H323.187L321.859 158.061C321.808 156.14 321.757 154.212 321.698 152.291H422.208L423.528 198.388C423.579 200.309 423.631 202.238 423.689 204.159H334.999Z" fill="#C0DEE2"/>
<path d="M154.406 296.844C154.406 299.139 130.085 301.002 83.8478 301.002C37.6108 301.002 0.128418 299.11 0.128418 296.844C0.128418 294.579 37.6108 292.68 83.8478 292.68C130.085 292.68 154.406 294.542 154.406 296.844Z" fill="#BED0DB"/>
<path d="M104.202 130.866H118.984C125.972 130.866 132.255 133.271 135.716 139.767C137.784 143.646 137.645 148.009 137.85 152.269L138.752 170.716C138.957 175.033 139.167 179.346 139.382 183.658C139.602 188.233 146.751 188.262 146.524 183.658C146.035 173.192 145.524 162.729 144.991 152.269C144.735 146.916 144.632 141.761 142.212 136.805C138.238 128.659 129.748 123.834 120.817 123.717C115.281 123.651 109.738 123.717 104.202 123.717C99.6049 123.717 99.5976 130.866 104.202 130.866Z" fill="#24272D"/>
<path d="M142.902 134.429C141.814 137.075 139.883 139.289 137.41 140.727C136.714 141.132 135.907 141.304 135.106 141.218C134.306 141.132 133.554 140.793 132.959 140.251C130.29 137.816 124.894 133.608 119.893 133.608H105.119C104.291 133.618 103.47 133.461 102.705 133.145C101.94 132.83 101.247 132.363 100.668 131.772C100.088 131.182 99.6339 130.48 99.3328 129.709C99.0317 128.938 98.8898 128.114 98.9156 127.287C98.9012 125.736 99.4421 124.23 100.441 123.042C101.018 122.368 101.736 121.83 102.544 121.465C103.353 121.1 104.232 120.917 105.119 120.93C106.959 120.93 108.785 120.93 110.647 120.93H116.19C117.877 120.93 119.563 120.93 121.25 120.93H121.763C125.67 120.97 129.523 121.844 133.064 123.496C136.606 125.148 139.752 127.538 142.293 130.506C142.745 131.041 143.041 131.69 143.148 132.382C143.255 133.074 143.17 133.782 142.902 134.429Z" fill="#1C1F23"/>
<path d="M97.2365 190.914H57.2905V200.534H97.2365V190.914Z" fill="#24272D"/>
<path d="M83.5839 254.264H70.9431L71.493 207.125H83.034L83.5839 254.264Z" fill="#16181C"/>
<path d="M154.039 186.518C153.677 188.341 152.692 189.982 151.252 191.16C149.813 192.337 148.009 192.977 146.15 192.97H28.5262C28.6924 185.506 28.7633 178.301 28.7389 171.355C28.5116 87.5619 15.7021 41.6328 15.7021 41.6328L88.5405 43.9425C91.0979 44.0285 93.5555 44.9551 95.5331 46.5788C97.5107 48.2025 98.898 50.4328 99.4802 52.9244C113.309 110.908 105.669 171.384 105.669 171.384H133.531V180.322H154.245C154.488 182.386 154.418 184.474 154.039 186.518Z" fill="#3F434C"/>
<path d="M68.0249 186.518C67.6626 188.341 66.6773 189.982 65.238 191.16C63.7987 192.337 61.9948 192.977 60.1354 192.97H21.5312C20.2863 192.973 19.054 192.72 17.9109 192.226C16.7677 191.733 15.738 191.011 14.8856 190.103C14.0332 189.196 13.3763 188.123 12.9554 186.951C12.5346 185.78 12.3589 184.534 12.4393 183.292C18.701 87.8332 8.25256 61.0486 8.25256 61.0486C5.84026 43.2092 15.7021 41.6328 15.7021 41.6328C15.7021 41.6328 28.5115 87.5619 28.7388 171.355H59.9521C61.7383 171.344 63.4764 171.932 64.8883 173.026C66.3001 174.12 67.3039 175.657 67.739 177.389C68.4909 180.376 68.5884 183.49 68.0249 186.518Z" fill="#24272D"/>
<path d="M154.039 186.523C153.677 188.346 152.692 189.987 151.252 191.165C149.813 192.342 148.009 192.982 146.15 192.975H60.1355C61.9943 192.983 63.7979 192.343 65.2363 191.166C66.6747 189.988 67.6581 188.346 68.0176 186.523C68.5881 183.493 68.493 180.376 67.739 177.387C67.3026 175.656 66.2981 174.121 64.8864 173.028C63.4747 171.936 61.7373 171.348 59.9521 171.36H145.967C147.753 171.349 149.492 171.938 150.905 173.032C152.318 174.126 153.323 175.662 153.761 177.394C153.871 177.871 153.973 178.34 154.054 178.794C154.091 179.022 154.135 179.249 154.164 179.469C154.193 179.689 154.215 179.784 154.223 179.946C154.245 180.069 154.259 180.194 154.267 180.32C154.503 182.387 154.426 184.478 154.039 186.523Z" fill="#575C66"/>
<path d="M18.4517 130.866H33.2335C40.2211 130.866 46.5048 133.271 49.9656 139.767C52.0333 143.646 51.894 148.009 52.0993 152.269L53.0012 170.716C53.2163 175.033 53.4264 179.346 53.6318 183.658C53.8517 188.233 60.964 188.262 60.7733 183.658C60.2845 173.192 59.7762 162.729 59.2482 152.269C58.9843 146.916 58.8816 141.761 56.462 136.805C52.4953 128.659 43.9972 123.834 35.0665 123.717C29.5307 123.651 23.9875 123.717 18.4517 123.717C13.8544 123.717 13.8471 130.866 18.4517 130.866Z" fill="#16181C"/>
<path d="M128.113 284.764L125.363 292.053L82.6088 280.688L80.7024 289.853H73.8321L71.9257 280.688L29.1715 292.053L26.4219 284.764L69.0221 271.757V243.953H85.5123V271.757L128.113 284.764Z" fill="#1C1F23"/>
<path d="M85.5122 289.85C85.5122 291.482 85.0284 293.077 84.122 294.433C83.2156 295.79 81.9273 296.847 80.4201 297.471C78.9128 298.095 77.2543 298.259 75.6542 297.941C74.0541 297.622 72.5843 296.837 71.4307 295.683C70.2771 294.529 69.4914 293.06 69.1731 291.46C68.8549 289.859 69.0182 288.201 69.6426 286.694C70.2669 285.186 71.3241 283.898 72.6807 282.992C74.0372 282.085 75.632 281.602 77.2634 281.602C79.4511 281.602 81.5492 282.471 83.0962 284.018C84.6431 285.565 85.5122 287.663 85.5122 289.85Z" fill="#2F333A"/>
<path d="M134.616 289.85C134.616 291.482 134.132 293.077 133.226 294.433C132.32 295.79 131.031 296.847 129.524 297.471C128.017 298.095 126.358 298.259 124.758 297.941C123.158 297.622 121.688 296.837 120.535 295.683C119.381 294.529 118.595 293.06 118.277 291.46C117.959 289.859 118.122 288.201 118.747 286.694C119.371 285.186 120.428 283.898 121.785 282.992C123.141 282.085 124.736 281.602 126.367 281.602C127.451 281.602 128.523 281.815 129.524 282.229C130.525 282.644 131.434 283.252 132.2 284.018C132.966 284.784 133.574 285.693 133.988 286.694C134.403 287.694 134.616 288.767 134.616 289.85Z" fill="#2F333A"/>
<path d="M36.4082 289.85C36.4082 291.482 35.9244 293.077 35.018 294.433C34.1116 295.79 32.8233 296.847 31.3161 297.471C29.8088 298.095 28.1503 298.259 26.5502 297.941C24.9501 297.622 23.4803 296.837 22.3267 295.683C21.173 294.529 20.3874 293.06 20.0691 291.46C19.7509 289.859 19.9142 288.201 20.5385 286.694C21.1629 285.186 22.2201 283.898 23.5766 282.992C24.9331 282.085 26.528 281.602 28.1594 281.602C29.2429 281.601 30.316 281.813 31.3172 282.228C32.3184 282.642 33.2282 283.249 33.9943 284.015C34.7605 284.782 35.368 285.691 35.7822 286.693C36.1964 287.694 36.4091 288.767 36.4082 289.85Z" fill="#2F333A"/>
<path d="M91.0629 200.531H63.4717V210.378H91.0629V200.531Z" fill="#1C1F23"/>
<path d="M36.137 112.624L98.0577 109.596L97.2731 100.32L36.137 112.624Z" fill="#24272D"/>
<path d="M95.8144 65.826L32.3521 71.6797L36.1302 112.64L99.5925 106.786L95.8144 65.826Z" fill="#F4F4F4"/>
<path d="M63.9883 76.0482C64.7763 75.9689 65.4355 76.1277 65.966 76.5245C66.4964 76.9214 66.7993 77.4939 66.8746 78.2421C66.9588 79.0779 66.7626 79.7248 66.2861 80.1829C65.8088 80.6329 65.1283 80.9025 64.2448 80.9914L64.3232 82.1293L63.38 82.2243L63.1423 80.3426L63.4885 80.3077C64.2765 80.2284 64.8814 80.0469 65.3031 79.7632C65.7248 79.4795 65.9024 79.0074 65.8359 78.3467C65.7878 77.8691 65.6064 77.5055 65.2918 77.2557C64.9772 77.006 64.5772 76.9056 64.0916 76.9545C63.5981 77.0041 63.2217 77.1787 62.9624 77.4782C62.7103 77.7689 62.6074 78.1451 62.6539 78.6068L61.6271 78.7102C61.579 78.2326 61.6444 77.8039 61.8232 77.4241C62.0013 77.0363 62.2753 76.7233 62.6453 76.485C63.0233 76.2459 63.4709 76.1003 63.9883 76.0482ZM64.0921 84.625C63.8851 84.6458 63.7028 84.5918 63.5451 84.463C63.3874 84.3341 63.2981 84.1662 63.2773 83.9593C63.2564 83.7523 63.3104 83.57 63.4393 83.4123C63.5681 83.2546 63.736 83.1653 63.943 83.1445C64.142 83.1244 64.3163 83.1793 64.4661 83.3089C64.6238 83.4378 64.7131 83.6057 64.7339 83.8126C64.7547 84.0196 64.7007 84.2019 64.5719 84.3596C64.451 84.5165 64.291 84.605 64.0921 84.625ZM50.3121 100.152L46.6825 100.517L46.2002 102.435L45.054 102.55L47.2297 93.9733L48.4833 93.8471L52.3133 101.82L51.1671 101.935L50.3121 100.152ZM49.9127 99.2993L47.9852 95.248L46.9039 99.6023L49.9127 99.2993ZM54.5729 96.2129C54.7565 95.8005 55.0508 95.4492 55.4558 95.1592C55.8608 94.8691 56.3379 94.6965 56.8871 94.6412C57.4761 94.5819 58.0195 94.6679 58.5171 94.8992C59.0148 95.1305 59.4246 95.4872 59.7465 95.9694C60.0677 96.4436 60.2619 97.015 60.3292 97.6837C60.3957 98.3443 60.3197 98.947 60.1012 99.4916C59.8826 100.036 59.549 100.476 59.1003 100.811C58.6595 101.144 58.1486 101.341 57.5675 101.399C57.0024 101.456 56.4925 101.383 56.0378 101.179C55.5911 100.975 55.241 100.693 54.9877 100.332L55.1091 101.538L54.0226 101.647L53.133 92.8121L54.2195 92.7027L54.5729 96.2129ZM59.2188 97.7955C59.1691 97.302 59.0264 96.8821 58.7905 96.536C58.5546 96.1899 58.256 95.9386 57.8945 95.782C57.5409 95.6246 57.1612 95.5664 56.7552 95.6073C56.3572 95.6473 55.9971 95.7841 55.6749 96.0175C55.3598 96.2422 55.1176 96.5521 54.9483 96.947C54.7862 97.3332 54.7296 97.7691 54.7785 98.2546C54.8282 98.7481 54.9713 99.1719 55.208 99.526C55.4518 99.8713 55.7509 100.127 56.1053 100.292C56.4668 100.449 56.8465 100.507 57.2445 100.467C57.6504 100.426 58.011 100.293 58.326 100.068C58.6483 99.8349 58.8904 99.5251 59.0526 99.1389C59.2139 98.7447 59.2693 98.2969 59.2188 97.7955ZM64.8162 100.669C64.3148 100.72 63.8566 100.681 63.4418 100.554C63.0262 100.419 62.6877 100.212 62.4265 99.9329C62.1644 99.6457 62.0013 99.3043 61.9374 98.9087L63.0597 98.7957C63.1244 99.1189 63.3025 99.3703 63.594 99.55C63.8934 99.7289 64.266 99.7959 64.7117 99.751C65.1256 99.7093 65.4428 99.5849 65.6631 99.3778C65.8835 99.1707 65.9797 98.9279 65.9516 98.6493C65.9227 98.3627 65.7742 98.1646 65.5058 98.0549C65.2367 97.9373 64.8286 97.8377 64.2817 97.7561C63.7834 97.6776 63.3725 97.5903 63.0493 97.4942C62.7332 97.3893 62.4509 97.2208 62.2024 96.9885C61.961 96.7475 61.8191 96.416 61.7766 95.9942C61.7429 95.6598 61.8116 95.3434 61.9825 95.0448C62.1535 94.7461 62.414 94.4988 62.7641 94.3027C63.1134 94.0987 63.5229 93.973 63.9925 93.9258C64.7169 93.8528 65.3204 93.977 65.803 94.2983C66.2856 94.6195 66.5749 95.097 66.6708 95.7305L65.5843 95.8399C65.526 95.5001 65.359 95.2395 65.0835 95.0582C64.8159 94.8761 64.4712 94.8062 64.0493 94.8487C63.6593 94.888 63.3572 95.0028 63.1432 95.1932C62.9292 95.3836 62.8359 95.6141 62.8631 95.8848C62.8848 96.0997 62.9704 96.272 63.1202 96.4016C63.2771 96.5225 63.4634 96.6163 63.6792 96.683C63.9021 96.741 64.2058 96.8029 64.5904 96.8687C65.0728 96.9487 65.4677 97.0376 65.775 97.1353C66.0816 97.2251 66.3507 97.3829 66.5825 97.6088C66.8223 97.8339 66.9662 98.1451 67.0142 98.5423C67.0503 98.9005 66.9833 99.2328 66.8131 99.5394C66.643 99.846 66.3832 100.101 66.0339 100.305C65.6918 100.501 65.2859 100.622 64.8162 100.669ZM74.7403 96.0035C74.7611 96.2104 74.7712 96.4305 74.7706 96.6638L69.541 97.1903C69.6458 97.8311 69.9155 98.3145 70.3504 98.6405C70.7924 98.9579 71.3 99.0877 71.8731 99.03C72.3427 98.9827 72.7219 98.8359 73.0107 98.5898C73.3066 98.3348 73.4999 98.0179 73.5903 97.6389L74.7604 97.5211C74.6486 98.1676 74.3501 98.7162 73.8648 99.1671C73.3787 99.61 72.7457 99.8708 71.9656 99.9493C71.3448 100.012 70.7736 99.9286 70.252 99.6997C69.7384 99.47 69.3167 99.1145 68.9868 98.6331C68.6561 98.1438 68.4567 97.5608 68.3886 96.8842C68.3205 96.2077 68.3961 95.601 68.6154 95.0644C68.8347 94.5277 69.1736 94.0996 69.6319 93.7801C70.0973 93.4518 70.6484 93.2556 71.2852 93.1915C71.9061 93.129 72.4689 93.209 72.9737 93.4315C73.4786 93.6541 73.8824 93.9913 74.1852 94.4433C74.4952 94.8864 74.6802 95.4065 74.7403 96.0035ZM73.5951 95.8896C73.5535 95.4757 73.4262 95.1307 73.2135 94.8547C73 94.5706 72.7264 94.369 72.3928 94.2498C72.0663 94.1219 71.7121 94.0772 71.33 94.1156C70.7808 94.1709 70.3288 94.3933 69.974 94.7828C69.6272 95.1715 69.4572 95.6791 69.464 96.3056L73.5951 95.8896ZM79.4441 92.3579C80.2401 92.2778 80.9093 92.4556 81.4517 92.8915C81.9933 93.3194 82.3098 93.987 82.4011 94.8944L82.7894 98.751L81.7149 98.8591L81.3422 95.1579C81.2765 94.5052 81.0632 94.0241 80.7024 93.7147C80.3408 93.3973 79.8774 93.2671 79.3123 93.324C78.7392 93.3817 78.2995 93.6069 77.9933 93.9995C77.6951 94.3914 77.5804 94.9296 77.6493 95.6141L78.0136 99.2318L76.9271 99.3412L76.2683 92.7983L77.3548 92.6889L77.4486 93.6202C77.6298 93.2642 77.8943 92.9763 78.242 92.7564C78.5977 92.5356 78.9984 92.4028 79.4441 92.3579ZM85.7189 92.7513L86.1072 96.6078C86.1393 96.9262 86.2298 97.1462 86.3787 97.2679C86.5268 97.3816 86.7681 97.4217 87.1024 97.388L87.9023 97.3075L87.9949 98.2268L87.0158 98.3254C86.4109 98.3863 85.9432 98.2927 85.6127 98.0446C85.2821 97.7964 85.0848 97.354 85.0207 96.7172L84.6324 92.8607L83.7847 92.946L83.6945 92.0506L84.5422 91.9652L84.3763 90.3175L85.4628 90.2082L85.6287 91.8558L87.3361 91.6839L87.4263 92.5794L85.7189 92.7513Z" fill="#CD0505"/>
<path d="M68.788 65.4499L58.8438 66.3672L59.2276 70.5289L69.1719 69.6117L68.788 65.4499Z" fill="#24272D"/>
<path d="M56.242 134.429C55.1511 137.076 53.2184 139.289 50.7428 140.727C50.0467 141.132 49.2399 141.304 48.4394 141.218C47.639 141.132 46.8868 140.793 46.2921 140.251C43.6305 137.816 38.2267 133.608 33.2334 133.608H18.4517C17.6242 133.618 16.8033 133.461 16.0383 133.145C15.2733 132.83 14.5802 132.363 14.0006 131.772C13.4209 131.182 12.9669 130.48 12.6658 129.709C12.3647 128.938 12.2228 128.114 12.2486 127.287C12.2369 125.735 12.7804 124.229 13.781 123.042C14.3565 122.368 15.0734 121.83 15.8807 121.465C16.688 121.1 17.5658 120.917 18.4517 120.93C20.292 120.93 22.1178 120.93 23.9802 120.93H29.5233C31.2171 120.93 32.8961 120.93 34.5826 120.93H35.1032C39.0103 120.97 42.8638 121.844 46.4048 123.496C49.9459 125.148 53.0925 127.538 55.6334 130.506C56.0853 131.041 56.3811 131.69 56.4885 132.382C56.5958 133.074 56.5105 133.782 56.242 134.429Z" fill="#1C1F23"/>
<path d="M493.294 295.247C493.294 296.391 481.321 297.315 466.546 297.315C451.772 297.315 439.798 296.391 439.798 295.247C439.798 294.104 451.772 293.18 466.546 293.18C481.321 293.18 493.294 294.104 493.294 295.247Z" fill="#BED0DB"/>
<path d="M483.168 282.32C483.095 285.4 483.024 288.477 482.956 291.552C482.904 293.429 482.802 295.482 481.563 296.889C481.248 297.231 480.864 297.503 480.437 297.686C480.01 297.869 479.549 297.96 479.084 297.953H471.437C471.165 297.96 470.895 297.912 470.643 297.811C470.391 297.71 470.162 297.559 469.97 297.366C469.854 297.254 469.762 297.12 469.701 296.971C469.639 296.822 469.608 296.662 469.611 296.501C469.611 295.944 470.132 295.54 470.572 295.181C472.282 293.861 473.7 292.201 474.736 290.305C475.765 288.392 476.16 286.202 475.866 284.051C478.331 283.614 480.769 283.037 483.168 282.32Z" fill="#16162B"/>
<path d="M462.426 284.439C462.052 287.906 462.139 291.407 462.682 294.851C457.489 295.797 452.204 296.139 446.933 295.87C446.361 295.87 445.686 295.723 445.466 295.195C445.398 294.999 445.388 294.788 445.438 294.586C445.487 294.384 445.594 294.201 445.745 294.059C446.045 293.77 446.402 293.548 446.793 293.406C449.279 292.398 451.643 291.112 453.84 289.571C456.035 287.999 457.643 285.739 458.408 283.148C459.566 283.779 461.172 283.926 462.426 284.439Z" fill="#16162B"/>
<path d="M451.984 261.275C452.402 272.061 453.356 280.984 454.243 287.4C455.792 287.889 457.407 288.136 459.031 288.133C460.808 288.134 462.577 287.905 464.295 287.451C464.295 287.451 458.07 258.511 466.392 215.434C466.389 215.371 466.389 215.307 466.392 215.244V215.669C466.392 215.808 466.392 215.948 466.392 216.102V216.461C466.396 216.532 466.396 216.603 466.392 216.673C466.396 216.722 466.396 216.771 466.392 216.82C466.942 225.399 468.592 262.793 474.201 286.872C475.361 287.047 476.533 287.133 477.706 287.129C480.203 287.134 482.677 286.648 484.987 285.699C483.792 275.962 482.912 267.127 482.281 259.164C481.548 250.27 481.174 239.147 480.976 232.342C480.903 229.534 480.851 216.307 480.829 213.836C480.829 211.094 480.829 208.564 480.873 206.232C480.873 205.499 480.873 204.832 480.917 204.165C480.917 203.945 480.917 203.725 480.917 203.505C480.917 203.109 480.917 202.713 480.917 202.332C480.976 200.521 481.049 198.856 481.137 197.324C481.137 197.067 481.137 196.818 481.181 196.59C481.185 196.564 481.185 196.537 481.181 196.51C481.181 196.239 481.218 195.967 481.225 195.703C481.233 195.439 481.225 195.322 481.269 195.146C481.321 194.31 481.379 193.526 481.438 192.792V192.536C481.475 192.081 481.511 191.641 481.548 191.223C481.739 189.258 481.915 187.74 482.069 186.641L466.121 186.978L455.746 187.205C455.68 187.616 455.599 188.041 455.526 188.466C455.504 188.563 455.489 188.661 455.482 188.76C455.343 189.544 455.211 190.343 455.086 191.128C454.815 192.851 454.551 194.559 454.316 196.261C454.319 196.28 454.319 196.3 454.316 196.319C454.316 196.319 454.316 196.393 454.316 196.436C454.169 197.507 454.023 198.57 453.884 199.626C453.796 200.359 453.708 201.092 453.62 201.789C453.554 202.339 453.488 202.882 453.429 203.424L453.341 204.157C453.341 204.341 453.304 204.531 453.282 204.715C453.158 205.858 453.04 206.995 452.923 208.131C452.762 209.837 452.615 211.536 452.483 213.227C452.241 216.234 452.058 229.769 451.918 232.643C451.64 241.86 451.684 253.687 451.984 261.275Z" fill="#343256"/>
<path d="M477.955 132.933C476.909 134.82 475.858 136.707 474.802 138.594C474.069 139.913 473.241 141.314 471.87 141.908C471.225 142.168 470.517 142.231 469.836 142.091C469.155 141.95 468.531 141.611 468.042 141.116C470.081 140.012 471.801 138.401 473.035 136.438C473.541 135.468 474.15 134.556 474.854 133.718C475.253 133.321 475.751 133.039 476.297 132.901C476.843 132.762 477.415 132.774 477.955 132.933Z" fill="#8A4632"/>
<path d="M492.231 170.947C489.362 171.814 486.317 171.918 483.396 171.248C483.11 174.914 482.838 179.218 482.597 183.669C482.421 186.844 482.267 190.099 482.12 193.252C481.951 197.285 481.805 201.163 481.702 204.5C472.292 205.845 462.745 205.931 453.312 204.756C453.906 201.867 454.426 195.752 454.866 193.025C455.02 192.071 455.174 191.118 455.291 190.18C455.365 189.688 455.431 189.212 455.504 188.713C456.113 184.131 457.117 173.088 457.374 169.246C456.086 168.629 454.933 167.765 453.979 166.702C454.287 164.502 455.445 156.253 455.797 153.914C456.006 152.933 456.429 152.009 457.034 151.208C457.64 150.407 458.414 149.749 459.302 149.28C459.302 149.28 460.842 148.547 462.69 147.697L464.024 147.073L469.157 144.683L469.267 144.617C469.64 144.771 473.967 146.414 474.091 146.48C474.216 146.546 475.558 146.751 475.558 146.751C475.558 146.751 491.095 150.996 492.546 163.461C492.767 165.96 492.661 168.476 492.231 170.947Z" fill="#B8D5FF"/>
<path d="M464.735 147.57C467.451 148.247 470.271 148.394 473.043 148.002C473.263 147.775 473.483 147.533 473.71 147.269C473.599 146.944 473.506 146.614 473.431 146.279C473.151 145.192 473.023 144.072 473.05 142.95V142.87C473.071 142.154 473.147 141.44 473.277 140.736C473.343 140.406 473.417 140.069 473.512 139.746C473.629 139.306 473.776 138.866 473.937 138.426C474.144 137.887 474.389 137.362 474.67 136.857C474.78 136.64 474.902 136.429 475.037 136.227H474.736C474.26 136.227 473.783 136.227 473.27 136.227C472.3 136.273 471.338 136.428 470.403 136.688C468.554 137.142 466.922 138.229 465.791 139.761C465.857 140.458 465.879 141.158 465.857 141.858C465.857 142.173 465.857 142.474 465.806 142.782C465.754 143.09 465.725 143.573 465.659 143.969C465.659 144.109 465.615 144.248 465.6 144.387C465.534 144.71 465.468 145.025 465.395 145.341C465.292 145.773 465.168 146.198 465.036 146.616C464.904 147.034 464.838 147.247 464.735 147.57Z" fill="#FFA59D"/>
<path d="M466.576 131.54C465.969 130.33 465.715 128.973 465.845 127.625C465.975 126.278 466.482 124.994 467.309 123.922C468.627 124.35 469.853 125.021 470.924 125.902C469.355 127.969 468.167 129.472 466.576 131.54Z" fill="#8A4632"/>
<path d="M465.439 145.316C471.012 144.025 472.815 137.17 472.815 137.17L470.454 136.656C468.603 137.115 466.97 138.204 465.835 139.736C465.901 140.433 465.923 141.133 465.901 141.833C465.901 142.148 465.901 142.449 465.85 142.757C465.798 143.065 465.762 143.549 465.703 143.944C465.703 144.084 465.659 144.223 465.637 144.362C465.571 144.678 465.512 145 465.439 145.316Z" fill="#DD6478"/>
<path d="M467.412 125.164C467.153 128.218 465.913 131.107 463.877 133.398C462.734 134.681 461.282 135.891 461.011 137.592C460.659 139.829 462.741 141.926 464.992 142.204C467.243 142.483 469.457 141.368 471.188 139.902C472.762 138.542 474.049 136.882 474.973 135.019C475.897 133.155 476.44 131.126 476.569 129.05C473.966 126.882 470.78 125.53 467.412 125.164Z" fill="#FFA59D"/>
<path d="M461.744 212.213C463.071 213.529 464.52 214.717 466.07 215.762C465.996 213.343 465.974 210.93 465.982 208.525C465.982 208.438 466.016 208.354 466.078 208.292C466.14 208.23 466.224 208.195 466.312 208.195C466.399 208.195 466.483 208.23 466.545 208.292C466.607 208.354 466.642 208.438 466.642 208.525C466.642 211.077 466.642 213.658 466.737 216.195C466.737 216.459 466.737 216.723 466.737 216.994C466.863 221.44 467.232 225.875 467.844 230.28C467.91 230.698 467.272 230.874 467.213 230.456C466.569 225.855 466.185 221.221 466.062 216.576C464.331 215.442 462.717 214.137 461.245 212.683C460.974 212.375 461.443 211.905 461.744 212.213Z" fill="#16162B"/>
<path d="M465.916 134.684C465.916 134.735 465.755 134.72 465.586 134.61C465.352 134.451 465.181 134.215 465.102 133.943C465.055 133.758 465.055 133.564 465.102 133.378C465.129 133.197 465.211 133.028 465.337 132.895C465.388 132.895 465.417 132.851 465.447 132.895C465.45 132.907 465.45 132.919 465.447 132.931C465.447 133.005 465.447 133.151 465.447 133.334C465.443 133.492 465.46 133.65 465.498 133.804C465.495 133.821 465.495 133.838 465.498 133.855C465.558 134.074 465.658 134.28 465.791 134.464C465.886 134.544 465.952 134.632 465.916 134.684Z" fill="#DD6478"/>
<path d="M474.304 136.332C473.782 135.201 473.628 133.935 473.863 132.712C474.098 131.489 474.712 130.37 475.616 129.514C473.513 129.674 471.402 129.322 469.465 128.487C468.475 128.132 467.621 127.475 467.023 126.61C466.651 125.937 466.461 125.179 466.473 124.41C466.444 122.75 466.985 121.13 468.005 119.82C469.42 121.002 471.062 121.88 472.83 122.401C473.981 122.746 475.22 122.944 476.174 123.677C476.696 124.085 477.098 124.627 477.337 125.246C477.576 125.864 477.643 126.536 477.53 127.189C478.071 127.201 478.596 127.373 479.038 127.684C479.481 127.994 479.821 128.43 480.016 128.934C480.196 129.42 480.272 129.938 480.238 130.455C480.204 130.972 480.061 131.476 479.818 131.933C479.327 132.844 478.641 133.636 477.809 134.25C476.765 135.135 475.58 135.839 474.304 136.332Z" fill="#8A4632"/>
<path d="M474.135 135.663C474.157 135.44 474.258 135.232 474.419 135.076C474.58 134.921 474.791 134.827 475.015 134.813C475.239 134.811 475.46 134.872 475.651 134.989C475.843 135.105 475.998 135.273 476.1 135.472C476.3 135.876 476.334 136.342 476.196 136.77C476.059 137.196 475.834 137.589 475.536 137.921C475.13 138.452 474.56 138.833 473.915 139.007C473.593 139.088 473.253 139.066 472.944 138.944C472.634 138.822 472.371 138.605 472.192 138.325C473.057 137.562 474.106 136.822 474.135 135.663Z" fill="#FFA59D"/>
<path d="M457.674 159.06C457.674 158.657 458.283 158.657 458.312 159.06C458.613 163.555 457.491 167.962 457.476 172.442C457.465 172.518 457.426 172.587 457.368 172.638C457.309 172.688 457.235 172.716 457.157 172.716C457.08 172.716 457.006 172.688 456.947 172.638C456.889 172.587 456.85 172.518 456.839 172.442C456.853 167.969 457.975 163.562 457.674 159.06Z" fill="#517C35"/>
<path d="M465.358 147.945L465.938 151.457L459.632 188.456L462.587 193.244L466.378 188.456L467.067 151.765L469.069 149.243L467.067 148.019L465.358 147.945Z" fill="#343256"/>
<path d="M474.091 144.188L467.067 148.015L468.812 151.762L474.949 146.636L474.091 144.188Z" fill="#E1EFFF"/>
<path d="M467.067 148.018L464.295 150.577L464.017 147.065L465.439 145.312L467.067 148.018Z" fill="#E1EFFF"/>
<path d="M448.392 172.7C449.975 161.892 454.851 152.016 461.824 146.055C462.609 146.59 463.511 147.125 464.295 147.66C459.801 155.799 458.43 165.83 457.99 175.992C457.956 176.729 457.694 177.437 457.241 178.019C456.788 178.6 456.166 179.027 455.46 179.24C455.256 179.299 455.057 179.375 454.866 179.468C451.449 181.242 447.717 177.393 448.392 172.7Z" fill="#FFA59D"/>
<path d="M460.439 147.706C460.065 147.14 459.814 146.503 459.702 145.835C459.589 145.167 459.618 144.483 459.786 143.827C460.066 142.615 460.791 141.553 461.817 140.85C462.722 140.283 463.77 139.988 464.838 139.999C464.985 139.982 465.135 139.997 465.275 140.044C465.416 140.091 465.545 140.168 465.652 140.271C465.795 140.516 465.887 140.788 465.924 141.07C465.96 141.352 465.94 141.639 465.864 141.913C465.691 143.708 465.269 145.47 464.611 147.148C463.877 148.717 462.638 149.979 461.23 149.927C460.827 149.047 460.981 148.439 460.439 147.706Z" fill="#FFA59D"/>
<path d="M466.84 136.469C465.753 136.273 464.718 135.859 463.797 135.251C463.764 135.221 463.723 135.199 463.68 135.188C463.636 135.177 463.591 135.177 463.547 135.188C463.503 135.199 463.463 135.22 463.43 135.251C463.397 135.281 463.372 135.319 463.357 135.361C462.623 138.683 466.04 138.082 466.964 136.901C467.104 136.725 467.081 136.505 466.84 136.469Z" fill="white"/>
<path d="M477.655 162.969L469.24 163.375L469.422 167.147L477.837 166.741L477.655 162.969Z" fill="white"/>
<path d="M473.953 161.827L472.949 161.875L473.059 164.16L474.062 164.112L473.953 161.827Z" fill="#343256"/>
<path d="M492.231 170.951L491.901 185.938C491.853 188.383 491.214 190.781 490.039 192.925L478.469 214.849L474.23 210.31L482.296 187.8L482.575 170.438C482.575 170.438 488.176 172.622 492.231 170.951Z" fill="#FFA59D"/>
<path d="M479.979 215.737C477.97 213.723 475.958 211.704 473.944 209.681C473.666 209.409 473.211 209.835 473.512 210.113L479.554 216.17C479.825 216.448 480.236 216.016 479.979 215.737Z" fill="#16162B"/>
</g>
<defs>
<linearGradient id="paint0_linear_6897_84405" x1="152.653" y1="84.5072" x2="134.088" y2="41.0711" gradientUnits="userSpaceOnUse">
<stop stop-color="#4A1C40"/>
<stop offset="0.35" stop-color="#4F2047"/>
<stop offset="1" stop-color="#54254F"/>
</linearGradient>
<clipPath id="clip0_6897_84405">
<rect width="539.403" height="300.24" fill="white" transform="translate(0.128418 0.757812)"/>
</clipPath>
</defs>
</svg>
