<svg width="76" height="76" viewBox="0 0 76 76" fill="none" xmlns="http://www.w3.org/2000/svg">
<circle cx="38" cy="38" r="38" fill="#FFDEBB"/>
<path fill-rule="evenodd" clip-rule="evenodd" d="M28.7528 30.1403C29.2388 30.033 29.7457 30.1848 30.0929 30.5414L45.7385 46.6169C46.086 46.9739 46.2238 47.4854 46.1028 47.9687C45.9818 48.4519 45.6193 48.8381 45.1446 48.9893L21.1862 56.6191C20.6669 56.7845 20.0987 56.6419 19.719 56.251C19.3392 55.8601 19.2132 55.288 19.3935 54.7737L27.7062 31.0683C27.8709 30.5987 28.2668 30.2476 28.7528 30.1403ZM29.6512 34.2098L23.0604 53.005L42.0562 46.9555L29.6512 34.2098Z" fill="#FF9F38"/>
<path fill-rule="evenodd" clip-rule="evenodd" d="M41.7752 20.6912C42.3366 20.1298 43.2468 20.1298 43.8082 20.6912C45.0145 21.8976 45.6495 23.3676 45.4127 25.0256C45.1896 26.5872 44.2254 28.057 42.8498 29.4325L38.0582 34.2242C37.4968 34.7855 36.5866 34.7855 36.0252 34.2242C35.4639 33.6628 35.4639 32.7526 36.0252 32.1912L40.8169 27.3995C41.9969 26.2195 42.4702 25.2934 42.5666 24.619C42.6492 24.0408 42.4856 23.4345 41.7752 22.7241C41.2139 22.1628 41.2139 21.2526 41.7752 20.6912Z" fill="#FF9F38"/>
<path fill-rule="evenodd" clip-rule="evenodd" d="M52.375 33.2077C51.2935 33.2077 50.0404 33.7419 48.5998 35.1825L43.8082 39.9742C43.2468 40.5355 42.3366 40.5355 41.7752 39.9742C41.2139 39.4128 41.2139 38.5026 41.7752 37.9412L46.5669 33.1496C48.3208 31.3956 50.2621 30.3327 52.375 30.3327C54.488 30.3327 56.4293 31.3956 58.1832 33.1496C58.7445 33.7109 58.7445 34.6211 58.1832 35.1825C57.6218 35.7439 56.7116 35.7439 56.1502 35.1825C54.7097 33.7419 53.4565 33.2077 52.375 33.2077Z" fill="#FF9F38"/>
<path d="M34.1667 21.7077C35.2252 21.7077 36.0834 20.8496 36.0834 19.791C36.0834 18.7325 35.2252 17.8743 34.1667 17.8743C33.1082 17.8743 32.25 18.7325 32.25 19.791C32.25 20.8496 33.1082 21.7077 34.1667 21.7077Z" fill="#FF9F38"/>
<path d="M55.25 20.7493C56.3086 20.7493 57.1667 19.8912 57.1667 18.8327C57.1667 17.7741 56.3086 16.916 55.25 16.916C54.1915 16.916 53.3334 17.7741 53.3334 18.8327C53.3334 19.8912 54.1915 20.7493 55.25 20.7493Z" fill="#FF9F38"/>
<path d="M55.25 42.791C56.3086 42.791 57.1667 41.9329 57.1667 40.8743C57.1667 39.8158 56.3086 38.9577 55.25 38.9577C54.1915 38.9577 53.3334 39.8158 53.3334 40.8743C53.3334 41.9329 54.1915 42.791 55.25 42.791Z" fill="#FF9F38"/>
<path d="M52.375 51.416C53.4336 51.416 54.2917 50.5579 54.2917 49.4994C54.2917 48.4408 53.4336 47.5827 52.375 47.5827C51.3165 47.5827 50.4584 48.4408 50.4584 49.4994C50.4584 50.5579 51.3165 51.416 52.375 51.416Z" fill="#FF9F38"/>
</svg>
