<svg width="20" height="18" viewBox="0 0 20 18" fill="none" xmlns="http://www.w3.org/2000/svg">
<path d="M15.2851 0.867188C15.1406 0.945312 15.0742 1.02344 14.7578 1.50781C13.4765 3.46094 11.375 4.69922 8.59371 5.14062C8.10934 5.21484 7.85934 5.22266 5.39059 5.25L2.71481 5.27344L2.37106 5.37891C2.17965 5.4375 1.95309 5.52344 1.86324 5.56641C0.531214 6.23828 -0.210974 7.69141 0.0585574 9.09766C0.31637 10.4531 1.37106 11.5039 2.707 11.7344L2.9609 11.7812L3.20309 12.7812C4.0859 16.4219 4.0859 16.418 4.24606 16.6523C4.41403 16.8984 4.61715 17.0508 4.90231 17.1523C5.05856 17.207 5.22262 17.2188 5.70309 17.2188C6.23434 17.2188 6.3359 17.207 6.52731 17.1289C6.8359 17.0117 7.082 16.7812 7.23043 16.4766C7.44137 16.0508 7.42965 15.9609 6.8984 13.7852C6.6484 12.7539 6.43356 11.8789 6.42184 11.8398C6.40231 11.7812 6.43746 11.7734 6.76559 11.7734C9.71481 11.7812 12.2695 12.7383 13.9101 14.457C14.2539 14.8164 14.4414 15.0586 14.8437 15.6562C15.082 16.0078 15.1679 16.1055 15.3125 16.1797C15.6093 16.332 15.9765 16.2266 16.164 15.9375L16.2695 15.7773L16.2812 13.1523L16.2929 10.5312L16.457 10.5039C16.9492 10.418 17.5351 9.96484 17.789 9.47266C18.0625 8.94531 18.0664 8.17969 17.7968 7.61328C17.5234 7.04297 17.0429 6.66406 16.3984 6.52344L16.289 6.5V3.98828C16.289 2.60938 16.2695 1.41016 16.25 1.32812C16.207 1.14062 16.1093 1 15.9375 0.882812C15.7773 0.777344 15.4687 0.769531 15.2851 0.867188ZM15.5078 8.51953L15.5039 15.1914L15.4179 15.0898C15.3711 15.0352 15.2226 14.8398 15.0937 14.6602C13.9336 13.0781 11.9453 11.8398 9.74996 11.3242C9.23434 11.2031 8.42965 11.0781 7.98825 11.0508C7.79684 11.0391 7.56246 11.0195 7.47262 11.0078L7.30465 10.9883V8.51562V6.04688L7.88278 6C10.1875 5.80859 12.0937 5.09375 13.6914 3.82422C14.1601 3.44922 14.8554 2.71875 15.1992 2.24219C15.3515 2.02734 15.4843 1.85156 15.4922 1.85156C15.5 1.85156 15.5078 4.85156 15.5078 8.51953ZM6.51559 7.67969L6.50387 9.33203L5.2109 9.35156C3.79293 9.37109 3.82809 9.36719 3.72262 9.61328C3.67965 9.72266 3.67965 9.76172 3.72653 9.875C3.832 10.125 3.87496 10.1328 5.2734 10.1328H6.5234V10.5625V10.9922H4.73434C2.73043 10.9922 2.60543 10.9766 2.09762 10.7109C1.80465 10.5547 1.38278 10.1641 1.18746 9.86719C0.851526 9.36328 0.710901 8.61719 0.835901 8.02344C0.988245 7.29297 1.49606 6.63281 2.1484 6.30859C2.68356 6.04688 2.76168 6.03906 4.75778 6.03516L6.5234 6.03125L6.51559 7.67969ZM16.8125 7.56641C16.914 7.65234 17.0312 7.80078 17.0976 7.93359C17.1914 8.13281 17.207 8.20312 17.207 8.51172C17.207 8.79688 17.1875 8.90234 17.1172 9.05859C16.9726 9.37109 16.6914 9.62109 16.3789 9.71875L16.289 9.74609V8.51562V7.28125L16.4648 7.35156C16.5625 7.39062 16.7187 7.48438 16.8125 7.56641ZM5.73043 12.3008C5.80075 12.5781 5.85543 12.8281 5.85934 12.8516C5.85934 12.8789 5.78121 12.9102 5.68356 12.9219C5.35153 12.9727 5.19918 13.3203 5.40621 13.5586C5.48825 13.6562 5.53512 13.6719 5.78512 13.6875L6.07028 13.707L6.16012 14.0586C6.2734 14.5078 6.2734 14.5078 6.13668 14.5078C5.99215 14.5078 5.79684 14.668 5.7695 14.8086C5.74215 14.9531 5.82809 15.1523 5.94137 15.2148C5.99215 15.2422 6.12887 15.2734 6.24606 15.2852L6.4609 15.3086L6.53121 15.582C6.60934 15.8828 6.60153 16.0508 6.49996 16.207C6.37106 16.4023 6.23825 16.4414 5.67575 16.4414C5.12106 16.4414 5.04684 16.418 4.87887 16.1836C4.81637 16.1016 3.78903 11.9844 3.78903 11.8281C3.78903 11.7812 3.93356 11.7734 4.69918 11.7812L5.60543 11.793L5.73043 12.3008Z" fill="#A194FF"/>
<path d="M2.21864 9.46516C1.89832 9.75031 2.22254 10.2581 2.62098 10.0941C2.81239 10.012 2.91004 9.73078 2.81239 9.54328C2.76161 9.44953 2.57411 9.35188 2.4452 9.35188C2.39051 9.35188 2.28895 9.40266 2.21864 9.46516Z" fill="#A194FF"/>
<path d="M19.0821 4.47266C18.9727 4.53906 17.9063 5.50781 17.8125 5.62891C17.625 5.86719 17.8086 6.22656 18.1133 6.22656C18.2852 6.22656 18.3594 6.17188 19.1641 5.42188C19.461 5.14453 19.6055 4.98438 19.6211 4.91016C19.6446 4.78906 19.5742 4.59375 19.4805 4.51562C19.3946 4.44141 19.1719 4.42188 19.0821 4.47266Z" fill="#A194FF"/>
<path d="M18.4727 8.25391C18.3164 8.41016 18.3164 8.60156 18.4727 8.77344L18.5859 8.90234H19.1719C19.7383 8.90234 19.7617 8.89844 19.8594 8.80859C20.043 8.63672 20.0312 8.37109 19.8281 8.21094C19.7578 8.15234 19.6562 8.14063 19.168 8.14063H18.5859L18.4727 8.25391Z" fill="#A194FF"/>
<path d="M17.9218 10.8628C17.7343 10.98 17.6835 11.2065 17.8046 11.3901C17.8632 11.48 18.4999 12.0737 18.957 12.4683C19.1406 12.6245 19.3203 12.6362 19.4843 12.4956C19.6171 12.3862 19.6562 12.2417 19.6015 12.0815C19.5663 11.9839 18.5624 11.0269 18.3242 10.8667C18.1992 10.7808 18.0585 10.7808 17.9218 10.8628Z" fill="#A194FF"/>
</svg>
