<svg width="20" height="20" viewBox="0 0 20 20" fill="none" xmlns="http://www.w3.org/2000/svg">
<g clip-path="url(#clip0_638_9869)">
<path d="M6.30769 9H9.69231C9.86215 9 10 8.7765 10 8.5C10 8.2235 9.86215 8 9.69231 8H6.30769C6.13785 8 6 8.2235 6 8.5C6 8.7765 6.13785 9 6.30769 9Z" fill="#9FB4CB" stroke="#9FB4CB" stroke-width="0.5"/>
<path d="M11.6957 10H5.30435C5.13635 10 5 10.2235 5 10.5C5 10.7765 5.13635 11 5.30435 11H11.6957C11.8637 11 12 10.7765 12 10.5C12 10.2235 11.8637 10 11.6957 10Z" fill="#9FB4CB" stroke="#9FB4CB" stroke-width="0.5"/>
<path d="M11.6957 12H5.30435C5.13635 12 5 12.2235 5 12.5C5 12.7765 5.13635 13 5.30435 13H11.6957C11.8637 13 12 12.7765 12 12.5C12 12.2235 11.8637 12 11.6957 12Z" fill="#9FB4CB" stroke="#9FB4CB" stroke-width="0.5"/>
<path d="M14.5672 1H8.7328C6.7984 1 5.0932 2.28595 4.5142 4.14839C2.5093 4.57999 1 6.3921 1 8.55711V12.0175C1 14.3759 2.8939 16.3836 5.2 16.5455V18.522C5.2 18.7282 5.3029 18.8996 5.4682 18.9692C5.5171 18.9896 5.5681 19 5.6191 19C5.7316 19 5.8441 18.9515 5.9341 18.8597L6.3904 18.3958C7.5574 17.2092 9.1357 16.5559 10.8343 16.5559H11.2672C13.2469 16.5559 14.9266 15.2199 15.4942 13.3828C17.5051 12.91 19 11.0485 19 8.96706V5.50694C19 3.02166 17.0116 1 14.5672 1ZM11.2672 15.9456H10.8343C8.9752 15.9456 7.2463 16.6627 5.9659 17.9642L5.8 18.1331V16.2506V15.9456V14.9835C5.8 14.8149 5.6656 14.6785 5.5 14.6785C5.3344 14.6785 5.2 14.8149 5.2 14.9835V15.9297C3.22 15.7693 1.6 14.045 1.6 12.0172V8.55711C1.6 6.68522 2.9053 5.11835 4.6387 4.74531L4.7947 4.71877C4.9054 4.69986 5.0107 4.68614 5.1127 4.67668C5.1964 4.66967 5.2807 4.66509 5.3659 4.66357C5.3878 4.66326 5.4112 4.66052 5.4328 4.66052H11.2672C13.3807 4.66021 15.1 6.40857 15.1 8.55711V12.0175C15.1 12.128 15.0925 12.2365 15.0838 12.3445C15.0793 12.3967 15.0745 12.4485 15.0679 12.501C15.064 12.5342 15.058 12.5666 15.0532 12.5992C15.0304 12.7484 15.0007 12.8981 14.9605 13.0479L14.9146 13.2202C14.4175 14.7993 12.9712 15.9456 11.2672 15.9456ZM18.4 8.96706C18.4 10.6691 17.2435 12.2048 15.6442 12.7142C15.6481 12.6901 15.6493 12.666 15.6529 12.6419C15.6634 12.565 15.6739 12.4885 15.6805 12.4104C15.6925 12.2789 15.7 12.1475 15.7 12.0172V8.55711C15.7 8.24661 15.6688 7.94311 15.6097 7.64999C15.1957 5.59814 13.4059 4.05018 11.2672 4.05018H5.4328C5.4271 4.05018 5.4217 4.05109 5.4157 4.05109C5.3377 4.0514 5.2588 4.05353 5.1781 4.05902C5.7532 2.59677 7.1563 1.61034 8.7328 1.61034H14.5672C16.6807 1.61004 18.4 3.3584 18.4 5.50694V8.96706Z" fill="#9FB4CB" stroke="#9FB4CB" stroke-width="0.5"/>
</g>
<defs>
<clipPath id="clip0_638_9869">
<rect width="20" height="20" fill="white"/>
</clipPath>
</defs>
</svg>
