<svg width="24" height="24" viewBox="0 0 24 24" fill="none" xmlns="http://www.w3.org/2000/svg">
<g clip-path="url(#clip0_1680_24731)">
<path d="M3.46677 1.10312C3.18743 1.23203 2.95107 1.46836 2.82214 1.74766C2.74049 1.92383 2.719 2.03984 2.719 2.34062V2.71875H2.34512C2.04 2.71875 1.92396 2.74023 1.74777 2.82187C1.46843 2.95078 1.23207 3.18711 1.10314 3.46641L1 3.68555V11.0117V18.3379L1.10314 18.557C1.22347 18.8148 1.44694 19.0512 1.70049 19.1844L1.88099 19.2832L7.38179 19.3047L12.8783 19.3262L12.9986 19.6484C13.2608 20.3574 13.6304 20.9375 14.1719 21.4789C14.6231 21.9301 14.997 22.2051 15.5213 22.4672C16.2819 22.841 16.9652 23 17.8462 23C18.7573 23 19.4191 22.841 20.2227 22.4328C20.6654 22.2051 21.267 21.7668 21.5679 21.4488C22.2598 20.7184 22.7712 19.7129 22.9388 18.7547C23.0204 18.282 23.0204 17.3969 22.9388 16.9156C22.6723 15.3988 21.6753 14.0238 20.3001 13.2805L20.1669 13.2074V8.44648V3.68555L20.0637 3.46641C19.9348 3.18711 19.6984 2.95078 19.4191 2.82187C19.2128 2.72734 19.1527 2.71875 18.3963 2.71875H17.5884V2.34062C17.5884 2.03984 17.5669 1.92383 17.4852 1.74766C17.2618 1.26641 16.8363 1 16.2991 1C15.7619 1 15.3365 1.26641 15.113 1.74766C15.0314 1.92383 15.0099 2.03984 15.0099 2.34062V2.71875H13.2264H11.4429V2.34062C11.4429 2.03984 11.4214 1.92383 11.3398 1.74766C11.1163 1.26641 10.6909 1 10.1537 1C9.6165 1 9.19104 1.26641 8.96757 1.74766C8.88592 1.92383 8.86443 2.03984 8.86443 2.34062V2.71875H7.08097H5.2975V2.34062C5.2975 2.03984 5.27602 1.92383 5.19436 1.74766C4.97089 1.26641 4.54544 1 4.00825 1C3.759 1 3.63437 1.02578 3.46677 1.10312ZM4.2747 2.00977C4.33486 2.06992 4.39503 2.17734 4.41222 2.25039C4.4466 2.42656 4.4466 3.87031 4.41222 4.04648C4.31767 4.50625 3.69883 4.50625 3.60429 4.04648C3.5914 3.96914 3.5785 3.56953 3.5785 3.14844C3.5785 2.72734 3.5914 2.32773 3.60429 2.25039C3.66875 1.92383 4.05123 1.78633 4.2747 2.00977ZM10.4201 2.00977C10.4803 2.06992 10.5405 2.17734 10.5577 2.25039C10.592 2.42656 10.592 3.87031 10.5577 4.04648C10.4631 4.50625 9.84426 4.50625 9.74972 4.04648C9.73683 3.96914 9.72393 3.56953 9.72393 3.14844C9.72393 2.72734 9.73683 2.32773 9.74972 2.25039C9.81418 1.92383 10.1967 1.78633 10.4201 2.00977ZM16.5656 2.00977C16.7117 2.15586 16.7289 2.26328 16.7289 3.14844C16.7289 4.03359 16.7117 4.14102 16.5656 4.28711C16.3421 4.51055 15.9596 4.37305 15.8952 4.04648C15.8823 3.96914 15.8694 3.56953 15.8694 3.14844C15.8694 2.72734 15.8823 2.32773 15.8952 2.25039C15.9596 1.92383 16.3421 1.78633 16.5656 2.00977ZM2.719 3.95195C2.719 4.25703 2.74049 4.37305 2.82214 4.54922C3.04561 5.03047 3.47107 5.29687 4.00825 5.29687C4.54544 5.29687 4.97089 5.03047 5.19436 4.54922C5.27602 4.37305 5.2975 4.25703 5.2975 3.95195V3.57812H7.08097H8.86443V3.95195C8.86443 4.25703 8.88592 4.37305 8.96757 4.54922C9.19104 5.03047 9.6165 5.29687 10.1537 5.29687C10.6909 5.29687 11.1163 5.03047 11.3398 4.54922C11.4214 4.37305 11.4429 4.25703 11.4429 3.95195V3.57812H13.2264H15.0099V3.95195C15.0099 4.25703 15.0314 4.37305 15.113 4.54922C15.3365 5.03047 15.7619 5.29687 16.2991 5.29687C16.8363 5.29687 17.2618 5.03047 17.4852 4.54922C17.5669 4.37305 17.5884 4.26133 17.5884 3.95195V3.56953L18.2889 3.58672C18.7917 3.59531 19.0108 3.6168 19.0753 3.65976C19.2773 3.79726 19.2859 3.83164 19.2988 5.09062L19.3117 6.28516H10.5877H1.8595V5.19375C1.8595 4.59648 1.87239 4.04648 1.88529 3.96914C1.91537 3.81445 2.08297 3.63398 2.21619 3.6082C2.26776 3.59961 2.40099 3.58672 2.51702 3.58242L2.719 3.57812V3.95195ZM19.3074 10.0062V12.868L19.1913 12.8379C18.5811 12.6789 17.5669 12.6402 16.9351 12.752C15.9768 12.9195 14.9712 13.4309 14.2406 14.1227C13.9226 14.4234 13.4843 15.025 13.2565 15.4676C12.8439 16.2797 12.6892 16.9328 12.6892 17.8695V18.4453L7.43766 18.4367C3.01983 18.4238 2.16892 18.4152 2.09157 18.3637C1.8681 18.2176 1.88099 18.5227 1.8681 12.6316L1.8595 7.14453H10.5834H19.3074V10.0062ZM18.9636 13.7145C19.4492 13.852 20.1024 14.1957 20.5107 14.5223C21.3057 15.1582 21.8988 16.1637 22.0578 17.1262C22.1136 17.4699 22.1136 18.2176 22.0578 18.5613C21.8128 20.0652 20.6482 21.4059 19.1656 21.9C18.7143 22.0504 18.3877 22.0977 17.8333 22.0977C16.0241 22.0977 14.391 20.9246 13.8066 19.1973C13.6433 18.7246 13.5917 18.4023 13.5917 17.8437C13.5917 17.3023 13.6433 16.9758 13.7894 16.5246C14.2148 15.2398 15.2505 14.2086 16.5398 13.7832C17.0555 13.6156 17.2403 13.5941 17.9751 13.6113C18.4908 13.6199 18.7143 13.6457 18.9636 13.7145Z" fill="#4C5D70" stroke="#4C5D70" stroke-width="0.3"/>
<path d="M2.93477 8.84062C2.76133 9.01875 2.76133 9.35625 2.93477 9.53437L3.06133 9.65625H4.7582H6.45508L6.58164 9.53437C6.75508 9.35625 6.75508 9.01875 6.58164 8.84062L6.45508 8.71875H4.7582H3.06133L2.93477 8.84062Z" fill="#4C5D70"/>
<path d="M8.7 8.84062C8.60156 8.93906 8.57812 9.00937 8.57812 9.1875C8.57812 9.36562 8.60156 9.43594 8.7 9.53437L8.82656 9.65625H10.5234H12.2203L12.3469 9.53437C12.5203 9.35625 12.5203 9.01875 12.3469 8.84062L12.2203 8.71875H10.5234H8.82656L8.7 8.84062Z" fill="#4C5D70"/>
<path d="M14.4656 8.84062C14.3672 8.93906 14.3438 9.00937 14.3438 9.1875C14.3438 9.36562 14.3672 9.43594 14.4656 9.53437L14.5922 9.65625H16.2188H17.8453L17.9719 9.53437C18.0703 9.43594 18.0938 9.36562 18.0938 9.1875C18.0938 9.00937 18.0703 8.93906 17.9719 8.84062L17.8453 8.71875H16.2188H14.5922L14.4656 8.84062Z" fill="#4C5D70"/>
<path d="M2.93477 11.6531C2.76133 11.8312 2.76133 12.1687 2.93477 12.3469L3.06133 12.4688H4.7582H6.45508L6.58164 12.3469C6.75508 12.1687 6.75508 11.8312 6.58164 11.6531L6.45508 11.5312H4.7582H3.06133L2.93477 11.6531Z" fill="#4C5D70"/>
<path d="M8.7 11.6531C8.60156 11.7516 8.57812 11.8219 8.57812 12C8.57812 12.1781 8.60156 12.2484 8.7 12.3469L8.82656 12.4688H10.5234H12.2203L12.3469 12.3469C12.5203 12.1687 12.5203 11.8312 12.3469 11.6531L12.2203 11.5312H10.5234H8.82656L8.7 11.6531Z" fill="#4C5D70"/>
<path d="M2.93477 14.4656C2.76133 14.6437 2.76133 14.9812 2.93477 15.1594L3.06133 15.2812H4.7582H6.45508L6.58164 15.1594C6.75508 14.9812 6.75508 14.6437 6.58164 14.4656L6.45508 14.3437H4.7582H3.06133L2.93477 14.4656Z" fill="#4C5D70"/>
<path d="M8.7 14.4656C8.60156 14.5641 8.57812 14.6344 8.57812 14.8125C8.57812 14.9906 8.60156 15.0609 8.7 15.1594L8.82656 15.2812H10.5234H12.2203L12.3469 15.1594C12.5203 14.9812 12.5203 14.6437 12.3469 14.4656L12.2203 14.3437H10.5234H8.82656L8.7 14.4656Z" fill="#4C5D70"/>
<path d="M18.0281 15.2156L17.9062 15.3422V16.9687V18.5953L18.0281 18.7219L18.1547 18.8438H19.7813H21.4078L21.5344 18.7219C21.6328 18.6234 21.6563 18.5531 21.6563 18.375C21.6563 18.1969 21.6328 18.1266 21.5344 18.0281L21.4078 17.9062H20.1281H18.8438V16.6219V15.3422L18.7219 15.2156C18.6234 15.1172 18.5531 15.0937 18.375 15.0937C18.1969 15.0937 18.1266 15.1172 18.0281 15.2156Z" fill="#4C5D70"/>
</g>
<defs>
<clipPath id="clip0_1680_24731">
<rect width="24" height="24" fill="white"/>
</clipPath>
</defs>
</svg>
