<svg width="24" height="24" viewBox="0 0 24 24" fill="none" xmlns="http://www.w3.org/2000/svg">
<g clip-path="url(#clip0_1680_24713)">
<path d="M5.55469 0.492187C4.67344 0.651562 3.77813 1.01719 3.05625 1.50937C2.59688 1.82344 1.82812 2.59219 1.51875 3.04688C0.773438 4.13437 0.421875 5.27812 0.421875 6.60937C0.421875 8.32031 1.0125 9.77344 2.20313 10.9734C2.74219 11.5125 3.18281 11.8312 3.86719 12.1687C4.77188 12.6187 5.55 12.7969 6.60938 12.7969C7.66875 12.7969 8.44688 12.6187 9.35156 12.1687C10.0219 11.8406 10.4719 11.5172 10.9969 10.9969C11.5172 10.4719 11.8406 10.0219 12.1688 9.35156C12.6188 8.44687 12.7969 7.66875 12.7969 6.60937C12.7969 5.55 12.6188 4.77187 12.1688 3.86719C11.8313 3.18281 11.5125 2.74219 10.9734 2.20312C10.05 1.28906 8.93906 0.7125 7.69219 0.496875C7.1625 0.407812 6.03281 0.403125 5.55469 0.492187ZM7.17188 1.14375C7.95938 1.2 9.04219 1.59844 9.74531 2.09531C10.1766 2.4 10.6969 2.91094 11.0297 3.35156C11.3859 3.82969 11.7797 4.63594 11.9391 5.23125C12.0563 5.65781 12.0656 5.76562 12.0656 6.60937C12.0656 7.45312 12.0563 7.56094 11.9391 7.98281C11.5172 9.54844 10.4297 10.8562 8.97188 11.5641C6.83906 12.5906 4.28906 12.1219 2.64375 10.4016C2.46563 10.2094 2.21719 9.91406 2.09531 9.74531C1.78594 9.30937 1.425 8.53125 1.27969 7.98281C1.1625 7.56094 1.15313 7.45312 1.15313 6.60937C1.15313 5.76562 1.1625 5.65781 1.27969 5.23125C1.5375 4.27969 2.10469 3.32812 2.81719 2.64375C3.73594 1.76719 4.91719 1.22812 6.14062 1.12969C6.38438 1.11094 6.6375 1.10156 6.70313 1.10625C6.76875 1.11562 6.97969 1.12969 7.17188 1.14375Z" fill="#4C5D70" stroke="#4C5D70" stroke-width="0.4"/>
<path d="M6.36094 2.80273C6.30469 2.86367 6.28125 2.97617 6.28125 3.17305C6.28125 3.49648 6.375 3.62305 6.60938 3.62305C6.84844 3.62305 6.9375 3.49648 6.9375 3.16367C6.9375 2.94336 6.91875 2.8543 6.85313 2.79805C6.73594 2.69023 6.45469 2.69492 6.36094 2.80273Z" fill="#4C5D70"/>
<path d="M3.85382 3.85694C3.69445 4.02569 3.71788 4.21319 3.92882 4.41944C4.23351 4.71475 4.59445 4.63037 4.59445 4.26006C4.59445 4.1335 4.55695 4.0585 4.41632 3.92256C4.20538 3.71631 4.00851 3.69287 3.85382 3.85694Z" fill="#4C5D70"/>
<path d="M8.79541 3.92813C8.50009 4.23281 8.58447 4.59375 8.95478 4.59375C9.08134 4.59375 9.15634 4.55625 9.29228 4.41563C9.49853 4.20469 9.52197 4.00781 9.35791 3.85313C9.18916 3.69375 9.00166 3.71719 8.79541 3.92813Z" fill="#4C5D70"/>
<path d="M6.36458 4.35C6.29427 4.425 6.2849 4.56094 6.2849 5.24531C6.2849 6.0375 6.28021 6.06094 6.16771 6.19219C6.01771 6.375 5.97552 6.61406 6.05521 6.82969C6.15365 7.08281 6.33177 7.19531 6.65521 7.2C6.88958 7.2 6.97396 7.23281 7.34896 7.44375C7.58333 7.57969 7.81302 7.6875 7.86458 7.6875C8.01927 7.6875 8.20677 7.50938 8.20677 7.35938C8.20677 7.12969 8.16458 7.08281 7.68646 6.81563C7.30208 6.6 7.21771 6.52969 7.17552 6.39844C7.1474 6.31406 7.08177 6.20625 7.0349 6.16406C6.95052 6.08438 6.94115 6.01406 6.94115 5.25C6.94115 4.50469 6.93177 4.41094 6.85677 4.34531C6.73958 4.2375 6.45833 4.24219 6.36458 4.35Z" fill="#4C5D70"/>
<path d="M2.7973 6.36562C2.68949 6.48281 2.69418 6.76406 2.80199 6.85781C2.86293 6.91406 2.97543 6.9375 3.1723 6.9375C3.49574 6.9375 3.6223 6.84375 3.6223 6.60938C3.6223 6.37031 3.49574 6.28125 3.16293 6.28125C2.94262 6.28125 2.85355 6.3 2.7973 6.36562Z" fill="#4C5D70"/>
<path d="M9.67812 6.375C9.63125 6.42656 9.59375 6.53437 9.59375 6.60938C9.59375 6.84844 9.72031 6.9375 10.0531 6.9375C10.3953 6.9375 10.4984 6.85781 10.4984 6.6C10.4984 6.36094 10.3859 6.28125 10.0437 6.28125C9.82344 6.28125 9.74375 6.3 9.67812 6.375Z" fill="#4C5D70"/>
<path d="M3.92369 8.80243C3.71744 9.01337 3.694 9.21024 3.85806 9.36493C4.02681 9.5243 4.21431 9.50087 4.42056 9.28993C4.71587 8.98524 4.6315 8.6243 4.26119 8.6243C4.13462 8.6243 4.05962 8.6618 3.92369 8.80243Z" fill="#4C5D70"/>
<path d="M8.70134 8.70913C8.56071 8.86381 8.59821 9.09819 8.79978 9.29506C9.01071 9.50131 9.20759 9.52475 9.36228 9.36069C9.52165 9.19194 9.49821 9.00444 9.28728 8.79819C9.08103 8.59663 8.83259 8.55913 8.70134 8.70913Z" fill="#4C5D70"/>
<path d="M6.51563 9.59531C6.33281 9.66094 6.28125 9.76406 6.28125 10.0547C6.28125 10.3969 6.36094 10.5 6.61875 10.5C6.85781 10.5 6.9375 10.3875 6.9375 10.0453C6.9375 9.83438 6.91875 9.74531 6.85781 9.69375C6.75469 9.60469 6.60938 9.5625 6.51563 9.59531Z" fill="#4C5D70"/>
<path d="M13.7889 4.65469C13.6529 4.8 13.6529 5.01562 13.7936 5.14687C13.8967 5.24531 13.9342 5.24531 15.7482 5.25937C17.567 5.27344 17.6045 5.27344 17.8342 5.38125C18.1389 5.52187 18.4811 5.85938 18.617 6.15937C18.7201 6.38906 18.7248 6.45937 18.7389 7.6875C18.7482 8.44687 18.7342 8.95781 18.7107 8.92969C18.6873 8.90156 18.5186 8.69531 18.3311 8.47031C18.1436 8.24062 17.9373 8.03437 17.8717 8.01094C17.6279 7.92188 17.3373 8.20312 17.4311 8.44687C17.4686 8.55 18.5186 9.85781 18.8092 10.1578C18.9123 10.2703 18.9967 10.3125 19.1045 10.3125C19.2732 10.3125 19.3061 10.2797 20.2436 9.14062C20.6889 8.59687 20.7639 8.48437 20.7639 8.33906C20.7639 8.09062 20.5436 7.93125 20.3232 8.01562C20.2623 8.03906 20.0373 8.25937 19.8311 8.50781L19.4514 8.95781V7.76719C19.4514 7.11094 19.4279 6.46406 19.4045 6.32344C19.2498 5.50312 18.6076 4.83281 17.7779 4.61719C17.5623 4.56094 17.1545 4.54688 15.7014 4.54688H13.8873L13.7889 4.65469Z" fill="#4C5D70" stroke="#4C5D70" stroke-width="0.3"/>
<path d="M16.2891 11.2775C15.4641 11.4228 14.5547 11.7978 13.8281 12.2994C13.3781 12.6087 12.6094 13.3775 12.3 13.8275C11.5547 14.915 11.2031 16.0587 11.2031 17.39C11.2031 18.7212 11.5547 19.865 12.3 20.9525C12.6094 21.4072 13.3781 22.1759 13.8375 22.49C14.3906 22.8697 15.1875 23.2306 15.8297 23.3994C16.5609 23.5869 17.6719 23.6337 18.4266 23.5072C19.7016 23.2962 20.8219 22.7197 21.7547 21.7962C22.2938 21.2572 22.6125 20.8166 22.95 20.1322C23.4 19.2275 23.5781 18.4494 23.5781 17.39C23.5781 16.3306 23.4 15.5525 22.95 14.6478C22.6125 13.9634 22.2938 13.5228 21.7547 12.9837C20.8313 12.0697 19.7203 11.4931 18.4734 11.2775C17.925 11.1837 16.8141 11.1837 16.2891 11.2775ZM17.9531 11.9244C18.7406 11.9806 19.8234 12.3791 20.5266 12.8759C20.9578 13.1806 21.4781 13.6916 21.8109 14.1322C22.1672 14.6103 22.5609 15.4166 22.7203 16.0119C22.8375 16.4384 22.8469 16.5462 22.8469 17.39C22.8469 18.2337 22.8375 18.3416 22.7203 18.7634C22.575 19.3119 22.2141 20.09 21.9047 20.5259C20.3391 22.7384 17.4375 23.5072 15.0281 22.3447C14.1797 21.9322 13.4156 21.29 12.8766 20.5259C12.5672 20.09 12.2063 19.3119 12.0609 18.7634C11.9438 18.3416 11.9344 18.2337 11.9344 17.39C11.9344 16.5462 11.9438 16.4384 12.0609 16.0119C12.3188 15.0603 12.8859 14.1087 13.5984 13.4244C14.5172 12.5478 15.6984 12.0087 16.9219 11.9103C17.1656 11.8916 17.4188 11.8822 17.4844 11.8869C17.55 11.8962 17.7609 11.9103 17.9531 11.9244Z" fill="#4C5D70" stroke="#4C5D70" stroke-width="0.4"/>
<path d="M17.0344 13.1719C16.5281 13.2797 16.05 13.6594 15.8156 14.1375C15.6984 14.3812 15.6844 14.4656 15.6797 14.8594C15.6797 15.2531 15.6938 15.3375 15.8156 15.5953C15.975 15.9422 16.3406 16.3125 16.6734 16.4625C16.8609 16.5469 16.9828 16.5656 17.3906 16.5703C17.8219 16.5703 17.9109 16.5562 18.1172 16.4578C18.4641 16.2844 18.8109 15.9375 18.9656 15.5953C19.0875 15.3375 19.1016 15.2531 19.1016 14.8594C19.0969 14.475 19.0828 14.3812 18.9703 14.1562C18.7781 13.7531 18.5531 13.5234 18.1734 13.3359C17.8031 13.1578 17.3859 13.0969 17.0344 13.1719ZM17.8547 13.9688C18.5766 14.3344 18.5953 15.3469 17.8922 15.75C16.9359 16.2984 15.9188 15.1453 16.5797 14.2594C16.8797 13.8562 17.4 13.7344 17.8547 13.9688Z" fill="#4C5D70" stroke="#4C5D70" stroke-width="0.2"/>
<path d="M16.9313 16.7344C15.3234 16.9547 14.0625 18.3609 14.0625 19.9359C14.0625 20.55 14.3063 20.9016 14.9297 21.1922C16.4391 21.9 19.3969 21.7312 20.3344 20.8828C20.6203 20.625 20.7188 20.3859 20.7188 19.9359C20.7188 19.0172 20.2453 18.0422 19.5094 17.4562C19.2 17.2078 18.6047 16.9078 18.2344 16.8094C17.8828 16.7203 17.2875 16.6875 16.9313 16.7344ZM18.1641 17.5359C19.2 17.8547 20.0109 18.9047 20.0156 19.9266C20.0156 20.175 20.0063 20.2031 19.8328 20.3578C19.6172 20.55 19.2609 20.6953 18.6562 20.8266C18.0234 20.9625 16.7578 20.9625 16.125 20.8266C15.5203 20.6953 15.1641 20.55 14.9484 20.3578C14.775 20.2031 14.7656 20.175 14.7656 19.9266C14.7656 19.1578 15.2578 18.3047 15.9563 17.8547C16.6359 17.4141 17.4047 17.3016 18.1641 17.5359Z" fill="#4C5D70" stroke="#4C5D70" stroke-width="0.3"/>
<path d="M4.50937 13.9547C4.37812 14.1047 4.04062 14.5125 3.75469 14.8594C3.30937 15.4031 3.23438 15.5156 3.23438 15.6609C3.23438 15.9094 3.45469 16.0687 3.675 15.9844C3.73594 15.9609 3.96094 15.7406 4.16719 15.4922L4.54687 15.0422V16.2609C4.54687 17.5547 4.575 17.8172 4.76719 18.225C4.90781 18.525 5.32969 18.9937 5.61094 19.1578C6.09844 19.4391 6.20625 19.4531 8.27344 19.4531H10.1672L10.2375 19.35C10.3453 19.2 10.3312 18.9703 10.2141 18.8625C10.1203 18.7781 9.99844 18.7734 8.23125 18.75C6.56719 18.7312 6.33281 18.7172 6.16875 18.6422C5.86406 18.5062 5.60625 18.2578 5.43281 17.9437L5.27344 17.6484L5.25937 16.3359C5.25 15.5531 5.25937 15.0422 5.2875 15.0703C5.31094 15.0938 5.47969 15.3047 5.66719 15.5297C5.85469 15.7594 6.06094 15.9656 6.12656 15.9891C6.37031 16.0781 6.66094 15.7969 6.56719 15.5531C6.52969 15.45 5.47969 14.1422 5.18906 13.8375C4.95937 13.5984 4.79531 13.6266 4.50937 13.9547Z" fill="#4C5D70" stroke="#4C5D70" stroke-width="0.3"/>
</g>
<defs>
<clipPath id="clip0_1680_24713">
<rect width="24" height="24" fill="white"/>
</clipPath>
</defs>
</svg>
