<svg width="24" height="24" viewBox="0 0 24 24" fill="none" xmlns="http://www.w3.org/2000/svg">
<g clip-path="url(#clip0_1680_24743)">
<path d="M3.43125 1.03594C3.09844 1.16719 2.75625 1.50937 2.62969 1.85156C2.55469 2.04844 2.53125 2.22187 2.53125 2.55469V3H1.79063C1.05469 3 1.04531 3 0.759375 3.14531C0.435938 3.30469 0.271875 3.47812 0.1125 3.82031L0 4.05469V12.0047V19.9547L0.145313 20.2406C0.304688 20.5641 0.478125 20.7281 0.820313 20.8875C1.02188 20.9812 1.12969 21 1.56094 21H2.0625V21.5062C2.0625 21.9797 2.07188 22.0359 2.20781 22.3031C2.36719 22.6266 2.54063 22.7906 2.88281 22.95L3.11719 23.0625H13.0359H22.9547L23.2406 22.9172C23.5641 22.7578 23.7281 22.5844 23.8875 22.2422L24 22.0078V14.0625V6.11719L23.8875 5.88281C23.7281 5.54062 23.5641 5.36719 23.2406 5.20781C22.9734 5.07187 22.9172 5.0625 22.4438 5.0625H21.9375V4.55625C21.9375 4.12969 21.9188 4.02187 21.825 3.82031C21.6656 3.47812 21.5016 3.30469 21.1781 3.14531C20.8922 3 20.8828 3 20.1469 3H19.4062V2.55469C19.4062 1.97812 19.2984 1.67812 18.9844 1.35938C18.2344 0.614061 16.8656 0.881248 16.5047 1.85156C16.4297 2.04844 16.4062 2.22187 16.4062 2.55469V3H14.4375H12.4688V2.55469C12.4688 1.97812 12.3609 1.67812 12.0469 1.35938C11.4656 0.782812 10.4719 0.782812 9.89062 1.35938C9.57656 1.67812 9.46875 1.97812 9.46875 2.55469V3H7.5H5.53125V2.55469C5.53125 1.97812 5.42344 1.67812 5.10938 1.35938C4.69219 0.946875 4.00781 0.815624 3.43125 1.03594ZM4.35469 2.04375C4.43438 2.10938 4.51875 2.24062 4.54688 2.33437C4.60781 2.55937 4.60781 4.37812 4.54688 4.60312C4.51875 4.69687 4.43438 4.82812 4.35469 4.89375C4.06406 5.14219 3.62344 4.9875 3.51563 4.60312C3.45469 4.37812 3.45469 2.55937 3.51563 2.33437C3.58125 2.09531 3.80156 1.92188 4.03125 1.92188C4.15781 1.92188 4.25625 1.95937 4.35469 2.04375ZM11.2922 2.04375C11.3719 2.10938 11.4563 2.24062 11.4844 2.33437C11.5078 2.42812 11.5312 2.93906 11.5312 3.46875C11.5312 3.99844 11.5078 4.50937 11.4844 4.60312C11.4563 4.69687 11.3719 4.82812 11.2922 4.89375C11.0016 5.14219 10.5609 4.9875 10.4531 4.60312C10.3922 4.37812 10.3922 2.55937 10.4531 2.33437C10.5188 2.09531 10.7391 1.92188 10.9688 1.92188C11.0953 1.92188 11.1938 1.95937 11.2922 2.04375ZM18.2297 2.04375C18.3094 2.10938 18.3938 2.24062 18.4219 2.33437C18.4453 2.42812 18.4688 2.93906 18.4688 3.46875C18.4688 3.99844 18.4453 4.50937 18.4219 4.60312C18.3938 4.69687 18.3094 4.82812 18.2297 4.89375C17.9391 5.14219 17.4984 4.9875 17.3906 4.60312C17.3672 4.50937 17.3438 3.99844 17.3438 3.46875C17.3438 2.93906 17.3672 2.42812 17.3906 2.33437C17.4563 2.09531 17.6766 1.92188 17.9062 1.92188C18.0328 1.92188 18.1313 1.95937 18.2297 2.04375ZM2.53125 4.38281C2.53125 4.95937 2.63906 5.25937 2.95312 5.57812C3.27188 5.89219 3.60469 6.01406 4.10156 5.99062C4.70625 5.96719 5.14219 5.69062 5.39531 5.175C5.48906 4.98281 5.5125 4.86094 5.52188 4.43906L5.54063 3.9375H7.50469H9.46875V4.38281C9.46875 4.95937 9.57656 5.25937 9.89062 5.57812C10.2094 5.89219 10.5422 6.01406 11.0391 5.99062C11.6438 5.96719 12.0797 5.69062 12.3328 5.175C12.4266 4.98281 12.45 4.86094 12.4594 4.43906L12.4781 3.9375H14.4422H16.4062V4.38281C16.4062 4.95937 16.5141 5.25937 16.8281 5.57812C17.1469 5.89219 17.4797 6.01406 17.9766 5.99062C18.5813 5.96719 19.0172 5.69062 19.2703 5.175C19.3641 4.98281 19.3875 4.86094 19.3969 4.43906L19.4156 3.92812L20.0344 3.94687C20.7469 3.96562 20.8688 4.0125 20.9484 4.29844C20.9813 4.41094 21 5.25469 21 6.54844V8.625H10.9688H0.932813L0.946875 6.45469C0.960938 4.47656 0.970313 4.275 1.04531 4.15781C1.15313 3.98906 1.33594 3.94687 1.98281 3.94219L2.53125 3.9375V4.38281ZM22.8469 6.10781C22.9172 6.15469 22.9875 6.2625 23.0156 6.37031C23.0484 6.49687 23.0578 8.95312 23.0531 14.1656C23.0391 20.5875 23.0297 21.7875 22.9734 21.8719C22.8094 22.1156 23.4281 22.1016 13.1297 22.1156C6.55781 22.1203 3.49688 22.1109 3.37031 22.0781C3.10781 22.0078 3.03281 21.8625 3.00938 21.3937L2.98594 21H6.03281H9.07969L9.20625 20.8781C9.37969 20.7 9.37969 20.3625 9.20625 20.1891L9.08438 20.0625L5.18438 20.0531C0.815625 20.0391 1.0875 20.0625 0.989063 19.7016C0.95625 19.5844 0.9375 17.8594 0.9375 14.5406V9.5625H10.9688H21L20.9906 14.6344C20.9766 18.8906 20.9672 19.725 20.9109 19.8094C20.7516 20.0484 20.9203 20.0391 16.7531 20.0531L12.8531 20.0625L12.7313 20.1891C12.5578 20.3625 12.5578 20.7 12.7313 20.8781L12.8578 21H16.875H20.8922L21.1781 20.8547C21.5016 20.6953 21.6656 20.5219 21.825 20.1797L21.9375 19.9453V12.9656V5.98594L22.3313 6.00937C22.5891 6.02344 22.7672 6.05625 22.8469 6.10781Z" fill="#4C5D70" stroke="#4C5D70" stroke-width="0.2"/>
<path d="M10.7344 11.3531C10.65 11.3953 10.4766 11.6859 10.125 12.3749L9.63281 13.3359L8.63438 13.4812C8.08594 13.5609 7.58906 13.6546 7.52813 13.6874C7.3875 13.7578 7.3125 13.9218 7.3125 14.1468C7.3125 14.3109 7.35938 14.3671 8.08125 15.0749L8.85 15.8296L8.69063 16.739C8.52188 17.7093 8.50313 17.9531 8.57812 18.0984C8.65313 18.2296 8.89688 18.3421 9.06563 18.314C9.14531 18.2999 9.59531 18.089 10.0641 17.8406C10.5281 17.5921 10.9359 17.3906 10.9688 17.3906C11.0016 17.3906 11.4094 17.5921 11.8734 17.8406C12.3422 18.089 12.7922 18.2999 12.8719 18.314C13.0406 18.3421 13.2844 18.2296 13.3594 18.0984C13.4344 17.9531 13.4156 17.7093 13.2469 16.739L13.0875 15.8296L13.8563 15.0749C14.5781 14.3671 14.625 14.3109 14.625 14.1468C14.625 13.9312 14.5547 13.7718 14.4234 13.6921C14.3672 13.6546 13.8703 13.5609 13.3125 13.4812L12.3047 13.3359L11.8359 12.4124C11.5781 11.9015 11.3344 11.4515 11.2922 11.414C11.1891 11.3109 10.8797 11.2781 10.7344 11.3531ZM11.2828 13.5609C11.4422 13.8749 11.6156 14.1609 11.6672 14.1937C11.7422 14.2359 12.8859 14.4374 13.0594 14.4374C13.0734 14.4374 12.8766 14.6343 12.6281 14.8687C12.0281 15.4453 12.0188 15.4687 12.1406 16.1624C12.1922 16.4624 12.2484 16.7624 12.2625 16.8187C12.2812 16.9218 12.2344 16.9031 11.7 16.6218C11.3391 16.4296 11.0625 16.3124 10.9734 16.3124C10.8797 16.3124 10.6031 16.4296 10.2375 16.6218C9.69844 16.9078 9.65625 16.9218 9.675 16.8234C9.68906 16.7624 9.74531 16.4624 9.79688 16.1578C9.87656 15.6796 9.88125 15.5812 9.825 15.4546C9.79219 15.3703 9.55781 15.1078 9.30938 14.8687C9.06094 14.6343 8.86406 14.4374 8.87813 14.4374C9.05156 14.4374 10.1953 14.2359 10.2703 14.1937C10.3219 14.1609 10.4953 13.8749 10.6547 13.5609C10.8141 13.2421 10.9547 12.9843 10.9688 12.9843C10.9828 12.9843 11.1234 13.2421 11.2828 13.5609Z" fill="#4C5D70"/>
<path d="M10.6219 20.1844C10.5234 20.2828 10.5 20.3531 10.5 20.5312C10.5 20.8406 10.6594 21 10.9687 21C11.1469 21 11.2172 20.9766 11.3156 20.8781C11.4891 20.7 11.4891 20.3625 11.3156 20.1844C11.2172 20.0859 11.1469 20.0625 10.9687 20.0625C10.7906 20.0625 10.7203 20.0859 10.6219 20.1844Z" fill="#4C5D70"/>
</g>
<defs>
<clipPath id="clip0_1680_24743">
<rect width="24" height="24" fill="white"/>
</clipPath>
</defs>
</svg>
