<svg width="20" height="22" viewBox="0 0 20 22" fill="none" xmlns="http://www.w3.org/2000/svg">
<path d="M2.07773 1.13281C1.58086 1.2875 1.07461 1.80312 0.929294 2.30469C0.868356 2.51094 0.858981 3.61719 0.868356 10.625L0.882419 18.7109L1.01836 18.9781C1.20586 19.3437 1.52461 19.6578 1.89023 19.8312L2.19492 19.9766L4.96523 19.9906C6.70429 20 7.78242 19.9859 7.85742 19.9578C8.14804 19.8453 8.23242 19.3859 8.00742 19.1609L7.89023 19.0391L5.12929 19.0156L2.36836 18.9922L2.18554 18.8469C1.81054 18.5469 1.84336 19.3344 1.84336 10.5266V2.67031L1.95117 2.46875C2.02617 2.32812 2.12461 2.22969 2.26523 2.15469L2.46679 2.04688H7.00898H11.5465V3.48594C11.5465 4.84062 11.5512 4.93906 11.6402 5.07969C11.6918 5.16406 11.7387 5.23906 11.7434 5.24375C11.7527 5.24844 12.484 5.26719 13.3746 5.28125L14.9918 5.30469L15.0059 8.84844L15.0152 12.3922L14.809 12.4719C14.3355 12.6547 13.9184 13.025 11.7762 15.1672C9.54961 17.3937 9.46054 17.4969 9.26836 18.0781C9.14648 18.4484 9.15586 19.0016 9.29179 19.4047C9.47461 19.9484 9.91992 20.4547 10.4449 20.7172C10.8059 20.9 11.0824 20.9516 11.5371 20.9281C11.9824 20.9 12.3059 20.7969 12.6621 20.5672C12.784 20.4922 13.7684 19.5359 14.8512 18.4437C17.0121 16.2687 17.0355 16.2406 17.0684 15.6828C17.0918 15.2656 16.9699 14.9797 16.6043 14.6328C16.2434 14.2906 15.9715 14.1641 15.5777 14.1687C15.3434 14.1687 15.2168 14.1969 15.0199 14.3C14.6824 14.4687 14.6262 14.5203 13.1777 15.9969L11.9215 17.2766V17.4922C11.9215 17.7922 12.1043 17.9844 12.3949 17.9844C12.5965 17.9844 12.6012 17.9797 13.9371 16.6531C14.673 15.9219 15.3246 15.2891 15.3902 15.2469C15.5777 15.1203 15.784 15.1484 15.9715 15.3312C16.1777 15.5234 16.1871 15.6594 16.0043 15.9031C15.9293 16.0016 15.0199 16.9344 13.9793 17.9656C11.9262 20.0047 11.9637 19.9766 11.4527 19.9672C11.0121 19.9625 10.6371 19.7328 10.384 19.3016C10.2762 19.1234 10.2574 19.0297 10.2574 18.7578C10.2621 18.1625 10.2293 18.2 12.5918 15.8469C14.3215 14.1219 14.7715 13.6953 15.0434 13.5359C15.8918 13.0391 16.6934 13.1609 17.4293 13.9016C18.2777 14.7547 18.3996 15.5187 17.823 16.3766C17.7434 16.5031 16.8668 17.4125 15.8777 18.4062C14.8793 19.4094 14.059 20.2719 14.0309 20.3469C13.9184 20.6516 14.1715 20.9844 14.5184 20.9844C14.7059 20.9844 14.7293 20.9656 16.4121 19.2828C17.3496 18.35 18.2449 17.4312 18.3949 17.2437C19.1074 16.3625 19.3371 15.3828 19.0512 14.4687C18.6902 13.325 17.509 12.2937 16.4215 12.1766L16.1637 12.1484L16.1402 8.34219L16.1168 4.53125L15.8355 4.25469C15.6809 4.1 14.8605 3.31719 14.0074 2.52031L12.4605 1.0625L7.37461 1.06719C3.16054 1.06719 2.25117 1.08125 2.07773 1.13281ZM13.4684 3.49531L14.2887 4.29219H13.4355L12.5777 4.29688V3.5C12.5777 3.05937 12.5965 2.70312 12.6152 2.70312C12.634 2.70312 13.023 3.05937 13.4684 3.49531Z" fill="#4C5D70" stroke="#4C5D70" stroke-width="0.3"/>
<path d="M4.73125 8.30287C4.53438 8.40599 4.47344 8.50912 4.46875 8.72943C4.46875 8.97318 4.6 9.15131 4.83438 9.21693C4.95156 9.25443 6.12344 9.26381 8.56094 9.25443L12.1188 9.24037L12.2547 9.08568C12.4422 8.87474 12.4422 8.62162 12.2547 8.41068L12.1188 8.25599L8.49063 8.24193C5.31719 8.23256 4.84844 8.24193 4.73125 8.30287Z" fill="#4C5D70" stroke="#4C5D70" stroke-width="0.3"/>
<path d="M4.60441 11.6514C4.37003 11.8904 4.43566 12.2935 4.73566 12.4482C4.88566 12.5232 11.9638 12.5232 12.1325 12.4435C12.4138 12.317 12.4794 11.881 12.2544 11.6514L12.1185 11.5154H8.42941H4.74034L4.60441 11.6514Z" fill="#4C5D70" stroke="#4C5D70" stroke-width="0.3"/>
<path d="M4.72188 14.75C4.5625 14.8109 4.46875 14.9844 4.46875 15.2094C4.46875 15.3734 4.49688 15.4391 4.60469 15.5516L4.74063 15.6875H7H9.25938L9.39531 15.5516C9.57812 15.3688 9.5875 15.0547 9.41875 14.8578L9.30625 14.7266L7.06094 14.7172C5.82812 14.7125 4.77344 14.7266 4.72188 14.75Z" fill="#4C5D70" stroke="#4C5D70" stroke-width="0.3"/>
</svg>
