<svg width="20" height="21" viewBox="0 0 20 21" fill="none" xmlns="http://www.w3.org/2000/svg">
<path d="M5.84698 20.007C4.69178 20.0097 3.56179 19.6694 2.60024 19.0291C1.6387 18.3889 0.888911 17.4776 0.445928 16.4107C0.0029451 15.3438 -0.113283 14.1694 0.111979 13.0364C0.33724 11.9033 0.893847 10.8627 1.71124 10.0464L10.5444 1.22576C11.3262 0.44217 12.3873 0.00125288 13.4942 2.66594e-06C14.6011 -0.00124755 15.6632 0.437271 16.4467 1.21909C17.2303 2.00091 17.6712 3.06199 17.6725 4.16889C17.6738 5.2758 17.2352 6.33787 16.4534 7.12146L7.61944 15.9413C7.14167 16.3966 6.50698 16.6506 5.84698 16.6506C5.18698 16.6506 4.55229 16.3966 4.07452 15.9413C3.84208 15.7091 3.65769 15.4334 3.53188 15.1299C3.40607 14.8264 3.34132 14.5011 3.34132 14.1726C3.34132 13.844 3.40607 13.5187 3.53188 13.2152C3.65769 12.9117 3.84208 12.636 4.07452 12.4038L12.3193 4.17403L13.501 5.35317L5.25616 13.5846C5.09994 13.7409 5.01218 13.9528 5.01218 14.1738C5.01218 14.3948 5.09994 14.6067 5.25616 14.763C5.41535 14.9149 5.62694 14.9996 5.84698 14.9996C6.06702 14.9996 6.27861 14.9149 6.4378 14.763L15.2776 5.94232C15.7467 5.47212 16.0098 4.83484 16.009 4.17066C16.0082 3.50649 15.7436 2.86982 15.2734 2.40073C14.8032 1.93164 14.166 1.66855 13.5018 1.66933C12.8376 1.67011 12.2009 1.9347 11.7319 2.4049L2.89288 11.2247C2.11095 12.0082 1.67228 13.0702 1.67337 14.1771C1.67447 15.284 2.11523 16.3451 2.89871 17.1271C3.68219 17.909 4.7442 18.3477 5.8511 18.3466C6.95801 18.3455 8.01915 17.9047 8.80108 17.1212L18.8184 7.12146L20 8.3006L9.98272 18.3004C9.43959 18.843 8.79468 19.2731 8.08498 19.566C7.37527 19.8588 6.61473 20.0087 5.84698 20.007V20.007Z" fill="#4C5D70"/>
</svg>
