<svg width="44" height="44" viewBox="0 0 44 44" fill="none" xmlns="http://www.w3.org/2000/svg">
<circle cx="22" cy="22" r="22" fill="#A194FF" fill-opacity="0.15"/>
<g clip-path="url(#clip0_5469_68804)">
<path d="M19.4374 12.2412C17.4491 12.4326 16.0233 13.7061 15.6132 15.6553C15.5116 16.1319 15.4921 16.9366 15.5702 17.46C15.7186 18.4561 16.0819 19.3428 16.6913 20.1944C16.8202 20.3701 16.9218 20.5186 16.9218 20.5303C16.9218 20.5381 16.8397 20.5772 16.7382 20.6162C16.414 20.7373 15.7186 21.0967 15.3866 21.3116C13.5975 22.4795 12.453 24.3545 12.0975 26.6905C12.0194 27.2256 11.9804 28.3311 12.0311 28.792C12.078 29.2373 12.1054 29.2725 12.6757 29.6123C14.6718 30.7959 16.5429 31.4717 18.5272 31.7139C19.16 31.7959 20.5819 31.8037 21.1796 31.7334C22.5468 31.5733 23.7968 31.2451 25.0468 30.7139C25.3358 30.5928 25.6405 30.4561 25.7265 30.4131C25.8749 30.335 25.8788 30.335 26.1757 30.4092C26.5663 30.5108 27.5311 30.5459 27.9804 30.4795C28.703 30.378 29.5077 30.0303 30.1327 29.5616C31.6327 28.4326 32.3124 26.4834 31.8475 24.6514C31.3983 22.8741 29.953 21.5108 28.1444 21.1592C27.6796 21.0694 26.8554 21.0655 26.4022 21.1553C26.0272 21.2295 25.4843 21.4131 25.1913 21.5576L25.0038 21.6553L24.5897 21.378C24.1405 21.0772 23.7186 20.8506 23.2421 20.6553L22.9413 20.5342L23.164 20.2334C24.3007 18.7022 24.6679 16.7178 24.1171 15.0889C23.8788 14.3897 23.5311 13.8428 23.0116 13.3584C22.328 12.7139 21.4686 12.3428 20.4022 12.2373C19.9608 12.1944 19.9022 12.1944 19.4374 12.2412ZM20.789 13.2373C22.8046 13.6514 23.8515 15.6045 23.2694 17.8819C22.8905 19.3701 21.6718 20.8233 20.4999 21.1787C19.9999 21.3311 19.4608 21.2725 18.9569 21.0069C17.9686 20.4834 17.0897 19.3741 16.6913 18.1475C16.5155 17.5967 16.4725 17.3116 16.4725 16.6514C16.4765 16.1592 16.4921 15.9795 16.5624 15.6944C16.6757 15.2373 16.9765 14.628 17.2499 14.2998C18.0233 13.378 19.414 12.96 20.789 13.2373ZM17.9999 21.5186C19.0741 22.2881 20.2186 22.4053 21.3085 21.8623C21.535 21.7491 21.785 21.5889 22.1249 21.3428C22.2147 21.2764 22.4257 21.3311 23.0155 21.5811C23.3905 21.7373 24.0819 22.1241 24.1288 22.1983C24.1444 22.2217 24.0116 22.3897 23.8397 22.5694C22.6913 23.7686 22.2655 25.503 22.7265 27.1162C22.8554 27.5694 23.1913 28.2412 23.4804 28.628C23.7421 28.9795 24.2186 29.4483 24.5311 29.6592C24.6405 29.7334 24.7343 29.8037 24.7343 29.8155C24.7343 29.8467 24.0585 30.1084 23.5741 30.2686C20.9218 31.1358 18.2343 31.0576 15.6093 30.0264C14.9686 29.7764 14.1913 29.4014 13.535 29.0264C12.871 28.6475 12.914 28.7451 12.9491 27.7491C12.9921 26.503 13.2265 25.5186 13.7186 24.542C14.4452 23.0967 15.7421 21.96 17.2733 21.417C17.4569 21.3545 17.6249 21.2998 17.6522 21.2998C17.6757 21.2998 17.8358 21.3975 17.9999 21.5186ZM27.7225 22.0459C28.6093 22.1553 29.4179 22.5694 30.035 23.2256C30.3475 23.5616 30.4882 23.7686 30.6952 24.2061C30.953 24.753 31.0389 25.1514 31.0389 25.8116C31.0389 26.2451 31.0233 26.4287 30.953 26.7061C30.6679 27.8428 29.8241 28.8428 28.7655 29.2881C28.2069 29.5225 27.9882 29.5616 27.2538 29.5616C26.6796 29.5616 26.5468 29.5498 26.2811 29.4717C25.3397 29.2022 24.5038 28.5616 24.0155 27.753C23.7968 27.3858 23.5858 26.7998 23.5194 26.378C23.4569 25.9717 23.496 25.2295 23.6015 24.835C24.0311 23.2256 25.5194 22.0537 27.1952 22.0069C27.2929 22.0069 27.5311 22.0225 27.7225 22.0459Z" fill="#A194FF" stroke="#A194FF" stroke-width="0.2"/>
<path d="M29.1678 24.0762C29.1249 24.0996 28.5624 24.6465 27.9178 25.2871L26.746 26.4551L26.1014 25.8066C25.746 25.4512 25.41 25.1348 25.3514 25.1035C24.9647 24.9004 24.5428 25.3496 24.7499 25.7441C24.8202 25.8691 26.4374 27.4824 26.5585 27.5449C26.6678 27.5996 26.8241 27.5996 26.9335 27.5449C27.0545 27.4824 29.7264 24.8184 29.7967 24.6895C29.867 24.5527 29.867 24.4473 29.7889 24.2832C29.6835 24.0645 29.3788 23.9629 29.1678 24.0762Z" fill="#A194FF"/>
</g>
<defs>
<clipPath id="clip0_5469_68804">
<rect width="20" height="20" fill="white" transform="translate(12 12)"/>
</clipPath>
</defs>
</svg>
