<svg width="76" height="76" viewBox="0 0 76 76" fill="none" xmlns="http://www.w3.org/2000/svg">
<circle cx="38" cy="38" r="38" fill="#D1F2FF"/>
<path fill-rule="evenodd" clip-rule="evenodd" d="M21.2292 37.9993C21.2292 37.2054 21.8728 36.5618 22.6667 36.5618H53.3334C54.1273 36.5618 54.7709 37.2054 54.7709 37.9993V51.8952H57.1667C57.9606 51.8952 58.6042 52.5388 58.6042 53.3327C58.6042 54.1266 57.9606 54.7702 57.1667 54.7702H18.8334C18.0395 54.7702 17.3959 54.1266 17.3959 53.3327C17.3959 52.5388 18.0395 51.8952 18.8334 51.8952H21.2292V37.9993ZM24.1042 51.8952H51.8959V39.4368H24.1042V51.8952Z" fill="#64CBF4"/>
<path fill-rule="evenodd" clip-rule="evenodd" d="M25.857 44.3803C26.2617 44.1779 26.7381 44.1779 27.1428 44.3803L30.3332 45.9755L33.5237 44.3803C33.9284 44.1779 34.4047 44.1779 34.8094 44.3803L37.9999 45.9755L41.1904 44.3803C41.595 44.1779 42.0714 44.1779 42.4761 44.3803L45.6666 45.9755L48.857 44.3803C49.2617 44.1779 49.7381 44.1779 50.1428 44.3803L53.9761 46.2969C54.6862 46.652 54.974 47.5155 54.619 48.2255C54.2639 48.9356 53.4004 49.2235 52.6904 48.8684L49.4999 47.2732L46.3094 48.8684C45.9047 49.0708 45.4284 49.0708 45.0237 48.8684L41.8332 47.2732L38.6428 48.8684C38.2381 49.0708 37.7617 49.0708 37.357 48.8684L34.1666 47.2732L30.9761 48.8684C30.5714 49.0708 30.095 49.0708 29.6904 48.8684L26.4999 47.2732L23.3094 48.8684C22.5993 49.2235 21.7359 48.9356 21.3808 48.2255C21.0258 47.5155 21.3136 46.652 22.0237 46.2969L25.857 44.3803Z" fill="#64CBF4"/>
<path fill-rule="evenodd" clip-rule="evenodd" d="M45.6667 27.9368C46.4606 27.9368 47.1042 28.5804 47.1042 29.3743V37.9993C47.1042 38.7933 46.4606 39.4368 45.6667 39.4368C44.8728 39.4368 44.2292 38.7933 44.2292 37.9993V29.3743C44.2292 28.5804 44.8728 27.9368 45.6667 27.9368Z" fill="#64CBF4"/>
<path fill-rule="evenodd" clip-rule="evenodd" d="M38 27.9368C38.794 27.9368 39.4375 28.5804 39.4375 29.3743V37.9993C39.4375 38.7933 38.794 39.4368 38 39.4368C37.2061 39.4368 36.5625 38.7933 36.5625 37.9993V29.3743C36.5625 28.5804 37.2061 27.9368 38 27.9368Z" fill="#64CBF4"/>
<path fill-rule="evenodd" clip-rule="evenodd" d="M30.3334 27.9368C31.1273 27.9368 31.7709 28.5804 31.7709 29.3743V37.9993C31.7709 38.7933 31.1273 39.4368 30.3334 39.4368C29.5395 39.4368 28.8959 38.7933 28.8959 37.9993V29.3743C28.8959 28.5804 29.5395 27.9368 30.3334 27.9368Z" fill="#64CBF4"/>
<path fill-rule="evenodd" clip-rule="evenodd" d="M45.6667 21.2285C46.4606 21.2285 47.1042 21.8721 47.1042 22.666V24.5827C47.1042 25.3766 46.4606 26.0202 45.6667 26.0202C44.8728 26.0202 44.2292 25.3766 44.2292 24.5827V22.666C44.2292 21.8721 44.8728 21.2285 45.6667 21.2285Z" fill="#64CBF4"/>
<path fill-rule="evenodd" clip-rule="evenodd" d="M38 21.2285C38.794 21.2285 39.4375 21.8721 39.4375 22.666V24.5827C39.4375 25.3766 38.794 26.0202 38 26.0202C37.2061 26.0202 36.5625 25.3766 36.5625 24.5827V22.666C36.5625 21.8721 37.2061 21.2285 38 21.2285Z" fill="#64CBF4"/>
<path fill-rule="evenodd" clip-rule="evenodd" d="M30.3334 21.2285C31.1273 21.2285 31.7709 21.8721 31.7709 22.666V24.5827C31.7709 25.3766 31.1273 26.0202 30.3334 26.0202C29.5395 26.0202 28.8959 25.3766 28.8959 24.5827V22.666C28.8959 21.8721 29.5395 21.2285 30.3334 21.2285Z" fill="#64CBF4"/>
<path fill-rule="evenodd" clip-rule="evenodd" d="M22.6667 36.5618C23.4606 36.5618 24.1042 37.2054 24.1042 37.9993V53.3327C24.1042 54.1266 23.4606 54.7702 22.6667 54.7702C21.8728 54.7702 21.2292 54.1266 21.2292 53.3327V37.9993C21.2292 37.2054 21.8728 36.5618 22.6667 36.5618Z" fill="#64CBF4"/>
<path fill-rule="evenodd" clip-rule="evenodd" d="M53.3334 36.5618C54.1273 36.5618 54.7709 37.2054 54.7709 37.9993V53.3327C54.7709 54.1266 54.1273 54.7702 53.3334 54.7702C52.5395 54.7702 51.8959 54.1266 51.8959 53.3327V37.9993C51.8959 37.2054 52.5395 36.5618 53.3334 36.5618Z" fill="#64CBF4"/>
</svg>
