<svg width="40" height="40" viewBox="0 0 40 40" fill="none" xmlns="http://www.w3.org/2000/svg">
<circle cx="20" cy="20" r="20" fill="#3BA4E8"/>
<path d="M19.3752 10.0351C16.5911 10.4173 14.2255 12.3853 13.3577 15.035C12.6707 17.1372 12.9858 19.4771 14.1945 21.3262C14.4476 21.7136 14.7472 22.07 15.1604 22.4832C16.2399 23.5679 17.3917 24.1877 18.9361 24.5235C19.277 24.6009 19.5921 24.6216 20.3565 24.6164C21.2295 24.6164 21.3999 24.6009 21.9113 24.4821C23.3834 24.1361 24.561 23.4698 25.6044 22.3902C26.3895 21.5793 26.9577 20.6392 27.3037 19.5855C27.5672 18.7798 27.6343 18.3097 27.6343 17.3129C27.6343 16.316 27.5672 15.846 27.3037 15.0402C26.937 13.9193 26.3792 13.0258 25.5011 12.1425C24.4112 11.0578 23.1819 10.3915 21.715 10.1074C21.2036 10.0041 19.8814 9.9628 19.3752 10.0351ZM21.8286 11.7035C23.9773 12.2975 25.625 14.0743 26.0383 16.2437C26.1416 16.7808 26.1364 17.85 26.0331 18.3976C25.842 19.4203 25.31 20.4585 24.5455 21.3159C24.2769 21.6206 24.3337 21.7498 24.0755 20.2622C23.9773 19.6785 23.8792 19.1878 23.8585 19.1672C23.8327 19.1465 23.2026 19.0174 22.4485 18.8728L21.0797 18.6145L20.8627 18.7436C20.7388 18.8159 20.6406 18.8831 20.6406 18.8934C20.6406 18.9037 20.7439 19.5029 20.8731 20.226C21.0022 20.9543 21.1055 21.5948 21.1055 21.6516C21.1055 21.7498 20.3927 22.8345 20.3307 22.8345C20.2687 22.8345 19.5559 21.7394 19.5559 21.6465C19.5559 21.5896 19.6592 20.9492 19.7884 20.2209L20.026 18.8934L19.8814 18.7746C19.7987 18.7126 19.6902 18.6455 19.6386 18.6248C19.5508 18.5938 16.9217 19.0587 16.8184 19.1207C16.7926 19.1362 16.6893 19.6372 16.586 20.2312C16.3277 21.7549 16.3845 21.6206 16.1159 21.3159C15.3515 20.4585 14.8195 19.4203 14.6284 18.3976C14.5819 18.1496 14.5457 17.6951 14.5457 17.3129C14.5457 16.2798 14.7213 15.5412 15.1862 14.6373C15.4858 14.064 15.7337 13.7282 16.2347 13.2169C17.0715 12.3749 18.1768 11.8016 19.3958 11.5743C19.525 11.5537 20.0156 11.5433 20.4857 11.5537C21.2088 11.5692 21.4102 11.5898 21.8286 11.7035Z" fill="white"/>
<path d="M19.7159 13.3161C18.5744 13.6208 17.8048 14.7933 17.9959 15.94C18.2077 17.2416 19.4112 18.1301 20.6818 17.9338C21.9731 17.7272 22.877 16.4927 22.6601 15.2272C22.4225 13.8378 21.0589 12.9545 19.7159 13.3161Z" fill="white"/>
<path d="M15.074 25.1781C14.1184 27.3888 13.731 28.2875 13.7465 28.303C13.7517 28.3082 14.3664 28.1067 15.1153 27.8485C15.8643 27.5902 16.4944 27.3991 16.5151 27.4197C16.5357 27.4456 16.8198 28.0241 17.1452 28.7162C17.4706 29.4083 17.7496 29.9817 17.7599 29.992C17.7702 30.0075 18.2248 29.0003 18.7619 27.7555C19.3973 26.3041 19.7227 25.4828 19.6917 25.4621C19.6607 25.4415 19.5574 25.4208 19.4644 25.4208C19.1648 25.4208 18.2661 25.2194 17.6979 25.0231C17.1349 24.832 16.4169 24.4963 15.9676 24.2122C15.8281 24.1192 15.6835 24.0314 15.6525 24.0107C15.6112 23.9901 15.4149 24.3878 15.074 25.1781Z" fill="white"/>
<path d="M24.7995 24.158C24.3915 24.4473 23.4721 24.8966 22.8988 25.0826C22.4545 25.2324 21.9019 25.346 21.0754 25.4545L20.9102 25.4751L21.4008 26.6012C21.6694 27.2158 22.1085 28.2385 22.3822 28.8687C22.656 29.504 22.8884 30.0102 22.9039 29.9998C22.9142 29.9843 23.1932 29.411 23.5186 28.7189C23.844 28.0267 24.1281 27.4431 24.1487 27.4224C24.1694 27.4018 24.7995 27.5929 25.5485 27.846C26.2974 28.1042 26.9173 28.3108 26.9224 28.3005C26.9328 28.2902 25.1043 24.0341 25.0733 24.0031C25.063 23.9876 24.939 24.0599 24.7995 24.158Z" fill="white"/>
</svg>
