<svg width="20" height="20" viewBox="0 0 20 20" fill="none" xmlns="http://www.w3.org/2000/svg">
<g clip-path="url(#clip0_9922_97056)">
<path d="M8.098 1.06323C7.84635 1.13354 7.64282 1.28897 7.38007 1.62573C7.25055 1.78486 7.05441 2.0217 6.93969 2.15122C6.75466 2.35476 6.70285 2.38807 6.48451 2.45098C6.35129 2.49169 6.04413 2.5472 5.80729 2.5768C5.3151 2.64341 5.08196 2.72853 4.87843 2.92836C4.62678 3.16891 4.55647 3.35764 4.46765 4.04596C4.43805 4.2791 4.39364 4.53445 4.37144 4.61586C4.31593 4.80089 4.10129 5.03034 3.67941 5.34489C3.11321 5.77047 2.95038 6.02581 2.95778 6.46989C2.96148 6.74004 2.99849 6.87326 3.24273 7.46537C3.47218 8.01677 3.46107 8.1833 3.13542 8.97524C2.78385 9.82269 2.89487 10.1965 3.67941 10.8071C3.90515 10.981 4.12719 11.166 4.1753 11.2215C4.33073 11.3918 4.40844 11.6138 4.46395 12.0653C4.55277 12.7388 4.63418 12.9719 4.86732 13.2051C5.00055 13.3383 5.11897 13.416 5.24849 13.4604L5.44093 13.5233L5.33731 13.8083C5.2781 13.9637 4.95984 14.8149 4.63048 15.6993C4.21971 16.7947 4.03838 17.3276 4.05318 17.3868C4.08648 17.5164 4.179 17.5904 4.30482 17.5904C4.36403 17.5904 4.90063 17.4312 5.49273 17.2388C6.09964 17.039 6.58443 16.902 6.59923 16.9168C6.61773 16.9354 6.90269 17.3979 7.23204 17.9456C7.87966 19.0151 7.91667 19.0558 8.135 18.9522C8.22752 18.9078 8.30523 18.7191 8.96765 16.9428C9.37102 15.8622 9.72629 14.9111 9.75959 14.8223C9.8151 14.6705 9.8188 14.6668 9.99644 14.6668C10.1741 14.6668 10.1778 14.6705 10.2333 14.8223C10.2666 14.9111 10.6218 15.8622 11.0252 16.9428C11.9837 19.5184 11.8542 19.4444 12.7608 17.9456C13.0902 17.3979 13.3751 16.9354 13.3936 16.9168C13.4121 16.8983 13.8636 17.0279 14.5001 17.2388C15.0922 17.4312 15.6251 17.5904 15.688 17.5904C15.8139 17.5904 15.9064 17.5164 15.9397 17.3868C15.9545 17.3276 15.7436 16.717 15.2588 15.4181C14.6556 13.8009 14.563 13.5344 14.6149 13.5122C14.6519 13.5011 14.737 13.4678 14.8073 13.4419C14.9738 13.379 15.2403 13.1348 15.3291 12.9608C15.4142 12.7906 15.4586 12.5982 15.5289 12.0838C15.5585 11.8655 15.5992 11.6249 15.6214 11.5435C15.6769 11.3585 15.8916 11.129 16.3135 10.8145C16.876 10.3889 17.0388 10.1372 17.0388 9.68946C17.0351 9.47853 17.0092 9.36381 16.8982 9.07886C16.4948 8.04637 16.4948 8.08708 16.8797 7.13971C17.1979 6.34777 17.0795 5.9444 16.3505 5.3819C15.6695 4.85641 15.6029 4.74539 15.5104 3.99045C15.4401 3.41315 15.355 3.18371 15.1218 2.95057C14.8887 2.71743 14.6556 2.63601 13.9857 2.5509C13.7489 2.51759 13.4899 2.46948 13.4121 2.43618C13.2271 2.35846 13.0421 2.17713 12.7164 1.74785C12.2871 1.18535 12.0503 1.03363 11.6062 1.03733C11.3953 1.03733 11.2806 1.06323 10.9956 1.17795C9.97423 1.57762 9.96683 1.57762 9.19709 1.25196C8.86033 1.10764 8.49397 1.00772 8.33484 1.01512C8.30153 1.01512 8.19421 1.03733 8.098 1.06323ZM9.02686 1.78486C9.2637 1.88478 9.53755 1.9847 9.63377 2.0069C10.0223 2.09941 10.3887 2.04021 10.9623 1.78856C11.1436 1.70715 11.3657 1.62203 11.4582 1.59983C11.7654 1.52211 11.9393 1.64424 12.4019 2.26225C12.8459 2.85435 13.0976 2.99127 13.9598 3.10229C14.7666 3.20591 14.8739 3.31323 14.9738 4.11997C15.0737 4.95632 15.2255 5.23017 15.8139 5.67425C16.4023 6.11463 16.5355 6.28856 16.4874 6.55501C16.4726 6.62902 16.3875 6.86586 16.2987 7.0731C15.973 7.84284 15.9508 8.2166 16.195 8.80501C16.4578 9.44152 16.517 9.63766 16.4911 9.77458C16.4615 9.93741 16.2876 10.1224 15.8435 10.4592C15.2181 10.9366 15.0774 11.1956 14.9738 12.0394C14.9072 12.5612 14.8184 12.7943 14.6371 12.8979C14.5779 12.9349 14.3595 12.9868 14.156 13.0201C13.3973 13.1385 13.3196 13.1533 13.1235 13.2384C12.8681 13.3531 12.6387 13.5678 12.3649 13.9415C12.1132 14.2931 11.906 14.5003 11.7579 14.5558C11.6136 14.6113 11.4471 14.5706 11.003 14.3819C10.1593 14.0266 9.804 14.0229 9.02686 14.3708C8.61609 14.5558 8.39775 14.6076 8.24232 14.5558C8.0943 14.5077 7.90186 14.3116 7.59101 13.8971C7.15063 13.3087 6.87308 13.157 6.03673 13.0571C5.22629 12.9571 5.11897 12.8498 5.01905 12.0394C4.91913 11.203 4.76741 10.9255 4.179 10.4851C3.76453 10.1743 3.56839 9.98182 3.52028 9.83379C3.46847 9.67836 3.52028 9.46002 3.70532 9.04925C4.04948 8.28321 4.04948 7.87614 3.70532 7.11011C3.52028 6.69933 3.46847 6.48099 3.52028 6.32557C3.56839 6.17754 3.76453 5.98511 4.179 5.67425C4.76741 5.23387 4.91543 4.95632 5.01905 4.12367C5.12637 3.27252 5.21519 3.19111 6.16255 3.08379C6.85088 3.00978 7.16913 2.82475 7.59101 2.26225C8.03139 1.67384 8.18311 1.55172 8.43476 1.58132C8.52357 1.59243 8.79002 1.68494 9.02686 1.78486ZM6.47341 13.6899C6.72135 13.7602 6.90639 13.9267 7.29125 14.4263C7.63171 14.863 7.88706 15.0591 8.17571 15.1072C8.38665 15.1405 8.6753 15.1072 8.92324 15.0184C9.01206 14.9888 9.08607 14.9666 9.09347 14.974C9.10828 14.9888 7.99808 17.9715 7.96107 18.0085C7.94627 18.0233 7.70573 17.6533 7.42448 17.1796C7.04331 16.5505 6.88788 16.3136 6.81757 16.2877C6.73616 16.2581 6.55852 16.3062 5.75918 16.569C5.23369 16.7429 4.79701 16.8798 4.79331 16.8761C4.78961 16.8724 5.05976 16.1323 5.39652 15.2331L6.01083 13.6011L6.14405 13.6196C6.21806 13.6307 6.36609 13.6603 6.47341 13.6899ZM14.4927 14.9629C14.7703 15.7067 15.0478 16.4395 15.1033 16.5986L15.2107 16.8798L14.9442 16.7984C14.7962 16.7503 14.3632 16.6097 13.9746 16.4839C13.3973 16.2951 13.253 16.2581 13.1753 16.2877C13.105 16.3173 12.9496 16.5468 12.5684 17.1796C12.2871 17.6533 12.0466 18.0233 12.0318 18.0085C11.9948 17.9715 10.8846 14.9888 10.8994 14.974C10.9031 14.9666 11.0067 14.9962 11.1288 15.0406C11.4027 15.1368 11.8061 15.1442 12.0096 15.0591C12.239 14.9629 12.4426 14.7742 12.7238 14.4004C13.0569 13.96 13.2752 13.7602 13.4825 13.7047C13.6157 13.6677 13.9598 13.6011 13.982 13.6085C13.9857 13.6122 14.2152 14.2191 14.4927 14.9629Z" fill="#4C5D70" stroke="#4C5D70" stroke-width="0.6"/>
<path d="M9.16735 3.21043C8.04605 3.42877 7.2023 3.87655 6.44367 4.66479C5.55181 5.58996 5.07812 6.77417 5.07812 8.0805C5.07812 8.6504 5.15214 9.12779 5.31867 9.62738C5.88117 11.3075 7.25781 12.5361 9.00082 12.9136C9.39679 12.9987 10.5107 13.0098 10.9067 12.9321C12.9642 12.525 14.5481 10.8967 14.8701 8.85764C14.9441 8.39506 14.9256 7.47359 14.8331 7.06282C14.4741 5.45303 13.412 4.16891 11.9058 3.52869C11.3026 3.26964 10.8956 3.18823 10.111 3.17343C9.63734 3.16603 9.34498 3.17713 9.16735 3.21043ZM10.7734 3.77293C12.0317 3.99497 13.1308 4.76841 13.7932 5.89711C14.5555 7.19974 14.5629 8.95756 13.8043 10.2454C12.9864 11.6405 11.5913 12.4473 10 12.4473C7.56867 12.4473 5.62582 10.5044 5.62952 8.0768C5.63322 5.34201 8.07566 3.29925 10.7734 3.77293Z" fill="#4C5D70" stroke="#4C5D70" stroke-width="0.6"/>
<path d="M9.82607 5.31784C9.78536 5.34745 9.59663 5.68421 9.40419 6.07278L9.05633 6.7722L8.25699 6.88692C7.37993 7.01275 7.32812 7.03125 7.32812 7.27549C7.32812 7.37541 7.40214 7.46423 7.91653 7.95641L8.50123 8.52261L8.37911 9.23314C8.3088 9.62541 8.25329 10.0103 8.25329 10.0843C8.25329 10.2397 8.35321 10.3359 8.51974 10.3359C8.57525 10.3359 8.91201 10.1805 9.28207 9.98437C9.64844 9.79194 9.96669 9.63281 9.9926 9.63281C10.0185 9.63281 10.3368 9.79194 10.7031 9.98437C11.0732 10.1805 11.41 10.3359 11.4655 10.3359C11.632 10.3359 11.7319 10.2397 11.7319 10.0843C11.7319 10.0103 11.6764 9.62541 11.6061 9.23314L11.484 8.52261L12.0687 7.95641C12.5794 7.46423 12.6571 7.37541 12.6571 7.27549C12.6571 7.03125 12.6053 7.01275 11.7245 6.88692L10.9215 6.7722L10.5773 6.06908C10.3886 5.68421 10.1998 5.34375 10.1591 5.31784C10.0666 5.25123 9.91859 5.25123 9.82607 5.31784ZM10.2701 6.70929C10.4663 7.10526 10.5477 7.23479 10.6217 7.26069C10.6735 7.28289 10.9067 7.3236 11.1398 7.35691C11.8688 7.45683 11.8429 7.39021 11.347 7.8898C11.0288 8.20806 10.9178 8.34498 10.9178 8.4116C10.9178 8.4634 10.9585 8.73725 11.0103 9.0185C11.0621 9.30345 11.1028 9.544 11.1028 9.5514C11.1028 9.5588 10.8808 9.44778 10.6069 9.30345C10.2924 9.13692 10.0703 9.04071 9.9926 9.04071C9.91859 9.04071 9.69655 9.13692 9.37829 9.30345C9.10444 9.44778 8.8824 9.5588 8.8824 9.5514C8.8824 9.544 8.92311 9.30345 8.97492 9.0185C9.02673 8.73725 9.06743 8.4634 9.06743 8.4116C9.06743 8.34498 8.95641 8.20806 8.63816 7.8898C8.14227 7.39021 8.11637 7.45683 8.84539 7.35691C9.07854 7.3236 9.31168 7.28289 9.36349 7.26069C9.4375 7.23479 9.51891 7.10526 9.71505 6.70929C9.85567 6.42434 9.9815 6.1912 9.9926 6.1912C10.0037 6.1912 10.1295 6.42434 10.2701 6.70929Z" fill="#4C5D70"/>
</g>
<defs>
<clipPath id="clip0_9922_97056">
<rect width="18.9474" height="18.9474" fill="white" transform="translate(0.523438 0.53125)"/>
</clipPath>
</defs>
</svg>
