<svg width="40" height="40" viewBox="0 0 40 40" fill="none" xmlns="http://www.w3.org/2000/svg">
<rect width="40" height="40" rx="4" fill="#C5F3F5"/>
<path d="M13.6346 8.95032C13.5456 9.04876 13.5315 9.1097 13.5315 9.51282V9.96282L12.0924 9.97688L10.6487 9.99095L10.3768 10.1175C10.044 10.2722 9.66431 10.6519 9.49087 11.0034C9.20024 11.5847 9.21899 10.9894 9.21899 20.5003V29.1816L9.33618 29.5566C9.58462 30.3394 10.1377 30.8456 10.8643 30.9675C11.2487 31.0284 28.8924 31.0331 29.319 30.9722C29.9002 30.8878 30.4065 30.5081 30.6971 29.9503C31.0112 29.3456 30.9924 29.9738 30.9924 20.4675C30.9924 13.2441 30.9831 11.7769 30.9268 11.5613C30.7721 10.9519 30.3831 10.4222 29.8815 10.1503L29.5862 9.99095L27.9362 9.97688L26.2815 9.96282V9.52688C26.2815 9.15657 26.2674 9.0722 26.1831 8.96438C26.1081 8.86595 26.0471 8.84251 25.8831 8.84251C25.719 8.84251 25.6581 8.86595 25.5831 8.96438C25.4987 9.0722 25.4846 9.15657 25.4846 9.52688V9.96751H22.9065H20.3284V9.56907C20.3284 9.15188 20.2581 8.92688 20.1174 8.87063C19.9487 8.8097 19.7331 8.84251 19.6346 8.95032C19.5456 9.04876 19.5315 9.1097 19.5315 9.51282V9.96751H16.9299H14.3284V9.56907C14.3284 9.15188 14.2581 8.92688 14.1174 8.87063C13.9487 8.8097 13.7331 8.84251 13.6346 8.95032ZM13.5315 11.1956C13.5362 11.6691 13.569 11.7581 13.7846 11.8425C13.9581 11.9081 14.2206 11.7956 14.2815 11.6316C14.3096 11.5613 14.3284 11.3409 14.3284 11.1347V10.7644H16.9299H19.5315V11.1956C19.5362 11.6691 19.569 11.7581 19.7846 11.8425C19.9581 11.9081 20.2206 11.7956 20.2815 11.6316C20.3096 11.5613 20.3284 11.3409 20.3284 11.1347V10.7644H22.9299H25.5315V11.1113C25.5315 11.5613 25.5971 11.7394 25.7893 11.8238C25.9721 11.8988 26.2065 11.8378 26.2815 11.7019C26.3096 11.655 26.3284 11.4253 26.3284 11.1909V10.7644H27.8284C29.5206 10.7644 29.544 10.7691 29.8393 11.1253C30.1346 11.4816 30.1862 11.7159 30.2096 12.7659L30.2284 13.7175H20.1174H10.0112L10.0252 12.7191C10.0393 11.7628 10.044 11.7159 10.1612 11.4675C10.2971 11.1769 10.5268 10.9238 10.7424 10.83C10.8456 10.7831 11.2159 10.7691 12.2096 10.7644H13.5315V11.1956ZM30.2096 21.8128L30.1956 29.1159L30.0924 29.3738C29.9565 29.7019 29.7456 29.9597 29.5018 30.0909L29.3049 30.1941H20.094H10.8831L10.6674 30.0675C10.5409 29.9925 10.3862 29.8425 10.3018 29.7159C9.99712 29.2613 10.0159 29.7441 10.0159 21.7706V14.5144H20.1174H30.219L30.2096 21.8128Z" fill="#097B82"/>
<path d="M19.9667 16.224C19.6432 16.3787 19.0807 16.7584 18.6917 17.0959C17.9792 17.7099 17.3979 18.6381 17.1589 19.5568C17.0604 19.9271 17.0276 20.1709 17.0135 20.7381L16.9901 21.4552H16.8401C16.5964 21.4552 16.2307 21.324 16.0339 21.1693C15.6495 20.8646 15.4057 20.3818 15.2839 19.7021C15.2135 19.299 15.1432 19.1818 14.9464 19.1443C14.7073 19.0974 14.5432 19.2146 14.4073 19.524C13.601 21.3193 14.1823 23.6021 15.8745 25.3037C16.5729 26.0068 17.2292 26.4193 18.1245 26.7099C18.3589 26.7896 18.5182 26.8646 18.5089 26.8974C18.4807 27.0146 18.2182 27.3474 17.9745 27.5818C17.726 27.8162 17.2948 28.0646 17.0323 28.1302C16.7182 28.2052 16.601 28.5943 16.8354 28.8146C16.9292 28.9037 16.9854 28.9177 17.1776 28.899C17.8573 28.8334 18.7151 28.1584 19.2214 27.2959L19.3948 26.9959L19.7604 27.0193C20.4448 27.0662 21.4245 26.8412 22.1745 26.4662C23.201 25.9552 23.951 25.1677 24.5229 24.0099C25.0479 22.9412 25.3385 21.7459 25.3573 20.5506C25.3667 20.1521 25.3573 20.0865 25.2682 20.0021C25.076 19.8099 24.9026 19.8568 24.1667 20.3162C23.7964 20.5506 23.2714 20.8599 23.0042 21.0006L22.5214 21.2677L22.5495 20.9724C22.6198 20.3256 22.4089 19.4302 21.9729 18.5209C21.4807 17.499 20.6323 16.2568 20.3651 16.1631C20.1917 16.1021 20.2573 16.0927 19.9667 16.224ZM20.5292 17.6256C21.5932 19.2334 22.001 20.5881 21.6495 21.3756C21.6026 21.4834 21.4854 21.6662 21.3917 21.774C21.0917 22.1302 21.1995 22.5334 21.5979 22.5334C21.7995 22.5334 23.1776 21.8631 24.0354 21.3474L24.537 21.0521L24.5135 21.2396C24.462 21.6568 24.3026 22.3693 24.1667 22.7771C23.5432 24.6474 22.3339 25.7959 20.6323 26.1474C20.2432 26.2271 19.7182 26.2646 19.7182 26.2131C19.7182 26.199 19.7698 25.9927 19.8354 25.749C19.8964 25.5052 19.962 25.1959 19.9807 25.0646C19.9995 24.9334 20.0323 24.8162 20.051 24.8021C20.0745 24.7881 20.2995 24.7271 20.5526 24.6662C21.3589 24.4693 21.987 24.1599 22.4839 23.7146C22.7135 23.5084 22.7417 23.4662 22.7417 23.2927C22.7417 23.0771 22.6339 22.9318 22.4464 22.8943C22.2682 22.8615 22.1276 22.9271 21.851 23.1802C21.5135 23.4896 20.8385 23.8084 20.2948 23.9162L20.1401 23.949V22.9224C20.1354 21.5302 20.1026 21.4084 19.6948 21.4084C19.3432 21.4084 19.3432 21.3943 19.3245 22.9599C19.3151 23.7193 19.2917 24.3943 19.2682 24.4646L19.226 24.5912L18.8276 24.3052C18.2276 23.8787 17.726 23.4381 17.5151 23.1615C17.3182 22.9037 17.2151 22.8568 16.976 22.9177C16.7932 22.9646 16.7182 23.0724 16.7182 23.2881C16.7182 23.6302 17.337 24.249 18.4995 25.0646C18.7714 25.2521 19.0104 25.4256 19.0339 25.4443C19.0854 25.4865 18.926 26.0959 18.8604 26.0959C18.7339 26.0959 17.9135 25.7865 17.6089 25.6224C16.2495 24.8912 15.1807 23.4099 14.9135 21.8818C14.876 21.6662 14.8432 21.3709 14.8432 21.2256V20.9631L15.0307 21.249C15.5089 21.9849 16.1323 22.2943 17.0229 22.2381C17.7682 22.1959 17.937 22.0552 17.8432 21.5584C17.7682 21.1599 17.787 20.4943 17.8854 20.0209C18.0448 19.2427 18.4057 18.5677 18.987 17.9537C19.301 17.6209 20.0745 17.0302 20.1401 17.0724C20.1635 17.0865 20.337 17.3349 20.5292 17.6256Z" fill="#097B82"/>
</svg>
