<svg width="19" height="19" viewBox="0 0 19 19" fill="none" xmlns="http://www.w3.org/2000/svg">
<path d="M5.39384 10.9832C5.95653 10.9832 6.41269 10.5288 6.41269 9.96819C6.41269 9.40758 5.95653 8.95312 5.39384 8.95312C4.83115 8.95312 4.375 9.40758 4.375 9.96819C4.375 10.5288 4.83115 10.9832 5.39384 10.9832Z" fill="#4C5D70" stroke="#4C5D70" stroke-width="0.5"/>
<path d="M9.36064 10.9832C9.92333 10.9832 10.3795 10.5288 10.3795 9.96819C10.3795 9.40758 9.92333 8.95312 9.36064 8.95312C8.79795 8.95312 8.3418 9.40758 8.3418 9.96819C8.3418 10.5288 8.79795 10.9832 9.36064 10.9832Z" fill="#4C5D70" stroke="#4C5D70" stroke-width="0.5"/>
<path d="M9.36112 1.17969C4.59353 1.17969 0.714844 5.04397 0.714844 9.79387C0.714844 11.7746 1.40058 13.6941 2.65065 15.2259C2.29405 16.1211 1.69679 16.8951 0.913196 17.4745C0.793241 17.5632 0.732486 17.7108 0.755544 17.8579C0.778548 18.005 0.881505 18.1273 1.02286 18.1753C1.64934 18.3886 2.30209 18.4968 2.96305 18.4968C4.01257 18.4968 5.03817 18.2247 5.94285 17.7081C7.02379 18.1727 8.17272 18.4082 9.36117 18.4082C14.1288 18.4082 18.0075 14.5438 18.0075 9.79393C18.0075 5.04403 14.1287 1.17969 9.36112 1.17969ZM9.36112 17.6067C8.21787 17.6067 7.11532 17.3668 6.0842 16.8935C5.96129 16.837 5.81828 16.8459 5.70337 16.9171C4.88223 17.4262 3.9346 17.6953 2.963 17.6953C2.63842 17.6953 2.31604 17.6652 1.9988 17.6054C2.67022 16.9579 3.17926 16.1656 3.48888 15.2789C3.53597 15.144 3.50744 14.9942 3.41392 14.886C2.19206 13.471 1.51919 11.6626 1.51919 9.79387C1.51919 5.4859 5.0371 1.98105 9.36112 1.98105C13.6851 1.98105 17.203 5.4859 17.203 9.79387C17.2031 14.102 13.6852 17.6067 9.36112 17.6067Z" fill="#4C5D70" stroke="#4C5D70" stroke-width="0.5"/>
<path d="M13.3294 10.9832C13.8921 10.9832 14.3482 10.5288 14.3482 9.96819C14.3482 9.40758 13.8921 8.95312 13.3294 8.95312C12.7667 8.95312 12.3105 9.40758 12.3105 9.96819C12.3105 10.5288 12.7667 10.9832 13.3294 10.9832Z" fill="#4C5D70" stroke="#4C5D70" stroke-width="0.5"/>
</svg>
