<svg width="13" height="10" viewBox="0 0 13 10" fill="none" xmlns="http://www.w3.org/2000/svg">
<path d="M4.70767 9C4.63738 9 4.57295 8.98804 4.51438 8.96413C4.4558 8.94021 4.39723 8.89836 4.33866 8.83857L1.15815 5.59193C1.05272 5.48431 1 5.35277 1 5.19731C1 5.04185 1.05272 4.91031 1.15815 4.80269C1.26358 4.69507 1.38658 4.64126 1.52716 4.64126C1.66773 4.64126 1.79073 4.69507 1.89617 4.80269L4.70767 7.67265L11.0863 1.16143C11.1917 1.05381 11.3176 1 11.4641 1C11.6105 1 11.7364 1.05381 11.8419 1.16143C11.9473 1.26906 12 1.39761 12 1.54709C12 1.69656 11.9473 1.82511 11.8419 1.93274L5.07668 8.83857C5.0181 8.89836 4.95953 8.94021 4.90096 8.96413C4.84239 8.98804 4.77795 9 4.70767 9Z" fill="#3BA4E8" stroke="#3BA4E8"/>
</svg>
