<svg width="65" height="65" viewBox="0 0 65 65" fill="none" xmlns="http://www.w3.org/2000/svg">
<rect width="65" height="65" rx="8" fill="#D3E8FB"/>
<path d="M29.6871 14.9775C28.5432 15.2603 27.5354 16.1708 27.1132 17.3158C26.9634 17.702 26.9566 17.8538 26.9362 19.7161C26.9157 21.937 26.9157 21.9577 27.3788 22.1508C27.5694 22.2336 27.6648 22.2405 27.8486 22.1784C28.298 22.0267 28.3116 21.9508 28.3525 19.8678C28.3865 18.109 28.3934 17.9848 28.5432 17.6606C28.8428 16.9985 29.4488 16.5226 30.157 16.3846C30.443 16.3294 32.3155 16.3156 36.4556 16.3294L42.3456 16.3501L39.9283 17.1709C38.6005 17.6192 37.334 18.0814 37.1229 18.1986C36.6122 18.4607 36.1628 18.9573 35.8904 19.5436L35.6725 20.0057L35.6385 32.1452L35.6044 44.2847H32.8807C30.4157 44.2847 30.1229 44.2709 29.7961 44.1605C29.3194 43.9881 28.7611 43.4639 28.55 42.9948C28.3934 42.6431 28.3865 42.5396 28.3525 40.767C28.3116 38.684 28.298 38.6081 27.8486 38.4563C27.6648 38.3943 27.5694 38.4012 27.3788 38.4839C26.9157 38.6771 26.9157 38.6977 26.9362 40.9187C26.9566 42.781 26.9634 42.9328 27.1132 43.319C27.4264 44.1605 28.0665 44.9123 28.836 45.3193C29.6326 45.74 29.8437 45.7676 32.9011 45.7676H35.6385V46.7677C35.6385 47.5954 35.6657 47.8437 35.7746 48.161C35.9721 48.7404 36.3398 49.2508 36.796 49.5888C37.368 50.0164 37.7834 50.1475 38.5324 50.1475L39.1452 50.1406L43.7756 48.568C46.3222 47.7058 48.5421 46.9195 48.7123 46.816C49.3524 46.4435 49.8971 45.6848 50.0674 44.933C50.1695 44.4847 50.1695 17.6882 50.0674 17.1985C49.8427 16.1432 48.9915 15.2465 47.9361 14.9637C47.4117 14.8189 30.2727 14.8327 29.6871 14.9775ZM48.2425 16.7984C48.4604 17.0192 48.5761 17.2054 48.6306 17.433C48.6919 17.6744 48.7123 21.1024 48.7123 31.0623C48.7123 42.581 48.6987 44.4088 48.6102 44.7054C48.508 45.0572 48.2084 45.4365 47.902 45.5883C47.8067 45.6365 45.7162 46.3539 43.2649 47.1885C38.2941 48.8645 38.3554 48.8507 37.7698 48.4852C37.5382 48.3403 37.3953 48.1817 37.2591 47.9127L37.0684 47.5471V34.042C37.0684 24.1373 37.0888 20.4817 37.1433 20.3092C37.2591 19.9644 37.5178 19.6402 37.8038 19.4953C38.1919 19.3022 46.8738 16.3915 47.1462 16.3708C47.582 16.3294 47.9088 16.4605 48.2425 16.7984Z" fill="#238BEB" stroke="#238BEB"/>
<path d="M23.9326 24.1857C23.6031 24.2991 23.3946 24.7084 23.4954 25.0359C23.5223 25.1114 24.5783 26.1505 25.8361 27.3344L28.1296 29.4945H21.8274C14.9199 29.4945 15.1688 29.4819 14.9603 29.866C14.8257 30.1053 14.8257 30.2691 14.9603 30.5084C15.1688 30.8925 14.9199 30.8799 21.8274 30.8799H28.1296L25.8361 33.0337C24.5783 34.2239 23.5223 35.263 23.4954 35.3385C23.3071 35.9305 23.9999 36.4406 24.5514 36.1194C24.9482 35.8864 30.5778 30.5525 30.6249 30.3572C30.6518 30.2628 30.6518 30.1116 30.6249 30.0109C30.598 29.8975 29.6295 28.9466 27.7462 27.1707C26.1858 25.7034 24.7868 24.425 24.6456 24.3243C24.3967 24.1542 24.1613 24.1038 23.9326 24.1857Z" fill="#238BEB" stroke="#238BEB"/>
</svg>
