<svg width="14" height="14" viewBox="0 0 14 14" fill="none" xmlns="http://www.w3.org/2000/svg">
<path d="M6.37373 0.0286121C5.02295 0.159863 3.77607 0.657518 2.68232 1.49971C2.14912 1.90986 1.45732 2.68096 1.05811 3.30986C0.88584 3.58057 0.549512 4.26963 0.429199 4.59775C0.295215 4.96416 0.150293 5.52744 0.0791992 5.96221C-0.00556641 6.49541 -0.00556641 7.50713 0.0791992 8.04033C0.202246 8.79502 0.396387 9.40205 0.727246 10.0774C1.08818 10.813 1.46279 11.3353 2.06436 11.9396C2.66865 12.5411 3.19092 12.9157 3.92647 13.2767C4.60186 13.6075 5.20889 13.8017 5.96357 13.9247C6.49678 14.0095 7.5085 14.0095 8.0417 13.9247C8.79639 13.8017 9.40342 13.6075 10.0788 13.2767C10.8144 12.9157 11.3366 12.5411 11.9409 11.9396C12.5425 11.3353 12.9171 10.813 13.278 10.0774C13.5187 9.58799 13.639 9.26807 13.7702 8.77588C13.9425 8.11963 13.9835 7.76143 13.9835 7.00127C13.9835 6.24111 13.9425 5.88291 13.7702 5.22666C13.639 4.73447 13.5187 4.41455 13.278 3.9251C12.9171 3.18955 12.5425 2.66728 11.9409 2.06299C11.3366 1.46142 10.8144 1.08682 10.0788 0.725878C9.40615 0.395019 8.78272 0.198144 8.05537 0.0832996C7.65342 0.0204096 6.75654 -0.0096693 6.37373 0.0286121ZM10.664 3.99893C10.8007 4.04268 11.0112 4.24775 11.0687 4.39814C11.1343 4.57314 11.1288 4.8001 11.0522 4.95869C10.9647 5.13643 6.46397 9.60439 6.26162 9.7165C6.06475 9.82041 5.83506 9.82041 5.63818 9.71377C5.52334 9.65361 3.45068 7.79697 3.09795 7.43877C2.9585 7.29932 2.89014 7.12978 2.89287 6.93291C2.89834 6.52002 3.20186 6.24111 3.61201 6.26846C3.71045 6.27666 3.83076 6.30127 3.87725 6.32861C3.95107 6.36416 5.33193 7.6083 5.78037 8.0376L5.90889 8.16338L7.9542 6.1208C9.07803 4.99971 10.0351 4.06182 10.0843 4.03721C10.273 3.9415 10.4425 3.93057 10.664 3.99893Z" fill="#2EB42B"/>
</svg>
