<svg width="24" height="24" viewBox="0 0 24 24" fill="none" xmlns="http://www.w3.org/2000/svg">
<path d="M12 22C17.5 22 22 17.5 22 12C22 6.5 17.5 2 12 2C6.5 2 2 6.5 2 12C2 17.5 6.5 22 12 22Z" stroke="#34C75A" stroke-width="1.5" stroke-linecap="round" stroke-linejoin="round"/>
<path d="M16.5755 9.20257C16.5107 9.13838 16.4336 9.08744 16.3486 9.05267C16.2636 9.0179 16.1725 9 16.0804 9C15.9884 9 15.8972 9.0179 15.8122 9.05267C15.7273 9.08744 15.6501 9.13838 15.5853 9.20257L10.3903 14.3114L8.2077 12.161C8.14039 12.0972 8.06094 12.047 7.97388 12.0133C7.88681 11.9796 7.79384 11.963 7.70028 11.9646C7.60671 11.9662 7.51438 11.9859 7.42855 12.0225C7.34273 12.0592 7.26509 12.112 7.20008 12.1781C7.13506 12.2442 7.08394 12.3223 7.04963 12.4078C7.01531 12.4933 6.99849 12.5846 7.00011 12.6765C7.00173 12.7684 7.02176 12.859 7.05906 12.9433C7.09636 13.0276 7.1502 13.1039 7.21751 13.1677L9.89521 15.7974C9.96003 15.8616 10.0372 15.9126 10.1221 15.9473C10.2071 15.9821 10.2983 16 10.3903 16C10.4824 16 10.5735 15.9821 10.6585 15.9473C10.7435 15.9126 10.8206 15.8616 10.8854 15.7974L16.5755 10.2093C16.6463 10.1451 16.7028 10.0673 16.7414 9.98067C16.7801 9.89404 16.8 9.80049 16.8 9.70592C16.8 9.61134 16.7801 9.51779 16.7414 9.43116C16.7028 9.34453 16.6463 9.2667 16.5755 9.20257Z" fill="#34C75A"/>
</svg>
