<svg width="20" height="20" viewBox="0 0 20 20" fill="none" xmlns="http://www.w3.org/2000/svg">
<path d="M18.3364 19.1667C18.4461 19.1673 18.5548 19.1463 18.6563 19.1048C18.7579 19.0633 18.8502 19.0022 18.9281 18.925C19.04 18.8125 19.1175 18.6705 19.1515 18.5154C19.1854 18.3604 19.1744 18.199 19.1198 18.05L17.8864 14.6667C19.024 12.7456 19.4214 10.4754 19.004 8.28214C18.5866 6.08888 17.3831 4.12334 15.6194 2.75444C13.8557 1.38553 11.653 0.707374 9.42473 0.84724C7.19648 0.987106 5.09588 1.93538 3.51717 3.51409C1.93846 5.0928 0.990189 7.1934 0.850323 9.42164C0.710457 11.6499 1.38861 13.8526 2.75752 15.6163C4.12642 17.38 6.09196 18.5835 8.28522 19.0009C10.4785 19.4183 12.7487 19.021 14.6698 17.8833L18.0531 19.1167C18.1439 19.1496 18.2398 19.1666 18.3364 19.1667ZM14.5698 16.1333C14.4072 16.1321 14.2479 16.1785 14.1114 16.2667C12.8931 17.073 11.464 17.502 10.0031 17.5C8.51973 17.5 7.06968 17.0601 5.83631 16.236C4.60294 15.4119 3.64165 14.2406 3.07399 12.8701C2.50633 11.4997 2.35781 9.99169 2.6472 8.53683C2.93659 7.08197 3.65089 5.7456 4.69979 4.6967C5.74868 3.64781 7.08505 2.93351 8.53991 2.64412C9.99477 2.35473 11.5028 2.50325 12.8732 3.07091C14.2437 3.63857 15.415 4.59986 16.2391 5.83323C17.0632 7.0666 17.5031 8.51665 17.5031 10C17.5051 11.461 17.0761 12.8901 16.2698 14.1083C16.1978 14.218 16.1528 14.343 16.1383 14.4734C16.1239 14.6037 16.1403 14.7356 16.1864 14.8583L16.9448 16.9417L14.8614 16.1833C14.7677 16.1505 14.6691 16.1336 14.5698 16.1333Z" fill="url(#paint0_linear_1_3)"/>
<defs>
<linearGradient id="paint0_linear_1_3" x1="1.05309" y1="1.05001" x2="20.8448" y2="20.8417" gradientUnits="userSpaceOnUse">
<stop stop-color="#0277BD"/>
<stop offset="1" stop-color="#0277BD"/>
</linearGradient>
</defs>
</svg>
