<svg width="20" height="20" viewBox="0 0 20 20" fill="none" xmlns="http://www.w3.org/2000/svg">
<path d="M10.0001 19C8.22003 19 6.47998 18.4722 4.99994 17.4832C3.51989 16.4943 2.36634 15.0887 1.68515 13.4442C1.00396 11.7996 0.825731 9.99002 1.173 8.24419C1.52027 6.49836 2.37743 4.89472 3.63611 3.63604C4.89478 2.37737 6.49843 1.5202 8.24425 1.17294C9.99008 0.82567 11.7997 1.0039 13.4442 1.68509C15.0888 2.36628 16.4944 3.51983 17.4833 4.99987C18.4722 6.47991 19.0001 8.21997 19.0001 10C19.0021 11.3878 18.6816 12.7572 18.0641 14L19.0001 19L14.0001 18.064C12.7572 18.6815 11.3879 19.0019 10.0001 19V19Z" stroke="#4C5D70" stroke-width="1.5" stroke-linecap="round" stroke-linejoin="round"/>
</svg>
