<svg width="20" height="24" viewBox="0 0 20 24" fill="none" xmlns="http://www.w3.org/2000/svg">
<path d="M6.06251 0.0754337C5.33594 0.272308 4.80157 0.886372 4.68907 1.65512C4.64219 1.96918 4.64688 2.02075 4.73594 2.18481C4.85782 2.41918 5.07344 2.54575 5.34063 2.54106C5.70157 2.53637 5.93594 2.29731 5.99219 1.86606C6.03907 1.54731 6.21251 1.37856 6.54532 1.33637C6.67657 1.32231 9.28751 1.31293 12.3438 1.32231C18.4281 1.33637 17.9922 1.31762 18.1938 1.60356C18.2688 1.702 18.2734 2.35356 18.2875 9.802C18.2969 16.2239 18.2875 17.9301 18.2406 18.0754C18.1703 18.2864 17.9313 18.4692 17.725 18.4692C17.5469 18.4692 17.2375 18.6286 17.1672 18.7551C16.9938 19.0832 17.0313 19.3926 17.2656 19.6176C17.3828 19.7301 17.4531 19.7582 17.7016 19.7723C18.4422 19.8192 19.1734 19.327 19.4781 18.577L19.5859 18.3051V9.9145C19.5859 1.89887 19.5813 1.5145 19.5016 1.27543C19.3328 0.792622 18.8828 0.32856 18.3906 0.126997L18.1328 0.0238724L12.2266 0.0144958C7.13594 0.00512123 6.28282 0.0144958 6.06251 0.0754337Z" fill="#4C5D70"/>
<path d="M1.67969 4.30338C1.17344 4.47682 0.732813 4.90807 0.521875 5.42369L0.414062 5.69557V14.0862C0.414062 22.1018 0.41875 22.4862 0.498438 22.7253C0.667188 23.2081 1.11719 23.6721 1.60938 23.8737L1.86719 23.9768L7.74531 23.9909C14.1484 24.0049 13.9281 24.0096 14.3875 23.7424C14.8422 23.4753 15.2031 22.9643 15.2969 22.4487C15.3297 22.2753 15.3391 19.4346 15.3344 13.9409L15.3203 5.69557L15.2125 5.42369C14.9969 4.894 14.5563 4.4815 14.0125 4.29869C13.8016 4.22369 13.2531 4.219 7.84844 4.22369C2.37813 4.22369 1.89531 4.23307 1.67969 4.30338ZM13.6984 5.59713C13.7688 5.63463 13.8719 5.72838 13.9188 5.79869C14.0031 5.92525 14.0078 6.15494 14.0078 14.0862C14.0078 21.8018 14.0031 22.2518 13.9234 22.3737C13.8813 22.444 13.7875 22.5378 13.7172 22.5799C13.5953 22.6596 13.2578 22.6643 7.89063 22.6643C1.72656 22.6643 1.98906 22.6737 1.81094 22.4112C1.73125 22.294 1.72656 21.9003 1.7125 14.1987C1.70312 7.78619 1.7125 6.06588 1.75938 5.92525C1.79688 5.81276 1.88125 5.70494 1.97969 5.63932L2.13906 5.53151H7.85313C12.7516 5.53151 13.5859 5.54088 13.6984 5.59713Z" fill="#4C5D70"/>
</svg>
