<svg width="28" height="28" viewBox="0 0 28 28" fill="none" xmlns="http://www.w3.org/2000/svg">
<path d="M14.3871 8.59259C14.3871 8.37809 14.2132 8.20423 13.9987 8.20423C13.7843 8.20423 13.6104 8.37809 13.6104 8.59259C13.6104 9.00844 13.8467 9.68066 15.3112 9.79248V10.7344C15.3112 10.9762 15.5069 11.1719 15.7487 11.1719C15.9905 11.1719 16.1862 10.9762 16.1862 10.7344V9.78312C17.2721 9.65528 17.8871 9.03757 17.8871 8.04016C17.8871 7.30477 17.5758 6.44359 16.1862 6.29519V4.59052C16.513 4.64022 16.667 4.7408 16.7344 4.80844C16.8125 4.88666 16.819 4.96012 16.8194 4.97552C16.8057 5.18272 16.9583 5.36559 17.1667 5.38738C17.3842 5.40703 17.5709 5.25451 17.5931 5.04132C17.5974 5.00072 17.6256 4.63628 17.3248 4.3026C17.0804 4.03161 16.6954 3.86978 16.1862 3.81133V2.85938C16.1862 2.61752 15.9905 2.42188 15.7487 2.42188C15.5069 2.42188 15.3112 2.61752 15.3112 2.85938V3.80494C13.8185 3.94315 13.6104 4.79838 13.6104 5.55359C13.6104 6.43611 14.1843 6.92865 15.3112 7.02661V9.01329C14.8235 8.96871 14.3871 8.84354 14.3871 8.59259ZM17.1104 8.04016C17.1104 8.27891 17.1096 8.86459 16.1862 9.00332V7.07464C16.84 7.15598 17.1104 7.44547 17.1104 8.04016ZM14.3871 5.55359C14.3871 5.12457 14.3878 4.68296 15.3112 4.58194V6.25083C14.3878 6.16005 14.3871 5.77352 14.3871 5.55359Z" fill="#345DC7"/>
<path d="M26.6809 17.0939C26.2955 16.5316 25.5973 15.9373 24.892 16.119C24.1229 16.3163 23.4334 17.0896 22.6349 17.9847C21.6889 19.0452 20.6174 20.247 19.2733 20.6371C16.6577 21.3959 13.3649 20.8439 12.3399 20.6379C12.2305 20.4632 12.2536 19.8979 12.354 19.7894C12.577 19.7082 13.103 19.7689 13.6575 19.8334C14.6116 19.9437 15.919 20.0949 17.4062 19.8082C17.7407 19.7441 18.0936 19.4241 18.0825 18.7179C18.0671 17.7805 17.3605 16.3518 15.8365 16.1104C15.1106 15.9955 13.1829 15.6895 10.6061 15.5413C9.57649 15.4777 7.87991 16.7786 7.31124 17.2332H1.31141C1.06576 17.2332 0.866211 17.4327 0.866211 17.6784V23.321C0.866211 23.5667 1.06576 23.7662 1.31141 23.7662H5.75947C6.4247 24.2836 9.52994 26.6416 11.5098 27.1385C12.8073 27.464 14.4488 27.8054 16.0924 27.8054C17.3019 27.8054 18.5128 27.6204 19.5886 27.1086C22.1555 25.8867 24.9518 21.8817 26.454 19.73C26.6317 19.4762 26.7881 19.2515 26.921 19.0661C27.3392 18.4812 27.0714 17.6639 26.6809 17.0939ZM1.75661 18.1236H5.20792V22.8758H1.75661V18.1236ZM26.1972 18.5483C26.0626 18.7362 25.9041 18.9635 25.7247 19.2207C24.3729 21.1562 21.5603 25.1843 19.2062 26.3053C16.9273 27.388 13.846 26.8069 11.7264 26.2754C9.73329 25.7751 6.22515 23.0006 6.19015 22.9728C6.18254 22.9667 6.17287 22.9644 6.16495 22.9589V18.1236H7.46887C7.57186 18.1236 7.67183 18.0877 7.75128 18.0223C8.57929 17.3422 9.99732 16.4171 10.5549 16.43C13.0872 16.5757 14.9833 16.8764 15.6972 16.9897C16.5051 17.1174 16.8811 17.7177 17.0332 18.0642C17.2178 18.4846 17.2092 18.8247 17.1699 18.9469C15.8442 19.1913 14.6906 19.0567 13.7596 18.9494C13.0111 18.8631 12.4715 18.8003 12.0502 18.9529C11.532 19.1413 11.344 19.8244 11.3876 20.4183C11.4316 21.0122 11.7029 21.4168 12.1135 21.5006C13.1299 21.7077 16.6684 22.3195 19.5211 21.4916C21.1113 21.0305 22.3242 19.6702 23.2988 18.5773C23.9712 17.8232 24.6066 17.111 25.1129 16.9811C25.2624 16.9439 25.632 17.1371 25.9464 17.5968C26.2318 18.0134 26.2976 18.4077 26.1972 18.5483Z" fill="#345DC7"/>
<path d="M15.749 13.3203C19.3734 13.3203 22.3115 10.3822 22.3115 6.75781C22.3115 3.13347 19.3734 0.195312 15.749 0.195312C12.1246 0.195312 9.18652 3.13348 9.18652 6.75781C9.18652 10.3822 12.1246 13.3203 15.749 13.3203ZM15.749 1.07031C18.8851 1.07031 21.4365 3.62172 21.4365 6.75781C21.4365 9.89394 18.8851 12.4453 15.749 12.4453C12.6129 12.4453 10.0615 9.89394 10.0615 6.75781C10.0615 3.62172 12.6129 1.07031 15.749 1.07031Z" fill="#345DC7"/>
</svg>
