<svg width="28" height="22" viewBox="0 0 28 22" fill="none" xmlns="http://www.w3.org/2000/svg">
<path d="M23.939 7.68709C24.7353 6.90719 25.199 5.84182 25.199 4.7C25.199 2.3842 23.315 0.5 20.999 0.5C20.2338 0.5 19.481 0.710328 18.8211 1.1084C18.6005 1.24173 18.5294 1.52834 18.6625 1.74917C18.7956 1.97 19.0827 2.04038 19.3033 1.90777C19.8178 1.59741 20.4039 1.43335 20.999 1.43335C22.8 1.43335 24.2657 2.89876 24.2657 4.7C24.2657 5.80923 23.7102 6.83166 22.7777 7.4364C21.9948 7.95002 21.0022 8.09812 20.0958 7.83994C19.8506 7.76928 19.5899 7.9124 19.5188 8.1603C19.4481 8.4082 19.5917 8.66637 19.8396 8.73725C20.217 8.84526 20.6071 8.89995 20.999 8.89995C21.7328 8.89995 22.4421 8.69979 23.0718 8.3383C25.4675 9.20636 27.0657 11.4682 27.0657 14.0333V16.3666H22.8103C22.4798 13.2497 20.5188 10.5221 17.6585 9.22692C18.5687 8.30019 19.1323 7.03188 19.1323 5.63335C19.1324 2.80278 16.8295 0.5 13.999 0.5C11.1685 0.5 8.86567 2.80278 8.86567 5.63335C8.86567 7.03231 9.42961 8.30101 10.3403 9.22785C9.37771 9.66519 8.48494 10.277 7.72773 11.0299C6.27616 12.4856 5.39285 14.354 5.18318 16.3668H0.932375V14.0334C0.932375 12.4174 1.56358 10.8937 2.70791 9.74454C3.33786 9.11859 4.1048 8.64105 4.93058 8.34093C5.56041 8.70094 6.26758 8.9 6.99902 8.9C7.39097 8.9 7.78105 8.84531 8.1584 8.7373C8.4063 8.66643 8.54985 8.40825 8.47925 8.16035C8.40816 7.91245 8.14746 7.76955 7.9023 7.83999C6.99629 8.09861 6.0042 7.95073 5.21807 7.4353C4.28795 6.83166 3.73237 5.80928 3.73237 4.7C3.73237 2.89876 5.198 1.43335 6.99902 1.43335C7.59419 1.43335 8.18027 1.59741 8.69477 1.90777C8.91626 2.04038 9.202 1.96929 9.33555 1.74917C9.4686 1.5284 9.39751 1.24173 9.17695 1.1084C8.51704 0.710328 7.76421 0.5 6.99902 0.5C4.68301 0.5 2.79902 2.3842 2.79902 4.7C2.79902 5.84095 3.26195 6.90549 4.05596 7.68468C3.31587 8.02872 2.63234 8.50368 2.048 9.08413C0.726805 10.4112 -0.000976562 12.1687 -0.000976562 14.0334V16.8334C-0.000976562 17.0911 0.207766 17.3 0.465672 17.3H5.13232V21.0334C5.13232 21.2911 5.34106 21.5 5.59897 21.5H22.399C22.6569 21.5 22.8656 21.291 22.8656 21.0334V17.3H27.5323C27.7902 17.3 27.9989 17.091 27.9989 16.8334V14.0334C27.999 11.2741 26.3955 8.8195 23.939 7.68709ZM9.79902 5.63335C9.79902 3.31755 11.683 1.43335 13.999 1.43335C16.315 1.43335 18.199 3.31755 18.199 5.63335C18.199 7.94915 16.315 9.83335 13.999 9.83335C11.683 9.83335 9.79902 7.94909 9.79902 5.63335ZM21.9324 20.5666H6.06567V17.3C6.06567 15.184 6.89052 13.1914 8.38716 11.6902C9.17559 10.906 10.1314 10.2977 11.1562 9.90417C11.9708 10.4481 12.9481 10.7666 13.999 10.7666C15.0516 10.7666 16.0307 10.4472 16.8461 9.9016C19.8964 11.0736 21.9324 14.0144 21.9324 17.3V20.5666Z" fill="#3BA4E8" stroke="#3BA4E8" stroke-width="0.2"/>
</svg>
