<svg width="28" height="28" viewBox="0 0 28 28" fill="none" xmlns="http://www.w3.org/2000/svg">
<g clip-path="url(#clip0_14965_37944)">
<path d="M-0.000976562 1.67969V18.4797H9.51902L8.39902 17.3597H1.11902V2.79969H26.879V17.3597H16.239L17.359 18.4797H27.999V1.67969H-0.000976562ZM1.67902 3.35969V5.03969H2.79902V3.35969H1.67902ZM5.03902 3.35969V5.03969H6.15902V3.35969H5.03902ZM8.39902 3.35969V5.03969H9.51902V3.35969H8.39902ZM11.759 3.35969V5.03969H12.879V3.35969H11.759ZM15.119 3.35969V5.03969H16.239V3.35969H15.119ZM18.479 3.35969V5.03969H19.599V3.35969H18.479ZM21.839 3.35969V5.03969H22.959V3.35969H21.839ZM25.199 3.35969V5.03969H26.319V3.35969H25.199ZM6.64902 9.29219C6.51295 9.30934 6.38789 9.37583 6.29758 9.47905C6.20726 9.58227 6.15796 9.71504 6.15902 9.85219V12.2672C6.15902 13.2951 6.55338 14.2915 7.33152 15.0147L7.34902 15.0322L11.339 19.0047L10.0965 20.2472C9.35215 20.2226 8.6155 20.4507 8.06652 20.9997L6.94652 22.1197C5.84428 23.2219 5.84428 24.9899 6.94652 26.0922C8.04876 27.1944 9.81678 27.1944 10.919 26.0922L12.039 24.9722C12.588 24.4232 12.8161 23.6866 12.7915 22.9422L14.034 21.6997L15.2065 22.8722C15.1768 23.6224 15.4057 24.3664 15.959 24.9197L17.079 26.0397C18.1813 27.1419 19.9493 27.1419 21.0515 26.0397C22.1538 24.9374 22.1538 23.1694 21.0515 22.0672L19.9315 20.9472C19.3871 20.4028 18.6572 20.1754 17.919 20.1947L7.12152 9.46719C7.06191 9.40313 6.98812 9.35394 6.90606 9.32355C6.82401 9.29316 6.73598 9.28242 6.64902 9.29219ZM7.27902 11.2172L17.2365 21.1222C17.2997 21.1857 17.3771 21.2332 17.4624 21.2606C17.5476 21.288 17.6382 21.2945 17.7265 21.2797C18.2144 21.1984 18.772 21.3627 19.144 21.7347L20.264 22.8547C20.9538 23.5444 20.9538 24.5624 20.264 25.2522C19.5743 25.9419 18.5563 25.9419 17.8665 25.2522L16.7465 24.1322C16.3745 23.7602 16.2102 23.2026 16.2915 22.7147C16.3064 22.6264 16.2998 22.5358 16.2724 22.4505C16.245 22.3653 16.1975 22.2878 16.134 22.2247L8.11902 14.2272C8.11332 14.2212 8.10748 14.2154 8.10152 14.2097C7.54791 13.7022 7.27902 13.0232 7.27902 12.2672V11.2172ZM1.67902 15.1197V16.7997H2.79902V15.1197H1.67902ZM5.03902 15.1197V16.7997H6.15902V15.1197H5.03902ZM15.119 15.1197V16.2397L15.679 16.7997H16.239V15.1197H15.119ZM18.479 15.1197V16.7997H19.599V15.1197H18.479ZM21.839 15.1197V16.7997H22.959V15.1197H21.839ZM25.199 15.1197V16.7997H26.319V15.1197H25.199ZM13.999 18.4272C13.6588 18.4272 13.3865 18.6995 13.3865 19.0397C13.3865 19.3799 13.6588 19.6522 13.999 19.6522C14.3392 19.6522 14.6115 19.3799 14.6115 19.0397C14.6115 18.6995 14.3392 18.4272 13.999 18.4272ZM12.1265 19.8097L13.229 20.9122L11.864 22.2772C11.8005 22.3403 11.7531 22.4178 11.7257 22.503C11.6982 22.5883 11.6917 22.6789 11.7065 22.7672C11.7878 23.2551 11.6235 23.8127 11.2515 24.1847L10.1315 25.3047C9.44176 25.9944 8.42378 25.9944 7.73402 25.3047C7.04426 24.6149 7.04426 23.5969 7.73402 22.9072L8.85402 21.7872C9.22603 21.4152 9.78365 21.2509 10.2715 21.3322C10.3598 21.347 10.4504 21.3405 10.5357 21.3131C10.6209 21.2857 10.6984 21.2382 10.7615 21.1747L12.1265 19.8097ZM9.83402 22.3647C9.62402 22.3647 9.40702 22.4592 9.23902 22.6272L8.67902 23.1872C8.34302 23.5232 8.34302 24.0237 8.67902 24.3597C9.01502 24.6957 9.51552 24.6957 9.85152 24.3597L10.4115 23.7997C10.6915 23.5197 10.6915 22.9632 10.4115 22.6272C10.2435 22.4592 10.044 22.3647 9.83402 22.3647ZM18.199 22.4172C17.982 22.4172 17.7545 22.4872 17.5865 22.6272C17.2505 22.9632 17.2505 23.4637 17.5865 23.7997L18.1465 24.3597C18.4825 24.6957 18.983 24.6957 19.319 24.3597C19.655 24.0237 19.655 23.5232 19.319 23.1872L18.759 22.6272C18.619 22.4872 18.416 22.4172 18.199 22.4172Z" fill="#D575DD"/>
</g>
<defs>
<clipPath id="clip0_14965_37944">
<rect width="28" height="28" fill="white" transform="translate(-0.000976562)"/>
</clipPath>
</defs>
</svg>
