<svg width="29" height="27" viewBox="0 0 29 27" fill="none" xmlns="http://www.w3.org/2000/svg">
<path d="M8.00033 1.07688C7.32937 1.25689 6.77296 1.72057 6.46202 2.34789L6.28201 2.71884L6.25473 5.20086L6.22746 7.68834L6.02017 7.96655C5.37102 8.85571 3.75634 9.5485 1.75435 9.81034C1.29613 9.87035 1.07793 9.91944 1.03429 9.97945C0.925194 10.1267 0.892464 10.7431 0.925194 11.9378C1.06157 16.5909 2.70898 20.2676 5.63286 22.4714L6.24382 22.9296L6.26019 23.6279C6.28201 24.3097 6.28746 24.337 6.4893 24.7407C6.83842 25.4553 7.4712 25.919 8.25126 26.039C8.50765 26.0772 11.0551 26.0935 16.2647 26.0826L23.9017 26.0608L24.3653 25.9408C25.009 25.7717 25.8382 25.3516 26.3455 24.9371C27.4092 24.0806 28.0802 22.7878 28.2111 21.3695C28.2875 20.4803 27.9984 19.2911 27.4965 18.4456C27.191 17.9274 26.4655 17.1582 25.9909 16.8473L25.6745 16.64V11.0977V5.55544L23.3944 3.27525L21.1196 1.00051L14.6827 1.00596C9.78412 1.00596 8.1858 1.02233 8.00033 1.07688ZM20.7105 3.34616C20.7378 5.23359 20.7323 5.20086 21.1033 5.57726C21.2014 5.6809 21.3924 5.81728 21.5287 5.87728C21.7579 5.98638 21.8833 5.99184 23.4271 6.0082L25.0745 6.02457V11.1795C25.0745 14.0107 25.0636 16.3291 25.0472 16.3291C25.0309 16.3291 24.8072 16.2636 24.5454 16.1818C24.1199 16.0563 23.9726 16.04 23.2198 16.0345C22.2161 16.029 21.7524 16.1272 20.9505 16.52L20.4596 16.7655H15.9155C11.7043 16.7655 11.3715 16.76 11.4043 16.6727C11.5788 16.2254 11.8734 14.9108 12.0043 14.038C12.228 12.4997 12.2552 10.1922 12.0479 9.99036C11.9879 9.93035 11.7861 9.8758 11.4643 9.83762C10.2423 9.67942 9.27681 9.41213 8.46401 9.01391C7.83123 8.70843 7.38937 8.37568 7.07298 7.97746L6.84933 7.6938L6.86569 5.28814L6.88206 2.88248L7.02934 2.59883C7.29118 2.10787 7.70031 1.78057 8.20217 1.66056C8.31672 1.63329 11.1206 1.61692 14.5463 1.61692L20.6832 1.62783L20.7105 3.34616ZM23.2416 5.3536C21.7415 5.36997 21.6815 5.35906 21.436 4.98266C21.316 4.8081 21.3105 4.76446 21.3105 3.43344V2.06423L22.947 3.70074L24.5835 5.33724L23.2416 5.3536ZM6.80023 8.6157C7.62394 9.46122 8.95496 10.0395 10.8097 10.3558L11.5188 10.4759L11.5134 11.7523C11.5079 13.5743 11.3006 14.9544 10.8042 16.4982C10.1878 18.4074 9.3259 19.8639 8.08216 21.1022C7.52575 21.6532 6.67477 22.3296 6.53839 22.3296C6.42384 22.3296 5.56195 21.6422 5.03827 21.1349C3.28176 19.433 2.19076 17.0982 1.72708 14.038C1.5907 13.1543 1.48706 11.4578 1.53615 10.8959L1.57434 10.4486L1.90709 10.4158C3.69634 10.2195 5.64377 9.40667 6.34747 8.56115C6.42929 8.4575 6.51112 8.37022 6.52748 8.37022C6.54385 8.36477 6.66931 8.47932 6.80023 8.6157ZM24.2781 16.7655C25.4782 17.071 26.5146 17.9001 27.0874 18.9966C27.4147 19.6348 27.5347 20.0821 27.5674 20.8076C27.6329 22.1714 27.1856 23.2897 26.1982 24.2225C25.2818 25.0953 24.2235 25.488 22.9525 25.4226C22.2543 25.3898 21.8724 25.2916 21.2287 24.9807C20.0941 24.4243 19.2376 23.3824 18.9049 22.1332C18.8176 21.8114 18.7849 21.5331 18.7849 21.0477C18.7794 20.2458 18.8722 19.8366 19.2376 19.0784C19.7504 18.0201 20.705 17.1964 21.8615 16.8255C22.6143 16.58 23.4816 16.5582 24.2781 16.7655ZM19.434 17.6492C19.0958 18.0529 18.7358 18.6147 18.5503 19.0511L18.3703 19.4657L14.2681 19.4821C12.0152 19.4875 10.1823 19.4766 10.1932 19.4548C10.2042 19.4275 10.3842 19.0675 10.5969 18.6474C10.8042 18.2274 11.017 17.7801 11.066 17.6492L11.1533 17.4201H15.3919H19.6359L19.434 17.6492ZM18.1808 20.953C18.1753 21.3676 18.159 21.7568 18.1808 21.9095V22.1008H13.7809C9.33509 22.1172 12.8244 22.1008 11.294 22.1008C11.1795 22.259 11.1577 22.7733 11.294 22.866C12.0592 22.866 9.75139 22.8751 13.8426 22.8751H18.463L18.714 23.3388C19.1395 24.1461 19.7068 24.7734 20.405 25.2316L20.7323 25.4389L14.4045 25.428L8.08216 25.4117L7.80395 25.2644C7.47665 25.0898 7.15481 24.7516 7.00207 24.4079C6.90933 24.2116 6.88206 24.0206 6.86569 23.5297L6.84933 22.9024L7.13299 22.7114C7.91305 22.1932 8.86768 21.2877 9.44591 20.5131L9.71866 20.153L13.9517 20.1476H18.1794L18.1808 20.953Z" fill="#FF8F0B" stroke="#FF8F0B" stroke-width="0.5"/>
<path d="M9.09152 3.45177C8.98788 3.55542 8.98242 3.63179 8.98242 4.67915C8.98242 5.72651 8.98788 5.80288 9.09152 5.90652C9.20062 6.01562 9.27154 6.01562 13.6737 6.01562C18.0759 6.01562 18.1468 6.01562 18.2559 5.90652C18.3596 5.80288 18.365 5.72651 18.365 4.67915C18.365 3.63179 18.3596 3.55542 18.2559 3.45177C18.1468 3.34267 18.0759 3.34267 13.6737 3.34267C9.27154 3.34267 9.20062 3.34267 9.09152 3.45177ZM17.765 4.67915V5.36102H13.6737H9.58247V4.67915V3.99727H13.6737H17.765V4.67915Z" fill="#FF8F0B" stroke="#FF8F0B" stroke-width="0.5"/>
<path d="M18.4833 8.66901L18.3633 8.75084V11.6311C18.3633 14.244 18.3742 14.5222 18.456 14.5877C18.5215 14.6477 18.8051 14.6641 19.7379 14.6641C20.8617 14.6641 20.9435 14.6586 21.0144 14.5604C21.0799 14.4677 21.0908 13.9767 21.0908 11.6038V8.75084L20.9708 8.66901C20.8671 8.5981 20.6544 8.58173 19.727 8.58173C18.7997 8.58173 18.5869 8.5981 18.4833 8.66901ZM20.4798 11.6202L20.4907 14.0367H19.727H18.9633V11.6474C18.9633 10.3328 18.9797 9.23633 19.0015 9.21451C19.0233 9.19815 19.3615 9.18724 19.7489 9.19269L20.4635 9.20906L20.4798 11.6202Z" fill="#FF8F0B" stroke="#FF8F0B" stroke-width="0.5"/>
<path d="M14.6953 9.71688C14.6134 9.80962 14.6025 10.0605 14.6025 12.1716V14.5282L14.7335 14.61C14.848 14.6864 15.0389 14.6973 16.0208 14.6809C17.09 14.6646 17.1828 14.6591 17.2537 14.5609C17.3191 14.4736 17.33 14.0482 17.33 12.128C17.33 9.94054 17.3246 9.79325 17.2319 9.71143C17.1446 9.6296 16.97 9.61869 15.9554 9.61869C14.8917 9.61869 14.7771 9.6296 14.6953 9.71688ZM16.7191 12.1389L16.73 14.0372H15.9663H15.2026V12.1662C15.2026 11.1352 15.219 10.2733 15.2408 10.2515C15.2626 10.2351 15.6008 10.2242 15.9881 10.2297L16.7027 10.246L16.7191 12.1389Z" fill="#FF8F0B" stroke="#FF8F0B" stroke-width="0.5"/>
<path d="M7.07369 14.8305L5.35536 16.5488L4.89168 16.0906C4.6353 15.8396 4.37346 15.6051 4.308 15.5724C4.16071 15.496 3.99706 15.5614 3.90978 15.7305C3.8225 15.8997 3.94251 16.0742 4.60802 16.7234C5.02806 17.1379 5.2408 17.3125 5.33354 17.3125C5.42627 17.3125 5.92814 16.8434 7.33007 15.4469C8.36107 14.4159 9.2175 13.5322 9.23387 13.4776C9.28296 13.3249 9.11386 13.1121 8.9393 13.1121C8.81929 13.1121 8.49199 13.4122 7.07369 14.8305Z" fill="#FF8F0B" stroke="#FF8F0B" stroke-width="0.5"/>
<path d="M23.0367 17.5963C22.9658 17.6509 22.9331 17.7709 22.9112 18.0327C22.8785 18.3818 22.8731 18.3982 22.7039 18.4528C22.4366 18.54 22.0384 18.9219 21.8802 19.2328C21.8039 19.3801 21.7275 19.631 21.7111 19.7892C21.6457 20.4166 21.9402 20.7711 22.8785 21.213C23.5986 21.5512 23.7459 21.6548 23.915 21.9331C24.1823 22.3695 23.975 22.844 23.4458 23.0022C22.8076 23.1932 22.2948 22.8659 22.2948 22.2658C22.2948 22.0367 22.1639 21.8894 21.9566 21.8894C21.733 21.8894 21.6784 22.0094 21.7057 22.4295C21.7493 23.0404 22.0712 23.455 22.6385 23.635L22.8403 23.7005V24.0387C22.8403 24.4151 22.8949 24.5078 23.1185 24.5078C23.3585 24.5078 23.4404 24.3823 23.4404 24.0005V23.6623L23.7186 23.5641C24.2914 23.3568 24.6459 22.8768 24.6514 22.2985C24.6568 21.6658 24.2532 21.1639 23.4513 20.7984C22.6767 20.4493 22.4857 20.3293 22.3821 20.1384C22.2948 19.9802 22.2894 19.9202 22.3439 19.7238C22.4148 19.4565 22.6221 19.1946 22.8458 19.0801C23.0585 18.9655 23.4295 18.9764 23.6586 19.1019C23.8768 19.2165 24.095 19.5874 24.095 19.8492C24.095 20.1711 24.4059 20.3184 24.6132 20.0893C24.6896 20.002 24.7059 19.9202 24.6787 19.6529C24.6296 19.1019 24.2532 18.6219 23.7349 18.4528C23.5549 18.3928 23.5495 18.3818 23.5495 18.0764C23.5495 17.6018 23.3204 17.389 23.0367 17.5963Z" fill="#FF8F0B" stroke="#FF8F0B" stroke-width="0.5"/>
</svg>
