<svg width="30" height="30" viewBox="0 0 30 30" fill="none" xmlns="http://www.w3.org/2000/svg">
<circle cx="15" cy="15" r="15" fill="#F57676"/>
<path d="M14.3874 7.53264C13.7838 7.61174 13.1422 7.85785 12.5826 8.22701C12.2779 8.42917 11.7183 8.98291 11.5044 9.29347C11.3023 9.58939 11.0796 10.0377 10.9741 10.3658C10.8833 10.6412 10.7954 11.0485 10.7954 11.192C10.7954 11.2477 10.7544 11.3239 10.6723 11.4176C10.4233 11.7047 10.4292 11.6608 10.4204 13.0642C10.4116 14.45 10.4174 14.4998 10.605 14.7459C10.6753 14.8397 10.7661 14.9071 10.8979 14.9745C11.2612 15.1532 11.6744 15.077 11.9293 14.784L12.0406 14.6551L12.2017 14.9832C12.565 15.7245 13.11 16.2782 13.778 16.5947L13.9567 16.6796L14.0798 16.5419C14.238 16.3632 14.4079 16.2489 14.6276 16.1757C14.7946 16.12 14.8737 16.1142 15.7117 16.1142C16.7694 16.1142 16.8397 16.1024 17.0711 15.8886C17.1502 15.8124 17.2704 15.6659 17.3407 15.5604C17.4725 15.3612 17.745 14.8309 17.7772 14.7078C17.7948 14.6434 17.8007 14.6463 17.9296 14.784L18.0644 14.9276L18.0468 15.2381C18.038 15.4081 18.0116 15.619 17.9852 15.7069C17.8475 16.1757 17.452 16.58 16.9803 16.7324C16.8045 16.791 16.7049 16.7997 15.7908 16.8144C14.8064 16.832 14.7946 16.832 14.698 16.8994C14.4108 17.1045 14.4196 17.5527 14.7126 17.7549L14.821 17.8281H15.8758C17.0653 17.8281 17.1239 17.8193 17.5868 17.6055C18.2519 17.2978 18.7412 16.747 18.9638 16.0556C19.0546 15.7743 19.0869 15.5516 19.0869 15.2206V14.9217L19.1953 14.8075C19.2539 14.7459 19.3301 14.6346 19.3623 14.5613C19.4209 14.4354 19.4238 14.3856 19.4238 13.1257C19.4238 11.6491 19.4326 11.7077 19.1806 11.4176C19.0986 11.3239 19.0576 11.2477 19.0576 11.192C19.0576 10.8932 18.8642 10.2427 18.6474 9.80913C18.4306 9.37551 18.2314 9.10596 17.8563 8.73094C17.285 8.15669 16.7137 7.82855 15.9519 7.63225C15.4597 7.50627 14.8884 7.46818 14.3874 7.53264ZM15.5564 8.61082C16.7899 8.86572 17.7479 9.83843 17.9911 11.0807L18.0409 11.3326L17.912 11.4821L17.7831 11.6315L17.6747 11.3942C17.2909 10.565 16.5672 9.8853 15.7908 9.62455C15.3777 9.48685 14.8034 9.45169 14.3757 9.53958C13.4879 9.72123 12.6793 10.3922 12.2134 11.3268L12.067 11.6256L11.941 11.4821L11.815 11.3356L11.8501 11.1451C12.0699 9.88237 13.0309 8.88037 14.2819 8.61375C14.6247 8.53757 15.2078 8.53757 15.5564 8.61082Z" fill="white"/>
<path d="M11.8334 16.713C10.5414 17.0968 9.52473 17.8937 8.88016 19.0364C8.48463 19.7337 8.29126 20.4486 8.2561 21.3275C8.23267 21.9047 8.27075 22.057 8.47584 22.2621C8.7366 22.5229 8.12426 22.4995 14.9274 22.4995C21.7305 22.4995 21.1181 22.5229 21.3789 22.2621C21.584 22.057 21.6221 21.9047 21.5986 21.3275C21.5723 20.6683 21.4697 20.1673 21.2529 19.6165C20.8896 18.6965 20.2333 17.8937 19.3837 17.3312L19.1669 17.1876L19.0643 17.3166C18.6746 17.8029 18.1063 18.1926 17.5056 18.3801C17.0779 18.5149 16.7878 18.5442 15.7917 18.5442C14.8336 18.5442 14.6871 18.5295 14.4352 18.4006C14.2564 18.3098 14.0367 18.093 13.94 17.9142C13.8521 17.7472 13.8492 17.7472 13.565 17.633C13.0816 17.4455 12.5483 17.0997 12.2319 16.7745C12.1616 16.7013 12.0942 16.6398 12.0854 16.6427C12.0766 16.6427 11.9653 16.6749 11.8334 16.713Z" fill="white"/>
</svg>
