<svg width="35" height="35" viewBox="0 0 35 35" fill="none" xmlns="http://www.w3.org/2000/svg">
<rect width="35" height="35" rx="4" fill="#FFA799"/>
<g clip-path="url(#clip0_6920_99412)">
<g clip-path="url(#clip1_6920_99412)">
<path d="M21.6106 28.0152C21.4253 28.0155 21.2431 27.968 21.0815 27.8773C20.9199 27.7865 20.7845 27.6557 20.6882 27.4974C20.5919 27.3391 20.5381 27.1586 20.5319 26.9734C20.5256 26.7882 20.5673 26.6046 20.6527 26.4402C20.7382 26.2758 20.8646 26.1362 21.0197 26.0348C21.1749 25.9335 21.3535 25.8739 21.5384 25.8617C21.7233 25.8495 21.9082 25.8852 22.0753 25.9653C22.2423 26.0455 22.3859 26.1673 22.4922 26.3191C22.6053 26.4805 22.672 26.6698 22.685 26.8665C22.698 27.0632 22.6568 27.2597 22.5659 27.4346C22.475 27.6095 22.3379 27.7561 22.1694 27.8585C22.001 27.9609 21.8077 28.0151 21.6106 28.0152ZM21.6076 25.9066C21.3769 25.907 21.153 25.9848 20.9717 26.1275C20.7904 26.2703 20.6623 26.4697 20.6077 26.6939C20.5532 26.9181 20.5755 27.1541 20.671 27.3642C20.7664 27.5742 20.9296 27.7462 21.1344 27.8525C21.3392 27.9588 21.5737 27.9934 21.8004 27.9507C22.0272 27.9079 22.233 27.7904 22.3851 27.6168C22.5371 27.4432 22.6265 27.2237 22.639 26.9933C22.6514 26.7629 22.5863 26.535 22.4539 26.346C22.3586 26.21 22.2319 26.0991 22.0846 26.0226C21.9373 25.9461 21.7736 25.9063 21.6076 25.9066Z" fill="#BC1B38"/>
<path d="M21.6108 28.3453C21.9254 28.3448 22.2308 28.2387 22.478 28.044C22.7252 27.8494 22.9 27.5774 22.9743 27.2717C23.0487 26.9659 23.0183 26.6441 22.8881 26.3577C22.7579 26.0712 22.5354 25.8367 22.2562 25.6917C21.9769 25.5467 21.6571 25.4996 21.3479 25.5579C21.0387 25.6162 20.758 25.7765 20.5507 26.0132C20.3434 26.2499 20.2215 26.5493 20.2045 26.8635C20.1875 27.1777 20.2763 27.4885 20.4569 27.7462C20.5863 27.932 20.759 28.0836 20.96 28.188C21.161 28.2924 21.3843 28.3463 21.6108 28.3453ZM21.2055 26.3636C21.3195 26.2838 21.4545 26.2396 21.5935 26.2366C21.7325 26.2336 21.8693 26.2718 21.9866 26.3465C22.1039 26.4213 22.1964 26.5291 22.2524 26.6564C22.3084 26.7837 22.3254 26.9247 22.3013 27.0617C22.2771 27.1986 22.2129 27.3253 22.1167 27.4258C22.0206 27.5262 21.8968 27.5959 21.761 27.626C21.6252 27.6561 21.4836 27.6453 21.354 27.5949C21.2244 27.5445 21.1126 27.4568 21.0328 27.3428C20.9794 27.2674 20.9414 27.1821 20.9212 27.0918C20.9009 27.0016 20.8988 26.9082 20.9148 26.8172C20.9309 26.7261 20.9649 26.6391 21.0148 26.5613C21.0647 26.4834 21.1295 26.4162 21.2055 26.3636ZM25.3241 6H8.96094C8.4949 6.00052 8.04809 6.18589 7.71855 6.51543C7.38901 6.84497 7.20365 7.29177 7.20312 7.75781V15.3853C7.20365 15.8514 7.38901 16.2982 7.71855 16.6277C8.04809 16.9572 8.4949 17.1426 8.96094 17.1431H13.0777C13.1383 17.2723 13.2098 17.3961 13.2916 17.513L16.1748 21.6306L15.0266 23.3328L15.0263 23.3332L15.026 23.3336L14.7598 23.7283C14.7148 23.7968 14.6533 23.8528 14.581 23.8914C14.5087 23.9299 14.4278 23.9497 14.3459 23.949C13.695 23.932 13.056 24.1254 12.5238 24.5004C11.9916 24.8755 11.5946 25.4123 11.3917 26.0309C11.1888 26.6496 11.1909 27.3172 11.3976 27.9346C11.6044 28.552 12.0048 29.0863 12.5393 29.458C13.0437 29.811 13.6444 30.0004 14.26 30.0007C14.449 30.0006 14.6377 29.983 14.8235 29.9482C15.2696 29.8647 15.6913 29.6819 16.0573 29.4133C16.4232 29.1447 16.7241 28.7972 16.9375 28.3966C17.1509 27.9959 17.2715 27.5524 17.2902 27.0989C17.309 26.6453 17.2254 26.1933 17.0458 25.7765C17.0127 25.7006 16.9993 25.6177 17.0069 25.5353C17.0144 25.4529 17.0425 25.3737 17.0887 25.3051L17.3577 24.9064L17.358 24.906L17.3584 24.9053L17.9026 24.0985L18.7553 25.3163C18.8029 25.383 18.8331 25.4605 18.8432 25.5418C18.8533 25.6231 18.8429 25.7056 18.8131 25.782C18.6219 26.2422 18.5476 26.7427 18.5969 27.2386C18.6461 27.7346 18.8173 28.2107 19.0953 28.6244C19.3732 29.0381 19.7492 29.3766 20.1898 29.6096C20.6303 29.8427 21.1217 29.9631 21.6201 29.9601C22.0219 29.9587 22.4194 29.8773 22.7894 29.7205C23.1593 29.5638 23.4943 29.3349 23.7748 29.0472C24.0553 28.7595 24.2756 28.4188 24.4229 28.0449C24.5702 27.6711 24.6414 27.2717 24.6326 26.87C24.6237 26.4683 24.5349 26.0724 24.3712 25.7054C24.2076 25.3385 23.9724 25.0078 23.6796 24.7328C23.3867 24.4577 23.0419 24.2438 22.6654 24.1036C22.2888 23.9633 21.8881 23.8995 21.4867 23.9159C21.4041 23.9198 21.3218 23.9026 21.2476 23.8661C21.1734 23.8295 21.1097 23.7748 21.0624 23.7069L19.5875 21.6005L22.4183 17.4037C22.4745 17.32 22.5256 17.233 22.5712 17.1431H25.3241C25.7901 17.1426 26.2369 16.9572 26.5665 16.6277C26.896 16.2981 27.0814 15.8513 27.0819 15.3853V7.75781C27.0814 7.29177 26.896 6.84497 26.5665 6.51543C26.2369 6.18589 25.7901 6.00052 25.3241 6V6ZM7.90625 7.75781C7.90657 7.47819 8.01779 7.21011 8.21552 7.01239C8.41324 6.81467 8.68132 6.70345 8.96094 6.70312H9.99022C9.91351 7.22854 9.66925 7.71516 9.29378 8.09062C8.9183 8.46608 8.43167 8.71031 7.90625 8.787V7.75781ZM8.96094 16.44C8.68132 16.4397 8.41324 16.3285 8.21552 16.1307C8.01779 15.933 7.90657 15.6649 7.90625 15.3853V14.3559C8.4317 14.4326 8.91836 14.6769 9.29384 15.0524C9.66931 15.4279 9.91355 15.9145 9.99022 16.44H8.96094ZM13.8909 17.1431H15.6076L17.4383 19.7573L16.5959 21.0062L13.8909 17.1431ZM16.466 17.1431H19.2016L17.8594 19.133L16.466 17.1431ZM16.1926 28.2727C15.853 28.7757 15.3301 29.1259 14.7357 29.2483C14.1412 29.3706 13.5225 29.2555 13.0119 28.9275C12.5012 28.5994 12.1393 28.0846 12.0034 27.4931C11.8676 26.9016 11.9686 26.2804 12.285 25.7625C12.4936 25.4234 12.7854 25.1433 13.1328 24.9488C13.4801 24.7543 13.8714 24.6518 14.2695 24.6511C14.289 24.6511 14.3086 24.6514 14.3281 24.6519C14.5282 24.656 14.7261 24.6096 14.9035 24.5169C15.0808 24.4242 15.2319 24.2882 15.3427 24.1215L15.4127 24.0179L16.5785 24.8042L16.5058 24.9119C16.3935 25.078 16.3249 25.2698 16.3064 25.4695C16.2879 25.6692 16.3201 25.8703 16.3999 26.0542C16.5547 26.4116 16.6169 26.8023 16.5807 27.19C16.5444 27.5778 16.4109 27.9502 16.1926 28.2727ZM20.4863 24.1102C20.601 24.2747 20.7554 24.4076 20.9352 24.4965C21.1151 24.5854 21.3144 24.6273 21.5148 24.6185C22.0168 24.5981 22.5118 24.741 22.9256 25.0258C23.3395 25.3105 23.6499 25.7218 23.8102 26.1979C23.9706 26.6739 23.9723 27.1892 23.8151 27.6663C23.6579 28.1434 23.3503 28.5567 22.9383 28.8442C22.5264 29.1317 22.0323 29.2779 21.5302 29.2609C21.0282 29.2439 20.5452 29.0646 20.1536 28.7498C19.7621 28.4351 19.4831 28.0019 19.3586 27.5152C19.2341 27.0285 19.2707 26.5146 19.4629 26.0505C19.5387 25.8652 19.5664 25.6637 19.5434 25.4649C19.5204 25.266 19.4474 25.0762 19.3313 24.9131L19.2596 24.8107L20.4119 24.0038L20.4863 24.1102ZM20.0086 23.4278L18.8563 24.2347L18.3238 23.4741L19.1664 22.2248L20.0086 23.4278ZM21.8353 17.0105L16.9716 24.2212L15.8059 23.4349L16.89 21.8276C16.8937 21.8222 16.8976 21.8168 16.901 21.8112L20.1506 16.9935C20.1532 16.9897 20.1558 16.986 20.1583 16.9822L21.6328 14.7961C21.9161 15.0856 22.0909 15.4639 22.1278 15.8673C22.1647 16.2706 22.0614 16.6744 21.8353 17.0105V17.0105ZM26.3788 15.3853C26.3784 15.6649 26.2672 15.933 26.0695 16.1307C25.8718 16.3285 25.6037 16.4397 25.3241 16.44H24.2948C24.3715 15.9145 24.6157 15.4279 24.9912 15.0524C25.3666 14.6769 25.8533 14.4326 26.3788 14.3559V15.3853ZM26.3788 13.6473C25.6659 13.7281 25.0016 14.0482 24.4943 14.5555C23.987 15.0628 23.6668 15.7272 23.5861 16.44H22.8049C22.8837 15.9735 22.8265 15.4941 22.6402 15.0592C22.4539 14.6243 22.1464 14.2522 21.7543 13.9874C21.716 13.9615 21.673 13.9435 21.6277 13.9343C21.5825 13.9251 21.5359 13.9249 21.4906 13.9337C21.4452 13.9425 21.4021 13.9602 21.3636 13.9857C21.3251 14.0111 21.292 14.044 21.2662 14.0822L19.6759 16.44H10.6988C10.6181 15.7272 10.298 15.0628 9.79069 14.5555C9.28343 14.0482 8.61908 13.7281 7.90625 13.6473V9.49561C8.61905 9.41488 9.28338 9.09472 9.79064 8.58748C10.2979 8.08024 10.6181 7.41592 10.6988 6.70312H23.5862C23.6669 7.41593 23.9871 8.08026 24.4943 8.58751C25.0016 9.09476 25.6659 9.41492 26.3788 9.49566V13.6473ZM26.3788 8.787C25.8533 8.71031 25.3667 8.46608 24.9912 8.09062C24.6158 7.71516 24.3715 7.22854 24.2948 6.70312H25.3241C25.6037 6.70345 25.8718 6.81467 26.0695 7.01239C26.2672 7.21011 26.3784 7.47819 26.3788 7.75781V8.787ZM17.1425 7.66969C16.3708 7.66969 15.6164 7.89852 14.9748 8.32726C14.3331 8.75599 13.833 9.36536 13.5377 10.0783C13.2424 10.7913 13.1651 11.5758 13.3157 12.3327C13.4662 13.0895 13.8379 13.7848 14.3835 14.3304C14.9292 14.8761 15.6244 15.2477 16.3813 15.3983C17.1382 15.5488 17.9227 15.4716 18.6356 15.1762C19.3486 14.8809 19.958 14.3808 20.3867 13.7392C20.8154 13.0975 21.0443 12.3432 21.0443 11.5715C21.0431 10.537 20.6316 9.54526 19.9002 8.81379C19.1687 8.08232 18.177 7.67087 17.1425 7.66969ZM17.1425 14.7702C16.5099 14.7702 15.8914 14.5826 15.3654 14.2311C14.8394 13.8796 14.4294 13.3801 14.1873 12.7956C13.9452 12.2111 13.8819 11.568 14.0053 10.9475C14.1287 10.327 14.4334 9.75708 14.8807 9.30974C15.328 8.8624 15.898 8.55775 16.5184 8.43433C17.1389 8.3109 17.7821 8.37424 18.3665 8.61633C18.951 8.85842 19.4506 9.26839 19.8021 9.7944C20.1535 10.3204 20.3411 10.9388 20.3412 11.5715C20.3402 12.4195 20.0029 13.2326 19.4033 13.8322C18.8036 14.4319 17.9906 14.7692 17.1425 14.7702ZM18.4773 9.96258C18.4773 9.86934 18.4402 9.77992 18.3743 9.71399C18.3084 9.64805 18.2189 9.61102 18.1257 9.61102H16.1593C16.0661 9.61102 15.9766 9.64805 15.9107 9.71399C15.8448 9.77992 15.8077 9.86934 15.8077 9.96258C15.8077 10.0558 15.8448 10.1452 15.9107 10.2112C15.9766 10.2771 16.0661 10.3141 16.1593 10.3141H16.5168C16.645 10.3143 16.7709 10.3486 16.8814 10.4135C16.992 10.4784 17.0832 10.5717 17.1457 10.6836H16.1593C16.0661 10.6836 15.9766 10.7206 15.9107 10.7866C15.8448 10.8525 15.8077 10.9419 15.8077 11.0352C15.8077 11.1284 15.8448 11.2178 15.9107 11.2838C15.9766 11.3497 16.0661 11.3867 16.1593 11.3867H17.1457C17.0832 11.4987 16.992 11.5919 16.8814 11.6568C16.7709 11.7218 16.645 11.7561 16.5168 11.7562H16.1593C16.0905 11.7562 16.0231 11.7764 15.9657 11.8143C15.9082 11.8523 15.8632 11.9062 15.8361 11.9695C15.809 12.0328 15.8011 12.1027 15.8134 12.1704C15.8257 12.2381 15.8575 12.3008 15.9051 12.3506L17.3352 13.8479C17.3996 13.9153 17.4881 13.9544 17.5813 13.9566C17.6746 13.9587 17.7648 13.9237 17.8322 13.8593C17.8997 13.7949 17.9388 13.7064 17.9409 13.6131C17.943 13.5199 17.9081 13.4297 17.8437 13.3622L16.9244 12.3999C17.16 12.329 17.3733 12.1984 17.5437 12.0209C17.7141 11.8435 17.8357 11.625 17.897 11.3867H18.1257C18.2189 11.3867 18.3084 11.3497 18.3743 11.2838C18.4402 11.2178 18.4773 11.1284 18.4773 11.0352C18.4773 10.9419 18.4402 10.8525 18.3743 10.7866C18.3084 10.7206 18.2189 10.6836 18.1257 10.6836H17.897C17.8638 10.5538 17.8124 10.4294 17.7442 10.3141H18.1257C18.2189 10.3141 18.3084 10.2771 18.3743 10.2112C18.4402 10.1452 18.4773 10.0558 18.4773 9.96258ZM15.0533 25.808C14.8227 25.6526 14.5513 25.569 14.2733 25.5678C13.9952 25.5666 13.7231 25.6479 13.4913 25.8014C13.2594 25.9549 13.0783 26.1737 12.9708 26.4301C12.8633 26.6865 12.8342 26.969 12.8872 27.242C12.9403 27.5149 13.0731 27.766 13.2688 27.9634C13.4645 28.1609 13.7144 28.2959 13.9868 28.3514C14.2593 28.4069 14.5421 28.3803 14.7994 28.2751C15.0568 28.1699 15.2772 27.9907 15.4327 27.7602V27.7602C15.6412 27.451 15.7184 27.0716 15.6473 26.7055C15.5761 26.3394 15.3625 26.0166 15.0533 25.808ZM14.8498 27.367C14.7588 27.5018 14.6239 27.601 14.4681 27.6475C14.3122 27.694 14.145 27.6851 13.995 27.6222C13.845 27.5593 13.7215 27.4463 13.6454 27.3025C13.5694 27.1587 13.5455 26.993 13.578 26.8336C13.6104 26.6742 13.6971 26.531 13.8233 26.4284C13.9495 26.3257 14.1074 26.27 14.27 26.2707C14.4327 26.2715 14.5901 26.3286 14.7153 26.4323C14.8406 26.536 14.9261 26.68 14.9571 26.8397C14.9926 27.0227 14.954 27.2124 14.8498 27.367L14.8498 27.367ZM17.881 21.2641C17.8114 21.2641 17.7435 21.2848 17.6857 21.3234C17.6278 21.362 17.5828 21.4169 17.5562 21.4812C17.5296 21.5454 17.5226 21.6161 17.5362 21.6843C17.5497 21.7525 17.5832 21.8151 17.6324 21.8643C17.6815 21.9135 17.7442 21.9469 17.8124 21.9605C17.8806 21.9741 17.9513 21.9671 18.0155 21.9405C18.0797 21.9139 18.1347 21.8688 18.1733 21.811C18.2119 21.7532 18.2325 21.6852 18.2325 21.6157C18.2325 21.5225 18.1955 21.433 18.1296 21.3671C18.0636 21.3012 17.9742 21.2641 17.881 21.2641Z" fill="#BC1B38"/>
</g>
</g>
<defs>
<clipPath id="clip0_6920_99412">
<rect width="24" height="24" fill="white" transform="translate(6 6)"/>
</clipPath>
<clipPath id="clip1_6920_99412">
<rect width="24" height="24" fill="white" transform="translate(5.14062 6)"/>
</clipPath>
</defs>
</svg>
