<svg width="25" height="13" viewBox="0 0 25 13" fill="none" xmlns="http://www.w3.org/2000/svg">
<path d="M16.3968 0.0826259C16.2704 0.128592 16.1612 0.168813 16.1554 0.168813C16.1497 0.168813 15.1844 1.15709 14.0065 2.36371C12.6275 3.78867 11.8346 4.64479 11.7656 4.79418C11.2945 5.82268 12.3804 6.90864 13.4089 6.43748C13.5641 6.36853 14.1789 5.78246 15.3338 4.58733C17.9309 1.91554 17.9481 1.8983 18.0343 1.55355C18.1377 1.10538 18.0343 0.743393 17.6953 0.398645C17.3218 0.00793076 16.8909 -0.0954938 16.3968 0.0826259Z" fill="#FAB956"/>
<path d="M22.4615 0.115891C22.2604 0.202078 21.1055 1.32251 17.365 5.06877L12.5213 9.90674L10.2689 7.66013C7.81544 5.21816 7.85566 5.24689 7.2581 5.29286C6.67777 5.34457 6.20662 5.81573 6.15491 6.39605C6.10319 6.99936 6.03424 6.91317 9.0393 9.92972C10.8952 11.7971 11.8777 12.7394 12.0329 12.8141C12.2857 12.929 12.6706 12.952 12.9809 12.8658C13.1418 12.8199 14.3082 11.6879 18.5946 7.39582C22.404 3.58061 24.0358 1.91433 24.099 1.76494C24.145 1.64427 24.1852 1.3972 24.1852 1.21334C24.1852 0.339976 23.2659 -0.246095 22.4615 0.115891Z" fill="#FAB956"/>
<path d="M0.67742 5.44195C0.303943 5.63731 0.0626191 5.9878 0.0166527 6.40724C-0.0522969 6.98757 -0.046551 6.99332 2.96999 10.0099C4.84887 11.883 5.77969 12.7736 5.92334 12.8368C6.19913 12.946 6.6588 12.946 6.9346 12.831C7.50343 12.5955 7.80221 11.7681 7.54365 11.1533C7.4115 10.8315 2.18282 5.61432 1.80934 5.42471C1.41863 5.22935 1.07388 5.2351 0.67742 5.44195Z" fill="#FAB956"/>
</svg>
