<svg width="24" height="24" viewBox="0 0 24 24" fill="none" xmlns="http://www.w3.org/2000/svg">
<path d="M17.5781 5.11762C17.4141 5.18794 16.2234 6.35512 12.1781 10.4004L6.98437 15.5895L4.74843 13.3582C2.95781 11.5723 2.47031 11.1129 2.325 11.0661C2.05781 10.9817 1.68281 11.0286 1.45781 11.1739C1.03125 11.4551 0.885933 12.0551 1.13906 12.4817C1.20468 12.5942 2.42812 13.8457 3.85312 15.2661C6.07968 17.4879 6.47812 17.8629 6.67031 17.9333C6.91875 18.027 7.21406 18.0083 7.46718 17.8817C7.54687 17.8395 10.1297 15.2942 13.2047 12.2239C17.5687 7.85981 18.8156 6.5895 18.8859 6.42544C19.1062 5.93794 18.9281 5.38481 18.4734 5.15044C18.1687 4.99106 17.8781 4.98169 17.5781 5.11762Z" fill="#2EB42B"/>
<path d="M21.5859 9.10989C21.4031 9.20364 20.6156 9.96302 17.9296 12.6536L14.5124 16.0755L14.0624 15.6396C13.5515 15.1427 13.4015 15.049 13.0593 15.0161C12.8624 14.9974 12.7781 15.0161 12.5624 15.1286C12.0093 15.4099 11.8452 16.0427 12.1874 16.5536C12.4031 16.8818 13.8796 18.3161 14.0906 18.4052C14.339 18.5083 14.7093 18.499 14.9343 18.3818C15.164 18.2646 22.7859 10.6333 22.8984 10.413C22.9968 10.2161 23.0015 9.82708 22.9124 9.61146C22.6968 9.10052 22.0781 8.87083 21.5859 9.10989Z" fill="#2EB42B"/>
</svg>
