<svg width="20" height="20" viewBox="0 0 20 20" fill="none" xmlns="http://www.w3.org/2000/svg">
<path d="M10 0C4.486 0 0 4.48594 0 10C0 15.5139 4.486 20 10 20C15.514 20 20 15.5139 20 10C20 4.48594 15.514 0 10 0ZM10 18.1818C5.48855 18.1818 1.81818 14.5115 1.81818 10C1.81818 5.48855 5.48855 1.81818 10 1.81818C14.5115 1.81818 18.1818 5.48855 18.1818 10C18.1818 14.5115 14.5115 18.1818 10 18.1818Z" fill="#3BA4E8"/>
<path d="M12.8277 7.70075L10.9083 9.6199V4.5419C10.9083 4.03978 10.5013 3.63281 9.99923 3.63281C9.49717 3.63281 9.09014 4.03978 9.09014 4.5419V9.6199L7.17105 7.70075C6.81608 7.34578 6.24044 7.34578 5.88541 7.70075C5.53038 8.05584 5.53038 8.63136 5.88541 8.98639L9.35638 12.4574C9.5339 12.6349 9.76656 12.7237 9.99917 12.7237C10.2318 12.7237 10.4645 12.6349 10.642 12.4575L14.1132 8.98651C14.4682 8.63154 14.4683 8.0559 14.1133 7.70075C13.7582 7.34578 13.1826 7.34578 12.8277 7.70075Z" fill="#3BA4E8"/>
<path d="M11.8189 14.5469H8.18253C7.68047 14.5469 7.27344 14.9538 7.27344 15.456C7.27344 15.958 7.68047 16.3651 8.18253 16.3651H11.8189C12.321 16.3651 12.728 15.958 12.728 15.456C12.728 14.9538 12.321 14.5469 11.8189 14.5469Z" fill="#3BA4E8"/>
</svg>
