<svg width="24" height="24" viewBox="0 0 24 24" fill="none" xmlns="http://www.w3.org/2000/svg">
<path d="M17.4433 6.13495C17.8699 6.35995 18.0949 6.86151 17.9543 7.29745C17.9074 7.44745 17.1105 8.27245 13.6465 11.7318L9.39959 15.9881H12.7137C14.9683 15.9881 16.1074 16.0068 16.2715 16.0396C16.7918 16.1521 17.1012 16.6959 16.9652 17.2678C16.8949 17.5678 16.6137 17.8724 16.3371 17.9521C16.0652 18.0271 6.87303 18.0271 6.65272 17.9474C6.38553 17.8584 6.23084 17.7178 6.11366 17.4693L6.00115 17.2303V12.5428C6.00115 9.25214 6.01522 7.79901 6.05272 7.66776C6.13241 7.3912 6.43709 7.10995 6.73709 7.03963C7.30897 6.9037 7.85272 7.21307 7.96522 7.73338C7.99803 7.89745 8.01678 9.03651 8.01678 11.2912V14.6053L12.2449 10.3771C15.2262 7.39588 16.5293 6.12557 16.6512 6.07401C16.9137 5.9662 17.1574 5.98495 17.4433 6.13495Z" fill="#2EB42B"/>
</svg>
