<svg width="17" height="17" viewBox="0 0 17 17" fill="none" xmlns="http://www.w3.org/2000/svg">
<path d="M16.2922 11C15.9002 11 15.5845 11.3421 15.5845 11.7669V15.4662H1.41551V11.7669C1.41551 11.3421 1.0998 11 0.707755 11C0.315714 11 0 11.3421 0 11.7669V16.2331C0 16.6579 0.315714 17 0.707755 17H16.2922C16.6843 17 17 16.6579 17 16.2331V11.7669C17 11.3421 16.6843 11 16.2922 11Z" fill="#3BA4E8"/>
<path d="M8.45642 11.7817C8.87401 12.1705 9.38601 11.9559 9.54215 11.7817L13.8016 7.55165C14.0812 7.27345 14.063 6.84107 13.7616 6.58298C13.4602 6.32489 12.9918 6.34165 12.7158 6.61985L9.74187 9.5728V0.683772C9.74187 0.305016 9.41143 0 9.0011 0C8.59078 0 8.26034 0.305016 8.26034 0.683772V9.57616L5.28638 6.6232C5.00678 6.345 4.53835 6.33159 4.23696 6.58633C3.93557 6.84442 3.92105 7.27681 4.19702 7.55501L8.45642 11.7817Z" fill="#3BA4E8"/>
</svg>
