<svg width="24" height="24" viewBox="0 0 24 24" fill="none" xmlns="http://www.w3.org/2000/svg">
<path d="M11.9996 17C12.3258 17.0005 12.6489 16.9396 12.9504 16.8206C13.2518 16.7016 13.5256 16.527 13.7561 16.3068L17 13.2105L15.8296 12.0974L12.8224 14.9663L12.8008 2H11.1454L11.1669 14.9537L8.17043 12.0958L7 13.2105L10.2439 16.3045C10.4741 16.525 10.7477 16.6999 11.049 16.8193C11.3503 16.9387 11.6733 17.0001 11.9996 17Z" fill="#4C5D70"/>
<path d="M20.3333 16V19.75C20.3333 19.9489 20.2455 20.1397 20.0893 20.2803C19.933 20.421 19.721 20.5 19.5 20.5H4.5C4.27899 20.5 4.06702 20.421 3.91074 20.2803C3.75446 20.1397 3.66667 19.9489 3.66667 19.75V16H2V19.75C2 20.3467 2.26339 20.919 2.73223 21.341C3.20107 21.7629 3.83696 22 4.5 22H19.5C20.163 22 20.7989 21.7629 21.2678 21.341C21.7366 20.919 22 20.3467 22 19.75V16H20.3333Z" fill="#4C5D70"/>
</svg>
