<svg width="50" height="50" viewBox="0 0 50 50" fill="none" xmlns="http://www.w3.org/2000/svg">
<rect width="50" height="50" rx="8" fill="#34C75A"/>
<g clip-path="url(#clip0_1289_17125)">
<path d="M13.4124 12.0956C12.8754 12.2936 12.423 12.7098 12.1644 13.2428L12.0202 13.5474L12.0053 23.8011C11.9954 35.263 11.9606 34.3087 12.3583 34.9026C12.7611 35.5016 12.7511 35.4965 16.6443 36.8214L20.1099 37.999L20.5922 37.9787C21.0198 37.9635 21.1192 37.9381 21.4076 37.796C21.8103 37.5929 22.1832 37.2325 22.3573 36.8823C22.5711 36.4559 22.6357 36.1006 22.6357 35.3899V34.7402H24.6892C26.9217 34.7402 27.0658 34.7249 27.578 34.4457C27.7172 34.3696 27.9956 34.1462 28.1945 33.9483C28.5973 33.5371 28.8508 33.065 28.9453 32.5371C28.9801 32.3392 29 31.2224 29 29.3747C29 26.2884 29.005 26.329 28.7414 26.1412C28.5028 25.9686 27.9907 26.1158 27.931 26.3747C27.921 26.4407 27.9012 27.8062 27.8912 29.4102C27.8763 32.0752 27.8713 32.3493 27.7868 32.5676C27.6724 32.8874 27.3095 33.2884 26.9913 33.461L26.7377 33.598L24.6892 33.6133L22.6357 33.6285V24.9026C22.6357 19.2174 22.6158 16.0803 22.586 15.9027C22.4816 15.3392 22.1335 14.8113 21.6512 14.5017C21.4722 14.3798 20.8308 14.1362 19.6375 13.725L17.8873 13.121L22.3125 13.1311L26.7377 13.1413L26.9913 13.2783C27.3095 13.4509 27.6724 13.8519 27.7868 14.1717C27.8713 14.39 27.8763 14.6641 27.8912 17.3291C27.9012 18.9331 27.921 20.2986 27.931 20.3646C27.9907 20.6235 28.5028 20.7707 28.7414 20.5981C29.005 20.4103 29 20.4509 29 17.3646C29 15.5575 28.9801 14.3951 28.9453 14.2022C28.8558 13.6844 28.5575 13.1311 28.1697 12.7555C27.9807 12.5778 27.7172 12.3697 27.578 12.2936C27.0211 11.9839 27.3542 11.9991 20.1994 11.9991C14.0141 12.0042 13.6461 12.0093 13.4124 12.0956ZM17.5741 14.2326C19.7668 14.9788 20.9352 15.4001 21.0695 15.4915C21.1789 15.5677 21.3231 15.7352 21.3927 15.857L21.517 16.0854V26.06V36.0396L21.3927 36.2833C21.2286 36.6082 20.9253 36.8264 20.6071 36.862C20.3833 36.8823 20.0054 36.7655 17.0371 35.7554C15.098 35.1006 13.6312 34.5726 13.5268 34.5016C13.4174 34.4254 13.2881 34.2681 13.2135 34.1158L13.0892 33.8569V23.9179C13.0892 15.0448 13.0992 13.9535 13.1688 13.7859C13.3229 13.4052 13.7207 13.121 14.0936 13.1159C14.203 13.1159 15.62 13.5727 17.5741 14.2326Z" fill="white" stroke="white" stroke-width="0.5"/>
<path d="M32.7762 19.0506C32.6485 19.1209 32.5362 19.3459 32.5362 19.5475C32.5362 19.7162 32.6077 19.7865 34.3081 21.3521L36.0851 22.9834H31.2136H26.3472L26.1736 23.1428C26.0306 23.274 26 23.3396 26 23.499C26 23.6584 26.0306 23.724 26.1736 23.8553L26.3472 24.0146H31.2136H36.0851L34.3081 25.6459C32.6077 27.2115 32.5362 27.2818 32.5362 27.4506C32.5362 27.6568 32.6485 27.8818 32.7864 27.9521C32.8426 27.9756 32.9957 27.999 33.1336 27.999H33.3787L35.6868 25.8756L38 23.7568V23.499V23.2412L35.6868 21.1225L33.3787 18.999H33.1234C32.9804 18.999 32.8272 19.0225 32.7762 19.0506Z" fill="white" stroke="white" stroke-width="0.5"/>
</g>
<defs>
<clipPath id="clip0_1289_17125">
<rect width="28" height="28" fill="white" transform="translate(11 11)"/>
</clipPath>
</defs>
</svg>
