<svg width="40" height="40" viewBox="0 0 40 40" fill="none" xmlns="http://www.w3.org/2000/svg">
<rect width="40" height="40" rx="4" fill="#E3EBFF"/>
<g clip-path="url(#clip0_6910_92930)">
<path d="M15.6045 8.02409C14.022 8.10704 12.544 8.52455 11.2146 9.25451C10.4137 9.6969 9.66235 10.2665 8.98528 10.9494C8.20638 11.7292 7.62565 12.531 7.13024 13.507C6.55501 14.6352 6.22748 15.7356 6.07611 17.0324C6.02932 17.425 6.02932 18.708 6.07611 19.0923C6.32106 21.1218 7.0284 22.8499 8.24767 24.3872C8.56693 24.7937 9.34583 25.5734 9.75592 25.8997C10.9642 26.8619 12.2055 27.4729 13.7055 27.8434C13.9256 27.896 14.1183 27.9347 14.1348 27.9292C14.1678 27.9153 15.1752 26.4748 15.1587 26.461C15.1532 26.4554 15.0128 26.4305 14.8477 26.4057C13.5789 26.2204 12.4587 25.7974 11.4073 25.1061C10.9504 24.8075 10.6229 24.5393 10.199 24.1246C9.44767 23.3891 8.94675 22.6895 8.48987 21.7411C7.64767 19.9854 7.43299 17.9725 7.88436 16.0923C8.37702 14.049 9.64583 12.2186 11.3798 11.0628C12.5082 10.3052 13.733 9.86557 15.1779 9.68861C15.5275 9.64437 16.5238 9.64437 16.8844 9.68861C18.7889 9.91257 20.4403 10.6757 21.8 11.9559L22.0394 12.1799L22.8458 11.8895C23.2889 11.7292 23.655 11.5937 23.6633 11.5854C23.6853 11.5633 23.4156 11.2674 23.0192 10.8803C21.6789 9.56971 19.9945 8.66004 18.1367 8.24253C17.344 8.06557 16.3697 7.98262 15.6045 8.02409Z" fill="#345DC6"/>
<path d="M15.3558 15.5631V18.4193L13.6467 20.1364L11.9375 21.8534L12.4935 22.2627L13.0494 22.6719L14.9595 20.753L16.8696 18.8341V15.7733V12.7097H16.1127H15.3558V15.5631Z" fill="#345DC6"/>
<path d="M24.3563 13.3596C24.1141 13.3845 23.638 13.4896 23.3848 13.5725C22.3417 13.9154 21.4279 14.6232 20.8279 15.5523C19.6114 17.4297 19.8729 19.9292 21.4472 21.508C21.5875 21.6463 21.7774 21.8205 21.8738 21.8951C21.9674 21.9698 22.0444 22.0389 22.0444 22.05C22.0444 22.061 21.9866 22.0914 21.9151 22.1191C21.4334 22.3016 20.8609 22.6002 20.371 22.9264C18.86 23.9329 17.7316 25.4122 17.1756 27.1237C16.8398 28.155 16.749 28.9043 16.7655 30.5384L16.7738 31.4647L16.8591 31.6168C16.9609 31.7993 17.1398 31.932 17.3463 31.9735C17.4481 31.9956 19.6802 32.0039 24.9756 31.9983C31.9774 31.99 32.4674 31.9873 32.5609 31.943C32.7096 31.8739 32.8251 31.7661 32.9105 31.6195L32.9848 31.4924V30.2481C32.9848 28.9956 32.9738 28.791 32.8719 28.2159C32.6463 26.9467 32.0985 25.7218 31.2949 24.6822C30.4582 23.6039 29.1921 22.6444 27.9563 22.1578C27.8215 22.1053 27.7169 22.0555 27.7224 22.0472C27.7252 22.0389 27.8407 21.9366 27.9784 21.8232C28.8178 21.1237 29.3738 20.1864 29.6187 19.0638C29.6738 18.8094 29.6793 18.696 29.6793 18.1375C29.6793 17.4269 29.649 17.2195 29.4618 16.6417C28.9004 14.9163 27.3701 13.6389 25.5591 13.3817C25.3059 13.3458 24.6123 13.332 24.3563 13.3596ZM25.6774 14.8417C26.3765 15.0241 26.894 15.3283 27.3729 15.8343C28.3169 16.8352 28.5536 18.3366 27.9618 19.5808C27.249 21.085 25.5949 21.8564 24.0041 21.4278C21.9646 20.8804 20.8995 18.6131 21.794 16.7246C21.9839 16.3264 22.1793 16.0472 22.482 15.7458C22.9885 15.2426 23.6132 14.9135 24.3041 14.7919C24.6646 14.7283 25.3417 14.7532 25.6774 14.8417ZM25.8701 23.0315C28.7573 23.485 30.9894 25.6693 31.4875 28.5283C31.5563 28.9237 31.6004 29.6205 31.5894 30.1513L31.5811 30.5799L24.882 30.5882L18.1857 30.5937L18.1995 29.7311C18.2105 29.0149 18.2242 28.8103 18.271 28.5476C18.6316 26.579 19.738 24.9587 21.4279 23.9246C22.2178 23.4435 23.2527 23.0923 24.1912 22.99C24.5352 22.9541 25.5288 22.979 25.8701 23.0315Z" fill="#345DC6"/>
</g>
<defs>
<clipPath id="clip0_6910_92930">
<rect width="27" height="24" fill="white" transform="translate(6 8)"/>
</clipPath>
</defs>
</svg>
