<svg width="35" height="35" viewBox="0 0 35 35" fill="none" xmlns="http://www.w3.org/2000/svg">
<rect width="35" height="35" rx="4" fill="#B2F1A0"/>
<g clip-path="url(#clip0_6920_99393)">
<path d="M17.8612 6.04001C17.7956 6.05876 17.6081 6.14782 17.444 6.2322L17.1393 6.39157L16.7831 6.26501C16.3565 6.11501 16.2909 6.11032 16.0893 6.2322C15.7753 6.42439 15.6628 7.00095 15.8221 7.61501C15.9065 7.93845 16.2674 8.71189 16.5815 9.24626C16.7549 9.54626 16.7831 9.62595 16.7315 9.65876C16.6284 9.72439 16.5956 9.71032 16.3846 9.51814C15.9299 9.10095 15.4378 8.95095 14.5331 8.95564C13.7784 8.96032 13.5346 8.90876 13.0565 8.66501C12.6346 8.44939 12.5549 8.4447 12.4003 8.59939C12.1518 8.84782 12.2971 9.08689 12.8596 9.34939C13.3893 9.60251 13.6893 9.65876 14.5424 9.66814C15.2503 9.67751 15.3253 9.68689 15.5409 9.7947C15.7612 9.90251 16.2206 10.2822 16.2206 10.3572C16.2206 10.3759 16.0471 10.4041 15.8362 10.4181C14.6971 10.4978 13.7456 10.8916 13.1596 11.5244C12.8268 11.8853 12.7237 12.1009 12.7987 12.2791C12.8596 12.4291 13.0706 12.5369 13.2159 12.49C13.2674 12.4759 13.4174 12.3259 13.544 12.1619C13.9096 11.7025 14.3596 11.4306 15.0721 11.2478C15.2784 11.1963 15.6206 11.14 15.8409 11.1259L16.244 11.1025L16.1221 11.2103C16.0565 11.2713 15.7612 11.5197 15.4706 11.7634C13.4174 13.4931 11.8987 15.7103 11.3221 17.8291C11.1253 18.5509 11.0596 19.0103 11.0315 19.8353L11.0034 20.6181L10.6706 20.5947C10.0799 20.5525 10.0331 20.5384 10.0331 20.4072C10.0331 19.9525 9.68619 19.465 9.28776 19.3572C9.15651 19.3244 8.74401 19.3103 8.09244 19.3197C7.10338 19.3338 7.10338 19.3338 6.87838 19.465C6.75651 19.5353 6.59713 19.6853 6.52682 19.7884L6.40026 19.9853L6.38619 24.3213C6.37682 27.3634 6.38619 28.7134 6.42369 28.84C6.48932 29.0697 6.72838 29.3369 6.96276 29.44C7.12682 29.515 7.28619 29.5291 8.20963 29.5291C9.22682 29.5291 9.27838 29.5244 9.47526 29.4213C9.73307 29.2853 9.96744 28.9478 10.0143 28.6572C10.0378 28.4884 10.0612 28.4463 10.1221 28.465C10.1643 28.4744 11.0268 28.7931 12.0393 29.1728C13.3659 29.665 13.9987 29.8806 14.2987 29.9322C14.6549 29.9931 15.194 29.9978 17.8237 29.9884C20.8706 29.9697 20.9409 29.9697 21.3065 29.8666C21.5128 29.8103 21.8503 29.6791 22.0565 29.5806C22.2628 29.4822 23.5706 28.6806 24.9628 27.7947C26.3549 26.9134 27.8315 25.9759 28.244 25.7181C29.0924 25.1838 29.3034 25.0103 29.4768 24.6775C29.5846 24.4759 29.6034 24.3869 29.6034 24.0213C29.6034 23.6556 29.5846 23.5666 29.4768 23.365C29.3315 23.0838 29.0643 22.8072 28.8065 22.6713C28.6565 22.5869 28.5393 22.5681 28.1971 22.5681C27.8268 22.5681 27.7284 22.5869 27.4003 22.7275C27.194 22.8119 26.9971 22.8916 26.969 22.9056C26.9315 22.9197 26.9549 22.8259 27.0253 22.6713C27.194 22.2869 27.3628 21.6728 27.4518 21.1056C27.5549 20.44 27.5221 19.1744 27.3815 18.49C27.0487 16.8728 26.2565 15.265 25.0706 13.8119C24.6065 13.2447 24.419 13.0759 24.2503 13.0759C24.0581 13.0759 23.9081 13.2166 23.9081 13.3994C23.9081 13.5025 23.9924 13.6338 24.2409 13.9244C25.5112 15.3963 26.3362 16.9572 26.6737 18.5416C26.8143 19.2025 26.8518 20.4353 26.7487 21.0681C26.6221 21.8369 26.2096 22.9103 25.8862 23.3275C25.8393 23.3884 24.9721 23.7916 23.6643 24.3681C22.4831 24.8884 21.5081 25.3103 21.494 25.3103C21.4799 25.3103 21.4706 25.1884 21.4659 25.0384C21.4565 23.9978 20.7112 23.0744 19.7174 22.8775C19.5862 22.8494 18.5737 22.7228 17.4628 22.5963C14.9831 22.3103 14.9737 22.3056 13.7409 21.5931C13.1315 21.2463 12.8549 21.1197 12.2596 20.9228C11.8143 20.7775 11.7909 20.7634 11.7534 20.6134C11.6831 20.365 11.7534 19.1088 11.8612 18.5838C12.3581 16.2166 13.8815 13.9572 16.3378 11.9509C16.6706 11.6791 16.694 11.6697 16.7924 11.7353C17.2378 12.0166 19.0987 12.1853 20.2518 12.0447C20.7674 11.9791 21.3159 11.8338 21.5409 11.6931L21.7237 11.5853L22.1878 11.9697C22.9003 12.5509 22.9799 12.6072 23.0924 12.6072C23.2424 12.6072 23.3878 12.4666 23.4206 12.2884C23.4487 12.1431 23.4299 12.115 23.1815 11.8853C23.0315 11.7447 22.7268 11.4869 22.4971 11.3134L22.0846 10.99L22.0799 10.6853C22.0753 10.3525 21.9862 10.0994 21.7846 9.86032L21.6581 9.71032L21.9112 9.3072C22.4034 8.52439 22.7409 7.7322 22.8065 7.2072C22.8628 6.7572 22.6706 6.31189 22.3659 6.18532C22.2112 6.12439 22.0799 6.14782 21.6534 6.3072L21.4378 6.39157L21.0674 6.20876C20.744 6.04939 20.6549 6.02595 20.369 6.02595C20.0831 6.02126 19.994 6.0447 19.694 6.19939C19.5018 6.29314 19.3143 6.37282 19.2721 6.37282C19.2346 6.37282 19.0471 6.29314 18.8549 6.19939C18.4893 6.02126 18.1096 5.96032 17.8612 6.04001ZM18.6253 6.87439C18.9065 7.0197 19.0143 7.04782 19.2721 7.04782C19.544 7.05251 19.6237 7.02907 19.919 6.87439C20.1065 6.78064 20.3081 6.70095 20.3737 6.70095C20.4346 6.70095 20.6362 6.78064 20.819 6.87439C21.0956 7.0197 21.194 7.04782 21.4378 7.04314C21.6018 7.04314 21.8081 7.01032 21.9112 6.96345C22.0143 6.92126 22.1034 6.89782 22.1174 6.91189C22.1737 6.96814 22.0237 7.53064 21.8456 7.93376C21.6815 8.30407 21.2174 9.12907 21.0299 9.3822C20.9878 9.43845 20.7721 9.49939 20.294 9.58845C19.6893 9.70095 19.5487 9.71032 18.9628 9.6822C18.2643 9.65407 17.6456 9.55095 17.5471 9.4572C17.4159 9.32126 16.7737 8.15407 16.6378 7.8072C16.4971 7.43689 16.4081 7.05251 16.4409 6.94939C16.4549 6.91189 16.5112 6.91657 16.6331 6.96814C16.7268 7.01032 16.9331 7.04314 17.0878 7.04782C17.3268 7.05251 17.4253 7.02439 17.7206 6.87907C17.9128 6.78064 18.119 6.70095 18.1799 6.70095C18.2362 6.70095 18.4378 6.78064 18.6253 6.87439ZM17.7674 10.2634C18.6393 10.4463 19.7831 10.4369 20.6596 10.2353C20.8237 10.1978 21.0112 10.1838 21.0768 10.1978C21.3299 10.2634 21.4659 10.7369 21.3018 10.99C21.2081 11.1306 20.9549 11.215 20.2659 11.3228C19.3049 11.4728 17.4721 11.3416 17.0924 11.0931C16.8346 10.9244 16.8393 10.4697 17.0971 10.2634C17.2424 10.1509 17.219 10.1509 17.7674 10.2634ZM9.21276 20.1306L9.32994 20.2431V21.3072C9.32994 22.3384 9.33463 22.3759 9.43307 22.4838C9.55494 22.615 9.74713 22.6244 9.89713 22.5025C10.0049 22.4181 10.0096 22.3759 10.0237 21.8228L10.0424 21.2322L10.2112 21.2556C10.3049 21.265 10.5487 21.2884 10.7503 21.3025C11.5659 21.3634 12.3299 21.6306 13.4737 22.2588C14.3596 22.7416 14.8284 22.9384 15.3206 23.0369C15.5221 23.0744 16.5346 23.2009 17.5799 23.3181C18.6253 23.4353 19.5862 23.5619 19.7128 23.5994C20.0784 23.7072 20.3878 23.9697 20.5799 24.3447C20.7299 24.64 20.744 24.6963 20.744 25.0947V25.5213L18.8315 25.5447C17.0034 25.5681 16.9143 25.5728 16.8487 25.6572C16.7549 25.7884 16.769 25.9806 16.8721 26.1119L16.9612 26.2244L19.0237 26.2384C20.9549 26.2478 21.1003 26.2431 21.3159 26.1634C21.4378 26.1119 22.2581 25.7556 23.1346 25.3713C27.9065 23.2666 27.8596 23.2853 28.1268 23.2619C28.3424 23.2431 28.4081 23.2572 28.544 23.3509C28.7784 23.5103 28.8862 23.6838 28.9096 23.9369C28.9378 24.2275 28.844 24.4619 28.6378 24.6213C28.2815 24.8838 21.9159 28.8869 21.6815 28.99C21.0346 29.2806 21.1378 29.2713 17.6034 29.2713C14.3878 29.2713 14.369 29.2713 14.0643 29.1681C13.8956 29.1119 12.9206 28.7509 11.8987 28.3713L10.0331 27.6775V25.765C10.0331 23.6463 10.0284 23.6134 9.74713 23.5525C9.63932 23.5291 9.56901 23.5431 9.47526 23.6134L9.35338 23.7025L9.32994 26.1822C9.31588 27.5463 9.30182 28.6666 9.29244 28.6713C9.28776 28.6759 9.25026 28.7134 9.20807 28.7509C9.14713 28.8166 8.98776 28.8259 8.18151 28.8259C7.24869 28.8259 7.22526 28.8259 7.15494 28.7228C7.08932 28.6291 7.07994 28.1416 7.07994 24.4103V20.2056L7.18307 20.1072C7.27682 20.0181 7.34244 20.0134 8.19088 20.0134C9.09557 20.0134 9.10026 20.0134 9.21276 20.1306Z" fill="#086D06"/>
<path d="M19.0966 13.3093C18.9466 13.3702 18.895 13.5014 18.895 13.8436V14.153L18.6794 14.2046C18.5622 14.2374 18.3419 14.3405 18.1919 14.4436C17.6903 14.7764 17.4091 15.3671 17.4513 15.9999C17.4935 16.6186 17.8075 17.0171 18.5294 17.3733L18.8903 17.5514L18.895 18.9483V20.3452L18.6747 20.3171C18.5481 20.303 18.281 20.2046 18.0747 20.1014C17.8685 20.003 17.6435 19.9186 17.5685 19.9186C17.2778 19.9186 17.1466 20.2936 17.3716 20.4999C17.5731 20.6874 18.0935 20.9124 18.5013 20.9874L18.895 21.0624V21.3952C18.895 21.6858 18.9091 21.7421 19.0028 21.8311C19.1481 21.9671 19.3403 21.9624 19.481 21.8171C19.5841 21.7186 19.5981 21.6624 19.5981 21.3577V21.0155L19.8325 20.9546C20.1138 20.8843 20.5497 20.6077 20.756 20.3733C21.1356 19.9421 21.3044 19.4546 21.2763 18.8733C21.2388 18.0483 20.7794 17.4999 19.8466 17.1718L19.5981 17.0874V15.9718C19.5981 15.053 19.6075 14.8561 19.6638 14.8561C19.7622 14.8561 20.0622 14.9921 20.2497 15.1186C20.4606 15.2639 20.606 15.2593 20.7466 15.1139C20.8872 14.978 20.8966 14.8139 20.77 14.6546C20.6481 14.4999 20.081 14.2139 19.8091 14.1718L19.5981 14.1436V13.8671C19.5981 13.5436 19.5372 13.3843 19.3778 13.3139C19.2466 13.253 19.2372 13.253 19.0966 13.3093ZM18.895 15.8405V16.7827L18.7919 16.7264C18.3091 16.4733 18.145 16.253 18.145 15.8639C18.145 15.4983 18.3231 15.1843 18.6372 14.9921C18.895 14.828 18.895 14.8233 18.895 15.8405ZM19.9497 17.978C20.3856 18.1843 20.5825 18.4983 20.5825 18.9999C20.5825 19.5202 20.2497 20.0264 19.7763 20.2233L19.5981 20.2936V19.0749C19.5981 18.2452 19.6122 17.8561 19.6497 17.8561C19.6731 17.8561 19.8138 17.9077 19.9497 17.978Z" fill="#086D06"/>
</g>
<defs>
<clipPath id="clip0_6920_99393">
<rect width="24" height="24" fill="white" transform="translate(6 6)"/>
</clipPath>
</defs>
</svg>
