<svg width="24" height="24" viewBox="0 0 24 24" fill="none" xmlns="http://www.w3.org/2000/svg">
<path d="M11.167 3.66406H9.50033C5.33366 3.66406 3.66699 5.33073 3.66699 9.4974V14.4974C3.66699 18.6641 5.33366 20.3307 9.50033 20.3307H14.5003C18.667 20.3307 20.3337 18.6641 20.3337 14.4974V12.8307" stroke="#4C5D70" stroke-width="1.5" stroke-linecap="round" stroke-linejoin="round"/>
<path d="M15.3666 4.5203L8.7999 11.087C8.5499 11.337 8.2999 11.8286 8.2499 12.187L7.89157 14.6953C7.75823 15.6036 8.3999 16.237 9.30823 16.112L11.8166 15.7536C12.1666 15.7036 12.6582 15.4536 12.9166 15.2036L19.4832 8.63696C20.6166 7.50363 21.1499 6.18696 19.4832 4.5203C17.8166 2.85363 16.4999 3.38696 15.3666 4.5203Z" stroke="#4C5D70" stroke-width="1.5" stroke-miterlimit="10" stroke-linecap="round" stroke-linejoin="round"/>
<path d="M14.4248 5.46094C14.9831 7.4526 16.5415 9.01094 18.5415 9.5776" stroke="#4C5D70" stroke-width="1.5" stroke-miterlimit="10" stroke-linecap="round" stroke-linejoin="round"/>
</svg>
