<svg width="24" height="24" viewBox="0 0 24 24" fill="none" xmlns="http://www.w3.org/2000/svg">
<path d="M11.1667 3.66602H9.5C5.33333 3.66602 3.66666 5.33268 3.66666 9.49935V14.4993C3.66666 18.666 5.33333 20.3327 9.5 20.3327H14.5C18.6667 20.3327 20.3333 18.666 20.3333 14.4993V12.8327" stroke="#4C5D70" stroke-width="1.5" stroke-linecap="round" stroke-linejoin="round"/>
<path d="M15.3666 4.51639L8.7999 11.0831C8.5499 11.3331 8.2999 11.8247 8.2499 12.1831L7.89157 14.6914C7.75823 15.5997 8.3999 16.2331 9.30823 16.1081L11.8166 15.7497C12.1666 15.6997 12.6582 15.4497 12.9166 15.1997L19.4832 8.63306C20.6166 7.49972 21.1499 6.18306 19.4832 4.51639C17.8166 2.84972 16.4999 3.38306 15.3666 4.51639Z" stroke="#4C5D70" stroke-width="1.5" stroke-miterlimit="10" stroke-linecap="round" stroke-linejoin="round"/>
<path d="M14.4251 5.45898C14.9835 7.45065 16.5418 9.00898 18.5418 9.57565" stroke="#4C5D70" stroke-width="1.5" stroke-miterlimit="10" stroke-linecap="round" stroke-linejoin="round"/>
</svg>
