<svg width="18" height="18" viewBox="0 0 18 18" fill="none" xmlns="http://www.w3.org/2000/svg">
<g clip-path="url(#clip0_8736_51067)">
<path d="M1.06523 2.74219C0.594141 2.91094 0.232031 3.27656 0.0667969 3.75469C0.00351562 3.94102 0 4.1168 0 9C0 13.9113 0.00351562 14.0555 0.0667969 14.2488C0.232031 14.7305 0.597656 15.0961 1.08281 15.2613C1.27266 15.3246 1.48711 15.3281 9 15.3281C16.5129 15.3281 16.7273 15.3246 16.9172 15.2613C17.4023 15.0961 17.768 14.7305 17.9332 14.2488C17.9965 14.0555 18 13.9113 18 9C18 4.08867 17.9965 3.94453 17.9332 3.75117C17.768 3.26953 17.4023 2.90391 16.9172 2.73867C16.7273 2.67539 16.5164 2.67188 8.98594 2.67539C1.53633 2.67539 1.24102 2.67891 1.06523 2.74219ZM13.0535 6.82031C10.1074 9.75234 9.93867 9.91406 9.69609 10.0336C9.39727 10.1813 9.09844 10.2305 8.78203 10.1883C8.64844 10.1707 8.45859 10.1109 8.30391 10.0336C8.06133 9.91406 7.89258 9.75234 4.94648 6.82031L1.8457 3.73008H9H16.1543L13.0535 6.82031ZM3.55078 6.975L5.57227 9L3.31172 11.2605L1.05469 13.5176V9.02109V4.52813L1.29375 4.73906C1.42383 4.85859 2.43984 5.86406 3.55078 6.975ZM16.9453 9.02461V13.5176L14.6883 11.257L12.4277 9L14.6637 6.76758C15.8941 5.54063 16.9102 4.53516 16.9207 4.53516C16.9348 4.53516 16.9453 6.55664 16.9453 9.02461ZM6.71484 10.1461C7.5832 11.0215 8.12109 11.2922 9 11.2922C9.47461 11.2922 9.80859 11.2148 10.1883 11.025C10.5012 10.8668 10.7437 10.6734 11.2395 10.1848L11.6332 9.79805L11.9777 10.118C12.1676 10.2938 13.1836 11.2992 14.2383 12.3539L16.1543 14.2734H9H1.8457L4.08164 12.041C5.31211 10.8141 6.33516 9.80859 6.35273 9.80859C6.3668 9.80859 6.53203 9.95977 6.71484 10.1461Z" fill="#4C5D70"/>
</g>
<defs>
<clipPath id="clip0_8736_51067">
<rect width="18" height="18" fill="white"/>
</clipPath>
</defs>
</svg>
