<svg width="20" height="20" viewBox="0 0 20 20" fill="none" xmlns="http://www.w3.org/2000/svg">
<path d="M15.0901 6.991C15.0631 6.991 15.045 6.991 15.018 6.991H14.973C13.2703 6.93694 12 5.62162 12 4C12 2.34234 13.3514 1 15 1C16.6486 1 18 2.35135 18 4C17.991 5.63063 16.7207 6.94595 15.0991 7C15.0991 6.99099 15.0991 6.991 15.0901 6.991ZM15 2.34235C14.0901 2.34235 13.3514 3.08109 13.3514 3.991C13.3514 4.88289 14.045 5.60361 14.9369 5.63965C14.9459 5.63064 15.018 5.63064 15.0991 5.63965C15.973 5.5946 16.6486 4.87388 16.6577 3.991C16.6577 3.08109 15.9189 2.34235 15 2.34235Z" fill="#93AABE"/>
<path d="M15.3941 12C15.0956 12 14.797 11.977 14.4984 11.9234C14.1845 11.8698 13.9778 11.571 14.0314 11.2569C14.085 10.9428 14.3836 10.736 14.6975 10.7896C15.6391 10.9505 16.6344 10.7743 17.3004 10.33C17.6602 10.0925 17.8516 9.79369 17.8516 9.49491C17.8516 9.19614 17.6526 8.90503 17.3004 8.66755C16.6344 8.22322 15.6238 8.04702 14.6745 8.21556C14.3606 8.27685 14.062 8.06234 14.0085 7.74825C13.9549 7.43416 14.1616 7.13539 14.4755 7.08177C15.7233 6.8596 17.0172 7.09708 17.9359 7.70995C18.6096 8.16193 19 8.80544 19 9.49491C19 10.1767 18.6172 10.8279 17.9359 11.2876C17.2392 11.7472 16.3358 12 15.3941 12Z" fill="#93AABE"/>
<path d="M4.91892 7C4.90991 7 4.9009 7 4.9009 7C3.27928 6.94595 2.00901 5.63062 2 4.009C2 2.35135 3.35135 1 5 1C6.64865 1 8 2.35135 8 4C8 5.63063 6.72973 6.94595 5.10811 7L4.91892 6.32432L4.98198 7C4.96397 7 4.93694 7 4.91892 7ZM5.00901 5.64865C5.06306 5.64865 5.10811 5.64864 5.16216 5.65765C5.96397 5.62162 6.66667 4.9009 6.66667 4.009C6.66667 3.09909 5.92793 2.36035 5.01802 2.36035C4.10811 2.36035 3.36937 3.09909 3.36937 4.009C3.36937 4.89189 4.05405 5.6036 4.92793 5.65765C4.93694 5.64864 4.97297 5.64865 5.00901 5.64865Z" fill="#93AABE"/>
<path d="M4.60586 12C3.6642 12 2.76082 11.7472 2.06415 11.2876C1.39044 10.8356 1 10.1844 1 9.49491C1 8.8131 1.39044 8.16193 2.06415 7.70995C2.98284 7.09708 4.27666 6.8596 5.52455 7.08177C5.83843 7.13539 6.04514 7.43416 5.99155 7.74825C5.93796 8.06234 5.63939 8.27685 5.3255 8.21556C4.37619 8.04702 3.37328 8.22322 2.69958 8.66755C2.33976 8.90503 2.14836 9.19614 2.14836 9.49491C2.14836 9.79369 2.34741 10.0925 2.69958 10.33C3.36563 10.7743 4.36087 10.9505 5.30253 10.7896C5.61642 10.736 5.91499 10.9505 5.96858 11.2569C6.02217 11.571 5.81547 11.8698 5.50158 11.9234C5.20301 11.977 4.90443 12 4.60586 12Z" fill="#93AABE"/>
<path d="M10.0901 12.991C10.0631 12.991 10.045 12.991 10.018 12.991H9.97297C8.27027 12.9369 7 11.6216 7 10C7 8.34234 8.35135 7 10 7C11.6487 7 13 8.35135 13 10C12.991 11.6306 11.7207 12.9459 10.0991 13C10.0991 12.991 10.0991 12.991 10.0901 12.991ZM10 8.34235C9.09009 8.34235 8.35135 9.08109 8.35135 9.991C8.35135 10.8829 9.04505 11.6036 9.93694 11.6396C9.94595 11.6306 10.018 11.6306 10.0991 11.6396C10.973 11.5946 11.6487 10.8739 11.6577 9.991C11.6577 9.0901 10.9189 8.34235 10 8.34235Z" fill="#93AABE"/>
<path d="M10 19C8.98305 19 7.9661 18.763 7.17797 18.2814C6.4322 17.8303 6 17.1881 6 16.5C6 15.8196 6.42373 15.1621 7.17797 14.711C8.76271 13.763 11.2458 13.763 12.822 14.711C13.5678 15.1621 14 15.8043 14 16.4924C14 17.1728 13.5763 17.8303 12.822 18.2814C12.0339 18.7554 11.0169 19 10 19ZM7.88136 15.6743C7.48305 15.9113 7.27119 16.2095 7.27119 16.5076C7.27119 16.8058 7.49153 17.0963 7.88136 17.3333C9.02542 18.0291 10.9661 18.0291 12.1102 17.3333C12.5085 17.0963 12.7203 16.7982 12.7203 16.5C12.7203 16.2018 12.5 15.9113 12.1102 15.6743C10.9746 14.9786 9.0339 14.9862 7.88136 15.6743Z" fill="#93AABE"/>
</svg>
