<svg width="14" height="14" viewBox="0 0 14 14" fill="none" xmlns="http://www.w3.org/2000/svg">
<path d="M12.3368 2.45118C12.2291 2.32204 12.1 2.19279 11.9708 2.06365C11.8417 1.93451 11.7124 1.80527 11.5833 1.69769C8.82753 -0.649012 4.67263 -0.54136 2.06755 2.06365C-0.53754 4.66866 -0.644992 8.82363 1.70151 11.5579C1.80918 11.6871 1.93832 11.8163 2.06747 11.9454C2.19662 12.0746 2.32586 12.2038 2.455 12.3114C5.21077 14.658 9.36566 14.5505 11.9493 11.9454C14.5329 9.34035 14.6835 5.20695 12.3369 2.45118H12.3368ZM2.82104 2.81714C5.01693 0.642712 8.48326 0.513569 10.8082 2.47267L2.47669 10.8042C0.517614 8.47916 0.646757 5.01304 2.82116 2.81702L2.82104 2.81714ZM3.23013 11.558L11.5617 3.22646C13.4993 5.5516 13.3701 9.01762 11.1957 11.2136C9.02127 13.4097 5.55497 13.4957 3.23 11.5581L3.23013 11.558Z" fill="#E30C0C"/>
</svg>
