<svg width="20" height="20" viewBox="0 0 20 20" fill="none" xmlns="http://www.w3.org/2000/svg">
<path d="M8.72364 18.7778C8.52462 18.7778 8.33424 18.6919 8.20444 18.52L7.33045 17.36C7.14873 17.1194 6.90645 16.9819 6.64685 16.9648C6.3786 16.9476 6.12763 17.0679 5.91995 17.2827C4.66522 18.6145 3.71337 18.5028 3.25474 18.331C2.78746 18.1505 2 17.5576 2 15.6501V5.97504C2 2.15999 3.10763 1 6.73337 1H13.2666C16.8924 1 18 2.15999 18 5.97504V9.6354C18 9.98769 17.7058 10.2798 17.351 10.2798C16.9962 10.2798 16.702 9.98769 16.702 9.6354V5.97504C16.702 2.87316 16.1568 2.28887 13.2666 2.28887H6.73337C3.84316 2.28887 3.298 2.87316 3.298 5.97504V15.6501C3.298 16.5523 3.52298 17.0507 3.73066 17.128C3.88642 17.1882 4.31046 17.1022 4.96811 16.4063C5.44404 15.9079 6.06707 15.6415 6.71607 15.6759C7.35641 15.7103 7.96215 16.0454 8.36885 16.5867L9.25148 17.7467C9.46782 18.0302 9.40725 18.4341 9.12169 18.6489C8.99189 18.7434 8.85344 18.7778 8.72364 18.7778Z" fill="#93AABE"/>
<path d="M12.9241 6.33322H6.18724C5.84198 6.33322 5.55566 6.13174 5.55566 5.88878C5.55566 5.64582 5.84198 5.44434 6.18724 5.44434H12.9241C13.2693 5.44434 13.5557 5.64582 13.5557 5.88878C13.5557 6.13174 13.2693 6.33322 12.9241 6.33322Z" fill="#93AABE"/>
<path d="M12.0443 9.88889H7.06656C6.72641 9.88889 6.44434 9.68741 6.44434 9.44444C6.44434 9.20148 6.72641 9 7.06656 9H12.0443C12.3845 9 12.6666 9.20148 12.6666 9.44444C12.6666 9.68741 12.3845 9.88889 12.0443 9.88889Z" fill="#93AABE"/>
<path d="M12.0824 18.7776C11.7579 18.7776 11.4504 18.6581 11.2283 18.4361C10.9636 18.1714 10.844 17.7872 10.9038 17.3859L11.0661 16.2332C11.1088 15.9343 11.2881 15.5757 11.5016 15.3623L14.525 12.3397C14.935 11.9299 15.3364 11.7164 15.772 11.6737C16.3015 11.6225 16.831 11.8445 17.3264 12.3397C17.8218 12.8349 18.0438 13.3558 17.9926 13.8937C17.9499 14.3206 17.7278 14.7304 17.3264 15.1403L14.303 18.1629C14.0895 18.3763 13.7308 18.5556 13.4318 18.5983L12.2788 18.7605C12.2105 18.7691 12.1507 18.7776 12.0824 18.7776ZM15.9172 12.9459C15.9086 12.9459 15.9001 12.9459 15.8916 12.9459C15.772 12.9545 15.6097 13.0655 15.4304 13.2448L12.407 16.2673C12.3813 16.293 12.3386 16.3784 12.3386 16.4125L12.1849 17.4798L13.2525 17.3261C13.2866 17.3175 13.372 17.2749 13.3977 17.2492L16.4211 14.2267C16.6004 14.0388 16.7115 13.8851 16.72 13.7656C16.7371 13.5948 16.5663 13.3899 16.4211 13.2448C16.2844 13.1081 16.088 12.9459 15.9172 12.9459Z" fill="#93AABE"/>
<path d="M16.3958 16.1112C16.3288 16.1112 16.2618 16.1017 16.2044 16.0826C14.941 15.7297 13.9361 14.7281 13.5819 13.469C13.4767 13.0874 13.6968 12.6963 14.0796 12.5819C14.4625 12.4769 14.8549 12.6963 14.9602 13.0779C15.1803 13.8601 15.8024 14.4801 16.5872 14.6995C16.9701 14.8044 17.1902 15.205 17.0849 15.5866C16.9988 15.9014 16.7117 16.1112 16.3958 16.1112Z" fill="#93AABE"/>
</svg>
