<svg width="20" height="20" viewBox="0 0 20 20" fill="none" xmlns="http://www.w3.org/2000/svg">
<path d="M2.19625 0.028141C1.1659 0.16118 0.294675 0.92812 0.0639399 1.90244C0.00824513 2.12548 0.000288735 3.10372 0.000288735 10.0023C0.000288735 18.7086 -0.0196022 18.0747 0.270806 18.6499C0.469716 19.0529 0.939143 19.5147 1.35288 19.7181C1.96552 20.0155 1.68307 19.9999 6.24606 19.9999C9.44453 19.9999 10.3555 19.9881 10.4669 19.949C10.63 19.8942 10.8369 19.7064 10.9324 19.5342C10.9722 19.456 10.996 19.319 11 19.1586C11 18.826 10.8647 18.5834 10.5902 18.4269L10.4033 18.3173L6.34551 18.2977C2.6259 18.2782 2.27582 18.2742 2.16443 18.2116C1.98939 18.1177 1.80241 17.8947 1.75467 17.7225C1.695 17.5151 1.695 2.48939 1.75467 2.282C1.80241 2.10983 1.98939 1.88679 2.16443 1.79288C2.27582 1.73028 2.6259 1.72636 6.34551 1.7068L10.4033 1.68723L10.5902 1.57767C10.8647 1.42115 11 1.17855 11 0.845947C10.996 0.568129 10.9403 0.427261 10.7534 0.243353C10.5027 -0.0109882 10.7613 0.00466347 6.40518 0.000749588C4.22911 -0.00316238 2.33151 0.00857544 2.19625 0.028141Z" fill="#4C5D70"/>
<path d="M13.9392 4.07204C13.8555 4.11234 13.7452 4.18891 13.6958 4.23727C13.4753 4.46295 13.403 4.91431 13.5361 5.22462C13.5817 5.33746 14.1521 5.96211 15.3802 7.24768L17.1559 9.11357L12.3726 9.12163L7.58935 9.13372L7.43726 9.22238C7.14449 9.38761 7 9.64553 7 10.0002C7 10.3548 7.14449 10.6127 7.43726 10.778L7.58935 10.8666L12.3726 10.8787L17.1559 10.8868L15.3802 12.7527C14.1521 14.0382 13.5817 14.6629 13.5361 14.7757C13.403 15.086 13.4753 15.5374 13.6958 15.7631C13.9316 16.0008 14.3308 16.0693 14.635 15.9243C14.8707 15.8114 19.8593 10.5805 19.943 10.3588C20.019 10.1573 20.019 9.843 19.943 9.6415C19.8593 9.41985 14.8707 4.18891 14.635 4.07607C14.4297 3.97532 14.1369 3.97532 13.9392 4.07204Z" fill="#4C5D70"/>
</svg>
