<svg width="22" height="14" viewBox="0 0 22 14" fill="none" xmlns="http://www.w3.org/2000/svg">
<path d="M11.0007 1.77164C13.7551 1.77164 16.0893 3.02784 17.5589 4.08164C19.3013 5.33124 20.1989 6.53684 20.4321 6.99884C20.1989 7.45864 19.3035 8.66644 17.5589 9.91604C16.0871 10.9698 13.7551 12.226 11.0007 12.226C8.2463 12.226 5.9143 10.9698 4.4425 9.91604C2.6979 8.66644 1.8025 7.45864 1.5693 6.99884C1.8025 6.53904 2.6979 5.33124 4.4425 4.08164C5.9121 3.02784 8.2463 1.77164 11.0007 1.77164ZM11.0007 0.464844C5.0475 0.464844 0.220703 5.69204 0.220703 6.99884C0.220703 8.30564 5.0475 13.5328 11.0007 13.5328C16.9539 13.5328 21.7807 8.30564 21.7807 6.99884C21.7807 5.69204 16.9539 0.464844 11.0007 0.464844ZM11.0007 3.07844C8.8359 3.07844 7.0803 4.83404 7.0803 6.99884C7.0803 9.16364 8.8359 10.9192 11.0007 10.9192C13.1655 10.9192 14.9211 9.16364 14.9211 6.99884C14.9211 4.83404 13.1655 3.07844 11.0007 3.07844ZM9.9447 6.99884C9.0295 6.99884 8.2859 6.25524 8.2859 5.34004C8.2859 4.42484 9.0295 3.68124 9.9447 3.68124C10.8599 3.68124 11.6035 4.42484 11.6035 5.34004C11.6035 6.25524 10.8621 6.99884 9.9447 6.99884Z" fill="#4C5D70"/>
</svg>
