<svg width="20" height="20" viewBox="0 0 20 20" fill="none" xmlns="http://www.w3.org/2000/svg">
<g clip-path="url(#clip0_9922_97064)">
<path d="M1.67244 1.36924C1.24316 1.48396 0.858296 1.80962 0.662161 2.2278L0.54374 2.47574L0.532638 10.4322C0.528937 14.8063 0.532638 18.4256 0.54374 18.4737C0.569644 18.5773 0.765779 18.7031 0.906404 18.7031C0.961914 18.7031 1.05443 18.6809 1.10994 18.6513C1.16545 18.6217 2.07581 17.7299 3.1342 16.6715L5.05854 14.7434H10.8353C16.6083 14.7434 16.6083 14.7434 16.8377 14.6657C17.3817 14.4807 17.7888 13.9996 17.8813 13.4223C17.9035 13.2965 17.9183 11.8273 17.9183 9.91776V6.62418L18.5659 5.97286C19.1173 5.41406 19.2284 5.28084 19.332 5.0625C19.4319 4.85156 19.4541 4.75164 19.4652 4.5C19.4874 4.01891 19.3764 3.69696 19.0729 3.375C18.7991 3.07895 18.4253 2.90132 18.0812 2.90132H17.9257L17.885 2.64967C17.7777 2.03166 17.3706 1.56908 16.7674 1.38034C16.5491 1.31373 16.29 1.31003 9.21068 1.31373C2.87515 1.31373 1.85007 1.32113 1.67244 1.36924ZM16.5232 2.16488C16.8303 2.25 17.0635 2.56826 17.0783 2.92722L17.0857 3.14186L14.8283 5.38816L12.5709 7.63816H8.64078H4.71438L4.60336 7.73067C4.46274 7.8491 4.42203 8.03783 4.50344 8.20806C4.62557 8.4671 4.41833 8.4523 8.36693 8.4523C11.1868 8.4523 11.9233 8.4634 11.9233 8.49671C11.9233 8.52261 11.8381 8.97039 11.7345 9.48849C11.5569 10.3803 11.5495 10.4433 11.6013 10.5654C11.6383 10.6542 11.7012 10.7171 11.7937 10.7652L11.9344 10.8318L13.0446 10.6061L14.1548 10.384L15.6313 8.90748L17.1042 7.43462V10.2508C17.1042 12.0012 17.0894 13.1447 17.0672 13.2669C17.0228 13.5074 16.9118 13.6739 16.7156 13.8109L16.5676 13.9108L10.628 13.9293C7.36035 13.9404 4.68108 13.9515 4.66997 13.9589C4.66257 13.9626 3.90764 14.7101 2.99728 15.6205L1.33938 17.2747V10.014C1.33938 3.54153 1.34678 2.73479 1.39489 2.61266C1.49111 2.39062 1.66504 2.2389 1.93149 2.15748C2.07951 2.11308 16.3567 2.11678 16.5232 2.16488ZM18.3402 3.83758C18.5252 3.98191 18.6289 4.14474 18.6474 4.32607C18.6807 4.59252 18.603 4.74054 18.2366 5.11431L17.9035 5.45847L17.4113 4.96628L16.9192 4.4741L17.2263 4.16694C17.3928 3.99671 17.5964 3.82278 17.6778 3.78577C17.885 3.68215 18.1663 3.70806 18.3402 3.83758ZM15.5092 7.84539L13.7255 9.62911L13.1371 9.74753C12.8114 9.81044 12.5376 9.85485 12.5265 9.84745C12.5191 9.83635 12.5635 9.5662 12.6264 9.24054L12.7411 8.65584L14.5248 6.87212L16.3085 5.0847L16.797 5.57319L17.2892 6.06538L15.5092 7.84539Z" fill="#4C5D70" stroke="#4C5D70" stroke-width="0.3"/>
<path d="M4.60242 5.36415C4.4618 5.48257 4.42109 5.67131 4.50251 5.84154C4.62833 6.10058 4.32488 6.08578 9.19864 6.08578C14.0058 6.08578 13.7838 6.09688 13.8985 5.86744C14.0021 5.67131 13.9614 5.47147 13.7949 5.33825C13.7208 5.27904 13.4248 5.27164 9.21344 5.27164H4.71344L4.60242 5.36415Z" fill="#4C5D70"/>
<path d="M4.60068 10.0954C4.38234 10.2804 4.42675 10.6357 4.68579 10.7615C4.80051 10.8133 5.07806 10.817 7.29476 10.8096L9.7816 10.7985L9.88892 10.6764C10.0406 10.5061 10.0406 10.2656 9.88892 10.1102L9.7816 10.0029H7.24665H4.7117L4.60068 10.0954Z" fill="#4C5D70"/>
</g>
<defs>
<clipPath id="clip0_9922_97064">
<rect width="18.9474" height="18.9474" fill="white" transform="translate(0.523438 0.53125)"/>
</clipPath>
</defs>
</svg>
