<svg width="76" height="76" viewBox="0 0 76 76" fill="none" xmlns="http://www.w3.org/2000/svg">
<circle cx="38" cy="38" r="38" fill="#F7E3F8"/>
<path d="M32.75 39.7495L33.4863 39.8922L33.4863 39.8922L32.75 39.7495ZM31.1254 53.7737C31.1388 54.1877 31.4852 54.5124 31.8992 54.4991C32.3132 54.4857 32.638 54.1393 32.6246 53.7253L31.1254 53.7737ZM46.7089 37.3627L47.1238 36.7379L47.1238 36.7379L46.7089 37.3627ZM47.9587 37.8027L47.8057 38.5369L47.8057 38.5369L47.9587 37.8027ZM49.5056 36.5801L48.7558 36.5992L48.7558 36.5993L49.5056 36.5801ZM45.7795 30.4433L45.3646 31.0681L45.3646 31.0681L45.7795 30.4433ZM38.1603 28.7627L38.0473 28.0213L38.0473 28.0213L38.1603 28.7627ZM37.304 30.9215L37.9217 30.4961L37.9217 30.496L37.304 30.9215ZM38.875 32.6231L38.6237 33.3298L38.6238 33.3298L38.875 32.6231ZM45.4035 35.1689L45.8184 34.5442L45.8184 34.5441L45.4035 35.1689ZM34.5002 31.8745L34.263 31.163L34.263 31.163L34.5002 31.8745ZM35.9753 30.1433L35.2777 29.8677L35.2777 29.8678L35.9753 30.1433ZM35.4945 28.7007L35.1129 29.3463L35.1129 29.3463L35.4945 28.7007ZM28.1664 28.2097L27.9572 27.4895L27.9572 27.4895L28.1664 28.2097ZM23.1995 33.2104L23.9387 33.3378L23.9387 33.3378L23.1995 33.2104ZM24.2301 34.5804L24.3131 33.835L24.313 33.835L24.2301 34.5804ZM25.581 34.3377L25.0957 33.7659L25.0957 33.7659L25.581 34.3377ZM27.2671 32.7417L27.4612 33.4661L27.4612 33.4661L27.2671 32.7417ZM29.5253 33.2809L29.7193 34.0053L29.7194 34.0053L29.5253 33.2809ZM31.2112 31.6849L31.4053 32.4093L31.4054 32.4093L31.2112 31.6849ZM47.6258 23.9995L47.9401 24.6805C48.1315 24.5921 48.2769 24.4273 48.3406 24.2264C48.4044 24.0255 48.3807 23.8071 48.2753 23.6245L47.6258 23.9995ZM25.7504 22.1809L25.0851 21.8347C24.909 22.1732 25.0151 22.59 25.3316 22.8031L25.7504 22.1809ZM39.75 46.8745C39.3358 46.8745 39 47.2103 39 47.6245C39 48.0387 39.3358 48.3745 39.75 48.3745V46.8745ZM26.2672 50.4216C26.6149 50.1965 26.7143 49.7322 26.4893 49.3844C26.2642 49.0367 25.7999 48.9372 25.4521 49.1623L26.2672 50.4216ZM36.25 29.2495C35.5819 28.9087 35.5819 28.9088 35.5818 28.9089C35.5817 28.909 35.5817 28.9092 35.5816 28.9093C35.5815 28.9096 35.5813 28.9099 35.5811 28.9104C35.5806 28.9112 35.5801 28.9123 35.5793 28.9137C35.5779 28.9165 35.5759 28.9205 35.5734 28.9255C35.5683 28.9356 35.561 28.9501 35.5517 28.969C35.5329 29.0067 35.5058 29.0617 35.4711 29.1333C35.4019 29.2764 35.3026 29.4856 35.1804 29.7543C34.936 30.2915 34.5994 31.0671 34.2272 32.0279C33.4835 33.9473 32.5932 36.6165 32.0137 39.6068L33.4863 39.8922C34.0441 37.0141 34.9038 34.4333 35.6259 32.5698C35.9864 31.6391 36.3116 30.8901 36.5457 30.3755C36.6628 30.1182 36.757 29.9197 36.8214 29.7866C36.8536 29.7201 36.8783 29.6699 36.8947 29.6369C36.9029 29.6204 36.9091 29.6082 36.913 29.6004C36.915 29.5965 36.9164 29.5937 36.9172 29.592C36.9177 29.5911 36.918 29.5906 36.9181 29.5903C36.9182 29.5902 36.9182 29.5901 36.9182 29.5901C36.9182 29.5901 36.9182 29.5901 36.9182 29.5901C36.9181 29.5902 36.9181 29.5903 36.25 29.2495ZM32.0137 39.6068C31.4332 42.6017 31.2132 46.1502 31.1363 48.9294C31.0977 50.3233 31.0949 51.5322 31.1018 52.3932C31.1052 52.8238 31.1111 53.1677 31.1161 53.4045C31.1186 53.5229 31.1209 53.6146 31.1226 53.6769C31.1235 53.7081 31.1241 53.732 31.1246 53.7482C31.1249 53.7563 31.1251 53.7625 31.1252 53.7668C31.1253 53.7689 31.1253 53.7706 31.1253 53.7717C31.1254 53.7723 31.1254 53.7727 31.1254 53.7731C31.1254 53.7732 31.1254 53.7734 31.1254 53.7735C31.1254 53.7736 31.1254 53.7737 31.875 53.7495C32.6246 53.7253 32.6246 53.7253 32.6246 53.7253C32.6246 53.7253 32.6246 53.7252 32.6246 53.7252C32.6246 53.725 32.6246 53.7247 32.6246 53.7243C32.6246 53.7235 32.6245 53.7221 32.6245 53.7203C32.6244 53.7167 32.6242 53.7112 32.624 53.7037C32.6235 53.6888 32.6229 53.6663 32.6221 53.6365C32.6205 53.5769 32.6182 53.4881 32.6158 53.3727C32.6109 53.1419 32.6051 52.8046 32.6018 52.3812C32.595 51.5341 32.5977 50.3434 32.6357 48.9709C32.7119 46.2171 32.9294 42.7656 33.4863 39.8922L32.0137 39.6068ZM46.294 37.9874C46.7252 38.2738 47.3276 38.4372 47.8057 38.5369L48.1118 37.0685C47.6522 36.9727 47.2974 36.8532 47.1238 36.7379L46.294 37.9874ZM47.8057 38.5369C49.0365 38.7934 50.2904 37.9339 50.2553 36.561L48.7558 36.5993C48.7602 36.7705 48.6903 36.8938 48.5863 36.9744C48.4771 37.059 48.3101 37.1098 48.1117 37.0685L47.8057 38.5369ZM50.2553 36.5611C50.2109 34.8138 49.517 32.025 46.1944 29.8185L45.3646 31.0681C48.2043 32.9539 48.7213 35.2425 48.7558 36.5992L50.2553 36.5611ZM46.1944 29.8185C43.0833 27.7525 39.9887 27.7253 38.0473 28.0213L38.2733 29.5041C39.9743 29.2448 42.6576 29.2705 45.3646 31.0681L46.1944 29.8185ZM38.0473 28.0213C36.3872 28.2744 35.8196 30.0887 36.6864 31.347L37.9217 30.496C37.7598 30.261 37.752 30.0203 37.8189 29.8468C37.8824 29.682 38.0243 29.5421 38.2733 29.5041L38.0473 28.0213ZM36.6864 31.347C36.96 31.7442 37.2673 32.16 37.5697 32.5025C37.7208 32.6736 37.8805 32.8378 38.0429 32.9753C38.1969 33.1058 38.3951 33.2485 38.6237 33.3298L39.1263 31.9165C39.1454 31.9233 39.1089 31.9125 39.0123 31.8307C38.924 31.7559 38.8169 31.6488 38.6942 31.5098C38.4488 31.2318 38.1802 30.8713 37.9217 30.4961L36.6864 31.347ZM38.6238 33.3298C38.9872 33.459 39.3413 33.4604 39.6378 33.4284C39.9231 33.3977 40.2142 33.3273 40.4233 33.2815C40.9347 33.1696 41.0719 33.1928 41.1549 33.2479L41.9846 31.9983C41.3009 31.5443 40.5281 31.7231 40.1026 31.8162C39.8433 31.8729 39.6591 31.9174 39.477 31.9371C39.306 31.9555 39.2003 31.9428 39.1262 31.9165L38.6238 33.3298ZM41.1549 33.2479C41.2838 33.3336 41.3581 33.4795 41.5081 33.9484C41.6275 34.3217 41.8225 35.018 42.4603 35.4415L43.2901 34.192C43.1611 34.1063 43.0868 33.9604 42.9368 33.4915C42.8174 33.1182 42.6224 32.4219 41.9846 31.9983L41.1549 33.2479ZM42.4603 35.4415C43.098 35.8651 43.8155 35.7747 44.2059 35.7399C44.6963 35.6962 44.8596 35.7081 44.9886 35.7937L45.8184 34.5441C45.1806 34.1206 44.4632 34.211 44.0727 34.2458C43.5824 34.2895 43.419 34.2776 43.2901 34.192L42.4603 35.4415ZM44.9885 35.7937C45.1175 35.8794 45.1918 36.0253 45.3418 36.4943C45.4612 36.8676 45.6562 37.5639 46.294 37.9874L47.1238 36.7379C46.9948 36.6522 46.9205 36.5063 46.7705 36.0374C46.6511 35.6641 46.4561 34.9678 45.8184 34.5442L44.9885 35.7937ZM34.7373 32.586C35.3044 32.397 35.7219 32.0067 36.0189 31.6156C36.3173 31.2228 36.5283 30.7846 36.6728 30.4188L35.2777 29.8678C35.1621 30.1604 35.0109 30.4628 34.8244 30.7084C34.6365 30.9558 34.4466 31.1018 34.263 31.163L34.7373 32.586ZM36.6728 30.4189C37.0173 29.5469 36.7111 28.5485 35.8761 28.055L35.1129 29.3463C35.2853 29.4482 35.3632 29.6514 35.2777 29.8677L36.6728 30.4189ZM35.8762 28.055C34.5813 27.2896 31.949 26.3302 27.9572 27.4895L28.3756 28.93C31.9332 27.8968 34.1403 28.7714 35.1129 29.3463L35.8762 28.055ZM27.9572 27.4895C25.9541 28.0712 24.6389 29.0412 23.7912 30.1044C22.9492 31.1605 22.601 32.2671 22.4604 33.0831L23.9387 33.3378C24.0482 32.7018 24.3179 31.8499 24.964 31.0395C25.6044 30.2363 26.6477 29.4318 28.3756 28.93L27.9572 27.4895ZM22.4604 33.0831C22.27 34.1884 23.0333 35.2021 24.1473 35.3258L24.313 33.835C24.0567 33.8065 23.895 33.5911 23.9387 33.3378L22.4604 33.0831ZM24.1472 35.3258C24.4288 35.3571 24.7539 35.3698 25.0739 35.3246C25.3891 35.28 25.7583 35.171 26.0664 34.9095L25.0957 33.7659C25.0821 33.7775 25.0212 33.8171 24.8641 33.8393C24.7118 33.8608 24.5222 33.8583 24.3131 33.835L24.1472 35.3258ZM26.0664 34.9095C26.4953 34.5454 26.798 34.0919 26.982 33.8585C27.1879 33.5973 27.3063 33.5076 27.4612 33.4661L27.073 32.0172C26.4391 32.1871 26.0675 32.5957 25.804 32.9299C25.5187 33.2918 25.3728 33.5307 25.0957 33.7659L26.0664 34.9095ZM27.4612 33.4661C27.5287 33.448 27.6263 33.4602 28.055 33.6792C28.3609 33.8354 28.998 34.1985 29.7193 34.0053L29.3312 32.5564C29.2637 32.5745 29.166 32.5623 28.7373 32.3433C28.4314 32.1871 27.7943 31.8239 27.0729 32.0173L27.4612 33.4661ZM29.7194 34.0053C30.4408 33.812 30.8109 33.1789 30.9977 32.8907C31.2595 32.4866 31.3379 32.4274 31.4053 32.4093L31.0172 30.9604C30.2958 31.1537 29.9256 31.7867 29.7388 32.075C29.477 32.479 29.3986 32.5383 29.3311 32.5564L29.7194 34.0053ZM31.4054 32.4093C31.445 32.3987 31.5387 32.39 31.7454 32.4258C31.9624 32.4634 32.1703 32.5217 32.4915 32.5954C33.0761 32.7297 33.8743 32.8737 34.7374 32.586L34.263 31.163C33.8136 31.3128 33.3617 31.2562 32.8272 31.1335C32.5888 31.0787 32.27 30.9943 32.0014 30.9478C31.7225 30.8995 31.3719 30.8653 31.0171 30.9604L31.4054 32.4093ZM40.3465 21.5531C39.6525 21.8307 39.0156 22.3581 38.4649 22.9601C37.907 23.5699 37.3976 24.3005 36.9671 25.0465C36.5361 25.7936 36.1748 26.5728 35.9193 27.2883C35.6693 27.9884 35.4998 28.6851 35.5 29.2498L37 29.2492C36.9999 28.9389 37.1035 28.4324 37.332 27.7927C37.5549 27.1684 37.8771 26.471 38.2664 25.7962C38.6563 25.1204 39.104 24.4838 39.5717 23.9725C40.0465 23.4534 40.5036 23.1058 40.9035 22.9459L40.3465 21.5531ZM36.5643 29.9305L47.9401 24.6805L47.3115 23.3185L35.9357 28.5685L36.5643 29.9305ZM48.2753 23.6245C47.5246 22.3243 46.0878 21.5877 44.6506 21.2784C43.204 20.9671 41.6009 21.0514 40.3465 21.5531L40.9035 22.9459C41.837 22.5725 43.1303 22.4856 44.335 22.7449C45.5493 23.0062 46.5188 23.5822 46.9763 24.3745L48.2753 23.6245ZM34.2488 22.0812C35.6463 22.5778 36.2622 23.7111 36.3941 25.0664C36.5292 26.4546 36.1304 27.9567 35.6005 28.8745L36.8995 29.6245C37.5777 28.4498 38.054 26.6364 37.887 24.9211C37.7169 23.1731 36.8537 21.415 34.7512 20.6678L34.2488 22.0812ZM36.6689 28.6273L26.1693 21.5588L25.3316 22.8031L35.8312 29.8716L36.6689 28.6273ZM26.4158 22.5271C26.5229 22.3213 26.7842 22.0765 27.2896 21.8601C27.7845 21.6483 28.4405 21.4964 29.2078 21.4277C30.7428 21.2902 32.6028 21.4962 34.2488 22.0812L34.7512 20.6678C32.8972 20.0089 30.8199 19.7773 29.074 19.9337C28.2007 20.0119 27.3802 20.1898 26.6994 20.4811C26.0292 20.768 25.4155 21.1998 25.0851 21.8347L26.4158 22.5271ZM39.75 48.3745C43.3317 48.3745 46.0886 48.7629 47.9228 49.3625C48.8428 49.6632 49.4863 50.0029 49.8855 50.3372C50.2806 50.668 50.375 50.9361 50.375 51.1245H51.875C51.875 50.3464 51.4536 49.6937 50.8485 49.1871C50.2475 48.6839 49.4065 48.2694 48.3888 47.9367C46.3477 47.2695 43.4171 46.8745 39.75 46.8745V48.3745ZM50.375 51.1245C50.375 51.2024 50.3044 51.4673 49.6936 51.8524C49.1203 52.2138 48.2409 52.5671 47.0875 52.8747C44.7918 53.4869 41.5785 53.8745 38 53.8745V55.3745C41.6703 55.3745 45.0195 54.9786 47.474 54.324C48.6958 53.9982 49.7385 53.5973 50.4936 53.1213C51.2111 52.6689 51.875 52.013 51.875 51.1245H50.375ZM38 53.8745C34.4215 53.8745 31.2083 53.4869 28.9125 52.8747C27.7591 52.5671 26.8797 52.2138 26.3064 51.8524C25.6956 51.4673 25.625 51.2024 25.625 51.1245H24.125C24.125 52.013 24.7889 52.6689 25.5064 53.1213C26.2615 53.5973 27.3042 53.9982 28.526 54.324C30.9805 54.9786 34.3298 55.3745 38 55.3745V53.8745ZM25.625 51.1245C25.625 51.0492 25.6902 50.795 26.2672 50.4216L25.4521 49.1623C24.7599 49.6103 24.125 50.2562 24.125 51.1245H25.625Z" fill="#D575DD"/>
</svg>
