<svg width="18" height="24" viewBox="0 0 18 24" fill="none" xmlns="http://www.w3.org/2000/svg">
<path d="M1.5002 0.807421C1.27051 0.882421 0.876758 1.28555 0.806445 1.52461C0.72207 1.80586 0.72207 22.1871 0.806445 22.4684C0.881445 22.7262 1.27051 23.1152 1.52832 23.1902C1.80957 23.2699 16.1908 23.2699 16.4721 23.1902C16.7299 23.1152 17.1189 22.7262 17.1939 22.4684C17.2361 22.3184 17.2502 20.3309 17.2502 13.8668V5.45742L14.8924 3.1043L12.5393 0.746483L7.10176 0.751171C3.28145 0.755859 1.61738 0.76992 1.5002 0.807421ZM12.0002 3.6293V5.7668L12.1174 5.8793L12.2299 5.99648H14.3674H16.5002V14.1293V22.2668L16.383 22.3793L16.2705 22.4965H9.00019H1.72988L1.61738 22.3793L1.5002 22.2668V11.9965V1.72617L1.61738 1.61367L1.72988 1.49648H6.86738H12.0002V3.6293Z" fill="#4C5D70" stroke="#4C5D70" stroke-width="0.7"/>
<path d="M4.87539 3.77344C4.87539 4.07812 4.86133 4.17187 4.80977 4.17187C4.77695 4.17187 4.59883 4.24687 4.4207 4.33594C4.01758 4.5375 3.7457 4.81875 3.54883 5.24062C3.41289 5.52656 3.39883 5.59687 3.39883 6.00469C3.39883 6.42656 3.4082 6.46875 3.57227 6.80625C3.88633 7.43906 4.41133 7.79062 5.16133 7.86562C5.63945 7.91719 5.85039 8.01094 6.08945 8.27812C6.49727 8.74219 6.47383 9.32812 6.02383 9.77344C5.78477 10.0172 5.5457 10.125 5.25039 10.125C4.71133 10.125 4.12539 9.58125 4.12539 9.075C4.12539 9.01406 4.06445 9 3.7457 9H3.36133L3.39414 9.24375C3.43633 9.57656 3.65195 10.0266 3.89102 10.2844C4.07852 10.4859 4.65977 10.8281 4.80977 10.8281C4.86133 10.8281 4.87539 10.9219 4.87539 11.2266V11.625H5.25039H5.62539V11.2266C5.62539 10.9219 5.63945 10.8281 5.69102 10.8281C5.72383 10.8281 5.90195 10.7531 6.08008 10.6641C6.4832 10.4625 6.75508 10.1812 6.95195 9.75937C7.08789 9.47344 7.10195 9.40312 7.10195 8.99531C7.10195 8.57344 7.09258 8.53125 6.92852 8.19375C6.61445 7.56094 6.08945 7.20937 5.33945 7.13437C4.86133 7.08281 4.65039 6.98906 4.41133 6.72187C4.00352 6.25781 4.02695 5.67188 4.47695 5.22656C4.71602 4.98281 4.95508 4.875 5.25039 4.875C5.78945 4.875 6.37539 5.41875 6.37539 5.925C6.37539 5.98594 6.43633 6 6.75508 6H7.13945L7.10664 5.75156C7.06445 5.42344 6.84883 4.97344 6.60977 4.71562C6.42227 4.51406 5.84102 4.17187 5.69102 4.17187C5.63945 4.17187 5.62539 4.07812 5.62539 3.77344V3.375H5.25039H4.87539V3.77344Z" fill="#4C5D70" stroke="#4C5D70" stroke-width="0.4"/>
<path d="M3.00098 14.5V15H9.00098H15.001V14.5V14H9.00098H3.00098V14.5Z" fill="#4C5D70" stroke="#4C5D70" stroke-width="0.5"/>
<path d="M3.00098 20.5V21H9.00098H15.001V20.5V20H9.00098H3.00098V20.5Z" fill="#4C5D70" stroke="#4C5D70" stroke-width="0.5"/>
<path d="M3.00098 17.5V18H5.50098H8.00098V17.5V17H5.50098H3.00098V17.5Z" fill="#4C5D70" stroke="#4C5D70" stroke-width="0.5"/>
<path d="M10.001 17.5V18H12.501H15.001V17.5V17H12.501H10.001V17.5Z" fill="#4C5D70" stroke="#4C5D70" stroke-width="0.5"/>
</svg>
