<svg width="26" height="26" viewBox="0 0 26 26" fill="none" xmlns="http://www.w3.org/2000/svg">
<path d="M25.5538 9.48736L24.2822 8.21575C23.6882 7.62171 22.7217 7.62181 22.1277 8.21575L19.4492 10.8942V2.28516C19.4492 1.02512 18.4241 0 17.1641 0H2.28516C1.02512 0 0 1.02512 0 2.28516V23.7148C0 24.9749 1.02512 26 2.28516 26H17.1641C18.4241 26 19.4492 24.9749 19.4492 23.7148V17.6702L25.5538 11.6419C26.1478 11.0479 26.1478 10.0813 25.5538 9.48736ZM16.4437 18.4971L14.1523 19.5665L15.2206 17.2774L20.9068 11.5911L22.164 12.8483L16.4437 18.4971ZM17.9258 23.7148C17.9258 24.1349 17.5841 24.4766 17.1641 24.4766H2.28516C1.86514 24.4766 1.52344 24.1349 1.52344 23.7148V2.28516C1.52344 1.86514 1.86514 1.52344 2.28516 1.52344H17.1641C17.5841 1.52344 17.9258 1.86514 17.9258 2.28516V12.4176C13.7018 16.6416 13.9777 16.3381 13.8968 16.5114L11.886 20.8204C11.7505 21.1107 11.8111 21.4547 12.0376 21.6812C12.2641 21.9077 12.6082 21.9682 12.8983 21.8328L17.2073 19.8219C17.3653 19.7482 17.3913 19.7024 17.9258 19.1745V23.7148ZM23.248 11.7778L21.984 10.5139L23.205 9.29297L24.4762 10.565L23.248 11.7778Z" fill="#3BA4E8"/>
<path d="M4.0625 6.44922H15.4375C15.8582 6.44922 16.1992 6.10817 16.1992 5.6875C16.1992 5.26683 15.8582 4.92578 15.4375 4.92578H4.0625C3.64183 4.92578 3.30078 5.26683 3.30078 5.6875C3.30078 6.10817 3.64183 6.44922 4.0625 6.44922Z" fill="#3BA4E8"/>
<path d="M4.0625 10.5117H13C13.4207 10.5117 13.7617 10.1707 13.7617 9.75C13.7617 9.32933 13.4207 8.98828 13 8.98828H4.0625C3.64183 8.98828 3.30078 9.32933 3.30078 9.75C3.30078 10.1707 3.64183 10.5117 4.0625 10.5117Z" fill="#3BA4E8"/>
<path d="M10.5625 13.0508H4.0625C3.64183 13.0508 3.30078 13.3918 3.30078 13.8125C3.30078 14.2332 3.64183 14.5742 4.0625 14.5742H10.5625C10.9832 14.5742 11.3242 14.2332 11.3242 13.8125C11.3242 13.3918 10.9832 13.0508 10.5625 13.0508Z" fill="#3BA4E8"/>
</svg>
