<svg width="24" height="24" viewBox="0 0 24 24" fill="none" xmlns="http://www.w3.org/2000/svg">
<g clip-path="url(#clip0_14028_48411)">
<path d="M3.8625 0.318701C3.51094 0.440575 3.2625 0.660889 3.09844 0.9937L2.95312 1.27964V12V22.7203L3.09844 23.0109C3.26719 23.3484 3.55313 23.5921 3.90469 23.6953C4.26094 23.8031 19.7391 23.8031 20.0953 23.6953C20.4469 23.5921 20.7328 23.3484 20.9016 23.0109L21.0469 22.7203V14.0671C21.0469 5.55464 21.0422 5.40932 20.9531 5.20776C20.9016 5.09995 20.8125 4.94995 20.7516 4.87964C20.6953 4.80933 19.6359 3.79683 18.3984 2.62964C16.6219 0.951513 16.0922 0.478075 15.8906 0.379639L15.6328 0.257763L9.86719 0.248388C4.45781 0.239014 4.0875 0.2437 3.8625 0.318701ZM15.3375 2.95308L15.3516 5.20308L15.5063 5.35308L15.6563 5.50776L18.1172 5.52183L20.5781 5.53589L20.5688 14.1281L20.5547 22.725L20.4094 22.9078C20.3297 23.0062 20.1938 23.1281 20.1047 23.1796C19.9453 23.2734 19.8609 23.2734 12 23.2734C4.13906 23.2734 4.05469 23.2734 3.89531 23.1796C3.80625 23.1281 3.67031 23.0062 3.59063 22.9078L3.44531 22.725L3.43125 12.1265C3.42656 6.29526 3.43125 1.45776 3.44531 1.37339C3.48281 1.17183 3.77813 0.853075 4.00781 0.773388C4.1625 0.717138 5.10938 0.707764 9.75938 0.703075H15.3234L15.3375 2.95308ZM18.0703 2.97651L20.2547 5.03901L18.0844 5.05308C16.8891 5.05776 15.8859 5.05308 15.8578 5.03901C15.8109 5.02495 15.7969 4.56089 15.7969 2.94839C15.7969 1.72026 15.8156 0.890575 15.8391 0.89995C15.8625 0.904638 16.8656 1.84214 18.0703 2.97651Z" fill="#4C5D70" stroke="#4C5D70"/>
<path d="M6.05695 3.71237C5.96789 3.80143 5.98664 4.02175 6.08977 4.078C6.23039 4.14831 13.0882 4.14362 13.1632 4.06862C13.2335 3.99831 13.2335 3.78268 13.1632 3.71237C13.0835 3.63268 6.13664 3.63268 6.05695 3.71237Z" fill="#4C5D70" stroke="#4C5D70" stroke-width="0.5"/>
<path d="M6.08353 5.91084C5.98509 5.96709 5.97103 6.1874 6.0554 6.27178C6.13509 6.35146 13.082 6.35146 13.1617 6.27178C13.2507 6.18271 13.232 5.9624 13.1288 5.90615C13.0023 5.84053 6.19603 5.84521 6.08353 5.91084Z" fill="#4C5D70" stroke="#4C5D70" stroke-width="0.5"/>
<path d="M6.08353 8.11396C5.98509 8.17021 5.97103 8.39053 6.0554 8.4749C6.13509 8.55459 17.8632 8.55459 17.9429 8.4749C18.032 8.38584 18.0132 8.16553 17.9101 8.10928C17.7835 8.04365 6.19603 8.04834 6.08353 8.11396Z" fill="#4C5D70" stroke="#4C5D70" stroke-width="0.5"/>
<path d="M11.1797 10.4484C10.9688 10.5422 10.8797 10.7062 10.7719 11.2219L10.6641 11.7281L10.3125 11.8594C10.1203 11.9297 9.89531 12.0187 9.81563 12.0609C9.67031 12.1359 9.67031 12.1359 9.25313 11.8547C8.8875 11.6156 8.80781 11.5781 8.61094 11.5781C8.39062 11.5781 8.37656 11.5875 7.9125 12.0328C7.16719 12.7641 7.15781 12.8203 7.67344 13.5984L7.87969 13.9078L7.73906 14.2172C7.65938 14.3906 7.57031 14.6156 7.54219 14.7187C7.48125 14.925 7.49531 14.9156 6.91875 15.0281C6.23438 15.1594 6.14062 15.3 6.14062 16.2047C6.14062 16.8187 6.21563 17.0719 6.42656 17.1844C6.525 17.2312 7.36406 17.4375 7.47656 17.4375C7.48125 17.4375 7.50938 17.5219 7.54219 17.625C7.57031 17.7281 7.65938 17.9531 7.73906 18.1219L7.875 18.4359L7.59375 18.8859C7.18125 19.5375 7.19531 19.6031 7.88438 20.2875C8.5125 20.9062 8.60625 20.9203 9.29531 20.4703L9.68906 20.2172L9.84844 20.3016C9.9375 20.3484 10.1578 20.4422 10.3406 20.5078L10.6734 20.6344L10.7719 21.1312C10.8609 21.5906 10.8844 21.6469 11.0344 21.7875L11.2031 21.9375H11.9109C12.8953 21.9375 12.9469 21.9 13.1063 21.0609L13.1906 20.6297L13.4719 20.5266C13.6313 20.4703 13.8563 20.3766 13.9734 20.3156L14.1891 20.2078L14.5781 20.4703C15.2625 20.9297 15.3516 20.9156 16.0172 20.2359C16.2891 19.9641 16.5047 19.7016 16.5234 19.6266C16.5797 19.4156 16.5188 19.2422 16.2422 18.8297L15.9797 18.4359L16.1203 18.1266C16.2 17.9531 16.2844 17.7281 16.3172 17.6297L16.3688 17.4469L16.7719 17.3672C17.5969 17.2031 17.6766 17.1187 17.7094 16.3969C17.7375 15.7453 17.6906 15.4453 17.5406 15.2766C17.4141 15.1359 17.2453 15.075 16.6359 14.9531C16.3875 14.9062 16.3688 14.8922 16.3172 14.7187C16.2891 14.6156 16.2 14.3906 16.1203 14.2172L15.9797 13.9078L16.2469 13.5094C16.5375 13.0687 16.5984 12.8484 16.4859 12.6281C16.4484 12.5531 16.2047 12.2859 15.9469 12.0328C15.4828 11.5875 15.4688 11.5781 15.2484 11.5781C15.0516 11.5781 14.9719 11.6156 14.6063 11.8547L14.1891 12.1359L13.9969 12.0375C13.8891 11.9812 13.6688 11.8922 13.5047 11.8359L13.2 11.7328L13.0922 11.2219C13.0031 10.7953 12.9656 10.6922 12.8438 10.5703L12.7031 10.4297L11.9859 10.4203C11.5969 10.4156 11.2313 10.425 11.1797 10.4484ZM12.6469 11.4609C12.7078 11.7703 12.7781 12.0469 12.8063 12.0797C12.8297 12.1078 12.9984 12.1781 13.1859 12.2344C13.3734 12.2906 13.6547 12.4078 13.8188 12.4969C13.9781 12.5859 14.1469 12.6562 14.1938 12.6562C14.2359 12.6562 14.4797 12.5203 14.7281 12.3516C14.9813 12.1828 15.2016 12.0469 15.2203 12.0469C15.2438 12.0469 15.4453 12.2344 15.675 12.4641L16.0875 12.8766L15.7781 13.3406C15.6094 13.5938 15.4688 13.8469 15.4688 13.9031C15.4688 13.9547 15.5344 14.1328 15.6141 14.2922C15.6938 14.4516 15.8156 14.7422 15.8813 14.9437L16.0078 15.3047L16.3359 15.3844C16.5188 15.4266 16.7859 15.4875 16.9359 15.5156L17.2031 15.5672V16.1766C17.2031 16.7625 17.1984 16.7812 17.1 16.8047C17.0391 16.8187 16.7859 16.8703 16.5328 16.9219C16.2797 16.9734 16.0547 17.025 16.0312 17.0391C16.0078 17.0531 15.9469 17.2031 15.8906 17.3812C15.8344 17.5547 15.7172 17.8453 15.6281 18.0234C15.5391 18.2062 15.4688 18.3937 15.4688 18.4453C15.4688 18.4969 15.6047 18.7453 15.7734 18.9984C16.0219 19.3641 16.0734 19.4719 16.0359 19.5422C15.9844 19.6312 15.2672 20.2969 15.2156 20.2969C15.1969 20.2969 14.9813 20.1609 14.7281 19.9922C14.4797 19.8234 14.2406 19.6875 14.1984 19.6875C14.1562 19.6875 14.0109 19.7484 13.8703 19.8281C13.7297 19.9031 13.4484 20.0203 13.2422 20.0906C13.0359 20.1609 12.8438 20.2359 12.8109 20.2687C12.7828 20.2969 12.7078 20.5734 12.6469 20.8828L12.5344 21.4453H11.9297H11.325L11.2125 20.8828C11.1516 20.5734 11.0766 20.2969 11.0484 20.2687C11.0156 20.2359 10.8469 20.1656 10.6641 20.1094C10.4859 20.0484 10.1953 19.9312 10.0219 19.8469C9.84844 19.7578 9.68438 19.6875 9.66094 19.6875C9.63281 19.6875 9.40313 19.8234 9.14531 19.9922C8.89219 20.1609 8.6625 20.2969 8.63906 20.2969C8.62031 20.2969 8.41406 20.1094 8.18906 19.8844L7.77656 19.4719L8.08125 19.0031C8.25 18.75 8.39062 18.4969 8.39062 18.4453C8.39062 18.3937 8.32031 18.2062 8.23125 18.0234C8.14219 17.8453 8.025 17.55 7.96875 17.3766C7.85156 17.0156 7.86094 17.0203 7.26562 16.9031C7.04531 16.8609 6.82031 16.8141 6.76406 16.8047C6.66094 16.7812 6.65625 16.7625 6.65625 16.1766V15.5672L6.92813 15.5156C7.07344 15.4875 7.34063 15.4266 7.52344 15.3844L7.85156 15.3047L7.97813 14.9297C8.05313 14.7234 8.17031 14.4234 8.25 14.2687C8.325 14.1094 8.39062 13.9406 8.39062 13.8937C8.39062 13.8422 8.25 13.5938 8.08125 13.3406L7.77188 12.8766L8.18438 12.4641C8.41406 12.2344 8.61563 12.0469 8.63438 12.0469C8.65313 12.0469 8.87813 12.1828 9.13594 12.3516C9.38906 12.5203 9.63281 12.6562 9.675 12.6562C9.7125 12.6562 9.88125 12.5859 10.0406 12.4969C10.2047 12.4078 10.4859 12.2906 10.6734 12.2344C10.8609 12.1781 11.0297 12.1078 11.0531 12.0797C11.0813 12.0469 11.1469 11.7891 11.2031 11.5078C11.2547 11.2219 11.3109 10.9641 11.3203 10.9312C11.3391 10.8844 11.4844 10.875 11.9391 10.8844L12.5344 10.8984L12.6469 11.4609Z" fill="#4C5D70" stroke="#4C5D70" stroke-width="0.5"/>
<path d="M11.4609 13.9311C10.8 14.0577 10.1672 14.564 9.85313 15.2202C9.67969 15.5811 9.67969 15.5905 9.67969 16.1718C9.67969 16.7483 9.68438 16.7624 9.84844 17.1093C10.5656 18.614 12.4969 18.928 13.6031 17.7233C14.0109 17.278 14.2031 16.7858 14.2031 16.1718C14.2031 15.5249 13.9875 15.014 13.5281 14.5499C12.9797 14.0061 12.2391 13.7811 11.4609 13.9311ZM12.5719 14.4843C13.0359 14.6577 13.3688 14.9858 13.6031 15.4921C13.6922 15.6843 13.7109 15.8061 13.7109 16.1718C13.7109 16.5749 13.6969 16.6452 13.5609 16.9311C13.2938 17.4936 12.8297 17.8452 12.1922 17.9624C11.4469 18.103 10.6453 17.6671 10.2984 16.9311C10.1625 16.6452 10.1484 16.5749 10.1484 16.1718C10.1484 15.7686 10.1625 15.6983 10.2984 15.4124C10.7063 14.5499 11.6859 14.1515 12.5719 14.4843Z" fill="#4C5D70" stroke="#4C5D70" stroke-width="0.5"/>
</g>
<defs>
<clipPath id="clip0_14028_48411">
<rect width="24" height="24" fill="white"/>
</clipPath>
</defs>
</svg>
