<svg width="26" height="28" viewBox="0 0 26 28" fill="none" xmlns="http://www.w3.org/2000/svg">
<path d="M23.4356 0H7.0784C6.14233 0 5.38074 0.761591 5.38074 1.69766V5.49674C2.27777 6.38475 0 9.247 0 12.6313C0 16.0157 2.27771 18.8779 5.38074 19.7659V26.3023C5.38074 27.2384 6.14233 28 7.0784 28H20.4454C20.604 28 20.7561 27.937 20.8682 27.8249L24.9581 23.7349C25.0703 23.6228 25.1332 23.4707 25.1332 23.3121V1.69766C25.1332 0.761591 24.3717 0 23.4356 0ZM7.0784 1.19586H23.4356C23.7123 1.19586 23.9374 1.42096 23.9374 1.69766V3.50221H6.57659V1.69766C6.57659 1.42096 6.8017 1.19586 7.0784 1.19586ZM1.19586 12.6313C1.19586 9.19957 3.98773 6.40769 7.41945 6.40769C10.8512 6.40769 13.643 9.19957 13.643 12.6313C13.643 16.063 10.8512 18.8549 7.41945 18.8549C3.98773 18.8549 1.19586 16.063 1.19586 12.6313ZM6.57659 26.3023V20.0026C6.85335 20.034 7.13449 20.0508 7.4195 20.0508C9.64807 20.0508 11.6501 19.063 13.0113 17.5024H16.6749C17.0052 17.5024 17.2729 17.2347 17.2729 16.9044C17.2729 16.5742 17.0052 16.3065 16.6749 16.3065H13.8629C14.383 15.3982 14.7162 14.3701 14.8107 13.2746H16.6749C17.0051 13.2746 17.2728 13.0069 17.2728 12.6767C17.2728 12.3464 17.0051 12.0787 16.6749 12.0787H14.8183C14.7374 10.9857 14.4185 9.95797 13.9136 9.0469H16.6748C17.005 9.0469 17.2727 8.7792 17.2727 8.44897C17.2727 8.11874 17.005 7.85104 16.6748 7.85104H13.0887C11.7267 6.23817 9.69078 5.21178 7.41933 5.21178C7.13432 5.21178 6.85318 5.22852 6.57642 5.25995V4.69807H23.9372V22.7141H21.545C20.6089 22.7141 19.8474 23.4757 19.8474 24.4117V26.804H7.0784C6.8017 26.804 6.57659 26.579 6.57659 26.3023ZM21.0434 25.9584V24.4117C21.0434 24.135 21.2685 23.91 21.5452 23.91H23.0918L21.0434 25.9584Z" fill="#3BA4E8"/>
<path d="M19.0218 9.04742H21.0075C21.3377 9.04742 21.6054 8.77972 21.6054 8.44949C21.6054 8.11926 21.3377 7.85156 21.0075 7.85156H19.0218C18.6915 7.85156 18.4238 8.11926 18.4238 8.44949C18.4238 8.77972 18.6915 9.04742 19.0218 9.04742Z" fill="#3BA4E8"/>
<path d="M19.0218 13.274H21.0075C21.3377 13.274 21.6054 13.0063 21.6054 12.6761C21.6054 12.3458 21.3377 12.0781 21.0075 12.0781H19.0218C18.6915 12.0781 18.4238 12.3458 18.4238 12.6761C18.4238 13.0063 18.6915 13.274 19.0218 13.274Z" fill="#3BA4E8"/>
<path d="M19.0218 17.5005H21.0075C21.3377 17.5005 21.6054 17.2328 21.6054 16.9026C21.6054 16.5724 21.3377 16.3047 21.0075 16.3047H19.0218C18.6915 16.3047 18.4238 16.5724 18.4238 16.9026C18.4238 17.2328 18.6915 17.5005 19.0218 17.5005Z" fill="#3BA4E8"/>
<path d="M21.0088 21.731C21.339 21.731 21.6067 21.4633 21.6067 21.1331C21.6067 20.8029 21.339 20.5352 21.0088 20.5352H15.4153C15.0851 20.5352 14.8174 20.8029 14.8174 21.1331C14.8174 21.4633 15.0851 21.731 15.4153 21.731H21.0088Z" fill="#3BA4E8"/>
<path d="M12.0594 9.61611L11.33 8.88663C11.1335 8.69023 10.8723 8.58203 10.5945 8.58203C10.3167 8.58203 10.0555 8.69023 9.85905 8.88663L6.03287 12.7128L4.97522 11.6552C4.77882 11.4588 4.51761 11.3506 4.23983 11.3506C3.96204 11.3506 3.70084 11.4588 3.50443 11.6552L2.77479 12.3848C2.36933 12.7903 2.36933 13.4501 2.77484 13.8557L5.29736 16.3781C5.49383 16.5746 5.75503 16.6828 6.03287 16.6828H6.03293C6.31071 16.6828 6.57192 16.5746 6.76827 16.3782L12.0595 11.087C12.4649 10.6815 12.4649 10.0216 12.0594 9.61611ZM6.03282 15.4224L3.73056 13.1202L4.23977 12.611L5.60999 13.9812C5.84353 14.2148 6.2221 14.2148 6.45564 13.9812L10.5945 9.84235L11.1037 10.3516L6.03282 15.4224Z" fill="#3BA4E8"/>
</svg>
