<svg width="18" height="18" viewBox="0 0 18 18" fill="none" xmlns="http://www.w3.org/2000/svg">
<path d="M17.3939 0H0.606061C0.271394 0 0 0.267871 0 0.598193V3.56111C0 3.89143 0.271394 4.1593 0.606061 4.1593H1.35588L6.89394 10.5837V17.4018C6.89394 17.6224 7.01697 17.8251 7.214 17.9292C7.30364 17.9765 7.40194 18 7.49994 18C7.61752 18 7.73479 17.9663 7.83618 17.8995L10.8362 15.9255C11.0048 15.8146 11.1061 15.6277 11.1061 15.4278V10.5837L16.6441 4.1593H17.3939C17.7286 4.1593 18 3.89143 18 3.56111V0.598193C18 0.267871 17.7287 0 17.3939 0ZM10.0384 9.97607C9.94515 10.0843 9.89394 10.2216 9.89394 10.3637V15.1077L8.10606 16.2841V10.3637C8.10606 10.2216 8.05485 10.0842 7.96158 9.97607L2.94739 4.1593H15.0526L10.0384 9.97607ZM16.7879 2.96291H1.21212V1.19639H16.7879V2.96291Z" fill="#3BA4E8"/>
</svg>
