<svg width="15" height="15" viewBox="0 0 15 15" fill="none" xmlns="http://www.w3.org/2000/svg">
<path d="M7.21484 14C10.8047 14 13.7148 11.0899 13.7148 7.5C13.7148 3.91015 10.8047 1 7.21484 1C3.62499 1 0.714844 3.91015 0.714844 7.5C0.714844 11.0899 3.62499 14 7.21484 14Z" stroke="#4C5D70" stroke-linecap="round" stroke-linejoin="round"/>
<path d="M7.21523 14C8.94857 12.4242 9.81523 10.2576 9.81523 7.5C9.81523 4.74242 8.94857 2.57576 7.21523 1C5.4819 2.57576 4.61523 4.74242 4.61523 7.5C4.61523 10.2576 5.4819 12.4242 7.21523 14Z" stroke="#4C5D70" stroke-linecap="round" stroke-linejoin="round"/>
<path d="M1.03906 9.44688H13.3891M1.03906 5.54688H13.3891H1.03906Z" stroke="#4C5D70" stroke-linecap="round" stroke-linejoin="round"/>
</svg>
