<svg width="30" height="30" viewBox="0 0 30 30" fill="none" xmlns="http://www.w3.org/2000/svg">
<circle cx="15" cy="15" r="15" fill="#3BA4E8"/>
<path d="M14.5314 7.52438C12.4433 7.81105 10.6691 9.287 10.0183 11.2743C9.50306 12.851 9.73937 14.6059 10.6459 15.9927C10.8357 16.2833 11.0604 16.5505 11.3703 16.8605C12.1799 17.674 13.0438 18.1388 14.2021 18.3906C14.4578 18.4488 14.6941 18.4643 15.2674 18.4604C15.9221 18.4604 16.0499 18.4488 16.4335 18.3597C17.5375 18.1001 18.4208 17.6004 19.2033 16.7907C19.7921 16.1825 20.2182 15.4775 20.4778 14.6872C20.6754 14.0829 20.7257 13.7304 20.7257 12.9827C20.7257 12.235 20.6754 11.8825 20.4778 11.2782C20.2028 10.4375 19.7844 9.76736 19.1258 9.10493C18.3084 8.29141 17.3864 7.79168 16.2862 7.57862C15.9027 7.50114 14.911 7.47015 14.5314 7.52438ZM16.3715 8.77565C17.983 9.22115 19.2188 10.5538 19.5287 12.1808C19.6062 12.5837 19.6023 13.3856 19.5248 13.7962C19.3815 14.5632 18.9825 15.3419 18.4091 15.985C18.2077 16.2135 18.2503 16.3104 18.0566 15.1947C17.983 14.7569 17.9094 14.3889 17.8939 14.3734C17.8745 14.3579 17.4019 14.2611 16.8363 14.1526L15.8098 13.9589L15.6471 14.0558C15.5541 14.11 15.4805 14.1604 15.4805 14.1681C15.4805 14.1759 15.558 14.6252 15.6548 15.1676C15.7516 15.7138 15.8291 16.1942 15.8291 16.2368C15.8291 16.3104 15.2945 17.1239 15.248 17.1239C15.2016 17.1239 14.667 16.3026 14.667 16.2329C14.667 16.1903 14.7444 15.7099 14.8413 15.1637L15.0195 14.1681L14.911 14.079C14.849 14.0325 14.7677 13.9822 14.7289 13.9667C14.6631 13.9434 12.6913 14.2921 12.6138 14.3386C12.5944 14.3502 12.5169 14.7259 12.4395 15.1714C12.2458 16.3142 12.2884 16.2135 12.0869 15.985C11.5136 15.3419 11.1146 14.5632 10.9713 13.7962C10.9364 13.6103 10.9093 13.2694 10.9093 12.9827C10.9093 12.2079 11.041 11.6539 11.3896 10.976C11.6143 10.546 11.8003 10.2942 12.176 9.9107C12.8036 9.27925 13.6326 8.84925 14.5469 8.6788C14.6437 8.66331 15.0117 8.65556 15.3643 8.66331C15.9066 8.67493 16.0577 8.69042 16.3715 8.77565Z" fill="white"/>
<path d="M14.7884 9.98512C13.9323 10.2137 13.3551 11.0931 13.4984 11.9531C13.6572 12.9293 14.5598 13.5956 15.5128 13.4484C16.4813 13.2934 17.1592 12.3676 16.9965 11.4185C16.8183 10.3764 15.7956 9.71395 14.7884 9.98512Z" fill="white"/>
<path d="M11.3045 18.8816C10.5878 20.5396 10.2973 21.2137 10.3089 21.2253C10.3128 21.2292 10.7738 21.0781 11.3355 20.8844C11.8972 20.6907 12.3698 20.5474 12.3853 20.5629C12.4008 20.5822 12.6139 21.0161 12.8579 21.5352C13.102 22.0543 13.3112 22.4843 13.3189 22.4921C13.3267 22.5037 13.6676 21.7483 14.0705 20.8147C14.547 19.7261 14.791 19.1101 14.7678 19.0947C14.7445 19.0792 14.6671 19.0637 14.5973 19.0637C14.3726 19.0637 13.6986 18.9126 13.2725 18.7654C12.8502 18.622 12.3117 18.3702 11.9747 18.1572C11.8701 18.0874 11.7616 18.0216 11.7384 18.0061C11.7074 17.9906 11.5602 18.2889 11.3045 18.8816Z" fill="white"/>
<path d="M18.6006 18.1185C18.2946 18.3355 17.605 18.6725 17.175 18.8119C16.8419 18.9243 16.4274 19.0095 15.8076 19.0909L15.6836 19.1064L16.0516 19.9509C16.2531 20.4119 16.5823 21.1789 16.7877 21.6515C16.993 22.128 17.1673 22.5076 17.1789 22.4999C17.1867 22.4883 17.3959 22.0583 17.6399 21.5392C17.884 21.0201 18.097 20.5823 18.1125 20.5668C18.128 20.5513 18.6006 20.6947 19.1623 20.8845C19.7241 21.0782 20.1889 21.2331 20.1928 21.2254C20.2006 21.2176 18.8292 18.0255 18.806 18.0023C18.7982 17.9907 18.7052 18.0449 18.6006 18.1185Z" fill="white"/>
</svg>
