<svg width="20" height="20" viewBox="0 0 20 20" fill="none" xmlns="http://www.w3.org/2000/svg">
<g clip-path="url(#clip0_6863_82932)">
<path d="M1.07422 0.0596824C0.640625 0.196401 0.332031 0.465932 0.140625 0.86437L0.0195312 1.11828V3.34484V5.5714L0.148438 5.83312C0.304688 6.15343 0.613281 6.4464 0.929688 6.57531L1.15234 6.66515L4.43359 6.67687C6.78906 6.68468 7.78125 6.67687 7.94922 6.64562C8.57422 6.52453 9.01953 6.07921 9.14062 5.45421C9.17188 5.29015 9.17969 4.61046 9.17188 3.18859C9.16016 1.16906 9.16016 1.15734 9.07031 0.934682C8.94141 0.618276 8.64844 0.309682 8.32812 0.153432L8.06641 0.0245261L4.64844 0.0167136C1.96094 0.00890112 1.19531 0.0206199 1.07422 0.0596824ZM7.86719 1.34093C7.92188 1.41906 7.92969 1.67296 7.92969 3.35265C7.92969 5.22765 7.92578 5.28234 7.85156 5.35656C7.77344 5.43468 7.72266 5.43468 4.59766 5.43468C1.78906 5.43468 1.41406 5.42687 1.33594 5.37218L1.25 5.31359V3.35656C1.25 1.58703 1.25781 1.39171 1.31641 1.32531C1.375 1.2589 1.52734 1.25499 4.59375 1.25499H7.80859L7.86719 1.34093Z" fill="#3BA4E8"/>
<path d="M11.911 0.0596819C11.497 0.169057 11.0946 0.532338 10.9306 0.934682L10.8407 1.15734L10.829 5.68859C10.8212 8.96203 10.829 10.2862 10.8602 10.4542C10.9813 11.0792 11.4266 11.5245 12.0516 11.6456C12.2196 11.6769 13.2118 11.6847 15.5673 11.6769L18.8485 11.6652L19.0712 11.5753C19.3876 11.4464 19.6962 11.1534 19.8524 10.8331L19.9813 10.5714V5.84484V1.11828L19.8602 0.864369C19.704 0.536244 19.4696 0.301869 19.1493 0.149526L18.8876 0.0245256L15.4891 0.0167131C12.8837 0.0128069 12.0477 0.0206194 11.911 0.0596819ZM18.6806 1.3214C18.747 1.37999 18.7509 1.5714 18.7509 5.84874V10.3136L18.6649 10.3722C18.5868 10.4269 18.2118 10.4347 15.4032 10.4347C12.2782 10.4347 12.2274 10.4347 12.1493 10.3566C12.0712 10.2784 12.0712 10.2277 12.0712 5.85265C12.0712 1.91125 12.079 1.41906 12.1337 1.34093L12.1923 1.25499H15.3993C18.329 1.25499 18.6141 1.2589 18.6806 1.3214Z" fill="#3BA4E8"/>
<path d="M1.17188 8.36719C0.734375 8.45312 0.324219 8.78516 0.125 9.21484L0.0195312 9.4375V14.1641V18.8906L0.140625 19.1445C0.292969 19.4688 0.535156 19.7109 0.859375 19.8633L1.11328 19.9844H4.58984H8.06641L8.32812 19.8555C8.64844 19.6992 8.94141 19.3906 9.07031 19.0742L9.16016 18.8516L9.17188 14.3203C9.17969 11.0469 9.17188 9.72266 9.14062 9.55469C9.02344 8.94141 8.58594 8.49609 7.97656 8.36719C7.72656 8.31641 1.44531 8.3125 1.17188 8.36719ZM7.85156 9.65234C7.92969 9.73047 7.92969 9.78125 7.92969 14.1562C7.92969 18.0977 7.92188 18.5898 7.86719 18.668L7.80859 18.7539H4.60156C1.67188 18.7539 1.38672 18.75 1.32031 18.6875C1.25391 18.6289 1.25 18.4375 1.25 14.1602V9.69531L1.33594 9.63672C1.41406 9.58203 1.78906 9.57422 4.59766 9.57422C7.72266 9.57422 7.77344 9.57422 7.85156 9.65234Z" fill="#3BA4E8"/>
<path d="M11.9735 13.3789C11.3876 13.5234 10.9774 13.957 10.8602 14.5547C10.829 14.7188 10.8212 15.3945 10.829 16.8203C10.8407 18.8398 10.8407 18.8516 10.9306 19.0742C11.0595 19.3906 11.3524 19.6992 11.6727 19.8555L11.9345 19.9844H15.411H18.8876L19.1493 19.8594C19.4696 19.707 19.704 19.4727 19.8602 19.1445L19.9813 18.8906V16.6641V14.4375L19.8524 14.1758C19.6962 13.8555 19.3876 13.5625 19.0712 13.4336L18.8485 13.3438L15.5087 13.3359C12.9735 13.332 12.122 13.3398 11.9735 13.3789ZM18.6649 14.6367L18.7509 14.6953V16.6523C18.7509 18.4219 18.7431 18.6172 18.6845 18.6836C18.6259 18.75 18.4735 18.7539 15.4071 18.7539H12.1923L12.1337 18.668C12.079 18.5898 12.0712 18.3359 12.0712 16.6562C12.0712 14.7812 12.0751 14.7266 12.1493 14.6523C12.2274 14.5742 12.2782 14.5742 15.4032 14.5742C18.2118 14.5742 18.5868 14.582 18.6649 14.6367Z" fill="#3BA4E8"/>
</g>
<defs>
<clipPath id="clip0_6863_82932">
<rect width="20" height="20" fill="white"/>
</clipPath>
</defs>
</svg>
