<svg width="24" height="24" viewBox="0 0 24 24" fill="none" xmlns="http://www.w3.org/2000/svg">
<path d="M18.6051 6.98949C18.5736 6.98949 18.5525 6.98949 18.521 6.98949H18.4685C16.482 6.92643 15 5.39189 15 3.5C15 1.56607 16.5766 0 18.5 0C20.4234 0 22 1.57658 22 3.5C21.9895 5.4024 20.5075 6.93694 18.6156 7C18.6156 6.98949 18.6156 6.98949 18.6051 6.98949ZM18.5 1.56607C17.4384 1.56607 16.5766 2.42793 16.5766 3.4895C16.5766 4.53004 17.3859 5.37088 18.4264 5.41292C18.4369 5.40241 18.521 5.40241 18.6156 5.41292C19.6351 5.36037 20.4234 4.51952 20.4339 3.4895C20.4339 2.42793 19.5721 1.56607 18.5 1.56607Z" fill="#3BA4E8"/>
<path d="M18.9518 15C18.5338 15 18.1158 14.9678 17.6978 14.8927C17.2583 14.8177 16.969 14.3994 17.044 13.9597C17.119 13.5199 17.537 13.2304 17.9765 13.3054C19.2948 13.5307 20.6881 13.284 21.6206 12.6619C22.1243 12.3295 22.3923 11.9112 22.3923 11.4929C22.3923 11.0746 22.1136 10.667 21.6206 10.3346C20.6881 9.71251 19.2733 9.46583 17.9443 9.70179C17.5049 9.78759 17.0869 9.48728 17.0118 9.04755C16.9368 8.60782 17.2262 8.18955 17.6656 8.11447C19.4127 7.80344 21.224 8.13591 22.5102 8.99392C23.4534 9.62671 24 10.5276 24 11.4929C24 12.4474 23.4641 13.3591 22.5102 14.0026C21.5348 14.6461 20.2701 15 18.9518 15Z" fill="#3BA4E8"/>
<path d="M5.40541 7C5.3949 7 5.38439 7 5.38439 7C3.49249 6.93694 2.01051 5.4024 2 3.5105C2 1.57657 3.57658 0 5.5 0C7.42343 0 9 1.57658 9 3.5C9 5.4024 7.51802 6.93694 5.62613 7L5.40541 6.21171L5.47898 7C5.45796 7 5.42643 7 5.40541 7ZM5.51051 5.42342C5.57357 5.42342 5.62613 5.42342 5.68919 5.43393C6.62463 5.39189 7.44444 4.55104 7.44444 3.5105C7.44444 2.44894 6.58258 1.58708 5.52102 1.58708C4.45946 1.58708 3.5976 2.44894 3.5976 3.5105C3.5976 4.54053 4.3964 5.37087 5.41592 5.43393C5.42643 5.42342 5.46847 5.42342 5.51051 5.42342Z" fill="#3BA4E8"/>
<path d="M5.0482 15C3.72988 15 2.46515 14.6461 1.48981 14.0026C0.54662 13.3698 0 12.4581 0 11.4929C0 10.5383 0.54662 9.62671 1.48981 8.99392C2.77597 8.13591 4.58733 7.80344 6.33437 8.11447C6.77381 8.18955 7.0632 8.60782 6.98817 9.04755C6.91314 9.48728 6.49514 9.78759 6.0557 9.70179C4.72666 9.46583 3.3226 9.71251 2.37941 10.3346C1.87566 10.667 1.60771 11.0746 1.60771 11.4929C1.60771 11.9112 1.88638 12.3295 2.37941 12.6619C3.31188 13.284 4.70522 13.5307 6.02354 13.3054C6.46298 13.2304 6.88099 13.5307 6.95602 13.9597C7.03104 14.3994 6.74166 14.8177 6.30222 14.8927C5.88421 14.9678 5.46621 15 5.0482 15Z" fill="#3BA4E8"/>
<path d="M11.6051 14.9895C11.5736 14.9895 11.5526 14.9895 11.521 14.9895H11.4685C9.48198 14.9264 8 13.3919 8 11.5C8 9.56607 9.57658 8 11.5 8C13.4234 8 15 9.57658 15 11.5C14.9895 13.4024 13.5075 14.9369 11.6156 15C11.6156 14.9895 11.6156 14.9895 11.6051 14.9895ZM11.5 9.56607C10.4384 9.56607 9.57658 10.4279 9.57658 11.4895C9.57658 12.53 10.3859 13.3709 11.4264 13.4129C11.4369 13.4024 11.521 13.4024 11.6156 13.4129C12.6351 13.3604 13.4234 12.5195 13.4339 11.4895C13.4339 10.4384 12.5721 9.56607 11.5 9.56607Z" fill="#3BA4E8"/>
<path d="M12.5 24C11.1017 24 9.70339 23.6682 8.6197 22.9939C7.59428 22.3624 7 21.4633 7 20.5C7 19.5474 7.58263 18.6269 8.6197 17.9954C10.7987 16.6682 14.2129 16.6682 16.3803 17.9954C17.4057 18.6269 18 19.526 18 20.4893C18 21.4419 17.4174 22.3624 16.3803 22.9939C15.2966 23.6575 13.8983 24 12.5 24ZM9.58686 19.344C9.0392 19.6759 8.74788 20.0933 8.74788 20.5107C8.74788 20.9281 9.05085 21.3349 9.58686 21.6667C11.16 22.6407 13.8284 22.6407 15.4015 21.6667C15.9492 21.3349 16.2405 20.9174 16.2405 20.5C16.2405 20.0826 15.9375 19.6759 15.4015 19.344C13.84 18.37 11.1716 18.3807 9.58686 19.344Z" fill="#3BA4E8"/>
</svg>
