<svg width="28" height="22" viewBox="0 0 28 22" fill="none" xmlns="http://www.w3.org/2000/svg">
<path d="M26.1793 7.93775L21.3935 2.6785C20.4466 1.73152 18.9039 1.73027 17.948 2.68613C17.6451 2.98904 17.4389 3.3518 17.332 3.73877C16.38 3.00945 15.0066 3.082 14.1296 3.95899C13.8279 4.2619 13.6217 4.62465 13.5123 5.01032C12.5602 4.28356 11.1868 4.3548 10.3111 5.23178C10.0146 5.52837 9.81093 5.88217 9.70019 6.25895L7.44475 4.0035C6.49777 3.05652 4.95512 3.05527 3.99926 4.01114C3.05103 4.95811 3.05103 6.50076 3.99926 7.44899L12.6646 16.1143L7.52493 16.9212C6.13627 17.1198 5.08877 18.3264 5.08877 19.7304C5.08877 20.783 5.94535 21.6396 6.99799 21.6396H18.9994C20.8691 21.6396 22.6269 20.9115 23.9493 19.5891L25.9514 17.587C27.2726 16.267 27.9994 14.5105 27.9994 12.6433C27.9994 10.8996 27.3528 9.22838 26.1793 7.93775ZM25.0515 16.6871L23.0494 18.6892C21.9675 19.7711 20.5292 20.3667 18.9993 20.3667H6.99793C6.64663 20.3667 6.3615 20.0816 6.3615 19.7303C6.3615 18.9564 6.93934 18.2907 7.71448 18.18L14.0977 17.177C14.3344 17.1401 14.5292 16.9734 14.6043 16.7455C14.6781 16.519 14.6183 16.2682 14.449 16.099L4.8991 6.54909C4.44727 6.09726 4.44727 5.36155 4.90548 4.90209C5.13202 4.6768 5.42861 4.5635 5.72519 4.5635C6.02178 4.5635 6.31831 4.6768 6.54491 4.90334L12.9128 11.2713C13.161 11.5195 13.5645 11.5195 13.8127 11.2713C13.9362 11.1465 13.9986 10.9836 13.9986 10.8207C13.9986 10.6577 13.9362 10.4949 13.8115 10.3701L11.2111 7.76974C10.7593 7.31791 10.7593 6.58346 11.2187 6.12399C11.6693 5.67341 12.4063 5.67341 12.8569 6.12399L15.4585 8.7256C15.7067 8.9738 16.1102 8.9738 16.3584 8.7256C16.4818 8.60085 16.5442 8.43797 16.5442 8.27503C16.5442 8.11209 16.4819 7.94921 16.3571 7.82445L15.0296 6.49688C14.5777 6.04505 14.5777 5.3106 15.0372 4.85113C15.4878 4.40056 16.2247 4.40056 16.6753 4.85113L18.0092 6.18502C18.0118 6.18628 18.0104 6.18628 18.0104 6.18628L18.0117 6.18753C18.013 6.18878 18.013 6.18878 18.013 6.18878C18.0142 6.19004 18.0142 6.19004 18.0142 6.19004H18.0155C18.0167 6.19004 18.0167 6.19129 18.0167 6.19129C18.2662 6.42803 18.6608 6.42296 18.9038 6.17858C19.152 5.93038 19.152 5.52688 18.9038 5.27868L18.8491 5.22397C18.6302 5.00506 18.5093 4.71355 18.5093 4.40426C18.5093 4.09496 18.6289 3.80476 18.8555 3.57822C19.3087 3.12764 20.0418 3.1289 20.4733 3.55656L25.2387 8.79422C26.1971 9.84948 26.7266 11.2165 26.7266 12.6433C26.7266 14.1707 26.1322 15.6064 25.0515 16.6871Z" fill="#3BA4E8"/>
<path d="M10.9411 3.37682C10.0145 1.32631 7.96784 0 5.72767 0C2.56981 0 0 2.56981 0 5.72767C0 7.96784 1.32625 10.0145 3.37676 10.9424C3.46202 10.9806 3.55115 10.9984 3.63898 10.9984C3.88079 10.9984 4.11247 10.8584 4.21938 10.6242C4.36323 10.3035 4.22063 9.9267 3.9012 9.7816C2.30509 9.05992 1.27285 7.46888 1.27285 5.72767C1.27285 3.27115 3.27115 1.27279 5.72773 1.27279C7.46894 1.27279 9.05998 2.30503 9.78166 3.90114C9.92551 4.22189 10.3035 4.36574 10.623 4.21932C10.9437 4.07428 11.0862 3.69757 10.9411 3.37682Z" fill="#3BA4E8"/>
</svg>
