<svg width="24" height="24" viewBox="0 0 24 24" fill="none" xmlns="http://www.w3.org/2000/svg">
<path d="M11.7891 0.499609C10.7016 0.640234 9.76409 1.1043 9.05628 1.84492C8.51253 2.42148 8.17034 3.03086 7.9594 3.79961C7.80471 4.3668 7.8094 5.42148 7.96409 5.99805C8.39534 7.60586 9.61878 8.80117 11.236 9.19492C11.8078 9.33086 12.661 9.33086 13.2282 9.19492C14.0532 8.99336 14.6438 8.6793 15.2344 8.12148C16.1203 7.28711 16.575 6.30742 16.6266 5.1168C16.6594 4.42773 16.5938 3.98242 16.3828 3.38242C15.9328 2.12617 14.8875 1.11367 13.6125 0.701172C13.0125 0.508984 12.3141 0.429296 11.7891 0.499609ZM12.9985 1.52617C13.4578 1.62461 14.1188 1.95273 14.475 2.25742C15.7453 3.34023 16.0641 5.21523 15.225 6.64492C14.9907 7.05273 14.2922 7.72305 13.8985 7.9293C13.2985 8.23867 12.9563 8.31836 12.211 8.31836C11.6203 8.31367 11.5172 8.29961 11.1797 8.18711C10.6266 7.99492 10.2 7.72305 9.77346 7.2918C9.11253 6.62617 8.80315 5.8668 8.80315 4.89648C8.80315 3.90742 9.10784 3.1668 9.82034 2.45898C10.2985 1.97617 10.7672 1.70898 11.3907 1.54492C11.8313 1.43242 12.5391 1.42305 12.9985 1.52617Z" fill="#4C5D70"/>
<path d="M14.4609 2.88281C14.3859 2.91562 13.6687 3.6 12.8672 4.40156L11.4141 5.85938L10.725 5.17031C10.0594 4.50469 10.0266 4.47656 9.83906 4.47656C9.58594 4.47656 9.375 4.69219 9.375 4.95469C9.375 5.11875 9.43594 5.18906 10.2984 6.05625L11.2219 6.98438H11.4328H11.6437L13.3453 5.28281C15.0609 3.57656 15.1547 3.46406 15.1031 3.20156C15.0797 3.075 14.8687 2.87812 14.7187 2.84531C14.6531 2.83125 14.5406 2.84531 14.4609 2.88281Z" fill="#4C5D70"/>
<path d="M4.8284 7.89531C4.5284 7.97969 4.26121 8.15313 4.07371 8.3875C3.8159 8.71563 0.637775 13.7125 0.57215 13.8953C0.417463 14.3359 0.5159 14.8984 0.825275 15.3016C0.970588 15.4891 1.96903 16.1453 2.28309 16.2484C2.5784 16.3516 3.01434 16.3141 3.31903 16.1641L3.56278 16.0422L3.6284 16.1453C3.6659 16.2063 3.85809 16.3844 4.05028 16.5438L4.40184 16.8344L4.26121 17.05C3.99403 17.4719 3.97059 17.7531 4.16278 18.1609C4.39715 18.6531 5.0159 19.1969 5.44246 19.2813C5.53153 19.3 5.59246 19.3703 5.67215 19.5484C5.8034 19.825 6.24871 20.2563 6.53934 20.3922C6.64246 20.4391 6.81121 20.4813 6.91434 20.4813C7.09246 20.4813 7.10652 20.4906 7.23777 20.7391C7.41121 21.0766 7.85184 21.4844 8.16121 21.5922C8.34403 21.6578 8.41902 21.7188 8.50809 21.8641C8.63465 22.0797 9.41746 22.8203 9.64246 22.9375C9.72684 22.9797 9.90028 23.0125 10.0409 23.0125C10.2753 23.0125 10.3831 22.975 10.6221 22.825C10.7112 22.7688 10.7487 22.7875 11.0206 23.0125C11.4518 23.3688 11.7565 23.5 12.1643 23.5C12.5581 23.4953 12.8628 23.3688 13.1393 23.0922C13.3362 22.8953 13.519 22.5344 13.5706 22.2578C13.5987 22.1078 13.6268 22.0797 13.7956 22.0281C14.3862 21.8547 14.7565 21.4516 14.8503 20.8891C14.8784 20.7203 14.9018 20.6969 15.0706 20.6453C15.6612 20.4719 16.0128 20.1016 16.1487 19.525C16.2003 19.3 16.2003 19.2953 16.4815 19.2109C16.8425 19.0984 17.1753 18.8125 17.3253 18.4891C17.4096 18.3109 17.4378 18.175 17.4378 17.9031V17.5516L18.305 16.8484C19.1253 16.1828 19.1909 16.1359 19.6128 15.9906L20.0581 15.8313L20.2221 16.0141C20.3112 16.1172 20.4987 16.2578 20.6346 16.3375C20.855 16.4594 20.9253 16.4734 21.2909 16.4734H21.6987L22.2846 16.1734C22.9737 15.8219 23.18 15.6578 23.3675 15.3203C23.4706 15.1234 23.5034 14.9969 23.5221 14.7156C23.5409 14.2938 23.6768 14.5891 21.8018 10.9656C20.644 8.72969 20.5081 8.48125 20.2784 8.26563C19.9643 7.96563 19.6315 7.84844 19.1909 7.88594C18.9471 7.90469 18.7878 7.96094 18.3425 8.18125C17.3956 8.65469 17.0909 9.05781 17.0862 9.84063V10.1922L16.3362 10.45C15.5909 10.7031 15.5815 10.7078 15.0237 10.7078C14.5128 10.7078 14.405 10.6891 13.8753 10.5344C13.5518 10.4406 13.1956 10.3516 13.0784 10.3328C12.8534 10.3047 12.2909 10.4078 11.1284 10.6938L10.519 10.8391L10.2378 10.6516C9.48777 10.1406 8.8409 9.93438 7.98777 9.93438H7.46746L7.43465 9.64844C7.40184 9.30156 7.2659 8.97813 7.06434 8.77188C6.84871 8.54688 6.08934 8.02188 5.85965 7.94219C5.55496 7.83438 5.12371 7.81563 4.8284 7.89531ZM19.5893 8.74844C19.6784 8.82813 22.3081 13.8531 22.5143 14.3453C22.6081 14.5609 22.6081 14.5656 22.519 14.7391C22.444 14.8797 22.3409 14.9641 21.9612 15.1656C21.4175 15.4563 21.1784 15.4938 20.9862 15.3156C20.9206 15.2547 20.2409 14.0031 19.4721 12.5359C18.3003 10.2906 18.0753 9.82656 18.0565 9.62969C18.0331 9.33438 18.0987 9.26875 18.7362 8.92188C19.2284 8.65938 19.43 8.61719 19.5893 8.74844ZM5.85028 9.1375C6.10809 9.31563 6.35652 9.5125 6.39402 9.56875C6.48309 9.69063 6.48777 9.85469 6.41746 9.99531C6.38934 10.0516 5.62528 11.2563 4.72059 12.6672C3.55809 14.4859 3.03778 15.2594 2.94403 15.3063C2.71903 15.4234 2.5784 15.3859 2.11903 15.0813C1.40653 14.6125 1.33621 14.4625 1.60809 14.0078C2.15653 13.1078 4.81434 9.00156 4.90809 8.9125C5.11903 8.72031 5.31121 8.76719 5.85028 9.1375ZM8.48465 10.9422C8.60184 10.9563 8.79871 11.0031 8.92527 11.0406L9.15028 11.1156L8.87371 11.2516C7.94559 11.6969 7.63621 12.9297 8.23152 13.8063C8.52684 14.2422 9.0659 14.5281 9.59559 14.5281C9.74559 14.5281 10.3596 14.4203 10.9643 14.2938C11.569 14.1625 12.1409 14.0594 12.2393 14.0594C12.4081 14.0594 12.5253 14.1531 14.1659 15.5875C16.7159 17.8188 16.4534 17.5656 16.4534 17.8234C16.4534 18.1188 16.3081 18.2781 16.0409 18.2781C15.8675 18.2781 15.7971 18.2266 15.1128 17.6313C14.1331 16.7875 14.1237 16.7781 13.9409 16.7781C13.7581 16.7781 13.5237 16.9563 13.4815 17.1344C13.4159 17.3922 13.5237 17.5281 14.3206 18.2078C15.1737 18.9391 15.2768 19.075 15.1925 19.3609C15.1268 19.5813 14.9862 19.6844 14.7518 19.6844C14.555 19.6844 14.569 19.6938 13.4956 18.6672C13.1065 18.2922 13.0831 18.2781 12.8721 18.2781C12.5675 18.2781 12.4221 18.4234 12.4221 18.7281V18.9484L13.1487 19.6469C13.9409 20.4156 14.0018 20.5188 13.8518 20.8094C13.7581 20.9875 13.505 21.1094 13.3081 21.0672C13.2331 21.0484 12.9518 20.8375 12.6565 20.5703C12.1034 20.0781 12.0003 20.0125 11.7378 20.0125C11.4378 20.0125 11.2268 20.3406 11.344 20.6219C11.3768 20.6969 11.6065 20.9453 11.855 21.1656C12.5862 21.8266 12.6096 21.8547 12.6096 22.0984C12.6096 22.3844 12.4597 22.5438 12.1925 22.5438C12.0378 22.5438 11.9581 22.5063 11.7331 22.3188C11.3253 21.9766 11.33 21.9859 11.3909 21.6625C11.5034 21.1047 11.255 20.5141 10.7722 20.1813C10.519 20.0078 10.5097 19.9984 10.5565 19.8625C10.5847 19.7875 10.594 19.5813 10.5847 19.4078C10.5378 18.7891 10.069 18.2078 9.50653 18.0719C9.4034 18.0484 9.37527 18.0063 9.35184 17.8656C9.24871 17.2703 8.94871 16.8531 8.49402 16.6844C8.21277 16.5766 7.85184 16.5438 7.61746 16.6047C7.48621 16.6375 7.47215 16.6281 7.36434 16.4266C7.21434 16.1406 6.8909 15.8641 6.60028 15.7656C6.18778 15.6297 5.70965 15.7328 5.27371 16.0516C5.18465 16.1125 5.15184 16.0984 4.8284 15.8219C4.63621 15.6578 4.42996 15.4422 4.37371 15.3438L4.27528 15.1609L5.6159 13.0516L6.96121 10.9422L7.4534 10.9188C7.95496 10.8906 8.11434 10.8953 8.48465 10.9422ZM18.5909 12.9156C19.1393 13.9703 19.5893 14.8563 19.594 14.8844C19.594 14.9125 19.4065 15.0063 19.1768 15.0859C18.8018 15.2219 18.6846 15.2969 17.8409 15.9578C17.3347 16.3563 16.9128 16.6844 16.8987 16.6844C16.8893 16.6844 16.4065 16.2484 15.8346 15.7188C15.2581 15.1844 14.7143 14.7063 14.6253 14.6453C14.5362 14.5891 14.1472 14.275 13.7581 13.9516C13.0034 13.3188 12.8065 13.1922 12.4268 13.1219C12.1596 13.0703 12.1831 13.0703 10.7346 13.3797C9.43153 13.6609 9.23465 13.6469 8.93465 13.2438C8.79402 13.0609 8.79402 12.5734 8.93465 12.3859C9.11746 12.1375 9.28621 12.0672 9.94246 11.9547C10.2893 11.8938 11.0768 11.7203 11.6956 11.5703C12.3143 11.4203 12.8768 11.2938 12.9471 11.2938C13.0175 11.2938 13.3784 11.3828 13.744 11.4906C14.3768 11.6734 14.4471 11.6828 15.0471 11.6875C15.8065 11.6922 16.0925 11.6219 16.9456 11.2281C17.255 11.0828 17.5268 10.975 17.5503 10.9797C17.5737 10.9891 18.0425 11.8563 18.5909 12.9156ZM6.24871 16.7781C6.31434 16.8297 6.39402 16.9469 6.42215 17.0359C6.46903 17.1813 6.46434 17.2281 6.37528 17.4016C6.26277 17.6219 5.63934 18.2781 5.5409 18.2781C5.43309 18.2781 4.96903 17.8047 4.96903 17.6922C4.96903 17.6219 5.11903 17.4297 5.40496 17.1344C5.8784 16.6375 6.00496 16.5859 6.24871 16.7781ZM7.96434 17.5938C8.17996 17.7063 8.26902 18.0203 8.14715 18.2453C7.95965 18.6016 7.10652 19.5438 6.97528 19.5438C6.89559 19.5438 6.37528 19 6.37528 18.9109C6.37528 18.8406 6.7409 18.4094 7.29402 17.8188C7.59403 17.5047 7.71121 17.4672 7.96434 17.5938ZM9.32371 19.1406C9.37996 19.2016 9.43621 19.3281 9.45496 19.4219C9.4784 19.5766 9.45496 19.6375 9.2159 19.9891C8.92996 20.4109 8.67215 20.6688 8.5409 20.6688C8.36746 20.6688 7.92215 20.2422 7.92215 20.0781C7.92215 19.9984 8.5784 19.2719 8.77528 19.1313C8.97684 18.9953 9.18777 18.9953 9.32371 19.1406ZM10.3034 21.0906C10.4768 21.3438 10.4206 21.6344 10.1534 21.8828L10.0362 21.9953L9.7034 21.7C9.52528 21.5406 9.37527 21.3953 9.37527 21.3766C9.37527 21.3578 9.46434 21.2547 9.57684 21.1516C9.90965 20.8188 10.1065 20.8047 10.3034 21.0906Z" fill="#4C5D70"/>
</svg>
