<svg width="20" height="20" viewBox="0 0 20 20" fill="none" xmlns="http://www.w3.org/2000/svg">
<path d="M9.19922 0.0431805C7.13672 0.258024 5.14844 1.38693 3.88672 3.06662C2.92969 4.34006 2.41797 5.8049 2.35547 7.44162L2.33203 8.06662L2.17188 8.0549C1.94531 8.03537 1.46484 8.14474 1.21484 8.26974C0.441406 8.66427 0 9.71115 0 11.1721C0 12.7033 0.449219 13.719 1.30859 14.1291C1.56641 14.2502 1.65625 14.2736 1.97656 14.2893L2.34375 14.3088V14.5783C2.34375 14.9221 2.4375 15.1252 2.65625 15.2346C2.80078 15.3088 2.88281 15.3127 4.10156 15.3127C5.32031 15.3127 5.40234 15.3088 5.54688 15.2346C5.64844 15.1838 5.73047 15.1018 5.78125 15.0002C5.85938 14.8518 5.85938 14.7776 5.85938 11.1916C5.85938 7.60568 5.85938 7.53146 5.78125 7.38302C5.73047 7.28146 5.64844 7.19943 5.54688 7.14865C5.40625 7.07834 5.32031 7.07052 4.46875 7.07052H3.54297L3.57031 6.82443C3.66406 5.98849 4.05469 4.91818 4.55078 4.15256C5.625 2.50021 7.34766 1.43771 9.31641 1.21115C10.8438 1.03927 12.457 1.46115 13.75 2.37521C14.2227 2.70724 14.9453 3.4299 15.2852 3.90646C15.8711 4.73459 16.3164 5.87131 16.4297 6.84787L16.457 7.07052H15.5312C14.6797 7.07052 14.5938 7.07834 14.4531 7.14865C14.3516 7.19943 14.2695 7.28146 14.2188 7.38302C14.1406 7.53146 14.1406 7.60568 14.1406 11.1916C14.1406 14.7776 14.1406 14.8518 14.2188 15.0002C14.2695 15.1018 14.3516 15.1838 14.4531 15.2346C14.5938 15.3049 14.6797 15.3127 15.5469 15.3127H16.4844V15.6838C16.4844 16.133 16.4336 16.3947 16.2812 16.6955C16.0547 17.1486 15.582 17.508 15.0859 17.6135C14.9648 17.6369 14.4531 17.6565 13.8555 17.6565H12.832L12.7344 17.4494C12.6172 17.1994 12.2344 16.8088 11.9805 16.6838C11.6289 16.5158 11.4336 16.4846 10.6172 16.4846C9.78906 16.4846 9.55469 16.5158 9.21875 16.6721C8.9375 16.8049 8.55859 17.1838 8.42578 17.469C7.9375 18.5041 8.53125 19.719 9.64062 19.9572C9.94141 20.0197 11.3359 20.0119 11.5898 19.9455C12.0781 19.8166 12.4844 19.5002 12.6992 19.0822L12.832 18.8283H13.918C15.0977 18.8283 15.3906 18.7932 15.8398 18.6057C16.5195 18.3205 17.1016 17.7502 17.4062 17.0744C17.6094 16.6252 17.625 16.4924 17.6445 15.3596L17.6641 14.2971H17.9219C19.2227 14.2932 20 13.1252 20 11.1721C20 9.71506 19.5508 8.64084 18.7852 8.26584C18.5312 8.14474 18.0508 8.03537 17.8281 8.0549L17.668 8.06662L17.6445 7.44162C17.6172 6.70724 17.5195 6.09396 17.3281 5.46115C16.2617 1.94552 12.8359 -0.335726 9.19922 0.0431805ZM4.6875 11.1916V14.1408H4.10156H3.51562V11.1916V8.2424H4.10156H4.6875V11.1916ZM16.4844 11.1916V14.1408H15.8984H15.3125V11.1916V8.2424H15.8984H16.4844V11.1916ZM2.28125 9.2424C2.33594 9.26193 2.34375 9.47287 2.34375 11.1955V13.1252H2.12109C1.67188 13.1252 1.42188 12.844 1.26562 12.1682C1.16406 11.7424 1.16406 10.5783 1.26172 10.1838C1.42578 9.51974 1.67578 9.23068 2.09766 9.22287C2.16406 9.21896 2.24609 9.23068 2.28125 9.2424ZM18.1289 9.26193C18.418 9.35959 18.6016 9.64084 18.7383 10.1838C18.8242 10.5276 18.832 11.7385 18.7539 12.0901C18.6367 12.6135 18.4531 12.9377 18.1992 13.0705C18.1406 13.0979 17.9922 13.1252 17.8711 13.1252H17.6562V11.1955C17.6562 9.68771 17.668 9.26193 17.707 9.24631C17.793 9.21115 17.9922 9.21896 18.1289 9.26193ZM11.4453 17.7346C11.6211 17.8244 11.7578 18.0471 11.7578 18.2424C11.7578 18.4377 11.6211 18.6604 11.4453 18.7502C11.3086 18.8205 11.2148 18.8283 10.5859 18.8283C9.95703 18.8283 9.86328 18.8205 9.72656 18.7502C9.32812 18.5471 9.32031 17.9846 9.71094 17.7502C9.85547 17.6604 9.89453 17.6565 10.5781 17.6565C11.2188 17.6565 11.3086 17.6643 11.4453 17.7346Z" fill="#93AABE"/>
</svg>
