<svg width="500" height="373" viewBox="0 0 500 373" fill="none" xmlns="http://www.w3.org/2000/svg">
<g clip-path="url(#clip0_6897_84765)">
<path d="M500 327.453H0V327.703H500V327.453Z" fill="#EBEBEB"/>
<path d="M449.9 343.539H416.78V343.789H449.9V343.539Z" fill="#EBEBEB"/>
<path d="M331.22 346.258H322.53V346.508H331.22V346.258Z" fill="#EBEBEB"/>
<path d="M415.78 334.258H396.59V334.508H415.78V334.258Z" fill="#EBEBEB"/>
<path d="M95.65 335.938H52.46V336.188H95.65V335.938Z" fill="#EBEBEB"/>
<path d="M110.89 335.938H104.56V336.188H110.89V335.938Z" fill="#EBEBEB"/>
<path d="M225.15 340.156H131.47V340.406H225.15V340.156Z" fill="#EBEBEB"/>
<path d="M237 282.85H43.91C42.3973 282.847 40.9475 282.245 39.8788 281.174C38.8102 280.103 38.21 278.653 38.21 277.14V5.71C38.21 4.19734 38.8102 2.7465 39.8788 1.67595C40.9475 0.605406 42.3973 0.00264913 43.91 0L237 0C238.514 0 239.967 0.601588 241.038 1.67242C242.108 2.74325 242.71 4.19561 242.71 5.71V277.14C242.71 277.89 242.562 278.632 242.275 279.325C241.988 280.018 241.568 280.647 241.038 281.178C240.507 281.708 239.878 282.128 239.185 282.415C238.492 282.702 237.75 282.85 237 282.85ZM43.91 0.25C42.4636 0.252649 41.0774 0.829067 40.0556 1.85273C39.0338 2.87639 38.46 4.26365 38.46 5.71V277.14C38.46 278.586 39.0338 279.974 40.0556 280.997C41.0774 282.021 42.4636 282.597 43.91 282.6H237C238.447 282.597 239.834 282.021 240.858 280.998C241.881 279.975 242.457 278.587 242.46 277.14V5.71C242.457 4.26273 241.881 2.87549 240.858 1.85212C239.834 0.828741 238.447 0.252643 237 0.25H43.91Z" fill="#EBEBEB"/>
<path d="M453.31 282.85H260.21C258.696 282.847 257.246 282.245 256.175 281.175C255.105 280.104 254.503 278.654 254.5 277.14V5.71C254.503 4.19643 255.105 2.7456 256.175 1.67534C257.246 0.60508 258.696 0.0026438 260.21 0L453.31 0C454.821 0.00529221 456.268 0.609215 457.335 1.67947C458.401 2.74973 459 4.19907 459 5.71V277.14C459 278.651 458.401 280.1 457.335 281.171C456.268 282.241 454.821 282.845 453.31 282.85ZM260.21 0.25C258.763 0.252643 257.375 0.828741 256.352 1.85212C255.329 2.87549 254.753 4.26273 254.75 5.71V277.14C254.753 278.587 255.329 279.975 256.352 280.998C257.375 282.021 258.763 282.597 260.21 282.6H453.31C454.757 282.597 456.145 282.021 457.168 280.998C458.191 279.975 458.767 278.587 458.77 277.14V5.71C458.767 4.26273 458.191 2.87549 457.168 1.85212C456.145 0.828741 454.757 0.252643 453.31 0.25H260.21Z" fill="#EBEBEB"/>
<path d="M249.9 327.461C250.18 325.201 250.05 321.901 247.25 320.971C242.86 319.521 240.25 316.121 240.4 312.281C240.55 308.441 235.93 304.701 232.47 308.281C229.01 311.861 229.47 305.511 224.85 303.961C220.23 302.411 216.31 306.171 217.58 309.601C218.85 313.031 214.29 315.181 208.83 312.261C203.37 309.341 197.37 314.651 198.52 318.811C199.67 322.971 198.73 323.431 195.28 322.041C192.35 320.871 187.49 323.511 187.38 327.441L249.9 327.461Z" fill="#E6E6E6"/>
<path d="M74.7 79.317H165.39C177.01 79.317 179.81 63.057 168.84 59.237L168.41 59.097C180.55 48.997 153.92 27.657 125 57.177C127.26 47.337 101.54 50.897 93.68 64.327C90.87 55.507 66.35 70.827 74.7 79.317Z" fill="#F0F0F0"/>
<path d="M295.71 54.1962H350.09C350.09 54.1962 362.84 49.3962 361.19 36.6762C359.54 23.9562 340.29 34.5562 340.29 34.5562C340.29 34.5562 346.12 16.8062 327.48 21.8462C308.84 26.8862 307 44.4762 307 44.4762C307 44.4762 282.53 40.1962 295.71 54.1962Z" fill="#F0F0F0"/>
<path d="M382.51 95.2574H418.41C418.41 95.2574 426.83 92.0874 425.74 83.6874C424.65 75.2874 411.94 82.2874 411.94 82.2874C411.94 82.2874 415.79 70.5774 403.48 73.8974C400.014 74.7887 396.888 76.6808 394.49 79.3377C392.093 81.9946 390.531 85.2986 390 88.8374C390 88.8374 373.81 85.9974 382.51 95.2574Z" fill="#F0F0F0"/>
<path d="M226.1 214.15C230.32 231.3 187.66 223.84 177.23 216.15C166.8 208.46 158.72 218.82 142.23 198.72C125.74 178.62 160.3 185.28 159.14 176.12C157.98 166.96 196.14 182.7 209.47 182.84C251.63 183.24 221.88 197 226.1 214.15Z" fill="#E6E6E6"/>
<path d="M93.52 191.473C90.04 214.153 133.08 209.253 143.34 200.073C153.6 190.893 162.34 205.933 178.12 180.763C193.9 155.593 159.12 160.393 159.85 148.173C160.58 135.953 122.51 152.553 108.93 151.173C66.07 146.673 97 168.803 93.52 191.473Z" fill="#E6E6E6"/>
<path d="M167.59 196.257L168.44 228.587L169.69 263.367L186.19 327.587H158.98L155.99 281.987L151.56 261.777L152.9 227.647L150.99 184.967L148.37 159.547H161.91L167.59 196.257Z" fill="#F0F0F0"/>
<path d="M159.53 201.802L170.25 181.792L178.68 162.492L173.22 184.382L163.14 207.762L159.53 201.802Z" fill="#F0F0F0"/>
<path d="M168.8 193.997C177.8 214.807 209.43 191.997 212.8 179.727C216.17 167.457 230.8 176.487 230.44 148.227C230.08 119.967 204.84 139.157 199.13 128.427C193.42 117.697 171.78 148.347 160.27 153.017C124 167.787 159.83 173.217 168.8 193.997Z" fill="#E6E6E6"/>
<path d="M176.46 130.867C193.28 144.427 158.22 165.537 144.83 165.067C131.44 164.597 134.4 179.877 106.83 171.597C79.26 163.317 108.2 146.817 99.96 138.867C91.72 130.917 130.46 120.647 139.65 111.967C168.7 84.5465 159.63 117.297 176.46 130.867Z" fill="#E6E6E6"/>
<path d="M155.33 237.208L134.1 208.598L121.58 186.188L119.3 191.257L151.56 261.777L155.33 237.208Z" fill="#F0F0F0"/>
<path d="M365.55 130.491C356.14 138.721 316.94 145.741 325.08 154.891C333.22 164.041 303.82 178.551 331.41 189.891C359 201.231 356.3 184.941 369.75 186.721C383.2 188.501 418.97 169.721 402.24 153.871C385.51 138.021 395.33 104.501 365.55 130.491Z" fill="#E6E6E6"/>
<path d="M280.8 117.479C294.37 122.819 335.32 117.409 332.85 129.309C330.38 141.209 366.39 146.559 346.85 166.919C327.31 187.279 320.56 169.839 308.85 175.919C297.14 181.999 252.85 174.399 259.52 152.919C266.19 131.439 238 100.589 280.8 117.479Z" fill="#E6E6E6"/>
<path d="M338.81 122.828L355.94 123.978L360.04 156.538L370.06 211.398L371.83 246.078L377.3 273.368L394.32 327.588H359.83L352.72 242.368L350.69 211.308L342.34 169.698L338.81 122.828Z" fill="#F0F0F0"/>
<path d="M351.33 184.899L331.75 153.909L318.48 125.219L334.76 150.819L354.15 177.509L351.33 184.899Z" fill="#F0F0F0"/>
<path d="M379.13 108.518C388.23 112.418 415.52 108.198 413.94 117.038C412.36 125.878 436.43 129.688 423.5 144.898C410.57 160.108 405.97 147.198 398.22 151.788C390.47 156.378 360.82 150.948 365.15 134.988C369.48 119.028 350.41 96.1981 379.13 108.518Z" fill="#E6E6E6"/>
<path d="M347.18 82.6372C332.52 86.9772 281.88 75.4572 288.36 89.3772C294.84 103.297 253.36 104.707 282.84 130.527C312.32 156.347 315.2 137.297 331 145.807C346.8 154.317 397.66 151.387 383.23 125.937C368.8 100.487 393.46 68.9372 347.18 82.6372Z" fill="#E6E6E6"/>
<path d="M367.08 196.217L388.15 172.167L395.6 153.047L383.18 168.547L361.53 188.277L367.08 196.217Z" fill="#F0F0F0"/>
<path d="M358.9 328.287C359.14 325.427 358.75 321.727 355.41 320.627C349.76 318.757 346.41 314.387 346.6 309.427C346.79 304.467 340.84 299.667 336.37 304.307C331.9 308.947 332.51 300.737 326.56 298.737C320.61 296.737 315.56 301.587 317.19 306.007C318.82 310.427 312.95 313.197 305.92 309.427C298.89 305.657 291.16 312.517 292.65 317.867C294.14 323.217 292.92 323.817 288.47 322.027C284.87 320.587 278.99 323.617 278.34 328.287H358.9Z" fill="#EBEBEB"/>
<path d="M104.71 327.462H207.42C208.86 322.642 205.13 316.862 201.06 316.052C196.06 315.052 191.06 306.252 190.8 300.652C190.54 295.052 181.56 277.822 167.56 288.462C153.56 299.102 157.81 290.002 147.69 287.002C137.57 284.002 131.17 292.612 135.61 299.072C135.61 299.072 125.44 296.522 121.25 306.022C117.06 315.522 121.25 321.422 121.25 321.422C121.25 321.422 108.39 321.072 104.71 327.462Z" fill="#EBEBEB"/>
<path d="M250 372.609C357.082 372.609 443.89 367.541 443.89 361.289C443.89 355.037 357.082 349.969 250 349.969C142.917 349.969 56.11 355.037 56.11 361.289C56.11 367.541 142.917 372.609 250 372.609Z" fill="#F5F5F5"/>
<path d="M273.57 327.71C273.57 327.71 282.57 319.76 279.9 318.41C277.23 317.06 273.9 324.41 273.57 323.32C273.24 322.23 275.34 312.1 270.32 312.8C265.3 313.5 270.32 323.32 270.32 323.32C270.32 323.32 266.6 319.32 265.32 319.92C264.04 320.52 269.32 327.71 269.32 327.71H273.57Z" fill="#407BFF"/>
<path d="M145.29 329.387C145.29 329.387 143.29 322.577 147.37 321.227C151.45 319.877 153.91 316.687 153.78 313.087C153.65 309.487 157.96 305.997 161.21 309.367C164.46 312.737 164.02 306.767 168.34 305.367C172.66 303.967 176.34 307.427 175.15 310.647C173.96 313.867 178.23 315.867 183.34 313.127C188.45 310.387 194.07 315.367 192.99 319.267C191.91 323.167 192.79 323.587 195.99 322.267C199.19 320.947 204.99 324.647 202.99 329.407C200.99 334.167 145.29 329.387 145.29 329.387Z" fill="#407BFF"/>
<path d="M329.38 331.502C326.79 329.752 329.12 326.773 331.7 326.423C334.28 326.073 336.88 323.002 337 321.002C337.12 319.002 341.78 313.002 349 316.722C356.22 320.442 354 317.273 359.27 316.233C364.54 315.193 367.8 318.233 365.5 320.453C365.5 320.453 370.76 319.563 372.93 322.893C375.1 326.223 372.93 328.282 372.93 328.282C372.93 328.282 382.81 328.083 381.93 332.233C381.05 336.382 329.38 331.502 329.38 331.502Z" fill="#407BFF"/>
<path d="M99.18 326.323C99.18 326.323 107.13 310.803 105.13 309.323C103.13 307.843 99.19 322.323 99.18 321.163C99.17 320.003 99.4 300.303 95.73 301.093C92.06 301.883 95.73 320.033 95.73 320.033C95.73 320.033 90.79 310.753 88.85 311.453C86.91 312.153 94.56 323.193 94.56 323.193C94.56 323.193 90 320.433 88.85 320.643C87.7 320.853 94.56 326.363 94.56 326.363L99.18 326.323Z" fill="#407BFF"/>
<path d="M407.4 328.214C407.4 328.214 399.45 312.694 401.45 311.214C403.45 309.734 407.4 324.214 407.4 323.054C407.4 321.894 407.18 302.194 410.85 302.984C414.52 303.774 410.85 321.924 410.85 321.924C410.85 321.924 415.8 312.644 417.73 313.344C419.66 314.044 412 325.004 412 325.004C412 325.004 416.57 322.244 417.71 322.464C418.85 322.684 412 328.174 412 328.174L407.4 328.214Z" fill="#407BFF"/>
<path d="M432.45 344.094L57.88 344.094V326.974C57.88 326.472 58.0792 325.992 58.4336 325.637C58.788 325.283 59.2688 325.084 59.77 325.084L430.56 325.084C431.061 325.084 431.542 325.283 431.896 325.637C432.251 325.992 432.45 326.472 432.45 326.974V344.094Z" fill="#263238"/>
<path opacity="0.7" d="M432.45 344.094L57.88 344.094V326.974C57.88 326.472 58.0792 325.992 58.4336 325.637C58.788 325.283 59.2688 325.084 59.77 325.084L430.56 325.084C431.061 325.084 431.542 325.283 431.896 325.637C432.251 325.992 432.45 326.472 432.45 326.974V344.094Z" fill="white"/>
<path opacity="0.2" d="M59.72 341.766H84.25V328.886H59.72V341.766Z" fill="white"/>
<path opacity="0.2" d="M85.57 340.547H110.1V327.667H85.57V340.547Z" fill="white"/>
<path opacity="0.2" d="M111.14 340.547H127.11V332.357H111.14V340.547Z" fill="white"/>
<path opacity="0.2" d="M410.45 341.602H426.42V333.412H410.45V341.602Z" fill="white"/>
<path opacity="0.2" d="M128.39 339.461H145.18V328.251H128.39V339.461Z" fill="white"/>
<path opacity="0.2" d="M146.42 337.961H157.84V326.751H146.42V337.961Z" fill="white"/>
<path opacity="0.2" d="M397.18 340.102H408.6V328.892H397.18V340.102Z" fill="white"/>
<path opacity="0.2" d="M194.54 340.102H205.96V328.892H194.54V340.102Z" fill="white"/>
<path opacity="0.2" d="M182.55 334.5H193.97V326.75H182.55V334.5Z" fill="white"/>
<path opacity="0.2" d="M159 340.93H177.81V329.72H159V340.93Z" fill="white"/>
<path opacity="0.2" d="M207.26 339.461H226.07V328.251H207.26V339.461Z" fill="white"/>
<path opacity="0.2" d="M112.25 331.273H124.36V327.663H112.25V331.273Z" fill="white"/>
<path opacity="0.2" d="M414.31 331.523H426.42V327.913H414.31V331.523Z" fill="white"/>
<path opacity="0.2" d="M180.02 339.766H192.13V336.156H180.02V339.766Z" fill="white"/>
<path opacity="0.2" d="M227.72 341.766H252.25V328.886H227.72V341.766Z" fill="white"/>
<path opacity="0.2" d="M253.57 340.547H278.1V327.667H253.57V340.547Z" fill="white"/>
<path opacity="0.2" d="M279.14 340.547H295.11V332.357H279.14V340.547Z" fill="white"/>
<path opacity="0.2" d="M296.39 339.461H313.18V328.251H296.39V339.461Z" fill="white"/>
<path opacity="0.2" d="M314.42 337.961H325.84V326.751H314.42V337.961Z" fill="white"/>
<path opacity="0.2" d="M362.54 340.102H373.96V328.892H362.54V340.102Z" fill="white"/>
<path opacity="0.2" d="M350.55 334.5H361.97V326.75H350.55V334.5Z" fill="white"/>
<path opacity="0.2" d="M327 340.93H345.81V329.72H327V340.93Z" fill="white"/>
<path opacity="0.2" d="M375.26 339.461H394.07V328.251H375.26V339.461Z" fill="white"/>
<path opacity="0.2" d="M280.25 331.273H292.36V327.663H280.25V331.273Z" fill="white"/>
<path opacity="0.2" d="M348.02 339.766H360.13V336.156H348.02V339.766Z" fill="white"/>
<path d="M111.79 34.4065C111.076 34.2358 110.377 34.0084 109.7 33.7265C108.44 33.2365 106.83 32.4065 105.14 31.5965C103.741 30.8986 102.232 30.4454 100.68 30.2565C99.49 30.1265 98.68 30.2565 98.57 29.9465C98.46 29.6365 99.16 29.0565 100.57 28.7865C102.432 28.5339 104.328 28.8585 106 29.7165C107.565 30.5359 108.993 31.5954 110.23 32.8565C111.21 33.7865 111.79 34.4065 111.79 34.4065Z" fill="#407BFF"/>
<path d="M119.13 28.4984L117.62 29.0884C116.72 29.4584 115.62 29.9784 114.32 30.5284C111.79 31.6484 109.63 32.8084 109.32 32.2984C109.16 32.0684 109.49 31.4984 110.22 30.7984C111.187 29.8782 112.311 29.1397 113.54 28.6184C114.797 28.0705 116.181 27.8768 117.54 28.0584C117.953 28.11 118.359 28.2072 118.75 28.3484L119.13 28.4984Z" fill="#407BFF"/>
<path d="M98.1699 38.8177L97.7599 38.5677C97.4999 38.3977 97.1099 38.1777 96.6399 37.9277C95.4544 37.2873 94.2166 36.7487 92.9399 36.3177C89.9999 35.2577 87.3699 35.4977 87.2899 35.0477C87.2899 34.8477 87.8899 34.5077 89.0299 34.3477C90.5213 34.1741 92.0327 34.3417 93.4499 34.8377C94.8681 35.3369 96.135 36.1906 97.1299 37.3177C97.4329 37.6494 97.7009 38.0113 97.9299 38.3977L98.1699 38.8177Z" fill="#407BFF"/>
<path d="M101.06 32.7403L99.9999 33.3503L97.6499 34.6603C95.8799 35.6603 94.5099 36.7703 94.1699 36.4703C94.0199 36.3203 94.1699 35.8503 94.6199 35.2403C95.2313 34.4211 96.0081 33.7397 96.8999 33.2403C97.7972 32.7607 98.8027 32.5197 99.8199 32.5403C100.24 32.5515 100.657 32.6188 101.06 32.7403Z" fill="#407BFF"/>
<path d="M95.73 29.2822C95.73 29.2822 94.73 28.9322 93.21 28.2822C91.69 27.6322 89.64 26.7322 87.39 26.0022C85.4955 25.3616 83.4974 25.0834 81.5 25.1822C79.96 25.2722 78.98 25.5722 78.84 25.2922C78.7 25.0122 79.51 24.2922 81.23 23.7422C83.4635 23.1652 85.8172 23.2556 88 24.0022C90.11 24.7473 92.0533 25.899 93.72 27.3922C94.4242 27.9847 95.0953 28.6157 95.73 29.2822Z" fill="#407BFF"/>
<path d="M102.49 20.6903L101.93 20.8503C101.56 20.9403 101.05 21.1003 100.44 21.2903C98.9074 21.7977 97.405 22.392 95.94 23.0703C92.52 24.6003 90.32 26.8703 89.85 26.5103C89.63 26.3403 89.91 25.5103 90.78 24.4303C91.9486 23.0394 93.4147 21.9287 95.07 21.1803C96.7242 20.4332 98.5406 20.1167 100.35 20.2603C100.891 20.2998 101.426 20.3902 101.95 20.5303L102.49 20.6903Z" fill="#407BFF"/>
<path d="M404.89 66.1016L401.03 103.102H381.75L377.9 66.1016H404.89Z" fill="#263238"/>
<path opacity="0.3" d="M404.89 66.1016L401.03 103.102H381.75L377.9 66.1016H404.89Z" fill="white"/>
<path d="M394.98 95.1406H387.8V361.991H394.98V95.1406Z" fill="#263238"/>
<path opacity="0.3" d="M394.98 95.1406H387.8V361.991H394.98V95.1406Z" fill="white"/>
<path d="M399 100.842H383.78L380.4 68.3516H402.38L399 100.842Z" fill="#407BFF"/>
<path opacity="0.4" d="M399 100.842H383.78L380.4 68.3516H402.38L399 100.842Z" fill="white"/>
<path d="M389.39 101.357H388.35L387.22 67.2266H388.26L389.39 101.357Z" fill="#263238"/>
<path opacity="0.3" d="M389.39 101.357H388.35L387.22 67.2266H388.26L389.39 101.357Z" fill="white"/>
<path opacity="0.2" d="M404.89 66.1016L401.03 103.102H388.91L387.46 66.1016H404.89Z" fill="white"/>
<path d="M391.39 54.2031C391.39 54.2031 380 65.4931 371.19 65.4931L373.91 67.2731H408.91L411.63 65.4931C402.83 65.4931 391.39 54.2031 391.39 54.2031Z" fill="#263238"/>
<path opacity="0.4" d="M411.59 65.4931L408.87 67.2731H373.87L371.15 65.4931C379.92 65.4931 391.35 54.2031 391.35 54.2031C391.35 54.2031 402.82 65.4931 411.59 65.4931Z" fill="white"/>
<path opacity="0.2" d="M411.59 65.4931L408.87 67.2731H386.16L385 65.3431C391.1 62.5131 391.4 54.2031 391.4 54.2031C391.4 54.2031 402.82 65.4931 411.59 65.4931Z" fill="white"/>
<path d="M384.92 357.063H397.86C398.184 357.063 398.506 357.126 398.805 357.251C399.105 357.375 399.377 357.557 399.607 357.786C399.836 358.015 400.018 358.288 400.142 358.587C400.266 358.887 400.33 359.208 400.33 359.533V362.003H382.45V359.543C382.449 359.217 382.512 358.895 382.635 358.594C382.759 358.293 382.94 358.02 383.17 357.789C383.399 357.559 383.672 357.376 383.972 357.251C384.273 357.127 384.595 357.062 384.92 357.063Z" fill="#263238"/>
<path opacity="0.5" d="M384.92 357.063H397.86C398.184 357.063 398.506 357.126 398.805 357.251C399.105 357.375 399.377 357.557 399.607 357.786C399.836 358.015 400.018 358.288 400.142 358.587C400.266 358.887 400.33 359.208 400.33 359.533V362.003H382.45V359.543C382.449 359.217 382.512 358.895 382.635 358.594C382.759 358.293 382.94 358.02 383.17 357.789C383.399 357.559 383.672 357.376 383.972 357.251C384.273 357.127 384.595 357.062 384.92 357.063Z" fill="white"/>
<path d="M134.02 301.031L122.46 362.001H129.81L141.37 301.031H134.02Z" fill="#263238"/>
<path d="M295.52 301.031L283.96 362.001H291.31L302.87 301.031H295.52Z" fill="#263238"/>
<path opacity="0.3" d="M134.02 301.031L122.46 362.001H129.81L141.37 301.031H134.02Z" fill="white"/>
<path opacity="0.3" d="M295.52 301.031L283.96 362.001H291.31L302.87 301.031H295.52Z" fill="white"/>
<path d="M358.27 329.625H128.95V337.065H358.27V329.625Z" fill="#263238"/>
<path opacity="0.5" d="M358.27 329.625H128.95V337.065H358.27V329.625Z" fill="white"/>
<path d="M186 301.031L197.56 362.001H204.91L193.35 301.031H186Z" fill="#263238"/>
<path d="M347.49 301.031L359.05 362.001H366.4L354.84 301.031H347.49Z" fill="#263238"/>
<path opacity="0.3" d="M186 301.031L197.56 362.001H204.91L193.35 301.031H186Z" fill="white"/>
<path opacity="0.3" d="M347.49 301.031L359.05 362.001H366.4L354.84 301.031H347.49Z" fill="white"/>
<path d="M292.43 300.647H285.12L272.88 232.617H280.19L292.43 300.647Z" fill="#263238"/>
<path opacity="0.3" d="M292.43 300.647H285.12L272.88 232.617H280.19L292.43 300.647Z" fill="white"/>
<path d="M147.26 300.647H139.95L127.71 232.617H135.02L147.26 300.647Z" fill="#263238"/>
<path d="M219.84 300.647H212.53L200.29 232.617H207.61L219.84 300.647Z" fill="#263238"/>
<path opacity="0.3" d="M147.26 300.647H139.95L127.71 232.617H135.02L147.26 300.647Z" fill="white"/>
<path opacity="0.3" d="M219.84 300.647H212.53L200.29 232.617H207.61L219.84 300.647Z" fill="white"/>
<path d="M305.06 237.261H113.06L110.77 224.531H302.77L305.06 237.261Z" fill="#263238"/>
<path d="M309.2 260.285H117.2L114.91 247.555H306.91L309.2 260.285Z" fill="#263238"/>
<path d="M313.34 283.326H121.35L119.06 270.586H311.05L313.34 283.326Z" fill="#263238"/>
<path d="M367.94 298.641H123.25V307.451H367.94V298.641Z" fill="#263238"/>
<path opacity="0.5" d="M305.06 237.261H113.06L110.77 224.531H302.77L305.06 237.261Z" fill="white"/>
<path opacity="0.5" d="M309.2 260.285H117.2L114.91 247.555H306.91L309.2 260.285Z" fill="white"/>
<path opacity="0.5" d="M313.34 283.326H121.35L119.06 270.586H311.05L313.34 283.326Z" fill="white"/>
<path opacity="0.5" d="M367.94 298.641H123.25V307.451H367.94V298.641Z" fill="white"/>
<path opacity="0.2" d="M367.94 298.641H183.33V307.451H367.94V298.641Z" fill="white"/>
<path d="M321 272.101H320.7C315.21 271.781 314.12 264.161 314.08 263.831L315.08 263.701C315.08 263.771 316.08 270.831 320.77 271.101C321.163 271.159 321.564 271.117 321.936 270.979C322.309 270.841 322.64 270.611 322.9 270.311C324.45 268.431 323.33 263.931 323.32 263.891L324.32 263.641C324.37 263.851 325.58 268.641 323.7 270.951C323.371 271.339 322.955 271.646 322.486 271.846C322.018 272.045 321.509 272.133 321 272.101Z" fill="white"/>
<path d="M315.27 263.748C315.27 263.836 315.253 263.923 315.219 264.005C315.185 264.086 315.136 264.16 315.074 264.222C315.012 264.284 314.938 264.333 314.856 264.367C314.775 264.401 314.688 264.418 314.6 264.418C314.468 264.418 314.338 264.379 314.228 264.305C314.118 264.232 314.032 264.127 313.981 264.005C313.93 263.882 313.917 263.747 313.943 263.617C313.969 263.487 314.033 263.368 314.126 263.274C314.22 263.181 314.339 263.117 314.469 263.091C314.599 263.065 314.734 263.078 314.856 263.129C314.979 263.18 315.084 263.266 315.157 263.376C315.231 263.486 315.27 263.616 315.27 263.748Z" fill="white"/>
<path d="M323.83 264.418C324.2 264.418 324.5 264.118 324.5 263.748C324.5 263.378 324.2 263.078 323.83 263.078C323.46 263.078 323.16 263.378 323.16 263.748C323.16 264.118 323.46 264.418 323.83 264.418Z" fill="white"/>
<g opacity="0.4">
<path d="M319.09 287.711H334.43C335.127 287.753 335.781 288.06 336.26 288.568C336.738 289.076 337.005 289.748 337.005 290.446C337.005 291.144 336.738 291.816 336.26 292.324C335.781 292.832 335.127 293.139 334.43 293.181H319.09V292.181H334.43C334.867 292.148 335.276 291.95 335.574 291.629C335.873 291.307 336.038 290.885 336.038 290.446C336.038 290.007 335.873 289.585 335.574 289.263C335.276 288.941 334.867 288.744 334.43 288.711H319.09V287.711Z" fill="white"/>
</g>
<g opacity="0.4">
<path d="M352.7 293.18H337.37C337.011 293.18 336.657 293.25 336.325 293.388C335.994 293.525 335.693 293.726 335.44 293.979C335.186 294.233 334.985 294.534 334.848 294.865C334.711 295.196 334.64 295.551 334.64 295.91C334.64 296.268 334.711 296.623 334.848 296.954C334.985 297.286 335.186 297.587 335.44 297.84C335.693 298.094 335.994 298.295 336.325 298.432C336.657 298.569 337.011 298.64 337.37 298.64H352.7V297.64H337.37C336.911 297.64 336.471 297.457 336.147 297.133C335.822 296.809 335.64 296.369 335.64 295.91C335.64 295.451 335.822 295.011 336.147 294.686C336.471 294.362 336.911 294.18 337.37 294.18H352.7V293.18Z" fill="white"/>
</g>
<path d="M220.11 226.415C223.757 225.324 227.257 223.789 230.53 221.845C231.472 221.256 232.327 220.539 233.07 219.715C233.252 219.503 233.419 219.279 233.57 219.045C230 206.585 226.39 201.125 218.82 200.555C213.06 207.995 220.11 226.415 220.11 226.415Z" fill="#263238"/>
<path opacity="0.2" d="M230.53 221.847C231.472 221.259 232.327 220.542 233.07 219.717C232.439 218.411 231.664 217.18 230.76 216.047C229.924 217.875 229.842 219.958 230.53 221.847Z" fill="black"/>
<path d="M352.82 357.279L358.74 350.719L343.18 337.109L337.26 343.669L352.82 357.279Z" fill="#FFC3BD"/>
<path opacity="0.2" d="M337.26 343.679L343.18 337.109L351.2 344.129L345.28 350.699L337.26 343.679Z" fill="black"/>
<path d="M355.78 347.797L347.15 352.797C347.001 352.881 346.887 353.017 346.83 353.179C346.773 353.34 346.777 353.517 346.84 353.677L349.84 361.077C349.922 361.256 350.041 361.417 350.189 361.548C350.336 361.679 350.51 361.779 350.698 361.84C350.886 361.901 351.084 361.922 351.281 361.903C351.477 361.883 351.668 361.823 351.84 361.727C354.84 359.927 356.17 358.907 359.96 356.727C362.3 355.367 367.66 352.727 370.88 350.837C374.1 348.947 372.43 345.677 370.88 346.167C364.11 348.377 360.31 348.057 357.29 347.537C356.772 347.451 356.24 347.543 355.78 347.797Z" fill="#263238"/>
<path d="M360.13 345.237C360.059 345.139 359.963 345.062 359.852 345.013C359.742 344.963 359.62 344.944 359.5 344.957C358.4 345.067 356.95 347.957 356.78 348.237C356.761 348.265 356.751 348.298 356.751 348.332C356.751 348.366 356.761 348.399 356.78 348.427C356.801 348.454 356.829 348.474 356.861 348.484C356.893 348.495 356.927 348.496 356.96 348.487C358.09 348.137 360.02 347.407 360.36 346.347C360.419 346.155 360.426 345.952 360.38 345.757C360.335 345.562 360.238 345.382 360.1 345.237H360.13ZM359.54 345.307C359.602 345.298 359.666 345.307 359.723 345.334C359.78 345.36 359.827 345.403 359.86 345.457C359.956 345.562 360.024 345.689 360.057 345.827C360.09 345.966 360.088 346.11 360.05 346.247C359.86 346.847 358.84 347.497 357.29 348.017C357.82 347.047 358.86 345.367 359.54 345.307Z" fill="#407BFF"/>
<path d="M357.34 344.365C357.235 344.246 357.092 344.167 356.935 344.142C356.778 344.116 356.618 344.146 356.48 344.225C356.333 344.28 356.201 344.37 356.095 344.487C355.989 344.603 355.912 344.743 355.87 344.895C355.47 346.105 356.74 348.305 356.79 348.405C356.806 348.429 356.829 348.45 356.855 348.464C356.881 348.478 356.91 348.485 356.94 348.485C356.97 348.485 356.999 348.478 357.025 348.464C357.051 348.45 357.074 348.429 357.09 348.405C357.495 347.535 357.696 346.584 357.68 345.625C357.711 345.178 357.591 344.735 357.34 344.365ZM356.2 345.005C356.23 344.901 356.284 344.806 356.357 344.726C356.43 344.646 356.52 344.584 356.62 344.545C356.88 344.435 357.01 344.545 357.08 344.595C357.53 345.115 357.32 346.965 356.93 347.925C356.61 347.305 355.92 345.825 356.2 344.995V345.005Z" fill="#407BFF"/>
<path d="M226.67 210.996C224.96 220.626 229.11 229.896 236.75 235.726C237.376 236.176 238.112 236.445 238.88 236.506C238.88 236.506 238.93 236.506 238.88 236.606C239.098 236.348 239.368 236.138 239.67 235.987C239.973 235.837 240.304 235.75 240.642 235.732C240.979 235.714 241.317 235.766 241.634 235.883C241.952 236.001 242.241 236.182 242.486 236.415C242.731 236.649 242.925 236.93 243.057 237.242C243.188 237.553 243.255 237.888 243.253 238.227C243.25 238.565 243.179 238.899 243.042 239.208C242.906 239.518 242.708 239.796 242.46 240.026L242.01 240.546C241.117 241.453 240.021 242.134 238.812 242.533C237.603 242.931 236.317 243.035 235.06 242.836C230.41 242.166 227.31 239.606 224.36 236.416C220.991 232.69 218.565 228.21 217.284 223.352C216.004 218.494 215.906 213.4 217 208.496C218.83 202.036 228.1 204.416 226.69 210.976L226.67 210.996Z" fill="#E9B376"/>
<path d="M230.28 213.112C231.415 217.975 232.217 222.909 232.68 227.882C233.54 235.132 234.17 242.302 235 254.272L198.75 260.002C197.86 249.672 194.83 238.222 184.68 216.272C184.104 215.132 183.792 213.877 183.765 212.6C183.738 211.323 183.997 210.057 184.523 208.893C185.05 207.73 185.83 206.699 186.808 205.877C187.785 205.055 188.934 204.462 190.17 204.142C191.58 203.762 193.09 203.402 194.64 203.082C200.058 201.821 205.558 200.949 211.1 200.472C212.92 200.352 214.81 200.282 216.62 200.252C223.16 200.132 229.07 206.752 230.28 213.112Z" fill="#263238"/>
<path d="M247.19 234.139L246.81 236.509C246.741 236.946 246.568 237.361 246.305 237.718C246.043 238.075 245.698 238.363 245.3 238.559L241.54 240.439C240.797 240.808 239.976 240.994 239.146 240.982C238.317 240.969 237.502 240.759 236.77 240.369L235.86 239.879C236.21 235.879 239.51 231.879 239.51 231.879L240.33 230.629C240.49 230.367 240.701 230.141 240.95 229.961C241.198 229.782 241.48 229.654 241.779 229.584C242.077 229.515 242.386 229.505 242.689 229.555C242.991 229.606 243.28 229.716 243.54 229.879L246.03 231.459C246.465 231.743 246.806 232.148 247.012 232.624C247.219 233.101 247.28 233.627 247.19 234.139Z" fill="#EBB376"/>
<path d="M200.61 295.826C213.93 306.206 245.82 302.656 274.83 298.626C278.166 303.913 282.177 308.743 286.76 312.996C299.62 325.266 316.9 335.576 328.29 341.666C335.4 345.486 340.22 347.666 340.22 347.666L348.52 338.766C348.52 338.766 332.98 324.766 315.79 309.506C304.11 299.096 291.66 288.106 282.85 280.506C282.362 280.099 281.807 279.781 281.21 279.566C280.325 279.266 279.409 279.068 278.48 278.976C277.86 278.876 277.2 278.796 276.53 278.706L274.94 278.496C265.13 277.126 243.68 274.426 243.68 274.426L234.68 252.016L197.89 253.206C197.89 253.206 189.13 286.886 200.61 295.826Z" fill="#407BFF"/>
<path d="M351.89 339.662L341.39 350.872L336.36 347.312L347.77 335.422L351.89 339.662Z" fill="#263238"/>
<path opacity="0.2" d="M271.27 278.327C275.829 290.145 280.999 301.717 286.76 312.997C299.62 325.267 316.9 335.577 328.29 341.667C325.713 330.392 321.501 319.555 315.79 309.497C314.19 306.677 312.407 303.834 310.44 300.967C300.73 286.967 289.22 281.597 281.21 279.557C280.21 279.307 279.34 279.117 278.48 278.967C277.309 278.746 276.128 278.585 274.94 278.487C273.723 278.337 272.496 278.283 271.27 278.327Z" fill="black"/>
<path d="M318.91 349.875L327.25 346.975L320.15 327.555L311.81 330.465L318.91 349.875Z" fill="#FFC3BD"/>
<path opacity="0.2" d="M311.81 330.47L320.16 327.57L323.81 337.58L315.46 340.48L311.81 330.47Z" fill="black"/>
<path d="M326.06 343L316.06 343.24C315.886 343.239 315.718 343.304 315.588 343.42C315.459 343.537 315.377 343.697 315.36 343.87L314.42 351.79C314.403 351.99 314.428 352.191 314.495 352.38C314.561 352.57 314.666 352.743 314.804 352.888C314.942 353.034 315.109 353.148 315.295 353.224C315.48 353.301 315.68 353.337 315.88 353.33C319.36 353.19 321.03 352.94 325.42 352.83C328.12 352.77 334.1 353.02 337.83 352.92C341.56 352.82 341.66 349.14 340.1 348.84C333.1 347.52 329.92 345.42 327.53 343.51C327.116 343.172 326.595 342.991 326.06 343Z" fill="#263238"/>
<path d="M331.11 342.845C331.094 342.725 331.049 342.61 330.977 342.512C330.905 342.414 330.81 342.336 330.7 342.285C329.7 341.855 327.03 343.655 326.7 343.855C326.672 343.875 326.651 343.903 326.639 343.935C326.626 343.967 326.623 344.001 326.63 344.035C326.637 344.068 326.653 344.098 326.676 344.122C326.699 344.147 326.728 344.165 326.76 344.175C327.91 344.415 329.96 344.705 330.76 343.935C330.843 343.852 330.914 343.758 330.97 343.655C331.106 343.408 331.155 343.123 331.11 342.845ZM330.56 342.615C330.617 342.638 330.665 342.676 330.701 342.726C330.736 342.775 330.757 342.834 330.76 342.895C330.797 343.033 330.797 343.179 330.76 343.318C330.724 343.457 330.651 343.583 330.55 343.685C330.1 344.125 328.89 344.205 327.28 343.915C328.21 343.305 329.93 342.345 330.56 342.615Z" fill="#407BFF"/>
<path d="M329.08 340.741C329.045 340.585 328.958 340.446 328.832 340.348C328.706 340.249 328.55 340.197 328.39 340.201C328.236 340.185 328.08 340.203 327.933 340.253C327.786 340.303 327.652 340.384 327.54 340.491C326.6 341.361 326.65 343.901 326.66 344.011C326.659 344.042 326.667 344.073 326.683 344.1C326.699 344.126 326.722 344.148 326.75 344.161C326.776 344.176 326.805 344.184 326.835 344.184C326.865 344.184 326.894 344.176 326.92 344.161C327.69 343.59 328.325 342.856 328.78 342.011C329.019 341.633 329.125 341.186 329.08 340.741ZM327.77 340.741C327.847 340.666 327.94 340.609 328.042 340.574C328.144 340.539 328.253 340.528 328.36 340.541C328.65 340.541 328.72 340.701 328.74 340.811C328.89 341.481 327.81 343.001 327.01 343.651C327 343.001 327.14 341.341 327.77 340.751V340.741Z" fill="#407BFF"/>
<path opacity="0.3" d="M200.61 295.826C213.93 306.206 245.82 302.656 274.83 298.626C278.166 303.913 282.177 308.743 286.76 312.996C299.62 325.266 316.9 335.576 328.29 341.666C335.4 345.486 340.22 347.666 340.22 347.666L348.52 338.766C348.52 338.766 332.98 324.766 315.79 309.506C304.11 299.096 291.66 288.106 282.85 280.506C282.362 280.099 281.807 279.781 281.21 279.566C280.325 279.266 279.409 279.068 278.48 278.976C277.86 278.876 277.2 278.796 276.53 278.706L274.94 278.496C265.13 277.126 243.68 274.426 243.68 274.426L234.68 252.016L197.89 253.206C197.89 253.206 189.13 286.886 200.61 295.826Z" fill="black"/>
<path d="M201.19 261.659C201.19 261.659 256.49 256.119 276.96 258.459C296.96 260.749 324.09 332.079 324.09 332.079L312.17 336.209C289.49 310.599 276.63 292.059 271.27 278.329C222.71 296.419 205 294.999 205 294.999L201.19 261.659Z" fill="#407BFF"/>
<path opacity="0.3" d="M201.19 261.659C201.19 261.659 256.49 256.119 276.96 258.459C296.96 260.749 324.09 332.079 324.09 332.079L312.17 336.209C289.49 310.599 276.63 292.059 271.27 278.329C222.71 296.419 205 294.999 205 294.999L201.19 261.659Z" fill="black"/>
<path d="M326.57 333.989L311.98 338.759L309.27 333.229L324.99 328.289L326.57 333.989Z" fill="#263238"/>
<path opacity="0.2" d="M271.27 278.327C271.27 278.327 269.75 273.797 266.62 273.067C263.49 272.337 237.24 272.627 237.24 272.627L271.27 278.327Z" fill="black"/>
<path opacity="0.2" d="M198.41 223.367C198.41 223.367 202.41 232.007 198.41 234.977C194.41 237.947 191.24 224.257 198.41 223.367Z" fill="black"/>
<path d="M216.84 206.191C216.84 206.191 226.28 216.871 235.84 256.191L240 252.001C240 252.001 241.77 246.061 237.22 245.141C237.22 245.141 239.06 237.761 234.98 235.451C234.98 235.451 234.13 225.861 230.93 222.771C230.846 221.476 230.552 220.203 230.06 219.001C229.821 218.329 229.433 217.719 228.926 217.217C228.419 216.715 227.805 216.334 227.13 216.101C227.13 216.101 223.85 202.481 218.13 200.101C212.41 197.721 216.84 206.191 216.84 206.191Z" fill="#407BFF"/>
<path opacity="0.2" d="M237.24 245.086L235 248.246C235 248.246 237.76 248.246 237.24 245.086Z" fill="black"/>
<path opacity="0.2" d="M235 235.398L232.24 238.998C232.678 238.996 233.109 238.894 233.501 238.699C233.893 238.504 234.236 238.222 234.502 237.875C234.768 237.527 234.952 237.123 235.038 236.694C235.124 236.265 235.111 235.822 235 235.398Z" fill="black"/>
<path opacity="0.2" d="M231 222.719L228.43 225.519C228.43 225.519 231.3 224.809 231 222.719Z" fill="black"/>
<path opacity="0.2" d="M225.78 213.484L224.08 216.044C224.597 215.851 225.04 215.499 225.345 215.04C225.65 214.58 225.802 214.036 225.78 213.484Z" fill="black"/>
<path d="M258.25 212.649L255.38 211.219L245.38 214.579L231.38 211.799L228.84 222.419C228.84 222.419 228.84 234.079 229.51 234.169C230.18 234.259 245.29 234.169 245.29 234.169L252.67 228.849L258.25 212.649Z" fill="#E0E0E0"/>
<path d="M227.78 212.801L223.07 237.201L241.95 238.241L254.69 233.931L260.01 210.961L245.43 215.641L227.78 212.801Z" fill="#407BFF"/>
<path opacity="0.5" d="M227.78 212.801L223.07 237.201L241.95 238.241L254.69 233.931L260.01 210.961L245.43 215.641L227.78 212.801Z" fill="white"/>
<path opacity="0.2" d="M245.43 215.637L241.95 238.237L223.07 237.207L227.78 212.797L245.43 215.637Z" fill="white"/>
<path d="M216.84 206.189C216.84 206.189 222.84 199.569 217.98 196.089C213.12 192.609 188.11 193.529 186.98 198.339C185.85 203.149 216.84 206.189 216.84 206.189Z" fill="#407BFF"/>
<path opacity="0.2" d="M216.84 206.189C216.84 206.189 222.84 199.569 217.98 196.089C213.12 192.609 188.11 193.529 186.98 198.339C185.85 203.149 216.84 206.189 216.84 206.189Z" fill="black"/>
<path d="M194.64 203.09C188.64 204.43 214.24 209.74 214.24 209.74C214.24 209.74 227.38 195.77 194.64 203.09Z" fill="#EBB376"/>
<path d="M197 184.406C198.46 189.766 200.25 199.586 196.77 203.166C196.77 203.166 198.77 205.436 212.64 209.066C215.76 204.586 213.43 203.156 213.43 203.156C207.35 201.736 207.17 197.296 207.89 193.156L197 184.406Z" fill="#EBB376"/>
<path opacity="0.2" d="M201.41 188L207.86 193.16C207.667 194.148 207.57 195.153 207.57 196.16C205.26 195.83 201.93 193.32 201.51 190.93C201.299 189.968 201.265 188.975 201.41 188Z" fill="black"/>
<path d="M196.87 162.808C196.87 162.808 194.2 155.458 188.2 156.908C182.2 158.358 180.78 163.908 182.77 170.538C184.76 177.168 182.08 178.538 182.08 178.538C182.08 178.538 189.08 179.678 189.7 171.658C190.32 163.638 194.44 166.148 194.44 166.148L196.87 162.808Z" fill="#263238"/>
<path d="M197.23 171.267C196.39 180.037 195.85 183.727 199.45 189.087C204.86 197.147 215.59 196.807 218.97 188.597C222.02 181.197 222.88 168.097 215.1 162.877C213.467 161.698 211.548 160.978 209.543 160.791C207.538 160.604 205.519 160.957 203.696 161.813C201.873 162.668 200.312 163.996 199.175 165.659C198.038 167.321 197.367 169.257 197.23 171.267Z" fill="#EBB376"/>
<path d="M207.45 175.717C207.35 176.457 207.64 177.127 208.1 177.227C208.56 177.327 209.02 176.807 209.1 176.067C209.18 175.327 208.91 174.667 208.45 174.567C207.99 174.467 207.56 174.997 207.45 175.717Z" fill="#263238"/>
<path d="M216.48 177.326C216.37 178.066 216.66 178.736 217.12 178.836C217.58 178.936 218.04 178.416 218.12 177.676C218.2 176.936 217.93 176.276 217.47 176.176C217.01 176.076 216.58 176.596 216.48 177.326Z" fill="#263238"/>
<path d="M217.28 176.181L219.05 176.031C219.05 176.031 218 177.221 217.28 176.181Z" fill="#263238"/>
<path d="M213.51 178.367C213.908 180.175 214.533 181.926 215.37 183.577C214.967 183.769 214.526 183.869 214.08 183.869C213.634 183.869 213.193 183.769 212.79 183.577L213.51 178.367Z" fill="#D58745"/>
<path d="M208.37 185.4C208.746 185.549 209.134 185.666 209.53 185.75C209.557 185.756 209.585 185.756 209.612 185.751C209.639 185.745 209.665 185.734 209.687 185.718C209.71 185.702 209.729 185.681 209.743 185.658C209.757 185.634 209.767 185.608 209.77 185.58C209.779 185.522 209.765 185.463 209.732 185.414C209.698 185.366 209.648 185.332 209.59 185.32C208.688 185.133 207.84 184.746 207.108 184.187C206.375 183.627 205.778 182.911 205.36 182.09C205.35 182.064 205.335 182.039 205.315 182.018C205.296 181.998 205.272 181.981 205.246 181.97C205.22 181.959 205.191 181.953 205.163 181.953C205.134 181.953 205.106 181.959 205.08 181.97C205.055 181.982 205.033 181.999 205.014 182.019C204.996 182.04 204.981 182.063 204.972 182.089C204.963 182.116 204.959 182.143 204.96 182.171C204.961 182.198 204.968 182.225 204.98 182.25C205.689 183.678 206.894 184.798 208.37 185.4Z" fill="#263238"/>
<path d="M206.77 170.851C206.822 170.873 206.878 170.885 206.935 170.885C206.992 170.885 207.048 170.873 207.1 170.851C207.54 170.565 208.044 170.391 208.568 170.346C209.091 170.301 209.617 170.385 210.1 170.591C210.148 170.618 210.201 170.634 210.256 170.639C210.31 170.644 210.366 170.637 210.418 170.619C210.469 170.601 210.517 170.573 210.557 170.535C210.597 170.497 210.629 170.452 210.65 170.401C210.693 170.293 210.694 170.173 210.653 170.064C210.613 169.955 210.533 169.865 210.43 169.811C209.828 169.534 209.165 169.415 208.504 169.464C207.843 169.513 207.205 169.729 206.65 170.091C206.556 170.156 206.491 170.255 206.469 170.367C206.446 170.479 206.468 170.595 206.53 170.691C206.59 170.77 206.674 170.826 206.77 170.851Z" fill="#263238"/>
<path d="M220.82 173.275C220.869 173.298 220.922 173.309 220.975 173.309C221.029 173.309 221.081 173.298 221.13 173.275C221.182 173.254 221.229 173.222 221.268 173.182C221.307 173.141 221.338 173.094 221.358 173.042C221.379 172.99 221.389 172.934 221.387 172.878C221.386 172.822 221.373 172.766 221.35 172.715C221.116 172.06 220.735 171.468 220.236 170.984C219.736 170.5 219.132 170.138 218.47 169.925C218.417 169.912 218.361 169.911 218.307 169.92C218.253 169.93 218.201 169.952 218.156 169.983C218.111 170.014 218.072 170.054 218.044 170.101C218.015 170.148 217.997 170.201 217.99 170.255C217.971 170.37 217.995 170.488 218.058 170.586C218.121 170.684 218.218 170.755 218.33 170.785C218.853 170.958 219.329 171.249 219.721 171.636C220.113 172.023 220.41 172.495 220.59 173.015C220.607 173.073 220.636 173.126 220.676 173.171C220.716 173.216 220.765 173.251 220.82 173.275Z" fill="#263238"/>
<path d="M208.26 174.572L210.03 174.422C210.03 174.422 209 175.612 208.26 174.572Z" fill="#263238"/>
<path d="M206.34 164.541C206.34 164.541 205.63 169.961 199.55 173.301L198.44 179.921L197.08 184.001C197.08 184.001 190.22 182.531 191.4 171.001C192.2 163.241 195.84 161.001 198.4 160.321C199.818 159.991 201.147 159.353 202.29 158.451C203.94 157.111 207.29 155.781 213.45 158.101C222.54 161.531 219.92 169.171 219.92 169.171C218.844 167.432 217.348 165.991 215.57 164.981C213.07 163.671 208.69 163.001 206.34 164.541Z" fill="#263238"/>
<path d="M193.29 177.811C193.901 179.582 195.188 181.038 196.87 181.861C199.04 182.861 200.44 180.791 200.09 178.351C199.78 176.161 198.27 173.001 195.96 173.031C193.65 173.061 192.51 175.561 193.29 177.811Z" fill="#EBB376"/>
<path d="M207.46 261.075L188.24 256.135C188.24 256.135 184.73 251.285 189.53 247.565C189.53 247.565 184.9 241.465 189.53 235.405L191.26 219.705C191.26 219.705 197.89 216.065 196.61 209.035C196.297 207.449 195.704 205.932 194.86 204.555L203.65 207.215L205.48 207.765C210 214.565 207.46 261.075 207.46 261.075Z" fill="#407BFF"/>
<path opacity="0.2" d="M204.59 207.757C201.952 208.342 199.28 208.766 196.59 209.027C196.277 207.442 195.684 205.925 194.84 204.547L203.63 207.207C204 207.377 204.27 207.557 204.59 207.757Z" fill="black"/>
<path opacity="0.2" d="M189.53 247.559C189.53 247.559 194.4 251.679 203.43 251.289C203.43 251.289 193.24 246.599 189.53 247.559Z" fill="black"/>
<path opacity="0.2" d="M189.53 235.399C189.53 235.399 201.03 239.989 206.66 238.539C206.66 238.539 195.08 233.539 189.53 235.399Z" fill="black"/>
<path opacity="0.2" d="M191.26 227.461C191.26 227.461 203.26 230.551 206.66 228.671C206.66 228.671 195.36 225.291 191.26 227.461Z" fill="black"/>
<path opacity="0.2" d="M206.66 218.165C206.66 218.165 197.25 216.275 193.05 218.945C193.05 218.995 203.89 220.245 206.66 218.165Z" fill="black"/>
<path d="M191.26 197.551C195.26 199.381 205.49 207.751 205.49 207.751C205.49 207.751 187.09 205.911 186 203.411C184.91 200.911 184.47 194.431 191.26 197.551Z" fill="#407BFF"/>
<path d="M235.12 229.337L232.45 228.737C231.953 228.63 231.438 228.641 230.947 228.769C230.455 228.898 230.001 229.14 229.62 229.477L226 232.697C225.3 233.335 224.761 234.13 224.428 235.016C224.094 235.903 223.975 236.856 224.08 237.797L224.21 238.987C228.58 240.267 234.21 238.447 234.21 238.447L235.88 238.107C236.226 238.048 236.558 237.921 236.854 237.732C237.15 237.543 237.406 237.298 237.607 237.009C237.807 236.72 237.947 236.394 238.02 236.051C238.093 235.707 238.096 235.352 238.03 235.007L237.4 231.687C237.288 231.117 237.014 230.591 236.609 230.174C236.204 229.756 235.687 229.466 235.12 229.337Z" fill="#EBB376"/>
<path d="M194.4 220.378C196.206 227.08 198.644 233.596 201.68 239.838C202.701 241.83 203.832 243.763 205.07 245.628L204.42 244.928C204.14 244.698 203.84 244.678 203.9 244.708C205.075 244.775 206.25 244.566 207.33 244.098C209.559 243.281 211.722 242.295 213.8 241.148C218.22 238.778 222.62 235.998 226.8 233.248C227.313 232.919 227.929 232.79 228.531 232.886C229.133 232.981 229.679 233.293 230.066 233.764C230.452 234.234 230.653 234.831 230.63 235.44C230.607 236.048 230.362 236.628 229.94 237.068C223.87 243.068 207.23 258.808 198.49 251.768C191.49 243.448 187.33 233.148 184.64 222.698C183.34 216.248 192.64 214.038 194.37 220.378H194.4Z" fill="#E9B376"/>
<path d="M187.37 205.438C181.18 209.807 180.89 216.348 184.23 228.878C188.7 231.118 199.56 228.277 199.56 228.277C199.56 228.277 196.13 208.838 187.37 205.438Z" fill="#263238"/>
<path d="M193.42 286.089C192.61 284.089 184.87 281.599 180.32 280.319C183.79 278.649 184.54 274.599 184.54 274.599C180.31 274.139 177.04 278.659 177.04 278.659C176.44 274.119 171.04 272.969 171.04 272.969C170.943 274.366 171.195 275.765 171.775 277.039C172.355 278.314 173.243 279.424 174.36 280.269C169.77 281.729 160.79 284.759 160.61 286.089C160.36 286.435 160.223 286.851 160.22 287.279V296.609C160.22 297.139 160.431 297.648 160.806 298.023C161.181 298.398 161.69 298.609 162.22 298.609H191.71C192.24 298.609 192.749 298.398 193.124 298.023C193.499 297.648 193.71 297.139 193.71 296.609V287.279C193.74 286.862 193.639 286.445 193.42 286.089Z" fill="#407BFF"/>
<path opacity="0.3" d="M193.81 287.267V296.598C193.81 297.128 193.599 297.637 193.224 298.012C192.849 298.387 192.34 298.598 191.81 298.598H162.28C161.75 298.598 161.241 298.387 160.866 298.012C160.491 297.637 160.28 297.128 160.28 296.598V287.267C160.279 286.839 160.416 286.422 160.67 286.077C160.84 284.747 169.83 281.718 174.42 280.258C173.89 279.906 173.412 279.482 173 278.997C171.582 277.308 170.866 275.139 171 272.938C171 272.938 176.38 274.078 177 278.628C177 278.628 180.27 274.097 184.5 274.557C184.023 276.781 182.7 278.732 180.81 279.997C180.64 280.106 180.463 280.203 180.28 280.288H180.35L180.55 280.348L180.81 280.427C185.41 281.737 192.6 284.078 193.38 286.038C193.657 286.388 193.808 286.821 193.81 287.267Z" fill="white"/>
<path opacity="0.2" d="M175.08 280.711C175.08 280.711 162.52 284.711 162.62 285.801C162.72 286.891 175.08 281.301 175.08 281.301C175.08 281.301 173.5 282.781 174.39 283.471C175.28 284.161 175.87 281.991 175.87 281.991C175.87 281.991 175.57 285.761 176.56 285.991C177.55 286.221 178.84 283.081 175.08 280.711Z" fill="black"/>
<path opacity="0.2" d="M186.8 282.775C187.05 283.365 180.72 281.045 180.42 281.045C180.12 281.045 182.15 282.275 181.16 282.575C180.17 282.875 178.54 281.045 178.25 281.145C177.96 281.245 179.93 283.215 180.03 284.405C180.03 284.405 177.7 280.585 174.39 280.255C173.871 279.901 173.403 279.477 173 278.995C173.718 279.52 174.572 279.829 175.46 279.885C175.46 279.885 173.06 277.765 174.1 276.995C175.14 276.225 176.1 279.685 176.1 279.685L177.02 278.625V279.295C177.02 279.295 179.92 276.965 180.66 277.515C181.4 278.065 177.59 279.895 177.59 279.895C178.662 280.092 179.758 280.126 180.84 279.995C180.67 280.103 180.493 280.2 180.31 280.285H180.38L180.58 280.345L180.84 280.425C182.36 280.935 186.59 282.285 186.8 282.775Z" fill="black"/>
<path d="M323.07 268.797V265.797H317.87V268.797C317.869 269.192 317.786 269.583 317.626 269.945C317.466 270.306 317.232 270.631 316.94 270.897C316.645 271.161 316.408 271.485 316.246 271.847C316.084 272.208 316 272.6 316 272.997V296.867C316.003 297.266 316.163 297.647 316.446 297.928C316.729 298.209 317.111 298.367 317.51 298.367H323.43C323.829 298.367 324.211 298.209 324.494 297.928C324.777 297.647 324.937 297.266 324.94 296.867V272.997C324.939 272.601 324.856 272.211 324.696 271.849C324.536 271.487 324.302 271.163 324.01 270.897C323.715 270.633 323.478 270.309 323.316 269.947C323.154 269.585 323.07 269.193 323.07 268.797Z" fill="#407BFF"/>
<path opacity="0.6" d="M324.94 280.487V272.997C324.939 272.601 324.856 272.211 324.696 271.849C324.536 271.487 324.302 271.163 324.01 270.897C323.715 270.633 323.478 270.309 323.316 269.947C323.154 269.585 323.07 269.193 323.07 268.797V265.797H317.87V268.797C317.869 269.192 317.786 269.583 317.626 269.945C317.466 270.306 317.232 270.631 316.94 270.897C316.645 271.161 316.408 271.485 316.246 271.847C316.084 272.208 316 272.6 316 272.997V280.487H324.94Z" fill="white"/>
<path opacity="0.6" d="M316 289.859V296.859C316.003 297.258 316.163 297.64 316.446 297.921C316.729 298.202 317.111 298.359 317.51 298.359H323.43C323.829 298.359 324.211 298.202 324.494 297.921C324.777 297.64 324.937 297.258 324.94 296.859V289.859H316Z" fill="white"/>
<path d="M323.22 265H317.73C317.548 265 317.4 265.148 317.4 265.33V267.01C317.4 267.192 317.548 267.34 317.73 267.34H323.22C323.402 267.34 323.55 267.192 323.55 267.01V265.33C323.55 265.148 323.402 265 323.22 265Z" fill="#407BFF"/>
<path d="M158.17 298.635H148.1L146.76 282.125H159.51L158.17 298.635Z" fill="#263238"/>
<path opacity="0.6" d="M156.14 289.438C156.14 290.031 155.964 290.611 155.634 291.104C155.305 291.598 154.836 291.982 154.288 292.209C153.74 292.436 153.137 292.496 152.555 292.38C151.973 292.264 151.438 291.978 151.019 291.559C150.599 291.139 150.313 290.605 150.198 290.023C150.082 289.441 150.141 288.838 150.368 288.289C150.595 287.741 150.98 287.273 151.473 286.943C151.967 286.613 152.547 286.438 153.14 286.438C153.936 286.438 154.699 286.754 155.261 287.316C155.824 287.879 156.14 288.642 156.14 289.438Z" fill="white"/>
<path d="M160.07 282.57H146.2L147.54 281.07H158.73L160.07 282.57Z" fill="#263238"/>
<path opacity="0.6" d="M160.07 282.57H146.2L147.54 281.07H158.73L160.07 282.57Z" fill="white"/>
</g>
<defs>
<clipPath id="clip0_6897_84765">
<rect width="500" height="372.61" fill="white"/>
</clipPath>
</defs>
</svg>
