<svg width="65" height="65" viewBox="0 0 65 65" fill="none" xmlns="http://www.w3.org/2000/svg">
<rect width="65" height="65" rx="8" fill="#D6F4DE"/>
<g clip-path="url(#clip0_1289_15370)">
<path d="M19.4795 14.0382C18.7251 14.3211 18.2825 14.9958 18.2825 15.8663V16.3959H17.4991C16.6648 16.3959 16.0917 16.5047 15.5839 16.7659C15.1631 16.9763 14.5683 17.5639 14.3434 17.9774C13.9081 18.7754 13.9299 18.0645 13.9299 31.2676C13.9299 44.2893 13.9154 43.7307 14.2926 44.478C14.6626 45.1961 15.5041 45.8418 16.3238 46.0232C16.5995 46.0884 17.1363 46.1392 17.5136 46.1392C17.8981 46.1392 18.21 46.1537 18.21 46.1755C18.21 46.1973 18.0939 46.4439 17.9561 46.7268C17.5934 47.445 17.2814 48.4171 17.1654 49.1861C17.013 50.1872 17.1581 50.5935 17.7747 50.9054L18.0939 51.0723H32.5376C46.4589 51.0723 46.9812 51.065 47.2714 50.9344C47.6994 50.7386 47.9098 50.4121 47.9388 49.8753C47.9823 49.1208 47.6414 47.815 47.1263 46.7486L46.8216 46.1392H47.518C48.2652 46.1392 48.9544 46.0086 49.3969 45.7838C49.8177 45.5661 50.4343 44.964 50.6592 44.565C51.0945 43.7525 51.0727 44.4852 51.0727 31.2676C51.0727 18.224 51.0872 18.8044 50.7027 18.0499C50.6157 17.8831 50.3908 17.5784 50.1949 17.3753C49.5275 16.6716 48.7731 16.3959 47.5035 16.3959H46.72V15.8663C46.72 15.4456 46.6838 15.2642 46.5314 14.9595C45.9656 13.8206 44.4276 13.5884 43.5571 14.5243C43.1944 14.9015 43.0711 15.2134 43.0348 15.8301L42.9985 16.3959H41.787H40.5755L40.5392 15.8301C40.503 15.2134 40.3796 14.9015 40.0169 14.5243C39.1391 13.5884 37.6157 13.8133 37.0426 14.9595C36.8902 15.2642 36.854 15.4383 36.854 15.8663V16.3959H35.628H34.4092L34.3657 15.8518C34.2931 14.9958 34.032 14.546 33.3791 14.1615C33.0962 13.9947 32.9656 13.9657 32.5013 13.9657C32.037 13.9657 31.9064 13.9947 31.6235 14.1615C30.9706 14.546 30.7094 14.9958 30.6369 15.8518L30.5934 16.3959H29.3746H28.1486V15.8663C28.1486 15.4456 28.1123 15.2642 27.96 14.9595C27.4014 13.8424 25.965 13.5957 25.0437 14.4662C24.6592 14.8217 24.4996 15.1989 24.4633 15.8301L24.4271 16.3959H23.2156H22.0041L21.9678 15.8301C21.917 15.0176 21.5833 14.4662 20.9304 14.1325C20.5604 13.9367 19.864 13.8931 19.4795 14.0382ZM20.5387 15.373L20.7491 15.5834V16.9763C20.7491 18.3764 20.72 18.5723 20.4661 18.7681C20.2703 18.9205 19.893 18.877 19.6972 18.6811C19.5158 18.507 19.5158 18.4997 19.5158 17.0343C19.5231 15.5036 19.5376 15.4238 19.8423 15.2497C20.0817 15.1119 20.3138 15.1554 20.5387 15.373ZM26.5744 15.2497C26.8936 15.4166 26.9081 15.4964 26.9154 17.0343C26.9154 18.4997 26.9154 18.507 26.734 18.6811C26.5381 18.877 26.1609 18.9205 25.965 18.7681C25.7111 18.5723 25.6821 18.3764 25.6821 16.9763V15.5834L25.8925 15.373C26.1174 15.1482 26.3205 15.1119 26.5744 15.2497ZM32.9003 15.3368C33.1397 15.5762 33.1687 15.8301 33.1397 17.2665L33.1179 18.5142L32.9148 18.6883C32.7987 18.7826 32.6174 18.8624 32.5013 18.8624C32.3852 18.8624 32.2039 18.7826 32.0878 18.6883L31.8847 18.5142L31.8629 17.2665C31.8484 16.5773 31.8556 15.9026 31.8847 15.7648C31.95 15.4238 32.2184 15.1627 32.5013 15.1627C32.6391 15.1627 32.7915 15.228 32.9003 15.3368ZM39.1101 15.373L39.3205 15.5834V16.9763C39.3205 18.3764 39.2915 18.5723 39.0376 18.7681C38.8417 18.9205 38.4645 18.877 38.2686 18.6811C38.0872 18.507 38.0872 18.4997 38.0872 17.0343C38.0945 15.5036 38.109 15.4238 38.4137 15.2497C38.6531 15.1119 38.8852 15.1554 39.1101 15.373ZM45.1458 15.2497C45.465 15.4166 45.4795 15.4964 45.4868 17.0343C45.4868 18.4997 45.4868 18.507 45.3054 18.6811C45.1096 18.877 44.7323 18.9205 44.5365 18.7681C44.2825 18.5723 44.2535 18.3764 44.2535 16.9763V15.5834L44.4639 15.373C44.6888 15.1482 44.8919 15.1119 45.1458 15.2497ZM18.2825 18.1515C18.2825 19.3122 19.0298 20.0884 20.1397 20.0957C21.2351 20.0957 21.9823 19.2614 21.9823 18.0354V17.6292H23.2156H24.4488V18.0499C24.4488 19.2614 25.2033 20.0957 26.2915 20.0957C27.4014 20.0884 28.1486 19.3122 28.1486 18.1515V17.6292H29.3746H30.5934L30.6369 18.1515C30.6877 18.8624 30.8545 19.2324 31.268 19.6097C32.0007 20.2698 33.0744 20.2626 33.7636 19.6024C34.1408 19.2397 34.3222 18.8117 34.3657 18.166L34.4092 17.6292H35.628H36.854V18.1515C36.8612 19.3122 37.6012 20.0957 38.7111 20.0957C39.8065 20.0957 40.5538 19.2614 40.5538 18.0354V17.6292H41.787H43.0203V18.0499C43.0203 19.2614 43.7747 20.0957 44.8629 20.0957C45.9728 20.0957 46.7128 19.3122 46.72 18.1515V17.6292H47.431C48.316 17.6292 48.8021 17.767 49.1938 18.1152C49.7307 18.6013 49.7959 18.8117 49.825 20.1465L49.854 21.329H32.5013H15.1486L15.1776 20.1465C15.1994 19.1091 15.2212 18.935 15.359 18.6811C15.7652 17.9266 16.3674 17.6364 17.5426 17.6292H18.2825V18.1515ZM49.825 32.9361C49.8395 44.3909 49.8757 43.6437 49.3679 44.2386C49.2301 44.3982 48.9617 44.6085 48.7658 44.7028C48.4611 44.8552 48.3088 44.8697 47.2061 44.8915L45.9801 44.9205L45.3635 44.2603C44.6235 43.4696 43.5861 42.6136 42.6503 42.0405C42.2731 41.8156 41.9539 41.6124 41.9394 41.5979C41.9248 41.5907 42.0337 41.3803 42.1788 41.1482C42.556 40.5315 42.5125 40.2051 42.0409 40.002C41.6709 39.8496 41.4678 39.9657 41.1196 40.5243C40.7714 41.0756 40.8875 41.0756 39.6542 40.5896C37.4488 39.7263 34.8082 39.2838 32.2184 39.3345L30.9198 39.3563L29.8969 36.9986C29.3384 35.7001 28.8596 34.5901 28.8378 34.5176C28.8015 34.4233 28.9031 34.3797 29.4327 34.2564C29.7809 34.1694 30.3467 34.0823 30.6877 34.0533L31.3043 34.0025L31.8847 33.4512C32.864 32.5153 33.7128 32.1454 35.0259 32.0873C35.7731 32.0511 35.8529 32.0293 36.0197 31.8624C36.3752 31.5142 36.2373 31.166 35.4611 30.4261C33.0236 28.1119 29.3021 27.5243 25.907 28.9171C24.3255 29.57 22.8819 30.6727 21.8445 32.0366C21.3294 32.7185 20.6475 34.1186 20.4081 35.0036C20.234 35.6493 20.2122 35.8524 20.205 36.9043C20.205 38.0432 20.2122 38.0795 20.3791 38.2609C20.5024 38.3915 20.633 38.4495 20.8071 38.4495C21.0175 38.4495 21.1481 38.3624 21.6704 37.8691C22.6497 36.9406 23.7452 36.498 25.051 36.4908H25.6168L26.0303 36.0991C26.4656 35.6855 27.4667 34.9674 27.5973 34.9674C27.6626 34.9746 29.5995 39.3345 29.5995 39.4724C29.5995 39.5014 29.3311 39.5594 29.0046 39.6102C27.4957 39.8278 25.537 40.4517 23.9628 41.2062C22.2362 42.0332 20.9812 42.9328 19.7842 44.1805L19.0733 44.9205L17.8255 44.8915C16.6938 44.8697 16.5487 44.8552 16.2368 44.7028C16.0409 44.6085 15.7798 44.3982 15.6419 44.2386C15.1341 43.6437 15.1631 44.3982 15.1631 32.9724C15.1631 27.2994 15.1849 22.6348 15.2139 22.613C15.2357 22.584 23.0342 22.5695 32.5303 22.5767L49.8032 22.5985L49.825 32.9361ZM31.4567 29.6353C32.1458 29.8022 33.5459 30.4333 33.9377 30.7453L34.1118 30.8758L33.3791 31.1152C32.6681 31.3474 31.7759 31.8262 31.4059 32.1816L31.2173 32.363L30.9996 31.9785C30.5063 31.108 29.6068 30.1649 28.7652 29.6281L28.5549 29.4902L28.8378 29.4395C29.3819 29.3451 30.7094 29.4467 31.4567 29.6353ZM27.2128 30.2955C27.8512 30.4841 28.4388 30.8396 28.9466 31.3401C29.4109 31.8117 30.0928 32.7547 30.013 32.8345C29.9913 32.8563 29.7446 32.9216 29.4544 32.9796C28.33 33.2118 27.2055 33.6978 26.2407 34.358C25.9288 34.5756 25.6386 34.7352 25.6096 34.7134C25.5225 34.6554 25.3266 33.7414 25.2759 33.132C25.1888 32.1744 25.4862 31.1007 26.0231 30.4333C26.1972 30.2157 26.2697 30.1794 26.5236 30.1794C26.6832 30.1794 26.9952 30.2302 27.2128 30.2955ZM24.0861 32.0728C23.9773 32.8273 24.0426 33.6761 24.2602 34.5539C24.3545 34.9238 24.4198 35.2285 24.4126 35.243C24.3981 35.2575 24.1006 35.3228 23.7379 35.4026C23.1068 35.5259 22.1637 35.9249 21.6341 36.2804L21.3947 36.44L21.4382 36.1571C21.7284 34.4741 22.4321 33.0739 23.5565 31.9568C23.854 31.6521 24.1151 31.4199 24.1369 31.4417C24.1514 31.4562 24.1296 31.7464 24.0861 32.0728ZM35.3305 40.7347C36.5058 40.916 37.5867 41.1772 38.6241 41.5254C39.7195 41.8954 40.1185 42.055 40.1185 42.1348C40.1185 42.1638 40.0097 42.3669 39.8791 42.5845L39.6397 42.9835L36.6654 43.0198C34.5978 43.0416 33.6548 43.0851 33.5532 43.1431C33.3065 43.281 33.0526 43.6002 32.4723 44.4707C32.1386 44.9785 31.9209 45.3775 31.9209 45.4936C31.9209 45.733 32.1531 46.0377 32.3852 46.0957C32.7334 46.1828 32.9148 46.0232 33.5169 45.1236L34.0973 44.2531H36.854H39.6107L40.191 45.1236C40.7931 46.0232 40.989 46.19 41.33 46.103C41.5839 46.0449 41.787 45.7765 41.787 45.5153C41.787 45.3485 41.6347 45.0511 41.2429 44.4489L40.6916 43.6219L40.96 43.1722C41.1051 42.9255 41.2502 42.7151 41.2792 42.6934C41.3082 42.6716 41.6202 42.8384 41.9756 43.0633C44.6743 44.7536 46.3573 47.046 46.691 49.498L46.7418 49.839H32.5376H18.3333L18.3841 49.3892C18.5292 48.1197 19.3054 46.531 20.3791 45.3195C22.4466 42.969 25.9723 41.2642 29.8244 40.7419L30.1509 40.6911L30.4991 41.5109C30.6949 41.9607 30.9343 42.4032 31.0286 42.4902C31.2535 42.7006 31.5727 42.7006 31.8121 42.4902C32.0733 42.2726 32.066 41.9534 31.7904 41.344C31.6743 41.0829 31.551 40.7927 31.5219 40.7056L31.4712 40.5315L33.0164 40.5751C33.8724 40.5968 34.9098 40.6694 35.3305 40.7347Z" fill="#34C75A"/>
<path d="M41.5317 25.7682C41.2778 25.9133 41.2125 26.0729 41.2053 26.53V26.9797L40.9006 27.1176L40.5886 27.2554L40.2332 26.9362C39.8124 26.559 39.4932 26.5154 39.2103 26.8056C38.9201 27.0885 38.9636 27.4077 39.3481 27.8285L39.6601 28.184L39.5295 28.4887L39.3989 28.8006H38.9274C38.4921 28.8006 38.4486 28.8151 38.2672 29.0327C38.0351 29.3084 38.0568 29.6204 38.347 29.867C38.4921 30.0048 38.6154 30.0339 38.9781 30.0339H39.4279L39.5512 30.3385L39.6818 30.636L39.3554 30.9842C38.9636 31.405 38.9128 31.7387 39.2103 32.0288C39.4932 32.3118 39.7689 32.2682 40.1896 31.8765L40.5451 31.5428L40.8788 31.6734L41.2053 31.8112V32.2537C41.2053 32.9502 41.5462 33.2548 42.0685 33.0372C42.337 32.9211 42.4385 32.6962 42.4385 32.1812C42.4385 31.7967 42.4385 31.7967 42.7432 31.6806L43.0479 31.5573L43.2728 31.7604C43.8024 32.261 44.1361 32.3335 44.4335 32.0288C44.7237 31.7459 44.6801 31.4267 44.2884 30.9914L43.9692 30.636L44.0853 30.3313C44.2014 30.0339 44.2014 30.0339 44.5858 30.0339C45.1009 30.0339 45.3258 29.9323 45.4419 29.6639C45.6595 29.1416 45.3548 28.8006 44.6584 28.8006H44.2159L44.078 28.4741L43.9474 28.1404L44.2811 27.785C44.6729 27.3642 44.7164 27.0885 44.4335 26.8056C44.1433 26.5154 43.8096 26.559 43.4034 26.9362L43.0697 27.2554L42.7577 27.1393L42.4385 27.0233V26.5662C42.4385 26.1527 42.4168 26.0802 42.2281 25.8916C42.0032 25.6739 41.7711 25.6304 41.5317 25.7682ZM42.5183 28.4016C43.4832 29.0327 42.9899 30.6142 41.8291 30.6142C41.0021 30.6142 40.4145 29.8743 40.6249 29.098C40.8425 28.271 41.7929 27.9228 42.5183 28.4016Z" fill="#34C75A"/>
</g>
<defs>
<clipPath id="clip0_1289_15370">
<rect width="37.1429" height="37.1429" fill="white" transform="translate(13.9297 13.9297)"/>
</clipPath>
</defs>
</svg>
