<svg width="18" height="18" viewBox="0 0 18 18" fill="none" xmlns="http://www.w3.org/2000/svg">
<path d="M17 5.41506L11 0.686717C10.45 0.244487 9.73796 0 9.00003 0C8.2621 0 7.55006 0.244487 7.00005 0.686717L1.00009 5.41506C0.682458 5.67042 0.428992 5.98368 0.256565 6.33398C0.0841379 6.68428 -0.00329254 7.06358 9.47934e-05 7.44663V15.3032C9.47934e-05 16.0185 0.316163 16.7044 0.878768 17.2101C1.44137 17.7159 2.20443 18 3.00007 18H15C15.7956 18 16.5587 17.7159 17.1213 17.2101C17.6839 16.7044 18 16.0185 18 15.3032V7.43764C18.0019 7.0561 17.9138 6.67853 17.7414 6.32988C17.5691 5.98122 17.3163 5.66942 17 5.41506ZM11 16.2022H7.00005V11.7075C7.00005 11.4691 7.1054 11.2405 7.29294 11.0719C7.48047 10.9033 7.73482 10.8086 8.00004 10.8086H10C10.2652 10.8086 10.5196 10.9033 10.7071 11.0719C10.8947 11.2405 11 11.4691 11 11.7075V16.2022ZM16 15.3032C16 15.5416 15.8946 15.7703 15.7071 15.9389C15.5196 16.1074 15.2652 16.2022 15 16.2022H13V11.7075C13 10.9923 12.6839 10.3064 12.1213 9.80062C11.5587 9.29488 10.7957 9.01076 10 9.01076H8.00004C7.20439 9.01076 6.44134 9.29488 5.87873 9.80062C5.31613 10.3064 5.00006 10.9923 5.00006 11.7075V16.2022H3.00007C2.73486 16.2022 2.48051 16.1074 2.29297 15.9389C2.10544 15.7703 2.00008 15.5416 2.00008 15.3032V7.43764C2.00026 7.31 2.03067 7.18387 2.0893 7.06762C2.14792 6.95138 2.23341 6.84768 2.34008 6.76345L8.34004 2.04409C8.52252 1.89998 8.75712 1.8205 9.00003 1.8205C9.24294 1.8205 9.47754 1.89998 9.66003 2.04409L15.66 6.76345C15.7667 6.84768 15.8521 6.95138 15.9108 7.06762C15.9694 7.18387 15.9998 7.31 16 7.43764V15.3032Z" fill="#3BA4E8"/>
</svg>
