<svg width="20" height="20" viewBox="0 0 20 20" fill="none" xmlns="http://www.w3.org/2000/svg">
<path d="M17.9014 6.45929L11.9755 1.78932C11.4323 1.35255 10.7291 1.11108 10.0002 1.11108C9.27143 1.11108 8.56818 1.35255 8.02495 1.78932L2.09907 6.45929C1.78536 6.7115 1.53502 7.02089 1.36473 7.36687C1.19443 7.71284 1.10808 8.08746 1.11142 8.46578V16.2254C1.11142 16.9318 1.42359 17.6092 1.97925 18.1087C2.53491 18.6082 3.28854 18.8889 4.07436 18.8889H15.9261C16.712 18.8889 17.4656 18.6082 18.0212 18.1087C18.5769 17.6092 18.8891 16.9318 18.8891 16.2254V8.4569C18.891 8.08007 18.804 7.70717 18.6337 7.36281C18.4635 7.01846 18.2139 6.71051 17.9014 6.45929ZM11.9755 17.1132H8.02495V12.6741C8.02495 12.4386 8.12901 12.2128 8.31423 12.0463C8.49945 11.8798 8.75066 11.7863 9.0126 11.7863H10.9879C11.2498 11.7863 11.501 11.8798 11.6863 12.0463C11.8715 12.2128 11.9755 12.4386 11.9755 12.6741V17.1132ZM16.9138 16.2254C16.9138 16.4608 16.8097 16.6867 16.6245 16.8532C16.4393 17.0197 16.1881 17.1132 15.9261 17.1132H13.9508V12.6741C13.9508 11.9677 13.6387 11.2902 13.083 10.7907C12.5274 10.2912 11.7737 10.0106 10.9879 10.0106H9.0126C8.22678 10.0106 7.47314 10.2912 6.91748 10.7907C6.36182 11.2902 6.04966 11.9677 6.04966 12.6741V17.1132H4.07436C3.81242 17.1132 3.56121 17.0197 3.37599 16.8532C3.19077 16.6867 3.08672 16.4608 3.08672 16.2254V8.4569C3.08689 8.33084 3.11693 8.20626 3.17483 8.09145C3.23273 7.97664 3.31717 7.87423 3.42252 7.79103L9.3484 3.12994C9.52864 2.98761 9.76034 2.90911 10.0002 2.90911C10.2402 2.90911 10.4719 2.98761 10.6521 3.12994L16.578 7.79103C16.6833 7.87423 16.7678 7.97664 16.8257 8.09145C16.8836 8.20626 16.9136 8.33084 16.9138 8.4569V16.2254Z" fill="#93AABE"/>
</svg>
