<svg width="24" height="24" viewBox="0 0 24 24" fill="none" xmlns="http://www.w3.org/2000/svg">
<path d="M6.19223 1.57478C5.40004 1.78571 4.78129 2.41853 4.57035 3.22009C4.5141 3.43102 4.50004 3.8154 4.50004 5.0154V6.53884L3.33285 7.16696C1.63598 8.07634 1.69223 8.03884 1.5891 8.26384C1.50473 8.45602 1.50004 8.66696 1.50004 14.4841C1.50004 21.0466 1.49066 20.7513 1.76254 21.2904C1.93129 21.6232 2.3391 22.0357 2.66723 22.2138C3.24379 22.5185 2.62973 22.4998 12 22.4998C21.3704 22.4998 20.7563 22.5185 21.3329 22.2138C21.661 22.0357 22.0688 21.6232 22.2375 21.2904C22.5094 20.7513 22.5 21.0466 22.5 14.4841C22.5 8.68571 22.4954 8.45134 22.411 8.26852C22.3079 8.03884 22.2891 8.02946 20.6391 7.14352L19.5 6.53884V5.0154C19.5 3.8154 19.486 3.43102 19.4297 3.22009C19.2188 2.40915 18.5954 1.78102 17.7891 1.57009C17.386 1.46696 6.58129 1.46696 6.19223 1.57478ZM17.6532 3.12165C17.7235 3.17321 17.8266 3.27634 17.8782 3.34665C17.9766 3.47321 17.9766 3.50602 17.9766 7.57946V11.681L15.4688 13.0357C14.0907 13.781 12.825 14.4326 12.661 14.4841C12.2485 14.6154 11.7 14.6107 11.2969 14.4701C11.1282 14.4091 9.8766 13.7576 8.50785 13.0216L6.02348 11.6763L6.00941 7.70134C6.00473 5.51696 6.00941 3.66071 6.02348 3.57634C6.05629 3.38884 6.25316 3.14977 6.44535 3.0654C6.55785 3.01384 7.57973 3.00446 12.0563 3.01384C17.4985 3.02321 17.5266 3.02321 17.6532 3.12165ZM4.49066 10.2091L4.4766 10.8607L3.73598 10.4576L3.00004 10.0545L3.00941 9.53884L3.02348 9.0279L3.75004 8.64352L4.4766 8.26384L4.49066 8.91071C4.49535 9.27165 4.49535 9.8529 4.49066 10.2091ZM20.8969 8.98571C20.9954 9.04665 21 9.07946 21 9.5529V10.0545L20.2782 10.4388C19.8797 10.6545 19.5469 10.8279 19.5282 10.8279C19.5141 10.8279 19.5 10.2466 19.5 9.53884V8.24977L20.1469 8.58259C20.4985 8.77009 20.836 8.94821 20.8969 8.98571ZM5.70004 13.2045C10.95 16.0357 10.636 15.881 11.2735 16.017C11.8032 16.1295 12.6188 16.0826 13.1485 15.8998C13.4485 15.8013 14.6485 15.1779 17.2735 13.7623L20.9766 11.7654L20.9907 16.0216C20.9954 18.3607 20.9907 20.3435 20.9766 20.4279C20.9391 20.6341 20.7 20.892 20.4938 20.9529C20.3719 20.9904 17.7141 20.9998 11.8969 20.9904L3.47348 20.9763L3.34691 20.8779C3.2766 20.8263 3.17348 20.7232 3.12191 20.6529C3.02348 20.5263 3.02348 20.4841 3.00941 16.1388C3.00473 13.7295 3.0141 11.7654 3.03754 11.7748C3.05629 11.7795 4.25629 12.4263 5.70004 13.2045Z" fill="#4C5D70"/>
<path d="M8.69534 6.06527C8.38128 6.20121 8.20315 6.56215 8.26878 6.91371C8.31096 7.13402 8.54534 7.39183 8.75628 7.45277C8.87346 7.49027 9.96096 7.49965 12.1032 7.49027C15.2203 7.47621 15.2766 7.47621 15.4032 7.37777C15.6516 7.19496 15.7266 7.04496 15.7266 6.74965C15.7266 6.45433 15.6516 6.30433 15.4032 6.12152C15.2766 6.02308 15.225 6.02308 12.0563 6.01371C9.45003 6.00433 8.80784 6.01371 8.69534 6.06527Z" fill="#4C5D70"/>
<path d="M8.69534 9.06527C8.38128 9.20121 8.20315 9.56215 8.26878 9.91371C8.31096 10.134 8.54534 10.3918 8.75628 10.4528C8.87346 10.4903 9.84846 10.4996 11.7282 10.4903C14.4703 10.4762 14.5266 10.4762 14.6532 10.3778C14.9016 10.195 14.9766 10.045 14.9766 9.74965C14.9766 9.45433 14.9016 9.30433 14.6532 9.12152C14.5266 9.02308 14.4703 9.02308 11.6813 9.01371C9.38909 9.00433 8.80784 9.01371 8.69534 9.06527Z" fill="#4C5D70"/>
</svg>
