<svg width="24" height="24" viewBox="0 0 24 24" fill="none" xmlns="http://www.w3.org/2000/svg">
<path d="M12 1C9.82441 1 7.69767 1.64514 5.88873 2.85383C4.07979 4.06253 2.66989 5.78049 1.83733 7.79048C1.00477 9.80047 0.786929 12.0122 1.21137 14.146C1.6358 16.2798 2.68345 18.2398 4.22183 19.7782C5.76021 21.3165 7.72022 22.3642 9.85401 22.7886C11.9878 23.2131 14.1995 22.9952 16.2095 22.1627C18.2195 21.3301 19.9375 19.9202 21.1462 18.1113C22.3549 16.3023 23 14.1756 23 12C22.9968 9.08359 21.8369 6.28753 19.7747 4.22531C17.7125 2.16309 14.9164 1.00315 12 1V1ZM12 21.1667C10.187 21.1667 8.41473 20.629 6.90728 19.6218C5.39983 18.6146 4.22491 17.1829 3.53111 15.5079C2.83731 13.8329 2.65578 11.9898 3.00947 10.2117C3.36317 8.43351 4.23621 6.80017 5.51819 5.51819C6.80017 4.23621 8.43352 3.36317 10.2117 3.00947C11.9898 2.65577 13.8329 2.8373 15.5079 3.5311C17.1829 4.22491 18.6146 5.39982 19.6218 6.90727C20.6291 8.41472 21.1667 10.187 21.1667 12C21.164 14.4303 20.1974 16.7604 18.4789 18.4789C16.7604 20.1974 14.4303 21.164 12 21.1667Z" fill="#4C5D70"/>
<path d="M12 10H11C10.7348 10 10.4804 10.0937 10.2929 10.2603C10.1054 10.427 10 10.6531 10 10.8889C10 11.1246 10.1054 11.3507 10.2929 11.5174C10.4804 11.6841 10.7348 11.7778 11 11.7778H12V17.1111C12 17.3469 12.1054 17.573 12.2929 17.7397C12.4804 17.9064 12.7348 18 13 18C13.2652 18 13.5196 17.9064 13.7071 17.7397C13.8946 17.573 14 17.3469 14 17.1111V11.7778C14 11.3063 13.7893 10.8541 13.4142 10.5207C13.0391 10.1873 12.5304 10 12 10Z" fill="#4C5D70"/>
<path d="M12 8C12.5523 8 13 7.55228 13 7C13 6.44772 12.5523 6 12 6C11.4477 6 11 6.44772 11 7C11 7.55228 11.4477 8 12 8Z" fill="#4C5D70"/>
</svg>
