<svg width="76" height="76" viewBox="0 0 76 76" fill="none" xmlns="http://www.w3.org/2000/svg">
<circle cx="38" cy="38" r="38" fill="#CDC6FF"/>
<path d="M38 19.3125C33.5012 19.3125 29.8542 22.9595 29.8542 27.4583C29.8542 31.9572 33.5012 35.6042 38 35.6042C42.4988 35.6042 46.1458 31.9572 46.1458 27.4583C46.1458 22.9595 42.4988 19.3125 38 19.3125ZM32.7292 27.4583C32.7292 24.5473 35.089 22.1875 38 22.1875C40.911 22.1875 43.2708 24.5473 43.2708 27.4583C43.2708 30.3693 40.911 32.7292 38 32.7292C35.089 32.7292 32.7292 30.3693 32.7292 27.4583ZM27.3224 23.1314C27.9736 22.6772 28.1332 21.7811 27.679 21.13C27.2248 20.4788 26.3288 20.3192 25.6776 20.7734C23.5708 22.2429 22.1875 24.6889 22.1875 27.4583C22.1875 30.4231 23.7724 33.0164 26.1341 34.4396C26.8141 34.8493 27.6976 34.6302 28.1073 33.9502C28.5171 33.2702 28.298 32.3868 27.618 31.9771C26.0836 31.0525 25.0625 29.3739 25.0625 27.4583C25.0625 25.6683 25.9534 24.0863 27.3224 23.1314ZM48.3211 21.13C48.7753 20.4788 49.6714 20.3192 50.3225 20.7734C52.4294 22.2429 53.8126 24.6889 53.8126 27.4583C53.8126 30.2276 52.4294 32.6737 50.3225 34.1432C49.6713 34.5974 48.7753 34.4377 48.3211 33.7866C47.8669 33.1354 48.0266 32.2394 48.6778 31.7852C50.0468 30.8303 50.9376 29.2482 50.9376 27.4583C50.9376 25.6683 50.0468 24.0863 48.6777 23.1314C48.0266 22.6772 47.8669 21.7811 48.3211 21.13ZM42.2927 40.4721C41.1745 40.3958 39.7941 40.3958 38.0525 40.3958H37.9475C36.2059 40.3958 34.8256 40.3958 33.7073 40.4721C32.5649 40.5501 31.5914 40.7124 30.6826 41.0889C28.4519 42.0129 26.6795 43.7852 25.7555 46.016C25.3791 46.9248 25.2167 47.8983 25.1388 49.0406C25.0625 50.1589 25.0625 51.5392 25.0625 53.2809V55.25C25.0625 56.0439 25.7061 56.6875 26.5 56.6875H49.5C50.2939 56.6875 50.9375 56.0439 50.9375 55.25V53.2808C50.9375 51.5393 50.9375 50.1588 50.8612 49.0406C50.7833 47.8983 50.6209 46.9248 50.2445 46.016C49.3205 43.7852 47.5481 42.0128 45.3174 41.0889C44.4086 40.7124 43.4351 40.5501 42.2927 40.4721ZM30.6826 41.0889L33.7073 40.4721L37.9475 40.3958L30.6826 41.0889ZM31.7829 43.745C32.283 43.5379 32.907 43.4084 33.903 43.3405C34.9119 43.2716 36.1942 43.2708 38 43.2708C39.8058 43.2708 41.0881 43.2716 42.097 43.3405C43.093 43.4084 43.7171 43.5379 44.2172 43.745C45.7435 44.3772 46.9561 45.5899 47.5883 47.1162C47.7955 47.6163 47.9249 48.2404 47.9929 49.2363C48.0617 50.2452 48.0625 51.5276 48.0625 53.3333V53.8125H27.9375V53.3333C27.9375 51.5276 27.9383 50.2452 28.0071 49.2363C28.0751 48.2404 28.2046 47.6163 28.4117 47.1161C29.0439 45.5899 30.2566 44.3772 31.7829 43.745ZM51.7 42.0163C52.0604 41.3089 52.9261 41.0277 53.6334 41.3881C55.3465 42.2609 56.7393 43.6538 57.6122 45.3668C58.1504 46.4232 58.3835 47.5802 58.4952 48.9475C58.6044 50.2846 58.6044 51.9435 58.6044 54.0368V55.25C58.6044 56.0439 57.9608 56.6875 57.1669 56.6875C56.373 56.6875 55.7294 56.0439 55.7294 55.25V54.1C55.7294 51.9294 55.7283 50.3879 55.6297 49.1816C55.5326 47.9921 55.3479 47.2556 55.0505 46.672C54.7606 46.103 54.3867 45.5856 53.9447 45.1354L55.0505 46.672L52.3282 43.9497C51.6208 43.5893 51.3396 42.7237 51.7 42.0163ZM23.672 43.9497C24.3794 43.5893 24.6607 42.7237 24.3002 42.0163C23.9398 41.3089 23.0742 41.0277 22.3668 41.3881C20.6537 42.261 19.261 43.6538 18.3881 45.3668C17.8499 46.4232 17.6168 47.5802 17.5051 48.9475C17.3958 50.2846 17.3958 51.9435 17.3958 54.0367V55.25C17.3958 56.0439 18.0394 56.6875 18.8333 56.6875C19.6273 56.6875 20.2708 56.0439 20.2708 55.25V54.1C20.2708 51.9294 20.272 50.3879 20.3705 49.1816C20.4677 47.9921 20.6524 47.2556 20.9498 46.672C21.547 45.4999 22.5 44.5469 23.672 43.9497Z" fill="#6C5DD3"/>
</svg>
