<svg width="50" height="50" viewBox="0 0 50 50" fill="none" xmlns="http://www.w3.org/2000/svg">
<rect width="50" height="50" rx="8" fill="#345DC7"/>
<g clip-path="url(#clip0_1289_16985)">
<path d="M22.5117 11.1535C22.2656 11.2355 21.943 11.3832 21.7898 11.4816C21.3687 11.7551 20.882 12.302 20.6578 12.7613C20.3625 13.3574 20.2969 13.7566 20.2969 15.0199C20.2969 16.0535 20.3023 16.1301 20.4227 16.3598C20.5922 16.6934 20.7781 16.8137 21.1555 16.841C21.4234 16.8574 21.5055 16.841 21.6641 16.7316C21.768 16.6605 21.9102 16.5184 21.9758 16.4199C22.0961 16.2449 22.1016 16.1848 22.1016 15.1566C22.1016 13.8223 22.1453 13.6254 22.5555 13.2207C22.7141 13.0676 22.9383 12.9035 23.0586 12.8598C23.2391 12.7941 23.9391 12.7777 27.0781 12.7668L30.8789 12.7559L29.7688 13.1332C29.1562 13.341 28.5492 13.5707 28.418 13.6473C27.9203 13.9426 27.4664 14.6043 27.3516 15.2059C27.3187 15.3973 27.2969 18.6895 27.2969 24.6285V33.7559L25.2898 33.7395C23.3047 33.723 23.2719 33.723 22.9875 33.5918C22.6211 33.4277 22.293 33.0559 22.1836 32.6949C22.1234 32.4871 22.1016 32.1371 22.1016 31.3441C22.1016 30.316 22.0961 30.2559 21.9758 30.0809C21.9102 29.9824 21.768 29.8402 21.6641 29.7691C21.5055 29.6598 21.4234 29.6434 21.1555 29.6598C20.7781 29.6871 20.5922 29.8074 20.4227 30.141C20.3023 30.3707 20.2969 30.4473 20.2969 31.4809C20.2969 32.2301 20.3242 32.6949 20.3789 32.9574C20.6141 34.0785 21.4672 35.0191 22.55 35.3637C22.982 35.5004 22.993 35.5004 25.1422 35.5004H27.2969V36.184C27.2969 36.5559 27.3242 36.9934 27.357 37.152C27.5102 37.8574 27.9805 38.4645 28.6367 38.7871C28.9812 38.9566 29.0633 38.973 29.5938 38.9895L30.168 39.0059L33.925 37.748C37.9062 36.4191 38.0758 36.348 38.4586 35.8887C38.5461 35.7793 38.6992 35.5332 38.7977 35.3363L38.9727 34.9809V23.8246V12.6684L38.8195 12.3566C38.5789 11.8699 38.1852 11.4762 37.6984 11.2355L37.2828 11.0277L30.1187 11.0168L22.9492 11.0004L22.5117 11.1535ZM36.993 12.9145C37.075 12.9801 37.1625 13.1223 37.1953 13.2316C37.2555 13.4504 37.2773 33.9965 37.2172 34.3629C37.1953 34.4777 37.1297 34.6309 37.0641 34.702C36.9711 34.7949 36.0906 35.1121 33.3891 36.0145C31.4367 36.6652 29.7578 37.1957 29.6648 37.1957C29.5445 37.1957 29.4242 37.141 29.3094 37.0371L29.1289 36.8785L29.1125 26.2145L29.1016 15.5559L29.2219 15.3754C29.3422 15.2004 29.468 15.1512 32.9023 14.0027C34.8602 13.3465 36.5445 12.8105 36.6539 12.8105C36.7742 12.8051 36.9055 12.8488 36.993 12.9145Z" fill="white"/>
<path d="M18.1859 18.0547C18.0055 18.1258 17.7375 18.4758 17.6937 18.6836C17.6062 19.1539 17.6172 19.1648 19.2742 20.8273L20.8164 22.375H16.1953C11.6781 22.375 11.5687 22.3805 11.3937 22.4844C11.1312 22.6484 11 22.8945 11 23.25C11 23.6055 11.1312 23.8516 11.3937 24.0156C11.5687 24.1195 11.6781 24.125 16.1953 24.125H20.8164L19.2742 25.6672C17.9453 27.0016 17.732 27.2422 17.6992 27.4172C17.6445 27.707 17.7047 27.975 17.8742 28.1719C18.0711 28.407 18.2789 28.5 18.618 28.5C18.8586 28.5 18.9516 28.4727 19.1266 28.3414C19.4984 28.068 23.7312 23.775 23.7914 23.6164C23.868 23.4195 23.868 23.0805 23.7914 22.8836C23.7312 22.725 19.4984 18.432 19.1266 18.1586C18.9461 18.0273 18.8641 18 18.607 18.0055C18.4375 18.0055 18.2516 18.0273 18.1859 18.0547Z" fill="white"/>
</g>
<defs>
<clipPath id="clip0_1289_16985">
<rect width="28" height="28" fill="white" transform="translate(11 11)"/>
</clipPath>
</defs>
</svg>
