<svg width="30" height="30" viewBox="0 0 30 30" fill="none" xmlns="http://www.w3.org/2000/svg">
<circle cx="15" cy="15" r="15" fill="#98B433"/>
<path d="M14.6628 7.53966C14.6159 7.56017 14.5456 7.61291 14.5075 7.65099C14.4695 7.69201 14.2556 8.09632 14.0329 8.55043C13.8073 9.00161 13.611 9.37369 13.5935 9.37369C13.5788 9.37369 13.1598 9.43229 12.6676 9.50553C11.6686 9.65202 11.6188 9.6696 11.5162 9.88347C11.4459 10.027 11.4371 10.1589 11.4957 10.2907C11.5309 10.3727 12.6589 11.5271 12.8141 11.6384C12.8727 11.6794 12.8698 11.697 12.7175 12.6023C12.6061 13.2498 12.5651 13.5545 12.5798 13.6336C12.6266 13.8767 12.9108 14.0613 13.154 14.0056C13.2097 13.991 13.611 13.7947 14.0417 13.5662C14.4753 13.3406 14.8415 13.1531 14.8591 13.1531C14.8738 13.1531 15.237 13.3377 15.6648 13.5633C16.0925 13.7888 16.491 13.9851 16.5496 14.0027C16.6638 14.032 16.8338 13.9998 16.948 13.9265C17.0418 13.865 17.1385 13.6717 17.1385 13.5486C17.1385 13.49 17.0711 13.0505 16.989 12.573L16.8396 11.7029L17.4842 11.07C17.8416 10.7214 18.158 10.3903 18.1902 10.3376C18.3133 10.1354 18.2342 9.82195 18.0291 9.69304C17.9588 9.64909 17.7127 9.60222 17.0476 9.50553C16.5584 9.43229 16.1423 9.37369 16.1189 9.37369C16.0955 9.37369 15.9109 9.02798 15.6765 8.54457C15.4275 8.03479 15.24 7.68908 15.1872 7.63927C15.0349 7.49865 14.8386 7.46056 14.6628 7.53966Z" fill="white"/>
<path d="M12.6983 15.0262C12.5576 15.0906 12.4961 15.1551 12.4346 15.3016C12.3965 15.3953 12.3906 15.8289 12.3906 18.955V22.5H14.8516H17.3126V18.955C17.3126 15.8289 17.3068 15.3953 17.2687 15.3016C17.2072 15.1551 17.1456 15.0906 17.005 15.0262C16.8937 14.9764 16.7648 14.9705 14.8516 14.9705C12.9385 14.9705 12.8096 14.9764 12.6983 15.0262Z" fill="white"/>
<path d="M7.76075 17.0008C7.68165 17.0448 7.6084 17.1122 7.56738 17.1854L7.5 17.2997V19.7607C7.5 22.1777 7.5 22.2246 7.5586 22.3184C7.67286 22.5029 7.63477 22.5 9.62408 22.5H11.4259V19.7167V16.9334H9.65924H7.88966L7.76075 17.0008Z" fill="white"/>
<path d="M18.2812 20.6982V22.5H20.0831C22.0724 22.5 22.0343 22.5029 22.1485 22.3184C22.2042 22.2246 22.2071 22.1748 22.2071 20.7421C22.2071 19.2655 22.2071 19.2626 22.1397 19.1483C22.0987 19.0751 22.0255 19.0077 21.9464 18.9638L21.8175 18.8964H20.0479H18.2812V20.6982Z" fill="white"/>
</svg>
