<svg width="76" height="76" viewBox="0 0 76 76" fill="none" xmlns="http://www.w3.org/2000/svg">
<circle cx="38" cy="38" r="38" fill="#D6DFF4"/>
<path fill-rule="evenodd" clip-rule="evenodd" d="M36.5625 23.6257C36.5625 20.1854 39.3514 17.3965 42.7917 17.3965C46.2319 17.3965 49.0208 20.1854 49.0208 23.6257C49.0208 27.0659 46.2319 29.8548 42.7917 29.8548C39.3514 29.8548 36.5625 27.0659 36.5625 23.6257ZM42.7917 20.2715C40.9392 20.2715 39.4375 21.7732 39.4375 23.6257C39.4375 25.4781 40.9392 26.9798 42.7917 26.9798C44.6441 26.9798 46.1458 25.4781 46.1458 23.6257C46.1458 21.7732 44.6441 20.2715 42.7917 20.2715Z" fill="#345DC7"/>
<path fill-rule="evenodd" clip-rule="evenodd" d="M38.6794 31.9422C39.3791 32.3174 39.6421 33.1887 39.2669 33.8884L35.7239 40.4954L42.0594 45.5138C42.6005 45.9352 42.9583 46.4928 43.1609 47.0692L43.1688 47.0919L46.3695 56.7136C46.6201 57.4669 46.2125 58.2808 45.4592 58.5314C44.7059 58.782 43.8921 58.3744 43.6415 57.6211L40.4454 48.0137C40.4 47.8888 40.3401 47.8186 40.2921 47.7815L40.2795 47.7718L32.9962 42.0025C32.4507 41.5704 32.2931 40.8096 32.622 40.1964L36.7332 32.5297C37.1084 31.83 37.9797 31.567 38.6794 31.9422Z" fill="#345DC7"/>
<path fill-rule="evenodd" clip-rule="evenodd" d="M34.6977 39.6873C35.354 40.134 35.524 41.0282 35.0772 41.6845L30.0939 49.0062L30.0923 49.0085C29.311 50.1515 28.3063 51.3671 27.4159 52.4345C27.3581 52.5038 27.3009 52.5724 27.2444 52.6401C26.3954 53.6574 25.6985 54.4926 25.3004 55.0897C24.86 55.7503 23.9675 55.9288 23.3069 55.4884C22.6464 55.048 22.4679 54.1555 22.9082 53.495C23.3974 52.7612 24.1941 51.8073 24.9908 50.8534C25.0633 50.7665 25.1358 50.6797 25.2081 50.593C26.1103 49.5114 27.0266 48.3987 27.718 47.3873C27.7183 47.3869 27.7177 47.3877 27.718 47.3873L32.7005 40.0668C33.1472 39.4105 34.0414 39.2406 34.6977 39.6873Z" fill="#345DC7"/>
<path fill-rule="evenodd" clip-rule="evenodd" d="M27.7089 30.161C28.0114 29.6376 28.6089 29.3594 29.2041 29.4648L32.2933 30.0116C36.837 30.8269 41.2041 32.428 45.1947 34.7665C45.195 34.7667 45.1943 34.7662 45.1947 34.7665L48.3145 36.5887C48.3949 36.6324 48.4906 36.6578 48.592 36.659L55.2295 36.5633C56.0233 36.5519 56.6761 37.1861 56.6876 37.98C56.699 38.7738 56.0648 39.4266 55.2709 39.438L48.5994 39.5342C48.0165 39.5342 47.4275 39.3885 46.898 39.0906L46.8776 39.0792L43.7422 37.2476C40.0477 35.0825 36.0016 33.5981 31.7872 32.8417C31.7866 32.8416 31.7878 32.8418 31.7872 32.8417L29.6944 32.4712L27.7449 35.8449C27.3476 36.5323 26.4684 36.7675 25.781 36.3703C25.0936 35.9731 24.8584 35.0938 25.2556 34.4064L27.7089 30.161Z" fill="#345DC7"/>
<path fill-rule="evenodd" clip-rule="evenodd" d="M22.0471 32.5888C22.4441 31.9013 23.3232 31.6657 24.0108 32.0627L30.1181 35.5887C30.8056 35.9857 31.0412 36.8648 30.6442 37.5524L26.3317 45.0218C25.9348 45.7094 25.0556 45.945 24.3681 45.548L18.2608 42.022C17.5732 41.625 17.3377 40.7458 17.7346 40.0583L22.0471 32.5888ZM23.8182 35.2712L20.9432 40.2509L24.5607 42.3394L27.4357 37.3598L23.8182 35.2712Z" fill="#345DC7"/>
</svg>
