<svg width="24" height="24" viewBox="0 0 24 24" fill="none" xmlns="http://www.w3.org/2000/svg">
<g clip-path="url(#clip0_6910_93009)">
<path d="M7.08247 0.0994549C6.52934 0.301018 6.11215 0.676018 5.84497 1.21977L5.69497 1.52914L5.67153 6.45102L5.64809 11.3682L5.25434 11.4291C4.7809 11.5041 4.02622 11.7479 3.55278 11.987C1.76215 12.8823 0.459028 14.6213 0.121528 16.576C0.0277783 17.1198 0.0230908 18.1791 0.116841 18.7557C0.543403 21.3666 2.71372 23.5276 5.32465 23.9354C5.73247 24.001 6.7684 24.0057 14.109 23.9963L22.4293 23.9823L22.7575 23.8229C23.1887 23.612 23.559 23.2416 23.77 22.8104L23.9293 22.4823L23.9434 13.8573C23.9481 9.11352 23.9434 5.1807 23.9293 5.11508C23.8965 4.9932 19.3543 0.394768 19.0122 0.141644L18.8293 0.00570488H13.0825C7.52778 0.0103931 7.32622 0.0103931 7.08247 0.0994549ZM17.859 3.5307C17.859 5.53227 17.8637 5.66352 17.9481 5.79008C17.995 5.86039 18.0981 5.96352 18.1684 6.01039C18.295 6.09477 18.4262 6.09945 20.4278 6.09945H22.5465L22.5372 14.0776L22.5231 22.0604L22.42 22.2245C22.3637 22.3135 22.2465 22.4307 22.1622 22.4823C22.0122 22.576 21.9137 22.576 16.209 22.5901L10.4153 22.5995L10.7903 22.2385C11.6997 21.3526 12.3606 20.1573 12.5856 18.9807C12.6278 18.7651 12.67 18.5448 12.684 18.4838L12.7028 18.3807H16.4668C20.0715 18.3807 20.2309 18.376 20.3622 18.2916C20.5778 18.1463 20.6715 17.9682 20.6715 17.6776C20.6715 17.401 20.5825 17.2182 20.3856 17.0776C20.2825 17.0026 19.945 16.9979 16.4809 16.9745L12.684 16.951L12.6231 16.576C12.5059 15.8635 12.1825 14.9916 11.8122 14.3916L11.6715 14.162H15.9512C20.0622 14.162 20.2309 14.1573 20.3622 14.0729C20.5778 13.9276 20.6715 13.7495 20.6715 13.4588C20.6715 13.1682 20.5778 12.9901 20.3622 12.8448C20.2309 12.7604 20.0481 12.7557 15.3184 12.7557H10.4106L10.0637 12.5073C9.34184 11.987 8.31059 11.5557 7.49497 11.4291L7.10122 11.3682V6.66195V1.95102L7.20434 1.78695C7.31684 1.60414 7.45278 1.5057 7.66372 1.45414C7.7434 1.43539 10.0684 1.42133 12.834 1.41664L17.859 1.41195V3.5307ZM20.3903 3.59164L21.4918 4.6932H20.3762H19.2653V3.59164C19.2653 2.98696 19.27 2.49008 19.2793 2.49008C19.284 2.49008 19.7856 2.98696 20.3903 3.59164ZM6.91372 12.8213C7.85122 12.8963 8.9059 13.3745 9.68872 14.087C10.3168 14.6588 10.884 15.6057 11.1184 16.4588C11.2122 16.801 11.2262 16.9698 11.2262 17.6776C11.2262 18.6338 11.1512 18.9948 10.7997 19.7354C10.3028 20.7854 9.5059 21.587 8.46059 22.0885C6.30903 23.1151 3.77309 22.4401 2.36684 20.4666C2.08559 20.0776 1.76684 19.3885 1.6309 18.8963C1.53715 18.5495 1.52309 18.3901 1.52309 17.6776C1.52309 16.726 1.59809 16.3651 1.94028 15.6338C2.21684 15.0526 2.47934 14.6776 2.92465 14.2276C3.75434 13.4026 4.8184 12.901 5.9434 12.8073C6.1684 12.7885 6.40278 12.7791 6.4684 12.7838C6.53403 12.7932 6.73559 12.8073 6.91372 12.8213Z" fill="#93AABE"/>
<path d="M9.2625 8.62031C9.04688 8.76562 8.95312 8.94375 8.95312 9.23438C8.95312 9.525 9.04688 9.70312 9.2625 9.84844C9.39375 9.93281 9.58594 9.9375 14.8125 9.9375C20.0391 9.9375 20.2313 9.93281 20.3625 9.84844C20.5781 9.70312 20.6719 9.525 20.6719 9.23438C20.6719 8.94375 20.5781 8.76562 20.3625 8.62031C20.2313 8.53594 20.0391 8.53125 14.8125 8.53125C9.58594 8.53125 9.39375 8.53594 9.2625 8.62031Z" fill="#93AABE"/>
<path d="M5.9811 14.2509C5.91078 14.2978 5.80766 14.4009 5.76078 14.4712C5.67641 14.5978 5.67172 14.7196 5.67172 16.2712C5.67172 18.5353 5.54985 18.3806 7.31235 18.3806C8.62953 18.3806 8.66235 18.3712 8.86391 18.0712C8.98578 17.8884 8.98578 17.4665 8.86391 17.2837C8.67641 17.0025 8.57797 16.9743 7.79516 16.9743H7.07797V15.7884C7.07797 14.7103 7.0686 14.5978 6.98891 14.4712C6.8436 14.2556 6.66547 14.1618 6.37485 14.1618C6.20141 14.1618 6.07485 14.19 5.9811 14.2509Z" fill="#93AABE"/>
</g>
<defs>
<clipPath id="clip0_6910_93009">
<rect width="24" height="24" fill="white"/>
</clipPath>
</defs>
</svg>
