<svg width="20" height="20" viewBox="0 0 20 20" fill="none" xmlns="http://www.w3.org/2000/svg">
<g clip-path="url(#clip0_638_9647)">
<path d="M18.6443 11.4057H18.0284C18.0284 11.1104 18.0284 10.9165 18.0284 10.6278C18.0284 10.432 17.8691 10.2732 17.6727 10.2732H17.4623C17.4873 9.96674 17.289 9.67772 16.9801 9.59859C16.7346 9.53569 15.1865 9.13909 14.9478 9.07792L15.6024 7.36894C15.792 6.87408 15.5434 6.31945 15.0465 6.13035L13.5479 5.55238C13.2607 5.4416 12.9521 5.4133 12.6492 5.4687C11.46 5.68615 9.50557 6.04358 9.27977 6.08471C9.13047 6.11192 8.99563 6.19067 8.89877 6.30715L7.5684 7.90757V3.08722C7.5684 2.89885 7.44371 2.73312 7.26231 2.68035L4.40045 1.84785H11.8206V4.97764L12.6711 4.8669V1.42401C12.6711 1.18994 12.4807 1.00016 12.2458 1.00016C12.1855 1.00016 1.42363 0.999212 1.39076 1.00192C1.16559 1.02041 1.00035 1.20906 1.00035 1.42401C1.00035 1.528 0.998335 16.9206 1.00401 16.9657C1.02563 17.137 1.14845 17.2735 1.30646 17.3195L7.0241 18.9828C7.29649 19.0621 7.56843 18.8576 7.56843 18.5759V9.79789C7.66698 9.75946 7.75773 9.6972 7.83 9.61019L9.74319 7.30861C9.97608 7.26618 11.6132 6.9677 11.8763 6.91975L10.4386 10.6731C10.4386 10.6731 10.4898 10.544 9.53167 13.8132L8.41662 15.9258V17.9274H8.41666C8.74485 18.0072 9.09632 17.8579 9.25991 17.5479L10.8978 14.4446C10.9212 14.4003 10.94 14.3538 10.9541 14.3058L11.8602 11.2142C11.9261 11.2393 11.8936 11.2269 12.0644 11.2919C12.2926 11.6491 13.4156 13.4072 13.6428 13.7629L12.5082 16.9482C12.3692 17.3383 12.5738 17.7668 12.9652 17.9054C13.3545 18.0431 13.7863 17.8406 13.9255 17.4498L15.1829 13.9197C15.2585 13.7074 15.2359 13.4656 15.1086 13.2663L14.0051 11.5389C14.1659 11.1191 14.3227 10.7099 14.4842 10.2881C15.0969 10.445 15.5003 10.5484 15.5003 10.5484L15.491 11.4057H14.8751C14.7951 11.4057 14.7215 11.4324 14.6621 11.4768L15.6043 12.9518C15.8275 13.3011 15.8757 13.7254 15.7367 14.1157L15.5802 14.5551H18.6444C18.8408 14.5551 19 14.3963 19 14.2006V11.7602C19 11.5644 18.8408 11.4057 18.6443 11.4057ZM6.35646 12.1435C6.35646 12.3776 6.16606 12.5674 5.93123 12.5674C5.6964 12.5674 5.50601 12.3776 5.50601 12.1435V9.69678C5.50601 9.46271 5.6964 9.27293 5.93123 9.27293C6.16606 9.27293 6.35646 9.46271 6.35646 9.69678V12.1435ZM17.317 11.4057H17.317H16.2025V10.9823H17.317V11.4057Z" fill="#93AABE"/>
<path d="M12.3606 12L12.0319 13.0088V16.1321H10.5092L10 17H12.1038C12.0806 16.8002 12.1071 16.5966 12.1843 16.4017L13 14.3421V12.9002L12.3606 12Z" fill="#93AABE"/>
<path d="M16.035 3.09906C15.2613 2.8036 14.3946 3.19139 14.0992 3.96521C13.8011 4.74572 14.1994 5.6089 14.9652 5.90132C15.7319 6.19414 16.6034 5.81475 16.901 5.03517C17.1963 4.26134 16.8087 3.39453 16.035 3.09906Z" fill="#93AABE"/>
</g>
<defs>
<clipPath id="clip0_638_9647">
<rect width="18" height="18" fill="white" transform="translate(1 1)"/>
</clipPath>
</defs>
</svg>
