<svg width="50" height="50" viewBox="0 0 50 50" fill="none" xmlns="http://www.w3.org/2000/svg">
<g clip-path="url(#clip0_11110_82738)">
<path d="M48.0469 23.0469H6.68383L13.5358 16.2281C14.3003 15.4672 14.3033 14.2306 13.5423 13.466C12.7814 12.7014 11.5447 12.6985 10.7801 13.4594L0.574646 23.6156L0.572889 23.6175C-0.189709 24.3784 -0.19215 25.619 0.572693 26.3825L0.574451 26.3844L10.7799 36.5406C11.5444 37.3014 12.7811 37.2987 13.5421 36.534C14.3031 35.7694 14.3001 34.5328 13.5356 33.7719L6.68383 26.9531H48.0469C49.1256 26.9531 50 26.0787 50 25C50 23.9213 49.1256 23.0469 48.0469 23.0469Z" fill="white"/>
</g>
<defs>
<clipPath id="clip0_11110_82738">
<rect width="50" height="50" fill="white"/>
</clipPath>
</defs>
</svg>
