<svg width="20" height="20" viewBox="0 0 20 20" fill="none" xmlns="http://www.w3.org/2000/svg">
<path d="M18.2 6.45051V15.3491C18.2 18.0871 16.3876 18.9998 14.15 18.9998H6.05C3.81238 18.9998 2 18.0871 2 15.3491V6.45051C2 3.48431 3.81238 2.7998 6.05 2.7998C6.05 3.36566 6.3031 3.87676 6.71822 4.25096C7.13335 4.62515 7.70038 4.85333 8.32813 4.85333H11.8719C13.1274 4.85333 14.15 3.93152 14.15 2.7998C16.3876 2.7998 18.2 3.48431 18.2 6.45051Z" stroke="#93AABE" stroke-width="1.5" stroke-linecap="round" stroke-linejoin="round"/>
<path d="M13.6996 2.8C13.6996 3.792 12.677 4.6 11.4215 4.6H7.87773C7.24998 4.6 6.68296 4.4 6.26783 4.072C5.85271 3.744 5.59961 3.296 5.59961 2.8C5.59961 1.808 6.62223 1 7.87773 1H11.4215C12.0492 1 12.6163 1.2 13.0314 1.528C13.4465 1.856 13.6996 2.304 13.6996 2.8Z" stroke="#93AABE" stroke-width="1.5" stroke-linecap="round" stroke-linejoin="round"/>
<path d="M6.5 10.8999H11" stroke="#93AABE" stroke-width="1.5" stroke-linecap="round" stroke-linejoin="round"/>
<path d="M6.5 14.5H14.6" stroke="#93AABE" stroke-width="1.5" stroke-linecap="round" stroke-linejoin="round"/>
</svg>
