<svg width="24" height="24" viewBox="0 0 24 24" fill="none" xmlns="http://www.w3.org/2000/svg">
<path d="M1.25006 9.5C1.25006 6.04824 4.04828 3.25 7.50006 3.25C9.26778 3.25 10.8639 3.98438 12.0001 5.16271C13.1362 3.98438 14.7323 3.25 16.5001 3.25C19.9518 3.25 22.7501 6.04824 22.7501 9.5C22.7501 12.5381 20.9668 15.3433 18.8455 17.4856C16.7169 19.6353 14.1192 21.2492 12.2366 21.8748C12.083 21.9259 11.9171 21.9259 11.7635 21.8748C9.88097 21.2492 7.28327 19.6353 5.15463 17.4856C3.03328 15.3433 1.25006 12.5381 1.25006 9.5ZM7.50006 4.75C4.87671 4.75 2.75006 6.87666 2.75006 9.5C2.75006 11.9619 4.21684 14.4067 6.22049 16.4302C8.12169 18.3502 10.391 19.7727 12.0001 20.3682C13.6091 19.7727 15.8784 18.3502 17.7796 16.4302C19.7833 14.4067 21.2501 11.9619 21.2501 9.5C21.2501 6.87666 19.1234 4.75 16.5001 4.75C14.8942 4.75 13.4742 5.54621 12.6133 6.76872C12.4728 6.96821 12.2441 7.0869 12.0001 7.0869C11.7561 7.0869 11.5273 6.96821 11.3868 6.76872C10.526 5.54621 9.10594 4.75 7.50006 4.75Z" fill="#3BA4E8"/>
<path d="M15.5 4.50074C13.5 4.90074 12.3334 6.00074 12 6.50074C11.3334 6.16741 9.70006 5.30076 8.50006 4.50074C7.00006 3.50071 4.50002 5.00076 2.50002 7.50076C0.500022 10.0008 4.00002 14.0008 5.50002 16.5008C6.70002 18.5008 10.3334 20.3341 12 21.0008C12.6667 20.8341 14.7 19.8008 17.5 17.0008C21 13.5008 21.5 9.00074 21 7.00074C20.5 5.00074 18 4.00074 15.5 4.50074Z" fill="#3BA4E8"/>
<path d="M12 6.50074L11.7764 6.94795L12.1712 7.14535L12.416 6.77809L12 6.50074ZM15.5 4.50074L15.402 4.01045L15.5 4.50074ZM21 7.00074L21.4851 6.87947L21 7.00074ZM17.5 17.0008L17.1465 16.6472L17.5 17.0008ZM12 21.0008L11.8143 21.465L11.9644 21.525L12.1213 21.4858L12 21.0008ZM5.50002 16.5008L5.07128 16.758L5.50002 16.5008ZM2.50002 7.50076L2.89046 7.81311V7.81311L2.50002 7.50076ZM8.50006 4.50074L8.77742 4.08472L8.50006 4.50074ZM12.416 6.77809C12.6743 6.39066 13.7255 5.36555 15.5981 4.99103L15.402 4.01045C13.2746 4.43592 11.9924 5.61081 11.584 6.22339L12.416 6.77809ZM15.5981 4.99103C16.7586 4.75892 17.9032 4.87915 18.7996 5.27132C19.694 5.6626 20.3112 6.30699 20.515 7.12201L21.4851 6.87947C21.1888 5.69448 20.3061 4.83887 19.2004 4.35516C18.0968 3.87233 16.7414 3.74256 15.402 4.01045L15.5981 4.99103ZM20.515 7.12201C20.9725 8.95239 20.5217 13.272 17.1465 16.6472L17.8536 17.3543C21.4783 13.7296 22.0275 9.04908 21.4851 6.87947L20.515 7.12201ZM17.1465 16.6472C15.7671 18.0265 14.5839 18.9634 13.6722 19.5725C12.7486 20.1896 12.1298 20.4529 11.8788 20.5157L12.1213 21.4858C12.5369 21.3819 13.2681 21.0452 14.2278 20.404C15.1995 19.7548 16.4329 18.775 17.8536 17.3543L17.1465 16.6472ZM12.1857 20.5365C11.3762 20.2127 10.0783 19.6007 8.84002 18.8268C7.58543 18.0426 6.46441 17.1363 5.92877 16.2435L5.07128 16.758C5.73563 17.8653 7.03128 18.8755 8.31002 19.6748C9.60512 20.4842 10.9572 21.1222 11.8143 21.465L12.1857 20.5365ZM5.92877 16.2435C5.54603 15.6056 5.03207 14.8661 4.53389 14.115C4.02816 13.3525 3.52667 12.561 3.13474 11.7772C2.32942 10.1665 2.09416 8.80849 2.89046 7.81311L2.10959 7.18841C0.905889 8.69304 1.42063 10.585 2.24031 12.2244C2.66088 13.0655 3.19063 13.899 3.70053 14.6678C4.21797 15.4479 4.70401 16.1459 5.07128 16.758L5.92877 16.2435ZM2.89046 7.81311C3.86259 6.59794 4.93746 5.6511 5.92149 5.13013C6.92231 4.60028 7.7012 4.56908 8.22271 4.91676L8.77742 4.08472C7.79892 3.43237 6.57779 3.65118 5.4536 4.24635C4.31261 4.8504 3.13745 5.90358 2.10959 7.18841L2.89046 7.81311ZM8.22271 4.91676C9.44792 5.73359 11.1024 6.61094 11.7764 6.94795L12.2236 6.05352C11.5643 5.72388 9.9522 4.86792 8.77742 4.08472L8.22271 4.91676Z" fill="#3BA4E8"/>
</svg>
