<svg width="22" height="19" viewBox="0 0 22 19" fill="none" xmlns="http://www.w3.org/2000/svg">
<path d="M0.250061 6.5C0.250061 3.04824 3.04828 0.25 6.50006 0.25C8.26778 0.25 9.86395 0.984376 11.0001 2.16271C12.1362 0.984376 13.7323 0.25 15.5001 0.25C18.9518 0.25 21.7501 3.04824 21.7501 6.5C21.7501 9.53809 19.9668 12.3433 17.8455 14.4856C15.7169 16.6353 13.1192 18.2492 11.2366 18.8748C11.083 18.9259 10.9171 18.9259 10.7635 18.8748C8.88097 18.2492 6.28327 16.6353 4.15463 14.4856C2.03328 12.3433 0.250061 9.53809 0.250061 6.5ZM6.50006 1.75C3.87671 1.75 1.75006 3.87666 1.75006 6.5C1.75006 8.96191 3.21684 11.4067 5.22049 13.4302C7.12169 15.3502 9.39105 16.7727 11.0001 17.3682C12.6091 16.7727 14.8784 15.3502 16.7796 13.4302C18.7833 11.4067 20.2501 8.96191 20.2501 6.5C20.2501 3.87666 18.1234 1.75 15.5001 1.75C13.8942 1.75 12.4742 2.54621 11.6133 3.76872C11.4728 3.96821 11.2441 4.0869 11.0001 4.0869C10.7561 4.0869 10.5273 3.96821 10.3868 3.76872C9.52595 2.54621 8.10594 1.75 6.50006 1.75Z" fill="#4C5D70"/>
</svg>
