<svg width="20" height="20" viewBox="0 0 20 20" fill="none" xmlns="http://www.w3.org/2000/svg">
<path d="M0.414062 9.16406H6.24738V19.1641H0.414062V9.16406Z" fill="#0277BD"/>
<path d="M6.25 19.5833H0.41668C0.186563 19.5833 0 19.3968 0 19.1667V9.16668C0 8.93656 0.186563 8.75 0.41668 8.75H6.25C6.48012 8.75 6.66668 8.93656 6.66668 9.16668V19.1667C6.66668 19.3968 6.48012 19.5833 6.25 19.5833ZM0.83332 18.75H5.83332V9.58332H0.83332V18.75Z" fill="#01579B"/>
<path d="M6.25 17.4948C6.97615 18.0263 7.8502 18.3177 8.75 18.3282H16.4583C17.2619 18.331 17.9156 17.6818 17.9184 16.8782C17.9191 16.6784 17.8786 16.4805 17.7995 16.297C17.7203 16.1134 17.6042 15.9482 17.4583 15.8115C18.254 15.7255 18.8294 15.0107 18.7434 14.215C18.7061 13.8694 18.5458 13.5487 18.2917 13.3115C19.0875 13.2264 19.6637 12.5123 19.5786 11.7165C19.5529 11.4761 19.4675 11.2458 19.33 11.0469C19.1926 10.8479 19.0075 10.6865 18.7917 10.5773C19.5736 10.0917 19.8138 9.0641 19.3282 8.28215C19.179 8.04195 18.9712 7.84366 18.7243 7.70592C18.4773 7.56818 18.1994 7.49553 17.9167 7.4948H12.0833C12.5411 6.29172 12.8218 5.02854 12.9166 3.7448C12.9166 2.1823 11.5625 0.828125 10.8333 0.828125C10.3836 0.834683 9.947 0.980234 9.58332 1.2448V4.16148L7.08332 9.57816L6.25 9.99484V17.4948Z" fill="#ECEFF1"/>
<path d="M16.4609 18.7474H8.75262C7.74225 18.7393 6.76166 18.4043 5.95762 17.7924C5.91895 17.7536 5.8883 17.7076 5.86742 17.657C5.84654 17.6064 5.83584 17.5521 5.83594 17.4974V9.99738C5.83594 9.83969 5.92496 9.69551 6.06594 9.62488L6.76844 9.2732L9.16926 4.0732V1.24738C9.16912 1.18486 9.18306 1.12311 9.21003 1.06671C9.237 1.01031 9.27632 0.960701 9.32508 0.921563C9.76361 0.599308 10.2918 0.421899 10.8359 0.414062C11.8001 0.414062 13.3359 1.93988 13.3359 3.74738C13.2729 4.88449 13.0484 6.00685 12.6692 7.0807H17.9192C19.0698 7.0807 20.0025 8.01344 20.0025 9.16402C20.0039 9.68111 19.8105 10.1797 19.4609 10.5607C20.1861 11.2908 20.1821 12.4706 19.452 13.1959C19.3117 13.3352 19.1501 13.4513 18.9734 13.5399C19.103 13.7985 19.1701 14.0839 19.1692 14.3732C19.1688 14.7191 19.0724 15.058 18.8906 15.3523C18.7089 15.6466 18.4491 15.8846 18.14 16.0399C18.2697 16.2985 18.3368 16.5839 18.3358 16.8732C18.3341 17.9079 17.4956 18.746 16.4609 18.7474ZM6.6693 17.3066C7.30025 17.6841 8.01761 17.8933 8.75262 17.9141H16.4609C17.0361 17.9136 17.5021 17.4475 17.5026 16.8724C17.5026 16.7308 17.4734 16.5907 17.4168 16.4609C17.3601 16.3312 17.2773 16.2145 17.1734 16.1182C17.0058 15.9605 16.9977 15.6968 17.1554 15.5292C17.2229 15.4574 17.3138 15.4118 17.4118 15.4007C17.9788 15.3408 18.39 14.8325 18.33 14.2654C18.3038 14.0177 18.189 13.7879 18.0068 13.6182C17.8391 13.4605 17.8311 13.1968 17.9887 13.0292C18.0563 12.9574 18.1471 12.9118 18.2451 12.9007C18.8122 12.8409 19.2234 12.3328 19.1637 11.7657C19.1455 11.5931 19.0841 11.4279 18.9851 11.2853C18.8862 11.1427 18.7529 11.0273 18.5976 10.9499C18.3931 10.8443 18.3129 10.593 18.4184 10.3885C18.4531 10.3212 18.5056 10.2646 18.5701 10.2249C19.156 9.85977 19.335 9.08883 18.9698 8.50293C18.8585 8.32424 18.7038 8.17656 18.5201 8.07362C18.3365 7.97067 18.1298 7.91579 17.9192 7.91406H12.0859C11.8558 7.91395 11.6694 7.72731 11.6695 7.49719C11.6695 7.44656 11.6788 7.39637 11.6968 7.34906C12.1359 6.19311 12.4073 4.98025 12.5026 3.74738C12.5026 2.38238 11.2926 1.24738 10.8359 1.24738C10.5437 1.2521 10.2573 1.32972 10.0026 1.4732V4.16402C10.0025 4.22443 9.98948 4.28412 9.9643 4.33902L7.4643 9.7557C7.42461 9.84134 7.35703 9.91097 7.27262 9.9532L6.6693 10.2549V17.3066Z" fill="#01579B"/>
</svg>
