<svg width="20" height="14" viewBox="0 0 20 14" fill="none" xmlns="http://www.w3.org/2000/svg">
<path d="M0.965469 0.162898C0.606094 0.256648 0.26625 0.541804 0.113906 0.885554C0.0475 1.03399 0.0240625 1.15899 0.0240625 1.4129C0.0201562 1.70977 0.031875 1.76446 0.137344 1.95587C0.26625 2.19024 0.477188 2.38555 0.738906 2.51446C1.00844 2.64727 1.46547 2.63946 1.76625 2.49884C2.03969 2.37384 2.27016 2.13555 2.40687 1.8504C2.49672 1.65899 2.50844 1.59649 2.49281 1.33477C2.47328 0.991023 2.36781 0.744929 2.13734 0.506648C1.86 0.221491 1.34438 0.0691476 0.965469 0.162898Z" fill="#3BA4E8"/>
<path d="M4.66797 0.175781C4.42969 0.25 4.29297 0.332031 4.125 0.5C3.64844 0.96875 3.64844 1.76953 4.125 2.24609C4.21094 2.32812 4.375 2.44531 4.49219 2.5L4.70703 2.60156H11.25H17.793L18.0117 2.5C18.4688 2.28516 18.7305 1.875 18.7305 1.37109C18.7305 0.867188 18.4688 0.457031 18.0117 0.242188L17.793 0.140625L11.3086 0.132812C6.15625 0.128906 4.79297 0.136719 4.66797 0.175781Z" fill="#3BA4E8"/>
<path d="M0.918587 5.796C0.668587 5.87803 0.539681 5.96006 0.367806 6.14365C0.0709309 6.45225 -0.0423504 6.82334 0.0435871 7.22178C0.106087 7.52647 0.195931 7.69053 0.410775 7.88975C0.649056 8.1085 0.883431 8.20615 1.22718 8.2335C1.48109 8.25303 1.53968 8.24522 1.74281 8.15147C2.04359 8.01475 2.24671 7.81162 2.38734 7.52256C2.68421 6.90537 2.40687 6.16318 1.77015 5.87412C1.51234 5.75693 1.14515 5.72178 0.918587 5.796Z" fill="#3BA4E8"/>
<path d="M4.56741 5.83984C4.21194 5.98438 4.01272 6.17578 3.86038 6.51562C3.73928 6.77734 3.74319 7.21094 3.86428 7.49219C3.97756 7.75 4.29397 8.05078 4.55178 8.15234C4.74319 8.22656 4.93069 8.22656 11.8955 8.22656H19.044L19.2588 8.125C19.8135 7.85938 20.1104 7.23828 19.9502 6.67969C19.8252 6.25391 19.4893 5.91016 19.0791 5.79297C18.958 5.75781 17.169 5.74609 11.8526 5.74609H4.78616L4.56741 5.83984Z" fill="#3BA4E8"/>
<path d="M0.917658 11.4224C0.675471 11.5044 0.538752 11.5865 0.378596 11.7505C-0.12531 12.2505 -0.0979667 13.0591 0.43719 13.5396C0.65594 13.7388 0.878596 13.8287 1.22235 13.856C1.48406 13.8794 1.53485 13.8716 1.74188 13.7779C2.04266 13.6412 2.24578 13.438 2.38641 13.149C2.53875 12.8326 2.54656 12.4302 2.40594 12.1255C2.15203 11.5787 1.44891 11.2466 0.917658 11.4224Z" fill="#3BA4E8"/>
<path d="M4.64863 11.4214C4.43769 11.4839 4.12129 11.7066 4.01191 11.8706C3.82832 12.1324 3.77363 12.3081 3.77754 12.6206C3.77754 13.0034 3.88301 13.2534 4.15644 13.5113C4.54316 13.8784 4.14863 13.8511 9.08222 13.8511H13.4182L13.633 13.7495C14.508 13.3355 14.6213 12.1402 13.84 11.6011C13.4924 11.3589 13.7033 11.3706 9.04707 11.3745C6.14472 11.3784 4.74238 11.3902 4.64863 11.4214Z" fill="#3BA4E8"/>
</svg>
