<svg width="65" height="65" viewBox="0 0 65 65" fill="none" xmlns="http://www.w3.org/2000/svg">
<rect width="65" height="65" rx="32.5" fill="#6C5DD3"/>
<path d="M28.3333 32.3386H25.6667C25.3131 32.3386 24.9739 32.4791 24.7239 32.7292C24.4738 32.9792 24.3333 33.3183 24.3333 33.672C24.3333 34.0256 24.4738 34.3647 24.7239 34.6148C24.9739 34.8648 25.3131 35.0053 25.6667 35.0053H28.3333C28.687 35.0053 29.0261 34.8648 29.2762 34.6148C29.5262 34.3647 29.6667 34.0256 29.6667 33.672C29.6667 33.3183 29.5262 32.9792 29.2762 32.7292C29.0261 32.4791 28.687 32.3386 28.3333 32.3386ZM27 29.672H32.3333C32.687 29.672 33.0261 29.5315 33.2762 29.2814C33.5262 29.0314 33.6667 28.6923 33.6667 28.3386C33.6667 27.985 33.5262 27.6459 33.2762 27.3958C33.0261 27.1458 32.687 27.0053 32.3333 27.0053H27C26.6464 27.0053 26.3073 27.1458 26.0572 27.3958C25.8072 27.6459 25.6667 27.985 25.6667 28.3386C25.6667 28.6923 25.8072 29.0314 26.0572 29.2814C26.3073 29.5315 26.6464 29.672 27 29.672ZM28.3333 37.672H25.6667C25.3131 37.672 24.9739 37.8124 24.7239 38.0625C24.4738 38.3125 24.3333 38.6517 24.3333 39.0053C24.3333 39.3589 24.4738 39.6981 24.7239 39.9481C24.9739 40.1982 25.3131 40.3386 25.6667 40.3386H28.3333C28.687 40.3386 29.0261 40.1982 29.2762 39.9481C29.5262 39.6981 29.6667 39.3589 29.6667 39.0053C29.6667 38.6517 29.5262 38.3125 29.2762 38.0625C29.0261 37.8124 28.687 37.672 28.3333 37.672ZM44.3333 32.3386H40.3333V20.3386C40.3343 20.1037 40.2731 19.8727 40.156 19.669C40.039 19.4653 39.8701 19.2961 39.6667 19.1786C39.464 19.0616 39.2341 19 39 19C38.766 19 38.536 19.0616 38.3333 19.1786L34.3333 21.472L30.3333 19.1786C30.1307 19.0616 29.9007 19 29.6667 19C29.4326 19 29.2027 19.0616 29 19.1786L25 21.472L21 19.1786C20.7973 19.0616 20.5674 19 20.3333 19C20.0993 19 19.8694 19.0616 19.6667 19.1786C19.4632 19.2961 19.2944 19.4653 19.1773 19.669C19.0602 19.8727 18.9991 20.1037 19 20.3386V41.672C19 42.7328 19.4214 43.7502 20.1716 44.5004C20.9217 45.2505 21.9391 45.672 23 45.672H41.6667C42.7275 45.672 43.745 45.2505 44.4951 44.5004C45.2453 43.7502 45.6667 42.7328 45.6667 41.672V33.672C45.6667 33.3183 45.5262 32.9792 45.2762 32.7292C45.0261 32.4791 44.687 32.3386 44.3333 32.3386ZM23 43.0053C22.6464 43.0053 22.3073 42.8648 22.0572 42.6148C21.8072 42.3647 21.6667 42.0256 21.6667 41.672V22.6453L24.3333 24.1653C24.5391 24.2728 24.7678 24.3289 25 24.3289C25.2322 24.3289 25.4609 24.2728 25.6667 24.1653L29.6667 21.872L33.6667 24.1653C33.8725 24.2728 34.1012 24.3289 34.3333 24.3289C34.5655 24.3289 34.7942 24.2728 35 24.1653L37.6667 22.6453V41.672C37.6703 42.1268 37.7514 42.5777 37.9067 43.0053H23ZM43 41.672C43 42.0256 42.8595 42.3647 42.6095 42.6148C42.3594 42.8648 42.0203 43.0053 41.6667 43.0053C41.3131 43.0053 40.9739 42.8648 40.7239 42.6148C40.4738 42.3647 40.3333 42.0256 40.3333 41.672V35.0053H43V41.672ZM34.4133 37.8986C34.339 37.8482 34.2583 37.8078 34.1733 37.7786C34.0939 37.738 34.0083 37.711 33.92 37.6986C33.7058 37.6557 33.4843 37.6661 33.2751 37.7289C33.0658 37.7917 32.8752 37.9049 32.72 38.0586C32.4764 38.3141 32.3383 38.6523 32.3333 39.0053C32.3312 39.1787 32.3629 39.3508 32.4267 39.512C32.4992 39.674 32.5983 39.8227 32.72 39.952C32.8496 40.0697 32.9984 40.1644 33.16 40.232C33.3196 40.3025 33.4922 40.3389 33.6667 40.3389C33.8412 40.3389 34.0137 40.3025 34.1733 40.232C34.3349 40.1644 34.4837 40.0697 34.6133 39.952C34.7369 39.8274 34.8347 39.6796 34.901 39.5172C34.9674 39.3547 35.001 39.1808 35 39.0053C34.9951 38.6523 34.857 38.3141 34.6133 38.0586C34.55 38.0013 34.4832 37.9479 34.4133 37.8986ZM34.6 32.7253C34.4443 32.5737 34.2539 32.4624 34.0454 32.4012C33.8369 32.34 33.6166 32.3306 33.4036 32.374C33.1907 32.4174 32.9916 32.5122 32.8236 32.6501C32.6557 32.788 32.524 32.9649 32.44 33.1653C32.357 33.3673 32.3249 33.5866 32.3465 33.8039C32.3681 34.0212 32.4428 34.2299 32.5639 34.4116C32.6851 34.5933 32.849 34.7425 33.0412 34.846C33.2335 34.9495 33.4483 35.0042 33.6667 35.0053C34.0203 35.0053 34.3594 34.8648 34.6095 34.6148C34.8595 34.3647 35 34.0256 35 33.672C34.9979 33.4977 34.9617 33.3256 34.8933 33.1653C34.8291 32.9989 34.7289 32.8486 34.6 32.7253Z" fill="white" stroke="#6C5DD3"/>
</svg>
