<svg width="65" height="65" viewBox="0 0 65 65" fill="none" xmlns="http://www.w3.org/2000/svg">
<rect width="65" height="65" rx="32.5" fill="#FF9F38"/>
<path fill-rule="evenodd" clip-rule="evenodd" d="M35.2959 32.4447C35.112 31.9247 34.7715 31.4745 34.3211 31.1561C33.8708 30.8377 33.3328 30.6667 32.7812 30.6667V30H31.4479V30.6667C30.7407 30.6667 30.0624 30.9476 29.5623 31.4477C29.0622 31.9478 28.7812 32.6261 28.7812 33.3333C28.7812 34.0406 29.0622 34.7189 29.5623 35.219C30.0624 35.719 30.7407 36 31.4479 36V38.6667C30.8679 38.6667 30.3739 38.2967 30.1899 37.778C30.1626 37.6931 30.1186 37.6146 30.0604 37.5471C30.0022 37.4795 29.9311 37.4244 29.8512 37.3848C29.7713 37.3452 29.6843 37.3221 29.5954 37.3167C29.5064 37.3113 29.4172 37.3239 29.3332 37.3536C29.2491 37.3833 29.1719 37.4295 29.106 37.4896C29.0402 37.5497 28.987 37.6223 28.9497 37.7033C28.9125 37.7843 28.8918 37.8719 28.889 37.961C28.8861 38.0501 28.9012 38.1388 28.9333 38.222C29.1171 38.742 29.4577 39.1922 29.9081 39.5106C30.3584 39.829 30.8964 40 31.4479 40V40.6667H32.7812V40C33.4885 40 34.1668 39.719 34.6669 39.219C35.167 38.7189 35.4479 38.0406 35.4479 37.3333C35.4479 36.6261 35.167 35.9478 34.6669 35.4477C34.1668 34.9476 33.4885 34.6667 32.7812 34.6667V32C33.057 31.9999 33.326 32.0854 33.5512 32.2445C33.7763 32.4037 33.9466 32.6287 34.0386 32.8887C34.0975 33.0554 34.2202 33.1919 34.3797 33.2682C34.4587 33.3059 34.5443 33.3278 34.6318 33.3324C34.7192 33.3371 34.8067 33.3245 34.8893 33.2953C34.9718 33.2662 35.0478 33.2211 35.1129 33.1625C35.178 33.104 35.231 33.0332 35.2688 32.9542C35.3065 32.8752 35.3284 32.7896 35.333 32.7021C35.3377 32.6147 35.3251 32.5272 35.2959 32.4447V32.4447ZM31.4479 32C31.0943 32 30.7552 32.1405 30.5051 32.3905C30.2551 32.6406 30.1146 32.9797 30.1146 33.3333C30.1146 33.687 30.2551 34.0261 30.5051 34.2761C30.7552 34.5262 31.0943 34.6667 31.4479 34.6667V32ZM32.7812 38.6667C33.1349 38.6667 33.474 38.5262 33.7241 38.2761C33.9741 38.0261 34.1146 37.687 34.1146 37.3333C34.1146 36.9797 33.9741 36.6406 33.7241 36.3905C33.474 36.1405 33.1349 36 32.7812 36V38.6667Z" fill="white"/>
<path fill-rule="evenodd" clip-rule="evenodd" d="M24.8832 21.7473C26.5192 20.9467 29.2032 20 32.1406 20C35.0166 20 37.6299 20.9073 39.2572 21.6973L39.3492 21.742C39.8399 21.9847 40.2359 22.214 40.5146 22.4L38.0519 26C43.7292 31.804 48.1146 43.998 32.1406 43.998C16.1666 43.998 20.4339 32.0253 26.1606 26L23.7139 22.4C23.9026 22.2767 24.1419 22.1333 24.4272 21.9813C24.5686 21.9053 24.7206 21.8273 24.8832 21.748V21.7473ZM36.4692 25.952L38.4406 23.07C36.6072 23.202 34.4259 23.6327 32.3259 24.2407C30.8259 24.674 29.1592 24.608 27.6159 24.3233C27.227 24.2512 26.8407 24.1654 26.4579 24.066L27.7379 25.9507C30.4812 26.9273 33.7252 26.9273 36.4692 25.952V25.952ZM26.9679 27.0867C30.1779 28.3267 34.0359 28.3267 37.2459 27.0853C38.5858 28.4978 39.7067 30.1029 40.5712 31.8473C41.4726 33.686 41.9632 35.524 41.8832 37.108C41.8059 38.6367 41.2046 39.9427 39.8312 40.9133C38.3999 41.9247 35.9926 42.6647 32.1399 42.6647C28.2832 42.6647 25.8646 41.9373 24.4199 40.9373C23.0366 39.9787 22.4292 38.6907 22.3432 37.1827C22.2532 35.616 22.7332 33.7873 23.6312 31.936C24.4879 30.1707 25.6832 28.4713 26.9679 27.0867V27.0867ZM26.2012 22.6107C26.7346 22.7693 27.2919 22.9073 27.8572 23.012C29.2906 23.276 30.7279 23.3147 31.9546 22.9593C33.384 22.5429 34.8379 22.2154 36.3079 21.9787C35.0812 21.6093 33.6466 21.3333 32.1399 21.3333C29.8432 21.3333 27.7012 21.974 26.2012 22.6107V22.6107Z" fill="white"/>
</svg>
