<svg width="65" height="65" viewBox="0 0 65 65" fill="none" xmlns="http://www.w3.org/2000/svg">
<rect width="65" height="65" rx="32.5" fill="#64CBF4"/>
<path d="M44.3333 28.666C44.5084 28.6661 44.6818 28.6316 44.8436 28.5646C45.0054 28.4976 45.1524 28.3994 45.2762 28.2756C45.4001 28.1518 45.4983 28.0048 45.5653 27.843C45.6323 27.6812 45.6667 27.5078 45.6667 27.3327V23.3327C45.6668 23.0529 45.5788 22.7802 45.4152 22.5533C45.2516 22.3263 45.0207 22.1567 44.7552 22.0684L32.7552 18.0684C32.4813 17.9772 32.1853 17.9772 31.9115 18.0684L19.9115 22.0684C19.646 22.1567 19.4151 22.3263 19.2515 22.5533C19.0879 22.7802 18.9999 23.0529 19 23.3327V27.3327C19 27.5078 19.0344 27.6812 19.1014 27.843C19.1684 28.0048 19.2666 28.1518 19.3904 28.2756C19.5142 28.3994 19.6612 28.4976 19.823 28.5646C19.9848 28.6316 20.1582 28.6661 20.3333 28.666H21.6667V38.245C20.889 38.519 20.2152 39.0269 19.7377 39.6991C19.2602 40.3713 19.0025 41.1748 19 41.9993V44.666C19 44.8411 19.0344 45.0145 19.1014 45.1763C19.1684 45.3381 19.2666 45.4851 19.3904 45.6089C19.5142 45.7327 19.6612 45.831 19.823 45.8979C19.9848 45.9649 20.1582 45.9994 20.3333 45.9993H44.3333C44.5084 45.9994 44.6818 45.9649 44.8436 45.8979C45.0054 45.831 45.1524 45.7327 45.2762 45.6089C45.4001 45.4851 45.4983 45.3381 45.5653 45.1763C45.6323 45.0145 45.6667 44.8411 45.6667 44.666V41.9993C45.6641 41.1748 45.4064 40.3713 44.929 39.6991C44.4515 39.0269 43.7777 38.519 43 38.245V28.666H44.3333ZM43 43.3327H21.6667V41.9993C21.667 41.6458 21.8076 41.3069 22.0576 41.0569C22.3076 40.807 22.6465 40.6664 23 40.666H41.6667C42.0202 40.6664 42.3591 40.807 42.6091 41.0569C42.8591 41.3069 42.9996 41.6458 43 41.9993V43.3327ZM24.3333 37.9993V28.666H27V37.9993H24.3333ZM29.6667 37.9993V28.666H35V37.9993H29.6667ZM37.6667 37.9993V28.666H40.3333V37.9993H37.6667ZM21.6667 25.9993V24.2936L32.3333 20.7376L43 24.2936V25.9993H21.6667Z" fill="white" stroke="#64CBF4"/>
</svg>
