<svg width="18" height="18" viewBox="0 0 18 18" fill="none" xmlns="http://www.w3.org/2000/svg">
<g clip-path="url(#clip0_8785_97990)">
<path d="M8.04021 0.0568371C5.27693 0.485744 3.14294 2.63731 2.72458 5.40762C2.65427 5.85762 2.65778 6.79629 2.72458 7.27442C2.87575 8.29746 3.21677 9.32051 3.832 10.565C4.52458 11.9713 5.23825 13.0963 7.13669 15.7682C7.57614 16.3869 8.08591 17.1146 8.27224 17.3854C8.46208 17.6631 8.65544 17.9057 8.71521 17.9408C8.8488 18.0217 9.15114 18.0217 9.28474 17.9408C9.3445 17.9057 9.53786 17.6631 9.72771 17.3854C9.91403 17.1146 10.4238 16.3869 10.8633 15.7682C12.7617 13.0963 13.4754 11.9713 14.1679 10.565C14.7832 9.31699 15.1207 8.31152 15.2718 7.27442C15.3422 6.79277 15.3457 5.86113 15.2754 5.40059C14.857 2.61621 12.709 0.471682 9.92107 0.0533218C9.49568 -0.0134754 8.46208 -0.00996017 8.04021 0.0568371ZM9.80857 1.14317C11.932 1.45957 13.6722 3.11895 14.1504 5.27402C14.1855 5.43926 14.2172 5.77676 14.2277 6.17051C14.2418 6.71192 14.2347 6.8666 14.1715 7.24277C13.9781 8.38535 13.4718 9.65801 12.614 11.1451C12.0058 12.2033 11.2922 13.2721 9.74177 15.4518C9.36911 15.9721 9.04919 16.4256 9.03161 16.4537C9.00349 16.4994 8.99646 16.4994 8.96833 16.4537C8.95075 16.4256 8.63083 15.9721 8.25817 15.4518C6.70778 13.2721 5.99411 12.2033 5.38591 11.1451C4.5281 9.65801 4.02185 8.38535 3.82849 7.24277C3.76521 6.8666 3.75817 6.71192 3.77224 6.17051C3.78278 5.77676 3.81442 5.43926 3.84958 5.27402C4.20114 3.68848 5.24177 2.34551 6.66208 1.63535C7.66403 1.13614 8.6906 0.977932 9.80857 1.14317Z" fill="#3BA4E8"/>
<path d="M8.20192 3.25205C7.08043 3.54033 6.20504 4.42275 5.92028 5.54424C5.80074 6.01885 5.80074 6.6376 5.92028 7.11221C6.20856 8.24072 7.08746 9.11963 8.21598 9.40791C8.69059 9.52744 9.30934 9.52744 9.78395 9.40791C10.9125 9.11963 11.7914 8.24072 12.0797 7.11221C12.1992 6.6376 12.1992 6.01885 12.0797 5.54424C11.7914 4.41221 10.916 3.53682 9.78395 3.24854C9.31285 3.129 8.66949 3.13252 8.20192 3.25205ZM9.6152 4.34189C10.2832 4.5458 10.8386 5.12939 11.0214 5.81846C11.0882 6.08564 11.0882 6.5708 11.0214 6.83799C10.8914 7.33018 10.5504 7.79775 10.1144 8.08604C9.60817 8.4165 8.92965 8.50439 8.36012 8.30752C7.99098 8.18096 7.72379 8.00166 7.46012 7.71338C7.09449 7.31611 6.92574 6.87314 6.92574 6.30713C6.92574 5.11885 7.95934 4.1626 9.15817 4.24697C9.2566 4.254 9.46051 4.29619 9.6152 4.34189Z" fill="#3BA4E8"/>
</g>
<defs>
<clipPath id="clip0_8785_97990">
<rect width="18" height="18" fill="white"/>
</clipPath>
</defs>
</svg>
