<svg width="1920" height="1265" viewBox="0 0 1920 1265" fill="none" xmlns="http://www.w3.org/2000/svg">
<g opacity="0.4">
<g clip-path="url(#clip0_7210_84403)">
<path d="M-269.519 889.268C-160.863 217.227 615.8 -270.331 1324.22 -56.8496" stroke="#368ABF" stroke-width="2" stroke-miterlimit="10"/>
<path opacity="0.9783" d="M-273.154 875.672C-210.733 536.593 23.9848 256.362 329.402 79.1872C621.508 -90.2377 979.201 -166.648 1322 -66.5375" stroke="#358ABE" stroke-width="2" stroke-miterlimit="10"/>
<path opacity="0.9565" d="M-276.837 862.09C-207.453 527.579 31.6177 262.51 336.039 86.3287C627.359 -82.3035 980.293 -172.1 1319.78 -76.1747" stroke="#348ABE" stroke-width="2" stroke-miterlimit="10"/>
<path opacity="0.9348" d="M-280.471 848.497C-204.219 518.577 39.3228 268.745 342.679 93.4709C633.261 -74.3798 981.483 -177.574 1317.56 -85.8595" stroke="#338ABD" stroke-width="2" stroke-miterlimit="10"/>
<path opacity="0.913" d="M-284.155 834.917C-200.987 509.577 46.9555 274.896 349.267 100.626C639.111 -66.4427 982.574 -183.023 1315.29 -95.4826" stroke="#328ABD" stroke-width="2" stroke-miterlimit="10"/>
<path opacity="0.8913" d="M-287.8 821.272C-197.716 500.511 54.6494 281.078 355.895 107.716C645.001 -58.5714 983.656 -188.526 1313.11 -105.183" stroke="#308ABC" stroke-width="2" stroke-miterlimit="10"/>
<path opacity="0.8696" d="M-291.434 807.678C-194.444 491.448 62.3806 287.204 362.523 114.81C650.843 -50.6854 984.786 -194.037 1310.88 -114.916" stroke="#2F8ABC" stroke-width="2" stroke-miterlimit="10"/>
<path opacity="0.8478" d="M-295.118 794.098C-191.212 482.447 70.0247 293.402 369.161 121.953C656.742 -42.7602 985.926 -199.498 1308.66 -124.551" stroke="#2E8ABB" stroke-width="2" stroke-miterlimit="10"/>
<path opacity="0.8261" d="M-298.753 780.502C-187.931 473.432 77.717 299.586 375.799 129.093C662.642 -34.8389 987.066 -204.962 1306.45 -134.19" stroke="#2D8ABB" stroke-width="2" stroke-miterlimit="10"/>
<path opacity="0.8043" d="M-302.435 766.92C-184.745 464.44 85.3631 305.783 382.39 136.246C668.495 -26.9041 988.159 -210.414 1304.17 -143.864" stroke="#2C8ABA" stroke-width="2" stroke-miterlimit="10"/>
<path opacity="0.7826" d="M-306.07 753.327C-181.464 455.426 93.0558 311.968 389.076 143.377C674.383 -19.0295 989.348 -215.888 1302.01 -153.512" stroke="#2B8ABA" stroke-width="2" stroke-miterlimit="10"/>
<path opacity="0.7609" d="M-309.753 739.744C-178.232 446.423 100.689 318.116 395.654 150.481C680.223 -11.1438 990.428 -221.388 1299.73 -163.187" stroke="#2A8AB9" stroke-width="2" stroke-miterlimit="10"/>
<path opacity="0.7391" d="M-313.389 726.15C-174.962 437.36 108.381 324.301 402.292 157.623C686.123 -3.22076 991.52 -226.84 1297.56 -172.835" stroke="#2989B8" stroke-width="2" stroke-miterlimit="10"/>
<path opacity="0.7174" d="M-317.023 712.557C-171.68 428.347 116.124 330.476 408.931 164.765C692.024 4.70316 992.661 -232.302 1295.34 -182.52" stroke="#2889B8" stroke-width="2" stroke-miterlimit="10"/>
<path opacity="0.6957" d="M-320.705 698.976C-168.447 419.345 123.768 336.673 415.569 171.908C697.876 12.6383 993.791 -237.812 1293.12 -192.156" stroke="#2689B7" stroke-width="2" stroke-miterlimit="10"/>
<path opacity="0.6739" d="M-324.341 685.38C-165.215 410.34 131.46 342.857 422.195 178.999C703.764 20.5112 994.93 -243.277 1290.89 -201.843" stroke="#2589B7" stroke-width="2" stroke-miterlimit="10"/>
<path opacity="0.6522" d="M-328.023 671.799C-161.981 401.338 139.106 349.054 428.786 186.153C709.617 28.4465 996.024 -248.727 1288.62 -211.516" stroke="#2489B6" stroke-width="2" stroke-miterlimit="10"/>
<path opacity="0.6304" d="M-331.657 658.207C-158.699 392.325 146.789 355.193 435.474 193.284C715.517 36.3709 997.213 -254.2 1286.45 -221.163" stroke="#2389B6" stroke-width="2" stroke-miterlimit="10"/>
<path opacity="0.6087" d="M-335.341 644.623C-155.466 383.321 154.433 361.388 442.063 200.436C721.369 44.3038 998.257 -259.642 1284.19 -230.791" stroke="#2289B5" stroke-width="2" stroke-miterlimit="10"/>
<path opacity="0.587" d="M-338.986 630.983C-152.195 374.261 162.164 367.516 448.69 207.532C727.258 52.1809 999.386 -265.151 1282.01 -240.485" stroke="#2189B5" stroke-width="2" stroke-miterlimit="10"/>
<path opacity="0.5652" d="M-342.669 617.399C-149.022 365.219 169.808 373.71 455.318 214.623C733.136 60.0052 1000.52 -270.664 1279.78 -250.221" stroke="#2089B4" stroke-width="2" stroke-miterlimit="10"/>
<path opacity="0.5435" d="M-346.304 603.807C-145.74 356.206 177.502 379.898 461.956 221.766C738.988 67.9414 1001.66 -276.125 1277.56 -259.856" stroke="#1F89B4" stroke-width="2" stroke-miterlimit="10"/>
<path opacity="0.5217" d="M-349.939 590.214C-142.459 347.192 185.195 386.083 468.594 228.908C744.888 75.8646 1002.8 -281.588 1275.34 -269.493" stroke="#1E89B3" stroke-width="2" stroke-miterlimit="10"/>
<path opacity="0.5" d="M-353.622 576.631C-139.227 338.189 192.827 392.231 475.183 236.06C750.739 83.7984 1003.89 -287.04 1273.12 -279.179" stroke="#1C89B3" stroke-width="2" stroke-miterlimit="10"/>
<path opacity="0.4783" d="M-357.256 563.038C-135.945 329.176 200.521 398.417 481.871 243.191C756.64 91.7221 1005.03 -292.502 1270.9 -288.815" stroke="#1B89B2" stroke-width="2" stroke-miterlimit="10"/>
<path opacity="0.4565" d="M-360.94 549.455C-132.712 320.172 208.165 404.613 488.449 250.295C762.48 99.6076 1006.11 -298.003 1268.68 -298.501" stroke="#1A89B1" stroke-width="2" stroke-miterlimit="10"/>
<path opacity="0.4348" d="M-364.575 535.861C-129.48 311.169 215.906 410.787 495.087 257.437C768.38 107.53 1007.25 -303.466 1266.45 -308.187" stroke="#1989B1" stroke-width="2" stroke-miterlimit="10"/>
<path opacity="0.413" d="M-368.256 522.277C-126.256 302.116 223.553 416.982 501.727 264.577C774.281 115.452 1008.39 -308.93 1264.24 -317.825" stroke="#1889B0" stroke-width="2" stroke-miterlimit="10"/>
<path opacity="0.3913" d="M-371.891 508.685C-122.975 293.104 231.246 423.169 508.354 271.672C780.122 123.34 1009.52 -314.439 1262.01 -327.509" stroke="#1789B0" stroke-width="2" stroke-miterlimit="10"/>
<path opacity="0.3696" d="M-375.527 495.091C-119.694 284.089 238.938 429.354 514.991 278.813C786.021 131.262 1010.66 -319.903 1259.79 -337.147" stroke="#1689AF" stroke-width="2" stroke-miterlimit="10"/>
<path opacity="0.3478" d="M-379.21 481.51C-116.461 275.087 246.572 435.503 521.581 285.967C791.862 139.149 1011.75 -325.353 1257.52 -346.82" stroke="#1589AF" stroke-width="2" stroke-miterlimit="10"/>
<path opacity="0.3261" d="M-382.843 467.914C-113.227 266.082 254.266 441.686 528.269 293.095C797.812 147.059 1012.9 -330.818 1255.35 -356.47" stroke="#1489AE" stroke-width="2" stroke-miterlimit="10"/>
<path opacity="0.3043" d="M-386.528 454.331C-109.996 257.079 261.909 447.882 534.857 300.248C803.613 155.004 1013.99 -336.27 1253.14 -366.108" stroke="#1389AE" stroke-width="2" stroke-miterlimit="10"/>
<path opacity="0.2826" d="M-390.172 440.689C-106.724 248.016 269.641 454.008 541.486 307.341C809.504 162.879 1015.12 -341.781 1250.9 -375.841" stroke="#1189AD" stroke-width="2" stroke-miterlimit="10"/>
<path opacity="0.2609" d="M-393.856 427.109C-103.492 239.015 277.285 460.207 548.112 314.436C815.392 170.756 1016.25 -347.291 1248.67 -385.525" stroke="#1089AD" stroke-width="2" stroke-miterlimit="10"/>
<path opacity="0.2391" d="M-397.491 413.516C-100.221 229.953 284.978 466.393 554.75 321.578C821.292 178.679 1017.39 -352.753 1246.46 -395.161" stroke="#0F88AC" stroke-width="2" stroke-miterlimit="10"/>
<path opacity="0.2174" d="M-401.173 399.93C-96.9876 220.948 292.612 472.538 561.341 328.728C827.096 186.622 1018.48 -358.207 1244.18 -404.838" stroke="#0E88AB" stroke-width="2" stroke-miterlimit="10"/>
<path opacity="0.1957" d="M-404.809 386.339C-93.7554 211.947 300.304 478.726 567.978 335.873C832.995 194.548 1019.62 -363.668 1242.01 -414.484" stroke="#0D88AB" stroke-width="2" stroke-miterlimit="10"/>
<path opacity="0.1739" d="M-408.444 372.746C-90.4742 202.933 307.997 484.911 574.653 342.954C838.933 202.411 1020.75 -369.179 1239.79 -424.17" stroke="#0C88AA" stroke-width="2" stroke-miterlimit="10"/>
<path opacity="0.1522" d="M-412.127 359.162C-87.2413 193.929 315.642 491.106 581.243 350.106C844.784 210.344 1021.85 -374.583 1237.57 -433.808" stroke="#0B88AA" stroke-width="2" stroke-miterlimit="10"/>
<path opacity="0.1304" d="M-415.762 345.568C-83.9601 184.915 323.383 497.281 587.881 357.248C850.625 218.23 1022.98 -380.095 1235.35 -443.493" stroke="#0A88A9" stroke-width="2" stroke-miterlimit="10"/>
<path opacity="0.1087" d="M-419.443 331.985C-80.7252 175.911 331.03 503.476 594.521 364.388C856.527 226.152 1024.12 -385.559 1233.13 -453.131" stroke="#0988A9" stroke-width="2" stroke-miterlimit="10"/>
<path opacity="0.0869565" d="M-423.078 318.391C-77.5035 166.859 338.722 509.661 601.16 371.53C862.378 234.086 1025.26 -391.021 1230.91 -462.817" stroke="#0788A8" stroke-width="2" stroke-miterlimit="10"/>
<path opacity="0.0652174" d="M-426.761 304.811C-74.2706 157.859 346.356 515.812 607.738 378.637C868.267 241.964 1026.36 -396.47 1228.69 -472.451" stroke="#0688A8" stroke-width="2" stroke-miterlimit="10"/>
<path opacity="0.0434783" d="M-430.396 291.218C-70.9894 148.845 354.049 521.997 614.376 385.779C874.167 249.887 1027.48 -401.982 1226.46 -482.137" stroke="#0588A7" stroke-width="2" stroke-miterlimit="10"/>
<path opacity="0.0217391" d="M-434.031 277.624C-67.7082 139.831 361.742 528.183 621.063 392.909C880.019 257.821 1028.62 -407.444 1224.24 -491.822" stroke="#0488A7" stroke-width="2" stroke-miterlimit="10"/>
<path opacity="0.0217391" d="M-359.679 602.19C-293.899 341.163 -107.215 245.224 126.406 194.224C322.784 151.326 546.929 153.592 715.227 95.2243C896.154 31.9143 1007.07 -87.0911 984.768 -337.608" stroke="#05678E" stroke-width="2" stroke-miterlimit="10"/>
<path opacity="0.0434783" d="M-357.44 610.596C-276.112 347.117 -104.936 245.821 127.688 188.931C325.121 140.641 557.476 158.661 725.268 98.9821C907.855 34.0161 1004.48 -90.8302 973.329 -335.694" stroke="#076990" stroke-width="2" stroke-miterlimit="10"/>
<path opacity="0.0652174" d="M-355.211 618.956C-258.395 352.988 -103.784 241.733 129.009 183.581C328.435 133.761 567.969 163.489 735.397 102.671C919.538 35.8177 1001.96 -94.6869 962.025 -333.859" stroke="#096C93" stroke-width="2" stroke-miterlimit="10"/>
<path opacity="0.0869565" d="M-352.984 627.316C-240.668 358.906 -102.063 239.91 130.279 178.241C331.292 124.896 578.401 168.281 745.427 106.382C931.16 37.5821 999.31 -98.4618 950.623 -332.003" stroke="#0C6E95" stroke-width="2" stroke-miterlimit="10"/>
<path opacity="0.1087" d="M-350.806 635.687C-222.991 364.836 -100.352 238.038 131.501 172.913C334.05 116.054 588.723 173.046 755.457 110.093C942.733 39.3581 996.694 -102.296 939.219 -330.146" stroke="#0E7097" stroke-width="2" stroke-miterlimit="10"/>
<path opacity="0.1304" d="M-348.578 644.045C-205.263 370.753 -98.6031 236.105 132.821 167.56C336.945 107.127 599.204 177.824 765.525 113.742C954.383 41.0121 994.129 -106.144 927.856 -328.351" stroke="#107299" stroke-width="2" stroke-miterlimit="10"/>
<path opacity="0.1522" d="M-346.351 652.405C-187.488 376.66 -96.8551 234.174 134.091 162.221C339.779 98.1647 609.625 182.567 775.604 117.442C966.053 42.7653 991.562 -109.989 916.453 -326.495" stroke="#12749C" stroke-width="2" stroke-miterlimit="10"/>
<path opacity="0.1739" d="M-344.124 660.764C-169.762 382.579 -95.1296 232.145 135.362 156.881C342.613 89.2026 620.033 187.262 785.633 121.153C977.615 44.4924 988.957 -113.775 905.05 -324.639" stroke="#14779E" stroke-width="2" stroke-miterlimit="10"/>
<path opacity="0.1957" d="M-341.885 669.171C-152.034 388.496 -93.3923 230.164 136.644 151.589C345.459 80.2874 630.465 192.051 795.724 124.899C989.286 46.2441 986.402 -117.574 893.708 -322.746" stroke="#1679A0" stroke-width="2" stroke-miterlimit="10"/>
<path opacity="0.2174" d="M-339.657 677.533C-134.307 394.417 -91.6661 228.138 137.974 146.289C348.342 71.3166 640.934 196.785 805.814 128.65C1000.91 48.0108 983.858 -121.32 882.366 -320.85" stroke="#197BA2" stroke-width="2" stroke-miterlimit="10"/>
<path opacity="0.2391" d="M-337.428 685.893C-116.579 400.335 -89.9608 226.013 139.246 140.949C351.156 62.2577 651.346 201.48 815.894 132.349C1012.56 49.6672 981.244 -125.155 871.013 -319.005" stroke="#1B7DA4" stroke-width="2" stroke-miterlimit="10"/>
<path opacity="0.2609" d="M-335.202 694.25C-98.8532 406.251 -88.2469 223.935 140.516 135.607C354.015 53.1853 661.754 206.172 825.912 136.01C1024.11 51.3434 978.628 -128.991 859.55 -317.188" stroke="#1D7FA7" stroke-width="2" stroke-miterlimit="10"/>
<path opacity="0.2826" d="M-333.022 702.622C-81.1252 412.171 -86.5531 221.762 141.788 130.268C356.817 44.0785 672.164 210.867 835.992 139.71C1035.76 53.0004 976.062 -132.836 848.198 -315.342" stroke="#1F82A9" stroke-width="2" stroke-miterlimit="10"/>
<path opacity="0.3043" d="M-330.795 710.981C-63.3987 418.089 -84.8125 219.577 143.058 124.929C359.666 34.96 682.514 215.524 846.022 143.421C1047.36 54.6679 973.506 -136.634 836.844 -313.497" stroke="#2184AB" stroke-width="2" stroke-miterlimit="10"/>
<path opacity="0.3261" d="M-328.568 719.341C-45.6834 423.959 -83.1314 217.355 144.329 119.589C362.456 25.8043 692.912 220.17 856.1 147.121C1058.95 56.287 970.891 -140.468 825.441 -311.64" stroke="#2386AD" stroke-width="2" stroke-miterlimit="10"/>
<path opacity="0.3478" d="M-326.329 727.748C-27.9453 429.925 -81.4387 215.18 145.659 114.286C365.305 16.6842 703.37 224.852 866.19 150.867C1070.55 57.9529 968.346 -144.218 814.099 -309.748" stroke="#2588AF" stroke-width="2" stroke-miterlimit="10"/>
<path opacity="0.3696" d="M-324.101 736.109C-10.1691 435.834 -79.7673 212.912 146.931 108.948C368.096 7.53001 713.769 229.499 876.27 154.568C1082.19 59.5624 965.792 -148.014 802.686 -307.939" stroke="#288AB2" stroke-width="2" stroke-miterlimit="10"/>
<path opacity="0.3913" d="M-321.874 744.467C7.55678 441.75 -78.098 210.639 148.201 103.606C370.922 -1.68772 724.117 234.154 886.288 158.228C1093.71 61.1418 963.116 -151.888 791.272 -306.133" stroke="#2A8DB4" stroke-width="2" stroke-miterlimit="10"/>
<path opacity="0.413" d="M-319.645 752.826C25.2852 447.669 -76.4372 208.32 149.473 98.2662C373.691 -10.9403 734.506 238.752 896.369 161.928C1105.3 62.7609 960.562 -155.685 779.92 -304.288" stroke="#2C8FB6" stroke-width="2" stroke-miterlimit="10"/>
<path opacity="0.4348" d="M-317.418 761.186C43.0117 453.587 -74.7783 206.002 150.792 92.9155C376.507 -20.2041 744.941 243.338 906.447 165.628C1116.94 64.3688 957.995 -159.531 768.566 -302.442" stroke="#2E91B8" stroke-width="2" stroke-miterlimit="10"/>
<path opacity="0.4565" d="M-315.24 769.556C60.7384 459.505 -73.1789 203.645 152.025 87.6346C379.177 -29.4354 755.243 248.006 916.488 169.386C1128.48 65.998 955.391 -163.318 757.174 -300.539" stroke="#3093BB" stroke-width="2" stroke-miterlimit="10"/>
<path opacity="0.4783" d="M-313.013 777.916C78.4648 465.423 -71.5313 201.278 153.344 82.284C381.993 -38.6992 765.678 252.592 926.567 173.086C1140.06 67.5688 952.835 -167.115 745.772 -298.682" stroke="#3295BD" stroke-width="2" stroke-miterlimit="10"/>
<path opacity="0.5" d="M-310.773 786.324C96.1932 471.342 -69.93 198.922 154.616 76.9444C384.74 -48.0487 776.018 257.201 936.647 176.786C1151.64 69.1393 950.281 -170.912 734.419 -296.837" stroke="#3598BF" stroke-width="2" stroke-miterlimit="10"/>
<path opacity="0.5217" d="M-308.546 794.684C113.92 477.26 -68.3419 196.517 155.886 71.6049C387.436 -57.387 786.405 261.798 946.677 180.497C1163.16 70.6727 947.665 -174.746 723.017 -294.98" stroke="#379AC1" stroke-width="2" stroke-miterlimit="10"/>
<path opacity="0.5435" d="M-306.319 803.044C131.646 483.179 -66.7538 194.113 157.168 66.3138C390.144 -66.6769 796.743 266.407 956.755 184.196C1174.72 72.195 945.109 -178.544 711.662 -293.135" stroke="#399CC3" stroke-width="2" stroke-miterlimit="10"/>
<path opacity="0.5652" d="M-304.092 811.403C149.421 489.087 -65.1768 191.66 158.438 60.9743C392.829 -76.0637 807.118 270.956 966.785 187.907C1186.25 73.7768 942.445 -182.367 700.26 -291.279" stroke="#3B9EC6" stroke-width="2" stroke-miterlimit="10"/>
<path opacity="0.587" d="M-301.863 819.763C167.101 495.016 -63.5868 189.256 159.71 55.6348C395.516 -85.4505 817.448 275.517 976.865 191.607C1197.81 75.2505 939.891 -186.164 688.908 -289.433" stroke="#3DA0C8" stroke-width="2" stroke-miterlimit="10"/>
<path opacity="0.6087" d="M-299.636 828.123C184.827 500.935 -62.0693 186.766 161.029 50.2841C398.25 -94.8484 827.823 280.066 986.944 195.307C1209.38 76.7727 937.324 -190.01 677.505 -287.577" stroke="#3FA2CA" stroke-width="2" stroke-miterlimit="10"/>
<path opacity="0.6304" d="M-297.446 836.543C202.602 506.843 -60.5412 184.325 162.299 44.9452C400.876 -104.272 838.198 284.616 997.022 199.007C1220.94 78.2955 934.768 -193.806 666.151 -285.731" stroke="#41A5CC" stroke-width="2" stroke-miterlimit="10"/>
<path opacity="0.6522" d="M-295.219 844.901C220.28 512.771 -59.0231 181.833 163.581 39.6525C403.513 -113.649 848.537 289.223 1007.06 202.765C1232.41 79.8385 932.164 -197.594 654.76 -283.828" stroke="#44A7CF" stroke-width="2" stroke-miterlimit="10"/>
<path opacity="0.6739" d="M-292.99 853.262C238.057 518.68 -57.4559 179.333 164.853 34.3145C406.14 -123.072 858.866 293.784 1017.13 206.418C1243.96 81.2653 929.598 -201.438 643.396 -282.029" stroke="#46A9D1" stroke-width="2" stroke-miterlimit="10"/>
<path opacity="0.6957" d="M-290.763 861.622C255.783 524.599 -55.9869 176.854 166.123 28.975C408.755 -132.544 869.182 298.296 1027.16 210.129C1255.41 82.7614 926.983 -205.272 631.993 -280.173" stroke="#48ABD3" stroke-width="2" stroke-miterlimit="10"/>
<path opacity="0.7174" d="M-288.535 869.979C273.511 530.515 -54.4792 174.313 167.395 23.6332C411.371 -142.019 879.499 302.806 1037.19 213.837C1266.91 84.1955 924.331 -209.049 620.532 -278.356" stroke="#4AADD5" stroke-width="2" stroke-miterlimit="10"/>
<path opacity="0.7391" d="M-286.307 878.341C291.238 536.436 -53.0097 171.837 168.725 18.3333C413.986 -151.489 889.886 307.406 1047.33 217.576C1278.47 85.6717 921.824 -212.855 609.238 -276.471" stroke="#4CB0D7" stroke-width="2" stroke-miterlimit="10"/>
<path opacity="0.7609" d="M-284.08 886.701C308.964 542.354 -51.5517 169.309 169.996 12.9938C416.541 -160.999 900.203 311.918 1057.36 221.287C1289.93 87.1678 919.22 -216.641 597.836 -274.615" stroke="#4EB2DA" stroke-width="2" stroke-miterlimit="10"/>
<path opacity="0.7826" d="M-281.889 895.117C326.692 548.27 -50.1035 166.73 171.267 7.65092C419.098 -170.512 910.52 316.426 1067.44 224.984C1301.42 88.6009 916.665 -220.442 586.483 -272.772" stroke="#50B4DC" stroke-width="2" stroke-miterlimit="10"/>
<path opacity="0.8043" d="M-279.663 903.479C344.418 554.19 -48.6461 164.204 172.537 2.31294C421.652 -180.02 920.836 320.94 1077.46 228.648C1312.91 89.9905 914.038 -224.323 575.069 -270.963" stroke="#53B6DE" stroke-width="2" stroke-miterlimit="10"/>
<path opacity="0.8261" d="M-277.435 911.837C362.145 560.107 -47.1877 161.675 173.808 -3.02814C424.149 -189.569 931.104 325.461 1087.54 232.346C1324.4 91.4255 911.483 -228.122 563.726 -269.071" stroke="#55B8E0" stroke-width="2" stroke-miterlimit="10"/>
<path opacity="0.8478" d="M-275.208 920.197C379.872 566.025 -45.7894 159.111 175.089 -8.31921C426.704 -199.079 941.42 329.973 1097.58 236.105C1335.8 92.8843 908.878 -231.908 552.275 -267.203" stroke="#57BBE2" stroke-width="2" stroke-miterlimit="10"/>
<path opacity="0.8696" d="M-272.979 928.556C397.6 571.944 -44.3407 156.535 176.41 -13.6699C429.249 -208.637 951.786 334.474 1107.71 239.794C1347.29 94.2723 906.324 -235.705 540.923 -265.358" stroke="#59BDE5" stroke-width="2" stroke-miterlimit="10"/>
<path opacity="0.8913" d="M-270.752 936.916C415.364 577.803 -42.9424 153.97 177.68 -19.0094C431.697 -218.173 962.054 338.997 1117.74 243.505C1358.77 95.6603 903.709 -239.54 529.569 -263.513" stroke="#5BBFE7" stroke-width="2" stroke-miterlimit="10"/>
<path opacity="0.913" d="M-268.525 945.276C433.09 583.722 -41.544 151.405 178.951 -24.3489C434.181 -227.768 972.359 343.46 1127.82 247.204C1370.21 97.0596 901.153 -243.337 518.215 -261.667" stroke="#5DC1E9" stroke-width="2" stroke-miterlimit="10"/>
<path opacity="0.9348" d="M-266.285 953.684C450.83 589.689 -40.1922 148.852 180.234 -29.64C436.63 -237.304 982.628 347.983 1137.85 250.915C1381.65 98.4588 898.539 -247.171 506.766 -259.8" stroke="#60C3EB" stroke-width="2" stroke-miterlimit="10"/>
<path opacity="0.9565" d="M-264.107 962.056C468.556 595.608 -38.8054 146.239 181.504 -34.979C439.066 -246.888 992.78 352.227 1147.93 254.616C1392.83 99.4078 895.983 -250.968 495.411 -257.954" stroke="#62C6EE" stroke-width="2" stroke-miterlimit="10"/>
<path opacity="0.9783" d="M-261.88 970.415C486.282 601.526 -37.6788 143.38 182.774 -40.3185C441.219 -256.815 1003.12 356.836 1157.96 258.327C1404.35 100.989 893.367 -254.802 484.008 -256.097" stroke="#64C8F0" stroke-width="2" stroke-miterlimit="10"/>
<path d="M-259.651 978.775C504.011 607.445 -36.1149 141.084 184.047 -45.658C443.891 -266.046 1013.46 361.445 1168.04 262.026C1415.93 102.56 890.813 -258.599 472.656 -254.252" stroke="#66CAF2" stroke-width="2" stroke-miterlimit="10"/>
</g>
</g>
<g opacity="0.4">
<g clip-path="url(#clip1_7210_84403)">
<path d="M520.576 2051.27C629.233 1379.23 1405.9 891.669 2114.32 1105.15" stroke="#368ABF" stroke-width="2" stroke-miterlimit="10"/>
<path opacity="0.9783" d="M516.942 2037.67C579.362 1698.59 814.081 1418.36 1119.5 1241.19C1411.6 1071.76 1769.3 995.352 2112.09 1095.46" stroke="#358ABE" stroke-width="2" stroke-miterlimit="10"/>
<path opacity="0.9565" d="M513.258 2024.09C582.643 1689.58 821.713 1424.51 1126.14 1248.33C1417.46 1079.7 1770.39 989.9 2109.88 1085.83" stroke="#348ABE" stroke-width="2" stroke-miterlimit="10"/>
<path opacity="0.9348" d="M509.624 2010.5C585.877 1680.58 829.419 1430.74 1132.77 1255.47C1423.36 1087.62 1771.58 984.426 2107.65 1076.14" stroke="#338ABD" stroke-width="2" stroke-miterlimit="10"/>
<path opacity="0.913" d="M505.941 1996.92C589.109 1671.58 837.051 1436.9 1139.36 1262.63C1429.21 1095.56 1772.67 978.977 2105.39 1066.52" stroke="#328ABD" stroke-width="2" stroke-miterlimit="10"/>
<path opacity="0.8913" d="M502.296 1983.27C592.38 1662.51 844.745 1443.08 1145.99 1269.72C1435.1 1103.43 1773.75 973.474 2103.21 1056.82" stroke="#308ABC" stroke-width="2" stroke-miterlimit="10"/>
<path opacity="0.8696" d="M498.662 1969.68C595.651 1653.45 852.476 1449.2 1152.62 1276.81C1440.94 1111.31 1774.88 967.963 2100.97 1047.08" stroke="#2F8ABC" stroke-width="2" stroke-miterlimit="10"/>
<path opacity="0.8478" d="M494.978 1956.1C598.884 1644.45 860.12 1455.4 1159.26 1283.95C1446.84 1119.24 1776.02 962.502 2098.76 1037.45" stroke="#2E8ABB" stroke-width="2" stroke-miterlimit="10"/>
<path opacity="0.8261" d="M491.343 1942.5C602.164 1635.43 867.813 1461.59 1165.89 1291.09C1452.74 1127.16 1777.16 957.038 2096.54 1027.81" stroke="#2D8ABB" stroke-width="2" stroke-miterlimit="10"/>
<path opacity="0.8043" d="M487.661 1928.92C605.35 1626.44 875.459 1467.78 1172.49 1298.25C1458.59 1135.1 1778.26 951.586 2094.27 1018.14" stroke="#2C8ABA" stroke-width="2" stroke-miterlimit="10"/>
<path opacity="0.7826" d="M484.026 1915.33C608.631 1617.43 883.151 1473.97 1179.17 1305.38C1464.48 1142.97 1779.44 946.112 2092.1 1008.49" stroke="#2B8ABA" stroke-width="2" stroke-miterlimit="10"/>
<path opacity="0.7609" d="M480.342 1901.74C611.864 1608.42 890.784 1480.12 1185.75 1312.48C1470.32 1150.86 1780.52 940.612 2089.83 998.813" stroke="#2A8AB9" stroke-width="2" stroke-miterlimit="10"/>
<path opacity="0.7391" d="M476.707 1888.15C615.134 1599.36 898.477 1486.3 1192.39 1319.62C1476.22 1158.78 1781.62 935.16 2087.66 989.165" stroke="#2989B8" stroke-width="2" stroke-miterlimit="10"/>
<path opacity="0.7174" d="M473.073 1874.56C618.416 1590.35 906.219 1492.48 1199.03 1326.77C1482.12 1166.7 1782.76 929.698 2085.43 979.48" stroke="#2889B8" stroke-width="2" stroke-miterlimit="10"/>
<path opacity="0.6957" d="M469.39 1860.98C621.649 1581.34 913.864 1498.67 1205.66 1333.91C1487.97 1174.64 1783.89 924.188 2083.22 969.844" stroke="#2689B7" stroke-width="2" stroke-miterlimit="10"/>
<path opacity="0.6739" d="M465.755 1847.38C624.881 1572.34 921.556 1504.86 1212.29 1341C1493.86 1182.51 1785.03 918.723 2080.99 960.157" stroke="#2589B7" stroke-width="2" stroke-miterlimit="10"/>
<path opacity="0.6522" d="M462.073 1833.8C628.115 1563.34 929.202 1511.05 1218.88 1348.15C1499.71 1190.45 1786.12 913.273 2078.72 950.484" stroke="#2489B6" stroke-width="2" stroke-miterlimit="10"/>
<path opacity="0.6304" d="M458.439 1820.21C631.397 1554.33 936.885 1517.19 1225.57 1355.28C1505.61 1198.37 1787.31 907.8 2076.55 940.837" stroke="#2389B6" stroke-width="2" stroke-miterlimit="10"/>
<path opacity="0.6087" d="M454.755 1806.62C634.63 1545.32 944.529 1523.39 1232.16 1362.44C1511.46 1206.3 1788.35 902.358 2074.29 931.209" stroke="#2289B5" stroke-width="2" stroke-miterlimit="10"/>
<path opacity="0.587" d="M451.109 1792.98C637.9 1536.26 952.259 1529.52 1238.79 1369.53C1517.35 1214.18 1789.48 896.849 2072.11 921.515" stroke="#2189B5" stroke-width="2" stroke-miterlimit="10"/>
<path opacity="0.5652" d="M447.426 1779.4C641.074 1527.22 959.904 1535.71 1245.41 1376.62C1523.23 1222.01 1790.61 891.336 2069.87 911.779" stroke="#2089B4" stroke-width="2" stroke-miterlimit="10"/>
<path opacity="0.5435" d="M443.792 1765.81C644.355 1518.21 967.597 1541.9 1252.05 1383.77C1529.08 1229.94 1791.75 885.875 2067.66 902.144" stroke="#1F89B4" stroke-width="2" stroke-miterlimit="10"/>
<path opacity="0.5217" d="M440.157 1752.21C647.637 1509.19 975.29 1548.08 1258.69 1390.91C1534.98 1237.86 1792.89 880.412 2065.44 892.507" stroke="#1E89B3" stroke-width="2" stroke-miterlimit="10"/>
<path opacity="0.5" d="M436.473 1738.63C650.869 1500.19 982.923 1554.23 1265.28 1398.06C1540.83 1245.8 1793.98 874.96 2063.21 882.821" stroke="#1C89B3" stroke-width="2" stroke-miterlimit="10"/>
<path opacity="0.4783" d="M432.839 1725.04C654.151 1491.18 990.617 1560.42 1271.97 1405.19C1546.74 1253.72 1795.13 869.498 2061 873.185" stroke="#1B89B2" stroke-width="2" stroke-miterlimit="10"/>
<path opacity="0.4565" d="M429.156 1711.45C657.383 1482.17 998.261 1566.61 1278.54 1412.3C1552.58 1261.61 1796.21 863.997 2058.77 863.499" stroke="#1A89B1" stroke-width="2" stroke-miterlimit="10"/>
<path opacity="0.4348" d="M425.521 1697.86C660.616 1473.17 1006 1572.79 1285.18 1419.44C1558.48 1269.53 1797.35 858.534 2056.54 853.813" stroke="#1989B1" stroke-width="2" stroke-miterlimit="10"/>
<path opacity="0.413" d="M421.839 1684.28C663.84 1464.12 1013.65 1578.98 1291.82 1426.58C1564.38 1277.45 1798.49 853.07 2054.33 844.175" stroke="#1889B0" stroke-width="2" stroke-miterlimit="10"/>
<path opacity="0.3913" d="M418.205 1670.69C667.121 1455.1 1021.34 1585.17 1298.45 1433.67C1570.22 1285.34 1799.62 847.561 2052.1 834.491" stroke="#1789B0" stroke-width="2" stroke-miterlimit="10"/>
<path opacity="0.3696" d="M414.569 1657.09C670.401 1446.09 1029.03 1591.35 1305.09 1440.81C1576.12 1293.26 1800.76 842.097 2049.89 824.853" stroke="#1689AF" stroke-width="2" stroke-miterlimit="10"/>
<path opacity="0.3478" d="M410.886 1643.51C673.635 1437.09 1036.67 1597.5 1311.68 1447.97C1581.96 1301.15 1801.85 836.647 2047.61 815.18" stroke="#1589AF" stroke-width="2" stroke-miterlimit="10"/>
<path opacity="0.3261" d="M407.252 1629.91C676.869 1428.08 1044.36 1603.69 1318.36 1455.1C1587.91 1309.06 1802.99 831.182 2045.45 805.53" stroke="#1489AE" stroke-width="2" stroke-miterlimit="10"/>
<path opacity="0.3043" d="M403.568 1616.33C680.1 1419.08 1052 1609.88 1324.95 1462.25C1593.71 1317 1804.08 825.73 2043.23 795.892" stroke="#1389AE" stroke-width="2" stroke-miterlimit="10"/>
<path opacity="0.2826" d="M399.923 1602.69C683.372 1410.02 1059.74 1616.01 1331.58 1469.34C1599.6 1324.88 1805.21 820.219 2040.99 786.159" stroke="#1189AD" stroke-width="2" stroke-miterlimit="10"/>
<path opacity="0.2609" d="M396.24 1589.11C686.604 1401.02 1067.38 1622.21 1338.21 1476.44C1605.49 1332.76 1806.34 814.709 2038.77 776.475" stroke="#1089AD" stroke-width="2" stroke-miterlimit="10"/>
<path opacity="0.2391" d="M392.605 1575.52C689.874 1391.95 1075.07 1628.39 1344.85 1483.58C1611.39 1340.68 1807.48 809.247 2036.55 766.839" stroke="#0F88AC" stroke-width="2" stroke-miterlimit="10"/>
<path opacity="0.2174" d="M388.922 1561.93C693.108 1382.95 1082.71 1634.54 1351.44 1490.73C1617.19 1348.62 1808.57 803.793 2034.28 757.162" stroke="#0E88AB" stroke-width="2" stroke-miterlimit="10"/>
<path opacity="0.1957" d="M385.287 1548.34C696.34 1373.95 1090.4 1640.73 1358.07 1497.87C1623.09 1356.55 1809.71 798.332 2032.11 747.516" stroke="#0D88AB" stroke-width="2" stroke-miterlimit="10"/>
<path opacity="0.1739" d="M381.652 1534.75C699.621 1364.93 1098.09 1646.91 1364.75 1504.95C1629.03 1364.41 1810.84 792.821 2029.88 737.83" stroke="#0C88AA" stroke-width="2" stroke-miterlimit="10"/>
<path opacity="0.1522" d="M377.969 1521.16C702.854 1355.93 1105.74 1653.11 1371.34 1512.11C1634.88 1372.34 1811.95 787.417 2027.67 728.192" stroke="#0B88AA" stroke-width="2" stroke-miterlimit="10"/>
<path opacity="0.1304" d="M374.334 1507.57C706.136 1346.91 1113.48 1659.28 1377.98 1519.25C1640.72 1380.23 1813.08 781.905 2025.44 718.507" stroke="#0A88A9" stroke-width="2" stroke-miterlimit="10"/>
<path opacity="0.1087" d="M370.653 1493.98C709.371 1337.91 1121.13 1665.48 1384.62 1526.39C1646.62 1388.15 1814.22 776.441 2023.23 708.869" stroke="#0988A9" stroke-width="2" stroke-miterlimit="10"/>
<path opacity="0.0869565" d="M367.018 1480.39C712.592 1328.86 1128.82 1671.66 1391.26 1533.53C1652.47 1396.09 1815.36 770.979 2021 699.183" stroke="#0788A8" stroke-width="2" stroke-miterlimit="10"/>
<path opacity="0.0652174" d="M363.335 1466.81C715.825 1319.86 1136.45 1677.81 1397.83 1540.64C1658.36 1403.96 1816.45 765.53 2018.79 689.549" stroke="#0688A8" stroke-width="2" stroke-miterlimit="10"/>
<path opacity="0.0434783" d="M359.7 1453.22C719.106 1310.85 1144.14 1684 1404.47 1547.78C1664.26 1411.89 1817.58 760.018 2016.56 679.863" stroke="#0588A7" stroke-width="2" stroke-miterlimit="10"/>
<path opacity="0.0217391" d="M356.065 1439.62C722.388 1301.83 1151.84 1690.18 1411.16 1554.91C1670.11 1419.82 1818.72 754.556 2014.33 670.178" stroke="#0488A7" stroke-width="2" stroke-miterlimit="10"/>
<path opacity="0.0217391" d="M430.417 1764.19C496.197 1503.16 682.881 1407.22 916.502 1356.22C1112.88 1313.33 1337.03 1315.59 1505.32 1257.22C1686.25 1193.91 1797.17 1074.91 1774.86 824.392" stroke="#05678E" stroke-width="2" stroke-miterlimit="10"/>
<path opacity="0.0434783" d="M432.656 1772.6C513.984 1509.12 685.159 1407.82 917.784 1350.93C1115.22 1302.64 1347.57 1320.66 1515.36 1260.98C1697.95 1196.02 1794.58 1071.17 1763.42 826.306" stroke="#076990" stroke-width="2" stroke-miterlimit="10"/>
<path opacity="0.0652174" d="M434.885 1780.96C531.701 1514.99 686.311 1403.73 919.105 1345.58C1118.53 1295.76 1358.07 1325.49 1525.49 1264.67C1709.63 1197.82 1792.06 1067.31 1752.12 828.141" stroke="#096C93" stroke-width="2" stroke-miterlimit="10"/>
<path opacity="0.0869565" d="M437.112 1789.32C549.427 1520.91 688.033 1401.91 920.375 1340.24C1121.39 1286.9 1368.5 1330.28 1535.52 1268.38C1721.26 1199.58 1789.41 1063.54 1740.72 829.997" stroke="#0C6E95" stroke-width="2" stroke-miterlimit="10"/>
<path opacity="0.1087" d="M439.29 1797.69C567.105 1526.84 689.743 1400.04 921.596 1334.91C1124.15 1278.05 1378.82 1335.05 1545.55 1272.09C1732.83 1201.36 1786.79 1059.7 1729.32 831.854" stroke="#0E7097" stroke-width="2" stroke-miterlimit="10"/>
<path opacity="0.1304" d="M441.518 1806.04C584.833 1532.75 691.493 1398.1 922.917 1329.56C1127.04 1269.13 1389.3 1339.82 1555.62 1275.74C1744.48 1203.01 1784.22 1055.86 1717.95 833.649" stroke="#107299" stroke-width="2" stroke-miterlimit="10"/>
<path opacity="0.1522" d="M443.745 1814.4C602.608 1538.66 693.241 1396.17 924.187 1324.22C1129.88 1260.16 1399.72 1344.57 1565.7 1279.44C1756.15 1204.77 1781.66 1052.01 1706.55 835.505" stroke="#12749C" stroke-width="2" stroke-miterlimit="10"/>
<path opacity="0.1739" d="M445.972 1822.76C620.334 1544.58 694.966 1394.15 925.457 1318.88C1132.71 1251.2 1410.13 1349.26 1575.73 1283.15C1767.71 1206.49 1779.05 1048.22 1695.15 837.361" stroke="#14779E" stroke-width="2" stroke-miterlimit="10"/>
<path opacity="0.1957" d="M448.211 1831.17C638.061 1550.5 696.703 1392.16 926.739 1313.59C1135.55 1242.29 1420.56 1354.05 1585.82 1286.9C1779.38 1208.24 1776.5 1044.43 1683.8 839.254" stroke="#1679A0" stroke-width="2" stroke-miterlimit="10"/>
<path opacity="0.2174" d="M450.438 1839.53C655.788 1556.42 698.43 1390.14 928.07 1308.29C1138.44 1233.32 1431.03 1358.79 1595.91 1290.65C1791 1210.01 1773.95 1040.68 1672.46 841.15" stroke="#197BA2" stroke-width="2" stroke-miterlimit="10"/>
<path opacity="0.2391" d="M452.667 1847.89C673.517 1562.34 700.135 1388.01 929.342 1302.95C1141.25 1224.26 1441.44 1363.48 1605.99 1294.35C1802.65 1211.67 1771.34 1036.85 1661.11 842.995" stroke="#1B7DA4" stroke-width="2" stroke-miterlimit="10"/>
<path opacity="0.2609" d="M454.894 1856.25C691.243 1568.25 701.849 1385.93 930.612 1297.61C1144.11 1215.19 1451.85 1368.17 1616.01 1298.01C1814.21 1213.34 1768.72 1033.01 1649.65 844.812" stroke="#1D7FA7" stroke-width="2" stroke-miterlimit="10"/>
<path opacity="0.2826" d="M457.074 1864.62C708.97 1574.17 703.543 1383.76 931.884 1292.27C1146.91 1206.08 1462.26 1372.87 1626.09 1301.71C1825.85 1215 1766.16 1029.16 1638.29 846.658" stroke="#1F82A9" stroke-width="2" stroke-miterlimit="10"/>
<path opacity="0.3043" d="M459.301 1872.98C726.697 1580.09 705.283 1381.58 933.154 1286.93C1149.76 1196.96 1472.61 1377.52 1636.12 1305.42C1837.45 1216.67 1763.6 1025.37 1626.94 848.503" stroke="#2184AB" stroke-width="2" stroke-miterlimit="10"/>
<path opacity="0.3261" d="M461.528 1881.34C744.412 1585.96 706.964 1379.36 934.424 1281.59C1152.55 1187.8 1483.01 1382.17 1646.2 1309.12C1849.04 1218.29 1760.99 1021.53 1615.54 850.36" stroke="#2386AD" stroke-width="2" stroke-miterlimit="10"/>
<path opacity="0.3478" d="M463.767 1889.75C762.15 1591.92 708.657 1377.18 935.755 1276.29C1155.4 1178.68 1493.47 1386.85 1656.29 1312.87C1860.64 1219.95 1758.44 1017.78 1604.19 852.252" stroke="#2588AF" stroke-width="2" stroke-miterlimit="10"/>
<path opacity="0.3696" d="M465.995 1898.11C779.927 1597.83 710.328 1374.91 937.026 1270.95C1158.19 1169.53 1503.86 1391.5 1666.37 1316.57C1872.28 1221.56 1755.89 1013.99 1592.78 854.061" stroke="#288AB2" stroke-width="2" stroke-miterlimit="10"/>
<path opacity="0.3913" d="M468.221 1906.47C797.652 1603.75 711.998 1372.64 938.296 1265.61C1161.02 1160.31 1514.21 1396.15 1676.38 1320.23C1883.81 1223.14 1753.21 1010.11 1581.37 855.867" stroke="#2A8DB4" stroke-width="2" stroke-miterlimit="10"/>
<path opacity="0.413" d="M470.45 1914.83C815.381 1609.67 713.659 1370.32 939.569 1260.27C1163.79 1151.06 1524.6 1400.75 1686.46 1323.93C1895.4 1224.76 1750.66 1006.31 1570.02 857.712" stroke="#2C8FB6" stroke-width="2" stroke-miterlimit="10"/>
<path opacity="0.4348" d="M472.677 1923.19C833.107 1615.59 715.317 1368 940.887 1254.92C1166.6 1141.8 1535.04 1405.34 1696.54 1327.63C1907.04 1226.37 1748.09 1002.47 1558.66 859.558" stroke="#2E91B8" stroke-width="2" stroke-miterlimit="10"/>
<path opacity="0.4565" d="M474.856 1931.56C850.834 1621.5 716.917 1365.64 942.121 1249.63C1169.27 1132.56 1545.34 1410.01 1706.58 1331.39C1918.58 1228 1745.49 998.682 1547.27 861.461" stroke="#3093BB" stroke-width="2" stroke-miterlimit="10"/>
<path opacity="0.4783" d="M477.083 1939.92C868.56 1627.42 718.564 1363.28 943.439 1244.28C1172.09 1123.3 1555.77 1414.59 1716.66 1335.09C1930.15 1229.57 1742.93 994.885 1535.87 863.318" stroke="#3295BD" stroke-width="2" stroke-miterlimit="10"/>
<path opacity="0.5" d="M479.323 1948.32C886.289 1633.34 720.166 1360.92 944.712 1238.94C1174.84 1113.95 1566.11 1419.2 1726.74 1338.79C1941.73 1231.14 1740.38 991.088 1524.52 865.163" stroke="#3598BF" stroke-width="2" stroke-miterlimit="10"/>
<path opacity="0.5217" d="M481.55 1956.68C904.015 1639.26 721.754 1358.52 945.982 1233.6C1177.53 1104.61 1576.5 1423.8 1736.77 1342.5C1953.25 1232.67 1737.76 987.254 1513.11 867.02" stroke="#379AC1" stroke-width="2" stroke-miterlimit="10"/>
<path opacity="0.5435" d="M483.777 1965.04C921.742 1645.18 723.342 1356.11 947.263 1228.31C1180.24 1095.32 1586.84 1428.41 1746.85 1346.2C1964.82 1234.19 1735.2 983.456 1501.76 868.865" stroke="#399CC3" stroke-width="2" stroke-miterlimit="10"/>
<path opacity="0.5652" d="M486.004 1973.4C939.517 1651.09 724.919 1353.66 948.534 1222.97C1182.92 1085.94 1597.21 1432.96 1756.88 1349.91C1976.35 1235.78 1732.54 979.633 1490.36 870.721" stroke="#3B9EC6" stroke-width="2" stroke-miterlimit="10"/>
<path opacity="0.587" d="M488.233 1981.76C957.197 1657.02 726.509 1351.26 949.806 1217.63C1185.61 1076.55 1607.54 1437.52 1766.96 1353.61C1987.9 1237.25 1729.99 975.836 1479 872.567" stroke="#3DA0C8" stroke-width="2" stroke-miterlimit="10"/>
<path opacity="0.6087" d="M490.46 1990.12C974.923 1662.93 728.026 1348.77 951.125 1212.28C1188.35 1067.15 1617.92 1442.07 1777.04 1357.31C1999.47 1238.77 1727.42 971.99 1467.6 874.423" stroke="#3FA2CA" stroke-width="2" stroke-miterlimit="10"/>
<path opacity="0.6304" d="M492.649 1998.54C992.697 1668.84 729.555 1346.32 952.395 1206.95C1190.97 1057.73 1628.29 1446.62 1787.12 1361.01C2011.04 1240.3 1724.86 968.194 1456.25 876.269" stroke="#41A5CC" stroke-width="2" stroke-miterlimit="10"/>
<path opacity="0.6522" d="M494.877 2006.9C1010.38 1674.77 731.073 1343.83 953.677 1201.65C1193.61 1048.35 1638.63 1451.22 1797.16 1364.76C2022.51 1241.84 1722.26 964.406 1444.86 878.172" stroke="#44A7CF" stroke-width="2" stroke-miterlimit="10"/>
<path opacity="0.6739" d="M497.105 2015.26C1028.15 1680.68 732.64 1341.33 954.948 1196.31C1196.24 1038.93 1648.96 1455.78 1807.23 1368.42C2034.05 1243.27 1719.69 960.562 1433.49 879.971" stroke="#46A9D1" stroke-width="2" stroke-miterlimit="10"/>
<path opacity="0.6957" d="M499.332 2023.62C1045.88 1686.6 734.109 1338.85 956.219 1190.98C1198.85 1029.46 1659.28 1460.3 1817.26 1372.13C2045.51 1244.76 1717.08 956.728 1422.09 881.827" stroke="#48ABD3" stroke-width="2" stroke-miterlimit="10"/>
<path opacity="0.7174" d="M501.561 2031.98C1063.61 1692.51 735.616 1336.31 957.49 1185.63C1201.47 1019.98 1669.59 1464.81 1827.29 1375.84C2057.01 1246.2 1714.43 952.951 1410.63 883.644" stroke="#4AADD5" stroke-width="2" stroke-miterlimit="10"/>
<path opacity="0.7391" d="M503.788 2040.34C1081.33 1698.44 737.086 1333.84 958.821 1180.33C1204.08 1010.51 1679.98 1469.41 1837.43 1379.58C2068.56 1247.67 1711.92 949.145 1399.33 885.529" stroke="#4CB0D7" stroke-width="2" stroke-miterlimit="10"/>
<path opacity="0.7609" d="M506.015 2048.7C1099.06 1704.35 738.544 1331.31 960.091 1174.99C1206.64 1001 1690.3 1473.92 1847.46 1383.29C2080.02 1249.17 1709.32 945.359 1387.93 887.385" stroke="#4EB2DA" stroke-width="2" stroke-miterlimit="10"/>
<path opacity="0.7826" d="M508.206 2057.12C1116.79 1710.27 739.992 1328.73 961.363 1169.65C1209.19 991.488 1700.62 1478.43 1857.54 1386.98C2091.52 1250.6 1706.76 941.558 1376.58 889.228" stroke="#50B4DC" stroke-width="2" stroke-miterlimit="10"/>
<path opacity="0.8043" d="M510.433 2065.48C1134.51 1716.19 741.45 1326.2 962.633 1164.31C1211.75 981.98 1710.93 1482.94 1867.56 1390.65C2103 1251.99 1704.13 937.677 1365.16 891.037" stroke="#53B6DE" stroke-width="2" stroke-miterlimit="10"/>
<path opacity="0.8261" d="M512.66 2073.84C1152.24 1722.11 742.908 1323.68 963.904 1158.97C1214.24 972.431 1721.2 1487.46 1877.63 1394.35C2114.5 1253.43 1701.58 933.878 1353.82 892.929" stroke="#55B8E0" stroke-width="2" stroke-miterlimit="10"/>
<path opacity="0.8478" d="M514.887 2082.2C1169.97 1728.03 744.306 1321.11 965.185 1153.68C1216.8 962.921 1731.52 1491.97 1887.68 1398.11C2125.9 1254.88 1698.97 930.092 1342.37 894.797" stroke="#57BBE2" stroke-width="2" stroke-miterlimit="10"/>
<path opacity="0.8696" d="M517.116 2090.56C1187.7 1733.94 745.755 1318.53 966.506 1148.33C1219.35 953.363 1741.88 1496.47 1897.8 1401.79C2137.38 1256.27 1696.42 926.295 1331.02 896.642" stroke="#59BDE5" stroke-width="2" stroke-miterlimit="10"/>
<path opacity="0.8913" d="M519.343 2098.92C1205.46 1739.8 747.153 1315.97 967.776 1142.99C1221.79 943.827 1752.15 1501 1907.83 1405.5C2148.87 1257.66 1693.8 922.46 1319.66 898.487" stroke="#5BBFE7" stroke-width="2" stroke-miterlimit="10"/>
<path opacity="0.913" d="M521.57 2107.28C1223.19 1745.72 748.552 1313.41 969.047 1137.65C1224.28 934.232 1762.45 1505.46 1917.91 1409.2C2160.3 1259.06 1691.25 918.663 1308.31 900.333" stroke="#5DC1E9" stroke-width="2" stroke-miterlimit="10"/>
<path opacity="0.9348" d="M523.81 2115.68C1240.93 1751.69 749.904 1310.85 970.33 1132.36C1226.73 924.696 1772.72 1509.98 1927.94 1412.92C2171.74 1260.46 1688.63 914.829 1296.86 902.2" stroke="#60C3EB" stroke-width="2" stroke-miterlimit="10"/>
<path opacity="0.9565" d="M525.989 2124.06C1258.65 1757.61 751.29 1308.24 971.6 1127.02C1229.16 915.112 1782.88 1514.23 1938.02 1416.62C2182.92 1261.41 1686.08 911.032 1285.51 904.046" stroke="#62C6EE" stroke-width="2" stroke-miterlimit="10"/>
<path opacity="0.9783" d="M528.216 2132.42C1276.38 1763.53 752.417 1305.38 972.87 1121.68C1231.31 905.185 1793.21 1518.84 1948.05 1420.33C2194.45 1262.99 1683.46 907.198 1274.1 905.903" stroke="#64C8F0" stroke-width="2" stroke-miterlimit="10"/>
<path d="M530.445 2140.77C1294.11 1769.44 753.981 1303.08 974.142 1116.34C1233.99 895.954 1803.55 1523.44 1958.13 1424.03C2206.03 1264.56 1680.91 903.401 1262.75 907.748" stroke="#66CAF2" stroke-width="2" stroke-miterlimit="10"/>
</g>
</g>
<defs>
<clipPath id="clip0_7210_84403">
<rect width="1789.74" height="1111.67" fill="white" transform="translate(-522.096 -101.047) rotate(-12.9457)"/>
</clipPath>
<clipPath id="clip1_7210_84403">
<rect width="1789.74" height="1111.67" fill="white" transform="translate(268 1060.95) rotate(-12.9457)"/>
</clipPath>
</defs>
</svg>
