<svg width="42" height="52" viewBox="0 0 42 52" fill="none" xmlns="http://www.w3.org/2000/svg">
<path d="M39.4263 28L34.2821 28.0144C34.2821 28.0144 32.6062 27.9965 31.7487 28.8472C30.8312 29.7577 28.9933 31.9984 28.9933 31.9984C28.9933 31.9984 28.0253 32.9858 28.0228 33.78L28.0011 40.395C27.997 40.5594 28.0041 40.7238 28.0227 40.8873C28.1119 41.6943 28.5451 42.9952 30.558 40.7408C33.2559 37.7182 40.6322 29.5452 40.6322 29.5452C40.6322 29.5452 42.012 28.0312 39.4267 28.0002L39.4263 28Z" fill="white"/>
<path d="M39.4263 28L34.2821 28.0144C34.2821 28.0144 32.6062 27.9965 31.7487 28.8472C30.8312 29.7577 28.9933 31.9984 28.9933 31.9984C28.9933 31.9984 28.0253 32.9858 28.0228 33.78L28.0011 40.395C27.997 40.5594 28.0041 40.7238 28.0227 40.8873C28.1119 41.6943 28.5451 42.9952 30.558 40.7408C33.2559 37.7182 40.6322 29.5452 40.6322 29.5452C40.6322 29.5452 42.012 28.0312 39.4267 28.0002L39.4263 28Z" stroke="white" stroke-width="0.353333"/>
<path d="M39.4264 24L34.282 23.9855C34.282 23.9855 32.6062 24.0034 31.7485 23.1528C30.8312 22.2422 28.9933 20.0014 28.9933 20.0014C28.9933 20.0014 28.0253 19.0141 28.0227 18.2201L28.0011 11.6051C27.997 11.4406 28.0041 11.2762 28.0225 11.1126C28.1117 10.3058 28.5451 9.00475 30.558 11.2591C33.2559 14.2817 40.6321 22.4546 40.6321 22.4546C40.6321 22.4546 42.0121 23.9688 39.4268 23.9998L39.4264 24Z" fill="white"/>
<path d="M39.4264 24L34.282 23.9855C34.282 23.9855 32.6062 24.0034 31.7485 23.1528C30.8312 22.2422 28.9933 20.0014 28.9933 20.0014C28.9933 20.0014 28.0253 19.0141 28.0227 18.2201L28.0011 11.6051C27.997 11.4406 28.0041 11.2762 28.0225 11.1126C28.1117 10.3058 28.5451 9.00475 30.558 11.2591C33.2559 14.2817 40.6321 22.4546 40.6321 22.4546C40.6321 22.4546 42.0121 23.9688 39.4268 23.9998L39.4264 24Z" stroke="white" stroke-width="0.353333"/>
<path d="M1.63959 30.1478L18.9081 49.3077C18.9081 49.3077 22.0545 53.1779 21.9938 49.2128C21.9333 45.2483 21.9938 38.5707 21.9938 38.5707C21.9938 38.5707 22.1777 37.1666 20.5428 35.4406C18.9081 33.7143 14.8726 29.3464 14.8726 29.3464C14.8726 29.3464 13.8051 27.9986 10.9712 28.0047C8.27182 28.0108 2.94395 27.9915 2.88629 28.0047C2.88629 28.0047 2.5944 28.0036 2.32324 28.0196C1.50656 28.068 0.210675 28.4578 1.64016 30.1478H1.63959Z" fill="white"/>
<path d="M1.63959 30.1478L18.9081 49.3077C18.9081 49.3077 22.0545 53.1779 21.9938 49.2128C21.9333 45.2483 21.9938 38.5707 21.9938 38.5707C21.9938 38.5707 22.1777 37.1666 20.5428 35.4406C18.9081 33.7143 14.8726 29.3464 14.8726 29.3464C14.8726 29.3464 13.8051 27.9986 10.9712 28.0047C8.27182 28.0108 2.94395 27.9915 2.88629 28.0047C2.88629 28.0047 2.5944 28.0036 2.32324 28.0196C1.50656 28.068 0.210675 28.4578 1.64016 30.1478H1.63959Z" stroke="white" stroke-width="0.353333"/>
<path d="M1.63959 21.8524L18.908 2.69229C18.908 2.69229 22.0543 -1.17771 21.9938 2.78697C21.9331 6.75164 21.9938 13.4295 21.9938 13.4295C21.9938 13.4295 22.1777 14.8332 20.5428 16.5595C18.908 18.2859 14.8725 22.6538 14.8725 22.6538C14.8725 22.6538 13.805 24.0016 10.9711 23.9952C8.27175 23.989 2.94394 24.0087 2.88627 23.9952C2.88627 23.9952 2.59439 23.9964 2.32323 23.9804C1.50655 23.9322 0.210683 23.5423 1.64015 21.8524H1.63959Z" fill="white"/>
<path d="M1.63959 21.8524L18.908 2.69229C18.908 2.69229 22.0543 -1.17771 21.9938 2.78697C21.9331 6.75164 21.9938 13.4295 21.9938 13.4295C21.9938 13.4295 22.1777 14.8332 20.5428 16.5595C18.908 18.2859 14.8725 22.6538 14.8725 22.6538C14.8725 22.6538 13.805 24.0016 10.9711 23.9952C8.27175 23.989 2.94394 24.0087 2.88627 23.9952C2.88627 23.9952 2.59439 23.9964 2.32323 23.9804C1.50655 23.9322 0.210683 23.5423 1.64015 21.8524H1.63959Z" stroke="white" stroke-width="0.353333"/>
</svg>
