<svg width="272" height="97" viewBox="0 0 272 97" fill="none" xmlns="http://www.w3.org/2000/svg">
<g clip-path="url(#clip0_5357_67267)">
<path d="M67.7256 51.4805L58.4195 51.5081C58.4195 51.5081 55.3875 51.4737 53.8363 53.1128C52.1765 54.8671 48.8516 59.1846 48.8516 59.1846C48.8516 59.1846 47.1003 61.0871 47.096 62.6173L47.0568 75.3629C47.0492 75.6796 47.0622 75.9965 47.0956 76.3116C47.2572 77.8665 48.0409 80.3731 51.6823 76.0292C56.5629 70.2055 69.907 54.4578 69.907 54.4578C69.907 54.4578 72.4031 51.5406 67.7261 51.4808L67.7256 51.4805Z" fill="#1B95E3"/>
<path d="M67.7256 51.4805L58.4195 51.5081C58.4195 51.5081 55.3875 51.4737 53.8363 53.1128C52.1765 54.8671 48.8516 59.1846 48.8516 59.1846C48.8516 59.1846 47.1003 61.0871 47.096 62.6173L47.0568 75.3629C47.0492 75.6796 47.0622 75.9965 47.0956 76.3116C47.2572 77.8665 48.0409 80.3731 51.6823 76.0292C56.5629 70.2055 69.907 54.4578 69.907 54.4578C69.907 54.4578 72.4031 51.5406 67.7261 51.4808L67.7256 51.4805Z" stroke="#1B95E3" stroke-width="0.353333"/>
<path d="M67.7021 44.9167L58.3957 44.8887C58.3957 44.8887 55.3641 44.9231 53.8125 43.2843C52.153 41.5296 48.8282 37.2122 48.8282 37.2122C48.8282 37.2122 47.0769 35.3099 47.0722 33.7799L47.0333 21.0342C47.0258 20.7171 47.0388 20.4002 47.0718 20.0852C47.2334 18.5307 48.0174 16.0238 51.6588 20.3675C56.5394 26.1915 69.8832 41.9389 69.8832 41.9389C69.8832 41.9389 72.3797 44.8566 67.7027 44.9163L67.7021 44.9167Z" fill="#1B95E3"/>
<path d="M67.7021 44.9167L58.3957 44.8887C58.3957 44.8887 55.3641 44.9231 53.8125 43.2843C52.153 41.5296 48.8282 37.2122 48.8282 37.2122C48.8282 37.2122 47.0769 35.3099 47.0722 33.7799L47.0333 21.0342C47.0258 20.7171 47.0388 20.4002 47.0718 20.0852C47.2334 18.5307 48.0174 16.0238 51.6588 20.3675C56.5394 26.1915 69.8832 41.9389 69.8832 41.9389C69.8832 41.9389 72.3797 44.8566 67.7027 44.9163L67.7021 44.9167Z" stroke="#1B95E3" stroke-width="0.353333"/>
<path d="M1.79555 55.6932L32.8194 92.9956C32.8194 92.9956 38.4721 100.53 38.3631 92.8109C38.2544 85.0924 38.3631 72.0918 38.3631 72.0918C38.3631 72.0918 38.6935 69.3582 35.7564 65.9979C32.8194 62.637 25.5693 54.133 25.5693 54.133C25.5693 54.133 23.6516 51.509 18.5603 51.5208C13.7107 51.5329 4.1389 51.4953 4.03533 51.5208C4.03533 51.5208 3.51092 51.5188 3.02376 51.5499C1.55654 51.6441 -0.771584 52.403 1.79657 55.6932H1.79555Z" fill="#1F3445"/>
<path d="M1.79555 55.6932L32.8194 92.9956C32.8194 92.9956 38.4721 100.53 38.3631 92.8109C38.2544 85.0924 38.3631 72.0918 38.3631 72.0918C38.3631 72.0918 38.6935 69.3582 35.7564 65.9979C32.8194 62.637 25.5693 54.133 25.5693 54.133C25.5693 54.133 23.6516 51.509 18.5603 51.5208C13.7107 51.5329 4.1389 51.4953 4.03533 51.5208C4.03533 51.5208 3.51092 51.5188 3.02376 51.5499C1.55654 51.6441 -0.771584 52.403 1.79657 55.6932H1.79555Z" stroke="white" stroke-width="0.353333"/>
<path d="M1.33657 40.7105L32.3605 3.40796C32.3605 3.40796 38.0132 -4.12647 37.9044 3.5923C37.7954 11.3111 37.9044 24.312 37.9044 24.312C37.9044 24.312 38.2348 27.0449 35.2977 30.406C32.3605 33.767 25.1104 42.2709 25.1104 42.2709C25.1104 42.2709 23.1925 44.8949 18.1013 44.8824C13.2517 44.8703 3.67992 44.9086 3.57634 44.8824C3.57634 44.8824 3.05193 44.8846 2.56478 44.8536C1.09756 44.7597 -1.23057 44.0006 1.33758 40.7105H1.33657Z" fill="#1F3445"/>
<path d="M1.33657 40.7105L32.3605 3.40796C32.3605 3.40796 38.0132 -4.12647 37.9044 3.5923C37.7954 11.3111 37.9044 24.312 37.9044 24.312C37.9044 24.312 38.2348 27.0449 35.2977 30.4061C32.3605 33.767 25.1104 42.2709 25.1104 42.2709C25.1104 42.2709 23.1925 44.8949 18.1013 44.8824C13.2517 44.8703 3.67992 44.9086 3.57634 44.8824C3.57634 44.8824 3.05194 44.8846 2.56478 44.8536C1.09756 44.7597 -1.23057 44.0006 1.33758 40.7105H1.33657Z" stroke="white" stroke-width="0.353333"/>
<path d="M198.213 61.3525V55.4952H185.092V49.5979H196.817V44.1023H185.092V38.7666H197.495V32.9505H178.512V61.3525H198.213ZM166.904 47.0709C166.904 53.4088 162.398 55.4146 157.532 55.4146H154.302V38.8068H157.692C162.399 38.8068 166.906 40.6922 166.906 47.071L166.904 47.0709ZM174.004 47.0709C174.004 36.3193 165.867 32.9496 157.851 32.9496H147.643V61.3525H158.173C165.949 61.3525 174.005 57.0599 174.005 47.071L174.004 47.0709ZM135.836 47.0308C135.836 52.1643 132.486 55.856 127.74 55.856C122.994 55.856 119.684 52.1656 119.684 47.0308C119.684 42.0563 122.954 38.3655 127.74 38.3655C132.526 38.3655 135.838 42.0563 135.838 47.0308H135.836ZM143.136 47.0308C143.136 37.9241 136.595 32.1875 127.742 32.1875C118.928 32.1875 112.387 37.9241 112.387 47.0308C112.387 56.0168 118.928 62.1144 127.742 62.1144C136.595 62.1144 143.136 56.0168 143.136 47.0308ZM111.27 57.4208L106.524 52.9279C105.329 54.6128 103.214 55.8164 100.542 55.8164C95.8358 55.8164 92.5241 52.2875 92.5241 47.1111C92.5241 42.0962 95.9143 38.4057 100.66 38.4057C102.814 38.4057 105.087 39.2482 106.363 41.0134L110.991 36.3597C108.638 33.6305 104.369 32.1875 100.422 32.1875C91.8075 32.1875 85.1074 38.0034 85.1074 47.1111C85.1074 56.0168 91.6084 62.1144 100.303 62.1144C105.049 62.1144 108.798 60.3093 111.27 57.4208Z" fill="white"/>
<path d="M198.213 61.3525V55.4952H185.092V49.5979H196.817V44.1023H185.092V38.7666H197.495V32.9505H178.512V61.3525H198.213ZM166.904 47.0709C166.904 53.4088 162.398 55.4146 157.532 55.4146H154.302V38.8068H157.692C162.399 38.8068 166.906 40.6922 166.906 47.071L166.904 47.0709ZM174.004 47.0709C174.004 36.3193 165.867 32.9496 157.851 32.9496H147.643V61.3525H158.173C165.949 61.3525 174.005 57.0599 174.005 47.071L174.004 47.0709ZM135.836 47.0308C135.836 52.1643 132.486 55.856 127.74 55.856C122.994 55.856 119.684 52.1656 119.684 47.0308C119.684 42.0563 122.954 38.3655 127.74 38.3655C132.526 38.3655 135.838 42.0563 135.838 47.0308H135.836ZM143.136 47.0308C143.136 37.9241 136.595 32.1875 127.742 32.1875C118.928 32.1875 112.387 37.9241 112.387 47.0308C112.387 56.0168 118.928 62.1144 127.742 62.1144C136.595 62.1144 143.136 56.0168 143.136 47.0308ZM111.27 57.4208L106.524 52.9279C105.329 54.6128 103.214 55.8164 100.542 55.8164C95.8358 55.8164 92.5241 52.2875 92.5241 47.1111C92.5241 42.0962 95.9143 38.4057 100.66 38.4057C102.814 38.4057 105.087 39.2482 106.363 41.0134L110.991 36.3597C108.638 33.6305 104.369 32.1875 100.422 32.1875C91.8075 32.1875 85.1074 38.0034 85.1074 47.1111C85.1074 56.0168 91.6084 62.1144 100.303 62.1144C105.049 62.1144 108.798 60.3093 111.27 57.4208Z" fill="#1F3445" stroke="white" stroke-width="0.353333"/>
<path d="M271.944 61.3561V55.4987H258.823V49.6015H270.548V44.1059H258.823V38.7701H271.226V32.9541H252.243V61.3561H271.944ZM247.736 61.3561V55.4987H234.615V49.6015H246.341V44.1059H234.615V38.7701H247.019V32.9541H228.033V61.3561H247.736ZM223.607 61.3561V55.4181H209.568L223.328 38.4497V32.9531H201.671V38.7692H214.794L201.352 55.4181V61.3561H223.607Z" fill="#1B95E3"/>
<path d="M271.944 61.3561V55.4987H258.823V49.6015H270.548V44.1059H258.823V38.7701H271.226V32.9541H252.243V61.3561H271.944ZM247.736 61.3561V55.4987H234.615V49.6015H246.341V44.1059H234.615V38.7701H247.019V32.9541H228.033V61.3561H247.736ZM223.607 61.3561V55.4181H209.568L223.328 38.4497V32.9531H201.671V38.7692H214.794L201.352 55.4181V61.3561H223.607Z" stroke="#1B95E3" stroke-width="0.353333"/>
</g>
<defs>
<clipPath id="clip0_5357_67267">
<rect width="272" height="96.3646" fill="white" transform="translate(0 0.046875)"/>
</clipPath>
</defs>
</svg>
