<svg width="117" height="42" viewBox="0 0 117 42" fill="none" xmlns="http://www.w3.org/2000/svg">
<path d="M29.7895 23L25.8324 23.0113C25.8324 23.0113 24.5432 22.9972 23.8836 23.6657C23.1778 24.381 21.7641 26.1416 21.7641 26.1416C21.7641 26.1416 21.0194 26.9174 21.0176 27.5414L21.0009 32.7389C20.9977 32.8681 21.0032 32.9973 21.0174 33.1257C21.0861 33.7598 21.4193 34.7819 22.9677 33.0106C25.043 30.6357 30.7171 24.2141 30.7171 24.2141C30.7171 24.2141 31.7784 23.0245 29.7898 23.0001L29.7895 23Z" fill="white"/>
<path d="M29.7895 23L25.8324 23.0113C25.8324 23.0113 24.5432 22.9972 23.8836 23.6657C23.1778 24.381 21.7641 26.1416 21.7641 26.1416C21.7641 26.1416 21.0194 26.9174 21.0176 27.5414L21.0009 32.7389C20.9977 32.8681 21.0032 32.9973 21.0174 33.1257C21.0861 33.7598 21.4193 34.7819 22.9677 33.0106C25.043 30.6357 30.7171 24.2141 30.7171 24.2141C30.7171 24.2141 31.7784 23.0245 29.7898 23.0001L29.7895 23Z" fill="#1B95E3" stroke="#1B95E3" stroke-width="0.353333"/>
<path d="M29.7895 20L25.8323 19.9886C25.8323 19.9886 24.5432 20.0026 23.8835 19.3343C23.1778 18.6189 21.7641 16.8583 21.7641 16.8583C21.7641 16.8583 21.0194 16.0825 21.0174 15.4586L21.0009 10.2612C20.9977 10.1319 21.0032 10.0027 21.0173 9.87421C21.0859 9.2403 21.4193 8.21802 22.9677 9.98933C25.043 12.3642 30.717 18.7858 30.717 18.7858C30.717 18.7858 31.7785 19.9755 29.7898 19.9999L29.7895 20Z" fill="#1B95E3"/>
<path d="M29.7895 20L25.8323 19.9886C25.8323 19.9886 24.5432 20.0026 23.8835 19.3343C23.1778 18.6189 21.7641 16.8583 21.7641 16.8583C21.7641 16.8583 21.0194 16.0825 21.0174 15.4586L21.0009 10.2612C20.9977 10.1319 21.0032 10.0027 21.0173 9.87421C21.0859 9.2403 21.4193 8.21802 22.9677 9.98933C25.043 12.3642 30.717 18.7858 30.717 18.7858C30.717 18.7858 31.7785 19.9755 29.7898 19.9999L29.7895 20Z" stroke="#1B95E3" stroke-width="0.353333"/>
<path d="M1.48731 23.7743L14.6443 39.602C14.6443 39.602 17.0415 42.7991 16.9953 39.5236C16.9492 36.2486 16.9953 30.7323 16.9953 30.7323C16.9953 30.7323 17.1354 29.5724 15.8898 28.1466C14.6443 26.7205 11.5696 23.1122 11.5696 23.1122C11.5696 23.1122 10.7563 21.9988 8.59709 22.0039C6.54043 22.0089 2.48111 21.993 2.43717 22.0039C2.43717 22.0039 2.21478 22.003 2.00818 22.0162C1.38595 22.0562 0.39861 22.3781 1.48774 23.7743H1.48731Z" fill="white"/>
<path d="M1.48731 23.7743L14.6443 39.602C14.6443 39.602 17.0415 42.7991 16.9953 39.5236C16.9492 36.2486 16.9953 30.7323 16.9953 30.7323C16.9953 30.7323 17.1354 29.5724 15.8898 28.1466C14.6443 26.7205 11.5696 23.1122 11.5696 23.1122C11.5696 23.1122 10.7563 21.9988 8.59709 22.0039C6.54043 22.0089 2.48111 21.993 2.43717 22.0039C2.43717 22.0039 2.21478 22.003 2.00818 22.0162C1.38595 22.0562 0.39861 22.3781 1.48774 23.7743H1.48731Z" stroke="white" stroke-width="0.353333"/>
<path d="M1.4873 18.2259L14.6442 2.39797C14.6442 2.39797 17.0414 -0.798979 16.9953 2.47619C16.949 5.75136 16.9953 11.2678 16.9953 11.2678C16.9953 11.2678 17.1354 12.4274 15.8898 13.8535C14.6442 15.2796 11.5695 18.888 11.5695 18.888C11.5695 18.888 10.7562 20.0014 8.59702 19.996C6.54038 19.9909 2.48109 20.0071 2.43716 19.996C2.43716 19.996 2.21477 19.997 2.00818 19.9838C1.38594 19.944 0.398615 19.6219 1.48774 18.2259H1.4873Z" fill="white"/>
<path d="M1.4873 18.2259L14.6442 2.39797C14.6442 2.39797 17.0414 -0.798979 16.9953 2.47619C16.949 5.75136 16.9953 11.2678 16.9953 11.2678C16.9953 11.2678 17.1354 12.4274 15.8898 13.8535C14.6442 15.2796 11.5695 18.888 11.5695 18.888C11.5695 18.888 10.7562 20.0014 8.59702 19.996C6.54038 19.9909 2.48109 20.0071 2.43716 19.996C2.43716 19.996 2.21477 19.997 2.00818 19.9838C1.38594 19.944 0.398615 19.6219 1.48774 18.2259H1.4873Z" stroke="white" stroke-width="0.353333"/>
<path d="M85 26.6945V24.3458H79.4315V21.9811H84.4075V19.7776H79.4315V17.638H84.6954V15.3059H76.639V26.6945H85ZM71.7131 20.9678C71.7131 23.5092 69.8005 24.3135 67.7357 24.3135H66.3648V17.6542H67.8035C69.8012 17.6542 71.7138 18.4102 71.7138 20.968L71.7131 20.9678ZM74.7258 20.9678C74.7258 16.6568 71.273 15.3055 67.871 15.3055H63.5389V26.6945H68.0077C71.3075 26.6945 74.7264 24.9733 74.7264 20.968L74.7258 20.9678ZM58.5282 20.9518C58.5282 23.0102 57.1066 24.4905 55.0925 24.4905C53.0784 24.4905 51.6736 23.0107 51.6736 20.9518C51.6736 18.9571 53.0615 17.4772 55.0925 17.4772C57.1234 17.4772 58.529 18.9571 58.529 20.9518H58.5282ZM61.6263 20.9518C61.6263 17.3002 58.8505 15 55.0933 15C51.3527 15 48.577 17.3002 48.577 20.9518C48.577 24.555 51.3527 27 55.0933 27C58.8505 27 61.6263 24.555 61.6263 20.9518ZM48.1029 25.1179L46.0888 23.3164C45.5816 23.992 44.684 24.4746 43.55 24.4746C41.5529 24.4746 40.1475 23.0596 40.1475 20.984C40.1475 18.9731 41.5862 17.4934 43.6003 17.4934C44.5142 17.4934 45.4789 17.8312 46.0206 18.539L47.9845 16.6729C46.9859 15.5786 45.1743 15 43.4993 15C39.8434 15 37 17.332 37 20.984C37 24.555 39.7589 27 43.4486 27C45.4627 27 47.0537 26.2762 48.1029 25.1179Z" fill="white"/>
<path d="M85 26.6945V24.3458H79.4315V21.9811H84.4075V19.7776H79.4315V17.638H84.6954V15.3059H76.639V26.6945H85ZM71.7131 20.9678C71.7131 23.5092 69.8005 24.3135 67.7357 24.3135H66.3648V17.6542H67.8035C69.8012 17.6542 71.7138 18.4102 71.7138 20.968L71.7131 20.9678ZM74.7258 20.9678C74.7258 16.6568 71.273 15.3055 67.871 15.3055H63.5389V26.6945H68.0077C71.3075 26.6945 74.7264 24.9733 74.7264 20.968L74.7258 20.9678ZM58.5282 20.9518C58.5282 23.0102 57.1066 24.4905 55.0925 24.4905C53.0784 24.4905 51.6736 23.0107 51.6736 20.9518C51.6736 18.9571 53.0615 17.4772 55.0925 17.4772C57.1234 17.4772 58.529 18.9571 58.529 20.9518H58.5282ZM61.6263 20.9518C61.6263 17.3002 58.8505 15 55.0933 15C51.3527 15 48.577 17.3002 48.577 20.9518C48.577 24.555 51.3527 27 55.0933 27C58.8505 27 61.6263 24.555 61.6263 20.9518ZM48.1029 25.1179L46.0888 23.3164C45.5816 23.992 44.684 24.4746 43.55 24.4746C41.5529 24.4746 40.1475 23.0596 40.1475 20.984C40.1475 18.9731 41.5862 17.4934 43.6003 17.4934C44.5142 17.4934 45.4789 17.8312 46.0206 18.539L47.9845 16.6729C46.9859 15.5786 45.1743 15 43.4993 15C39.8434 15 37 17.332 37 20.984C37 24.555 39.7589 27 43.4486 27C45.4627 27 47.0537 26.2762 48.1029 25.1179Z" fill="white" stroke="white" stroke-width="0.353333"/>
<path d="M117 27V24.5253H111.424V22.0338H116.407V19.712H111.424V17.4577H116.695V15.0004H108.627V27H117ZM106.712 27V24.5253H101.136V22.0338H106.119V19.712H101.136V17.4577H106.407V15.0004H98.3391V27H106.712ZM96.4578 27V24.4913H90.4916L96.339 17.3222V15H87.1352V17.4572H92.712L87 24.4913V27H96.4578Z" fill="#1B95E3"/>
</svg>
