<svg width="24" height="24" viewBox="0 0 24 24" fill="none" xmlns="http://www.w3.org/2000/svg">
<path d="M11.977 0.665625C11.7426 0.75 11.5832 0.890625 11.4707 1.09219C11.377 1.275 11.3676 1.35938 11.3535 2.35312L11.3348 3.41719L8.18946 3.43125C5.03946 3.44531 5.03946 3.44531 4.84727 3.54844C4.59883 3.67969 4.38321 3.89531 4.25196 4.14375C4.15352 4.32656 4.14883 4.39687 4.1254 5.92969L4.10196 7.52344L2.69571 7.54687L1.28946 7.57031L1.01758 7.70625C0.680083 7.87969 0.314458 8.25937 0.150396 8.61094L0.0238332 8.88281L0.00977072 15.3469C-0.00429178 22.4859 -0.0183543 22.0734 0.291021 22.5562C0.478521 22.8516 0.708208 23.0484 1.07852 23.2219L1.38321 23.3672H12.0051H22.6223L22.9785 23.1891C23.5129 22.9266 23.8363 22.5187 23.9535 21.9469C23.9863 21.8016 24.0004 19.4906 23.991 15.3047L23.977 8.88281L23.8504 8.61094C23.6863 8.25937 23.3207 7.87969 22.9832 7.70625L22.7113 7.57031L20.8926 7.55625L19.0785 7.54219L19.1957 7.39219C19.4957 6.99375 19.5473 6.49219 19.327 6.08906C19.2098 5.87344 18.8676 5.5875 16.0082 3.33281C14.2551 1.94531 12.7645 0.778124 12.6988 0.731249C12.5441 0.632812 12.1598 0.595312 11.977 0.665625ZM15.3895 4.63594C17.391 6.21094 17.8973 6.6375 17.8504 6.67969C17.7332 6.7875 12.891 10.5 12.8723 10.5C12.8582 10.5 12.8441 10.0594 12.8348 9.52031C12.8207 8.44219 12.8113 8.41875 12.4973 8.18437C12.3707 8.08594 12.3191 8.08594 8.92071 8.07187L5.47071 8.0625L5.49883 7.60312C5.51758 7.35469 5.53165 6.62812 5.53165 5.98594V4.82812H8.87383C12.5957 4.82812 12.4176 4.84219 12.6426 4.50469C12.7457 4.35469 12.7504 4.30312 12.7504 3.45937C12.7504 2.76094 12.7645 2.57812 12.8113 2.60625C12.8395 2.625 14.002 3.53906 15.3895 4.63594ZM4.45352 9.06094C4.5004 9.12187 4.6504 9.22969 4.79102 9.30469L5.03946 9.44531L8.24102 9.45937L11.4379 9.47344V10.5844C11.4379 11.6484 11.4426 11.7094 11.5457 11.9062C11.7707 12.3609 12.3566 12.5531 12.7832 12.3187C12.8957 12.2578 13.9316 11.4797 15.0941 10.5797L17.2035 8.95312L19.0785 8.9625L20.9488 8.97656L16.7863 12.1641C14.0488 14.2594 12.5348 15.3891 12.3707 15.4594C12.1598 15.5484 12.052 15.5625 11.7426 15.5484C11.3113 15.5297 10.9832 15.3891 10.5426 15.0375C10.4066 14.925 8.58321 13.5281 6.49258 11.9344C4.40665 10.3359 2.67696 9.01406 2.65352 8.99531C2.6254 8.97187 2.99102 8.95312 3.4879 8.95312C4.3504 8.95312 4.36915 8.95312 4.45352 9.06094ZM22.5848 18.4406L22.5707 21.4172L18.6426 18.4688L14.7145 15.525L14.8926 15.3844C14.991 15.3094 16.7582 13.9547 18.8207 12.375L22.5707 9.51094L22.5848 12.4875C22.5895 14.1281 22.5895 16.8047 22.5848 18.4406ZM5.07227 12.6187C7.02696 14.1094 8.67696 15.375 8.74258 15.4359L8.86446 15.5391L5.19883 18.2812C3.18321 19.7906 1.50508 21.0422 1.47227 21.0609C1.41602 21.0938 1.40665 20.1844 1.40665 15.4687C1.40665 10.9781 1.42071 9.84375 1.46758 9.87187C1.49571 9.89062 3.12227 11.1281 5.07227 12.6187ZM10.8707 16.8375C11.1332 16.9266 11.2738 16.9453 11.7895 16.9453C12.4785 16.9453 12.7973 16.8656 13.2848 16.5703L13.552 16.4109L17.2551 19.1859L20.9535 21.9609L16.3551 21.975C13.8285 21.9797 9.70821 21.9797 7.2004 21.975L2.63946 21.9609L6.3379 19.1906L10.0363 16.4156L10.2988 16.575C10.4395 16.6594 10.6973 16.7812 10.8707 16.8375Z" fill="#4C5D70"/>
</svg>
