<svg width="24" height="24" viewBox="0 0 24 24" fill="none" xmlns="http://www.w3.org/2000/svg">
<path d="M8 2V5" stroke="#4C5D70" stroke-width="1.5" stroke-miterlimit="10" stroke-linecap="round" stroke-linejoin="round"/>
<path d="M16 2V5" stroke="#4C5D70" stroke-width="1.5" stroke-miterlimit="10" stroke-linecap="round" stroke-linejoin="round"/>
<path d="M3.5 9.09009H20.5" stroke="#4C5D70" stroke-width="1.5" stroke-miterlimit="10" stroke-linecap="round" stroke-linejoin="round"/>
<path d="M19.211 15.77L15.671 19.31C15.531 19.45 15.401 19.71 15.371 19.9L15.181 21.25C15.111 21.74 15.451 22.0801 15.941 22.0101L17.291 21.82C17.481 21.79 17.751 21.66 17.881 21.52L21.421 17.9801C22.031 17.3701 22.321 16.6601 21.421 15.7601C20.531 14.8701 19.821 15.16 19.211 15.77Z" stroke="#4C5D70" stroke-width="1.5" stroke-miterlimit="10" stroke-linecap="round" stroke-linejoin="round"/>
<path d="M18.7031 16.28C19.0031 17.36 19.8431 18.2 20.9231 18.5" stroke="#4C5D70" stroke-width="1.5" stroke-miterlimit="10" stroke-linecap="round" stroke-linejoin="round"/>
<path d="M12 22H8C4.5 22 3 20 3 17V8.5C3 5.5 4.5 3.5 8 3.5H16C19.5 3.5 21 5.5 21 8.5V12" stroke="#4C5D70" stroke-width="1.5" stroke-miterlimit="10" stroke-linecap="round" stroke-linejoin="round"/>
<path d="M11.9945 13.7H12.0035" stroke="#4C5D70" stroke-width="2" stroke-linecap="round" stroke-linejoin="round"/>
<path d="M8.29138 13.7H8.30036" stroke="#4C5D70" stroke-width="2" stroke-linecap="round" stroke-linejoin="round"/>
<path d="M8.29138 16.7H8.30036" stroke="#4C5D70" stroke-width="2" stroke-linecap="round" stroke-linejoin="round"/>
</svg>
