<svg width="18" height="18" viewBox="0 0 18 18" fill="none" xmlns="http://www.w3.org/2000/svg">
<g clip-path="url(#clip0_10901_82646)">
<path d="M8.03892 0.0553728C5.27564 0.484279 3.14166 2.63584 2.7233 5.40615C2.65299 5.85615 2.6565 6.79483 2.7233 7.27295C2.87447 8.296 3.21549 9.31904 3.83072 10.5636C4.5233 11.9698 5.23697 13.0948 7.13541 15.7667C7.57486 16.3854 8.08463 17.1132 8.27096 17.3839C8.4608 17.6616 8.65416 17.9042 8.71392 17.9394C8.84752 18.0202 9.14986 18.0202 9.28346 17.9394C9.34322 17.9042 9.53658 17.6616 9.72642 17.3839C9.91275 17.1132 10.4225 16.3854 10.862 15.7667C12.7604 13.0948 13.4741 11.9698 14.1667 10.5636C14.7819 9.31553 15.1194 8.31006 15.2706 7.27295C15.3409 6.79131 15.3444 5.85967 15.2741 5.39912C14.8557 2.61475 12.7077 0.470216 9.91978 0.0518571C9.49439 -0.0149397 8.4608 -0.0114241 8.03892 0.0553728ZM9.80728 1.1417C11.9307 1.45811 13.671 3.11748 14.1491 5.27256C14.1842 5.43779 14.2159 5.77529 14.2264 6.16904C14.2405 6.71045 14.2335 6.86514 14.1702 7.24131C13.9768 8.38389 13.4706 9.65654 12.6128 11.1437C12.0045 12.2019 11.2909 13.2706 9.74049 15.4503C9.36783 15.9706 9.04791 16.4241 9.03033 16.4522C9.00221 16.4979 8.99517 16.4979 8.96705 16.4522C8.94947 16.4241 8.62955 15.9706 8.25689 15.4503C6.7065 13.2706 5.99283 12.2019 5.38463 11.1437C4.52681 9.65654 4.02057 8.38389 3.82721 7.24131C3.76392 6.86514 3.75689 6.71045 3.77096 6.16904C3.7815 5.77529 3.81314 5.43779 3.8483 5.27256C4.19986 3.68701 5.24049 2.34404 6.6608 1.63389C7.66275 1.13467 8.68932 0.976466 9.80728 1.1417Z" fill="#4C5D70"/>
<path d="M8.19941 3.25449C7.07793 3.54277 6.20254 4.4252 5.91777 5.54668C5.79824 6.02129 5.79824 6.64004 5.91777 7.11465C6.20605 8.24316 7.08496 9.12207 8.21348 9.41035C8.68809 9.52988 9.30684 9.52988 9.78145 9.41035C10.91 9.12207 11.7889 8.24316 12.0771 7.11465C12.1967 6.64004 12.1967 6.02129 12.0771 5.54668C11.7889 4.41465 10.9135 3.53926 9.78145 3.25098C9.31035 3.13145 8.66699 3.13496 8.19941 3.25449ZM9.6127 4.34434C10.2807 4.54824 10.8361 5.13184 11.0189 5.8209C11.0857 6.08809 11.0857 6.57324 11.0189 6.84043C10.8889 7.33262 10.5479 7.8002 10.1119 8.08848C9.60566 8.41895 8.92715 8.50684 8.35762 8.30996C7.98848 8.1834 7.72129 8.0041 7.45762 7.71582C7.09199 7.31855 6.92324 6.87559 6.92324 6.30957C6.92324 5.12129 7.95684 4.16504 9.15566 4.24941C9.2541 4.25645 9.45801 4.29863 9.6127 4.34434Z" fill="#4C5D70"/>
</g>
<defs>
<clipPath id="clip0_10901_82646">
<rect width="18" height="18" fill="white"/>
</clipPath>
</defs>
</svg>
