<svg width="27" height="26" viewBox="0 0 27 26" fill="none" xmlns="http://www.w3.org/2000/svg">
<g clip-path="url(#clip0_11101_82734)">
<path d="M13.3275 0.0436649C11.3184 0.203821 9.47861 1.29757 8.34703 3.0046C7.23085 4.6882 6.93064 6.59054 7.45024 8.6882C8.02373 11.0046 9.59022 14.0319 12.042 17.571C12.6616 18.4655 13.697 19.8913 13.7663 19.9499C13.7971 19.9734 13.8548 19.9851 13.8933 19.9694C13.9741 19.9382 15.2096 18.2976 16.0294 17.1296C18.535 13.5632 19.9707 10.6101 20.4018 8.11007C20.5557 7.22726 20.5403 6.14132 20.3556 5.21945C19.9668 3.27413 18.7198 1.61398 16.9839 0.742884C15.8909 0.196009 14.5707 -0.0578976 13.3275 0.0436649ZM15.0095 1.07491C16.1372 1.32491 17.0571 1.83663 17.8807 2.67257C18.7159 3.52413 19.2009 4.43038 19.4588 5.6257C19.5627 6.10226 19.5627 7.41476 19.4588 7.89132C19.2047 9.08273 18.7159 9.99288 17.8807 10.8444C17.0417 11.6921 16.1487 12.1843 14.971 12.446C14.5014 12.5515 13.2082 12.5515 12.7386 12.446C11.5647 12.1882 10.6679 11.6921 9.82885 10.8444C8.99365 9.99288 8.50484 9.08273 8.25081 7.89132C8.14689 7.41476 8.14689 6.10226 8.25081 5.6257C8.49329 4.49679 8.97825 3.5632 9.72878 2.76632C10.6294 1.8132 11.7495 1.21945 13.0273 1.02023C13.3852 0.961634 14.6669 0.99679 15.0095 1.07491Z" fill="#3BA4E8"/>
<path d="M15.401 8.605H12.665L12.161 10H11.297L13.565 3.763H14.51L16.769 10H15.905L15.401 8.605ZM15.167 7.939L14.033 4.771L12.899 7.939H15.167Z" fill="#3BA4E8"/>
</g>
<ellipse opacity="0.4" cx="13.5" cy="24" rx="13.5" ry="2" fill="#3BA4E8"/>
<ellipse opacity="0.35" cx="13.5" cy="24" rx="9.5" ry="1" fill="#3BA4E8"/>
<defs>
<clipPath id="clip0_11101_82734">
<rect width="19.7063" height="20" fill="white" transform="translate(4)"/>
</clipPath>
</defs>
</svg>
