<svg width="40" height="40" viewBox="0 0 40 40" fill="none" xmlns="http://www.w3.org/2000/svg">
<rect width="40" height="40" rx="4" fill="#FF8F0B" fill-opacity="0.2"/>
<g clip-path="url(#clip0_6910_92967)">
<path d="M16.5924 8.04375C16.3018 8.10469 15.7908 8.32031 15.5143 8.49375C14.9799 8.83125 14.5721 9.30937 14.2768 9.9375C13.9955 10.5375 13.9346 10.8609 13.9346 11.6766C13.9393 12.2812 13.9533 12.4453 14.0611 12.8344C14.333 13.8609 14.933 14.9203 15.7768 15.8672L15.9596 16.0734L16.2455 15.825C16.5643 15.5437 16.5689 15.5953 16.1939 15.1781C15.6361 14.5547 15.1064 13.6406 14.8768 12.9141C14.6986 12.3422 14.6377 11.9297 14.6705 11.4469C14.7174 10.6594 15.0033 9.99375 15.5002 9.49687C16.0205 8.97656 16.5924 8.74219 17.3518 8.74219C18.1205 8.74687 18.8893 9.0375 19.7283 9.64219L19.9955 9.83906L20.408 9.55781C21.2705 8.96719 21.8939 8.74219 22.6674 8.74219C23.408 8.74219 23.9846 8.98125 24.5096 9.50156C24.8799 9.87187 25.1564 10.4016 25.2689 10.9594C25.6439 12.8016 24.4346 15.0234 22.1564 16.6687C21.4018 17.2125 20.333 17.7469 19.9955 17.7469C19.583 17.7469 18.2143 16.9922 17.3377 16.2797L16.9955 16.0031L16.8736 16.1109C16.808 16.1719 16.6955 16.2984 16.6205 16.3969L16.4846 16.5656L16.7986 16.8328C17.6002 17.5031 18.8752 18.2344 19.6393 18.4547L20.0002 18.5625L20.3658 18.4547C22.133 17.9391 24.2705 16.1766 25.2877 14.4C26.1783 12.8484 26.3377 11.2125 25.7236 9.93281C25.3064 9.06094 24.7064 8.50312 23.8252 8.17031C23.4549 8.02969 23.4221 8.025 22.6721 8.025C21.9502 8.025 21.8705 8.03437 21.5002 8.15625C21.083 8.29688 20.4877 8.57812 20.1783 8.77969L20.0002 8.90156L19.8221 8.77969C19.508 8.57344 18.9127 8.29219 18.5002 8.16094C18.158 8.04844 18.008 8.02969 17.4455 8.01562C17.0846 8.00625 16.7002 8.02031 16.5924 8.04375Z" fill="#FF8F0B"/>
<path d="M11.1731 9.04063C11.1028 9.22813 11.0513 9.38281 11.056 9.3875C11.07 9.39688 11.82 9.69219 12.645 10.0203L12.8606 10.1094L12.9872 9.79531C13.0528 9.62188 13.1091 9.45781 13.1091 9.43438C13.1091 9.39219 11.4544 8.70781 11.3513 8.70781C11.3231 8.70781 11.2435 8.85781 11.1731 9.04063Z" fill="#FF8F0B"/>
<path d="M27.7816 9.04179C27.3316 9.21992 26.9425 9.38398 26.9238 9.40273C26.8956 9.43086 27.0831 10.0121 27.1488 10.1012C27.1581 10.1105 27.5659 9.95117 28.0581 9.75429C28.7894 9.46367 28.9534 9.37929 28.93 9.31836C28.7659 8.87304 28.6909 8.70429 28.6488 8.70898C28.6253 8.71367 28.2316 8.85898 27.7816 9.04179Z" fill="#FF8F0B"/>
<path d="M22.1562 9.82812V10.2031H22.5312H22.9062V9.82812V9.45312H22.5312H22.1562V9.82812Z" fill="#FF8F0B"/>
<path d="M23.5625 10.5312V10.9062H23.9375H24.3125V10.5312V10.1562H23.9375H23.5625V10.5312Z" fill="#FF8F0B"/>
<path d="M10.8594 12.2188V12.5938L11.9281 12.5844L12.9922 12.5703L13.0062 12.2047L13.0203 11.8438H11.9375H10.8594V12.2188Z" fill="#FF8F0B"/>
<path d="M27.0312 12.2188V12.5938L28.1 12.5844L29.1641 12.5703L29.1781 12.2047L29.1922 11.8438H28.1094H27.0312V12.2188Z" fill="#FF8F0B"/>
<path d="M27.0125 14.5945C26.9469 14.768 26.8906 14.932 26.8906 14.9555C26.8906 15.0258 28.625 15.7008 28.6719 15.6539C28.7141 15.607 28.9625 15.0164 28.9391 15.0024C28.9297 14.993 28.1234 14.6742 27.3547 14.3695L27.1391 14.2805L27.0125 14.5945Z" fill="#FF8F0B"/>
<path d="M11.9139 14.6778C11.3233 14.9168 11.0749 15.0434 11.0842 15.0903C11.1171 15.2825 11.328 15.709 11.3842 15.695C11.5624 15.6575 13.1092 15.0153 13.1092 14.9778C13.1092 14.87 12.8608 14.3262 12.8092 14.3309C12.7811 14.3309 12.378 14.4903 11.9139 14.6778Z" fill="#FF8F0B"/>
<path d="M30.0547 19.8406C29.7969 19.9063 29.5156 20.0281 29.3188 20.1688L29.0984 20.3234L28.8266 20.1969C28.5781 20.0844 28.5031 20.0703 28.0156 20.0703C27.5328 20.0703 27.4484 20.0844 27.2141 20.1922C27.0688 20.2625 26.8578 20.3984 26.75 20.4969C26.6375 20.6 25.8453 21.4953 24.9828 22.4938C24.125 23.4922 23.4031 24.3172 23.3844 24.3313C23.3609 24.3453 23.1828 24.3688 22.9813 24.3875L22.6203 24.4203L22.7844 24.1203C23.1594 23.4406 23.2109 23.0938 23.1078 22.0719C23.0422 21.4484 23.0141 21.3125 22.9578 21.3125C22.9156 21.3078 20.7359 21.4531 18.1156 21.6266L13.3484 21.9406L10.6859 24.125L8.02344 26.3094L8.00938 29.1547L8 32H9.8375H11.675L13.9156 30.6641L16.1562 29.3234L18.275 29.0656C19.4375 28.925 20.4031 28.8031 20.4125 28.7891C20.4453 28.7563 20.3703 28.0625 20.3375 28.0625C20.3188 28.0625 19.3578 28.1797 18.1953 28.3203L16.0859 28.5734L15.1297 28.2172C14.3047 27.9078 14.1688 27.8703 14.1219 27.9313C14.0469 28.0344 13.8875 28.5266 13.9203 28.5594C13.9344 28.5734 14.2109 28.6859 14.5391 28.8078C14.975 28.9719 15.1156 29.0422 15.0688 29.0797C15.0359 29.1031 14.7219 29.2953 14.375 29.5063L13.7375 29.8859L11.2578 28.9578L8.77344 28.0297V27.3594V26.6844L9.575 26.0234C10.0156 25.6625 11.1172 24.7625 12.0219 24.0219L13.6625 22.6719L17.9797 22.3859C20.3563 22.2266 22.3109 22.1094 22.325 22.1234C22.3906 22.1844 22.4328 22.8266 22.3906 23.0609C22.2875 23.6047 21.9172 24.1484 21.5 24.3781C21.2422 24.5188 21.2141 24.5234 17.6375 24.7859L16.85 24.8422L16.8828 25.1984C16.9016 25.3953 16.925 25.5641 16.9297 25.5688C16.9438 25.5875 25.9438 24.9359 26.0797 24.9078C26.1078 24.9031 26.8344 24.0875 27.6875 23.0938C29.5672 20.9094 29.6562 20.8156 29.9797 20.6656C30.7906 20.2906 31.5453 21.1063 31.1562 21.9359C31.1 22.0578 30.8516 22.3906 30.6031 22.6813C29.1406 24.3922 26.6375 27.2891 26.6141 27.2984C26.6 27.3031 25.6906 27.4156 24.5938 27.5469C23.4969 27.6781 22.5594 27.7906 22.5031 27.8047C22.4188 27.8234 22.4094 27.8469 22.4422 28.0953C22.4609 28.2453 22.4797 28.4047 22.4797 28.4469C22.4844 28.5031 22.5219 28.5313 22.6063 28.5313C22.6719 28.5313 23.6797 28.4141 24.8516 28.2734C26.0188 28.1328 26.9844 28.0156 26.9984 28.0156C27.0453 28.0156 31.5594 22.7516 31.7 22.5266C31.9344 22.1609 32.0141 21.8375 31.9906 21.3688C31.9719 21.0453 31.9438 20.9094 31.8406 20.7125C31.5688 20.1781 31.0859 19.8641 30.4906 19.8359C30.3031 19.8266 30.1063 19.8266 30.0547 19.8406ZM28.4422 20.8625C28.5641 20.9141 28.5547 20.9234 27.1672 22.5313C26.3234 23.5063 25.7281 24.1578 25.6625 24.1766C25.6016 24.1906 25.3156 24.2188 25.025 24.2375C24.5188 24.2703 24.4953 24.2656 24.5422 24.1859C24.6688 23.9703 27.2188 21.0922 27.3828 20.975C27.6781 20.7688 28.1141 20.7219 28.4422 20.8625ZM10.8406 29.6141C11.9469 30.0266 12.8563 30.3734 12.8656 30.3781C12.8703 30.3875 12.5375 30.5938 12.1203 30.8469L11.3656 31.2969H10.0578H8.75V30.0781C8.75 29.4078 8.76875 28.8594 8.7875 28.8594C8.81094 28.8594 9.73438 29.1969 10.8406 29.6141Z" fill="#FF8F0B"/>
<path d="M21.3645 27.9327L21.0176 27.9795L21.0504 28.2655C21.0645 28.4202 21.0785 28.5889 21.0785 28.6358C21.0785 28.7202 21.102 28.7249 21.4207 28.692C21.6035 28.678 21.777 28.6452 21.7957 28.6264C21.8426 28.5842 21.7863 27.8717 21.7395 27.8811C21.7254 27.8858 21.5566 27.9092 21.3645 27.9327Z" fill="#FF8F0B"/>
</g>
<defs>
<clipPath id="clip0_6910_92967">
<rect width="24" height="24" fill="white" transform="translate(8 8)"/>
</clipPath>
</defs>
</svg>
