<svg width="22" height="22" viewBox="0 0 22 22" fill="none" xmlns="http://www.w3.org/2000/svg">
<path d="M10.1845 0.032423C8.55596 0.187111 7.34424 0.530861 5.97354 1.22696C4.34932 2.05625 2.89268 3.3625 1.82705 4.94375C1.38018 5.61406 0.830176 6.74414 0.56377 7.54336C0.353223 8.18789 0.181348 8.92266 0.0782227 9.64883C0.00517578 10.1559 0.00517578 11.8488 0.0782227 12.3559C0.258691 13.6234 0.593848 14.732 1.11807 15.7934C1.70674 16.9965 2.28682 17.8043 3.24072 18.7625C4.19033 19.7078 5.01104 20.2965 6.16689 20.8637C6.97471 21.259 7.49463 21.4523 8.31533 21.6586C10.4638 22.2 12.6208 22.0969 14.7177 21.3535C15.3622 21.1258 16.4708 20.5672 17.038 20.1891C18.3356 19.3211 19.5001 18.1266 20.3423 16.8031C20.6517 16.3176 21.1501 15.2863 21.3521 14.7148C22.3618 11.8703 22.1856 8.81953 20.8579 6.15117C20.3251 5.07695 19.7278 4.23047 18.8899 3.3668C17.9704 2.41289 17.0423 1.73828 15.8349 1.14102C14.563 0.513674 13.3771 0.174221 11.9677 0.0453148C11.5294 0.00664139 10.5368 -0.00195122 10.1845 0.032423ZM12.5263 1.50196C15.2505 1.96172 17.5579 3.46563 19.0704 5.77734C19.8009 6.88594 20.2993 8.19648 20.5271 9.60586C20.6302 10.2633 20.6302 11.7414 20.5271 12.3988C20.063 15.2691 18.4903 17.6496 16.0497 19.1879C15.0056 19.8453 13.7423 20.3094 12.3974 20.5285C11.7356 20.6316 10.2618 20.6316 9.60439 20.5242C7.46885 20.1762 5.70713 19.2867 4.20752 17.7914C2.7251 16.3176 1.82275 14.5344 1.47471 12.3988C1.37158 11.7414 1.37158 10.2633 1.47471 9.60586C1.92588 6.82578 3.39541 4.52266 5.69854 2.98438C7.01338 2.10352 8.59893 1.55352 10.2274 1.40313C10.6915 1.36016 12.0235 1.42031 12.5263 1.50196Z" fill="#C60A2C"/>
<path d="M5.91123 10.3782C5.62334 10.5028 5.46006 10.8336 5.52021 11.1559C5.55888 11.3578 5.77373 11.5942 5.96709 11.65C6.07451 11.6844 7.69013 11.693 11.0976 11.6844C16.039 11.6715 16.069 11.6715 16.1851 11.5813C16.4128 11.4137 16.4815 11.2762 16.4815 11.0055C16.4815 10.7348 16.4128 10.5973 16.1851 10.4297C16.069 10.3395 16.0433 10.3395 11.0546 10.3309C6.95107 10.3223 6.01435 10.3309 5.91123 10.3782Z" fill="#C60A2C"/>
</svg>
