<svg width="12" height="20" viewBox="0 0 12 20" fill="none" xmlns="http://www.w3.org/2000/svg">
<g clip-path="url(#clip0_10861_84048)">
<path d="M1.42871 0.0390644C0.963867 0.183596 0.604492 0.578127 0.491211 1.06641C0.44043 1.29688 0.44043 18.7109 0.491211 18.9414C0.584961 19.3477 0.84668 19.6875 1.21387 19.8828L1.40918 19.9844H5.99902H10.5889L10.7842 19.8789C11.1475 19.6875 11.3857 19.3867 11.4873 19.0078C11.5381 18.8047 11.5459 17.7852 11.5459 10.0039C11.5459 2.22266 11.5381 1.20313 11.4873 1C11.3857 0.621096 11.1475 0.320314 10.7842 0.128908L10.5889 0.0234394L6.05762 0.0156269C3.56543 0.0117207 1.4834 0.0234394 1.42871 0.0390644ZM10.3428 0.667971C10.5381 0.722658 10.7217 0.882814 10.8076 1.07813C10.8779 1.22656 10.8818 1.54688 10.8818 8.83984V16.4492H5.99902H1.11621V8.83984C1.11621 1.52735 1.12012 1.22656 1.19043 1.07813C1.22949 0.992189 1.30762 0.878908 1.3623 0.832033C1.58496 0.625002 1.44824 0.632814 5.97949 0.628908C8.76465 0.628908 10.249 0.644533 10.3428 0.667971ZM6.26465 17.6211C6.45606 17.7383 6.55371 17.918 6.53418 18.125C6.47559 18.6758 5.77246 18.8164 5.52246 18.3203C5.43262 18.1445 5.43262 17.9844 5.53027 17.8242C5.69434 17.5586 6.01465 17.4688 6.26465 17.6211Z" fill="#4C5D70"/>
<path d="M4.3631 1.71094C4.31622 1.75 4.26935 1.84375 4.25763 1.92188C4.2381 2.03516 4.25372 2.08203 4.33185 2.17578L4.42951 2.28906H5.99982H7.57013L7.66779 2.17578C7.74591 2.08203 7.76154 2.03516 7.74201 1.92188C7.69904 1.63672 7.7381 1.64453 5.99982 1.64453C4.57794 1.64453 4.43732 1.64844 4.3631 1.71094Z" fill="#4C5D70"/>
<path d="M5.57422 6.02641C5.01562 6.11235 4.35547 6.47173 4 6.88188C3.75 7.17094 3.55078 7.52251 3.43359 7.87798C3.34766 8.1436 3.33203 8.26079 3.32812 8.65923C3.32812 9.21391 3.39062 9.49126 3.625 9.93657C4.32422 11.2842 6.03906 11.7725 7.37109 10.9991C7.73828 10.7842 8.17188 10.3272 8.37109 9.94829C8.60938 9.48735 8.67188 9.21391 8.67188 8.65923C8.66797 8.26079 8.65234 8.1436 8.56641 7.87798C8.45703 7.54594 8.26953 7.2061 8.04297 6.92876C7.74219 6.56157 7.17188 6.2061 6.69141 6.08501C6.38672 6.00688 5.87891 5.97954 5.57422 6.02641ZM7.03125 7.86235C7.10156 7.91704 7.13281 7.97954 7.13281 8.06548C7.13281 8.17485 7.04688 8.27641 6.44141 8.88188C5.85547 9.46782 5.73047 9.57719 5.63281 9.57719C5.53906 9.57719 5.45312 9.51079 5.19141 9.25298C4.83594 8.8936 4.79297 8.78423 4.95312 8.61235C5.08594 8.47173 5.21484 8.49516 5.41406 8.69829C5.50781 8.79594 5.60547 8.87407 5.625 8.87407C5.64844 8.87407 5.91406 8.62798 6.21484 8.32719C6.5625 7.98344 6.79688 7.78032 6.84766 7.78032C6.89062 7.78032 6.97266 7.81548 7.03125 7.86235Z" fill="#4C5D70"/>
</g>
<defs>
<clipPath id="clip0_10861_84048">
<rect width="12" height="20" fill="white"/>
</clipPath>
</defs>
</svg>
