<svg width="43" height="43" viewBox="0 0 43 43" fill="none" xmlns="http://www.w3.org/2000/svg">
<g clip-path="url(#clip0_13866_85435)">
<path fill-rule="evenodd" clip-rule="evenodd" d="M21.8439 2.10938C21.8439 1.69516 21.5081 1.35938 21.0939 1.35938C20.6797 1.35938 20.3439 1.69516 20.3439 2.10938V4.18354C20.3049 4.18552 20.2659 4.18776 20.2271 4.19026C19.3879 4.24444 18.5304 4.42722 17.8367 4.85924C17.1104 5.31167 16.5971 6.02022 16.4801 7.00511C16.3854 7.80252 16.4741 8.49769 16.7497 9.09256C17.0262 9.6894 17.4629 10.1251 17.9638 10.4476C18.9224 11.0648 20.2115 11.3183 21.292 11.5303L21.3894 11.5494L21.3894 11.5494C21.9198 11.6534 22.4114 11.7498 22.8599 11.871C23.3372 12 23.7148 12.1445 23.9937 12.3202C24.2617 12.489 24.4147 12.6708 24.4939 12.8815C24.5758 13.0994 24.6119 13.4368 24.4809 13.9722C24.3736 14.4104 24.0732 14.7455 23.5453 14.9954C23.0008 15.2531 22.2642 15.3909 21.4338 15.4172C19.7548 15.4703 17.9834 15.063 17.2248 14.6632C16.8584 14.4701 16.4048 14.6106 16.2116 14.9771C16.0185 15.3435 16.159 15.7971 16.5255 15.9902C17.3626 16.4314 18.8361 16.7962 20.3439 16.8953V18.9844C20.3439 19.3986 20.6797 19.7344 21.0939 19.7344C21.5081 19.7344 21.8439 19.3986 21.8439 18.9844V16.8986C22.666 16.843 23.4884 16.6819 24.187 16.3512C25.005 15.964 25.6954 15.3189 25.9378 14.3289C26.1173 13.5959 26.1163 12.9344 25.898 12.3537C25.677 11.7659 25.2668 11.3493 24.7931 11.051C24.3304 10.7595 23.7878 10.568 23.2513 10.423C22.7495 10.2874 22.2084 10.1814 21.6925 10.0803L21.6924 10.0803L21.5809 10.0584C20.4279 9.83209 19.4469 9.61842 18.7758 9.18641C18.462 8.98434 18.2441 8.74995 18.1107 8.46203C17.9764 8.17214 17.9 7.76788 17.9696 7.18203C18.0293 6.6791 18.2638 6.36042 18.6298 6.13246C19.0285 5.88411 19.6078 5.73337 20.3237 5.68715C21.7534 5.59484 23.444 5.93573 24.504 6.29223C24.8966 6.42428 25.3219 6.21306 25.454 5.82046C25.586 5.42785 25.3748 5.00254 24.9822 4.8705C24.1706 4.59754 23.0255 4.3279 21.8439 4.22051V2.10938Z" fill="#00838D"/>
<path d="M13.8392 30.3858H25.2989C25.8512 30.3858 26.3058 29.9311 26.2537 29.3813C25.7184 23.7262 20.4733 26.3717 17.2371 25.0618C13.1004 23.3873 9.76765 22.28 7.42098 23.1633C5.37231 23.9345 3.48326 25.9827 2.16309 27.46C1.91388 27.7389 1.84141 28.1336 1.97451 28.4831L5.28797 37.184C5.43565 37.5718 5.80703 37.8283 6.222 37.8314C8.57959 37.8488 16.5045 37.9587 22.3793 38.6547C22.4754 38.6661 22.5703 38.6639 22.6655 38.6471C29.5681 37.4307 37.7899 33.3819 40.1039 31.628C40.2147 31.544 40.3045 31.4379 40.3477 31.3058C40.8615 29.7349 38.9545 26.5075 34.7929 28.125C30.4512 29.8125 31.5461 29.7281 28.3747 31.0781C25.5065 32.2991 22.2354 31.8292 21.1242 31.2601C20.932 31.1616 20.7311 31.0667 20.5162 31.0454L13.8392 30.3858Z" fill="#C0E6E9" stroke="#00838D" stroke-width="1.5" stroke-linejoin="round"/>
</g>
<defs>
<clipPath id="clip0_13866_85435">
<rect width="42.1875" height="42.1875" fill="white"/>
</clipPath>
</defs>
</svg>
