<svg width="44" height="44" viewBox="0 0 44 44" fill="none" xmlns="http://www.w3.org/2000/svg">
<path d="M7.63281 13.0916C7.63281 12.3957 8.32697 11.9045 8.99038 12.1146C10.6538 12.6415 13.5134 13.4351 15.6453 13.4351C21.1675 13.4351 26.1482 9.87891 31.6704 9.87891C34.1447 9.87891 37.5991 10.9479 39.0262 11.4281C39.4232 11.5617 39.683 11.9352 39.683 12.354V31.6248C39.683 32.3021 39.0242 32.7886 38.373 32.6025C36.7156 32.1288 33.8187 31.3749 31.6704 31.216C25.3024 30.7449 22.0133 35.2432 15.6453 34.7722C13.1985 34.5912 9.78047 33.6383 8.32893 33.2068C7.91192 33.0828 7.63281 32.6988 7.63281 32.2638V13.0916Z" fill="#F7E3F8" stroke="#D575DD" stroke-width="1.5" stroke-linejoin="round"/>
<path d="M15.6433 40.1127C22.0113 40.5837 25.3004 36.0859 31.6684 36.5569C32.2422 36.5993 33.7452 36.6842 34.9111 36.7949C35.5392 36.8545 36.1198 36.3606 36.1198 35.7297V32.8063C36.1198 32.4002 35.874 32.0356 35.4881 31.9092C34.3017 31.5206 31.6225 30.807 28.9975 31.2445C23.6558 32.1348 20.0947 35.5179 14.753 34.6276C11.6221 34.1058 9.38751 33.5302 8.32648 33.2312C7.90912 33.1136 7.63075 32.7313 7.63075 32.2977V18C7.63075 17.4477 7.18304 17 6.63075 17H3.28906C2.73678 17 2.28906 17.4477 2.28906 18V35.9648C2.28906 36.3453 2.50492 36.6941 2.84874 36.8571C6.97488 38.8131 10.9163 39.7631 15.6433 40.1127Z" fill="#F7E3F8" stroke="#D575DD" stroke-width="1.5" stroke-linejoin="round"/>
<circle cx="23.6542" cy="22.3417" r="5.34169" stroke="#D575DD" stroke-width="1.5" stroke-linejoin="round"/>
<path d="M12.9688 24.125H12.9863" stroke="#D575DD" stroke-width="1.5" stroke-linecap="round" stroke-linejoin="round"/>
<path d="M34.3359 20.5625H34.3535" stroke="#D575DD" stroke-width="1.5" stroke-linecap="round" stroke-linejoin="round"/>
</svg>
