<svg width="44" height="44" viewBox="0 0 44 44" fill="none" xmlns="http://www.w3.org/2000/svg">
<circle cx="22" cy="22" r="22" fill="#FF8F0B" fill-opacity="0.15"/>
<g clip-path="url(#clip0_5469_68797)">
<path d="M21.5117 12.0234C21.4492 12.0312 21.2578 12.0586 21.0859 12.082C20.125 12.2109 18.9727 12.7539 18.1914 13.4453C17.2031 14.3164 16.5039 15.5742 16.293 16.8633C16.2148 17.332 16.2266 18.3867 16.3125 18.8164C16.5898 20.2266 17.3867 21.5312 18.4609 22.3437L18.7266 22.5469L18.6172 22.5859C18.1445 22.7656 17.9414 22.8555 17.5391 23.0547C15.8047 23.9258 14.3945 25.2422 13.3906 26.9219C12.5703 28.2969 12.1094 29.832 12.0156 31.5312L11.9883 32H12.7734H13.5625V31.8086C13.5625 30.4844 14.1133 28.6562 14.8516 27.5312C15.9883 25.793 17.5117 24.6016 19.3672 23.9961C21.1328 23.418 22.8672 23.418 24.6328 23.9961C26.4883 24.6016 28.0117 25.793 29.1484 27.5312C29.8867 28.6562 30.4375 30.4844 30.4375 31.8086V32H31.2266H32.0117L31.9844 31.5312C31.8906 29.832 31.4297 28.2969 30.6094 26.9219C29.6055 25.2422 28.1953 23.9258 26.4609 23.0547C26.0586 22.8555 25.8555 22.7656 25.3828 22.5859L25.2734 22.5469L25.5391 22.3437C26.6133 21.5312 27.4102 20.2266 27.6875 18.8164C27.7734 18.3867 27.7852 17.332 27.707 16.8633C27.5391 15.8359 27.0195 14.7461 26.332 13.9648C25.4766 13 24.2734 12.3203 23.0195 12.0937C22.7188 12.0391 21.7227 11.9922 21.5117 12.0234ZM22.6602 13.6211C24.957 13.9961 26.5273 16.1602 26.1602 18.4414C25.7852 20.7383 23.6211 22.3086 21.3398 21.9414C19.043 21.5664 17.4727 19.4023 17.8398 17.1211C18.2148 14.8242 20.3789 13.2539 22.6602 13.6211Z" fill="#FF8F0B"/>
</g>
<defs>
<clipPath id="clip0_5469_68797">
<rect width="20" height="20" fill="white" transform="translate(12 12)"/>
</clipPath>
</defs>
</svg>
