<svg width="80" height="80" viewBox="0 0 80 80" fill="none" xmlns="http://www.w3.org/2000/svg">
<g opacity="0.7">
<path d="M38 80C48.0782 80 57.7437 75.9438 64.8701 68.7236C71.9964 61.5035 76 51.7108 76 41.5C76 31.2892 71.9964 21.4965 64.8701 14.2764C57.7437 7.05624 48.0782 3 38 3C17.0206 3 0 20.2231 0 41.4786C0 62.734 17.0206 80 38 80Z" fill="url(#paint0_linear_111_1229)"/>
<path d="M59.201 12H16.7777C15.5111 12.0018 14.2968 12.5291 13.4012 13.4664C12.5056 14.4037 12.0017 15.6745 12 17H64C63.9938 15.6721 63.4855 14.4007 62.5863 13.4638C61.687 12.5268 60.4699 12.0006 59.201 12Z" fill="#C4E6F7"/>
<path d="M12 16H64V56.2578C64.0008 57.1435 63.8298 58.0206 63.4968 58.839C63.1637 59.6573 62.6751 60.4009 62.059 61.0272C61.4429 61.6534 60.7113 62.15 59.9061 62.4885C59.101 62.827 58.238 63.0009 57.3667 63H18.6333C17.762 63.0009 16.899 62.827 16.0939 62.4885C15.2887 62.15 14.5571 61.6534 13.941 61.0272C13.3248 60.4009 12.8363 59.6573 12.5032 58.839C12.1702 58.0206 11.9992 57.1435 12 56.2578V16Z" fill="url(#paint1_linear_111_1229)"/>
<path d="M55.7083 21.0003H21.2914C20.9489 21.0003 20.6204 21.1583 20.3783 21.4396C20.1361 21.7208 20 22.1023 20 22.5001C20 22.8979 20.1361 23.2794 20.3783 23.5607C20.6204 23.842 20.9489 24 21.2914 24H55.7083C56.0508 24 56.3793 23.842 56.6215 23.5607C56.8637 23.2794 56.9998 22.8979 56.9998 22.5001C57.003 22.3021 56.9718 22.1054 56.908 21.9218C56.8442 21.7381 56.7492 21.5713 56.6287 21.4312C56.5081 21.2912 56.3645 21.1809 56.2063 21.1068C56.0482 21.0328 55.8788 20.9965 55.7083 21.0003Z" fill="#C4E6F7"/>
<path d="M55.7083 32.0003H21.2914C20.9489 32.0003 20.6204 32.1583 20.3783 32.4396C20.1361 32.7208 20 33.1023 20 33.5001C20 33.8979 20.1361 34.2794 20.3783 34.5607C20.6204 34.842 20.9489 35 21.2914 35H55.7083C56.0508 35 56.3793 34.842 56.6215 34.5607C56.8637 34.2794 56.9998 33.8979 56.9998 33.5001C57.003 33.3021 56.9718 33.1054 56.908 32.9218C56.8442 32.7381 56.7492 32.5713 56.6287 32.4312C56.5081 32.2912 56.3645 32.1809 56.2063 32.1068C56.0482 32.0328 55.8788 31.9965 55.7083 32.0003Z" fill="#C4E6F7"/>
<path d="M55.7083 43.0003H21.2914C20.9489 43.0003 20.6204 43.1583 20.3783 43.4396C20.1361 43.7208 20 44.1023 20 44.5001C20 44.8979 20.1361 45.2794 20.3783 45.5607C20.6204 45.842 20.9489 46 21.2914 46H55.7083C56.0508 46 56.3793 45.842 56.6215 45.5607C56.8637 45.2794 56.9998 44.8979 56.9998 44.5001C57.003 44.3021 56.9718 44.1054 56.908 43.9218C56.8442 43.7381 56.7492 43.5713 56.6287 43.4312C56.5081 43.2912 56.3645 43.1809 56.2063 43.1068C56.0482 43.0328 55.8788 42.9965 55.7083 43.0003Z" fill="#C4E6F7"/>
<path d="M55.7086 54H21.2914C20.9489 54 20.6204 54.158 20.3783 54.4393C20.1361 54.7207 20 55.1022 20 55.5C20 55.8978 20.1361 56.2794 20.3783 56.5607C20.6204 56.842 20.9489 57 21.2914 57H55.7086C56.0511 57 56.3795 56.842 56.6217 56.5607C56.8639 56.2794 57 55.8978 57 55.5C57 55.1022 56.8639 54.7207 56.6217 54.4393C56.3795 54.158 56.0511 54 55.7086 54Z" fill="#C4E6F7"/>
<path d="M20.4049 41H2.59509C1.90683 41 1.24675 41.2854 0.760081 41.7933C0.273408 42.3013 0 42.9902 0 43.7085V70.2915C0 71.0098 0.273408 71.6987 0.760081 72.2067C1.24675 72.7146 1.90683 73 2.59509 73H20.4049C21.0932 73 21.7532 72.7146 22.2399 72.2067C22.7266 71.6987 23 71.0098 23 70.2915V43.7085C22.9929 42.9925 22.7172 42.3078 22.2321 41.8015C21.7469 41.2951 21.091 41.0074 20.4049 41Z" fill="url(#paint2_linear_111_1229)"/>
<path d="M72.345 6.01375e-06H52.6548C52.2163 0.00115006 51.796 0.181853 51.4859 0.502605C51.1758 0.823357 51.0011 1.25806 51 1.71167V11.2883C51.0011 11.7419 51.1758 12.1766 51.4859 12.4974C51.796 12.8182 52.2163 12.9989 52.6548 13H72.345C72.7835 12.9989 73.2038 12.8182 73.5139 12.4974C73.824 12.1766 73.9987 11.7419 73.9998 11.2883V1.73334C74.0031 1.50658 73.9628 1.28142 73.8811 1.07098C73.7993 0.860538 73.6779 0.669046 73.5239 0.507683C73.3698 0.34632 73.1862 0.21832 72.9838 0.131154C72.7814 0.0439889 72.5642 -0.000595879 72.345 6.01375e-06Z" fill="url(#paint3_linear_111_1229)"/>
<path d="M19.1363 54H4.8637C4.63463 54 4.41495 54.1054 4.25297 54.2929C4.091 54.4804 4 54.7348 4 55C4 55.2652 4.091 55.5196 4.25297 55.7071C4.41495 55.8946 4.63463 56 4.8637 56H19.1363C19.3654 56 19.5851 55.8946 19.747 55.7071C19.909 55.5196 20 55.2652 20 55C20 54.7348 19.909 54.4804 19.747 54.2929C19.5851 54.1054 19.3654 54 19.1363 54Z" fill="#D1EAF9"/>
<path d="M19.1304 66.0002H4.86957C4.75664 65.9978 4.64444 66.0218 4.53945 66.0709C4.43446 66.12 4.33877 66.1932 4.25791 66.2861C4.17704 66.3791 4.11261 66.4901 4.06834 66.6126C4.02407 66.7352 4.00084 66.8668 4 67C4.00084 67.1332 4.02407 67.2648 4.06834 67.3874C4.11261 67.5099 4.17704 67.6209 4.25791 67.7139C4.33877 67.8068 4.43446 67.88 4.53945 67.9291C4.64444 67.9782 4.75664 68.0022 4.86957 67.9998H19.1304C19.2434 68.0022 19.3556 67.9782 19.4605 67.9291C19.5655 67.88 19.6612 67.8068 19.7421 67.7139C19.823 67.6209 19.8874 67.5099 19.9317 67.3874C19.9759 67.2648 19.9992 67.1332 20 67C19.9943 66.7325 19.9002 66.4782 19.7377 66.2914C19.5753 66.1046 19.3573 66.0001 19.1304 66.0002Z" fill="#D1EAF9"/>
<path d="M19.1304 60.0002H4.86957C4.75664 59.9978 4.64444 60.0218 4.53945 60.0709C4.43446 60.12 4.33877 60.1932 4.25791 60.2861C4.17704 60.3791 4.11261 60.4901 4.06834 60.6126C4.02407 60.7351 4.00084 60.8668 4 61C4.00084 61.1332 4.02407 61.2649 4.06834 61.3874C4.11261 61.5099 4.17704 61.6209 4.25791 61.7139C4.33877 61.8068 4.43446 61.88 4.53945 61.9291C4.64444 61.9782 4.75664 62.0022 4.86957 61.9998H19.1304C19.2434 62.0022 19.3556 61.9782 19.4605 61.9291C19.5655 61.88 19.6612 61.8068 19.7421 61.7139C19.823 61.6209 19.8874 61.5099 19.9317 61.3874C19.9759 61.2649 19.9992 61.1332 20 61C19.9943 60.7325 19.9002 60.4782 19.7377 60.2914C19.5753 60.1046 19.3573 60.0001 19.1304 60.0002Z" fill="#D1EAF9"/>
<path d="M9.43553 45H5.56447C5.14971 45.0006 4.75209 45.1965 4.45881 45.5446C4.16553 45.8928 4.00053 46.3648 4 46.8571V48.1429C4.00053 48.6352 4.16553 49.1072 4.45881 49.4554C4.75209 49.8035 5.14971 49.9994 5.56447 50H9.43553C9.85029 49.9994 10.2479 49.8035 10.5412 49.4554C10.8345 49.1072 10.9995 48.6352 11 48.1429V46.8571C10.9995 46.3648 10.8345 45.8928 10.5412 45.5446C10.2479 45.1965 9.85029 45.0006 9.43553 45Z" fill="url(#paint4_linear_111_1229)"/>
<path d="M56 9C56.3956 9 56.7822 8.8827 57.1111 8.66294C57.44 8.44318 57.6964 8.13082 57.8478 7.76537C57.9991 7.39991 58.0387 6.99778 57.9616 6.60982C57.8844 6.22186 57.6939 5.86549 57.4142 5.58579C57.1345 5.30608 56.7781 5.1156 56.3902 5.03843C56.0022 4.96126 55.6001 5.00087 55.2346 5.15224C54.8692 5.30362 54.5568 5.55996 54.3371 5.88886C54.1173 6.21776 54 6.60444 54 7C54.0017 7.5299 54.213 8.0376 54.5877 8.4123C54.9624 8.78699 55.4701 8.99826 56 9Z" fill="#D1EAF9"/>
<path d="M63 9C63.3956 9 63.7822 8.8827 64.1111 8.66294C64.44 8.44318 64.6964 8.13082 64.8478 7.76537C64.9991 7.39991 65.0387 6.99778 64.9616 6.60982C64.8844 6.22186 64.6939 5.86549 64.4142 5.58579C64.1345 5.30608 63.7782 5.1156 63.3902 5.03843C63.0022 4.96126 62.6001 5.00087 62.2346 5.15224C61.8692 5.30362 61.5568 5.55996 61.3371 5.88886C61.1173 6.21776 61 6.60444 61 7C61.0017 7.5299 61.213 8.0376 61.5877 8.4123C61.9624 8.78699 62.4701 8.99826 63 9Z" fill="#D1EAF9"/>
<path d="M70 9C70.3956 9 70.7822 8.8827 71.1111 8.66294C71.44 8.44318 71.6964 8.13082 71.8478 7.76537C71.9991 7.39991 72.0387 6.99778 71.9616 6.60982C71.8844 6.22186 71.6939 5.86549 71.4142 5.58579C71.1345 5.30608 70.7781 5.1156 70.3902 5.03843C70.0022 4.96126 69.6001 5.00087 69.2346 5.15224C68.8692 5.30362 68.5568 5.55996 68.3371 5.88886C68.1173 6.21776 68 6.60444 68 7C68.0017 7.5299 68.213 8.0376 68.5877 8.4123C68.9624 8.78699 69.4701 8.99826 70 9Z" fill="#D1EAF9"/>
<path d="M63.9762 55L59 60.4255L73.0238 73L78 67.5745L63.9762 55Z" fill="url(#paint5_linear_111_1229)"/>
<path fill-rule="evenodd" clip-rule="evenodd" d="M69 46C69 50.1534 67.7977 54.2135 65.5451 57.667C63.2926 61.1204 60.0909 63.812 56.345 65.4015C52.5991 66.9909 48.4773 67.4068 44.5007 66.5965C40.524 65.7862 36.8713 63.7861 34.0043 60.8492C31.1373 57.9123 29.1849 54.1705 28.3939 50.0969C27.6029 46.0233 28.0089 41.8009 29.5605 37.9636C31.1121 34.1264 33.7396 30.8466 37.1108 28.5391C40.482 26.2316 44.4455 25 48.5 25C51.1922 24.9997 53.858 25.5427 56.3453 26.5979C58.8326 27.6532 61.0927 29.2 62.9963 31.1501C64.9 33.1002 66.41 35.4153 67.4401 37.9633C68.4702 40.5113 69.0003 43.2422 69 46ZM65.8559 46C65.8559 49.5164 64.838 52.9538 62.9309 55.8776C61.0238 58.8014 58.3132 61.0802 55.1418 62.4259C51.9704 63.7716 48.4807 64.1237 45.114 63.4376C41.7473 62.7516 38.6548 61.0583 36.2275 58.5718C33.8002 56.0854 32.1472 52.9174 31.4775 49.4686C30.8079 46.0197 31.1516 42.4449 32.4652 39.1962C33.7788 35.9474 36.0034 33.1707 38.8576 31.2171C41.7117 29.2635 45.0673 28.2207 48.5 28.2207C53.1026 28.2225 57.5161 30.0962 60.7707 33.4301C64.0252 36.7639 65.8543 41.2852 65.8559 46Z" fill="#C4E6F7"/>
<path d="M48.5 64C51.9612 64 55.3446 62.9736 58.2225 61.0507C61.1003 59.1278 63.3434 56.3947 64.6679 53.197C65.9924 49.9993 66.339 46.4806 65.6637 43.0859C64.9885 39.6913 63.3218 36.5731 60.8744 34.1256C58.427 31.6782 55.3088 30.0115 51.9141 29.3363C48.5194 28.661 45.0007 29.0076 41.803 30.3321C38.6053 31.6566 35.8722 33.8997 33.9493 36.7775C32.0264 39.6554 31 43.0388 31 46.5C31.0017 51.1408 32.846 55.591 36.1275 58.8725C39.409 62.154 43.8592 63.9983 48.5 64Z" fill="url(#paint6_linear_111_1229)" fill-opacity="0.2"/>
<path d="M49 58C55.6274 58 61 57.1046 61 56C61 54.8954 55.6274 54 49 54C42.3726 54 37 54.8954 37 56C37 57.1046 42.3726 58 49 58Z" fill="#A1CFE2" fill-opacity="0.56"/>
<path d="M34.8502 68.5776C34.8834 68.4137 34.9658 68.2672 35.0839 68.1622C35.202 68.0572 35.3488 68 35.5 68C35.6512 68 35.798 68.0572 35.9161 68.1622C36.0342 68.2672 36.1166 68.4137 36.1498 68.5776L36.6981 71.1273C36.7268 71.2585 36.7874 71.3785 36.8734 71.474C36.9593 71.5696 37.0673 71.6369 37.1855 71.6688L39.4801 72.278C39.6277 72.3149 39.7596 72.4065 39.854 72.5377C39.9485 72.6689 40 72.832 40 73C40 73.1681 39.9485 73.3311 39.854 73.4623C39.7596 73.5935 39.6277 73.6851 39.4801 73.722L37.1855 74.3312C37.0673 74.3631 36.9593 74.4304 36.8734 74.526C36.7874 74.6215 36.7268 74.7415 36.6981 74.8727L36.1498 77.4224C36.1166 77.5863 36.0342 77.7328 35.9161 77.8378C35.798 77.9428 35.6512 78 35.5 78C35.3488 78 35.202 77.9428 35.0839 77.8378C34.9658 77.7328 34.8834 77.5863 34.8502 77.4224L34.3019 74.8727C34.2732 74.7415 34.2126 74.6215 34.1266 74.526C34.0407 74.4304 33.9327 74.3631 33.8145 74.3312L31.5199 73.722C31.3723 73.6851 31.2404 73.5935 31.146 73.4623C31.0515 73.3311 31 73.1681 31 73C31 72.832 31.0515 72.6689 31.146 72.5377C31.2404 72.4065 31.3723 72.3149 31.5199 72.278L33.8145 71.6688C33.9327 71.6369 34.0407 71.5696 34.1266 71.474C34.2126 71.3785 34.2732 71.2585 34.3019 71.1273L34.8502 68.5776Z" fill="#D1EAF9"/>
<path d="M7.85018 3.57762C7.88338 3.41367 7.96581 3.26715 8.08391 3.16217C8.20201 3.05719 8.34876 3 8.5 3C8.65124 3 8.79798 3.05719 8.91608 3.16217C9.03419 3.26715 9.11662 3.41367 9.14982 3.57762L9.6981 6.12726C9.72675 6.25854 9.78739 6.37852 9.87336 6.47405C9.95933 6.56957 10.0673 6.63694 10.1855 6.66877L12.4801 7.27798C12.6277 7.31487 12.7596 7.40646 12.854 7.53768C12.9485 7.6689 13 7.83195 13 8C13 8.16805 12.9485 8.3311 12.854 8.46232C12.7596 8.59354 12.6277 8.68513 12.4801 8.72202L10.1855 9.33123C10.0673 9.36306 9.95933 9.43043 9.87336 9.52595C9.78739 9.62148 9.72675 9.74146 9.6981 9.87274L9.14982 12.4224C9.11662 12.5863 9.03419 12.7328 8.91608 12.8378C8.79798 12.9428 8.65124 13 8.5 13C8.34876 13 8.20201 12.9428 8.08391 12.8378C7.96581 12.7328 7.88338 12.5863 7.85018 12.4224L7.3019 9.87274C7.27325 9.74146 7.21261 9.62148 7.12664 9.52595C7.04067 9.43043 6.93268 9.36306 6.81453 9.33123L4.51986 8.72202C4.3723 8.68513 4.24044 8.59354 4.14596 8.46232C4.05147 8.3311 4 8.16805 4 8C4 7.83195 4.05147 7.6689 4.14596 7.53768C4.24044 7.40646 4.3723 7.31487 4.51986 7.27798L6.81453 6.66877C6.93268 6.63694 7.04067 6.56957 7.12664 6.47405C7.21261 6.37852 7.27325 6.25854 7.3019 6.12726L7.85018 3.57762Z" fill="#D1EAF9"/>
<path fill-rule="evenodd" clip-rule="evenodd" d="M37 3.14583C37.2266 3.14583 37.4482 3.07863 37.6366 2.95273C37.825 2.82682 37.9719 2.64787 38.0586 2.43849C38.1453 2.22912 38.168 1.99873 38.1238 1.77646C38.0796 1.55419 37.9705 1.35002 37.8102 1.18977C37.65 1.02953 37.4458 0.920395 37.2235 0.876182C37.0013 0.83197 36.7709 0.854663 36.5615 0.941388C36.3521 1.02811 36.1732 1.17498 36.0473 1.36341C35.9214 1.55184 35.8542 1.77337 35.8542 2C35.8536 2.15063 35.8829 2.29988 35.9403 2.43914C35.9977 2.57841 36.082 2.70494 36.1885 2.81145C36.2951 2.91796 36.4216 3.00235 36.5609 3.05973C36.7001 3.11712 36.8494 3.14638 37 3.14583ZM37 4C37.3956 4 37.7822 3.8827 38.1111 3.66294C38.44 3.44318 38.6964 3.13082 38.8478 2.76537C38.9991 2.39991 39.0387 1.99778 38.9616 1.60982C38.8844 1.22186 38.6939 0.86549 38.4142 0.585785C38.1345 0.30608 37.7781 0.115601 37.3902 0.0384303C37.0022 -0.0387401 36.6001 0.000866565 36.2346 0.152242C35.8692 0.303617 35.5568 0.559962 35.3371 0.88886C35.1173 1.21776 35 1.60444 35 2C35 2.53043 35.2107 3.03914 35.5858 3.41422C35.9609 3.78929 36.4696 4 37 4Z" fill="#D1EAF9"/>
<path d="M73.0161 36.7046C72.9926 36.6082 72.9948 36.5073 73.0225 36.412C73.0502 36.3167 73.1025 36.2302 73.1741 36.1611C73.2457 36.0919 73.3342 36.0426 73.4308 36.0179C73.5275 35.9932 73.629 35.9941 73.7252 36.0203L76.5823 36.8291C76.6786 36.8564 76.766 36.9082 76.836 36.9794C76.906 37.0505 76.9561 37.1386 76.9814 37.235C77.0066 37.3313 77.0062 37.4325 76.9801 37.5286C76.954 37.6247 76.9032 37.7124 76.8326 37.783L74.7054 39.8359C74.6333 39.9066 74.5436 39.957 74.4455 39.9821C74.3474 40.0071 74.2444 40.0059 74.1469 39.9785C74.0494 39.9511 73.961 39.8986 73.8906 39.8262C73.8202 39.7538 73.7703 39.6641 73.7461 39.5664L73.0161 36.7046Z" fill="#D1EAF9"/>
<path d="M5.29536 31.0161C5.3918 30.9926 5.49267 30.9948 5.588 31.0225C5.68334 31.0502 5.76983 31.1025 5.83895 31.1741C5.90806 31.2457 5.95739 31.3342 5.98208 31.4309C6.00676 31.5275 6.00593 31.629 5.97969 31.7252L5.17094 34.5823C5.14363 34.6786 5.09182 34.766 5.02064 34.836C4.94945 34.906 4.86135 34.9561 4.76503 34.9814C4.66871 35.0066 4.56751 35.0062 4.4714 34.9801C4.3753 34.954 4.28762 34.9032 4.21703 34.8326L2.16405 32.7054C2.09337 32.6333 2.04295 32.5436 2.01791 32.4455C1.99287 32.3474 1.99411 32.2444 2.02149 32.1469C2.04888 32.0494 2.10145 31.961 2.17384 31.8906C2.24623 31.8202 2.33587 31.7703 2.43364 31.7461L5.29536 31.0161Z" fill="#D1EAF9"/>
<path d="M60.2954 72.0161C60.3918 71.9926 60.4927 71.9948 60.588 72.0225C60.6833 72.0502 60.7698 72.1025 60.8389 72.1741C60.9081 72.2457 60.9574 72.3342 60.9821 72.4309C61.0068 72.5275 61.0059 72.629 60.9797 72.7252L60.1709 75.5823C60.1436 75.6786 60.0918 75.766 60.0206 75.836C59.9494 75.906 59.8613 75.9561 59.765 75.9814C59.6687 76.0066 59.5675 76.0062 59.4714 75.9801C59.3753 75.954 59.2876 75.9032 59.217 75.8326L57.164 73.7054C57.0934 73.6332 57.043 73.5436 57.0179 73.4455C56.9929 73.3474 56.9941 73.2444 57.0215 73.1469C57.0489 73.0494 57.1014 72.961 57.1738 72.8906C57.2462 72.8202 57.3359 72.7703 57.4336 72.7461L60.2954 72.0161Z" fill="#D1EAF9"/>
<path fill-rule="evenodd" clip-rule="evenodd" d="M76 21.1458C76.2266 21.1458 76.4482 21.0786 76.6366 20.9527C76.825 20.8268 76.9719 20.6479 77.0586 20.4385C77.1453 20.2291 77.168 19.9987 77.1238 19.7765C77.0796 19.5542 76.9705 19.35 76.8102 19.1898C76.65 19.0295 76.4458 18.9204 76.2235 18.8762C76.0013 18.832 75.7709 18.8547 75.5615 18.9414C75.3521 19.0281 75.1732 19.175 75.0473 19.3634C74.9214 19.5518 74.8542 19.7734 74.8542 20C74.8569 20.3031 74.9785 20.5929 75.1928 20.8072C75.4071 21.0215 75.6969 21.1431 76 21.1458ZM76 22C76.3956 22 76.7822 21.8827 77.1111 21.6629C77.44 21.4432 77.6964 21.1308 77.8478 20.7654C77.9991 20.3999 78.0387 19.9978 77.9616 19.6098C77.8844 19.2219 77.6939 18.8655 77.4142 18.5858C77.1345 18.3061 76.7781 18.1156 76.3902 18.0384C76.0022 17.9613 75.6001 18.0009 75.2346 18.1522C74.8692 18.3036 74.5568 18.56 74.3371 18.8889C74.1173 19.2178 74 19.6044 74 20C74 20.2626 74.0517 20.5227 74.1522 20.7654C74.2527 21.008 74.4001 21.2285 74.5858 21.4142C74.7715 21.5999 74.992 21.7472 75.2346 21.8478C75.4773 21.9483 75.7374 22 76 22Z" fill="#D1EAF9"/>
<path d="M73 73.39L78.0191 68L78.7796 68.6764C79.144 68.996 79.4392 69.3831 79.6481 69.815C79.8571 70.2468 79.9754 70.7149 79.9964 71.1917C80.0396 72.153 79.6967 73.093 79.0403 73.8128C78.7118 74.1672 78.3139 74.4545 77.87 74.6577C77.426 74.8609 76.9449 74.9761 76.4547 74.9965C75.4666 75.0385 74.5004 74.705 73.7605 74.0664L73 73.39Z" fill="#C4E6F7"/>
<path d="M53.2859 46.4895L58.2921 41.5109C58.7571 41.0141 59.0102 40.3574 58.9983 39.6789C58.9863 39.0003 58.7101 38.3528 58.2279 37.8726C57.7435 37.3941 57.0921 37.1197 56.4094 37.1067C55.7298 37.106 55.0742 37.3562 54.5695 37.8088L49.5633 42.7874L44.557 37.8088C44.3137 37.5565 44.023 37.3541 43.7013 37.2131C43.379 37.0674 43.0283 36.9947 42.6743 37.0003C42.323 37 41.9748 37.0649 41.6474 37.1918C41.3189 37.3221 41.0204 37.5175 40.7703 37.7662C40.5156 38.0113 40.3184 38.3091 40.1926 38.6386C40.0631 38.9635 39.9977 39.3103 40.0001 39.6598C40.0071 40.0105 40.0797 40.3568 40.214 40.6811C40.3611 40.998 40.564 41.2862 40.813 41.5321L45.8193 46.5108L40.8772 51.4681C40.6235 51.7101 40.42 51.9992 40.2782 52.3192C40.1317 52.6396 40.0586 52.9884 40.0642 53.3404C40.0639 53.6898 40.1292 54.0361 40.2568 54.3617C40.3878 54.6884 40.5843 54.9852 40.8344 55.234C41.0809 55.4872 41.3803 55.6833 41.7116 55.8085C42.0384 55.9372 42.387 56.0022 42.7385 55.9999C43.0911 55.9929 43.4393 55.9208 43.7654 55.7872C44.0871 55.6462 44.3779 55.4438 44.6212 55.1914L49.6275 50.2128L54.6337 55.1914C54.8785 55.4133 55.1656 55.5841 55.478 55.6938C55.7903 55.8034 56.1216 55.8496 56.4522 55.8297C56.9515 55.8159 57.4363 55.6605 57.8497 55.3818C58.2631 55.1031 58.5878 54.7128 58.7856 54.2568C58.9835 53.8007 59.0461 53.298 58.9663 52.8077C58.8864 52.3174 58.6674 51.86 58.3349 51.4894L53.2859 46.4895Z" fill="#7DBBD3"/>
</g>
<defs>
<linearGradient id="paint0_linear_111_1229" x1="37.7057" y1="-9.56237" x2="38.5054" y2="125.668" gradientUnits="userSpaceOnUse">
<stop stop-color="white" stop-opacity="0"/>
<stop offset="1" stop-color="#D1EAF9"/>
</linearGradient>
<linearGradient id="paint1_linear_111_1229" x1="38.546" y1="5.28409" x2="37.4575" y2="64.8117" gradientUnits="userSpaceOnUse">
<stop stop-color="white"/>
<stop offset="1" stop-color="#D1EAF9"/>
</linearGradient>
<linearGradient id="paint2_linear_111_1229" x1="6.20309" y1="34.2156" x2="20.2953" y2="89.9099" gradientUnits="userSpaceOnUse">
<stop stop-color="white"/>
<stop offset="1" stop-color="#D1EAF9"/>
</linearGradient>
<linearGradient id="paint3_linear_111_1229" x1="57.9418" y1="-0.920827" x2="71.7428" y2="20.068" gradientUnits="userSpaceOnUse">
<stop stop-color="white"/>
<stop offset="1" stop-color="#D1EAF9"/>
</linearGradient>
<linearGradient id="paint4_linear_111_1229" x1="15.8358" y1="47.5" x2="3.11948" y2="47.5" gradientUnits="userSpaceOnUse">
<stop offset="0.24" stop-color="#D1EAF9"/>
<stop offset="1" stop-color="#D1EAF9"/>
</linearGradient>
<linearGradient id="paint5_linear_111_1229" x1="65.999" y1="66.7106" x2="70.9525" y2="61.2091" gradientUnits="userSpaceOnUse">
<stop stop-color="#D1EAF9"/>
<stop offset="1" stop-color="#D1EAF9"/>
</linearGradient>
<linearGradient id="paint6_linear_111_1229" x1="42.6267" y1="31.2662" x2="60.2573" y2="77.0125" gradientUnits="userSpaceOnUse">
<stop stop-color="white"/>
<stop offset="1" stop-color="#D2F7FF"/>
</linearGradient>
</defs>
</svg>
