<svg width="100" height="100" viewBox="0 0 100 100" fill="none" xmlns="http://www.w3.org/2000/svg">
<g clip-path="url(#clip0_9965_97302)">
<path d="M6.0542 4.41406C3.78857 5.01953 1.75732 6.73828 0.722168 8.94531L0.097168 10.2539L0.0385742 52.2461C0.019043 75.332 0.0385742 94.4336 0.097168 94.6875C0.233887 95.2344 1.26904 95.8984 2.01123 95.8984C2.3042 95.8984 2.79248 95.7812 3.08545 95.625C3.37842 95.4688 8.18311 90.7617 13.769 85.1758L23.9253 75H54.4136C84.8823 75 84.8823 75 86.0933 74.5898C88.9644 73.6133 91.1128 71.0742 91.6011 68.0273C91.7183 67.3633 91.7964 59.6094 91.7964 49.5312V32.1484L95.2144 28.7109C98.1245 25.7617 98.7104 25.0586 99.2573 23.9062C99.7847 22.793 99.9019 22.2656 99.9604 20.9375C100.078 18.3984 99.4917 16.6992 97.8901 15C96.4448 13.4375 94.4722 12.5 92.6558 12.5H91.8354L91.6206 11.1719C91.0542 7.91016 88.9058 5.46875 85.7222 4.47266C84.5698 4.12109 83.2026 4.10156 45.8394 4.12109C12.4019 4.12109 6.9917 4.16016 6.0542 4.41406ZM84.4331 8.61328C86.0542 9.0625 87.2847 10.7422 87.3628 12.6367L87.4019 13.7695L75.4878 25.625L63.5737 37.5H42.8315H22.1089L21.5229 37.9883C20.7808 38.6133 20.5659 39.6094 20.9956 40.5078C21.6401 41.875 20.5464 41.7969 41.3862 41.7969C56.269 41.7969 60.1558 41.8555 60.1558 42.0312C60.1558 42.168 59.7065 44.5312 59.1597 47.2656C58.2222 51.9727 58.1831 52.3047 58.4565 52.9492C58.6519 53.418 58.9839 53.75 59.4722 54.0039L60.2144 54.3555L66.0737 53.1641L71.9331 51.9922L79.7261 44.1992L87.4995 36.4258V51.2891C87.4995 60.5273 87.4214 66.5625 87.3042 67.207C87.0698 68.4766 86.4839 69.3555 85.4487 70.0781L84.6675 70.6055L53.3198 70.7031C36.0737 70.7617 21.9331 70.8203 21.8745 70.8594C21.8354 70.8789 17.8511 74.8242 13.0464 79.6289L4.29639 88.3594V50.0391C4.29639 15.8789 4.33545 11.6211 4.58936 10.9766C5.09717 9.80469 6.01514 9.00391 7.42139 8.57422C8.20264 8.33984 83.5542 8.35938 84.4331 8.61328ZM94.0229 17.4414C94.9995 18.2031 95.5464 19.0625 95.644 20.0195C95.8198 21.4258 95.4097 22.207 93.4761 24.1797L91.7183 25.9961L89.1206 23.3984L86.5229 20.8008L88.144 19.1797C89.0229 18.2812 90.0972 17.3633 90.5269 17.168C91.6206 16.6211 93.105 16.7578 94.0229 17.4414ZM79.0815 38.5938L69.6675 48.0078L66.562 48.6328C64.8433 48.9648 63.3979 49.1992 63.3394 49.1602C63.3003 49.1016 63.5347 47.6758 63.8667 45.957L64.4722 42.8711L73.8862 33.457L83.3003 24.0234L85.8784 26.6016L88.4761 29.1992L79.0815 38.5938Z" fill="#93AABE" stroke="#93AABE" stroke-width="0.3"/>
<path d="M21.5221 25.4875C20.7799 26.1125 20.5651 27.1086 20.9948 28.007C21.6588 29.3742 20.0573 29.2961 45.7799 29.2961C71.151 29.2961 69.9792 29.3546 70.5846 28.1437C71.1315 27.1086 70.9167 26.0539 70.0378 25.3507C69.6471 25.0382 68.0846 24.9992 45.8581 24.9992H22.1081L21.5221 25.4875Z" fill="#93AABE"/>
<path d="M21.5227 50.4886C20.3703 51.4652 20.6047 53.3402 21.9719 54.0042C22.5774 54.2777 24.0422 54.2972 35.7414 54.2581L48.8664 54.1995L49.4328 53.555C50.2336 52.6566 50.2336 51.387 49.4328 50.5667L48.8664 50.0003H35.4875H22.1086L21.5227 50.4886Z" fill="#93AABE"/>
</g>
<defs>
<clipPath id="clip0_9965_97302">
<rect width="100" height="100" fill="white"/>
</clipPath>
</defs>
</svg>
