<svg width="65" height="65" viewBox="0 0 65 65" fill="none" xmlns="http://www.w3.org/2000/svg">
<rect width="65" height="65" rx="8" fill="#FFE9CE"/>
<g clip-path="url(#clip0_1289_15205)">
<path d="M31.5191 15.5983C29.7127 15.8812 28.0805 16.9186 27.0648 18.4202C26.7239 18.9208 14.8991 39.4074 14.6016 40.0095C13.5715 42.0698 13.7674 44.6234 15.095 46.5821C15.9873 47.9024 17.3511 48.86 18.9326 49.2735L19.5492 49.4404H32.3896C46.1586 49.4404 45.5927 49.4549 46.6591 49.0776C47.6385 48.7294 48.3132 48.2941 49.0676 47.5469C49.6625 46.9521 50.0397 46.4152 50.4242 45.61C50.8812 44.6452 51.0191 44.0213 51.0191 42.8388C51.0191 41.6563 50.8812 41.0324 50.4242 40.0748C50.1558 39.5162 38.7808 19.7551 38.0916 18.6524C37.4024 17.5425 36.1111 16.4253 35.0592 16.0335C33.9566 15.62 32.5274 15.4459 31.5191 15.5983ZM33.0788 18.5798C33.9493 18.7177 34.8199 19.2255 35.3132 19.8929C35.6396 20.3282 47.4209 40.7132 47.7401 41.3879C48.2406 42.4398 48.1245 43.7746 47.4426 44.8265C46.8913 45.6898 45.9192 46.2919 44.8673 46.4298C44.4755 46.4805 40.3405 46.5023 32.0994 46.4878L19.9119 46.466L19.4259 46.2992C17.4236 45.6245 16.3862 43.3539 17.2205 41.4749C17.3656 41.1412 28.9945 20.9593 29.5096 20.1323C30.0827 19.2182 31.2724 18.5581 32.4259 18.5073C32.5274 18.5073 32.8176 18.5363 33.0788 18.5798Z" fill="#FF8F0B"/>
<path d="M32.0305 26.0086C31.4211 26.1682 30.9568 26.6034 30.6739 27.2781C30.5433 27.6118 30.5506 28.0761 30.7465 31.3043C30.8335 32.777 30.9496 34.6777 31.0004 35.5192C31.1092 37.3618 31.1817 37.5577 31.8346 37.8841C32.2844 38.1163 32.5964 38.138 32.9881 37.9712C33.612 37.71 33.9457 37.1152 33.9457 36.2809C33.9384 36.056 34.0472 34.0393 34.1778 31.7976C34.439 27.3071 34.439 27.3434 34.011 26.7268C33.6047 26.1319 32.756 25.8272 32.0305 26.0086Z" fill="#FF8F0B"/>
<path d="M31.9941 39.458C31.1163 39.7409 30.5649 40.5317 30.6302 41.4022C30.71 42.4468 31.4645 43.1578 32.4946 43.165C33.2346 43.165 33.844 42.7878 34.1849 42.1204C34.3735 41.7577 34.3953 40.9379 34.2284 40.5462C34.0688 40.1835 33.6916 39.77 33.3434 39.5958C33.0242 39.4362 32.2915 39.3564 31.9941 39.458Z" fill="#FF8F0B"/>
</g>
<defs>
<clipPath id="clip0_1289_15205">
<rect width="37.1429" height="37.1429" fill="white" transform="translate(13.9297 13.9297)"/>
</clipPath>
</defs>
</svg>
