<svg width="19" height="20" viewBox="0 0 19 20" fill="none" xmlns="http://www.w3.org/2000/svg">
<path fill-rule="evenodd" clip-rule="evenodd" d="M12.2072 1.3961C11.4395 1.06037 10.5933 0.875 9.70767 0.875C6.52415 0.875 3.85039 3.27013 3.50144 6.43446L3.23699 8.83254C3.22653 8.92743 3.22172 8.97098 3.21649 9.01377C3.09368 10.0195 2.76835 10.99 2.26013 11.8665C2.23851 11.9038 2.2161 11.9415 2.16726 12.0235L1.57069 13.0253L1.55539 13.051C1.28175 13.5105 1.05507 13.8912 0.911667 14.2061C0.766512 14.5249 0.660642 14.8701 0.744561 15.2308C0.810337 15.5136 0.956746 15.7712 1.16603 15.9723C1.43303 16.229 1.78382 16.3147 2.13198 16.3531C2.47594 16.391 2.91896 16.391 3.45378 16.391H3.48368H15.9317H15.9616C16.4964 16.391 16.9394 16.391 17.2834 16.3531C17.6315 16.3147 17.9823 16.229 18.2493 15.9723C18.4586 15.7712 18.605 15.5136 18.6708 15.2308C18.7547 14.8701 18.6488 14.5249 18.5037 14.2061C18.3603 13.8912 18.1336 13.5105 17.8599 13.051L17.8447 13.0253L17.2481 12.0235C17.1992 11.9415 17.1768 11.9038 17.1552 11.8665C16.647 10.99 16.3217 10.0195 16.1989 9.01377C16.1936 8.97098 16.1888 8.92743 16.1784 8.83254L16.1257 8.35523C15.813 8.45873 15.4831 8.52515 15.141 8.54916L15.1844 8.94215L15.1848 8.94557L15.1848 8.94573C15.1947 9.03613 15.2002 9.08571 15.2062 9.13497C15.3454 10.2748 15.7141 11.3747 16.2901 12.3681C16.315 12.4111 16.3405 12.4539 16.387 12.532L16.3889 12.5352L16.9855 13.537C17.2783 14.0287 17.4758 14.3618 17.5936 14.6205C17.7123 14.8812 17.7041 14.9728 17.6968 15.0042C17.6749 15.0985 17.6261 15.1844 17.5563 15.2514C17.533 15.2738 17.4585 15.3277 17.1738 15.3591C16.8913 15.3902 16.504 15.391 15.9317 15.391H3.48368C2.91135 15.391 2.52406 15.3902 2.24156 15.3591C1.95686 15.3277 1.88235 15.2738 1.85904 15.2514C1.78928 15.1844 1.74048 15.0985 1.71855 15.0042C1.71123 14.9728 1.70306 14.8812 1.82176 14.6205C1.93954 14.3618 2.13707 14.0287 2.42989 13.537L3.02646 12.5352L3.02824 12.5322C3.07481 12.454 3.10034 12.4111 3.12525 12.3681C3.70122 11.3747 4.06993 10.2748 4.20912 9.13497C4.21513 9.08572 4.2206 9.03615 4.23056 8.94578L4.23096 8.94215L4.49541 6.54407C4.78847 3.88653 7.03402 1.875 9.70767 1.875C10.3354 1.875 10.9395 1.98587 11.5002 2.18994C11.7006 1.89545 11.9385 1.62846 12.2072 1.3961ZM14.0095 2.59331C13.6967 2.73504 13.4254 2.95318 13.219 3.22415C14.1444 4.05845 14.7741 5.22123 14.9199 6.54407L14.9215 6.55811C15.2757 6.54639 15.6072 6.4445 15.8942 6.2745C15.6967 4.82347 15.0086 3.54281 14.0095 2.59331Z" fill="#4C5D70"/>
<path d="M12.2072 1.3961L12.338 1.54739L12.5779 1.33995L12.2873 1.21286L12.2072 1.3961ZM3.50144 6.43446L3.30264 6.41254L3.50144 6.43446ZM3.23699 8.83254L3.43578 8.85446V8.85446L3.23699 8.83254ZM3.21649 9.01377L3.01797 8.98953L3.21649 9.01377ZM2.26013 11.8665L2.43316 11.9669H2.43316L2.26013 11.8665ZM2.16726 12.0235L1.99542 11.9212H1.99542L2.16726 12.0235ZM1.57069 13.0253L1.74253 13.1277L1.74253 13.1277L1.57069 13.0253ZM1.55539 13.051L1.72723 13.1534H1.72723L1.55539 13.051ZM0.911667 14.2061L1.09369 14.289H1.09369L0.911667 14.2061ZM0.744561 15.2308L0.93936 15.1855H0.93936L0.744561 15.2308ZM1.16603 15.9723L1.02742 16.1165H1.02742L1.16603 15.9723ZM2.13198 16.3531L2.11006 16.5519H2.11006L2.13198 16.3531ZM3.45378 16.391V16.191H3.45378L3.45378 16.391ZM15.9616 16.391L15.9616 16.191H15.9616V16.391ZM17.2834 16.3531L17.3053 16.5519H17.3053L17.2834 16.3531ZM18.2493 15.9723L18.1107 15.8282L18.2493 15.9723ZM18.6708 15.2308L18.476 15.1855L18.476 15.1855L18.6708 15.2308ZM18.5037 14.2061L18.6857 14.1232V14.1232L18.5037 14.2061ZM17.8599 13.051L17.6881 13.1533L17.6881 13.1533L17.8599 13.051ZM17.8447 13.0253L17.6728 13.1277L17.6728 13.1277L17.8447 13.0253ZM17.2481 12.0235L17.4199 11.9212L17.4199 11.9212L17.2481 12.0235ZM17.1552 11.8665L16.9822 11.9669L16.9822 11.9669L17.1552 11.8665ZM16.1989 9.01377L16.3974 8.98953L16.1989 9.01377ZM16.1784 8.83254L16.3771 8.81062L16.1784 8.83254ZM16.1257 8.35523L16.3245 8.33331L16.2974 8.08772L16.0629 8.16536L16.1257 8.35523ZM15.141 8.54916L15.127 8.34965L14.9194 8.36423L14.9422 8.57109L15.141 8.54916ZM15.1844 8.94215L14.9856 8.96407L14.9856 8.96408L15.1844 8.94215ZM15.1848 8.94557L15.3836 8.92388L15.3835 8.92364L15.1848 8.94557ZM15.1848 8.94573L14.986 8.96742L14.986 8.96765L15.1848 8.94573ZM15.2062 9.13497L15.0077 9.15921V9.15921L15.2062 9.13497ZM16.2901 12.3681L16.1171 12.4684V12.4684L16.2901 12.3681ZM16.387 12.532L16.5589 12.4297L16.5589 12.4297L16.387 12.532ZM16.3889 12.5352L16.217 12.6374L16.217 12.6375L16.3889 12.5352ZM16.9855 13.537L17.1573 13.4346L16.9855 13.537ZM17.5936 14.6205L17.7756 14.5376L17.5936 14.6205ZM17.6968 15.0042L17.502 14.9589L17.502 14.9589L17.6968 15.0042ZM17.5563 15.2514L17.6949 15.3956L17.6949 15.3956L17.5563 15.2514ZM17.1738 15.3591L17.1519 15.1603H17.1519L17.1738 15.3591ZM2.24156 15.3591L2.26347 15.1603H2.26347L2.24156 15.3591ZM1.85904 15.2514L1.72044 15.3956H1.72044L1.85904 15.2514ZM1.71855 15.0042L1.52375 15.0496H1.52375L1.71855 15.0042ZM1.82176 14.6205L1.63974 14.5376H1.63974L1.82176 14.6205ZM2.42989 13.537L2.25805 13.4346L2.42989 13.537ZM3.02646 12.5352L2.85463 12.4328L2.85462 12.4328L3.02646 12.5352ZM3.02824 12.5322L3.20007 12.6345L3.20008 12.6345L3.02824 12.5322ZM3.12525 12.3681L2.95222 12.2678L3.12525 12.3681ZM4.20912 9.13497L4.40764 9.15921V9.15921L4.20912 9.13497ZM4.23056 8.94578L4.03177 8.92384L4.03177 8.92385L4.23056 8.94578ZM4.23096 8.94215L4.42976 8.96408L4.42976 8.96407L4.23096 8.94215ZM4.49541 6.54407L4.69421 6.566L4.49541 6.54407ZM11.5002 2.18994L11.4318 2.37788L11.5781 2.4311L11.6656 2.30244L11.5002 2.18994ZM14.0095 2.59331L14.1472 2.44833L14.0496 2.35555L13.9269 2.41114L14.0095 2.59331ZM13.219 3.22415L13.0599 3.10297L12.9483 3.24942L13.0851 3.3727L13.219 3.22415ZM14.9199 6.54407L15.1187 6.52215V6.52215L14.9199 6.54407ZM14.9215 6.55811L14.7227 6.58003L14.743 6.76413L14.9281 6.758L14.9215 6.55811ZM15.8942 6.2745L15.9961 6.44658L16.1103 6.37897L16.0924 6.24752L15.8942 6.2745ZM9.70767 1.075C10.5652 1.075 11.3842 1.25445 12.1271 1.57934L12.2873 1.21286C11.4949 0.86629 10.6214 0.675 9.70767 0.675V1.075ZM3.70023 6.45639C4.038 3.39341 6.62612 1.075 9.70767 1.075V0.675C6.42218 0.675 3.66277 3.14684 3.30264 6.41254L3.70023 6.45639ZM3.43578 8.85446L3.70023 6.45639L3.30264 6.41254L3.03819 8.81062L3.43578 8.85446ZM3.41502 9.03801C3.42042 8.99379 3.42537 8.9489 3.43578 8.85446L3.03819 8.81062C3.02768 8.90596 3.02302 8.94816 3.01797 8.98953L3.41502 9.03801ZM2.43316 11.9669C2.95492 11.0669 3.28893 10.0706 3.41502 9.03801L3.01797 8.98953C2.89843 9.96847 2.58177 10.913 2.08711 11.7662L2.43316 11.9669ZM2.3391 12.1258C2.38771 12.0442 2.41081 12.0054 2.43316 11.9669L2.08711 11.7662C2.06621 11.8023 2.04449 11.8388 1.99542 11.9212L2.3391 12.1258ZM1.74253 13.1277L2.3391 12.1258L1.99542 11.9212L1.39885 12.923L1.74253 13.1277ZM1.72723 13.1534L1.74253 13.1277L1.39886 12.923L1.38355 12.9487L1.72723 13.1534ZM1.09369 14.289C1.23148 13.9864 1.45137 13.6166 1.72723 13.1534L1.38355 12.9487C1.11212 13.4045 0.87866 13.796 0.729649 14.1232L1.09369 14.289ZM0.93936 15.1855C0.870752 14.8906 0.953848 14.5961 1.09369 14.289L0.729649 14.1232C0.579176 14.4537 0.450533 14.8496 0.549763 15.2761L0.93936 15.1855ZM1.30463 15.8282C1.12325 15.6538 0.996366 15.4306 0.93936 15.1855L0.549763 15.2761C0.624309 15.5966 0.790238 15.8885 1.02742 16.1165L1.30463 15.8282ZM2.15389 16.1543C1.81849 16.1173 1.52292 16.038 1.30463 15.8282L1.02742 16.1165C1.34314 16.42 1.74914 16.5121 2.11006 16.5519L2.15389 16.1543ZM3.45378 16.191C2.91464 16.191 2.4844 16.1907 2.15389 16.1543L2.11006 16.5519C2.46747 16.5913 2.92328 16.591 3.45379 16.591L3.45378 16.191ZM3.48368 16.191H3.45378V16.591H3.48368V16.191ZM15.9317 16.191H3.48368V16.591H15.9317V16.191ZM15.9616 16.191H15.9317V16.591H15.9616V16.191ZM17.2614 16.1543C16.9309 16.1907 16.5007 16.191 15.9616 16.191L15.9616 16.591C16.4921 16.591 16.9479 16.5913 17.3053 16.5519L17.2614 16.1543ZM18.1107 15.8282C17.8924 16.038 17.5969 16.1173 17.2614 16.1543L17.3053 16.5519C17.6662 16.5121 18.0722 16.42 18.3879 16.1165L18.1107 15.8282ZM18.476 15.1855C18.419 15.4306 18.2921 15.6538 18.1107 15.8282L18.3879 16.1165C18.6251 15.8885 18.791 15.5966 18.8656 15.2761L18.476 15.1855ZM18.3217 14.289C18.4615 14.5961 18.5446 14.8906 18.476 15.1855L18.8656 15.2761C18.9648 14.8496 18.8362 14.4537 18.6857 14.1232L18.3217 14.289ZM17.6881 13.1533C17.964 13.6166 18.1839 13.9864 18.3217 14.289L18.6857 14.1232C18.5367 13.796 18.3032 13.4045 18.0318 12.9487L17.6881 13.1533ZM17.6728 13.1277L17.6881 13.1533L18.0318 12.9487L18.0165 12.923L17.6728 13.1277ZM17.0762 12.1258L17.6728 13.1277L18.0165 12.923L17.4199 11.9212L17.0762 12.1258ZM16.9822 11.9669C17.0045 12.0054 17.0276 12.0442 17.0762 12.1258L17.4199 11.9212C17.3709 11.8388 17.3491 11.8023 17.3282 11.7662L16.9822 11.9669ZM16.0003 9.03801C16.1264 10.0706 16.4604 11.0669 16.9822 11.9669L17.3282 11.7662C16.8336 10.913 16.5169 9.96847 16.3974 8.98953L16.0003 9.03801ZM15.9796 8.85446C15.99 8.9489 15.9949 8.99379 16.0003 9.03801L16.3974 8.98953C16.3923 8.94816 16.3877 8.90595 16.3771 8.81062L15.9796 8.85446ZM15.9269 8.37715L15.9796 8.85446L16.3771 8.81062L16.3245 8.33331L15.9269 8.37715ZM16.0629 8.16536C15.7658 8.26368 15.4523 8.32682 15.127 8.34965L15.155 8.74867C15.5139 8.72348 15.8602 8.65378 16.1886 8.5451L16.0629 8.16536ZM15.3832 8.92023L15.3398 8.52724L14.9422 8.57109L14.9856 8.96407L15.3832 8.92023ZM15.3835 8.92364L15.3832 8.92022L14.9856 8.96408L14.986 8.9675L15.3835 8.92364ZM15.3836 8.92404L15.3836 8.92388L14.9859 8.96726L14.986 8.96742L15.3836 8.92404ZM15.4047 9.11073C15.3989 9.06288 15.3936 9.01461 15.3836 8.92381L14.986 8.96765C14.9959 9.05766 15.0015 9.10854 15.0077 9.15921L15.4047 9.11073ZM16.4631 12.2678C15.9007 11.2977 15.5407 10.2238 15.4047 9.11073L15.0077 9.15921C15.1502 10.3259 15.5275 11.4516 16.1171 12.4684L16.4631 12.2678ZM16.5589 12.4297C16.5121 12.3512 16.4873 12.3095 16.4631 12.2678L16.1171 12.4684C16.1427 12.5126 16.1689 12.5566 16.2152 12.6344L16.5589 12.4297ZM16.5607 12.4329L16.5589 12.4297L16.2152 12.6343L16.217 12.6374L16.5607 12.4329ZM17.1573 13.4346L16.5607 12.4328L16.217 12.6375L16.8136 13.6393L17.1573 13.4346ZM17.7756 14.5376C17.6521 14.2665 17.4476 13.9221 17.1573 13.4346L16.8136 13.6393C17.109 14.1353 17.2995 14.4572 17.4116 14.7034L17.7756 14.5376ZM17.8916 15.0496C17.9143 14.9521 17.8995 14.8097 17.7756 14.5376L17.4116 14.7034C17.525 14.9526 17.494 14.9934 17.502 14.9589L17.8916 15.0496ZM17.6949 15.3956C17.7926 15.3017 17.8609 15.1815 17.8916 15.0496L17.502 14.9589C17.4888 15.0155 17.4596 15.067 17.4177 15.1072L17.6949 15.3956ZM17.1957 15.5579C17.4929 15.5251 17.6228 15.4649 17.6949 15.3956L17.4177 15.1072C17.4432 15.0827 17.424 15.1303 17.1519 15.1603L17.1957 15.5579ZM15.9317 15.591C16.499 15.591 16.8996 15.5905 17.1957 15.5579L17.1519 15.1603C16.883 15.1899 16.5089 15.191 15.9317 15.191V15.591ZM3.48368 15.591H15.9317V15.191H3.48368V15.591ZM2.21964 15.5579C2.51575 15.5905 2.91631 15.591 3.48368 15.591V15.191C2.9064 15.191 2.53238 15.1899 2.26347 15.1603L2.21964 15.5579ZM1.72044 15.3956C1.79256 15.4649 1.92243 15.5251 2.21964 15.5579L2.26347 15.1603C1.9913 15.1303 1.97214 15.0827 1.99765 15.1072L1.72044 15.3956ZM1.52375 15.0496C1.55445 15.1815 1.62277 15.3017 1.72044 15.3956L1.99765 15.1072C1.95579 15.067 1.92651 15.0155 1.91335 14.9589L1.52375 15.0496ZM1.63974 14.5376C1.51583 14.8097 1.50109 14.9521 1.52375 15.0496L1.91335 14.9589C1.92137 14.9934 1.8903 14.9526 2.00378 14.7034L1.63974 14.5376ZM2.25805 13.4346C1.96776 13.9221 1.76319 14.2665 1.63974 14.5376L2.00378 14.7034C2.11589 14.4572 2.30637 14.1353 2.60173 13.6393L2.25805 13.4346ZM2.85462 12.4328L2.25805 13.4346L2.60173 13.6393L3.1983 12.6375L2.85462 12.4328ZM2.85641 12.4298L2.85463 12.4328L3.19829 12.6375L3.20007 12.6345L2.85641 12.4298ZM2.95222 12.2678C2.92804 12.3095 2.90318 12.3513 2.8564 12.4298L3.20008 12.6345C3.24644 12.5566 3.27265 12.5126 3.29827 12.4684L2.95222 12.2678ZM4.01059 9.11073C3.87468 10.2238 3.51465 11.2977 2.95222 12.2678L3.29827 12.4684C3.8878 11.4516 4.26518 10.3259 4.40764 9.15921L4.01059 9.11073ZM4.03177 8.92385C4.02176 9.01463 4.01643 9.06289 4.01059 9.11073L4.40764 9.15921C4.41383 9.10855 4.41944 9.05767 4.42936 8.9677L4.03177 8.92385ZM4.03217 8.92022L4.03177 8.92384L4.42936 8.96771L4.42976 8.96408L4.03217 8.92022ZM4.29662 6.52215L4.03217 8.92023L4.42976 8.96407L4.69421 6.566L4.29662 6.52215ZM9.70767 1.675C6.93204 1.675 4.60086 3.76325 4.29662 6.52215L4.69421 6.566C4.97609 4.00981 7.13599 2.075 9.70767 2.075V1.675ZM11.5686 2.002C10.9863 1.79008 10.3591 1.675 9.70767 1.675V2.075C10.3117 2.075 10.8926 2.18167 11.4318 2.37788L11.5686 2.002ZM11.6656 2.30244C11.8562 2.02233 12.0824 1.76837 12.338 1.54739L12.0764 1.24481C11.7945 1.48854 11.545 1.76858 11.3349 2.07745L11.6656 2.30244ZM13.9269 2.41114C13.5835 2.56675 13.286 2.80605 13.0599 3.10297L13.3781 3.34534C13.5647 3.10032 13.8098 2.90333 14.092 2.77548L13.9269 2.41114ZM15.1187 6.52215C14.9673 5.14889 14.3135 3.94158 13.3529 3.07561L13.0851 3.3727C13.9753 4.17531 14.5808 5.29356 14.7211 6.56599L15.1187 6.52215ZM15.1203 6.53619L15.1187 6.52215L14.7211 6.56599L14.7227 6.58003L15.1203 6.53619ZM14.9281 6.758C15.3168 6.74514 15.681 6.63323 15.9961 6.44658L15.7923 6.10242C15.5334 6.25578 15.2345 6.34764 14.9149 6.35822L14.9281 6.758ZM13.8717 2.73829C14.839 3.6575 15.5049 4.89697 15.696 6.30147L16.0924 6.24752C15.8885 4.74997 15.1783 3.42813 14.1472 2.44833L13.8717 2.73829Z" fill="#4C5D70"/>
<path d="M6.72579 16.3103C6.90168 17.0819 7.28926 17.7638 7.82841 18.2501C8.36757 18.7364 9.02817 19 9.70776 19C10.3873 19 11.0479 18.7364 11.5871 18.2501C12.1263 17.7638 12.5138 17.0819 12.6897 16.3103" stroke="#4C5D70" stroke-width="1.2" stroke-linecap="round"/>
</svg>
