<svg width="348" height="283" viewBox="0 0 348 283" fill="none" xmlns="http://www.w3.org/2000/svg">
<path d="M174.317 25.0121C174.64 25.0121 174.963 24.769 174.963 24.3638V-29.6076C174.963 -29.9317 174.721 -30.2559 174.317 -30.2559C173.993 -30.2559 173.67 -30.0127 173.67 -29.6076V24.4448C173.67 24.769 173.913 25.0121 174.317 25.0121Z" fill="#2D3962"/>
<path d="M142.567 46.6497C142.567 29.0645 156.785 14.8828 174.235 14.8828C191.765 14.8828 205.902 29.1455 205.902 46.6497H142.567Z" fill="#F4B04E"/>
<g opacity="0.47">
<path d="M151.374 17.0706C156.463 21.1225 163.653 22.3381 169.793 20.3121C171.409 19.7449 172.944 19.0155 174.559 18.9345C178.518 18.6914 181.83 21.8518 185.708 22.5001C190.151 23.1484 194.352 20.3121 197.906 17.5568C197.906 17.5568 185.627 5.8063 173.267 8.23745C160.907 10.6686 151.374 17.0706 151.374 17.0706Z" fill="white"/>
</g>
<g opacity="0.52">
<path d="M210.588 35.7882C203.479 32.6277 195.239 32.3035 187.968 35.0588C184.01 36.5175 180.132 38.9486 175.85 38.8676C172.054 38.8676 168.499 36.9227 164.783 36.1933C161.552 35.545 158.078 35.8692 155.008 37.0848C153.635 37.652 152.423 38.3003 150.969 38.5435C148.707 38.9486 146.445 38.3003 144.183 38.2193C140.547 38.0572 136.912 39.5159 134.327 42.0281L135.296 55.5615L211.234 51.0233L210.588 35.7882Z" fill="#D89741"/>
</g>
<g opacity="0.15">
<path d="M206.226 46.8906L302.441 331.902H41.263L142.891 46.8906H206.226Z" fill="#F4CE2C"/>
</g>
<path d="M232.314 256.537C229.729 256.537 227.467 254.674 227.144 252.08C225.851 243.166 226.336 211.318 233.687 207.185C247.502 199.325 257.438 205.078 265.921 199C274.403 192.923 271.333 164.721 285.794 161.318C309.868 155.645 332.003 163.344 332.003 163.344L333.457 199.649L315.2 256.132L232.314 256.537Z" fill="#56B2A1"/>
<path d="M273.194 181.818C273.194 181.818 276.748 219.663 267.619 222.662C257.925 225.822 229.247 220.149 226.904 234.655C226.904 234.655 224.238 215.449 229.893 209.533C240.718 198.188 259.622 203.78 263.984 199.728C268.427 195.676 273.194 181.818 273.194 181.818Z" fill="#2D3962"/>
<path d="M230.78 330.688L277.635 304.918V262.129H245.806C242.09 262.129 239.02 259.05 239.02 255.322H314.796C314.796 259.05 311.726 262.129 308.01 262.129H281.513V305.242L327.803 330.688L319.886 330.526L281.594 318.451V330.607H277.716V318.208L238.858 330.445L230.78 330.688Z" fill="#2D3962"/>
<path d="M264.71 205.239C248.876 219.907 231.588 229.227 216.724 247.379C201.778 265.532 195.396 281.901 185.056 300.054C189.499 303.377 198.224 310.508 201.536 309.616C203.717 309.049 228.195 278.579 243.221 262.857C251.219 254.511 274.081 251.755 286.845 245.434C297.347 240.329 303.083 230.847 299.044 201.188" fill="#AACBF2"/>
<path d="M181.581 218.773L188.528 216.666L206.705 331.335L201.616 331.497L181.581 218.773Z" fill="#2D3962"/>
<path d="M178.108 217.475H192.568V223.309H178.108V217.475Z" fill="#468E80"/>
<path d="M61.8594 218.773L54.9926 216.666L36.7352 331.335L41.8247 331.497L61.8594 218.773Z" fill="#2D3962"/>
<path d="M65.3121 223.297H50.8516V217.462H65.3121V223.297Z" fill="#468E80"/>
<path d="M48.8512 212.453H195.072V220.233H48.8512V212.453Z" fill="#56B2A1"/>
<path d="M182.39 198.68C182.39 198.68 177.3 191.062 178.754 184.903C179.481 181.662 182.067 179.474 184.329 177.286C187.156 174.53 188.045 172.991 188.206 168.939C188.287 167.156 188.368 165.373 189.256 163.833C190.064 162.294 191.842 161.159 193.538 161.483C195.073 161.807 196.204 163.266 196.446 164.887C196.77 166.427 196.366 168.047 195.881 169.587C194.831 172.829 193.296 175.908 191.034 178.501C189.014 180.77 185.54 182.472 184.086 185.227C180.774 191.467 182.39 198.68 182.39 198.68Z" fill="white"/>
<path d="M191.52 184.092C190.227 183.606 188.692 184.416 187.642 185.227C186.592 186.118 186.107 187.901 187.157 188.792C187.884 189.522 189.096 189.441 190.065 189.035C191.196 188.549 192.166 187.577 192.327 186.442C192.489 185.227 192.085 184.335 191.52 184.092Z" fill="white"/>
<path d="M183.36 170.799C182.068 170.151 179.483 170.961 179.725 172.663C179.806 173.311 180.371 173.959 181.017 174.121C181.664 174.365 182.391 174.203 182.956 173.878C183.522 173.554 183.926 172.987 184.006 172.42C184.249 171.609 183.926 171.042 183.36 170.799Z" fill="white"/>
<path d="M172.214 199.003C172.214 199.003 172.295 199.003 172.214 199.003C172.537 199.003 172.779 199.003 173.022 199.084L172.699 196.086L190.391 196.167L188.613 212.294C186.109 213.428 174.718 212.699 174.718 212.699L173.991 206.945C173.426 207.188 172.86 207.35 172.214 207.35C171.083 207.35 170.033 206.864 169.306 206.135C168.498 205.324 168.094 204.271 168.094 203.136C168.094 200.867 169.952 199.003 172.214 199.003ZM170.517 204.838C171.002 205.324 171.568 205.567 172.214 205.567C172.779 205.567 173.345 205.324 173.749 205L173.264 201.11C172.941 200.948 172.618 200.867 172.214 200.867C170.921 200.867 169.871 201.921 169.871 203.217C169.871 203.785 170.114 204.433 170.517 204.838Z" fill="#F4B04E"/>
<g opacity="0.52">
<path d="M169.708 204.912C171.566 204.102 173.747 204.669 175.686 205.317C177.624 205.965 179.563 206.857 181.583 206.695C182.795 206.614 184.007 206.209 185.218 206.209C187.561 206.209 189.581 207.748 191.439 209.207C191.6 209.369 191.277 209.612 191.52 209.531L191.116 215.528L170.354 213.178L169.708 204.912Z" fill="#D89741"/>
</g>
<g opacity="0.47">
<path d="M193.137 199.159C191.602 199.483 190.228 200.293 188.694 200.942C187.239 201.509 185.543 201.914 184.089 201.347C182.554 200.78 181.342 199.321 179.726 199.078C178.999 198.997 178.353 199.078 177.626 199.159C175.202 199.402 172.698 198.592 170.759 196.971L171.486 192.514L192.571 193.081L193.137 199.159Z" fill="white"/>
</g>
<path d="M97.2449 196.084L92.8017 212.373H134.648L119.299 208.24L123.5 196.408L97.2449 196.084Z" fill="#2D3962"/>
<path d="M151.934 198.351H63.7975C58.5465 198.351 54.1033 193.812 53.2955 187.653L47.2366 141.138C46.2672 133.439 51.195 126.551 57.7386 126.551H145.875C151.126 126.551 155.569 131.089 156.377 137.248L162.436 183.764C163.406 191.462 158.397 198.351 151.934 198.351Z" fill="#56B2A1"/>
<path d="M162.437 183.764C163.406 191.462 158.478 198.351 151.935 198.351H63.7979C58.5469 198.351 54.1037 193.812 53.2959 187.653L52.8111 184.25L162.437 183.764Z" fill="#2D3962"/>
<path d="M131.337 175.089H85.9355C83.2696 175.089 80.9268 172.739 80.5228 169.579L77.3722 145.591C76.8875 141.62 79.3919 138.055 82.7848 138.055H128.267C130.933 138.055 133.276 140.405 133.679 143.565L136.83 167.553C137.315 171.442 134.73 175.089 131.337 175.089Z" fill="white"/>
<path d="M121.807 167.718H94.2594C92.6437 167.718 91.2703 166.259 90.9472 164.396L89.0891 149.89C88.766 147.459 90.3009 145.352 92.4013 145.352H119.949C121.565 145.352 122.938 146.81 123.261 148.674L125.119 163.18C125.362 165.611 123.827 167.718 121.807 167.718Z" fill="#E8E8E8"/>
<path d="M89.1658 149.485C88.8426 147.053 90.3776 145.352 92.3972 145.352H119.945C121.561 145.352 122.934 146.567 123.338 149.403L89.1658 149.485Z" fill="#56B2A1"/>
<path d="M108.72 155.562C107.024 154.022 104.439 154.266 102.904 155.967C101.369 157.669 101.611 160.262 103.308 161.802C105.004 163.342 107.589 163.099 109.124 161.397C110.578 159.695 110.417 157.021 108.72 155.562Z" fill="#F4B04E"/>
<path d="M92.7253 168.771C93.6139 164.638 97.8148 154.913 98.5419 153.941C101.369 156.696 103.308 158.722 105.974 161.477C107.428 159.776 112.76 151.672 112.922 151.672C113.164 151.672 123.343 167.555 123.666 168.528L92.7253 168.771Z" fill="#2D3962"/>
<path d="M128.345 140.572C128.032 140.572 127.779 140.318 127.779 140.005C127.779 139.691 128.032 139.438 128.345 139.438C128.657 139.438 128.91 139.691 128.91 140.005C128.91 140.318 128.657 140.572 128.345 140.572Z" fill="#F4B04E"/>
<path d="M125.68 140.005C125.68 140.329 125.922 140.572 126.245 140.572C126.568 140.572 126.811 140.329 126.811 140.005C126.811 139.681 126.568 139.438 126.245 139.438C125.922 139.438 125.68 139.681 125.68 140.005Z" fill="#56B2A1"/>
<path d="M119.461 146.809C119.461 147.134 119.703 147.377 120.026 147.377C120.349 147.377 120.592 147.134 120.592 146.809C120.592 146.485 120.349 146.242 120.026 146.242C119.703 146.242 119.461 146.485 119.461 146.809Z" fill="#F4B04E"/>
<path d="M117.275 146.809C117.275 147.134 117.518 147.377 117.841 147.377C118.164 147.377 118.406 147.134 118.406 146.809C118.406 146.485 118.164 146.242 117.841 146.242C117.518 146.242 117.275 146.485 117.275 146.809Z" fill="white"/>
<path d="M105.32 192.517H115.741C116.388 192.517 116.953 191.95 116.953 191.302C116.953 190.653 116.388 190.086 115.741 190.086H105.32C104.674 190.086 104.108 190.653 104.108 191.302C104.108 192.031 104.674 192.517 105.32 192.517Z" fill="#56B2A1"/>
<path d="M331.52 163.021C331.52 163.021 333.378 195.761 319.887 198.921C306.396 202.082 286.765 198.597 281.272 210.996C275.778 223.476 276.505 256.539 276.505 256.539L314.394 256.215C314.394 256.215 340.326 257.674 340.649 228.5C340.891 206.377 346.142 171.936 331.52 163.021Z" fill="#2D3962"/>
<path d="M109.201 35.0632C109.443 35.0632 109.686 34.8201 109.686 34.577V29.3905C109.686 29.1474 109.443 28.9043 109.201 28.9043C108.958 28.9043 108.716 29.1474 108.716 29.3905V34.577C108.716 34.8201 108.958 35.0632 109.201 35.0632Z" fill="#2D3962"/>
<path d="M106.693 32.4705H111.863C112.105 32.4705 112.348 32.2274 112.348 31.9843C112.348 31.7412 112.105 31.498 111.863 31.498H106.693C106.45 31.498 106.208 31.7412 106.208 31.9843C106.208 32.2274 106.37 32.4705 106.693 32.4705Z" fill="#2D3962"/>
<path d="M254.288 64.4797C255.339 64.4797 256.146 63.6693 256.146 62.6158C256.146 61.5623 255.339 60.752 254.288 60.752C253.238 60.752 252.43 61.5623 252.43 62.6158C252.43 63.6693 253.238 64.4797 254.288 64.4797ZM254.288 61.8054C254.773 61.8054 255.177 62.2106 255.177 62.6969C255.177 63.1831 254.773 63.5883 254.288 63.5883C253.804 63.5883 253.4 63.1831 253.4 62.6969C253.4 62.2106 253.804 61.8054 254.288 61.8054Z" fill="#2D3962"/>
<path d="M178.107 70.0671C178.349 70.0671 178.592 69.824 178.592 69.5809V64.3944C178.592 64.1513 178.349 63.9082 178.107 63.9082C177.865 63.9082 177.622 64.1513 177.622 64.3944V69.5809C177.622 69.824 177.865 70.0671 178.107 70.0671Z" fill="#2D3962"/>
<path d="M175.523 67.4764H180.693C180.935 67.4764 181.178 67.2332 181.178 66.9901C181.178 66.747 180.935 66.5039 180.693 66.5039H175.523C175.28 66.5039 175.038 66.747 175.038 66.9901C175.038 67.2332 175.28 67.4764 175.523 67.4764Z" fill="#2D3962"/>
<path d="M167.527 112.857C168.577 112.857 169.385 112.046 169.385 110.993C169.385 109.939 168.577 109.129 167.527 109.129C166.477 109.129 165.669 109.939 165.669 110.993C165.669 112.046 166.477 112.857 167.527 112.857ZM167.527 110.101C168.011 110.101 168.415 110.507 168.415 110.993C168.415 111.479 168.011 111.884 167.527 111.884C167.042 111.884 166.638 111.479 166.638 110.993C166.638 110.507 167.042 110.101 167.527 110.101Z" fill="#2D3962"/>
<path d="M208.972 119.012C209.215 119.012 209.457 118.769 209.457 118.526V113.34C209.457 113.097 209.215 112.854 208.972 112.854C208.73 112.854 208.488 113.097 208.488 113.34V118.526C208.488 118.769 208.73 119.012 208.972 119.012Z" fill="#2D3962"/>
<path d="M206.464 116.422H211.634C211.877 116.422 212.119 116.179 212.119 115.935C212.119 115.692 211.877 115.449 211.634 115.449H206.464C206.222 115.449 205.979 115.692 205.979 115.935C205.979 116.179 206.141 116.422 206.464 116.422Z" fill="#2D3962"/>
<path d="M219.392 175.741C220.442 175.741 221.25 174.931 221.25 173.878C221.25 172.824 220.442 172.014 219.392 172.014C218.342 172.014 217.534 172.824 217.534 173.878C217.534 174.931 218.342 175.741 219.392 175.741ZM219.392 173.067C219.877 173.067 220.281 173.472 220.281 173.959C220.281 174.445 219.877 174.85 219.392 174.85C218.907 174.85 218.503 174.445 218.503 173.959C218.503 173.391 218.907 173.067 219.392 173.067Z" fill="#2D3962"/>
<path d="M234.416 28.0886C234.658 28.0886 234.9 27.8455 234.9 27.6024V22.4159C234.9 22.1728 234.658 21.9297 234.416 21.9297C234.173 21.9297 233.931 22.1728 233.931 22.4159V27.6024C233.931 27.9265 234.173 28.0886 234.416 28.0886Z" fill="#2D3962"/>
<path d="M231.831 25.5799H237.002C237.244 25.5799 237.486 25.3368 237.486 25.0937C237.486 24.8505 237.244 24.6074 237.002 24.6074H231.831C231.589 24.6074 231.347 24.8505 231.347 25.0937C231.347 25.3368 231.589 25.5799 231.831 25.5799Z" fill="#2D3962"/>
<path d="M48.9349 69.259C49.9851 69.259 50.793 68.4486 50.793 67.3951C50.793 66.3416 49.9851 65.5312 48.9349 65.5312C47.8847 65.5312 47.0768 66.3416 47.0768 67.3951C47.0768 68.4486 47.8847 69.259 48.9349 69.259ZM48.9349 66.5847C49.4196 66.5847 49.8235 66.9899 49.8235 67.4762C49.8235 67.9624 49.4196 68.3676 48.9349 68.3676C48.4502 68.3676 48.0463 67.9624 48.0463 67.4762C48.0463 66.9899 48.4502 66.5847 48.9349 66.5847Z" fill="#2D3962"/>
<path d="M264.311 206.133C262.937 207.024 249.769 208.321 231.189 211.886C213.416 215.29 203.237 216.344 195.32 224.691C190.311 230.039 194.593 273.556 199.925 290.737C208.73 289.683 209.457 290.007 218.344 290.088C218.263 274.853 217.132 245.517 218.748 243.41C220.363 241.303 219.798 242.438 222.221 241.465L264.311 206.133Z" fill="#9BBBEA"/>
<path d="M217.694 257.024C217.937 257.024 218.098 256.862 218.098 256.619L218.26 238.548C218.26 238.305 218.098 238.143 217.856 238.143C217.613 238.143 217.452 238.305 217.452 238.548L217.29 256.619C217.29 256.781 217.452 257.024 217.694 257.024Z" fill="#2D3962"/>
<path d="M33.5831 290.412C37.38 291.546 41.8232 291.384 45.5393 289.926C60.4846 284.253 61.7771 267.721 59.2728 255.079C57.5763 246.57 54.668 238.304 53.941 229.714C52.8908 216.586 57.0916 202.242 49.9825 190.816C48.5284 188.385 46.428 186.116 43.5197 185.224C39.3189 183.928 34.5525 186.116 31.9674 189.438C29.4631 192.761 28.736 197.056 28.5744 201.108C28.1705 210.265 30.1901 219.422 29.5439 228.58C28.6552 240.33 22.5156 251.351 21.7885 263.102C21.3038 271.044 21.5461 281.903 28.4937 287.656C30.1094 288.953 31.8058 289.845 33.5831 290.412Z" fill="#97DDCF"/>
<path d="M41.0141 296.167C41.3372 296.167 41.5796 295.924 41.5796 295.6L42.3066 216.831C42.3066 216.507 42.0643 216.264 41.7411 216.264C41.418 216.264 41.1757 216.507 41.1757 216.831L40.4486 295.6C40.4486 295.924 40.6909 296.167 41.0141 296.167Z" fill="#2D3962"/>
<path d="M30.8358 292.196C34.2288 292.358 37.7025 291.467 40.4492 289.765C51.3552 282.958 48.5278 270.559 43.5999 261.726C40.2877 255.81 36.0061 250.219 33.5017 243.979C29.6241 234.497 29.7856 223.233 21.384 216.021C19.6067 214.481 17.4255 213.184 14.8404 213.022C11.1242 212.779 7.73127 215.291 6.43871 218.209C5.14615 221.126 5.55007 224.367 6.35792 227.366C8.13519 234.173 11.8513 240.575 13.3862 247.463C15.3251 256.296 12.9015 265.454 15.0019 274.206C16.3753 280.122 19.122 288.063 26.0695 291.143C27.6044 291.71 29.2201 292.115 30.8358 292.196Z" fill="#56B2A1"/>
<path d="M37.0556 297.299C37.3788 297.299 37.6211 296.975 37.6211 296.651C36.0862 278.58 19.0405 228.741 18.7982 228.255C18.7174 227.931 18.3942 227.769 18.0711 227.931C17.748 228.012 17.5864 228.336 17.748 228.66C17.9095 229.146 34.9552 278.823 36.4901 296.813C36.4901 297.056 36.7325 297.299 37.0556 297.299Z" fill="#2D3962"/>
<path d="M104.679 319.425C104.679 319.425 112.839 301.354 89.4108 292.926L85.0484 271.207C84.8869 270.316 83.8367 270.235 83.1904 270.883C81.7363 272.18 78.1009 276.799 78.1009 276.799L70.6687 276.556C70.6687 276.556 66.8718 271.856 65.2561 270.64C64.8521 270.316 63.2365 270.073 62.9941 271.856C61.7015 280.608 57.9046 328.096 59.9243 330.122C62.1054 332.31 106.295 330.122 106.295 330.122L104.679 319.425Z" fill="#FFD194"/>
<path d="M75.594 283.606C75.594 284.255 76.1595 284.822 76.8058 284.822C77.4521 284.822 78.0176 284.255 78.0176 283.606C78.0176 282.958 77.4521 282.391 76.8058 282.391C76.0787 282.391 75.594 282.877 75.594 283.606Z" fill="#2D3962"/>
<path d="M71.4777 284.82C70.8084 284.82 70.2659 284.276 70.2659 283.604C70.2659 282.933 70.8084 282.389 71.4777 282.389C72.1469 282.389 72.6895 282.933 72.6895 283.604C72.6895 284.276 72.1469 284.82 71.4777 284.82Z" fill="#2D3962"/>
<path d="M79.1488 277.445C79.3912 277.445 79.5527 277.283 79.5527 277.04C79.5527 276.797 79.3912 276.634 79.1488 276.553C78.8257 276.553 71.3126 275.986 69.293 276.148C69.0507 276.148 68.8891 276.391 68.8891 276.634C68.8891 276.878 69.1314 277.04 69.3738 277.04C71.3126 276.959 79.068 277.445 79.1488 277.445Z" fill="#2D3962"/>
<g opacity="0.47">
<path d="M84.8017 270.395C86.2559 270.963 86.2559 277.121 86.2559 277.121C86.2559 277.121 81.4087 277.446 81.2472 275.906C81.1664 275.42 81.8935 274.366 82.5397 273.151C83.186 271.692 83.9939 270.071 84.8017 270.395Z" fill="white"/>
</g>
<g opacity="0.47">
<path d="M63.9627 270.395C62.5086 270.963 62.5086 277.121 62.5086 277.121C62.5086 277.121 67.3557 277.446 67.5173 275.906C67.598 275.42 66.871 274.366 66.2247 273.151C65.5784 271.692 64.8514 270.071 63.9627 270.395Z" fill="white"/>
</g>
<path d="M44.4104 94.1367H80.1983C81.4908 94.1367 82.541 95.1902 82.541 96.4868V115.774C82.541 117.07 81.4908 118.124 80.1983 118.124H77.8555V122.014C77.8555 122.581 77.2092 122.824 76.8053 122.419L72.9276 118.124H44.4104C43.1179 118.124 42.0676 117.07 42.0676 115.774V96.4868C42.0676 95.1902 43.1179 94.1367 44.4104 94.1367Z" fill="#F4B04E"/>
<path d="M48.2053 100.465H76.4801C76.7225 100.465 76.9648 100.222 76.9648 99.9784C76.9648 99.7353 76.7225 99.4922 76.4801 99.4922H48.2053C47.963 99.4922 47.7206 99.7353 47.7206 99.9784C47.7206 100.222 47.963 100.465 48.2053 100.465Z" fill="white"/>
<path d="M48.2053 106.699H76.4801C76.7225 106.699 76.9648 106.456 76.9648 106.213C76.9648 105.97 76.7225 105.727 76.4801 105.727H48.2053C47.963 105.727 47.7206 105.97 47.7206 106.213C47.7206 106.537 47.963 106.699 48.2053 106.699Z" fill="white"/>
<path d="M54.1834 112.941H76.4801C76.7225 112.941 76.9648 112.698 76.9648 112.455C76.9648 112.212 76.7225 111.969 76.4801 111.969H54.1834C53.9411 111.969 53.6987 112.212 53.6987 112.455C53.6987 112.698 53.8603 112.941 54.1834 112.941Z" fill="white"/>
<path d="M78.752 80.5221C78.752 81.4946 79.479 82.2239 80.4484 82.2239H103.391C104.361 82.2239 105.088 81.4946 105.088 80.5221V66.3405C105.088 65.368 104.361 64.6387 103.391 64.6387H80.4484C79.479 64.6387 78.752 65.368 78.752 66.3405V80.5221Z" fill="#FFD194"/>
<path d="M79.5576 83.5288L89.0095 73.1559L79.5576 63.6745L80.2847 62.8641L92.1601 74.7767L103.793 61.9727L104.439 62.783L95.0684 73.1559L104.439 82.6374L103.793 83.4477L94.3413 73.9663L92.1601 76.3164L89.7365 73.8853L80.2847 84.3392L79.5576 83.5288Z" fill="white"/>
<path d="M81.3331 70.7183C78.0761 70.7183 75.4358 68.0697 75.4358 64.8025C75.4358 61.5353 78.0761 58.8867 81.3331 58.8867C84.5901 58.8867 87.2305 61.5353 87.2305 64.8025C87.2305 68.0697 84.5901 70.7183 81.3331 70.7183Z" fill="#56B2A1"/>
<path d="M85.2122 65.9369H84.4044V63.8299H85.2122V63.4247C85.0506 63.4247 84.8891 63.3437 84.6467 63.2626C84.4043 63.1816 84.2428 63.1006 84.0812 63.0195H83.7581V65.9369H83.031V66.5042H85.293V65.9369H85.2122Z" fill="white"/>
<path d="M82.0634 66.4231C82.225 66.3421 82.3865 66.099 82.4673 65.8559C82.5481 65.6127 82.6289 65.2076 82.6289 64.8024C82.6289 64.3161 82.5481 63.992 82.4673 63.7489C82.3865 63.5058 82.225 63.2626 82.0634 63.1816C81.9018 63.1006 81.6595 63.0195 81.4171 63.0195C81.1748 63.0195 80.9324 63.1006 80.7709 63.1816C80.6093 63.2626 80.4477 63.5058 80.3669 63.7489C80.2861 63.992 80.2054 64.3972 80.2054 64.8024C80.2054 65.2886 80.2861 65.6127 80.3669 65.8559C80.4477 66.099 80.6093 66.3421 80.7709 66.4231C80.9324 66.5042 81.1748 66.5852 81.4171 66.5852C81.6595 66.5852 81.9018 66.5042 82.0634 66.4231ZM81.094 65.9369C81.0132 65.8559 81.0132 65.7748 80.9324 65.6128C80.9324 65.4507 80.9324 65.2886 80.9324 64.9644V64.5593C80.9324 64.3161 80.9324 64.073 80.9324 63.9109C80.9324 63.7489 81.0132 63.6678 81.094 63.5868C81.1748 63.5058 81.2556 63.5058 81.4171 63.5058C81.5787 63.5058 81.6595 63.5058 81.7403 63.5868C81.821 63.6678 81.8211 63.7489 81.9018 63.9109C81.9018 64.073 81.9018 64.2351 81.9018 64.5593V64.8834C81.9018 65.1265 81.9018 65.3696 81.9018 65.5317C81.9018 65.6938 81.821 65.7748 81.7403 65.8559C81.6595 65.9369 81.5787 65.9369 81.4171 65.9369C81.2556 66.0179 81.1748 66.0179 81.094 65.9369Z" fill="white"/>
<path d="M79.8027 66.3421C79.8027 66.18 79.7219 65.9369 79.6412 65.8558C79.5604 65.6938 79.4796 65.5317 79.318 65.4506C79.1564 65.3696 78.9949 65.2075 78.8333 65.0454C78.6717 64.8834 78.5102 64.8023 78.4294 64.7213C78.3486 64.6403 78.2678 64.5592 78.187 64.3971C78.1062 64.2351 78.0255 64.154 78.0255 63.9109C78.0255 63.8299 78.0255 63.6678 78.1062 63.5868C78.187 63.5057 78.2678 63.4247 78.4294 63.4247C78.7525 63.4247 78.9141 63.5868 78.9141 63.9109V64.154H79.6412C79.6412 64.154 79.6412 64.154 79.6412 64.073C79.6412 64.073 79.6412 63.992 79.6412 63.9109C79.6412 63.5868 79.5604 63.2626 79.318 63.1005C79.0757 62.9385 78.7525 62.8574 78.4294 62.8574C78.1062 62.8574 77.8639 62.9385 77.7023 63.0195C77.5407 63.1816 77.46 63.2626 77.3792 63.4247C77.2984 63.5868 77.2984 63.7488 77.2984 63.8299C77.2984 64.073 77.3792 64.2351 77.46 64.4782C77.5408 64.6403 77.7023 64.8023 77.8639 64.9644C78.0255 65.1265 78.187 65.2075 78.4294 65.3696C78.5909 65.4506 78.7525 65.6127 78.8333 65.6127C78.9141 65.6938 78.9141 65.6938 78.9949 65.7748H77.3792V66.4231H79.8027V66.3421Z" fill="white"/>
<path d="M124.706 119.829H146.437C147.326 119.829 148.053 119.1 148.053 118.209V99.2458C148.053 98.3543 147.326 97.625 146.437 97.625H124.706C123.817 97.625 123.09 98.3543 123.09 99.2458V118.209C123.09 119.1 123.817 119.829 124.706 119.829Z" fill="#FFD194"/>
<path d="M127.939 103.783H140.38C140.703 103.783 140.945 103.54 140.945 103.216C140.945 102.892 140.703 102.648 140.38 102.648H127.939C127.616 102.648 127.373 102.892 127.373 103.216C127.293 103.54 127.616 103.783 127.939 103.783Z" fill="white"/>
<path d="M142.808 103.217C142.808 103.703 143.212 104.028 143.616 104.028C144.101 104.028 144.424 103.622 144.424 103.217C144.424 102.731 144.02 102.407 143.616 102.407C143.212 102.326 142.808 102.731 142.808 103.217Z" fill="white"/>
<path d="M127.939 109.537H140.38C140.703 109.537 140.945 109.294 140.945 108.97C140.945 108.645 140.703 108.402 140.38 108.402H127.939C127.616 108.402 127.373 108.645 127.373 108.97C127.293 109.294 127.616 109.537 127.939 109.537Z" fill="white"/>
<path d="M142.808 108.971C142.808 109.457 143.212 109.782 143.616 109.782C144.101 109.782 144.424 109.376 144.424 108.971C144.424 108.485 144.02 108.161 143.616 108.161C143.212 108.08 142.808 108.485 142.808 108.971Z" fill="white"/>
<path d="M127.939 115.289H140.38C140.703 115.289 140.945 115.046 140.945 114.722C140.945 114.397 140.703 114.154 140.38 114.154H127.939C127.616 114.154 127.373 114.397 127.373 114.722C127.293 115.046 127.616 115.289 127.939 115.289Z" fill="white"/>
<path d="M142.808 114.729C142.808 115.215 143.212 115.539 143.616 115.539C144.101 115.539 144.424 115.134 144.424 114.729C144.424 114.243 144.02 113.919 143.616 113.919C143.212 113.838 142.808 114.243 142.808 114.729Z" fill="white"/>
<path d="M89.4072 112.371H116.228C117.278 112.371 118.086 111.56 118.086 110.507V88.8697C118.086 87.8162 117.278 87.0059 116.228 87.0059H89.4072C88.357 87.0059 87.5492 87.8162 87.5492 88.8697V110.507C87.5492 111.56 88.357 112.371 89.4072 112.371Z" fill="#97DDCF"/>
<path d="M87.5492 94.2183V88.8697C87.5492 87.8162 88.357 87.0059 89.4072 87.0059H116.228C117.278 87.0059 118.086 87.8162 118.086 88.8697V94.2993C118.086 94.2182 88.0339 94.2183 87.5492 94.2183Z" fill="#56B2A1"/>
<path d="M108.311 104.834H106.452V100.052H108.311V99.0799C107.987 99.0799 107.503 98.9178 107.018 98.7557C106.533 98.5937 106.049 98.3505 105.645 98.1074H104.837V104.753H103.14V106.049H108.311V104.834Z" fill="white"/>
<path d="M101.687 105.563C102.172 105.077 102.414 104.428 102.414 103.618H100.798C100.798 104.023 100.718 104.347 100.475 104.59C100.233 104.834 99.9905 104.915 99.5866 104.915C99.2634 104.915 98.9403 104.753 98.7787 104.509C98.5364 104.266 98.4556 103.942 98.4556 103.456C98.4556 103.051 98.5364 102.727 98.7787 102.483C99.0211 102.24 99.2634 102.159 99.5866 102.159C99.8289 102.159 99.9905 102.24 100.152 102.321C100.314 102.402 100.475 102.565 100.556 102.727L102.091 102.565L101.768 98.1074H97.163V99.5661H100.394L100.475 101.349C100.314 101.268 100.071 101.106 99.9097 101.025C99.6674 100.944 99.425 100.944 99.1019 100.944C98.4556 100.944 97.8901 101.187 97.4054 101.592C97.0014 101.997 96.7591 102.646 96.7591 103.537C96.7591 104.428 97.0015 105.077 97.4862 105.563C97.9709 106.049 98.6979 106.292 99.5058 106.292C100.475 106.211 101.122 105.968 101.687 105.563Z" fill="white"/>
<path d="M110.414 89.5159C110.656 89.5159 110.898 89.2728 110.898 89.0297V86.5175C110.898 86.2744 110.656 86.0312 110.414 86.0312C110.171 86.0312 109.929 86.2744 109.929 86.5175V89.0297C109.929 89.2728 110.171 89.5159 110.414 89.5159Z" fill="#2D3962"/>
<path d="M102.818 89.5159C103.06 89.5159 103.303 89.2728 103.303 89.0297V86.5175C103.303 86.2744 103.06 86.0312 102.818 86.0312C102.576 86.0312 102.333 86.2744 102.333 86.5175V89.0297C102.333 89.2728 102.576 89.5159 102.818 89.5159Z" fill="#2D3962"/>
<path d="M95.2243 89.5159C95.4666 89.5159 95.709 89.2728 95.709 89.0297V86.5175C95.709 86.2744 95.4666 86.0312 95.2243 86.0312C94.9819 86.0312 94.7396 86.2744 94.7396 86.5175V89.0297C94.7396 89.2728 94.9819 89.5159 95.2243 89.5159Z" fill="#2D3962"/>
<path d="M122.395 81.991C118.815 74.4805 121.983 65.4814 129.47 61.891C136.957 58.3006 145.928 61.4785 149.508 68.9889C153.087 76.4994 149.919 85.4985 142.432 89.0889C134.945 92.6793 125.974 89.5015 122.395 81.991Z" fill="white"/>
<path d="M135.939 91.6282C144.745 91.6282 152.016 84.4158 152.016 75.5016C152.016 66.5874 144.826 59.375 135.939 59.375C127.053 59.375 119.863 66.5874 119.863 75.5016C119.944 84.4158 127.134 91.6282 135.939 91.6282ZM135.939 61.482C143.614 61.482 149.915 67.7219 149.915 75.5016C149.915 83.2002 143.695 89.5212 135.939 89.5212C128.265 89.5212 121.964 83.2812 121.964 75.5016C121.964 67.803 128.265 61.482 135.939 61.482Z" fill="#56B2A1"/>
<path d="M129.478 77.0377H136.426C136.749 77.0377 137.072 76.7135 137.072 76.3894V66.0975C137.072 65.7734 136.749 65.4492 136.426 65.4492C136.103 65.4492 135.78 65.7734 135.78 66.0975V75.7411H129.478C129.155 75.7411 128.832 76.0652 128.832 76.3894C128.832 76.7135 129.155 77.0377 129.478 77.0377Z" fill="#2D3962"/>
<path d="M316.172 205.568C316.172 205.568 327.32 138.711 315.687 122.261C311.325 116.021 291.452 120.478 291.452 120.478C281.919 130.121 277.072 140.17 273.518 153.298C270.044 166.426 263.662 194.871 262.45 208.404C273.437 208.485 316.172 205.568 316.172 205.568Z" fill="#F4B04E"/>
<path d="M276.51 197.867C276.51 197.867 265.604 202.081 265.361 206.295C265.119 209.942 277.641 206.862 277.641 206.862L276.51 197.867Z" fill="#FFCEAB"/>
<path d="M265.523 206.864C265.603 206.864 265.765 206.864 265.846 206.783C266.977 205.729 269.723 204.757 269.723 204.757C269.966 204.676 270.047 204.433 269.966 204.19C269.885 203.946 269.643 203.865 269.4 203.946C269.32 204.027 266.492 205 265.199 206.134C265.038 206.297 265.038 206.54 265.199 206.702C265.28 206.864 265.361 206.864 265.523 206.864Z" fill="#2D3962"/>
<path d="M267.463 208.16C267.543 208.16 267.624 208.16 267.705 208.079C268.674 207.268 270.856 206.458 270.936 206.458C271.179 206.377 271.259 206.134 271.179 205.891C271.098 205.648 270.856 205.567 270.613 205.648C270.532 205.648 268.27 206.458 267.139 207.349C266.978 207.511 266.897 207.755 267.059 207.917C267.22 208.16 267.301 208.16 267.463 208.16Z" fill="#2D3962"/>
<path d="M303.329 149.654C308.742 169.185 306.884 169.185 312.619 188.066C301.229 191.713 284.345 192.118 274.004 198.277C274.246 200.384 274.974 206.3 275.539 206.867C276.428 207.759 321.102 211.892 332.089 200.303C340.975 190.984 334.512 135.635 314.962 121.372C308.742 116.834 303.329 149.654 303.329 149.654Z" fill="#F4B04E"/>
<path d="M289.353 208.888C289.595 208.888 289.757 208.726 289.757 208.483C289.757 208.24 289.595 208.078 289.353 208.078C287.091 208.078 277.962 207.267 276.185 207.105L274.489 198.596C281.194 195.76 289.353 193.977 297.27 192.275C302.844 191.06 308.095 189.925 312.7 188.467C312.942 188.386 313.023 188.142 312.942 187.98C309.873 178.013 308.984 173.231 308.014 168.207C307.126 163.588 306.237 158.807 303.652 149.568C303.571 149.325 303.329 149.244 303.167 149.244C302.925 149.325 302.844 149.568 302.844 149.73C305.349 158.888 306.318 163.669 307.207 168.288C308.176 173.312 309.065 178.013 312.054 187.737C307.53 189.115 302.44 190.249 297.108 191.384C289.03 193.086 280.709 194.95 273.842 197.867C273.681 197.948 273.519 198.11 273.6 198.353L275.458 207.511C275.458 207.673 275.62 207.835 275.862 207.835C276.266 207.916 286.849 208.888 289.353 208.888Z" fill="#2D3962"/>
<path d="M240.803 109.376C242.904 109.214 243.55 111.402 243.631 106.621C243.631 104.109 244.842 101.191 245.085 99.0034C245.166 97.9499 244.681 97.3826 244.358 97.2205C243.792 96.8964 243.227 97.2205 243.227 97.2205C243.065 96.3291 241.773 96.4912 241.53 96.4912C241.046 96.5722 240.722 97.0585 240.722 97.0585C240.722 97.0585 240.48 96.4102 239.349 96.4102C238.622 96.4102 238.299 96.6533 238.056 97.0585C238.056 97.0585 236.764 96.7343 236.36 97.7068C236.118 98.193 235.067 101.272 234.906 106.783C234.825 110.187 236.198 109.619 238.218 109.538L240.803 109.376Z" fill="#FFCEAB"/>
<path d="M237.493 103.298C237.736 103.298 237.978 103.055 237.978 102.812C238.059 100.462 238.463 97.5448 238.463 97.4638C238.463 97.2206 238.301 96.9775 238.059 96.8965C237.817 96.8965 237.574 97.0586 237.493 97.3017C237.493 97.3017 237.09 100.3 237.009 102.731C237.009 103.055 237.17 103.298 237.493 103.298Z" fill="#2D3962"/>
<path d="M239.833 103.217C240.075 103.217 240.318 102.973 240.318 102.73C240.398 100.38 240.964 97.3008 240.964 97.3008C241.045 97.0577 240.883 96.8146 240.56 96.7335C240.318 96.6525 240.075 96.8146 239.994 97.1387C239.994 97.1387 239.348 100.299 239.267 102.73C239.348 102.973 239.59 103.136 239.833 103.217C239.833 103.136 239.833 103.217 239.833 103.217Z" fill="#2D3962"/>
<path d="M242.259 103.215C242.502 103.215 242.744 102.972 242.744 102.729C242.825 100.379 243.39 97.2992 243.471 97.1372C243.552 96.8941 243.39 96.6509 243.148 96.5699C242.906 96.4889 242.663 96.6509 242.583 96.8941C242.583 96.8941 242.583 96.8941 242.583 96.9751C242.583 97.1372 241.936 100.217 241.855 102.729C241.775 102.972 241.936 103.215 242.259 103.215Z" fill="#2D3962"/>
<path d="M247.104 102.166C248.073 102.895 246.781 104.759 245.569 106.217C245.003 106.947 244.276 107.919 243.711 108.162C242.822 108.568 243.145 105.002 243.145 105.002C243.145 105.002 245.165 100.707 247.104 102.166Z" fill="#FFCEAB"/>
<path d="M243.952 104.595C244.113 104.595 244.275 104.514 244.356 104.352C244.356 104.352 245.002 103.055 245.891 102.407C246.133 102.245 246.133 101.921 245.971 101.758C245.81 101.515 245.487 101.515 245.325 101.677C244.275 102.488 243.548 103.865 243.548 103.946C243.467 104.19 243.548 104.433 243.79 104.595C243.79 104.595 243.871 104.595 243.952 104.595Z" fill="#2D3962"/>
<path d="M245.889 108.965C245.647 114.881 249.767 141.867 252.675 141.867C259.38 141.867 277.718 128.496 289.594 122.58L284.747 153.293C279.011 155.724 254.452 167.961 244.839 163.747C226.824 155.886 233.286 107.102 233.286 107.102L245.889 108.965Z" fill="#F4B04E"/>
<path d="M270.449 169.098C270.691 169.098 270.853 168.936 270.853 168.693C274.084 139.438 289.756 122.988 289.918 122.826C290.079 122.663 290.079 122.42 289.918 122.258C289.756 122.096 289.514 122.096 289.352 122.258C289.191 122.42 273.357 139.033 270.045 168.612C269.964 168.855 270.126 169.098 270.449 169.098C270.368 169.098 270.368 169.098 270.449 169.098Z" fill="#2D3962"/>
<path d="M312.619 106.706C312.619 106.706 317.627 106.543 317.789 99.5742C317.789 99.5742 314.315 100.709 312.861 100.709C312.861 100.709 312.7 106.949 312.619 106.706Z" fill="#2D3962"/>
<path d="M277.879 75.9082C277.152 78.8256 275.86 84.012 275.456 86.9294C274.648 92.521 274.083 96.2488 274.729 101.84C275.052 105.001 276.102 108.161 278.122 110.755C281.999 115.779 292.663 115.05 292.663 115.05L292.259 121.371C292.259 121.371 302.034 125.422 311.648 121.046L313.021 101.84C313.021 101.84 317.06 101.84 319.565 99.9765C321.988 98.1937 321.423 90.9813 315.768 90.9813C310.517 90.9813 309.87 91.6296 309.87 91.6296L304.539 77.4479L277.879 75.9082Z" fill="#FFCEAB"/>
<path d="M316.983 96.4107C317.064 96.4107 317.226 96.3296 317.307 96.2486C317.468 96.0865 317.468 95.8434 317.307 95.6813C315.933 94.3847 313.187 94.0605 313.106 94.0605C312.863 94.0605 312.702 94.2226 312.621 94.3847C312.621 94.6278 312.783 94.7899 312.944 94.8709C312.944 94.8709 315.529 95.1951 316.66 96.3296C316.741 96.3296 316.903 96.4107 316.983 96.4107Z" fill="#2D3962"/>
<path d="M314.317 98.1932C314.479 98.1932 314.64 98.1121 314.721 97.9501C315.044 97.1397 315.367 96.1672 315.61 95.0327C315.691 94.7896 315.529 94.5465 315.287 94.5465C315.044 94.4654 314.802 94.6275 314.802 94.8706C314.56 96.2483 314.236 97.1397 313.994 97.6259C313.913 97.869 313.994 98.1121 314.236 98.1932C314.236 98.1932 314.236 98.1932 314.317 98.1932Z" fill="#2D3962"/>
<path d="M290.567 91.7105C290.486 92.4399 289.839 93.0072 289.032 92.9261C288.224 92.8451 287.658 92.1968 287.739 91.4674C287.82 90.7381 288.466 90.1708 289.274 90.2519C290.082 90.3329 290.647 90.9812 290.567 91.7105Z" fill="#2D3962"/>
<path d="M281.276 91.8726C280.711 92.3588 279.822 92.2778 279.337 91.7105C278.853 91.1432 278.933 90.3328 279.499 89.8466C280.064 89.3604 280.953 89.4414 281.438 90.0087C281.922 90.576 281.922 91.4674 281.276 91.8726Z" fill="#2D3962"/>
<path d="M285.555 100.625C285.959 100.625 286.443 100.544 286.847 100.463C287.736 100.22 288.544 99.8147 289.109 99.2474C289.271 99.0853 289.271 98.8422 289.109 98.6802C288.948 98.5181 288.705 98.5181 288.544 98.6802C288.059 99.1664 287.413 99.4905 286.686 99.7336C285.878 99.9768 285.07 99.8957 284.343 99.6526C284.101 99.5716 283.858 99.7336 283.777 99.8957C283.697 100.139 283.858 100.382 284.02 100.463C284.505 100.544 284.989 100.625 285.555 100.625Z" fill="#2D3962"/>
<path d="M292.585 117.397L302.037 115.047C302.037 115.047 301.876 113.831 301.633 113.912C298.886 114.966 292.747 115.047 292.747 115.047L292.585 117.397Z" fill="#2D3962"/>
<path d="M287.817 86.1214C288.786 85.3921 291.291 86.1214 291.937 86.5266C291.937 86.5266 292.422 87.256 291.775 87.9043C291.048 88.6336 288.705 87.9853 287.898 87.9043C287.817 87.9043 287.736 87.9043 287.655 87.8232C287.574 87.7422 287.574 87.6611 287.494 87.5801C287.413 87.2559 287.332 86.9318 287.413 86.6887C287.494 86.3645 287.655 86.2025 287.817 86.1214Z" fill="#2D3962"/>
<path d="M278.446 85.4728C279.416 84.7435 281.92 85.3918 282.566 85.797C282.566 85.797 283.051 86.5263 282.486 87.1746C281.759 87.9039 279.416 87.3367 278.608 87.2556C278.527 87.2556 278.446 87.2556 278.366 87.1746C278.285 87.0936 278.285 87.0125 278.204 86.9315C278.123 86.6073 278.042 86.2832 278.042 86.0401C278.204 85.797 278.285 85.5538 278.446 85.4728Z" fill="#2D3962"/>
<path d="M318.194 72.1005C322.153 78.4215 321.345 87.4977 319.568 92.441C319.568 92.441 313.832 89.7668 309.389 92.5221C307.935 93.4135 308.5 97.7896 304.299 97.3844C300.422 96.9792 301.956 87.8219 302.36 80.4474C302.36 80.4474 282.003 81.2578 278.044 75.9093C276.671 74.0454 276.509 70.4797 280.71 67.1572C286.93 62.3759 315.044 67.0761 318.194 72.1005Z" fill="#2D3962"/>
<path d="M302.039 124.043C303.977 124.043 305.674 123.8 307.047 123.475C310.602 122.584 312.621 121.044 312.702 120.963C312.864 120.801 312.945 120.558 312.783 120.396C312.621 120.234 312.379 120.153 312.218 120.315C312.137 120.396 304.381 126.312 292.264 121.125C292.021 121.044 291.779 121.125 291.698 121.368C291.617 121.612 291.698 121.855 291.94 121.936C295.737 123.475 299.13 124.043 302.039 124.043Z" fill="#2D3962"/>
</svg>
