<svg width="65" height="65" viewBox="0 0 65 65" fill="none" xmlns="http://www.w3.org/2000/svg">
<rect width="65" height="65" rx="8" fill="#F7E3F8"/>
<path d="M25.8404 15.2067C24.005 15.7 22.8661 17.608 23.3303 19.4071C23.8164 21.2642 25.7171 22.4177 27.5379 21.9461C29.3951 21.4601 30.5485 19.5594 30.077 17.7531C29.5909 15.8741 27.6613 14.7134 25.8404 15.2067ZM27.7991 16.5488C28.2851 16.81 28.51 17.0421 28.793 17.5862C28.9525 17.8981 28.9816 18.0505 28.9816 18.5728C28.9888 19.1387 28.9671 19.2257 28.7422 19.6465C28.4665 20.1543 28.2344 20.3719 27.6903 20.6621C27.3783 20.8217 27.226 20.8507 26.7037 20.8507C26.1813 20.8507 26.029 20.8217 25.7171 20.6621C25.173 20.3719 24.9408 20.1543 24.6652 19.6465C24.4403 19.2257 24.4185 19.1387 24.4258 18.5728C24.4258 17.8474 24.5999 17.4121 25.0714 16.9406C25.7969 16.2151 26.8778 16.0628 27.7991 16.5488Z" fill="#D575DD"/>
<path d="M30.942 15.272C30.8259 15.3809 30.7606 15.5332 30.7606 15.671C30.7606 15.8089 30.8259 15.9612 30.942 16.07L31.1161 16.2514H39.9375H48.7517V32.5014V48.7514H40.6702H32.5815L32.5452 48.4395C32.5234 48.2726 32.3856 46.4372 32.2405 44.3624C32.0084 41.0109 31.9648 40.5321 31.8125 40.0823C31.7182 39.7994 31.0508 38.4791 30.3326 37.137L29.0268 34.6922L29.2734 30.9127C29.5926 26.1465 29.5854 26.219 29.3968 26.0232C29.1791 25.8128 28.7584 25.8128 28.577 26.0304C28.4029 26.248 28.4102 26.2045 28.1055 30.8764L27.8516 34.9534L29.2299 37.5287C29.9916 38.9506 30.659 40.2709 30.7243 40.4595C30.8549 40.873 31.4353 48.7586 31.3627 49.2374C31.3265 49.4986 31.3482 49.5639 31.5078 49.7235L31.6964 49.9121H40.6267H49.5569L49.731 49.7307L49.9124 49.5566V32.5014V15.4462L49.731 15.272L49.5569 15.0907H40.3365H31.1161L30.942 15.272Z" fill="#D575DD"/>
<path d="M41.9704 17.5936C41.8544 17.7024 41.7891 17.8475 41.7891 17.9999C41.7891 18.1957 41.9051 18.3481 42.529 18.9792L43.269 19.7337H38.6406H34.0195L33.8454 19.915C33.7294 20.0239 33.6641 20.1762 33.6641 20.314C33.6641 20.4519 33.7294 20.6042 33.8454 20.713L34.0195 20.8944H38.6406H43.269L42.529 21.6489C41.9051 22.28 41.7891 22.4323 41.7891 22.6282C41.7891 22.9402 42.0647 23.2158 42.3839 23.2158C42.5943 23.2158 42.7684 23.0707 43.9436 21.8883C45.1479 20.684 45.2712 20.5389 45.2712 20.314C45.2712 20.0891 45.1479 19.9441 43.9436 18.7398C42.7684 17.5573 42.5943 17.4122 42.3839 17.4122C42.2243 17.4122 42.0865 17.4775 41.9704 17.5936Z" fill="#D575DD"/>
<path d="M22.7828 22.6861C22.2532 22.8747 17.1823 25.1671 17.001 25.2977C16.4786 25.6822 16.4279 25.8055 15.7314 28.5622C15.0132 31.4277 14.9987 31.5801 15.3469 32.1749C15.8185 32.9874 16.7906 33.2486 17.6394 32.8061C18.2923 32.4651 18.3793 32.2765 18.9669 29.9914L19.4892 27.9746L20.7153 27.5974C21.3899 27.387 21.9558 27.2274 21.9703 27.2419C21.9848 27.2564 21.8977 28.7146 21.7744 30.4847C21.5785 33.3937 21.564 33.7492 21.6511 34.2425C21.8397 35.2726 22.1299 35.7514 23.3921 37.0935C23.8347 37.565 24.1901 37.9858 24.1756 38.0366C24.1611 38.0873 23.2543 40.6409 22.1589 43.7241C20.0333 49.7162 20.0841 49.5276 20.4759 49.796C20.5629 49.8613 20.708 49.9121 20.8023 49.9121C21.194 49.9121 21.2448 49.796 23.1818 44.3262C24.2119 41.4316 25.0679 39.0377 25.1042 39.0087C25.1913 38.9071 27.2515 41.1705 27.4546 41.5985C27.578 41.8669 27.8029 42.8318 28.1873 44.7687C28.492 46.2994 28.833 48.0259 28.9418 48.6063C29.174 49.7453 29.2683 49.9121 29.689 49.9121C29.9429 49.9121 30.2549 49.6292 30.2549 49.3898C30.2549 49.2955 29.9212 47.5254 29.5077 45.4506C28.7169 41.4607 28.6081 41.0834 28.0858 40.4233C27.9697 40.2709 26.8453 39.0594 25.583 37.7246C23.131 35.1275 22.9206 34.8518 22.79 34.0248C22.7392 33.7347 22.79 32.6247 22.9714 30.0349C23.1092 28.0617 23.218 26.3859 23.218 26.3133C23.218 26.1175 22.8916 25.8273 22.6667 25.8273C22.4926 25.8273 19.6924 26.6688 18.9016 26.9517C18.742 27.0098 18.5752 27.1186 18.5317 27.1839C18.4881 27.2564 18.2125 28.2575 17.9223 29.4037C17.6031 30.666 17.3347 31.5728 17.2476 31.6744C17.0517 31.9283 16.6092 31.921 16.4061 31.6599C16.319 31.5511 16.2538 31.4132 16.2538 31.3479C16.2538 31.0868 17.487 26.3786 17.5741 26.2916C17.6248 26.2408 18.8944 25.6604 20.4033 24.993L23.131 23.7815L25.9602 24.0427C28.1511 24.2458 28.8765 24.3329 29.1812 24.4489C29.9212 24.7246 30.1896 25.0075 31.6477 27.0605C32.4022 28.1197 33.0914 29.0193 33.1784 29.07C33.3017 29.1353 33.7878 29.0991 35.4708 28.8959L37.5964 28.642L37.785 28.7799C37.9446 28.8959 37.9809 28.983 37.9809 29.2369C37.9809 29.4835 37.9446 29.5706 37.7995 29.6794C37.6762 29.7665 36.9072 29.9406 35.4055 30.2162C34.1868 30.4339 33.1131 30.6152 33.0188 30.6152C32.8882 30.6152 32.6053 30.3831 31.9959 29.781C31.1036 28.9032 30.9658 28.8306 30.6321 29.0628C30.4072 29.2224 30.3129 29.4835 30.4 29.7157C30.4435 29.8172 30.8062 30.2453 31.2125 30.666C32.0322 31.5075 32.4602 31.7759 33.0043 31.7759C33.1784 31.7759 34.3827 31.5801 35.6885 31.3407C37.6834 30.9707 38.1042 30.8691 38.3799 30.7023C39.1198 30.2525 39.3882 29.2659 38.9965 28.4679C38.7716 28.0181 38.3871 27.6917 37.9156 27.5611C37.6689 27.4886 37.2844 27.5176 35.6667 27.7062C34.593 27.8368 33.6935 27.9166 33.6645 27.8803C33.6355 27.8513 33.0841 27.0896 32.4457 26.19C31.2778 24.5433 30.7772 23.9774 30.1823 23.6364C29.4859 23.2302 29.1159 23.1576 26.1561 22.8892C23.3414 22.6353 22.9859 22.6136 22.7828 22.6861Z" fill="#D575DD"/>
<path d="M44.1073 30.2741C43.7518 30.3902 43.1425 31.0141 43.0336 31.3841C42.8305 32.066 42.9756 32.6101 43.4907 33.1179C44.2234 33.8578 45.152 33.8578 45.8847 33.1179C46.5956 32.4142 46.6174 31.5074 45.9427 30.7602C45.4711 30.2379 44.7965 30.0565 44.1073 30.2741ZM45.0867 31.5219C45.2027 31.6307 45.268 31.7831 45.268 31.9209C45.268 32.0587 45.2027 32.2111 45.0867 32.3199C44.9778 32.436 44.8255 32.5013 44.6877 32.5013C44.5498 32.5013 44.3975 32.436 44.2887 32.3199C44.1726 32.2111 44.1073 32.0587 44.1073 31.9209C44.1073 31.7831 44.1726 31.6307 44.2887 31.5219C44.3975 31.4058 44.5498 31.3405 44.6877 31.3405C44.8255 31.3405 44.9778 31.4058 45.0867 31.5219Z" fill="#D575DD"/>
<path d="M21.8214 35.2875C21.6618 35.4326 20.7623 38.0224 19.3694 43.1948C18.4916 46.4594 17.7734 49.2378 17.7734 49.3684C17.7734 49.5425 17.8242 49.6513 17.9621 49.7601C18.2087 49.956 18.4481 49.956 18.673 49.7456C18.8326 49.6078 19.0575 48.8461 20.4576 43.6519C21.3354 40.3874 22.75 36.3539 22.75 36.2161C22.75 36.042 22.4235 35.8606 22.2857 35.7518C22.0391 35.5559 22.2857 34.8232 21.8214 35.2875Z" fill="#D575DD"/>
</svg>
