<svg width="20" height="20" viewBox="0 0 20 20" fill="none" xmlns="http://www.w3.org/2000/svg">
<path d="M1.08518 3.27169C1.77102 0.242771 6.23758 0.242771 6.91485 3.27169C7.31778 5.04877 6.21186 6.55447 5.25168 7.49116C4.54869 8.17398 3.44276 8.16523 2.73977 7.49116C1.78817 6.55447 0.682242 5.04877 1.08518 3.27169Z" stroke="#93AABE" stroke-width="1.5"/>
<path d="M13.0846 14.2717C13.7666 11.2428 18.2334 11.2428 18.9154 14.2717C19.316 16.0488 18.2164 17.5545 17.2531 18.4912C16.5541 19.174 15.4459 19.1652 14.7469 18.4912C13.7836 17.5545 12.684 16.0488 13.0846 14.2717Z" stroke="#93AABE" stroke-width="1.5"/>
<path d="M9.9959 4H12.2854C13.8658 4 14.6005 6.12643 13.4131 7.25929L6.58727 13.75C5.3998 14.8736 6.1345 17 7.70639 17H9.9959" stroke="#93AABE" stroke-width="1.5" stroke-linecap="round" stroke-linejoin="round"/>
<path d="M4.4955 4.5H4.5045" stroke="#93AABE" stroke-width="2" stroke-linecap="round" stroke-linejoin="round"/>
<path d="M15.4955 14.5H15.5045" stroke="#93AABE" stroke-width="2" stroke-linecap="round" stroke-linejoin="round"/>
</svg>
