<svg width="50" height="50" viewBox="0 0 50 50" fill="none" xmlns="http://www.w3.org/2000/svg">
<rect width="50" height="50" rx="8" fill="#FF8F0B"/>
<g clip-path="url(#clip0_1289_17153)">
<path d="M19.9704 11.963C18.5868 12.3348 17.7282 13.7731 18.0782 15.1294C18.4446 16.5294 19.8775 17.3989 21.2501 17.0434C22.6501 16.677 23.5196 15.2442 23.1642 13.8825C22.7978 12.4661 21.3431 11.5911 19.9704 11.963ZM21.447 12.9747C21.8134 13.1715 21.9829 13.3465 22.1962 13.7567C22.3165 13.9919 22.3384 14.1067 22.3384 14.5005C22.3439 14.927 22.3275 14.9926 22.1579 15.3098C21.9501 15.6926 21.7751 15.8567 21.365 16.0755C21.1298 16.1958 21.015 16.2176 20.6212 16.2176C20.2275 16.2176 20.1126 16.1958 19.8775 16.0755C19.4673 15.8567 19.2923 15.6926 19.0845 15.3098C18.915 14.9926 18.8985 14.927 18.904 14.5005C18.904 13.9536 19.0353 13.6255 19.3907 13.27C19.9376 12.7231 20.7525 12.6083 21.447 12.9747Z" fill="white"/>
<path d="M23.8219 12.0117C23.7344 12.0938 23.6852 12.2086 23.6852 12.3125C23.6852 12.4164 23.7344 12.5312 23.8219 12.6133L23.9531 12.75H30.6031H37.2477V25V37.25H31.1555H25.0578L25.0305 37.0148C25.0141 36.8891 24.9102 35.5055 24.8008 33.9414C24.6258 31.4148 24.593 31.0539 24.4781 30.7148C24.407 30.5016 23.9039 29.5063 23.3625 28.4945L22.3781 26.6516L22.5641 23.8023C22.8047 20.2094 22.7992 20.2641 22.657 20.1164C22.493 19.9578 22.1758 19.9578 22.0391 20.1219C21.9078 20.2859 21.9133 20.2531 21.6836 23.775L21.4922 26.8484L22.5312 28.7898C23.1055 29.8617 23.6086 30.857 23.6578 30.9992C23.7562 31.3109 24.1937 37.2555 24.1391 37.6164C24.1117 37.8133 24.1281 37.8625 24.2484 37.9828L24.3906 38.125H31.1227H37.8547L37.9859 37.9883L38.1227 37.857V25V12.143L37.9859 12.0117L37.8547 11.875H30.9039H23.9531L23.8219 12.0117Z" fill="white"/>
<path d="M32.1367 13.7617C32.0492 13.8438 32 13.9531 32 14.068C32 14.2156 32.0875 14.3305 32.5578 14.8063L33.1156 15.375H29.6266H26.143L26.0117 15.5117C25.9242 15.5938 25.875 15.7086 25.875 15.8125C25.875 15.9164 25.9242 16.0312 26.0117 16.1133L26.143 16.25H29.6266H33.1156L32.5578 16.8188C32.0875 17.2945 32 17.4094 32 17.557C32 17.7922 32.2078 18 32.4484 18C32.607 18 32.7383 17.8906 33.6242 16.9992C34.532 16.0914 34.625 15.982 34.625 15.8125C34.625 15.643 34.532 15.5336 33.6242 14.6258C32.7383 13.7344 32.607 13.625 32.4484 13.625C32.3281 13.625 32.2242 13.6742 32.1367 13.7617Z" fill="white"/>
<path d="M17.6712 17.6008C17.272 17.743 13.4493 19.4711 13.3126 19.5695C12.9189 19.8594 12.8806 19.9523 12.3556 22.0305C11.8142 24.1906 11.8033 24.3055 12.0658 24.7539C12.4212 25.3664 13.154 25.5633 13.7939 25.2297C14.2861 24.9727 14.3517 24.8305 14.7947 23.1078L15.1884 21.5875L16.1126 21.3031C16.6212 21.1445 17.0478 21.0242 17.0587 21.0352C17.0697 21.0461 17.004 22.1453 16.9111 23.4797C16.7634 25.6727 16.7525 25.9406 16.8181 26.3125C16.9603 27.0891 17.179 27.45 18.1306 28.4617C18.4642 28.8172 18.7322 29.1344 18.7212 29.1727C18.7103 29.2109 18.0267 31.1359 17.2009 33.4602C15.5986 37.9773 15.6368 37.8352 15.9322 38.0375C15.9978 38.0867 16.1072 38.125 16.1783 38.125C16.4736 38.125 16.5118 38.0375 17.972 33.9141C18.7486 31.732 19.3939 29.9273 19.4212 29.9055C19.4868 29.8289 21.04 31.5352 21.1931 31.8578C21.2861 32.0602 21.4556 32.7875 21.7454 34.2477C21.9751 35.4016 22.2322 36.7031 22.3142 37.1406C22.4892 37.9992 22.5603 38.125 22.8775 38.125C23.0689 38.125 23.304 37.9117 23.304 37.7313C23.304 37.6602 23.0525 36.3258 22.7408 34.7617C22.1447 31.7539 22.0626 31.4695 21.6689 30.9719C21.5814 30.857 20.7337 29.9438 19.7822 28.9375C17.9337 26.9797 17.7751 26.7719 17.6767 26.1484C17.6384 25.9297 17.6767 25.093 17.8134 23.1406C17.9173 21.6531 17.9993 20.3898 17.9993 20.3352C17.9993 20.1875 17.7533 19.9688 17.5837 19.9688C17.4525 19.9688 15.3415 20.6031 14.7454 20.8164C14.6251 20.8602 14.4993 20.9422 14.4665 20.9914C14.4337 21.0461 14.2259 21.8008 14.0072 22.6648C13.7665 23.6164 13.5642 24.3 13.4986 24.3766C13.3509 24.568 13.0173 24.5625 12.8642 24.3656C12.7986 24.2836 12.7493 24.1797 12.7493 24.1305C12.7493 23.9336 13.679 20.3844 13.7447 20.3188C13.7829 20.2805 14.74 19.843 15.8775 19.3398L17.9337 18.4266L20.0665 18.6234C21.7181 18.7766 22.265 18.8422 22.4947 18.9297C23.0525 19.1375 23.2548 19.3508 24.354 20.8984C24.9228 21.6969 25.4423 22.375 25.5079 22.4133C25.6009 22.4625 25.9673 22.4352 27.2361 22.282L28.8384 22.0906L28.9806 22.1945C29.1009 22.282 29.1283 22.3477 29.1283 22.5391C29.1283 22.725 29.1009 22.7906 28.9915 22.8727C28.8986 22.9383 28.3189 23.0695 27.1868 23.2773C26.2681 23.4414 25.4587 23.5781 25.3876 23.5781C25.2892 23.5781 25.0759 23.4031 24.6165 22.9492C23.9439 22.2875 23.84 22.2328 23.5884 22.4078C23.4189 22.5281 23.3478 22.725 23.4134 22.9C23.4462 22.9766 23.7197 23.2992 24.0259 23.6164C24.6439 24.2508 24.9665 24.4531 25.3767 24.4531C25.5079 24.4531 26.4158 24.3055 27.4001 24.125C28.904 23.8461 29.2212 23.7695 29.429 23.6438C29.9868 23.3047 30.1892 22.5609 29.8939 21.9594C29.7243 21.6203 29.4345 21.3742 29.079 21.2758C28.8931 21.2211 28.6033 21.243 27.3837 21.3852C26.5743 21.4836 25.8962 21.5438 25.8743 21.5164C25.8525 21.4945 25.4368 20.9203 24.9556 20.2422C24.0751 19.0008 23.6978 18.5742 23.2493 18.3172C22.7243 18.0109 22.4454 17.9563 20.2142 17.7539C18.0923 17.5625 17.8243 17.5461 17.6712 17.6008Z" fill="white"/>
<path d="M33.751 23.3207C33.483 23.4082 33.0236 23.8785 32.9416 24.1574C32.7885 24.6715 32.8978 25.0816 33.2861 25.4645C33.8385 26.0223 34.5385 26.0223 35.0908 25.4645C35.6267 24.934 35.6432 24.2504 35.1346 23.6871C34.7791 23.2934 34.2705 23.1566 33.751 23.3207ZM34.4892 24.2613C34.5767 24.3434 34.626 24.4582 34.626 24.5621C34.626 24.666 34.5767 24.7809 34.4892 24.8629C34.4072 24.9504 34.2924 24.9996 34.1885 24.9996C34.0846 24.9996 33.9697 24.9504 33.8877 24.8629C33.8002 24.7809 33.751 24.666 33.751 24.5621C33.751 24.4582 33.8002 24.3434 33.8877 24.2613C33.9697 24.1738 34.0846 24.1246 34.1885 24.1246C34.2924 24.1246 34.4072 24.1738 34.4892 24.2613Z" fill="white"/>
<path d="M16.95 27.0996C16.8297 27.209 16.1516 29.1613 15.1016 33.0605C14.4398 35.5214 13.8984 37.616 13.8984 37.7144C13.8984 37.8457 13.9367 37.9277 14.0406 38.0097C14.2266 38.1574 14.407 38.1574 14.5766 37.9988C14.6969 37.8949 14.8664 37.3207 15.9219 33.405C16.5836 30.9441 17.65 27.9035 17.65 27.7996C17.65 27.6684 17.4039 27.5316 17.3 27.4496C17.1141 27.302 17.3 26.7496 16.95 27.0996Z" fill="white"/>
</g>
<defs>
<clipPath id="clip0_1289_17153">
<rect width="28" height="28" fill="white" transform="translate(11 11)"/>
</clipPath>
</defs>
</svg>
