<svg width="44" height="44" viewBox="0 0 44 44" fill="none" xmlns="http://www.w3.org/2000/svg">
<circle cx="22" cy="22" r="22" fill="#F7E3F8"/>
<g clip-path="url(#clip0_5469_68820)">
<path d="M21.8827 12.032C21.828 12.0477 21.6718 12.1219 21.535 12.1922L21.2811 12.325L20.9843 12.2195C20.6288 12.0945 20.5741 12.0906 20.4061 12.1922C20.1444 12.3524 20.0507 12.8328 20.1835 13.3445C20.2538 13.6141 20.5546 14.2586 20.8163 14.7039C20.9608 14.9539 20.9843 15.0203 20.9413 15.0477C20.8554 15.1024 20.828 15.0906 20.6522 14.9305C20.2733 14.5828 19.8632 14.4578 19.1093 14.4617C18.4804 14.4656 18.2772 14.4227 17.8788 14.2195C17.5272 14.0399 17.4608 14.0359 17.3319 14.1649C17.1249 14.3719 17.246 14.5711 17.7147 14.7899C18.1561 15.0008 18.4061 15.0477 19.1171 15.0555C19.7069 15.0633 19.7694 15.0711 19.9491 15.1609C20.1327 15.2508 20.5155 15.5672 20.5155 15.6297C20.5155 15.6453 20.371 15.6688 20.1952 15.6805C19.246 15.7469 18.453 16.075 17.9647 16.6024C17.6874 16.9031 17.6015 17.0828 17.664 17.2313C17.7147 17.3563 17.8905 17.4461 18.0116 17.407C18.0546 17.3953 18.1796 17.2703 18.285 17.1336C18.5897 16.7508 18.9647 16.5242 19.5585 16.3719C19.7304 16.3289 20.0155 16.282 20.1991 16.2703L20.535 16.2508L20.4335 16.3406C20.3788 16.3914 20.1327 16.5984 19.8905 16.8016C18.1796 18.243 16.914 20.0906 16.4335 21.8563C16.2694 22.4578 16.2147 22.8406 16.1913 23.5281L16.1679 24.1805L15.8905 24.1609C15.3983 24.1258 15.3593 24.1141 15.3593 24.0047C15.3593 23.6258 15.0702 23.2195 14.7382 23.1297C14.6288 23.1024 14.285 23.0906 13.7421 23.0984C12.9179 23.1102 12.9179 23.1102 12.7304 23.2195C12.6288 23.2781 12.496 23.4031 12.4374 23.4891L12.3319 23.6531L12.3202 27.2664C12.3124 29.8016 12.3202 30.9266 12.3515 31.032C12.4061 31.2234 12.6054 31.4461 12.8007 31.532C12.9374 31.5945 13.0702 31.6063 13.8397 31.6063C14.6874 31.6063 14.7304 31.6024 14.8944 31.5164C15.1093 31.4031 15.3046 31.1219 15.3436 30.8797C15.3632 30.7391 15.3827 30.7039 15.4335 30.7195C15.4686 30.7274 16.1874 30.993 17.0311 31.3094C18.1366 31.7195 18.664 31.8992 18.914 31.9422C19.2108 31.993 19.66 31.9969 21.8515 31.9891C24.3905 31.9734 24.4491 31.9734 24.7538 31.8875C24.9257 31.8406 25.2069 31.7313 25.3788 31.6492C25.5507 31.5672 26.6405 30.8992 27.8007 30.1609C28.9608 29.4266 30.1913 28.6453 30.535 28.4305C31.2421 27.9852 31.4179 27.8406 31.5624 27.5633C31.6522 27.3953 31.6679 27.3211 31.6679 27.0164C31.6679 26.7117 31.6522 26.6375 31.5624 26.4695C31.4413 26.2352 31.2186 26.0047 31.0038 25.8914C30.8788 25.8211 30.7811 25.8055 30.496 25.8055C30.1874 25.8055 30.1054 25.8211 29.8319 25.9383C29.66 26.0086 29.496 26.075 29.4725 26.0867C29.4413 26.0984 29.4608 26.0203 29.5194 25.8914C29.66 25.5711 29.8007 25.0594 29.8749 24.5867C29.9608 24.032 29.9335 22.9774 29.8163 22.407C29.539 21.0594 28.8788 19.7195 27.8905 18.5086C27.5038 18.0359 27.3475 17.8953 27.2069 17.8953C27.0468 17.8953 26.9218 18.0125 26.9218 18.1649C26.9218 18.2508 26.9921 18.3602 27.1991 18.6024C28.2577 19.8289 28.9452 21.1297 29.2265 22.45C29.3436 23.0008 29.3749 24.0281 29.289 24.5555C29.1835 25.1961 28.8397 26.0906 28.5702 26.4383C28.5311 26.4891 27.8085 26.825 26.7186 27.3055C25.7343 27.7391 24.9218 28.0906 24.91 28.0906C24.8983 28.0906 24.8905 27.9891 24.8866 27.8641C24.8788 26.9969 24.2577 26.2274 23.4296 26.0633C23.3202 26.0399 22.4765 25.9344 21.5507 25.8289C19.4843 25.5906 19.4765 25.5867 18.4491 24.993C17.9413 24.7039 17.7108 24.5984 17.2147 24.4344C16.8436 24.3133 16.8241 24.3016 16.7929 24.1766C16.7343 23.9695 16.7929 22.9227 16.8827 22.4852C17.2968 20.5125 18.5663 18.6297 20.6132 16.9578C20.8905 16.7313 20.91 16.7234 20.9921 16.7781C21.3632 17.0125 22.914 17.1531 23.8749 17.0359C24.3046 16.9813 24.7616 16.8602 24.9491 16.743L25.1015 16.6531L25.4882 16.9734C26.0819 17.4578 26.1483 17.5047 26.2421 17.5047C26.3671 17.5047 26.4882 17.3875 26.5155 17.2391C26.539 17.118 26.5233 17.0945 26.3163 16.9031C26.1913 16.7859 25.9374 16.5711 25.746 16.4266L25.4022 16.157L25.3983 15.9031C25.3944 15.6258 25.3202 15.4149 25.1522 15.2156L25.0468 15.0906L25.2577 14.7547C25.6679 14.1024 25.9491 13.4422 26.0038 13.0047C26.0507 12.6297 25.8905 12.2586 25.6366 12.1531C25.5077 12.1024 25.3983 12.1219 25.0429 12.2547L24.8632 12.325L24.5546 12.1727C24.285 12.0399 24.2108 12.0203 23.9725 12.0203C23.7343 12.0164 23.66 12.0359 23.41 12.1649C23.2499 12.243 23.0936 12.3094 23.0585 12.3094C23.0272 12.3094 22.871 12.243 22.7108 12.1649C22.4061 12.0164 22.0897 11.9656 21.8827 12.032ZM22.5194 12.7274C22.7538 12.8484 22.8436 12.8719 23.0585 12.8719C23.285 12.8758 23.3515 12.8563 23.5975 12.7274C23.7538 12.6492 23.9218 12.5828 23.9765 12.5828C24.0272 12.5828 24.1952 12.6492 24.3475 12.7274C24.578 12.8484 24.66 12.8719 24.8632 12.868C24.9999 12.868 25.1718 12.8406 25.2577 12.8016C25.3436 12.7664 25.4179 12.7469 25.4296 12.7586C25.4765 12.8055 25.3515 13.2742 25.203 13.6102C25.0663 13.9188 24.6796 14.6063 24.5233 14.8172C24.4882 14.8641 24.3085 14.9149 23.91 14.9891C23.4061 15.0828 23.289 15.0906 22.8007 15.0672C22.2186 15.0438 21.703 14.9578 21.621 14.8797C21.5116 14.7664 20.9765 13.7938 20.8632 13.5047C20.746 13.1961 20.6718 12.8758 20.6991 12.7899C20.7108 12.7586 20.7577 12.7625 20.8593 12.8055C20.9374 12.8406 21.1093 12.868 21.2382 12.8719C21.4374 12.8758 21.5194 12.8524 21.7655 12.7313C21.9257 12.6492 22.0975 12.5828 22.1483 12.5828C22.1952 12.5828 22.3632 12.6492 22.5194 12.7274ZM21.8046 15.5516C22.5311 15.7039 23.4843 15.6961 24.2147 15.5281C24.3515 15.4969 24.5077 15.4852 24.5624 15.4969C24.7733 15.5516 24.8866 15.9461 24.7499 16.157C24.6718 16.2742 24.4608 16.3445 23.8866 16.4344C23.0858 16.5594 21.5585 16.45 21.2421 16.243C21.0272 16.1024 21.0311 15.7234 21.246 15.5516C21.3671 15.4578 21.3475 15.4578 21.8046 15.5516ZM14.6757 23.7742L14.7733 23.868V24.7547C14.7733 25.6141 14.7772 25.6453 14.8593 25.7352C14.9608 25.8445 15.121 25.8524 15.246 25.7508C15.3358 25.6805 15.3397 25.6453 15.3515 25.1844L15.3671 24.6922L15.5077 24.7117C15.5858 24.7195 15.789 24.7391 15.9569 24.7508C16.6366 24.8016 17.2733 25.0242 18.2265 25.5477C18.9647 25.95 19.3554 26.1141 19.7655 26.1961C19.9335 26.2274 20.7772 26.3328 21.6483 26.4305C22.5194 26.5281 23.3202 26.6336 23.4257 26.6649C23.7304 26.7547 23.9882 26.9734 24.1483 27.2859C24.2733 27.532 24.285 27.5789 24.285 27.9109V28.2664L22.6913 28.2859C21.1679 28.3055 21.0936 28.3094 21.039 28.3797C20.9608 28.4891 20.9725 28.6492 21.0585 28.7586L21.1327 28.8524L22.8515 28.8641C24.4608 28.8719 24.5819 28.868 24.7616 28.8016C24.8632 28.7586 25.5468 28.4617 26.2772 28.1414C30.2538 26.3875 30.2147 26.4031 30.4374 26.3836C30.6171 26.368 30.6718 26.3797 30.785 26.4578C30.9804 26.5906 31.0702 26.7352 31.0897 26.9461C31.1132 27.1883 31.035 27.3836 30.8632 27.5164C30.5663 27.7352 25.2616 31.0711 25.0663 31.157C24.5272 31.3992 24.6132 31.3914 21.6679 31.3914C18.9882 31.3914 18.9725 31.3914 18.7186 31.3055C18.578 31.2586 17.7655 30.9578 16.914 30.6414L15.3593 30.0633V28.4695C15.3593 26.7039 15.3554 26.6766 15.121 26.6258C15.0311 26.6063 14.9725 26.618 14.8944 26.6766L14.7929 26.7508L14.7733 28.8172C14.7616 29.9539 14.7499 30.8875 14.7421 30.8914C14.7382 30.8953 14.7069 30.9266 14.6718 30.9578C14.621 31.0125 14.4882 31.0203 13.8163 31.0203C13.039 31.0203 13.0194 31.0203 12.9608 30.9344C12.9061 30.8563 12.8983 30.45 12.8983 27.3406V23.8367L12.9843 23.7547C13.0624 23.6805 13.1171 23.6766 13.8241 23.6766C14.578 23.6766 14.5819 23.6766 14.6757 23.7742Z" fill="#D266D8" stroke="#D266D8" stroke-width="0.4"/>
<path d="M22.9102 18.0897C22.7852 18.1405 22.7423 18.2499 22.7423 18.5351V18.7929L22.5626 18.8358C22.4649 18.8632 22.2813 18.9491 22.1563 19.0351C21.7384 19.3124 21.504 19.8046 21.5391 20.3319C21.5743 20.8476 21.836 21.1796 22.4376 21.4765L22.7384 21.6249L22.7423 22.789V23.953L22.5587 23.9296C22.4532 23.9179 22.2305 23.8358 22.0587 23.7499C21.8868 23.6679 21.6993 23.5976 21.6368 23.5976C21.3946 23.5976 21.2852 23.9101 21.4727 24.0819C21.6407 24.2382 22.0743 24.4257 22.4141 24.4882L22.7423 24.5507V24.828C22.7423 25.0702 22.754 25.1171 22.8321 25.1913C22.9532 25.3046 23.1134 25.3007 23.2305 25.1796C23.3165 25.0976 23.3282 25.0507 23.3282 24.7968V24.5116L23.5235 24.4608C23.7579 24.4022 24.1212 24.1718 24.293 23.9765C24.6095 23.6171 24.7501 23.2108 24.7266 22.7265C24.6954 22.039 24.3126 21.5819 23.5352 21.3085L23.3282 21.2382V20.3085C23.3282 19.5429 23.336 19.3788 23.3829 19.3788C23.4649 19.3788 23.7149 19.4921 23.8712 19.5976C24.047 19.7187 24.168 19.7147 24.2852 19.5937C24.4024 19.4804 24.4102 19.3437 24.3048 19.2108C24.2032 19.0819 23.7305 18.8437 23.504 18.8085L23.3282 18.7851V18.5546C23.3282 18.2851 23.2774 18.1522 23.1446 18.0937C23.0352 18.0429 23.0274 18.0429 22.9102 18.0897ZM22.7423 20.1991V20.9843L22.6563 20.9374C22.254 20.7265 22.1173 20.5429 22.1173 20.2187C22.1173 19.914 22.2657 19.6522 22.5274 19.4921C22.7423 19.3554 22.7423 19.3515 22.7423 20.1991ZM23.6212 21.9804C23.9845 22.1522 24.1485 22.414 24.1485 22.8319C24.1485 23.2655 23.8712 23.6874 23.4766 23.8515L23.3282 23.9101V22.8944C23.3282 22.203 23.3399 21.8788 23.3712 21.8788C23.3907 21.8788 23.5079 21.9218 23.6212 21.9804Z" fill="#D266D8" stroke="#D266D8" stroke-width="0.2"/>
</g>
<defs>
<clipPath id="clip0_5469_68820">
<rect width="20" height="20" fill="white" transform="translate(12 12)"/>
</clipPath>
</defs>
</svg>
