<svg width="537" height="348" viewBox="0 0 537 348" fill="none" xmlns="http://www.w3.org/2000/svg">
<g clip-path="url(#clip0_6897_85005)">
<path d="M216.658 343.331C240.698 343.331 260.186 340.704 260.186 337.463C260.186 334.221 240.698 331.594 216.658 331.594C192.619 331.594 173.131 334.221 173.131 337.463C173.131 340.704 192.619 343.331 216.658 343.331Z" fill="#F5F5F5"/>
<path d="M45.4836 343.331C69.5231 343.331 89.0109 340.704 89.0109 337.463C89.0109 334.221 69.5231 331.594 45.4836 331.594C21.4441 331.594 1.9563 334.221 1.9563 337.463C1.9563 340.704 21.4441 343.331 45.4836 343.331Z" fill="#F5F5F5"/>
<path d="M371.883 3.1875H326.92C325.863 3.1875 325.006 4.0453 325.006 5.10346V21.4965C325.006 22.5546 325.863 23.4124 326.92 23.4124H371.883C372.94 23.4124 373.798 22.5546 373.798 21.4965V5.10346C373.798 4.0453 372.94 3.1875 371.883 3.1875Z" fill="#F4A864"/>
<path d="M424.139 39.3359H270.874V318.455H424.139V39.3359Z" fill="#31313A"/>
<path d="M270.874 318.453H278.359L278.359 39.3344H270.874L270.874 318.453Z" fill="#4F4F59"/>
<mask id="path-6-inside-1_6897_85005" fill="white">
<path d="M433.833 318.45H433.247V31.3988H261.577V318.45H260.991V30.8125H433.833V318.45Z"/>
</mask>
<path d="M433.833 318.45H433.247V31.3988H261.577V318.45H260.991V30.8125H433.833V318.45Z" fill="#515B60"/>
<path d="M433.833 318.45V320.45H435.833V318.45H433.833ZM433.247 318.45H431.247V320.45H433.247V318.45ZM433.247 31.3988H435.247V29.3988H433.247V31.3988ZM261.577 31.3988V29.3988H259.577V31.3988H261.577ZM261.577 318.45V320.45H263.577V318.45H261.577ZM260.991 318.45H258.991V320.45H260.991V318.45ZM260.991 30.8125V28.8125H258.991V30.8125H260.991ZM433.833 30.8125H435.833V28.8125H433.833V30.8125ZM433.833 316.45H433.247V320.45H433.833V316.45ZM435.247 318.45V31.3988H431.247V318.45H435.247ZM433.247 29.3988H261.577V33.3988H433.247V29.3988ZM259.577 31.3988V318.45H263.577V31.3988H259.577ZM261.577 316.45H260.991V320.45H261.577V316.45ZM262.991 318.45V30.8125H258.991V318.45H262.991ZM260.991 32.8125H433.833V28.8125H260.991V32.8125ZM431.833 30.8125V318.45H435.833V30.8125H431.833Z" fill="#515B60" mask="url(#path-6-inside-1_6897_85005)"/>
<path d="M424.139 39.3365L515.977 14.5859V325.706L424.139 318.455V39.3365Z" fill="#EBEBEB"/>
<path d="M527.156 16.1303L515.977 14.5859V325.706L524.808 324.281L527.156 16.1303Z" fill="#B3CAFF"/>
<path d="M507.832 167.572C509.784 167.572 511.366 165.606 511.366 163.18C511.366 160.755 509.784 158.789 507.832 158.789C505.88 158.789 504.297 160.755 504.297 163.18C504.297 165.606 505.88 167.572 507.832 167.572Z" fill="#31313A"/>
<path d="M504.297 169.788C507.236 169.788 509.618 166.829 509.618 163.179C509.618 159.529 507.236 156.57 504.297 156.57C501.358 156.57 498.976 159.529 498.976 163.179C498.976 166.829 501.358 169.788 504.297 169.788Z" fill="#B3CAFF"/>
<path d="M341.107 14.1176H337.187V16.6509H341.567V18.6288H334.783V7.96094H341.347V9.93883H337.187V12.1562H341.107V14.1176Z" fill="white"/>
<path d="M348.826 18.6288L347.867 16.6984C347.473 15.953 347.219 15.3997 346.92 14.7824H346.887C346.666 15.4018 346.398 15.953 346.049 16.6984L345.178 18.6288H342.42L345.515 13.2319L342.541 7.96094H345.31L346.243 9.90786C346.559 10.5562 346.796 11.0785 347.05 11.6814H347.081C347.334 11 347.539 10.5252 347.809 9.90786L348.711 7.96094H351.463L348.457 13.1679L351.62 18.6288H348.826Z" fill="white"/>
<path d="M355.327 7.96094V18.6288H352.924V7.96094H355.327Z" fill="white"/>
<path d="M359.487 9.98632H356.598V7.96094H364.79V9.98632H361.897V18.6288H359.493L359.487 9.98632Z" fill="white"/>
<path d="M61.1697 248.823L10.5536 222.992C8.86999 222.133 8.33354 219.935 9.35485 218.083L28.079 184.114C29.1003 182.255 31.2936 181.454 32.9772 182.313L83.5932 208.144C85.2768 209.002 85.8133 211.201 84.794 213.053L66.0678 247.022C65.0465 248.876 62.8533 249.681 61.1697 248.823Z" fill="#515B60"/>
<path d="M76.3531 229.324L19.6401 200.384L20.1394 199.453L76.8524 228.393L76.3531 229.324Z" fill="#2F383D"/>
<path d="M31.9558 209.705C31.2976 209.368 31.0872 208.501 31.4854 207.779L33.3836 204.335C33.7818 203.612 34.6463 203.303 35.3045 203.631C35.9626 203.965 36.1731 204.832 35.7749 205.557L33.8767 208.999C33.4785 209.723 32.614 210.041 31.9558 209.705Z" fill="#2F383D"/>
<path d="M58.7722 223.391C58.1161 223.057 57.9036 222.19 58.3018 221.465L60.2 218.023C60.6003 217.299 61.4648 216.991 62.1209 217.317C62.7791 217.652 62.9916 218.519 62.5913 219.244L60.6952 222.685C60.2949 223.408 59.4221 223.726 58.7722 223.391Z" fill="#2F383D"/>
<path d="M67.019 199.802L64.1779 198.265L66.6848 193.647C67.4048 192.324 67.6339 190.849 67.3037 189.706C67.2319 189.415 67.1022 189.142 66.9225 188.903C66.7427 188.664 66.5166 188.464 66.2577 188.314L56.453 183.194C55.0232 182.446 52.8155 183.658 51.6312 185.839L49.1243 190.457L46.2791 188.913L48.7859 184.294C50.8801 180.448 54.9179 178.676 57.9778 180.274L67.7845 185.403C68.4247 185.751 68.9878 186.225 69.4396 186.796C69.8914 187.368 70.2226 188.026 70.4131 188.729C70.997 190.721 70.673 193.077 69.5259 195.191L67.019 199.802Z" fill="#2F383D"/>
<path d="M61.7391 249.583C61.4527 249.519 61.1754 249.419 60.9138 249.286L10.304 223.456C9.836 223.215 9.42758 222.873 9.10848 222.454C8.78937 222.036 8.56764 221.551 8.45942 221.036C8.22767 219.955 8.40174 218.827 8.94842 217.867L27.6726 183.898C28.8321 181.796 31.3225 180.877 33.2248 181.848L83.8408 207.676C84.3083 207.917 84.7162 208.26 85.0349 208.679C85.3536 209.098 85.5751 209.583 85.6833 210.098C85.9151 211.178 85.741 212.307 85.1943 213.267L66.4702 247.236C65.4736 249.047 63.4867 249.98 61.7391 249.583ZM61.4193 248.355C62.8781 249.1 64.7824 248.407 65.6635 246.807L84.3876 212.837C84.798 212.115 84.928 211.267 84.7528 210.455C84.6712 210.06 84.5023 209.688 84.2585 209.366C84.0147 209.045 83.7021 208.782 83.3436 208.597L32.7276 182.779C31.2688 182.033 29.3644 182.729 28.4834 184.327L9.75928 218.296C9.34927 219.019 9.21858 219.866 9.39202 220.679C9.47369 221.074 9.64284 221.447 9.88705 221.768C10.1313 222.09 10.4443 222.352 10.8033 222.537L61.4193 248.355Z" fill="#2F383D"/>
<path d="M231.641 157.096C231.641 157.096 230.871 153.456 234.071 147.805C235.309 145.614 235.928 139.71 238.076 140.721C239.265 141.281 237.389 149.186 239.242 148.154C240.711 147.328 246.166 139.07 248.165 140.604C249.323 141.487 246.292 145.431 244.582 147.801C244.53 147.873 244.506 147.962 244.516 148.05C244.525 148.139 244.567 148.22 244.633 148.28V148.28C244.702 148.342 244.792 148.376 244.885 148.372C244.978 148.369 245.066 148.33 245.13 148.263C246.368 146.96 252.145 141.091 253.398 142.806C254.37 144.136 248.859 148.556 246.412 150.986C246.351 151.049 246.312 151.129 246.3 151.215C246.288 151.301 246.303 151.389 246.344 151.465V151.465C246.371 151.516 246.408 151.56 246.454 151.595C246.499 151.63 246.551 151.655 246.606 151.669C246.662 151.682 246.72 151.684 246.776 151.675C246.832 151.665 246.886 151.644 246.934 151.612C248.572 150.491 255.112 146.174 256.313 147.726C257.632 149.426 250.86 153.557 248.023 155.308C247.969 155.342 247.93 155.396 247.915 155.459C247.9 155.521 247.911 155.587 247.945 155.642L248.027 155.778C248.073 155.854 248.145 155.91 248.229 155.936C248.314 155.962 248.405 155.956 248.485 155.919C249.81 155.299 255.22 152.905 255.647 154.633C255.942 155.832 252.079 157.787 248.557 159.726C244.695 161.85 237.668 166.407 237.668 166.407L231.641 157.096Z" fill="white"/>
<path d="M237.533 166.625C237.495 166.604 237.462 166.573 237.439 166.536L231.412 157.245C231.393 157.217 231.38 157.187 231.373 157.154C231.34 157.001 230.617 153.345 233.832 147.657C234.22 146.972 234.548 145.9 234.895 144.767C235.514 142.77 236.081 140.887 237.121 140.431C237.291 140.356 237.476 140.321 237.662 140.327C237.847 140.334 238.029 140.382 238.194 140.468C238.87 140.778 238.825 142.196 238.712 144.471C238.646 145.768 238.547 147.725 238.918 147.948C238.99 147.949 239.061 147.932 239.124 147.899C239.56 147.655 240.498 146.555 241.491 145.39C243.977 142.477 246.798 139.196 248.349 140.369C249.529 141.273 247.73 143.943 245.254 147.339L244.815 147.946C244.8 147.963 244.793 147.985 244.794 148.008C244.796 148.03 244.806 148.051 244.823 148.066C244.84 148.081 244.862 148.088 244.885 148.087C244.907 148.085 244.928 148.075 244.943 148.058C246.666 146.255 250.885 142.07 252.837 142.209C252.992 142.213 253.143 142.253 253.281 142.324C253.419 142.396 253.538 142.497 253.631 142.621C254.456 143.765 252.067 146.115 248.584 149.311C247.85 149.986 247.154 150.622 246.616 151.159C246.596 151.178 246.583 151.204 246.579 151.231C246.575 151.259 246.58 151.287 246.593 151.311C246.602 151.329 246.615 151.344 246.63 151.355C246.645 151.367 246.663 151.375 246.682 151.38C246.7 151.384 246.719 151.385 246.738 151.382C246.756 151.379 246.774 151.372 246.789 151.361C254.011 146.418 256.002 146.842 256.54 147.533C256.638 147.659 256.708 147.805 256.743 147.96C256.779 148.116 256.78 148.277 256.747 148.433C256.425 150.211 252.519 152.839 248.345 155.416L248.18 155.517L248.273 155.612C248.284 155.63 248.301 155.643 248.321 155.649C248.341 155.655 248.363 155.654 248.382 155.645C250.01 154.887 253.953 153.198 255.377 153.882C255.513 153.943 255.633 154.034 255.728 154.148C255.823 154.263 255.891 154.398 255.925 154.543C256.227 155.765 253.78 157.171 249.765 159.361L248.702 159.944C244.891 162.039 237.901 166.567 237.831 166.612C237.788 166.643 237.737 166.66 237.684 166.663C237.631 166.665 237.579 166.652 237.533 166.625V166.625ZM231.911 156.989L237.76 166.007C238.998 165.204 245 161.356 248.436 159.467L249.498 158.884C252.22 157.4 255.606 155.552 255.391 154.677C255.376 154.61 255.345 154.549 255.301 154.497C255.257 154.446 255.201 154.406 255.137 154.381C254.145 153.905 251.011 155.034 248.611 156.147C248.47 156.212 248.309 156.223 248.159 156.178C248.01 156.132 247.883 156.033 247.802 155.899L247.72 155.763C247.65 155.646 247.629 155.506 247.661 155.374C247.693 155.241 247.776 155.127 247.891 155.055L248.056 154.951C250.398 153.506 255.882 150.122 256.204 148.345C256.224 148.265 256.226 148.181 256.209 148.1C256.192 148.019 256.157 147.943 256.107 147.878C255.441 147.013 251.815 148.596 247.099 151.821C246.958 151.915 246.789 151.953 246.622 151.929C246.455 151.904 246.303 151.819 246.195 151.69C246.088 151.56 246.031 151.395 246.038 151.226C246.044 151.058 246.113 150.898 246.23 150.777C246.777 150.234 247.468 149.594 248.215 148.919C250.303 147.003 253.798 143.794 253.187 142.958C253.144 142.895 253.086 142.844 253.018 142.808C252.951 142.772 252.876 142.753 252.8 142.752C251.392 142.659 247.899 145.753 245.339 148.433C245.225 148.552 245.07 148.621 244.906 148.627C244.742 148.633 244.582 148.575 244.46 148.464C244.344 148.359 244.271 148.215 244.254 148.059C244.238 147.904 244.278 147.747 244.369 147.62L244.811 147.013C246.226 145.068 248.859 141.451 248.011 140.8C246.872 139.942 243.884 143.427 241.901 145.741C240.787 147.048 239.906 148.08 239.384 148.371C239.275 148.45 239.146 148.495 239.012 148.502C238.878 148.509 238.745 148.477 238.629 148.411C238.025 148.035 238.062 146.658 238.173 144.44C238.235 143.214 238.338 141.17 237.979 140.966C237.885 140.913 237.781 140.883 237.673 140.878C237.566 140.873 237.459 140.892 237.36 140.935C236.549 141.294 235.959 143.226 235.437 144.932C235.082 146.098 234.746 147.203 234.327 147.936C231.387 153.095 231.829 156.553 231.911 156.989Z" fill="#31313A"/>
<path d="M238.07 157.81C238.042 157.795 238.016 157.774 237.996 157.748C237.972 157.721 237.955 157.689 237.944 157.655C237.933 157.62 237.929 157.584 237.933 157.548C237.936 157.512 237.946 157.477 237.963 157.445C237.98 157.414 238.003 157.385 238.031 157.362C238.07 157.327 239.044 156.452 238.547 154.043C238.293 152.728 237.967 151.428 237.571 150.149C237.558 150.114 237.553 150.078 237.555 150.041C237.557 150.005 237.566 149.969 237.582 149.936C237.598 149.903 237.62 149.874 237.647 149.85C237.675 149.826 237.707 149.807 237.741 149.796C237.776 149.784 237.812 149.779 237.849 149.782C237.885 149.785 237.921 149.794 237.953 149.811C237.986 149.828 238.015 149.85 238.038 149.878C238.062 149.906 238.08 149.938 238.091 149.973C238.494 151.274 238.825 152.596 239.083 153.933C239.652 156.689 238.433 157.74 238.381 157.784C238.338 157.819 238.286 157.841 238.23 157.846C238.174 157.851 238.118 157.838 238.07 157.81V157.81Z" fill="#31313A"/>
<path d="M167.259 137.006C178.375 140.538 194.494 167.494 201.68 166.629C208.866 165.764 232.074 152.255 232.074 152.255C232.074 152.255 237.251 158.732 238.21 167.009C238.21 167.009 218.333 192.403 199.848 192.643C181.363 192.882 165.651 169.17 165.651 169.17C165.651 169.17 159.589 134.569 167.259 137.006Z" fill="#407BFF"/>
<path d="M217.023 316.459L218.88 323.742C219.241 323.623 219.606 323.507 219.977 323.404C229.316 320.819 238.39 324.659 240.249 331.978L222.239 336.964C222.239 336.964 208.582 340.348 205.039 338.29C198.643 334.573 199.149 312.633 199.149 312.633L217.023 316.459Z" fill="#282830"/>
<path d="M212.75 331.857C212.798 331.844 212.841 331.818 212.875 331.781C212.909 331.745 212.933 331.7 212.944 331.651C214.116 325.651 218.9 324.012 218.948 323.993C219.014 323.973 219.07 323.927 219.103 323.865C219.136 323.804 219.143 323.732 219.123 323.665C219.114 323.632 219.098 323.601 219.077 323.574C219.055 323.547 219.028 323.525 218.997 323.51C218.966 323.495 218.932 323.486 218.898 323.485C218.863 323.483 218.829 323.489 218.797 323.502C217.796 323.885 216.871 324.444 216.067 325.154C214.761 326.266 213.069 328.282 212.428 331.572C212.421 331.606 212.421 331.64 212.428 331.673C212.434 331.707 212.448 331.738 212.467 331.766C212.486 331.794 212.511 331.818 212.54 331.836C212.569 331.854 212.601 331.866 212.634 331.872C212.673 331.876 212.713 331.871 212.75 331.857V331.857Z" fill="#ECEFF2"/>
<path d="M149.457 202.93C149.457 202.93 198.032 233.95 207.463 246.654C220.006 263.549 219.973 271.817 220.421 317.798L194.475 319.002C194.475 319.002 189.486 278.513 182.783 266.241C178.724 258.808 132.365 249.311 120.443 244.406L149.457 202.93Z" fill="#343D42"/>
<path d="M26.8575 266.218L20.1148 262.914C19.9724 263.267 19.8239 263.62 19.6609 263.969C15.5777 272.76 6.77577 277.183 0 273.863L7.87549 256.904C7.87549 256.904 14.1499 244.31 18.0144 242.939C24.9903 240.462 41.3582 255.077 41.3582 255.077L26.8575 266.218Z" fill="#282830"/>
<path d="M17.907 252.978C17.8862 253.023 17.8785 253.074 17.8846 253.124C17.8908 253.174 17.9107 253.221 17.9421 253.261C21.7488 258.042 19.8981 262.758 19.8795 262.799C19.8523 262.863 19.8514 262.935 19.8769 263C19.9023 263.065 19.9521 263.117 20.0157 263.146C20.0468 263.161 20.0808 263.168 20.1152 263.169C20.1496 263.17 20.1838 263.163 20.2155 263.15C20.2473 263.136 20.2758 263.116 20.2993 263.091C20.3228 263.066 20.3408 263.036 20.352 263.003C20.7088 261.992 20.8828 260.925 20.8657 259.853C20.8657 258.139 20.4283 255.544 18.3382 252.92C18.3103 252.887 18.2744 252.861 18.234 252.845C18.1935 252.83 18.1498 252.825 18.1068 252.83C18.0638 252.836 18.0229 252.853 17.988 252.878C17.9531 252.904 17.9252 252.938 17.907 252.978V252.978Z" fill="#ECEFF2"/>
<path d="M149.793 233.496C141.746 242.516 131.145 256.968 119.315 275.773C112.609 286.43 103.601 295.161 92.5994 295.434C82.7205 295.679 47.0383 288.125 25.7805 271.402C25.7805 271.402 25.8775 260.612 27.885 255.789C29.8926 250.966 32.678 248.282 32.678 248.282C32.678 248.282 80.9378 262.565 84.8477 261.679C93.0203 259.821 100.78 227.454 105.132 215.312C105.136 215.312 157.126 225.276 149.793 233.496Z" fill="#343D42"/>
<path d="M166.559 138.076C159.455 134.566 153.973 131.178 141.538 130.784C131.68 130.472 113.775 160.355 108.594 173.717C98.7232 199.155 97.5925 225.045 97.5925 225.045C97.5925 225.045 146.079 233.863 164.048 214.532C164.048 214.532 164.137 210.337 164.55 194C164.719 187.286 167.026 179.95 169.539 175.652C177.152 154.446 166.559 138.076 166.559 138.076Z" fill="#407BFF"/>
<path d="M68.4384 186.816C70.8834 177.22 64.8587 172.157 64.8587 172.157L55.7803 170.188C55.7803 170.188 53.717 173.064 53.8924 175.432C54.0822 177.959 56.4942 180.081 55.6957 183.188C54.3608 188.393 60.598 190.068 61.3986 191.294C62.7232 193.352 66.5382 194.281 68.4384 186.816Z" fill="white"/>
<path d="M55.5018 183.147C55.9661 181.343 55.2955 179.862 54.6476 178.432C54.1978 177.436 53.7728 176.497 53.6944 175.459C53.5128 173.043 55.5328 170.198 55.6194 170.078L55.6978 169.969L64.9103 171.965L64.9598 171.976L64.999 172.009C65.0609 172.06 71.096 177.255 68.6469 186.874C68.1146 188.961 66.8519 192.52 64.3512 192.935C63.1792 193.13 61.9557 192.537 61.2315 191.426C61.0499 191.145 60.4702 190.794 59.7996 190.394C58.5616 189.649 56.8368 188.594 55.9248 186.958C55.3491 185.926 55.0995 184.681 55.5018 183.147ZM68.2466 186.764C70.5306 177.804 65.2652 172.803 64.77 172.358L55.8773 170.429C55.5121 170.972 53.9544 173.415 54.105 175.428C54.1772 176.394 54.5878 177.3 55.0231 178.26C55.6999 179.757 56.4014 181.306 55.9021 183.248C54.9509 186.952 57.9984 188.802 60.0142 190.026C60.757 190.479 61.3429 190.834 61.5761 191.193C62.0589 191.932 63.0554 192.723 64.2831 192.52C65.2569 192.359 67.0685 191.397 68.2466 186.764V186.764Z" fill="#31313A"/>
<path d="M65.7811 185.156C65.7811 185.156 63.9241 192.616 61.1511 192.133C58.3781 191.649 58.9104 190.01 59.4572 189.062L65.7811 185.156Z" fill="white"/>
<path d="M59.0095 191.194C59.3293 191.766 60.0411 192.15 61.1243 192.34C64.0604 192.848 65.9111 185.527 65.9895 185.209C65.9972 185.182 65.9995 185.154 65.9961 185.127C65.9928 185.099 65.9839 185.073 65.97 185.049C65.9561 185.025 65.9375 185.003 65.9153 184.987C65.8931 184.97 65.8678 184.958 65.8409 184.951C65.8139 184.945 65.7859 184.944 65.7585 184.948C65.731 184.952 65.7048 184.962 65.6813 184.977C65.6578 184.992 65.6376 185.011 65.6217 185.034C65.6059 185.057 65.5949 185.083 65.5892 185.11C65.0879 187.133 63.3196 192.301 61.1945 191.923C60.1938 191.75 59.5686 191.409 59.3375 190.916C59.1312 190.47 59.2323 189.883 59.645 189.159C59.6599 189.135 59.6699 189.109 59.6744 189.081C59.679 189.054 59.6779 189.026 59.6712 188.999C59.6646 188.972 59.6526 188.946 59.6359 188.924C59.6192 188.902 59.5982 188.883 59.5741 188.869C59.55 188.855 59.5233 188.846 59.4957 188.843C59.4681 188.84 59.4401 188.842 59.4134 188.85C59.3866 188.857 59.3618 188.87 59.3402 188.888C59.3187 188.906 59.3009 188.928 59.288 188.952C58.8032 189.795 58.6938 190.515 58.9641 191.091L59.0095 191.194Z" fill="#060633"/>
<path d="M62.8594 184.234C62.8594 184.234 61.6482 190.459 58.3759 190.635C57.8709 190.655 57.3669 190.574 56.8935 190.397C56.4201 190.22 55.9869 189.95 55.6194 189.602L62.8594 184.234Z" fill="white"/>
<path d="M55.44 189.717C55.448 189.733 55.4592 189.748 55.473 189.76C55.8603 190.13 56.3185 190.418 56.8199 190.605C57.3214 190.793 57.8557 190.877 58.3905 190.852C59.81 190.772 61.0727 189.599 62.0342 187.458C62.4874 186.436 62.8331 185.37 63.0659 184.277C63.0762 184.223 63.0648 184.167 63.0342 184.122C63.0037 184.077 62.9564 184.045 62.9029 184.035C62.8492 184.025 62.7937 184.036 62.7485 184.067C62.7032 184.097 62.6719 184.144 62.6615 184.198C62.6491 184.258 61.4421 190.266 58.3678 190.441C57.8927 190.459 57.4189 190.383 56.9735 190.216C56.528 190.05 56.1198 189.798 55.7722 189.473C55.7373 189.438 55.6908 189.416 55.6412 189.412C55.5917 189.409 55.5424 189.423 55.5026 189.453C55.4627 189.482 55.4348 189.525 55.4241 189.574C55.4133 189.622 55.4205 189.673 55.4442 189.717H55.44Z" fill="#060633"/>
<path d="M59.8348 183.511C59.6181 185.444 57.2474 190.508 54.918 189.536C52.5886 188.563 53.3891 186.947 53.8018 186.177C54.266 185.309 55.3018 184.093 55.7 183.195L59.8348 183.511Z" fill="white"/>
<path d="M53.3394 188.558C53.6056 189.035 54.107 189.43 54.8312 189.731C55.1188 189.846 55.4302 189.89 55.7383 189.857C56.0464 189.825 56.342 189.718 56.5994 189.545C57.6744 188.911 58.5182 187.501 58.9268 186.715C59.5086 185.598 59.9419 184.351 60.0347 183.539C60.041 183.485 60.0253 183.43 59.9911 183.386C59.9568 183.343 59.9069 183.315 59.8521 183.309C59.7974 183.303 59.7424 183.319 59.6993 183.353C59.6561 183.387 59.6284 183.437 59.6221 183.492C59.4653 184.888 58.0849 188.191 56.3869 189.19C56.1842 189.328 55.9509 189.415 55.7073 189.443C55.4636 189.471 55.2168 189.44 54.988 189.351C54.2431 189.04 53.7768 188.637 53.6035 188.152C53.3518 187.441 53.7727 186.655 53.9749 186.279C54.2264 185.84 54.5019 185.416 54.8002 185.007C55.2088 184.466 55.5685 183.889 55.8752 183.283C55.8891 183.258 55.8977 183.231 55.9003 183.202C55.903 183.174 55.8997 183.145 55.8906 183.118C55.8815 183.09 55.8669 183.065 55.8476 183.044C55.8284 183.023 55.8049 183.006 55.7788 182.994C55.7526 182.983 55.7243 182.977 55.6957 182.977C55.667 182.976 55.6387 182.982 55.6124 182.994C55.5862 183.005 55.5626 183.022 55.5432 183.043C55.5238 183.064 55.5089 183.089 55.4997 183.116C55.2039 183.695 54.8588 184.248 54.468 184.768C54.1584 185.19 53.8726 185.629 53.6118 186.083C53.3807 186.51 52.902 187.404 53.2156 188.288C53.2496 188.381 53.291 188.472 53.3394 188.558V188.558Z" fill="#060633"/>
<path d="M146.205 133.345C146.205 133.345 136.277 126.861 113.156 127.932C106.009 128.264 96.2659 128.758 87.3753 130.566C66.2949 134.867 54.7757 171.468 54.7757 171.468C54.7757 171.468 53.6595 173.934 59.2509 175.331C63.0246 176.275 66.7261 174.4 66.7261 174.4C66.7261 174.4 78.3237 156.764 89.5459 150.924C96.2618 147.428 138.924 159.923 138.924 159.923L146.205 133.345Z" fill="white"/>
<path d="M54.2907 172.766C54.3269 172.813 54.3752 172.849 54.4304 172.87C54.4857 172.892 54.5457 172.897 54.604 172.887C54.6622 172.877 54.7165 172.85 54.761 172.811C54.8054 172.772 54.8383 172.722 54.856 172.665C57.0857 165.972 59.9265 159.499 63.3422 153.328C68.391 144.299 76.6709 133.076 87.4391 130.879C96.534 129.021 106.545 128.561 113.168 128.253C134.172 127.281 144.323 132.616 145.825 133.493L138.686 159.52C134.475 158.297 95.9047 147.241 89.3847 150.642C78.2287 156.446 66.4969 174.077 66.3793 174.251C66.3394 174.322 66.3278 174.406 66.347 174.485C66.3663 174.565 66.4148 174.634 66.4829 174.679C66.5511 174.725 66.6338 174.742 66.7144 174.729C66.7951 174.716 66.8677 174.672 66.9178 174.608C67.0354 174.43 78.6785 156.937 89.686 151.208C96.208 147.809 138.398 160.104 138.823 160.23C138.903 160.255 138.989 160.249 139.064 160.211C139.103 160.19 139.137 160.16 139.163 160.124C139.19 160.089 139.209 160.048 139.219 160.005L146.51 133.425C146.529 133.359 146.526 133.289 146.501 133.225C146.477 133.161 146.434 133.106 146.376 133.068C146.275 133.002 136.095 126.538 113.135 127.603C106.491 127.911 96.4494 128.375 87.305 130.241C76.2954 132.488 67.8835 143.868 62.7686 153.016C59.3323 159.224 56.475 165.736 54.2329 172.469C54.2174 172.519 54.2146 172.573 54.2247 172.625C54.2347 172.677 54.2574 172.725 54.2907 172.766V172.766Z" fill="#31313A"/>
<path d="M162.932 134.358L162.804 125.969C162.078 125.763 151.409 124.77 151.549 125.556C151.876 127.326 151.834 129.145 151.425 130.898C151.318 131.339 150.883 131.556 150.431 131.517C149.48 131.434 150.978 138.974 150.004 139.007L162.668 136.598C162.668 136.598 164.135 135.054 162.932 134.358Z" fill="white"/>
<path d="M149.964 121.827C155.867 129.111 164.937 131.531 170.221 127.234C175.506 122.938 173.88 112.369 169.101 106.266C163.324 98.8871 154.128 96.5623 148.844 100.859C143.56 105.155 144.061 114.543 149.964 121.827Z" fill="white"/>
<path d="M166.471 129.424C165.178 129.71 163.847 129.78 162.532 129.631C157.964 129.156 153.167 126.327 149.7 122.041C143.688 114.623 143.207 105.002 148.629 100.592C150.786 98.8392 153.581 98.1001 156.742 98.4531C161.321 98.9672 166.039 101.808 169.369 106.055C174.309 112.356 175.852 123.096 170.436 127.5C169.28 128.438 167.923 129.096 166.471 129.424V129.424ZM152.789 99.3244C151.424 99.6295 150.147 100.247 149.061 101.129C143.931 105.299 144.455 114.489 150.231 121.616C153.585 125.756 158.211 128.499 162.61 128.956C165.499 129.255 168.051 128.57 170.013 126.974C174.218 123.553 174.622 113.857 168.841 106.48C165.62 102.376 161.073 99.6299 156.668 99.1365C155.374 98.9801 154.062 99.0436 152.789 99.3244V99.3244Z" fill="#31313A"/>
<path d="M153.488 103.438C153.488 103.438 157.633 106.64 155.552 109.047C153.47 111.454 150.849 109.22 150.849 109.22C150.849 109.22 157.353 113.162 154.551 116.515C151.749 119.868 147.136 114.155 147.136 114.155L146.475 107.695L153.488 103.438Z" fill="#31313A"/>
<path d="M153.833 106.217C153.833 106.217 163.083 110.991 169.324 102.344C169.324 102.344 172.019 94.8949 160.997 93.7718C160.997 93.7718 157.79 93.3341 155.166 94.641C155.166 94.641 158.744 92.0891 155.754 90.7575C152.764 89.4258 148.382 91.8971 145.124 96.5384C145.124 96.5384 145.743 92.3451 142.18 93.3692C138.616 94.3932 135.901 98.2272 137.434 104.058C137.434 104.058 136.27 102.763 134.958 103.269C133.646 103.775 134.977 105.387 136.322 105.521C136.322 105.521 132.699 105.179 132.876 106.723C133.054 108.267 136.194 107.188 136.194 107.188C136.194 107.188 132.668 122.034 145.974 123.327C145.974 123.327 143.529 128.901 150.193 125.168C150.193 125.168 151.456 128.816 153.249 125.148C153.249 125.148 152.259 124.501 151.733 119.866C151.499 117.701 153.833 106.217 153.833 106.217Z" fill="#31313A"/>
<path d="M161.649 112.504C161.69 112.497 161.73 112.48 161.763 112.454C161.797 112.429 161.824 112.396 161.843 112.357C161.875 112.292 161.88 112.217 161.857 112.148C161.835 112.08 161.786 112.022 161.721 111.99C161.64 111.951 159.885 110.854 158.135 112.489C158.082 112.539 158.05 112.607 158.046 112.679C158.042 112.752 158.067 112.823 158.114 112.878C158.166 112.926 158.233 112.955 158.303 112.959C158.374 112.962 158.444 112.941 158.5 112.898C159.816 112.157 161.411 112.448 161.477 112.485C161.531 112.51 161.591 112.516 161.649 112.504V112.504Z" fill="#31313A"/>
<path d="M167.611 108.49C167.64 108.459 167.661 108.421 167.672 108.381C167.684 108.34 167.685 108.298 167.677 108.256C167.664 108.185 167.624 108.122 167.564 108.08C167.505 108.039 167.431 108.023 167.36 108.035C167.273 108.052 165.21 108.227 164.789 110.588C164.776 110.659 164.791 110.733 164.832 110.793C164.872 110.853 164.935 110.895 165.005 110.91C165.075 110.918 165.144 110.901 165.203 110.864C165.262 110.826 165.306 110.77 165.327 110.703C165.946 109.32 167.391 108.595 167.459 108.583C167.519 108.571 167.573 108.538 167.611 108.49V108.49Z" fill="#31313A"/>
<path d="M159.235 114.587C159.395 115.221 159.899 115.64 160.357 115.524C160.815 115.409 161.056 114.802 160.895 114.168C160.735 113.534 160.233 113.114 159.773 113.23C159.313 113.346 159.078 113.945 159.235 114.587Z" fill="#31313A"/>
<path d="M166.506 111.321C166.666 111.955 167.17 112.376 167.628 112.261C168.086 112.145 168.327 111.538 168.166 110.904C168.006 110.27 167.504 109.849 167.046 109.964C166.588 110.08 166.349 110.687 166.506 111.321Z" fill="#31313A"/>
<path d="M165.942 117.317C165.883 117.331 165.82 117.322 165.766 117.292C165.713 117.262 165.673 117.212 165.654 117.154C165.635 117.096 165.639 117.032 165.665 116.977C165.691 116.921 165.737 116.877 165.794 116.854C166.111 116.728 166.397 116.533 166.631 116.283C166.864 116.033 167.039 115.734 167.143 115.409C167.163 115.35 167.204 115.301 167.258 115.272C167.313 115.243 167.376 115.235 167.436 115.25C167.495 115.265 167.547 115.302 167.581 115.353C167.615 115.405 167.628 115.467 167.618 115.528C167.494 115.929 167.284 116.298 167 116.607C166.717 116.917 166.368 117.159 165.979 117.317H165.942Z" fill="#31313A"/>
<path d="M152.325 121.574C153.932 122.003 155.486 121.4 155.795 120.226C156.105 119.051 154.763 117.698 153.443 117.32C151.842 116.866 150.28 117.496 149.973 118.669C149.665 119.841 150.717 121.144 152.325 121.574Z" fill="white"/>
<path d="M165.422 121.987C164.714 121.992 164.01 121.87 163.345 121.626C163.273 121.593 163.217 121.535 163.188 121.462C163.159 121.389 163.16 121.307 163.189 121.235C163.219 121.162 163.275 121.104 163.347 121.072C163.419 121.04 163.5 121.037 163.574 121.064C163.607 121.077 166.175 122.08 168.453 120.381C168.518 120.332 168.599 120.312 168.679 120.323C168.758 120.335 168.83 120.378 168.878 120.443C168.926 120.507 168.947 120.588 168.935 120.668C168.924 120.748 168.881 120.82 168.816 120.868C167.838 121.602 166.646 121.996 165.422 121.987V121.987Z" fill="#31313A"/>
<path d="M154.745 136.141C154.745 136.141 160.541 137.152 160.776 138.496C161.011 139.84 159.841 142.733 158.197 142.997C156.552 143.261 154.2 142.322 154.155 140.726C154.11 139.13 154.745 136.141 154.745 136.141Z" fill="#31313A"/>
<path d="M136.192 251.111C136.112 251.111 136.033 251.089 135.965 251.047C135.916 251.017 135.872 250.978 135.838 250.931C135.804 250.885 135.779 250.832 135.765 250.775C135.752 250.719 135.749 250.661 135.758 250.604C135.767 250.546 135.787 250.492 135.817 250.442C141.594 240.916 148.92 235.356 148.995 235.3C149.041 235.261 149.094 235.232 149.152 235.214C149.209 235.197 149.27 235.191 149.33 235.198C149.39 235.205 149.448 235.224 149.5 235.254C149.552 235.284 149.598 235.324 149.634 235.372C149.67 235.421 149.696 235.476 149.71 235.534C149.724 235.593 149.726 235.654 149.715 235.713C149.705 235.773 149.682 235.829 149.649 235.88C149.616 235.93 149.573 235.973 149.523 236.006C149.451 236.06 142.258 241.527 136.57 250.898C136.531 250.964 136.475 251.018 136.409 251.055C136.343 251.092 136.268 251.111 136.192 251.111V251.111Z" fill="#2F383D"/>
<path d="M149.284 129.89C149.284 129.89 104.564 121.4 84.4619 129.735C64.3595 138.07 52.5618 170.651 52.5618 170.651C52.5618 170.651 59.3705 176.845 70.1098 173.872C70.1098 173.872 83.8037 156.988 90.0431 154.285C96.2824 151.583 122.084 158.976 122.084 158.976L143.325 163.258L151.081 135.499L149.284 129.89Z" fill="#407BFF"/>
<path d="M155.706 140.602C155.706 140.602 143.564 165.313 93.8455 175.723L84.6929 187.103L100.157 191.114C100.157 191.114 151.757 177.362 159.501 141.014L155.706 140.602Z" fill="#343D42"/>
<path d="M159.561 136.997C159.561 136.997 155.719 138.141 152.451 139.918C150.231 141.12 148.094 142.469 146.054 143.957C146.054 143.957 139.202 136.373 144.404 129.063C144.404 129.063 147.022 127.033 152.017 126.711C152.013 126.711 152.393 136.613 159.561 136.997Z" fill="#B3CAFF"/>
<path d="M169.2 137.825C169.2 137.825 168.775 135.878 166.77 133.165C166.076 132.228 162.866 130.102 162.866 130.102C162.866 130.102 162.344 136.58 157.708 137.039C157.708 137.039 164.372 142.518 164.993 145.71C164.995 145.714 169.97 143.458 169.2 137.825Z" fill="#B3CAFF"/>
</g>
<defs>
<clipPath id="clip0_6897_85005">
<rect width="537" height="347.24" fill="white"/>
</clipPath>
</defs>
</svg>
