<svg width="24" height="24" viewBox="0 0 24 24" fill="none" xmlns="http://www.w3.org/2000/svg">
<circle cx="12" cy="12" r="12" fill="#FFBA53"/>
<g clip-path="url(#clip0_5513_69711)">
<path d="M11.1112 5.04255C9.4979 5.2531 8.05415 5.98865 6.92212 7.17263C5.94048 8.20076 5.29243 9.50779 5.06821 10.9078C4.99712 11.3453 4.98071 12.3816 5.03813 12.8492C5.30337 15.0367 6.57485 16.9535 8.49985 18.0801C9.19985 18.4875 10.001 18.7746 10.8624 18.925C11.3381 19.007 12.3471 19.0261 12.8502 18.9605C15.8635 18.5832 18.2752 16.3492 18.8768 13.3824C19.0053 12.7535 19.0381 11.7855 18.9588 11.1265C18.5651 7.96286 16.0385 5.4363 12.8749 5.04255C12.4592 4.99333 11.5049 4.99333 11.1112 5.04255ZM12.7928 5.94763C14.994 6.2238 16.9409 7.77146 17.7229 9.86872C18.1467 11.0035 18.2178 12.3242 17.9198 13.4945C17.3729 15.6328 15.7213 17.3117 13.5913 17.8968C12.3799 18.2277 11.0018 18.1593 9.82329 17.7082C8.00493 17.0109 6.59946 15.4468 6.0936 13.5547C5.83384 12.5785 5.83384 11.4246 6.0936 10.4484C6.38071 9.37654 6.95767 8.39216 7.75063 7.62654C9.10962 6.3113 10.9143 5.71247 12.7928 5.94763Z" fill="white"/>
<path d="M11.5625 9.91641V12.2051L12.9379 13.5805L14.3105 14.9531L14.6332 14.6305L14.9531 14.3105L13.6953 13.0527L12.4375 11.7949V9.71133V7.625H12H11.5625V9.91641Z" fill="white"/>
</g>
<defs>
<clipPath id="clip0_5513_69711">
<rect width="14" height="14" fill="white" transform="translate(5 5)"/>
</clipPath>
</defs>
</svg>
