<svg width="32" height="32" viewBox="0 0 32 32" fill="none" xmlns="http://www.w3.org/2000/svg">
<path d="M19.9996 9.99948L9.58707 20.587C9.24235 20.9674 9.05713 21.4659 9.06977 21.9791C9.08241 22.4923 9.29193 22.9811 9.65495 23.3441C10.018 23.7071 10.5067 23.9166 11.0199 23.9293C11.5332 23.9419 12.0316 23.7567 12.4121 23.412L24.8246 10.8245C25.514 10.0636 25.8844 9.06669 25.8592 8.04022C25.8339 7.01374 25.4148 6.03629 24.6888 5.31025C23.9628 4.5842 22.9853 4.16516 21.9588 4.13989C20.9324 4.11461 19.9355 4.48504 19.1746 5.17448L6.76207 17.762C5.63821 18.8858 5.00684 20.4101 5.00684 21.9995C5.00684 23.5889 5.63821 25.1131 6.76207 26.237C7.88592 27.3608 9.4102 27.9922 10.9996 27.9922C12.5889 27.9922 14.1132 27.3608 15.2371 26.237L25.4996 15.9995" stroke="#78787C" stroke-width="2" stroke-linecap="round" stroke-linejoin="round"/>
</svg>
