<svg width="18" height="18" viewBox="0 0 18 18" fill="none" xmlns="http://www.w3.org/2000/svg">
<path d="M9.49277 0.0210915C10.224 0.116013 10.9236 0.376169 11.5318 0.783981C11.8693 1.00898 12.4916 1.63125 12.7166 1.96875C13.04 2.45039 13.2615 2.96015 13.4021 3.55078C13.4689 3.82148 13.476 3.99023 13.49 5.29805L13.5076 6.75H13.8838C14.1088 6.75 14.3443 6.77109 14.4674 6.80273C15.0721 6.96094 15.5396 7.43203 15.6979 8.04023C15.7752 8.34258 15.7752 16.4074 15.6979 16.7098C15.5396 17.318 15.0721 17.7891 14.4674 17.9473C14.2846 17.993 13.6096 18 9.00059 18C4.3916 18 3.7166 17.993 3.53379 17.9473C2.9291 17.7891 2.46152 17.318 2.30332 16.7098C2.22598 16.4074 2.22598 8.34258 2.30332 8.04023C2.46152 7.43203 2.9291 6.96094 3.53379 6.80273C3.65684 6.77109 3.89238 6.75 4.11738 6.75H4.49356L4.51113 5.29805C4.5252 3.99023 4.53223 3.82148 4.59902 3.55078C4.81699 2.64726 5.19668 1.96875 5.83301 1.33242C6.4834 0.682028 7.16895 0.302341 8.05137 0.10195C8.34316 0.0351524 9.21504 -0.0140648 9.49277 0.0210915ZM8.18848 1.22695C7.54863 1.39219 7.06348 1.67695 6.59238 2.15859C6.2584 2.49961 6.02285 2.8582 5.85762 3.27304C5.65723 3.78984 5.6502 3.84609 5.63613 5.35078L5.62207 6.75H9.00059H12.3791L12.3686 5.35078C12.3545 4.06054 12.3475 3.93398 12.2807 3.68789C12.1014 3.04101 11.8236 2.5664 11.3596 2.10937C10.8182 1.57148 10.2943 1.31133 9.42246 1.14609C9.21504 1.10742 8.44863 1.15664 8.18848 1.22695ZM3.63574 7.9664C3.58301 8.00508 3.50566 8.08242 3.46699 8.13515C3.39317 8.23008 3.39317 8.25117 3.38262 12.3258C3.37207 16.8574 3.35801 16.5691 3.60762 16.7555L3.7377 16.8574H9.00059H14.2635L14.3936 16.7555C14.6396 16.5691 14.6256 16.8469 14.6256 12.3785C14.6256 9.60117 14.615 8.3039 14.5869 8.23711C14.5377 8.10703 14.4217 7.98047 14.2916 7.92422C14.2037 7.88554 13.2615 7.87851 8.9584 7.88554C3.74121 7.89258 3.73067 7.89258 3.63574 7.9664Z" fill="#4C5D70"/>
<path d="M9.25778 9.77197C10.0382 9.90908 10.6043 10.6931 10.4812 11.463C10.4074 11.9235 10.0734 12.4017 9.71129 12.5634L9.56363 12.6302V13.5935C9.56363 14.4829 9.5566 14.5673 9.49332 14.6903C9.29293 15.0876 8.70934 15.0876 8.50895 14.6903C8.44567 14.5673 8.43863 14.4829 8.43863 13.5935V12.6302L8.29098 12.5634C7.92887 12.4017 7.59489 11.9235 7.52106 11.463C7.43668 10.9286 7.70035 10.3169 8.14332 10.0216C8.47379 9.80361 8.89918 9.70869 9.25778 9.77197ZM8.84293 10.9181C8.73395 10.9673 8.61442 11.1431 8.61442 11.2485C8.61442 11.2731 8.63903 11.3435 8.67067 11.4067C8.73746 11.5509 8.92731 11.6493 9.07145 11.6177C9.20153 11.5896 9.34215 11.4489 9.37028 11.3188C9.40192 11.1782 9.30348 10.9849 9.16637 10.9181C9.02574 10.8478 8.98707 10.8478 8.84293 10.9181Z" fill="#4C5D70"/>
</svg>
