<svg width="40" height="40" viewBox="0 0 40 40" fill="none" xmlns="http://www.w3.org/2000/svg">
<rect width="40" height="40" rx="4" fill="#34C75A" fill-opacity="0.2"/>
<path d="M13.1094 8.05156C12.6781 8.225 12.4531 8.61875 12.4531 9.20469V9.58906L11.4828 9.60312C10.5266 9.61719 10.5031 9.62187 10.2266 9.74844C9.85625 9.92188 9.49531 10.2828 9.32656 10.6437L9.19531 10.9297L9.18125 18.8187L9.17188 26.7078L9.19531 29.2297C9.35 29.3844 9.67813 29.1031 9.81875 28.9531L9.92188 28.4516V21.0406V15.3594H18.4484C26.7453 15.3594 26.975 15.3547 27.0828 15.2703C27.2375 15.1438 27.2375 14.825 27.0828 14.6984C26.975 14.6141 26.7453 14.6094 18.4484 14.6094H9.92188V12.9266C9.92188 11.0656 9.93594 10.9766 10.2172 10.6766C10.4984 10.3813 10.6391 10.3438 11.5953 10.3438H12.4438L12.4625 11.0375C12.4766 11.7078 12.4813 11.7406 12.6078 11.9281C12.8422 12.2891 13.3484 12.5094 13.6672 12.4016C13.8359 12.3406 13.9062 12.2375 13.9062 12.0406C13.9062 11.8719 13.7516 11.7266 13.5219 11.6844C13.2453 11.6328 13.2031 11.5344 13.2031 10.8969V10.3438H19.2031H25.2031V10.8969C25.2031 11.5859 25.2734 11.8531 25.5172 12.0875C25.7563 12.3125 25.9719 12.4156 26.2344 12.425C26.525 12.4297 26.6562 12.3219 26.6562 12.0687C26.6562 11.8578 26.525 11.7031 26.3469 11.7031C26.2766 11.7031 26.1687 11.6469 26.0891 11.5672C25.9531 11.4312 25.9531 11.4219 25.9531 10.8875V10.3438H27.6078C29.45 10.3438 29.4688 10.3484 29.7828 10.6766C30.0641 10.9766 30.0781 11.0656 30.0781 12.9266V14.6094H29.0984C28.1797 14.6094 28.1141 14.6141 27.9969 14.7078C27.8234 14.8438 27.8234 15.125 27.9969 15.2609C28.1141 15.3547 28.1797 15.3594 29.0984 15.3594H30.0781V19.9625C30.0781 24.5187 30.0781 24.5656 29.9797 24.7625C29.9234 24.8844 29.8109 25.0109 29.7125 25.0719C29.5438 25.175 29.4969 25.1797 28.0625 25.2031L26.5812 25.2266L26.2719 25.3813C25.9016 25.5641 25.6672 25.8172 25.5312 26.1734C25.4469 26.4031 25.4375 26.5391 25.4375 27.7391C25.4375 28.5406 25.4187 29.1312 25.3859 29.2578C25.3156 29.5438 25.0719 29.7781 24.7719 29.8391C24.4578 29.9094 11.1641 29.9094 10.8078 29.8438C10.4797 29.7781 10.2406 29.6141 10.0766 29.3422C9.95469 29.1312 9.94531 29.075 9.92188 28.4516C9.89375 27.6875 9.86563 27.6172 9.54688 27.6172C9.19063 27.6172 9.19531 27.5938 9.19531 29.2297V30.6734L9.38281 31.0438C9.60313 31.4703 9.89844 31.7469 10.3203 31.9016L10.5828 32L20.0609 31.9906L29.5391 31.9766L29.8063 31.85C30.1578 31.6859 30.4719 31.3625 30.6547 30.9781L30.8047 30.6641L30.8188 20.9609C30.8328 10.7797 30.8375 10.9672 30.6313 10.5594C30.4766 10.2547 30.1063 9.89844 29.7828 9.75312C29.4969 9.61719 29.4781 9.61719 28.5219 9.60312L27.5469 9.58906V9.2C27.5469 8.7125 27.4016 8.38437 27.0875 8.16406C26.9 8.0375 26.8438 8.02344 26.45 8.00937C26.0844 7.99531 25.9812 8.00469 25.8312 8.08437C25.4187 8.29531 25.2406 8.61406 25.2125 9.18125L25.1938 9.59375H19.9953H14.7969V9.28437C14.7969 8.85781 14.7219 8.6 14.5297 8.375C14.2766 8.07969 14.075 8 13.6156 8.00469C13.4 8.00469 13.175 8.02813 13.1094 8.05156ZM13.9438 8.87188C14.0281 8.97031 14.0469 9.04531 14.0469 9.29375V9.59375H13.625H13.2031V9.29375C13.2031 8.91406 13.2313 8.84844 13.4094 8.76875C13.5969 8.68437 13.8078 8.72656 13.9438 8.87188ZM26.5578 8.75469C26.7547 8.825 26.7969 8.91875 26.7969 9.28437V9.59375H26.375H25.9531V9.29375C25.9531 8.96563 26.0563 8.77344 26.2484 8.73594C26.3047 8.72656 26.3656 8.7125 26.3797 8.70781C26.3938 8.70781 26.4734 8.72656 26.5578 8.75469ZM27.8516 27.6406C26.9281 28.5641 26.1688 29.3188 26.1641 29.3141C26.1641 29.3094 26.1734 28.6625 26.1875 27.875C26.2109 26.4875 26.2156 26.4406 26.3141 26.3C26.375 26.2156 26.5109 26.1078 26.6188 26.0516C26.8109 25.9578 26.8906 25.9531 28.1797 25.9531H29.5391L27.8516 27.6406ZM30.0312 30.4953C29.9609 30.7672 29.7359 31.0391 29.4828 31.1609L29.2578 31.2734L20.1688 31.2875C14.1406 31.2922 10.9906 31.2828 10.8172 31.25C10.6766 31.2219 10.4797 31.1516 10.3813 31.0859C10.2031 30.9688 10.0016 30.6687 9.95 30.4437L9.92188 30.3172L10.1891 30.4437L10.4609 30.5703H18.1016H25.7422L26.0234 30.4156C26.2484 30.2938 26.6938 29.8766 28.1797 28.3906L30.0547 26.5156L30.0688 28.4187C30.0734 29.5906 30.0594 30.3875 30.0312 30.4953Z" fill="#34C75A"/>
<g clip-path="url(#clip0_6910_92987)">
<path d="M17.1576 17.1187C17.0965 17.1482 17.0248 17.2031 16.9953 17.241C16.9447 17.3085 15.1523 20.4146 15.051 20.6128C14.954 20.8026 14.9604 20.9565 15.0974 21.8612C15.1607 22.2892 15.2282 22.6983 15.2472 22.7679C15.3062 23.0083 15.418 23.1939 15.6141 23.39C15.806 23.5819 15.9451 23.6683 16.194 23.7506C16.3352 23.7969 16.3795 23.7991 17.1619 23.8117L17.9821 23.8223L18.0686 23.9656C18.1972 24.1765 18.3006 24.2756 19.0154 24.8618C19.3718 25.1571 19.6628 25.4059 19.6628 25.4143C19.6628 25.4354 18.9774 26.0048 18.9521 26.0048C18.9416 26.0048 18.8994 25.9605 18.8594 25.9078C18.7834 25.8044 18.5894 25.6484 18.4545 25.5788C18.3322 25.5176 18.0707 25.4565 17.9252 25.4565C17.3559 25.4586 16.8709 25.8445 16.7401 26.4012C16.6979 26.5804 16.7106 26.8714 16.7717 27.0443C16.9067 27.4323 17.223 27.7276 17.6089 27.8288C17.7628 27.8688 18.077 27.8688 18.2289 27.8288C18.6358 27.7212 18.9753 27.3817 19.0829 26.9748C19.0997 26.9115 19.1145 26.8187 19.1145 26.7681V26.6795H19.9032H20.6918L20.7066 26.7997C20.7677 27.2953 21.122 27.7044 21.5943 27.8288C21.7546 27.871 22.0583 27.8688 22.2227 27.8267C22.6065 27.7276 22.9355 27.4113 23.0599 27.0169C23.1253 26.8103 23.121 26.5108 23.0493 26.2894C22.9207 25.8909 22.6128 25.6041 22.2016 25.4987C21.7778 25.389 21.3645 25.505 21.0461 25.8192C20.9681 25.8972 20.8985 25.9626 20.8943 25.9626C20.8753 25.9626 20.2427 25.4291 20.2427 25.4143C20.2427 25.4059 20.5463 25.1465 20.9196 24.8386C21.6323 24.2482 21.7377 24.1491 21.8558 23.9424L21.9296 23.8159L22.6677 23.8075C23.3699 23.7991 23.412 23.7969 23.5533 23.7506C23.7958 23.6704 23.9413 23.5819 24.1248 23.4005C24.3082 23.2192 24.3989 23.0779 24.4685 22.867C24.5339 22.673 24.77 21.1758 24.7616 21.0177C24.7532 20.8659 24.6962 20.7731 24.576 20.7119C24.5022 20.674 24.4495 20.6698 24.1227 20.6698C23.9202 20.6698 23.7536 20.6655 23.7536 20.6592C23.7536 20.6529 24.0341 20.1616 24.3757 19.5669C24.7743 18.8731 24.9978 18.4641 24.9978 18.4261C24.9978 18.2996 24.8249 18.2194 24.7279 18.3017C24.7047 18.3228 24.3841 18.8647 24.0172 19.5036L23.3488 20.6698H21.4552H19.5616L20.4535 19.1177C20.9449 18.2658 21.3518 17.5341 21.3582 17.4941C21.3856 17.3486 21.2949 17.1651 21.1578 17.0955C21.1072 17.0681 20.8247 17.0639 19.182 17.0639H17.2673L17.1576 17.1187ZM21.0081 17.4055C21.0229 17.4266 20.793 17.842 20.1583 18.9469C19.6796 19.7799 19.2811 20.4631 19.2727 20.4652C19.2642 20.4673 19.0133 20.0414 18.7117 19.5205C18.4123 18.9976 18.1508 18.5589 18.1297 18.5442C18.0327 18.4746 17.8704 18.5611 17.8704 18.6812C17.8704 18.7424 19.0766 20.8701 19.1588 20.9544C19.1989 20.9966 19.2326 20.9966 21.1726 21.0029C22.3556 21.005 23.1421 21.0156 23.1379 21.0261C23.1337 21.0388 22.771 21.6735 22.3303 22.4432C21.8621 23.2571 21.491 23.8792 21.4383 23.9403C21.3265 24.0648 19.9854 25.1718 19.9496 25.1697C19.9158 25.1655 18.6295 24.109 18.5072 23.9825C18.4587 23.9319 18.4081 23.8729 18.3954 23.8518C18.3765 23.8138 18.4123 23.8117 19.7471 23.8117C20.5864 23.8117 21.1346 23.8033 21.1578 23.7906C21.1789 23.7801 21.2084 23.7421 21.2232 23.7063C21.2569 23.6261 21.2232 23.5334 21.1473 23.4975C21.1093 23.4806 20.4578 23.4743 18.7919 23.4743C16.2636 23.4743 16.3458 23.4785 16.0991 23.3457C15.8755 23.2276 15.671 22.9872 15.593 22.7468C15.5614 22.6456 15.3189 21.1379 15.3189 21.0324C15.3189 21.0135 15.6541 21.0071 16.9215 21.0071C18.0496 21.0071 18.5367 21.0008 18.5726 20.9839C18.6696 20.9397 18.6991 20.8131 18.6316 20.7309L18.5916 20.6803L17.0016 20.6698L15.4116 20.6592L16.2994 19.1156C16.7865 18.2679 17.1914 17.5784 17.1998 17.5868C17.2061 17.5953 17.2821 17.7197 17.3643 17.8652C17.4486 18.0107 17.5372 18.1499 17.5604 18.1752C17.6447 18.2679 17.8113 18.2216 17.8387 18.0971C17.8514 18.0423 17.8261 17.9854 17.6764 17.7239C17.5815 17.5531 17.4992 17.4076 17.495 17.3971C17.4908 17.3886 18.2752 17.3802 19.2368 17.3802C20.6117 17.3802 20.9913 17.3865 21.0081 17.4055ZM24.4284 21.062C24.4284 21.1337 24.2007 22.5739 24.1733 22.6836C24.1016 22.9535 23.857 23.2445 23.6018 23.3647C23.3952 23.4638 23.275 23.4764 22.6761 23.4701L22.1363 23.4638L22.8406 22.2344L23.547 21.0071H23.9877H24.4284V21.062ZM20.3671 25.9795C20.637 26.2009 20.753 26.3105 20.7466 26.3316C20.7361 26.359 20.618 26.3632 19.9137 26.3632C19.4624 26.3632 19.0934 26.359 19.0934 26.3548C19.0934 26.3358 19.9432 25.6442 19.9601 25.6505C19.9706 25.6547 20.152 25.8023 20.3671 25.9795ZM18.1677 25.834C18.7961 26.0301 18.9901 26.8082 18.5262 27.2721C18.1445 27.6516 17.5414 27.6074 17.223 27.1772C17.0332 26.9199 16.9974 26.591 17.1302 26.3105C17.3179 25.9078 17.7565 25.7074 18.1677 25.834ZM22.1489 25.834C22.3935 25.9099 22.5686 26.0575 22.6845 26.2915C22.9418 26.8018 22.6065 27.4323 22.0287 27.5209C21.6028 27.5884 21.1768 27.3037 21.0672 26.8799C20.987 26.5741 21.0777 26.2536 21.3076 26.0385C21.5437 25.8171 21.8558 25.7433 22.1489 25.834Z" fill="#34C75A" stroke="#34C75A" stroke-width="0.4"/>
</g>
<defs>
<clipPath id="clip0_6910_92987">
<rect width="11.3963" height="11.6962" fill="white" transform="translate(14.2812 16.7656)"/>
</clipPath>
</defs>
</svg>
