<svg width="20" height="20" viewBox="0 0 20 20" fill="none" xmlns="http://www.w3.org/2000/svg">
<path d="M6 4C5.97222 4 5.94444 4 5.91667 4C5.86111 4 5.81944 4 5.76389 4H5.72222C4.19444 4.16241 3 5.67285 3 7.49188C3 9.42459 4.34722 11 6 11C7.56944 11 8.84722 9.60325 8.98611 7.81671L9 7.80046V7.76798C9 7.70302 9 7.65429 9 7.58933C9 7.55684 9 7.52436 9 7.49188C9 5.57541 7.65278 4 6 4ZM5.84722 7.67053V4.22738C5.86111 4.22738 5.875 4.22738 5.88889 4.22738C6.65278 4.22738 7.40278 4.58469 7.94444 5.2181C8.5 5.86775 8.80556 6.76102 8.79167 7.67053H5.84722Z" fill="#9FB4CB"/>
<path d="M18.1493 2H1.86467C1.3891 2 1 2.40331 1 2.89969V14.394C1 14.8904 1.3891 15.2937 1.86467 15.2937H8.36413L8.09032 16.0693H6.82213C6.57714 16.0693 6.3898 16.2865 6.3898 16.5346C6.3898 16.7983 6.59155 17 6.82213 17H13.1775C13.4225 17 13.6098 16.7828 13.6098 16.5346C13.6098 16.2709 13.4081 16.0693 13.1775 16.0693H11.9093L11.6355 15.2937H18.1349C18.6105 15.2937 18.9996 14.8904 18.9996 14.394V2.89969C19.014 2.40331 18.6249 2 18.1493 2ZM18.1493 14.4095H1.86467C1.82144 14.4095 1.80703 14.394 1.80703 14.3785V2.88418C1.80703 2.88418 1.82144 2.85315 1.86467 2.85315H18.1493C18.1926 2.85315 18.207 2.86867 18.207 2.88418V14.3785C18.207 14.3785 18.1926 14.4095 18.1493 14.4095Z" fill="#9FB4CB"/>
<path d="M8 11H7V14H8V11Z" fill="#9FB4CB"/>
<path d="M6 11H5V13H6V11Z" fill="#9FB4CB"/>
<path d="M4 12H3V14H4V12Z" fill="#9FB4CB"/>
<path d="M10 10H9V14H10V10Z" fill="#9FB4CB"/>
<path d="M13 11H12V14H13V11Z" fill="#9FB4CB"/>
<path d="M15 9H14V14H15V9Z" fill="#9FB4CB"/>
<path d="M17 5H16V13H17V5Z" fill="#9FB4CB"/>
</svg>
