<svg width="20" height="20" viewBox="0 0 20 20" fill="none" xmlns="http://www.w3.org/2000/svg">
<path d="M4.75892 1.70342C4.48215 1.77517 4.19855 1.93235 3.90811 2.18179C3.58692 2.45856 2.43541 3.63056 2.24748 3.87316C1.48551 4.84698 1.47184 6.36068 2.2099 8.31516C3.10855 10.7036 4.79309 13.1228 6.92525 15.0875C9.8638 17.7971 13.8001 19.55 15.8263 19.058C16.127 18.9862 16.6259 18.7539 16.8548 18.5796C17.0872 18.4053 18.6316 16.8199 18.7751 16.6114C19.0417 16.2253 19.1442 15.7094 19.0417 15.272C18.9255 14.7834 18.8879 14.739 17.4015 13.2492C15.9015 11.7492 15.8537 11.7116 15.3582 11.6091C14.9653 11.5271 14.5655 11.5988 14.1794 11.8209C14.0905 11.8756 13.6668 12.2617 13.2397 12.6854L12.4641 13.4508L12.2146 13.321C11.603 13.0032 11.152 12.6991 10.4788 12.1455C9.78863 11.5783 8.82506 10.584 8.29202 9.88694C7.90591 9.38124 7.3387 8.44842 7.33528 8.32199C7.33528 8.29808 7.6018 8.01789 7.92641 7.70011C8.60979 7.03381 8.87973 6.72287 9.03349 6.42902C9.22484 6.05658 9.26242 5.58504 9.12916 5.19551C8.9959 4.79915 8.86606 4.6488 7.5608 3.34012C6.2692 2.04853 6.07102 1.87768 5.70199 1.75126C5.44572 1.659 5.02202 1.6385 4.75892 1.70342ZM5.55165 2.66357C5.64732 2.71824 6.19403 3.2342 6.92867 3.97225C8.25785 5.30485 8.3091 5.36636 8.30569 5.7183C8.30569 6.02924 8.22368 6.13858 7.33186 7.0304C6.88083 7.47801 6.48788 7.89146 6.46055 7.94955C6.41955 8.02131 6.40929 8.1204 6.41955 8.28782C6.4298 8.49284 6.45713 8.57143 6.66556 8.98488C7.1371 9.92111 7.75898 10.7446 8.78747 11.797C9.80913 12.8426 10.8274 13.6216 11.8764 14.1615C12.2488 14.3529 12.3206 14.3802 12.4914 14.3768C12.6076 14.3768 12.7306 14.3529 12.8024 14.3153C12.8673 14.2811 13.291 13.8847 13.742 13.4371C14.3229 12.8597 14.6065 12.6034 14.7158 12.5556C14.9208 12.4633 15.1874 12.4633 15.3753 12.5556C15.5803 12.6581 17.9961 15.0704 18.102 15.2823C18.1601 15.395 18.184 15.4975 18.184 15.6445C18.184 15.9964 18.1123 16.0921 17.1418 17.0659C16.1817 18.0295 16.0929 18.0944 15.5803 18.2106C15.0849 18.3199 14.2545 18.2311 13.414 17.9816C12.1326 17.6024 10.4105 16.6935 8.99249 15.6479C6.26237 13.6387 3.91836 10.5669 2.94454 7.72745C2.47983 6.37777 2.42858 5.41078 2.78394 4.69322C2.89328 4.46429 2.99579 4.34811 3.70651 3.62714C4.14388 3.18294 4.56416 2.77975 4.63591 2.72849C4.94343 2.51665 5.25779 2.49273 5.55165 2.66357Z" fill="#4C5D70" stroke="#4C5D70" stroke-width="0.4"/>
</svg>
