<svg width="23" height="23" viewBox="0 0 23 23" fill="none" xmlns="http://www.w3.org/2000/svg">
<path d="M10.4939 0.0274887C8.81582 0.186886 7.5672 0.541105 6.15475 1.2584C4.48106 2.11295 2.98006 3.45898 1.88198 5.08838C1.4215 5.77911 0.854745 6.9436 0.580226 7.76716C0.363266 8.43132 0.186157 9.18846 0.0798912 9.93675C0.00461962 10.4592 0.00461962 12.2037 0.0798912 12.7262C0.265856 14.0324 0.61122 15.1748 1.1514 16.2684C1.758 17.5082 2.35575 18.3406 3.33871 19.328C4.31724 20.3021 5.16293 20.9087 6.354 21.4931C7.18641 21.9005 7.72217 22.0997 8.56786 22.3123C10.7817 22.8702 13.0045 22.7639 15.1652 21.9979C15.8294 21.7632 16.9717 21.1876 17.5562 20.798C18.8933 19.9036 20.0933 18.6727 20.9611 17.3089C21.2799 16.8086 21.7935 15.7459 22.0016 15.157C23.0421 12.2259 22.8606 9.0822 21.4924 6.33258C20.9434 5.22565 20.3279 4.35338 19.4645 3.46341C18.517 2.48045 17.5606 1.7853 16.3164 1.16984C15.0058 0.523394 13.7837 0.173603 12.3314 0.0407715C11.8798 0.000921249 10.857 -0.00793266 10.4939 0.0274887ZM12.907 1.54177C15.7142 2.01554 18.0919 3.56524 19.6505 5.94736C20.4032 7.08972 20.9168 8.44018 21.1515 9.89247C21.2578 10.5699 21.2578 12.0931 21.1515 12.7705C20.6733 15.7282 19.0527 18.1812 16.5378 19.7663C15.4619 20.4438 14.1601 20.922 12.7742 21.1478C12.0923 21.254 10.5736 21.254 9.89618 21.1433C7.6956 20.7847 5.88023 19.8682 4.33495 18.3273C2.80738 16.8086 1.87755 14.9711 1.51891 12.7705C1.41264 12.0931 1.41264 10.5699 1.51891 9.89247C1.98382 7.02773 3.4981 4.65447 5.87137 3.06934C7.22626 2.16166 8.8601 1.59491 10.5382 1.43994C11.0164 1.39566 12.389 1.45765 12.907 1.54177Z" fill="#2EB42B"/>
<path d="M11.0451 5.72569C10.8812 5.80097 10.7351 5.95594 10.6731 6.11976C10.6421 6.20389 10.6244 6.99203 10.6244 8.43104V10.6183L8.37071 10.6316C6.17012 10.6449 6.11256 10.6493 5.99301 10.7379C5.75834 10.9106 5.6875 11.0523 5.6875 11.3312C5.6875 11.6102 5.75834 11.7518 5.99301 11.9245C6.11256 12.0131 6.17012 12.0175 8.36628 12.0308L10.62 12.0441L10.6333 14.2978C10.6466 16.4939 10.651 16.5515 10.7395 16.671C10.9122 16.9057 11.0539 16.9766 11.3329 16.9766C11.6118 16.9766 11.7535 16.9057 11.9262 16.671C12.0147 16.5515 12.0192 16.4939 12.0324 14.2978L12.0457 12.0441L14.2994 12.0308C16.4956 12.0175 16.5532 12.0131 16.6727 11.9245C16.9074 11.7518 16.9782 11.6102 16.9782 11.3312C16.9782 11.0523 16.9074 10.9106 16.6727 10.7379C16.5532 10.6493 16.4956 10.6449 14.2994 10.6316L12.0457 10.6183L12.0324 8.36462C12.0192 6.16847 12.0147 6.11091 11.9262 5.99136C11.8775 5.92494 11.7845 5.82753 11.7225 5.78325C11.572 5.67256 11.2222 5.64157 11.0451 5.72569Z" fill="#2EB42B"/>
</svg>
