<svg width="20" height="20" viewBox="0 0 20 20" fill="none" xmlns="http://www.w3.org/2000/svg">
<path d="M2.45703 0.660157C2.29297 0.710938 2.1875 0.781251 1.71484 1.13672C1.21094 1.51563 1.05078 1.6875 0.980469 1.91016C0.949219 2.01953 0.9375 3.55859 0.9375 7.59375V13.125H1.25H1.5625V7.65625V2.1875H2.87109H4.18359L4.27734 2.28516L4.375 2.37891V7.75391V13.125H4.6875H5V7.73828C5 4.58203 4.98438 2.30859 4.96484 2.25391C4.92969 2.16797 4.95703 2.14063 5.27734 1.90234L5.625 1.64063V7.38281V13.125H5.9375H6.25V7.28125C6.25 2.80469 6.23828 1.39844 6.20313 1.27344C6.14063 1.05859 5.81641 0.734376 5.60156 0.671876C5.41797 0.617188 2.63281 0.609376 2.45703 0.660157ZM5.05469 1.28125C5.03516 1.30078 4.91016 1.39844 4.77734 1.49609L4.53906 1.67969L4.375 1.62109C4.24609 1.57422 3.99609 1.5625 3.21484 1.5625C2.63281 1.5625 2.23047 1.54688 2.24219 1.52734C2.25781 1.50781 2.34766 1.4375 2.44922 1.37109L2.62891 1.25H3.86328C4.53906 1.25 5.07813 1.26563 5.05469 1.28125Z" fill="#2EB42B"/>
<path d="M9.01953 4.09766C8.85547 4.14844 8.75 4.21875 8.27734 4.57422C7.77344 4.95312 7.61328 5.125 7.54297 5.34766C7.51172 5.45703 7.5 6.56641 7.5 9.3125V13.125H7.8125H8.125V9.375V5.625H9.43359H10.7461L10.8398 5.72266L10.9375 5.81641V9.47266V13.125H11.25H11.5625V9.45703C11.5625 7.33984 11.5469 5.74609 11.5273 5.69141C11.4922 5.60547 11.5195 5.57812 11.8398 5.33984L12.1875 5.07812V9.10156V13.125H12.5H12.8125V9C12.8125 5.875 12.8008 4.83203 12.7656 4.71094C12.7031 4.49609 12.3789 4.17188 12.1641 4.10938C11.9805 4.05469 9.19531 4.04688 9.01953 4.09766ZM11.6172 4.71875C11.5977 4.73828 11.4727 4.83594 11.3398 4.93359L11.1016 5.11719L10.9375 5.05859C10.8086 5.01172 10.5586 5 9.77734 5C9.19531 5 8.79297 4.98438 8.80469 4.96484C8.82031 4.94531 8.91016 4.875 9.01172 4.80859L9.19141 4.6875H10.4258C11.1016 4.6875 11.6406 4.70312 11.6172 4.71875Z" fill="#2EB42B"/>
<path d="M15.582 6.75391C15.418 6.80469 15.3125 6.875 14.8398 7.23047C14.3359 7.60937 14.1758 7.78125 14.1055 8.00391C14.0742 8.10937 14.0625 8.89062 14.0625 10.6406V13.125H14.375H14.6875V10.7031V8.28125H15.9961H17.3086L17.4023 8.37891L17.5 8.47266V10.8008V13.125H17.8125H18.125V10.7852C18.125 9.46875 18.1094 8.40234 18.0898 8.34766C18.0547 8.26172 18.082 8.23437 18.4023 7.99609L18.75 7.73437V10.4297V13.125H19.0625H19.375V10.3281C19.375 8.24219 19.3633 7.48828 19.3281 7.36719C19.2656 7.15234 18.9414 6.82812 18.7266 6.76562C18.543 6.71094 15.7578 6.70312 15.582 6.75391ZM18.1797 7.375C18.1602 7.39453 18.0352 7.49219 17.9023 7.58984L17.6641 7.77344L17.5 7.71484C17.3711 7.66797 17.1211 7.65625 16.3398 7.65625C15.7578 7.65625 15.3555 7.64062 15.3672 7.62109C15.3828 7.60156 15.4727 7.53125 15.5742 7.46484L15.7539 7.34375H16.9883C17.6641 7.34375 18.2031 7.35937 18.1797 7.375Z" fill="#2EB42B"/>
<path d="M2.89056 13.8045C2.28509 13.9373 1.89056 14.1522 1.44525 14.6053C1.18353 14.867 1.07415 15.0154 0.945248 15.2733C0.70306 15.7615 0.644467 16.0233 0.648373 16.6014C0.652279 17.0194 0.667904 17.1365 0.753842 17.4022C0.902279 17.8514 1.1054 18.1795 1.46478 18.535C1.82806 18.8983 2.08978 19.0623 2.56634 19.2303C2.87884 19.3397 2.95697 19.3514 3.39837 19.3514C3.9765 19.3553 4.24212 19.2967 4.71869 19.0545C5.69915 18.5662 6.31634 17.4725 6.23822 16.3631C6.18744 15.6717 5.92181 15.1014 5.41009 14.5897C4.86712 14.0467 4.30462 13.7967 3.55462 13.7694C3.2929 13.7576 3.05462 13.7733 2.89056 13.8045ZM3.94134 14.4334C4.49994 14.5662 5.08197 15.0076 5.33587 15.492C5.55072 15.8983 5.6054 16.1131 5.6054 16.5623C5.6054 16.8592 5.58587 17.0311 5.53119 17.1873C5.44915 17.4334 5.23822 17.8514 5.19525 17.8514C5.17962 17.8514 5.14447 17.7459 5.11712 17.617C5.039 17.242 4.86712 16.9959 4.58978 16.8553C4.46087 16.7889 4.31634 16.7225 4.26556 16.7108L4.17962 16.6873L4.26165 16.5428C4.37103 16.3631 4.40619 15.9334 4.33587 15.6834C4.2304 15.3123 3.82415 14.9998 3.44525 14.9998C3.06244 14.9998 2.64056 15.3123 2.5429 15.6756C2.46869 15.9334 2.50384 16.3592 2.61322 16.5428L2.69525 16.6873L2.60931 16.7108C2.55853 16.7225 2.414 16.7889 2.28509 16.8553C2.00775 16.9959 1.83587 17.242 1.75775 17.617C1.7304 17.7459 1.69525 17.8514 1.67962 17.8514C1.664 17.8514 1.6054 17.7654 1.54681 17.6561C1.17962 16.9842 1.16009 16.2772 1.48822 15.5975C1.92181 14.6912 2.95697 14.2029 3.94134 14.4334ZM3.65228 15.7225C3.7304 15.7967 3.74994 15.8553 3.74994 16.0115C3.74994 16.2615 3.62884 16.4178 3.43744 16.4178C3.24603 16.4178 3.12494 16.2615 3.12494 16.0115C3.12494 15.7733 3.24603 15.6248 3.43744 15.6248C3.51165 15.6248 3.59369 15.66 3.65228 15.7225ZM3.88665 17.2498C4.12103 17.3279 4.34759 17.4217 4.38275 17.4569C4.43744 17.5076 4.64837 18.2225 4.64837 18.3592C4.64837 18.3826 4.51556 18.4647 4.3554 18.5389C3.76165 18.8123 3.09369 18.8123 2.51556 18.535C2.3554 18.4569 2.2265 18.3787 2.2265 18.3553C2.2265 18.2342 2.43353 17.5115 2.48431 17.4608C2.53509 17.41 3.30853 17.1209 3.4179 17.1131C3.43744 17.1092 3.64837 17.1717 3.88665 17.2498Z" fill="#2EB42B"/>
<path d="M9.45306 13.8045C8.84759 13.9373 8.45306 14.1522 8.00775 14.6053C7.74603 14.867 7.63665 15.0154 7.50775 15.2733C7.26556 15.7615 7.20697 16.0233 7.21087 16.6014C7.21478 17.0194 7.2304 17.1365 7.31634 17.4022C7.46478 17.8514 7.6679 18.1795 8.02728 18.535C8.39056 18.8983 8.65228 19.0623 9.12884 19.2303C9.44134 19.3397 9.51947 19.3514 9.96087 19.3514C10.539 19.3553 10.8046 19.2967 11.2812 19.0545C12.2617 18.5662 12.8788 17.4725 12.8007 16.3631C12.7499 15.6717 12.4843 15.1014 11.9726 14.5897C11.4296 14.0467 10.8671 13.7967 10.1171 13.7694C9.8554 13.7576 9.61712 13.7733 9.45306 13.8045ZM10.5038 14.4334C11.0624 14.5662 11.6445 15.0076 11.8984 15.492C12.1132 15.8983 12.1679 16.1131 12.1679 16.5623C12.1679 16.8592 12.1484 17.0311 12.0937 17.1873C12.0117 17.4334 11.8007 17.8514 11.7577 17.8514C11.7421 17.8514 11.707 17.7459 11.6796 17.617C11.6015 17.242 11.4296 16.9959 11.1523 16.8553C11.0234 16.7889 10.8788 16.7225 10.8281 16.7108L10.7421 16.6873L10.8242 16.5428C10.9335 16.3631 10.9687 15.9334 10.8984 15.6834C10.7929 15.3123 10.3867 14.9998 10.0077 14.9998C9.62494 14.9998 9.20306 15.3123 9.1054 15.6756C9.03119 15.9334 9.06634 16.3592 9.17572 16.5428L9.25775 16.6873L9.17181 16.7108C9.12103 16.7225 8.9765 16.7889 8.84759 16.8553C8.57025 16.9959 8.39837 17.242 8.32025 17.617C8.2929 17.7459 8.25775 17.8514 8.24212 17.8514C8.2265 17.8514 8.1679 17.7654 8.10931 17.6561C7.74212 16.9842 7.72259 16.2772 8.05072 15.5975C8.48431 14.6912 9.51947 14.2029 10.5038 14.4334ZM10.2148 15.7225C10.2929 15.7967 10.3124 15.8553 10.3124 16.0115C10.3124 16.2615 10.1913 16.4178 9.99994 16.4178C9.80853 16.4178 9.68744 16.2615 9.68744 16.0115C9.68744 15.7733 9.80853 15.6248 9.99994 15.6248C10.0742 15.6248 10.1562 15.66 10.2148 15.7225ZM10.4492 17.2498C10.6835 17.3279 10.9101 17.4217 10.9452 17.4569C10.9999 17.5076 11.2109 18.2225 11.2109 18.3592C11.2109 18.3826 11.0781 18.4647 10.9179 18.5389C10.3242 18.8123 9.65619 18.8123 9.07806 18.535C8.9179 18.4569 8.789 18.3787 8.789 18.3553C8.789 18.2342 8.99603 17.5115 9.04681 17.4608C9.09759 17.41 9.87103 17.1209 9.9804 17.1131C9.99994 17.1092 10.2109 17.1717 10.4492 17.2498Z" fill="#2EB42B"/>
<path d="M16.0156 13.8045C15.4101 13.9373 15.0156 14.1522 14.5702 14.6053C14.3085 14.867 14.1992 15.0154 14.0702 15.2733C13.8281 15.7615 13.7695 16.0233 13.7734 16.6014C13.7773 17.0194 13.7929 17.1365 13.8788 17.4022C14.0273 17.8514 14.2304 18.1795 14.5898 18.535C14.9531 18.8983 15.2148 19.0623 15.6913 19.2303C16.0038 19.3397 16.082 19.3514 16.5234 19.3514C17.1015 19.3553 17.3671 19.2967 17.8437 19.0545C18.8242 18.5662 19.4413 17.4725 19.3632 16.3631C19.3124 15.6717 19.0468 15.1014 18.5351 14.5897C17.9921 14.0467 17.4296 13.7967 16.6796 13.7694C16.4179 13.7576 16.1796 13.7733 16.0156 13.8045ZM17.0663 14.4334C17.6249 14.5662 18.207 15.0076 18.4609 15.492C18.6757 15.8983 18.7304 16.1131 18.7304 16.5623C18.7304 16.8592 18.7109 17.0311 18.6562 17.1873C18.5742 17.4334 18.3632 17.8514 18.3202 17.8514C18.3046 17.8514 18.2695 17.7459 18.2421 17.617C18.164 17.242 17.9921 16.9959 17.7148 16.8553C17.5859 16.7889 17.4413 16.7225 17.3906 16.7108L17.3046 16.6873L17.3867 16.5428C17.496 16.3631 17.5312 15.9334 17.4609 15.6834C17.3554 15.3123 16.9492 14.9998 16.5702 14.9998C16.1874 14.9998 15.7656 15.3123 15.6679 15.6756C15.5937 15.9334 15.6288 16.3592 15.7382 16.5428L15.8202 16.6873L15.7343 16.7108C15.6835 16.7225 15.539 16.7889 15.4101 16.8553C15.1327 16.9959 14.9609 17.242 14.8827 17.617C14.8554 17.7459 14.8202 17.8514 14.8046 17.8514C14.789 17.8514 14.7304 17.7654 14.6718 17.6561C14.3046 16.9842 14.2851 16.2772 14.6132 15.5975C15.0468 14.6912 16.082 14.2029 17.0663 14.4334ZM16.7773 15.7225C16.8554 15.7967 16.8749 15.8553 16.8749 16.0115C16.8749 16.2615 16.7538 16.4178 16.5624 16.4178C16.371 16.4178 16.2499 16.2615 16.2499 16.0115C16.2499 15.7733 16.371 15.6248 16.5624 15.6248C16.6367 15.6248 16.7187 15.66 16.7773 15.7225ZM17.0117 17.2498C17.246 17.3279 17.4726 17.4217 17.5077 17.4569C17.5624 17.5076 17.7734 18.2225 17.7734 18.3592C17.7734 18.3826 17.6406 18.4647 17.4804 18.5389C16.8867 18.8123 16.2187 18.8123 15.6406 18.535C15.4804 18.4569 15.3515 18.3787 15.3515 18.3553C15.3515 18.2342 15.5585 17.5115 15.6093 17.4608C15.6601 17.41 16.4335 17.1209 16.5429 17.1131C16.5624 17.1092 16.7734 17.1717 17.0117 17.2498Z" fill="#2EB42B"/>
</svg>
