<svg width="18" height="18" viewBox="0 0 18 18" fill="none" xmlns="http://www.w3.org/2000/svg">
<path d="M1.18754 0.332031C0.972696 0.429688 0.777384 0.609375 0.668009 0.816406L0.582071 0.972656L0.570353 8.33203C0.558634 16.4453 0.546915 15.9297 0.800821 16.2422C0.871134 16.3242 1.01567 16.4336 1.12504 16.4844L1.32426 16.5781H6.98051H12.6368L12.9961 16.9414C13.5625 17.5156 14.0508 17.7266 14.8204 17.7266C15.2969 17.7266 15.6016 17.6562 16.0118 17.4531C16.9649 16.9883 17.5313 15.957 17.4063 14.918C17.3282 14.2969 17.1329 13.8633 16.7266 13.4297C16.4532 13.1406 16.1172 12.9102 15.793 12.7891L15.5625 12.7031V6.87891C15.5625 2.57812 15.5508 1.01953 15.5157 0.910156C15.4571 0.710938 15.2461 0.464844 15.0391 0.355469L14.8789 0.269531L8.12113 0.261719C1.39067 0.25 1.36332 0.25 1.18754 0.332031ZM14.8164 0.976562L14.9375 1.07812V6.83203V12.582L14.6329 12.6094C14.0039 12.6641 13.3555 12.9883 12.9258 13.4648C12.6797 13.7344 12.4336 14.2031 12.3399 14.5664C12.2657 14.8555 12.2657 15.4766 12.336 15.75L12.3868 15.9531H6.89067H1.39457L1.30082 15.8516L1.20707 15.75L1.19535 8.46875C1.18754 0.535156 1.17192 1.00391 1.39457 0.914062C1.44145 0.894531 4.3516 0.878906 8.08988 0.878906L14.6954 0.875L14.8164 0.976562ZM15.4532 13.3359C15.7539 13.4297 16.1133 13.6523 16.3125 13.875C16.6914 14.2969 16.875 14.9922 16.7579 15.5547C16.5 16.793 15.1368 17.4766 14.0118 16.9258C13.0118 16.4414 12.6211 15.2891 13.1172 14.2734C13.336 13.8164 13.836 13.418 14.336 13.3008C14.6211 13.2344 15.1836 13.25 15.4532 13.3359Z" fill="#FF8F0B"/>
<path d="M7.56654 2.0824C7.25794 2.27381 7.44154 2.73084 7.80873 2.67615C7.94935 2.65662 8.06263 2.516 8.06263 2.35584C8.06263 2.24256 8.03529 2.18787 7.94154 2.10975C7.80091 1.98865 7.7306 1.98475 7.56654 2.0824Z" fill="#FF8F0B"/>
<path d="M2.81252 2.12891C2.6758 2.23828 2.6719 2.44141 2.80861 2.57812L2.90627 2.67578L4.5508 2.66406L6.19533 2.65234L6.26955 2.55859C6.37111 2.43359 6.3633 2.25781 6.24611 2.14453L6.15236 2.04688H4.53518C2.95705 2.04688 2.91408 2.05078 2.81252 2.12891Z" fill="#FF8F0B"/>
<path d="M3.00781 3.90234C2.78516 3.98047 2.58594 4.16016 2.46875 4.39062L2.35938 4.59375V8.41016V12.2227L2.45312 12.418C2.55078 12.6328 2.76172 12.8398 2.98047 12.9414C3.10937 12.9961 3.58594 13.0039 8.08203 13.0039H13.043L13.2422 12.8984C13.3555 12.8398 13.5 12.7266 13.5664 12.6445C13.8164 12.3398 13.8086 12.5234 13.7969 8.35156L13.7852 4.56641L13.6992 4.41016C13.5898 4.20312 13.3945 4.02344 13.1797 3.92578C13.0078 3.84766 12.9492 3.84375 8.08203 3.84766C3.99609 3.84766 3.13281 3.85547 3.00781 3.90234ZM12.9883 4.50781C13.1797 4.61328 13.1797 4.58594 13.1797 7.42578V10.0742L12.1328 9.02734C11.3672 8.26562 11.0625 7.98438 10.9961 7.98438C10.9453 7.98438 10.3555 8.22266 9.67969 8.51172C9.00391 8.80078 8.4375 9.03906 8.42578 9.03906C8.41016 9.03906 7.99219 8.63281 7.49609 8.14062C6.75 7.39844 6.57031 7.24219 6.48047 7.24219C6.42187 7.24219 5.63281 7.55859 4.72656 7.94922C3.82422 8.33984 3.05859 8.66406 3.03516 8.67578C2.99609 8.69141 2.98437 8.28125 2.98437 6.69531V4.69531L3.09766 4.58203L3.21094 4.46875H8.0625C11.3125 4.46875 12.9375 4.48047 12.9883 4.50781ZM9.37891 10.8359C9.60547 10.8359 9.77344 10.6406 9.72266 10.4375C9.70703 10.3867 9.51562 10.1602 9.29297 9.9375L8.89062 9.53516L9.87109 9.10938C10.4102 8.87891 10.8672 8.6875 10.8828 8.6875C10.9023 8.6875 11.4258 9.19141 12.0508 9.80859L13.1797 10.9258V11.5234V12.125L13.0664 12.25L12.9531 12.3789L8.19141 12.3906C5.57422 12.3945 3.37891 12.3906 3.3125 12.3789C3.24219 12.3672 3.14062 12.3125 3.08594 12.2539L2.98437 12.1523V10.7617L2.98828 9.37109L4.67578 8.64453L6.36328 7.91797L7.82812 9.37891C8.85547 10.3984 9.32031 10.8359 9.37891 10.8359Z" fill="#FF8F0B"/>
<path d="M9.27747 5.17555C8.32825 5.35524 8.15247 6.6443 9.01966 7.06618C9.43372 7.2693 9.88294 7.18336 10.1954 6.84352C10.8439 6.13649 10.2189 4.99977 9.27747 5.17555ZM9.75403 5.91774C9.85169 6.03883 9.87513 6.17165 9.82044 6.30836C9.75403 6.46461 9.62513 6.54665 9.44153 6.54665C9.25013 6.54665 9.07825 6.36696 9.07825 6.17165C9.07825 6.0154 9.23059 5.80836 9.36341 5.78883C9.49622 5.7654 9.67591 5.8279 9.75403 5.91774Z" fill="#FF8F0B"/>
<path d="M2.84369 14.2035C2.66009 14.2895 2.62103 14.559 2.76947 14.7192C2.97259 14.9379 3.33587 14.7778 3.33587 14.4692C3.33587 14.3559 3.12884 14.1567 3.01556 14.1606C2.96478 14.1606 2.88665 14.1801 2.84369 14.2035Z" fill="#FF8F0B"/>
<path d="M4.13669 14.2461C3.91404 14.4336 4.05857 14.8203 4.35154 14.8203C4.6406 14.8203 4.77732 14.4609 4.56638 14.2539C4.44529 14.1289 4.27341 14.1289 4.13669 14.2461Z" fill="#FF8F0B"/>
<path d="M5.53516 14.2033C5.48829 14.2268 5.4297 14.2932 5.40626 14.3557C5.26563 14.6955 5.67188 14.9768 5.9297 14.7189C6.19923 14.4494 5.88282 14.0353 5.53516 14.2033Z" fill="#FF8F0B"/>
<path d="M14.7188 13.7073C14.6562 13.7347 14.3633 14.0003 14.0703 14.3011C13.6016 14.7738 13.5312 14.8636 13.5312 14.973C13.5312 15.137 13.6797 15.2894 13.8477 15.2894C13.9453 15.2894 14.0234 15.2347 14.2578 15.0081L14.5469 14.7308V15.598C14.5469 16.0902 14.5625 16.4964 14.5859 16.5394C14.6367 16.6331 14.8398 16.6995 14.9492 16.6605C15.1406 16.5862 15.1523 16.5433 15.1719 15.6253L15.1914 14.762L15.4688 15.0237C15.6836 15.2308 15.7695 15.2894 15.8633 15.2894C16.0195 15.2894 16.1484 15.1487 16.1484 14.973C16.1484 14.8519 16.0938 14.7855 15.5742 14.2698C15.2539 13.9534 14.9609 13.6878 14.9141 13.68C14.8672 13.6683 14.7812 13.68 14.7188 13.7073Z" fill="#FF8F0B"/>
</svg>
