<svg width="20" height="20" viewBox="0 0 20 20" fill="none" xmlns="http://www.w3.org/2000/svg">
<path d="M7.99363 0.559366C7.72801 0.633585 7.51316 0.797647 7.23582 1.15312C7.0991 1.32108 6.89207 1.57108 6.77098 1.7078C6.57566 1.92265 6.52098 1.9578 6.29051 2.02421C6.14988 2.06718 5.82566 2.12577 5.57566 2.15702C5.05613 2.22733 4.81004 2.31718 4.5952 2.52812C4.32957 2.78202 4.25535 2.98124 4.1616 3.7078C4.13035 3.9539 4.08348 4.22343 4.06004 4.30937C4.00145 4.50468 3.77488 4.74687 3.32957 5.0789C2.73191 5.52812 2.56004 5.79765 2.56785 6.2664C2.57176 6.55155 2.61082 6.69218 2.86863 7.31718C3.11082 7.89921 3.0991 8.07499 2.75535 8.91093C2.38426 9.80546 2.50145 10.2 3.32957 10.8445C3.56785 11.0281 3.80223 11.2234 3.85301 11.282C4.01707 11.4617 4.0991 11.6961 4.1577 12.1726C4.25145 12.8836 4.33738 13.1297 4.58348 13.3758C4.7241 13.5164 4.8491 13.5984 4.98582 13.6453L5.18895 13.7117L5.07957 14.0125C5.01707 14.1766 4.68113 15.075 4.33348 16.0086C3.89988 17.1648 3.70848 17.7273 3.7241 17.7898C3.75926 17.9266 3.85691 18.0047 3.98973 18.0047C4.05223 18.0047 4.61863 17.8367 5.24363 17.6336C5.88426 17.4226 6.39598 17.2781 6.4116 17.2937C6.43113 17.3133 6.73191 17.8016 7.07957 18.3797C7.76316 19.5086 7.80223 19.5516 8.0327 19.4422C8.13035 19.3953 8.21238 19.1961 8.9116 17.3211C9.33738 16.1805 9.71238 15.1766 9.74754 15.0828C9.80613 14.9226 9.81004 14.9187 9.99754 14.9187C10.185 14.9187 10.1889 14.9226 10.2475 15.0828C10.2827 15.1766 10.6577 16.1805 11.0835 17.3211C12.0952 20.0398 11.9585 19.9617 12.9155 18.3797C13.2632 17.8016 13.5639 17.3133 13.5835 17.2937C13.603 17.2742 14.0796 17.4109 14.7514 17.6336C15.3764 17.8367 15.9389 18.0047 16.0054 18.0047C16.1382 18.0047 16.2358 17.9266 16.271 17.7898C16.2866 17.7273 16.0639 17.0828 15.5522 15.7117C14.9155 14.0047 14.8179 13.7234 14.8725 13.7C14.9116 13.6883 15.0014 13.6531 15.0757 13.6258C15.2514 13.5594 15.5327 13.3016 15.6264 13.118C15.7163 12.9383 15.7632 12.7351 15.8374 12.1922C15.8686 11.9617 15.9116 11.7078 15.935 11.6219C15.9936 11.4266 16.2202 11.1844 16.6655 10.8523C17.2593 10.4031 17.4311 10.1375 17.4311 9.66483C17.4272 9.44218 17.3999 9.32108 17.2827 9.0203C16.8569 7.93046 16.8569 7.97343 17.2632 6.97343C17.5991 6.13749 17.4741 5.71171 16.7046 5.11796C15.9858 4.56327 15.9155 4.44608 15.8179 3.64921C15.7436 3.03983 15.6538 2.79765 15.4077 2.55155C15.1616 2.30546 14.9155 2.21952 14.2085 2.12968C13.9585 2.09452 13.685 2.04374 13.603 2.00858C13.4077 1.92655 13.2124 1.73515 12.8686 1.28202C12.4155 0.688272 12.1655 0.528116 11.6968 0.532022C11.4741 0.532022 11.353 0.559366 11.0522 0.68046C9.9741 1.10233 9.96629 1.10233 9.15379 0.758585C8.79832 0.606241 8.4116 0.500772 8.24363 0.508585C8.20848 0.508585 8.0952 0.532022 7.99363 0.559366ZM8.9741 1.32108C9.2241 1.42655 9.51316 1.53202 9.61473 1.55546C10.0249 1.65312 10.4116 1.59062 11.0171 1.32499C11.2085 1.23905 11.4429 1.14921 11.5405 1.12577C11.8647 1.04374 12.0483 1.17265 12.5366 1.82499C13.0054 2.44999 13.271 2.59452 14.1811 2.71171C15.0327 2.82108 15.146 2.93436 15.2514 3.78593C15.3569 4.66874 15.5171 4.9578 16.1382 5.42655C16.7593 5.8914 16.8999 6.07499 16.8491 6.35624C16.8335 6.43437 16.7436 6.68437 16.6499 6.90312C16.3061 7.71562 16.2827 8.11015 16.5405 8.73124C16.8179 9.40312 16.8804 9.61015 16.853 9.75468C16.8218 9.92655 16.6382 10.1219 16.1694 10.4773C15.5093 10.9812 15.3608 11.2547 15.2514 12.1453C15.1811 12.6961 15.0874 12.9422 14.896 13.0516C14.8335 13.0906 14.603 13.1453 14.3882 13.1805C13.5874 13.3055 13.5054 13.3211 13.2983 13.4109C13.0288 13.532 12.7866 13.7586 12.4975 14.1531C12.2319 14.5242 12.0132 14.743 11.8569 14.8016C11.7046 14.8601 11.5288 14.8172 11.06 14.618C10.1694 14.243 9.79441 14.2391 8.9741 14.6062C8.54051 14.8016 8.31004 14.8562 8.14598 14.8016C7.98973 14.7508 7.7866 14.5437 7.45848 14.1062C6.99363 13.4851 6.70066 13.325 5.81785 13.2195C4.96238 13.1141 4.8491 13.0008 4.74363 12.1453C4.63816 11.2625 4.47801 10.9695 3.85691 10.5047C3.41941 10.1766 3.21238 9.97343 3.1616 9.81718C3.10691 9.65312 3.1616 9.42265 3.35691 8.98905C3.7202 8.18046 3.7202 7.75077 3.35691 6.94218C3.1616 6.50858 3.10691 6.27812 3.1616 6.11405C3.21238 5.9578 3.41941 5.75468 3.85691 5.42655C4.47801 4.96171 4.63426 4.66874 4.74363 3.78983C4.85691 2.8914 4.95066 2.80546 5.95066 2.69218C6.67723 2.61405 7.01316 2.41874 7.45848 1.82499C7.92332 1.2039 8.08348 1.07499 8.3491 1.10624C8.44285 1.11796 8.7241 1.21562 8.9741 1.32108ZM6.27879 13.8875C6.54051 13.9617 6.73582 14.1375 7.14207 14.6648C7.50145 15.1258 7.77098 15.3328 8.07566 15.3836C8.29832 15.4187 8.60301 15.3836 8.86473 15.2898C8.95848 15.2586 9.0366 15.2351 9.04441 15.243C9.06004 15.2586 7.88816 18.407 7.8491 18.4461C7.83348 18.4617 7.57957 18.0711 7.2827 17.5711C6.88035 16.907 6.71629 16.657 6.64207 16.6297C6.55613 16.5984 6.36863 16.6492 5.52488 16.9266C4.9702 17.1101 4.50926 17.2547 4.50535 17.2508C4.50145 17.2469 4.7866 16.4656 5.14207 15.5164L5.79051 13.7937L5.93113 13.8133C6.00926 13.825 6.16551 13.8562 6.27879 13.8875ZM14.7436 15.2312C15.0366 16.0164 15.3296 16.7898 15.3882 16.9578L15.5014 17.2547L15.2202 17.1687C15.0639 17.118 14.6069 16.9695 14.1968 16.8367C13.5874 16.6375 13.435 16.5984 13.353 16.6297C13.2788 16.6609 13.1147 16.9031 12.7124 17.5711C12.4155 18.0711 12.1616 18.4617 12.146 18.4461C12.1069 18.407 10.935 15.2586 10.9507 15.243C10.9546 15.2351 11.0639 15.2664 11.1929 15.3133C11.4819 15.4148 11.9077 15.4226 12.1225 15.3328C12.3647 15.2312 12.5796 15.032 12.8764 14.6375C13.228 14.1726 13.4585 13.9617 13.6772 13.9031C13.8179 13.8641 14.1811 13.7937 14.2046 13.8016C14.2085 13.8055 14.4507 14.4461 14.7436 15.2312Z" fill="#FF7CFA" stroke="#FF7CFA" stroke-width="0.6"/>
<path d="M9.12109 2.82369C7.9375 3.05416 7.04687 3.52681 6.24609 4.35884C5.30469 5.33541 4.80469 6.58541 4.80469 7.96431C4.80469 8.56588 4.88281 9.06978 5.05859 9.59713C5.65234 11.3706 7.10547 12.6674 8.94531 13.0659C9.36328 13.1557 10.5391 13.1674 10.957 13.0854C13.1289 12.6557 14.8008 10.937 15.1406 8.78463C15.2187 8.29634 15.1992 7.32369 15.1016 6.89009C14.7227 5.19088 13.6016 3.83541 12.0117 3.15963C11.375 2.88619 10.9453 2.80025 10.1172 2.78463C9.61719 2.77681 9.30859 2.78853 9.12109 2.82369ZM10.8164 3.41744C12.1445 3.65181 13.3047 4.46822 14.0039 5.65963C14.8086 7.03463 14.8164 8.89009 14.0156 10.2495C13.1523 11.7221 11.6797 12.5737 10 12.5737C7.43359 12.5737 5.38281 10.5229 5.38672 7.96041C5.39062 5.07369 7.96875 2.91744 10.8164 3.41744Z" fill="#FF7CFA" stroke="#FF7CFA" stroke-width="0.6"/>
<path d="M9.82422 5.05469C9.78125 5.08594 9.58203 5.44141 9.37891 5.85156L9.01172 6.58984L8.16797 6.71094C7.24219 6.84375 7.1875 6.86328 7.1875 7.12109C7.1875 7.22656 7.26562 7.32031 7.80859 7.83984L8.42578 8.4375L8.29688 9.1875C8.22266 9.60156 8.16406 10.0078 8.16406 10.0859C8.16406 10.25 8.26953 10.3516 8.44531 10.3516C8.50391 10.3516 8.85938 10.1875 9.25 9.98047C9.63672 9.77734 9.97266 9.60937 10 9.60937C10.0273 9.60937 10.3633 9.77734 10.75 9.98047C11.1406 10.1875 11.4961 10.3516 11.5547 10.3516C11.7305 10.3516 11.8359 10.25 11.8359 10.0859C11.8359 10.0078 11.7773 9.60156 11.7031 9.1875L11.5742 8.4375L12.1914 7.83984C12.7305 7.32031 12.8125 7.22656 12.8125 7.12109C12.8125 6.86328 12.7578 6.84375 11.8281 6.71094L10.9805 6.58984L10.6172 5.84766C10.418 5.44141 10.2188 5.08203 10.1758 5.05469C10.0781 4.98437 9.92188 4.98437 9.82422 5.05469ZM10.293 6.52344C10.5 6.94141 10.5859 7.07812 10.6641 7.10547C10.7188 7.12891 10.9648 7.17187 11.2109 7.20703C11.9805 7.3125 11.9531 7.24219 11.4297 7.76953C11.0938 8.10547 10.9766 8.25 10.9766 8.32031C10.9766 8.375 11.0195 8.66406 11.0742 8.96094C11.1289 9.26172 11.1719 9.51562 11.1719 9.52344C11.1719 9.53125 10.9375 9.41406 10.6484 9.26172C10.3164 9.08594 10.082 8.98437 10 8.98437C9.92188 8.98437 9.6875 9.08594 9.35156 9.26172C9.0625 9.41406 8.82812 9.53125 8.82812 9.52344C8.82812 9.51562 8.87109 9.26172 8.92578 8.96094C8.98047 8.66406 9.02344 8.375 9.02344 8.32031C9.02344 8.25 8.90625 8.10547 8.57031 7.76953C8.04688 7.24219 8.01953 7.3125 8.78906 7.20703C9.03516 7.17187 9.28125 7.12891 9.33594 7.10547C9.41406 7.07812 9.5 6.94141 9.70703 6.52344C9.85547 6.22266 9.98828 5.97656 10 5.97656C10.0117 5.97656 10.1445 6.22266 10.293 6.52344Z" fill="#FF7CFA"/>
</svg>
