<svg width="24" height="24" viewBox="0 0 24 24" fill="none" xmlns="http://www.w3.org/2000/svg">
<g clip-path="url(#clip0_13002_93584)">
<path d="M4.21875 1.22812V2.46094L3.77344 2.01562L3.32812 1.57031L2.79844 2.1L2.27344 2.625L3.6 3.94687L4.92188 5.27344L6.25781 3.9375L7.59375 2.60156L7.07812 2.08594L6.5625 1.57031L6.11719 2.01562L5.67188 2.46094V1.22812V0H4.94531H4.21875V1.22812Z" fill="#4C5D70"/>
<path d="M11.25 1.22812V2.46094L10.8141 2.025L10.3828 1.59375L9.86719 2.10937L9.35156 2.625L10.6781 3.95156L12 5.27344L13.3219 3.95156L14.6484 2.625L14.1328 2.10937L13.6172 1.59375L13.1859 2.025L12.75 2.46094V1.22812V0H12H11.25V1.22812Z" fill="#4C5D70"/>
<path d="M18.3281 1.22812V2.46094L17.8828 2.01562L17.4375 1.57031L16.9219 2.08594L16.4062 2.60156L17.7422 3.9375L19.0781 5.27344L20.4 3.94687L21.7266 2.625L21.2016 2.1L20.6719 1.57031L20.2266 2.01562L19.7813 2.46094V1.22812V0H19.0547H18.3281V1.22812Z" fill="#4C5D70"/>
<path d="M0 14.1094V21.1875H0.703125H1.40625V22.5938V24H12H22.5938V22.5938V21.1875H23.2969H24V14.1094V7.03125H12H0V14.1094ZM4.125 8.53125C4.125 8.55469 4.06406 8.74219 3.98906 8.94844C3.60938 9.99375 2.74219 10.8047 1.67813 11.1281L1.45312 11.1937V9.83906V8.48437H2.78906C3.62344 8.48437 4.125 8.50312 4.125 8.53125ZM18.3984 8.61094C18.6094 9.67969 19.05 10.5187 19.7812 11.2547C20.2453 11.7234 20.6063 11.9766 21.2063 12.2625C21.6 12.45 22.2656 12.6562 22.4625 12.6562C22.5422 12.6562 22.5469 12.7359 22.5469 14.1V15.5484L22.1203 15.6516C20.1984 16.125 18.8438 17.5641 18.4031 19.6031L18.375 19.7344H12H5.625L5.59688 19.6031C5.27813 18.1125 4.51406 17.0016 3.3 16.2375C2.8875 15.9797 2.29688 15.7406 1.81406 15.6328L1.45312 15.5531V14.1047C1.45312 12.7359 1.45781 12.6562 1.5375 12.6562C1.73438 12.6562 2.4 12.45 2.79375 12.2625C3.39375 11.9766 3.75469 11.7234 4.21875 11.2547C4.95 10.5187 5.39062 9.67969 5.60156 8.61094L5.625 8.48437H12H18.375L18.3984 8.61094ZM22.5469 9.83906V11.1937L22.3266 11.1281C21.2531 10.8047 20.3953 9.99844 20.0156 8.95781C19.9359 8.74687 19.875 8.55469 19.875 8.53125C19.875 8.50312 20.3766 8.48437 21.2109 8.48437H22.5469V9.83906ZM1.99219 17.2172C2.73281 17.5266 3.44531 18.1687 3.78281 18.8203C3.93281 19.1156 4.125 19.6172 4.125 19.7203C4.125 19.7297 3.525 19.7344 2.78906 19.7344H1.45312V18.3937V17.0531L1.60781 17.0859C1.6875 17.1047 1.86563 17.1656 1.99219 17.2172ZM22.5469 18.3984V19.7344H21.2109C20.475 19.7344 19.875 19.7297 19.875 19.7203C19.875 19.6172 20.0672 19.1156 20.2172 18.8203C20.4938 18.2859 21.1078 17.6766 21.6562 17.3906C22.0266 17.1984 22.35 17.0719 22.4906 17.0672C22.5328 17.0625 22.5469 17.3578 22.5469 18.3984ZM21.1406 21.8672V22.5469H12H2.85938V21.8672V21.1875H12H21.1406V21.8672Z" fill="#4C5D70"/>
<path d="M11.6015 9.87199C10.4718 9.98918 9.39837 10.5657 8.68587 11.4376C8.3765 11.8173 8.0015 12.5579 7.87025 13.0548C7.73431 13.547 7.72493 14.5782 7.84212 15.0657C8.24056 16.6642 9.41712 17.8548 11.0156 18.2626C11.5312 18.3939 12.539 18.3845 13.0593 18.2439C14.3765 17.8923 15.4546 16.9361 15.9515 15.6986C16.1765 15.1314 16.2374 14.7986 16.2327 14.0861C16.2327 13.3079 16.1437 12.9142 15.8202 12.2486C15.2671 11.1142 14.2171 10.2657 13.0218 9.98918C12.6234 9.89543 11.939 9.83918 11.6015 9.87199ZM12.6327 11.3954C13.0593 11.4892 13.5281 11.747 13.889 12.0939C14.4984 12.6751 14.7796 13.2986 14.7843 14.0861C14.789 15.3611 14.0249 16.3782 12.7499 16.8095C12.5624 16.8751 12.3562 16.8986 11.9999 16.8986C11.4515 16.8986 11.2124 16.8376 10.664 16.5517C10.0406 16.2329 9.52025 15.5767 9.29993 14.8361C9.2015 14.5032 9.18743 13.772 9.2765 13.4532C9.52493 12.5532 10.2609 11.7611 11.0952 11.4798C11.6484 11.297 12.0609 11.2736 12.6327 11.3954Z" fill="#4C5D70"/>
<path d="M4.92188 14.1328V14.8594H5.64844H6.375V14.1328V13.4062H5.64844H4.92188V14.1328Z" fill="#4C5D70"/>
<path d="M17.625 14.1328V14.8594H18.3516H19.0781V14.1328V13.4062H18.3516H17.625V14.1328Z" fill="#4C5D70"/>
</g>
<defs>
<clipPath id="clip0_13002_93584">
<rect width="24" height="24" fill="white"/>
</clipPath>
</defs>
</svg>
