<svg width="24" height="24" viewBox="0 0 24 24" fill="none" xmlns="http://www.w3.org/2000/svg">
<path d="M3.04705 0.570314C2.89236 0.650002 2.80799 0.734377 2.7283 0.889065L2.62049 1.1L2.63455 3.42969C2.64861 5.70781 2.64861 5.75938 2.74705 5.89063C2.79861 5.96094 2.9158 6.06875 3.00018 6.125L3.15486 6.23281H5.49393C8.07674 6.23281 8.04862 6.2375 8.25955 5.9375C8.41424 5.72188 8.4283 5.36094 8.28768 5.15938C8.03924 4.79844 8.08612 4.80781 6.45487 4.77969L4.99705 4.75625L5.36737 4.42813C8.07205 2.04688 11.7799 1.30625 15.2158 2.45938C17.7611 3.30781 19.9033 5.20156 21.0799 7.63906C22.7111 11.0141 22.308 15.0453 20.0346 18.0734C19.6924 18.5328 18.8908 19.3625 18.4127 19.7609C16.908 21.0172 14.9392 21.8328 12.9424 22.0297C11.5783 22.1609 10.2049 22.0063 8.85955 21.5609C7.36893 21.0688 6.1408 20.3234 5.02049 19.2406C3.78768 18.0453 2.95799 16.7281 2.43768 15.1484C2.11424 14.1594 1.92205 13.0391 1.92205 12.1578C1.92205 11.6234 1.65018 11.2953 1.21424 11.2953C0.928302 11.2953 0.703302 11.4266 0.572052 11.675C0.46424 11.8719 0.46424 11.9094 0.492365 12.4906C0.647052 15.4156 1.80955 18.0641 3.84393 20.1125C5.58768 21.8703 7.85174 23.0141 10.3361 23.3984C11.2642 23.5391 12.7361 23.5391 13.6642 23.3984C16.1111 23.0188 18.3377 21.9125 20.0627 20.2063C21.8674 18.425 23.0111 16.175 23.4002 13.6625C23.5408 12.7344 23.5408 11.2625 23.4002 10.3344C22.8189 6.56094 20.5174 3.39688 17.1049 1.68125C15.4736 0.865627 13.8752 0.495314 11.9767 0.500002C10.8377 0.500002 10.0783 0.598438 9.0658 0.865627C7.35018 1.32031 5.58768 2.26719 4.36424 3.40156L4.08299 3.65938L4.06893 2.3C4.05486 1.01563 4.05018 0.93594 3.95643 0.814064C3.71268 0.485939 3.38455 0.396877 3.04705 0.570314Z" fill="#4C5D70"/>
<path d="M8.88317 7.35937C6.24879 8.34844 5.86442 8.50781 5.7191 8.64844L5.55504 8.8125L5.54098 12.2484C5.5316 14.6109 5.54098 15.7359 5.57848 15.8531C5.6066 15.9562 5.69098 16.0734 5.78004 16.1437C5.98629 16.2984 11.7988 18.4688 12.005 18.4688C12.1972 18.4688 17.9957 16.3078 18.2066 16.1578C18.4738 15.9656 18.4691 16.0547 18.4691 12.3469C18.4691 8.97656 18.4691 8.93906 18.3707 8.76562C18.3191 8.67187 18.216 8.55937 18.1504 8.52187C17.9394 8.39531 12.2254 6.27187 12.0472 6.24844C11.9207 6.23437 11.2363 6.47344 8.88317 7.35937ZM13.7769 8.39531C14.7472 8.75625 15.5722 9.075 15.6097 9.09375C15.666 9.12656 15.6566 9.14062 15.5629 9.17812C15.4972 9.20156 14.6722 9.51094 13.7254 9.86719L12.0097 10.5094L10.28 9.86719C9.33317 9.51094 8.50348 9.20156 8.44254 9.17812C8.3816 9.15469 8.3441 9.12656 8.35817 9.1125C8.38629 9.08437 11.9066 7.74844 11.9722 7.73906C11.9957 7.73437 12.8113 8.02969 13.7769 8.39531ZM9.15035 10.9781L11.2972 11.7844V14.2359C11.2972 16.1672 11.2832 16.6875 11.241 16.6875C11.2082 16.6875 10.2332 16.3266 9.07067 15.8906L6.96129 15.0984L6.94723 12.6375C6.94254 11.2828 6.95192 10.1719 6.97067 10.1719C6.98473 10.1719 7.9691 10.5328 9.15035 10.9781ZM17.0535 12.6375L17.0394 15.1031L14.93 15.8953C13.7722 16.3312 12.7925 16.6875 12.7644 16.6875C12.7175 16.6875 12.7035 16.1672 12.7035 14.2359V11.7844L14.8504 10.9781C16.0269 10.5375 17.0066 10.1766 17.03 10.1719C17.0488 10.1719 17.0582 11.2828 17.0535 12.6375Z" fill="#4C5D70"/>
</svg>
