<svg width="30" height="30" viewBox="0 0 30 30" fill="none" xmlns="http://www.w3.org/2000/svg">
<circle cx="15" cy="15" r="15" fill="#FF55A3"/>
<path d="M12.7846 7.57631C12.751 7.61332 12.6063 7.95309 12.4583 8.33323C12.3137 8.71338 12.1858 9.01951 12.1724 9.01615C12.1623 9.00942 12.0681 8.96232 11.9604 8.90849C11.4995 8.67974 11.042 8.80421 10.8133 9.22136C10.5677 9.67551 10.7998 10.2373 11.3078 10.4257C11.5601 10.5165 11.9503 10.4593 12.1724 10.2945C12.3271 10.1801 12.3776 10.0859 12.6938 9.26172C12.8519 8.84794 12.9932 8.48462 13.01 8.45771C13.0336 8.41734 13.0639 8.44761 13.148 8.59563C13.3027 8.87485 13.4137 8.93541 13.5954 8.85131C13.6795 8.8143 13.7535 8.69319 13.7535 8.59563C13.7535 8.53172 13.2724 7.69742 13.1715 7.58304C13.0807 7.48548 12.8755 7.48212 12.7846 7.57631Z" fill="white"/>
<path d="M20.8416 7.80529C20.7878 7.82211 20.6633 7.89612 20.5624 7.97349L20.3807 8.11478L20.2663 8.01386C20.1015 7.87257 20.0207 7.85239 19.9131 7.92976C19.7819 8.03068 19.7785 8.17534 19.9097 8.31999L20.0107 8.43774L19.903 8.5252L19.7953 8.60931L19.5868 8.40746C19.358 8.19216 19.2638 8.16188 19.1427 8.27626C19.0216 8.39064 19.0452 8.50838 19.2369 8.69677C19.3311 8.7876 19.4051 8.8818 19.4051 8.90198C19.4051 8.92553 19.358 8.97599 19.3008 9.01636L19.1999 9.09037L18.9207 8.81788C18.6146 8.52184 18.5439 8.49493 18.4127 8.62949C18.2781 8.76069 18.3051 8.83134 18.5876 9.12401L18.8467 9.38978L18.6953 9.52098C18.4194 9.75646 18.3959 9.97513 18.6179 10.2476L18.7424 10.399L18.3185 10.8262L17.8946 11.2535L18.0763 11.4452C18.2916 11.6639 18.3219 11.8086 18.1839 11.9364C18.046 12.0676 17.9148 12.0373 17.6928 11.8254L17.501 11.6437L17.057 12.0878C16.8114 12.3334 16.6129 12.5487 16.6129 12.5688C16.6129 12.5857 16.6903 12.6765 16.7811 12.7673C16.9796 12.9624 17.0065 13.1004 16.8652 13.2383C16.7307 13.3762 16.6129 13.3493 16.3842 13.1407L16.189 12.9557L15.7383 13.4065L15.2875 13.8607L15.4422 14.0188C15.5263 14.1096 15.6138 14.2139 15.634 14.2543C15.6844 14.3552 15.6474 14.4864 15.5465 14.5671C15.4052 14.6781 15.3144 14.6546 15.0957 14.4426L14.8939 14.2509L14.4935 14.6512C14.2715 14.8733 14.0898 15.065 14.0898 15.0751C14.0898 15.0886 14.1571 15.139 14.2345 15.1861C14.4263 15.2938 14.7425 15.6134 14.8535 15.8051L14.941 15.9531L17.2857 13.6084L19.6271 11.2669L19.7583 11.3847C20.0275 11.6303 20.2461 11.6168 20.4917 11.3342L20.6364 11.1694L20.8853 11.4217C21.0905 11.6269 21.1544 11.674 21.2419 11.674C21.3697 11.674 21.4572 11.5832 21.4572 11.452C21.4572 11.378 21.4 11.2972 21.1881 11.0853L20.9223 10.8162L21.0199 10.6984L21.1141 10.5807L21.3159 10.7758C21.4269 10.8801 21.5413 10.9675 21.5682 10.9675C21.5951 10.9675 21.6557 10.9373 21.7062 10.8969C21.8508 10.7825 21.8273 10.6614 21.6052 10.4293L21.4168 10.2308L21.4909 10.1299C21.5312 10.0727 21.5716 10.0256 21.5817 10.0256C21.5918 10.0256 21.6523 10.0693 21.7162 10.1265C21.8407 10.2375 21.8945 10.2476 22.0056 10.1904C22.1704 10.103 22.1738 9.93812 22.0157 9.76656L21.9013 9.64208L22.0661 9.42678C22.2444 9.19466 22.2747 9.0601 22.1839 8.88853C22.1166 8.76069 21.141 7.80529 21.0771 7.80529C21.0502 7.80529 21.0064 7.79856 20.9795 7.79183C20.956 7.7851 20.892 7.79183 20.8416 7.80529ZM21.3395 8.66313C21.4875 8.80779 21.4438 9.03991 21.2554 9.11728C21.1376 9.16775 20.9728 9.11728 20.919 9.013C20.818 8.82797 20.9526 8.57903 21.1544 8.57903C21.2184 8.57903 21.289 8.60931 21.3395 8.66313ZM20.633 9.40323C20.7238 9.4907 20.7373 9.58489 20.6767 9.69927C20.5825 9.87757 20.3773 9.91121 20.2461 9.77328C20.0039 9.51425 20.3841 9.15093 20.633 9.40323ZM19.8895 10.0962C20.0006 10.1837 20.014 10.3923 19.9097 10.4966C19.8054 10.6009 19.5969 10.5874 19.5094 10.4764C19.4118 10.3519 19.4219 10.2409 19.5363 10.1231C19.6541 10.0088 19.7651 9.99868 19.8895 10.0962Z" fill="white"/>
<path d="M14.1054 11.2888C13.8128 11.3527 13.4461 11.5209 13.2072 11.6959C12.9616 11.8809 12.7362 12.1332 12.2888 12.732C11.6362 13.6067 11.2493 13.8859 10.3881 14.1113C9.53363 14.3333 8.97183 14.6394 8.44366 15.1743C7.78094 15.8404 7.45462 16.7891 7.50508 17.8791C7.54545 18.6696 7.68674 19.2348 7.99287 19.8235C8.47058 20.7352 9.24768 21.5156 10.1863 22.0236C10.7514 22.3331 11.3099 22.4643 12.1408 22.4946C12.7699 22.5148 13.1063 22.4811 13.5335 22.3466C14.3779 22.0842 15.0642 21.5089 15.5116 20.6881C15.6664 20.4055 15.7808 20.0994 15.9086 19.6318C16.0633 19.0498 16.2753 18.6494 16.6117 18.2861C16.6958 18.1953 16.9986 17.9463 17.2845 17.7344C18.1255 17.1087 18.4518 16.7386 18.6571 16.1735C18.7412 15.9447 18.7479 15.8909 18.7445 15.4065C18.7445 14.9288 18.7344 14.8615 18.6503 14.5991C18.5494 14.2828 18.2466 13.647 18.1693 13.5831C18.1289 13.5495 17.8631 13.8018 16.6251 15.0398L15.1315 16.5334L15.1517 16.7689C15.2156 17.509 14.7581 18.2828 14.0516 18.6326C13.362 18.9724 12.6622 18.9354 12.0567 18.5317C11.7405 18.3198 11.5319 18.0876 11.3637 17.7546C11.1989 17.4215 11.1518 17.1894 11.1686 16.7891C11.2056 15.9683 11.6833 15.2988 12.457 14.9826C12.6656 14.8985 12.7396 14.8884 13.0928 14.8817L13.4965 14.8716L14.9868 13.3813C15.8077 12.5604 16.4771 11.8809 16.4771 11.8674C16.4771 11.8203 15.6361 11.4335 15.3501 11.3527C14.9599 11.2383 14.4418 11.2114 14.1054 11.2888ZM11.3536 18.6461C12.457 19.7495 12.5075 19.8033 12.5075 19.9244C12.5075 20.0893 12.4133 20.1835 12.2451 20.1835C12.124 20.1835 12.0735 20.1364 10.9667 19.0296C9.70183 17.7613 9.71865 17.7849 9.91377 17.5898C10.1089 17.3946 10.0887 17.3778 11.3536 18.6461Z" fill="white"/>
<path d="M12.8276 15.455C12.5518 15.5223 12.3365 15.6434 12.1346 15.8418C11.6872 16.2926 11.5796 16.9554 11.8655 17.5239C12.2928 18.3683 13.4298 18.56 14.1296 17.904C14.328 17.719 14.4458 17.5306 14.5299 17.2548C14.8528 16.2186 13.8873 15.1959 12.8276 15.455Z" fill="white"/>
<path d="M20.2486 17.6357C19.8651 18.0158 19.8281 18.0663 19.8281 18.1739C19.8281 18.3354 19.9324 18.4431 20.0939 18.4431C20.1914 18.4431 20.2453 18.4128 20.3933 18.2648L20.575 18.0865L20.5918 18.1807C20.6019 18.2345 20.6523 18.6315 20.7028 19.0654C20.8071 19.9603 20.8575 20.1117 21.1098 20.3034C21.4698 20.5725 22.0552 20.5053 22.3613 20.1588C22.7885 19.671 22.5261 18.9847 21.8499 18.8333C21.7087 18.803 21.5337 18.8198 21.305 18.8838C21.2377 18.9039 21.231 18.8737 21.1435 18.1369C21.0594 17.4103 21.0493 17.3666 20.9686 17.2925C20.7903 17.1412 20.7129 17.1782 20.2486 17.6357Z" fill="white"/>
</svg>
