<svg width="28" height="28" viewBox="0 0 28 28" fill="none" xmlns="http://www.w3.org/2000/svg">
<path d="M0.550156 27.8347C0.853999 27.8347 1.10031 27.5884 1.10031 27.2845C1.10031 26.9807 0.853999 26.7344 0.550156 26.7344C0.246313 26.7344 0 26.9807 0 27.2845C0 27.5884 0.246313 27.8347 0.550156 27.8347Z" fill="#3BA4E8"/>
<path d="M14.6018 13.8833C14.905 13.8833 15.1509 13.6375 15.1509 13.3342C15.1509 13.031 14.905 12.7852 14.6018 12.7852C14.2986 12.7852 14.0527 13.031 14.0527 13.3342C14.0527 13.6375 14.2986 13.8833 14.6018 13.8833Z" fill="#3BA4E8"/>
<path d="M21.7919 6.37197C21.3506 5.93053 20.7637 5.6875 20.1395 5.6875C19.5153 5.6875 18.9284 5.93064 18.4871 6.37197C17.5759 7.28317 17.5759 8.76575 18.4871 9.6769C18.9427 10.1325 19.541 10.3602 20.1395 10.3602C20.7378 10.3602 21.3364 10.1324 21.7919 9.6769C22.7031 8.76569 22.7031 7.28312 21.7919 6.37197ZM21.0155 8.90039C20.5325 9.38339 19.7465 9.38339 19.2635 8.90039C18.7805 8.41739 18.7805 7.63142 19.2635 7.14837C19.4975 6.91436 19.8086 6.78552 20.1395 6.78552C20.4704 6.78552 20.7815 6.91436 21.0155 7.14837C21.4985 7.63142 21.4985 8.41739 21.0155 8.90039Z" fill="#3BA4E8"/>
<path d="M6.85869 22.4206C6.58722 22.2854 6.25768 22.3959 6.12249 22.6674L5.46854 23.9807C5.18416 24.5517 4.61224 24.9335 3.97579 24.977L3.21519 25.0291C3.08662 25.0377 3.00208 24.9736 2.96297 24.9345C2.92387 24.8954 2.85967 24.8107 2.86842 24.6823L2.92048 23.9217C2.96407 23.2853 3.3459 22.7133 3.91683 22.429L5.2301 21.775C5.50157 21.6398 5.61204 21.3102 5.47685 21.0388C5.34172 20.7674 5.01211 20.6569 4.74065 20.7921L3.42738 21.446C2.50907 21.9033 1.89504 22.8232 1.82493 23.8467L1.77286 24.6072C1.74475 25.0178 1.89547 25.42 2.18641 25.711C2.45427 25.9788 2.81658 26.1279 3.19283 26.1279C3.22515 26.1279 3.25768 26.1268 3.29017 26.1246L4.05076 26.0725C5.07429 26.0025 5.99414 25.3885 6.45143 24.4701L7.10539 23.1568C7.24058 22.8853 7.13011 22.5558 6.85869 22.4206Z" fill="#3BA4E8"/>
<path d="M27.622 0.365728C27.3644 0.111924 27.0094 -0.0208028 26.6489 0.00265812L26.1377 0.0352519C21.5539 0.327885 17.264 2.54049 14.3681 6.10578L13.1648 7.58721L10.0157 7.49474C10.0104 7.49457 10.005 7.49452 9.99965 7.49452C7.50219 7.49452 5.15418 8.46708 3.38815 10.233L0.162795 13.4585C0.00939641 13.6119 -0.0393302 13.8413 0.0385448 14.0437C0.11642 14.2462 0.306186 14.3839 0.522857 14.395L7.35026 14.7458L7.0719 15.0885C6.93163 15.2612 6.90943 15.5015 7.01579 15.697C7.12276 15.8936 7.23487 16.0872 7.35179 16.2776L5.73272 18.1997C5.5943 18.364 5.5645 18.5941 5.65632 18.7883C6.00998 19.5356 6.47936 20.2071 7.05162 20.784C7.63776 21.3751 8.32315 21.8584 9.08867 22.2207C9.16348 22.2561 9.24371 22.2735 9.32344 22.2735C9.44709 22.2735 9.5697 22.2317 9.66945 22.1508C10.0182 21.8679 10.4204 21.5323 10.8093 21.2077C11.0865 20.9764 11.3701 20.7398 11.6352 20.5216C11.7934 20.6168 11.9536 20.7091 12.1162 20.7975C12.1984 20.8423 12.2886 20.8643 12.3785 20.8643C12.498 20.8643 12.6168 20.8254 12.7151 20.749L13.0893 20.4586L13.4416 27.3148C13.4528 27.5315 13.5904 27.7212 13.7929 27.7991C13.857 27.8237 13.9236 27.8358 13.9898 27.8358C14.1328 27.8358 14.2732 27.7798 14.3781 27.6749L17.6035 24.4494C19.3695 22.6834 20.342 20.3355 20.342 17.8379V14.8304L21.6145 13.843C25.4278 10.8839 27.7502 6.42171 27.9862 1.60057L27.9993 1.33337C28.0171 0.972213 27.8795 0.619588 27.622 0.365728ZM1.81239 13.3618L4.16461 11.0096C5.72129 9.45288 7.79055 8.59472 9.99172 8.59259L12.2932 8.66018L8.20755 13.6903L1.81239 13.3618ZM10.1058 20.3646C9.81919 20.6037 9.52535 20.8489 9.25268 21.0732C8.72527 20.7876 8.24818 20.4312 7.83124 20.0107C7.42743 19.6036 7.08372 19.14 6.80656 18.6293L7.99197 17.2221C8.35039 17.7029 8.74272 18.1584 9.16654 18.5851C9.16687 18.5855 9.1672 18.5857 9.16753 18.5861C9.16764 18.5862 9.16775 18.5863 9.16786 18.5865C9.16802 18.5866 9.16819 18.5867 9.16835 18.5869C9.63828 19.0598 10.1438 19.4938 10.68 19.8863C10.4906 20.0435 10.2967 20.2054 10.1058 20.3646ZM19.2441 17.8379C19.2441 20.0421 18.3858 22.1143 16.8272 23.673L14.475 26.0252L14.1467 19.6381L19.2441 15.6826V17.8379H19.2441ZM26.8896 1.54692C26.6693 6.04754 24.5013 10.2131 20.9414 12.9755L12.3303 19.6577C11.6162 19.2405 10.9506 18.7478 10.3415 18.1896L13.2446 15.2864C13.459 15.0721 13.459 14.7244 13.2446 14.5099C13.0302 14.2955 12.6825 14.2955 12.4681 14.5099L9.56768 17.4103C9.03442 16.82 8.56214 16.1776 8.16002 15.4906L15.2205 6.79807C17.9238 3.46985 21.9285 1.4043 26.2076 1.13119L26.7188 1.0986C26.7858 1.09444 26.8307 1.12769 26.8513 1.14803C26.872 1.16832 26.906 1.21246 26.9027 1.27978L26.8896 1.54692Z" fill="#3BA4E8"/>
</svg>
