<svg width="44" height="44" viewBox="0 0 44 44" fill="none" xmlns="http://www.w3.org/2000/svg">
<circle cx="22" cy="22" r="22" fill="#2EB42B" fill-opacity="0.15"/>
<g clip-path="url(#clip0_5469_68812)">
<path d="M23.0039 12.0586C22.9258 12.0859 22.8047 12.1523 22.7383 12.2031C22.6758 12.2539 21.4843 13.9648 20.0937 16.0078L17.5664 19.7188L16.8515 19.7305L16.1367 19.7383L16.1562 19.6133C16.1679 19.543 16.2422 18.8438 16.3164 18.0586C16.3906 17.2734 16.4609 16.5586 16.4726 16.4688C16.4961 16.3086 16.5078 16.2969 16.7734 16.1563C17.039 16.0156 17.414 15.6953 17.5703 15.4688L17.6484 15.3555L18.7773 15.4727C19.5429 15.5469 19.9453 15.5742 20.0156 15.5508C20.2343 15.4766 20.25 15.1406 20.039 15.0508C19.9883 15.0273 19.4336 14.9609 18.8008 14.8984C17.5273 14.7773 17.4297 14.7813 17.2422 14.9883C17.1797 15.0547 17.039 15.207 16.9258 15.3281C16.8086 15.457 16.6406 15.5898 16.5039 15.6563C16.1562 15.8242 16.0351 15.9297 15.9726 16.1133C15.9336 16.2148 15.8437 16.9805 15.7422 18.0078L15.5742 19.7383H15.3906H15.2031L15.2226 19.5898C15.2343 19.5117 15.3593 18.2891 15.4961 16.875C15.6367 15.457 15.7695 14.2695 15.789 14.2266C15.8476 14.1172 15.957 14.0742 16.1679 14.0742C16.2695 14.0742 17.3125 14.1719 18.4804 14.2891C20.3633 14.4766 20.6211 14.4922 20.7148 14.4453C20.9023 14.3477 20.8945 14.0391 20.7031 13.957C20.6523 13.9375 19.9648 13.8594 19.1679 13.7813C18.375 13.7031 17.3593 13.6055 16.9101 13.5586C16.457 13.5156 16.0234 13.4922 15.9297 13.5039C15.5742 13.5586 15.2695 13.8633 15.1992 14.2422C15.1758 14.3555 15.0664 15.3867 14.9531 16.5352L14.75 18.625L14.2578 18.6484C13.8359 18.6641 13.7383 18.6836 13.5781 18.7656C13.2461 18.9375 13.0586 19.2617 13.0547 19.6797C13.0508 19.8672 13.0429 19.8789 12.8672 19.9922C12.7695 20.0547 12.6289 20.1836 12.5586 20.2773C12.2968 20.6211 12.3086 20.3203 12.3203 25.9531L12.332 31.0469L12.4258 31.25C12.539 31.5078 12.8593 31.8086 13.1133 31.9102C13.3047 31.9844 13.5078 31.9844 21.5508 31.9844H29.7929L29.9961 31.8906C30.2383 31.7813 30.5273 31.4883 30.6445 31.2305C30.7265 31.0547 30.7304 30.9922 30.7422 29.5508L30.7539 28.0586H30.8984C31.2343 28.0586 31.5312 27.8906 31.6328 27.6406C31.6758 27.5391 31.6875 27.1719 31.6875 25.8711C31.6875 24.3125 31.6836 24.2188 31.6093 24.0742C31.4922 23.8438 31.3281 23.7461 31.0156 23.7305L30.75 23.7148V22.3008C30.75 21.1133 30.7383 20.8516 30.6875 20.6758C30.6172 20.4414 30.4531 20.1758 30.3008 20.0586C30.2109 19.9883 30.2031 19.9531 30.2031 19.6914C30.2031 19.3438 30.0859 19.0664 29.8593 18.8789C29.6953 18.7461 29.4062 18.6445 29.1797 18.6445H29.0273L29.4843 17.9766C29.7383 17.6055 29.9648 17.2266 29.9961 17.125C30.0898 16.8125 29.9883 16.4414 29.7461 16.2188C29.6875 16.1641 29.1718 15.8008 28.6015 15.4141C28.0312 15.0273 26.7226 14.1328 25.6914 13.4297C24.6601 12.7266 23.7656 12.125 23.7031 12.0938C23.5429 12.0117 23.1836 11.9922 23.0039 12.0586ZM23.4883 12.6328C23.7265 12.7578 29.2617 16.5586 29.3554 16.6563C29.5273 16.8398 29.5 16.9336 29.1211 17.4961C28.9297 17.7734 28.5156 18.3906 28.1914 18.8672L27.6054 19.7344L27.3789 19.7383H27.1562L27.6133 19.0703C27.8633 18.6992 28.0898 18.332 28.1211 18.2461C28.1797 18.0703 28.1562 17.9375 27.9922 17.5508C27.9023 17.3359 27.8828 17.2344 27.875 16.875C27.8672 16.5273 27.8476 16.4297 27.7812 16.3242C27.7265 16.2305 27.2422 15.8789 26.1172 15.1133C25.2461 14.5195 24.4922 14.0156 24.4375 13.9961C24.2656 13.9297 24.0859 13.9531 23.7695 14.082C23.5039 14.1914 23.414 14.207 23.0468 14.2148C22.5547 14.2266 22.414 14.2773 22.2461 14.5156C22.1797 14.6055 21.3672 15.7969 20.4375 17.1602C19.5078 18.5234 18.7265 19.6641 18.7031 19.6914C18.6718 19.7227 18.582 19.7383 18.4531 19.7305L18.2578 19.7188L20.6367 16.2227C21.9453 14.3008 23.0547 12.6953 23.0976 12.6563C23.1914 12.582 23.3711 12.5703 23.4883 12.6328ZM25.8086 15.5898L27.2929 16.6016L27.3164 17.0273C27.3359 17.3594 27.3633 17.5117 27.4453 17.7266C27.5039 17.875 27.5547 18.0273 27.5586 18.0586C27.5625 18.0938 27.3203 18.4844 27.0195 18.9297L26.4726 19.7344L25.9843 19.7383H25.4922L25.4492 19.4766C25.3867 19.1172 25.1328 18.625 24.8672 18.3359C24.5859 18.0313 24.2851 17.8359 23.8828 17.6953C23.0664 17.4141 22.0898 17.6445 21.4883 18.2617C21.1523 18.6055 20.8984 19.0938 20.8359 19.5156L20.8086 19.7188L20.0937 19.7305C19.5195 19.7383 19.3828 19.7305 19.4062 19.6914C19.4258 19.6641 20.1836 18.5469 21.0937 17.207L22.75 14.7773H23.1172C23.3984 14.7773 23.5508 14.7539 23.7851 14.6797C23.9531 14.625 24.1172 14.5664 24.1445 14.5469C24.1797 14.5234 24.2304 14.5234 24.2617 14.543C24.2968 14.5625 24.9922 15.0313 25.8086 15.5898ZM23.582 18.1953C23.8984 18.2813 24.1601 18.4297 24.3984 18.668C24.6445 18.9141 24.7929 19.1758 24.8672 19.4961L24.9218 19.7383H23.1484H21.3711L21.3984 19.5898C21.5781 18.6016 22.6054 17.9414 23.582 18.1953ZM14.6797 19.3516C14.6679 19.418 14.6562 19.5352 14.6562 19.6055V19.7383H14.1484H13.6406V19.5977C13.6406 19.4961 13.6718 19.4297 13.7539 19.3438C13.8672 19.2344 13.8789 19.2305 14.2851 19.2305H14.707L14.6797 19.3516ZM29.4726 19.3125C29.5859 19.3984 29.6914 19.6836 29.6328 19.7305C29.6133 19.7461 29.3047 19.7539 28.9453 19.7461L28.2929 19.7344L28.457 19.4844L28.6211 19.2305H28.9961C29.3164 19.2305 29.3867 19.2422 29.4726 19.3125ZM29.8789 20.4648C30.125 20.6602 30.164 20.7813 30.164 21.3281V21.8086H21.5312H12.8984V21.3203C12.8984 20.9727 12.914 20.7969 12.9531 20.7227C13.0234 20.5859 13.2031 20.418 13.3281 20.3672C13.3906 20.3438 16.2226 20.332 21.5781 20.3359L29.7265 20.3438L29.8789 20.4648ZM30.164 23.0586V23.7227H28.6914C27.5117 23.7227 27.164 23.7344 26.9648 23.7813C26.2812 23.9453 25.6953 24.4688 25.4375 25.1484C25.3281 25.4414 25.289 26.0391 25.3593 26.3438C25.5351 27.1016 26.1133 27.7188 26.8828 27.9648C27.0664 28.0234 27.3086 28.0352 28.6328 28.0508L30.164 28.0664V28.7266V29.3867H23.1406C16.1484 29.3867 16.1133 29.3867 16.0429 29.4648C15.9531 29.5664 15.9531 29.7539 16.0429 29.8555C16.1133 29.9336 16.1484 29.9336 23.1406 29.9336H30.164V30.4297C30.164 30.875 30.1523 30.9453 30.0742 31.0859C30.0234 31.1719 29.9179 31.2773 29.832 31.3281L29.6758 31.418H21.539C12.4726 31.418 13.2461 31.4414 13.0234 31.1523C12.9218 31.0195 12.9179 30.9922 12.9062 30.4727L12.8906 29.9336H13.7148C14.4883 29.9336 14.5429 29.9297 14.6172 29.8555C14.6601 29.8125 14.6953 29.7266 14.6953 29.6602C14.6953 29.5938 14.6601 29.5078 14.6172 29.4648C14.5429 29.3906 14.4883 29.3867 13.7187 29.3867H12.8984V25.8906V22.3945H21.5312H30.164V23.0586ZM31.0937 25.8789L31.1015 27.4727H29.1992C28.082 27.4727 27.2226 27.4531 27.125 27.4336C26.5117 27.2891 26.0195 26.7695 25.9023 26.1406C25.7461 25.2852 26.3789 24.4258 27.2461 24.3125C27.3789 24.293 28.2968 24.2813 29.2851 24.2852L31.082 24.2891L31.0937 25.8789Z" fill="#2EB42B" stroke="#2EB42B" stroke-width="0.3"/>
<path d="M27.1951 24.7773C26.7029 24.9297 26.3357 25.4726 26.3865 25.9726C26.449 26.5937 26.9178 27.0234 27.5232 27.0234C28.5311 27.0273 29.0428 25.8828 28.3865 25.1016C28.3318 25.0351 28.1795 24.9258 28.0467 24.8633C27.8475 24.7617 27.7615 24.7422 27.5506 24.7461C27.41 24.7461 27.2498 24.7617 27.1951 24.7773ZM27.7576 25.3437C28.1678 25.5156 28.2303 26.0898 27.867 26.3594C27.7186 26.4726 27.4022 26.4844 27.242 26.3867C26.8475 26.1367 26.8709 25.5508 27.2889 25.3633C27.4803 25.2773 27.5857 25.2734 27.7576 25.3437Z" fill="#2EB42B"/>
</g>
<defs>
<clipPath id="clip0_5469_68812">
<rect width="20" height="20" fill="white" transform="translate(12 12)"/>
</clipPath>
</defs>
</svg>
