<svg width="20" height="20" viewBox="0 0 20 20" fill="none" xmlns="http://www.w3.org/2000/svg">
<g clip-path="url(#clip0_638_9514)">
<path d="M2.49999 8C1.67347 8 1 8.67312 1 9.5C1 10.3269 1.67347 11 2.49999 11C3.32652 11 3.99999 10.3269 3.99999 9.5C4.00339 8.67312 3.32992 8 2.49999 8ZM2.49999 10.18C2.12244 10.18 1.81632 9.87585 1.81632 9.5C1.81632 9.12415 2.12244 8.82005 2.49999 8.82005C2.87754 8.82005 3.18707 9.12415 3.18707 9.5C3.18707 9.87585 2.87754 10.18 2.49999 10.18Z" fill="#93AABE" stroke="#93AABE" stroke-width="0.4"/>
<path d="M17.5 11C18.3265 11 19 10.3269 19 9.5C19 8.67312 18.3265 8 17.5 8C16.6735 8 16 8.67312 16 9.5C16 10.3269 16.6735 11 17.5 11ZM17.5 8.82005C17.8776 8.82005 18.1837 9.12415 18.1837 9.5C18.1837 9.87585 17.8776 10.18 17.5 10.18C17.1224 10.18 16.8163 9.87585 16.8163 9.5C16.8163 9.12415 17.1225 8.82005 17.5 8.82005Z" fill="#93AABE" stroke="#93AABE" stroke-width="0.4"/>
<path d="M16.1223 3.87851C16.2021 3.95835 16.3097 4 16.4173 4C16.5249 4 16.629 3.95835 16.7123 3.87851L17.5 3.09054L18.2877 3.87851C18.3676 3.95835 18.4751 4 18.5827 4C18.6903 4 18.7944 3.95835 18.8777 3.87851C19.0408 3.71536 19.0408 3.45155 18.8777 3.2884L18.0899 2.50043L18.8777 1.71247C19.0408 1.54932 19.0408 1.28551 18.8777 1.12236C18.7146 0.959213 18.4508 0.959213 18.2877 1.12236L17.5 1.91033L16.7123 1.12236C16.5492 0.959213 16.2854 0.959213 16.1223 1.12236C15.9592 1.28551 15.9592 1.54932 16.1223 1.71247L16.9101 2.50043L16.1223 3.2884C15.9592 3.45155 15.9592 3.71536 16.1223 3.87851Z" fill="#93AABE" stroke="#93AABE" stroke-width="0.4"/>
<path d="M18.8777 16.1224C18.7146 15.9592 18.4508 15.9592 18.2877 16.1224L17.5 16.9103L16.7123 16.1224C16.5492 15.9592 16.2854 15.9592 16.1223 16.1224C15.9592 16.2855 15.9592 16.5493 16.1223 16.7125L16.9101 17.5004L16.1223 18.2884C15.9592 18.4515 15.9592 18.7154 16.1223 18.8785C16.2021 18.9583 16.3097 19 16.4173 19C16.5249 19 16.629 18.9583 16.7123 18.8785L17.5 18.0905L18.2877 18.8785C18.3676 18.9583 18.4751 19 18.5827 19C18.6903 19 18.7944 18.9583 18.8777 18.8785C19.0408 18.7154 19.0408 18.4515 18.8777 18.2884L18.0899 17.5004L18.8777 16.7125C19.0408 16.5493 19.0408 16.2855 18.8777 16.1224Z" fill="#93AABE" stroke="#93AABE" stroke-width="0.4"/>
<path d="M14.5 17C14.3667 17 14.2375 17.0542 14.1458 17.1458C14.0542 17.2375 14 17.3667 14 17.5C14 17.6333 14.0542 17.7625 14.1458 17.8542C14.2375 17.9458 14.3667 18 14.5 18C14.6333 18 14.7625 17.9458 14.8542 17.8542C14.9458 17.7625 15 17.6333 15 17.5C15 17.3667 14.9458 17.2375 14.8542 17.1458C14.7625 17.0542 14.6333 17 14.5 17Z" fill="#93AABE" stroke="#93AABE" stroke-width="0.4"/>
<path d="M12.5 17C12.225 17 12 17.225 12 17.5C12 17.775 12.225 18 12.5 18C12.775 18 13 17.775 13 17.5C13 17.225 12.775 17 12.5 17Z" fill="#93AABE" stroke="#93AABE" stroke-width="0.4"/>
<path d="M11.5 17C11.3667 17 11.2375 17.0542 11.1458 17.1458C11.0542 17.2375 11 17.3667 11 17.5C11 17.6333 11.0542 17.7625 11.1458 17.8542C11.2375 17.9458 11.3667 18 11.5 18C11.6333 18 11.7625 17.9458 11.8542 17.8542C11.9458 17.7625 12 17.6333 12 17.5C12 17.3667 11.9458 17.2375 11.8542 17.1458C11.7583 17.0542 11.6291 17 11.5 17Z" fill="#93AABE" stroke="#93AABE" stroke-width="0.4"/>
<path d="M11.5 15C11.225 15 11 15.225 11 15.5C11 15.775 11.225 16 11.5 16C11.775 16 12 15.775 12 15.5C12 15.2208 11.775 15 11.5 15Z" fill="#93AABE" stroke="#93AABE" stroke-width="0.4"/>
<path d="M11.5041 9C11.5041 9 11.5 9 11.5041 9C11.5 9 11.4959 9 11.4959 9C11.3636 9 11.2355 9.05417 11.1446 9.14583C11.0537 9.2375 11 9.36667 11 9.5C11 9.63333 11.0537 9.7625 11.1446 9.85417C11.2355 9.94583 11.3636 10 11.4959 10H11.5H11.5041C11.7769 10 12 9.775 12 9.5C12 9.225 11.7768 9 11.5041 9Z" fill="#93AABE" stroke="#93AABE" stroke-width="0.4"/>
<path d="M11.5 6C11.225 6 11 6.225 11 6.5C11 6.775 11.225 7 11.5 7C11.775 7 12 6.775 12 6.5C12 6.225 11.775 6 11.5 6Z" fill="#93AABE" stroke="#93AABE" stroke-width="0.4"/>
<path d="M11.5 4C11.225 4 11 4.225 11 4.5C11 4.775 11.225 5 11.5 5C11.775 5 12 4.775 12 4.5C12 4.225 11.775 4 11.5 4Z" fill="#93AABE" stroke="#93AABE" stroke-width="0.4"/>
<path d="M11.5 11C11.225 11 11 11.225 11 11.5C11 11.775 11.225 12 11.5 12C11.775 12 12 11.775 12 11.5C12 11.225 11.775 11 11.5 11Z" fill="#93AABE" stroke="#93AABE" stroke-width="0.4"/>
<path d="M11.5 8C11.225 8 11 8.225 11 8.5C11 8.775 11.225 9 11.5 9C11.775 9 12 8.775 12 8.5C12 8.22083 11.775 8 11.5 8Z" fill="#93AABE" stroke="#93AABE" stroke-width="0.4"/>
<path d="M11.5 13C11.225 13 11 13.225 11 13.5C11 13.775 11.225 14 11.5 14C11.775 14 12 13.775 12 13.5C12 13.225 11.775 13 11.5 13Z" fill="#93AABE" stroke="#93AABE" stroke-width="0.4"/>
<path d="M11.5 2C11.3667 2 11.2375 2.05417 11.1458 2.14583C11.0542 2.2375 11 2.36667 11 2.5C11 2.63333 11.0542 2.7625 11.1458 2.85417C11.2375 2.94583 11.3667 3 11.5 3C11.6333 3 11.7625 2.94583 11.8542 2.85417C11.9458 2.7625 12 2.63333 12 2.5C12 2.36667 11.9458 2.2375 11.8542 2.14583C11.7583 2.05417 11.6291 2 11.5 2Z" fill="#93AABE" stroke="#93AABE" stroke-width="0.4"/>
<path d="M12.5 2C12.225 2 12 2.225 12 2.5C12 2.775 12.225 3 12.5 3C12.775 3 13 2.775 13 2.5C13 2.225 12.775 2 12.5 2Z" fill="#93AABE" stroke="#93AABE" stroke-width="0.4"/>
<path d="M14.5 2C14.3667 2 14.2375 2.05417 14.1458 2.14583C14.0542 2.2375 14 2.36667 14 2.5C14 2.63333 14.0542 2.7625 14.1458 2.85417C14.2375 2.94583 14.3667 3 14.5 3C14.6333 3 14.7625 2.94583 14.8542 2.85417C14.9458 2.7625 15 2.63333 15 2.5C15 2.36667 14.9458 2.2375 14.8542 2.14583C14.7625 2.05417 14.6333 2 14.5 2Z" fill="#93AABE" stroke="#93AABE" stroke-width="0.4"/>
<path d="M7.5 9C7.225 9 7 9.225 7 9.5C7 9.775 7.225 10 7.5 10C7.775 10 8 9.775 8 9.5C8 9.225 7.775 9 7.5 9Z" fill="#93AABE" stroke="#93AABE" stroke-width="0.4"/>
<path d="M9.5 9C9.225 9 9 9.225 9 9.5C9 9.775 9.225 10 9.5 10C9.775 10 10 9.775 10 9.5C10 9.225 9.77917 9 9.5 9Z" fill="#93AABE" stroke="#93AABE" stroke-width="0.4"/>
<path d="M5.5 9C5.36667 9 5.2375 9.05417 5.14583 9.14583C5.05417 9.2375 5 9.36667 5 9.5C5 9.63333 5.05417 9.7625 5.14583 9.85417C5.2375 9.94583 5.36667 10 5.5 10C5.63333 10 5.7625 9.94583 5.85417 9.85417C5.94583 9.7625 6 9.63333 6 9.5C6 9.36667 5.94583 9.2375 5.85417 9.14583C5.7625 9.05417 5.63333 9 5.5 9Z" fill="#93AABE" stroke="#93AABE" stroke-width="0.4"/>
</g>
<defs>
<clipPath id="clip0_638_9514">
<rect width="20" height="20" fill="white"/>
</clipPath>
</defs>
</svg>
