<svg width="24" height="20" viewBox="0 0 24 20" fill="none" xmlns="http://www.w3.org/2000/svg">
<path d="M1.14375 0.339062C0.867188 0.465624 0.632813 0.690624 0.496875 0.962499L0.375 1.20625V8.5V15.7937L0.496875 16.0375C0.632813 16.3094 0.867188 16.5344 1.14375 16.6609C1.32656 16.7453 1.54688 16.75 5.30156 16.75H9.27188L9.21094 17.0453C9.17813 17.2047 9.12656 17.4578 9.09375 17.6031L9.04219 17.875H8.175C7.05 17.875 7.125 17.8094 7.125 18.8125C7.125 19.5016 7.13438 19.5719 7.21875 19.6562C7.3125 19.75 7.37344 19.75 12 19.75C16.6266 19.75 16.6875 19.75 16.7813 19.6562C16.8656 19.5719 16.875 19.5016 16.875 18.8125C16.875 17.8094 16.95 17.875 15.825 17.875H14.9578L14.9063 17.6031C14.8734 17.4578 14.8219 17.2047 14.7891 17.0453L14.7281 16.75H18.6984C22.4531 16.75 22.6734 16.7453 22.8563 16.6609C23.1328 16.5344 23.3672 16.3094 23.5031 16.0375L23.625 15.7937V8.50469C23.625 1.51562 23.6203 1.20156 23.5359 1.01875C23.4094 0.742187 23.1844 0.507812 22.9125 0.371874L22.6688 0.249999H12.0047C1.73438 0.249999 1.32656 0.254687 1.14375 0.339062ZM22.5609 1.10781C22.6313 1.15 22.725 1.24375 22.7672 1.31406C22.8469 1.43594 22.8516 1.80625 22.8656 7.59531L22.875 13.75H12H1.125V7.68906C1.125 3.82656 1.14375 1.57187 1.17188 1.46406C1.22813 1.27187 1.3875 1.10781 1.575 1.04687C1.65 1.02344 6.33281 1.00937 12.0703 1.01406C21.8859 1.02344 22.4391 1.02812 22.5609 1.10781ZM22.8703 15.0297C22.8516 15.6016 22.8047 15.7328 22.5609 15.8922C22.4391 15.9719 21.8906 15.9766 12 15.9766C2.10938 15.9766 1.56094 15.9719 1.43906 15.8922C1.19531 15.7328 1.14844 15.6016 1.12969 15.0297L1.11563 14.5H12H22.8844L22.8703 15.0297ZM13.9688 17.0172C14.0016 17.1672 14.0531 17.4203 14.0859 17.5797L14.1469 17.875H12H9.85313L9.91406 17.5797C9.94688 17.4203 9.99844 17.1672 10.0313 17.0172L10.0828 16.75H12H13.9172L13.9688 17.0172ZM16.125 18.8125V19H12H7.875V18.8125V18.625H12H16.125V18.8125Z" fill="#4C5D70" stroke="#4C5D70" stroke-width="0.4"/>
</svg>
