<svg width="19" height="18" viewBox="0 0 19 18" fill="none" xmlns="http://www.w3.org/2000/svg">
<path d="M18.488 16.7171L13.3235 11.5447C14.3417 10.3226 14.954 8.76095 14.954 7.05528C14.954 3.16398 11.7631 0 7.83812 0C3.91312 0 0.714844 3.16767 0.714844 7.05897C0.714844 10.9503 3.90574 14.1142 7.83074 14.1142C9.49812 14.1142 11.0327 13.542 12.25 12.5858L17.433 17.7729C17.7354 18.0757 18.1855 18.0757 18.488 17.7729C18.7905 17.4702 18.7905 17.0198 18.488 16.7171ZM2.22729 7.05897C2.22729 4.00205 4.74313 1.51738 7.83074 1.51738C10.9183 1.51738 13.4342 4.00205 13.4342 7.05897C13.4342 10.1159 10.9183 12.6006 7.83074 12.6006C4.74313 12.6006 2.22729 10.1122 2.22729 7.05897Z" fill="#4C5D70"/>
</svg>
