<svg width="24" height="25" viewBox="0 0 24 25" fill="none" xmlns="http://www.w3.org/2000/svg">
<path d="M22.9554 11.2299L1.93619 0.129917C1.58819 -0.052483 1.16819 0.00751687 0.888588 0.281117C0.612588 0.552317 0.536988 0.973517 0.708588 1.32272L5.94299 12.0267L0.708588 22.7307C0.536988 23.0811 0.612588 23.5023 0.888588 23.7723C1.06259 23.9403 1.28819 24.0267 1.51619 24.0267C1.66019 24.0267 1.80419 23.9931 1.93619 23.9223L22.9566 12.8223C23.2506 12.6663 23.4366 12.3591 23.4366 12.0255C23.4366 11.6919 23.2506 11.3871 22.9566 11.2311L22.9554 11.2299ZM3.53699 3.01232L18.9018 11.1267H7.50539L3.53699 3.01472V3.01232ZM7.50539 12.9243H18.903L3.53699 21.0423L7.50539 12.9267V12.9243Z" fill="white"/>
</svg>
