<svg width="20" height="20" viewBox="0 0 20 20" fill="none" xmlns="http://www.w3.org/2000/svg">
<mask id="mask0_638_9914" style="mask-type:alpha" maskUnits="userSpaceOnUse" x="0" y="0" width="20" height="20">
<path fill-rule="evenodd" clip-rule="evenodd" d="M1 1H19V19H1V1Z" fill="white" stroke="white" stroke-width="0.5"/>
</mask>
<g mask="url(#mask0_638_9914)">
<path fill-rule="evenodd" clip-rule="evenodd" d="M5.85613 14.4121C6.06987 14.4121 6.28361 14.4373 6.49269 14.4894C7.12365 14.6475 7.67154 15.0401 7.99636 15.5674C8.2073 15.8984 8.32397 16.285 8.32771 16.6793C8.32771 17.244 8.81493 17.6966 9.41416 17.6966H10.5837C11.1801 17.6966 11.6673 17.2466 11.6701 16.6915C11.6664 16.0782 11.924 15.4953 12.3954 15.0566C12.8602 14.624 13.5098 14.3643 14.1594 14.3817C14.5851 14.3912 14.9948 14.4981 15.356 14.6892C15.8759 14.9663 16.5395 14.8013 16.8401 14.3235L17.4598 13.3618C17.598 13.1403 17.6381 12.8624 17.5644 12.6061C17.4916 12.3498 17.3086 12.1274 17.0622 11.9963C16.4854 11.687 16.0738 11.1884 15.903 10.5907C15.734 10.0044 15.8264 9.36416 16.1559 8.83687C16.3706 8.4894 16.6851 8.19665 17.0622 7.99512C17.5681 7.71974 17.7455 7.10385 17.4514 6.62433C17.4393 6.60522 17.4281 6.58524 17.4188 6.56439L16.8718 5.68181C16.5741 5.19969 15.9114 5.03377 15.3915 5.30915C14.8296 5.6184 14.1613 5.707 13.5191 5.54977C12.8779 5.39515 12.3403 5.01727 12.0052 4.4839C11.7905 4.15032 11.6739 3.76202 11.6701 3.36677C11.6785 3.06968 11.5665 2.80299 11.363 2.60754C11.1605 2.41295 10.8758 2.30263 10.5837 2.30263H9.41416C9.12481 2.30263 8.85413 2.40774 8.64972 2.59712C8.44625 2.78736 8.33517 3.04014 8.33704 3.30944C8.31744 4.57945 7.20206 5.60189 5.85146 5.60189C5.41838 5.59755 5.00116 5.48896 4.63901 5.28743C4.13032 5.01814 3.46576 5.18406 3.16801 5.66618L2.53611 6.63302C2.24677 7.10037 2.42411 7.71801 2.93933 7.99685C3.70377 8.40861 4.18072 9.17653 4.18072 10C4.18072 10.8236 3.70377 11.5906 2.93747 12.0032C2.42504 12.2795 2.2477 12.8936 2.54451 13.3714L3.13347 14.3165C3.27908 14.5606 3.51709 14.737 3.79244 14.8091C4.06685 14.8803 4.36926 14.8499 4.62127 14.7196C4.99182 14.5172 5.42304 14.4121 5.85613 14.4121ZM10.5833 19H9.41374C8.04261 19 6.92723 17.9628 6.92723 16.6867C6.92536 16.5295 6.87683 16.3661 6.78629 16.2246C6.63975 15.9865 6.40267 15.8163 6.12919 15.7485C5.85758 15.6808 5.55984 15.7181 5.31529 15.8502C4.72913 16.1542 4.03937 16.228 3.40841 16.063C2.77838 15.8971 2.23422 15.494 1.91501 14.9598L1.33165 14.0242C0.649349 12.9227 1.05537 11.5111 2.23702 10.8752C2.5721 10.6954 2.78024 10.3601 2.78024 10.0004C2.78024 9.6408 2.5721 9.30462 2.23702 9.1248C1.05443 8.48545 0.649349 7.07036 1.33071 5.96887L1.96354 5.00203C2.63651 3.9127 4.15791 3.52874 5.34423 4.16288C5.5057 4.25235 5.68117 4.29752 5.85945 4.29926C6.44094 4.29926 6.92723 3.85276 6.93656 3.30375C6.93283 2.69828 7.18951 2.11713 7.65713 1.67844C8.12662 1.24063 8.75011 1 9.41374 1H10.5833C11.2516 1 11.9012 1.25539 12.3669 1.69929C12.8318 2.14579 13.0884 2.75822 13.0688 3.37933C13.0707 3.51918 13.1202 3.68076 13.2098 3.82235C13.3582 4.0569 13.5925 4.22195 13.8706 4.28971C14.1488 4.35399 14.44 4.31924 14.6873 4.18286C15.882 3.54785 17.4025 3.92833 18.0848 5.03156L18.6663 5.96887C18.6812 5.99406 18.6943 6.01839 18.7055 6.04358C19.3234 7.1303 18.9108 8.49848 17.7628 9.12306C17.5957 9.21254 17.4604 9.33763 17.367 9.48878C17.2224 9.72246 17.1822 10.0004 17.255 10.2558C17.3297 10.5164 17.508 10.7327 17.759 10.8665C18.3256 11.1697 18.7484 11.6805 18.9174 12.2703C19.0863 12.8593 18.9939 13.4986 18.6644 14.0259L18.0447 14.9867C17.3624 16.0777 15.8419 16.4556 14.6593 15.8197C14.5016 15.7355 14.3196 15.6894 14.1385 15.6851H14.1329C13.8631 15.6851 13.5859 15.792 13.3843 15.9787C13.1799 16.169 13.0679 16.4226 13.0698 16.6919C13.0632 17.968 11.9479 19 10.5833 19Z" fill="#93AABE"/>
<path d="M6.49269 14.4894L6.55345 14.2469L6.55316 14.2468L6.49269 14.4894ZM7.99636 15.5674L7.78348 15.6986L7.78554 15.7018L7.99636 15.5674ZM8.32771 16.6793H8.57772L8.5777 16.677L8.32771 16.6793ZM11.6701 16.6915L11.9201 16.6928L11.9201 16.69L11.6701 16.6915ZM14.1594 14.3817L14.1528 14.6316L14.1538 14.6316L14.1594 14.3817ZM15.356 14.6892L15.4736 14.4686L15.4729 14.4682L15.356 14.6892ZM16.8401 14.3235L16.6299 14.188L16.6285 14.1904L16.8401 14.3235ZM17.4598 13.3618L17.67 13.4973L17.672 13.4941L17.4598 13.3618ZM17.5644 12.6061L17.3239 12.6744L17.3241 12.6752L17.5644 12.6061ZM17.0622 11.9963L16.9441 12.2166L16.9448 12.217L17.0622 11.9963ZM15.903 10.5907L16.1434 10.522L16.1432 10.5215L15.903 10.5907ZM16.1559 8.83687L16.3679 8.96935L16.3686 8.96827L16.1559 8.83687ZM17.0622 7.99512L17.1801 8.21561L17.1818 8.21469L17.0622 7.99512ZM17.4514 6.62433L17.6646 6.49364L17.6625 6.49033L17.4514 6.62433ZM17.4188 6.56439L17.647 6.46224L17.6401 6.44695L17.6313 6.4327L17.4188 6.56439ZM16.8718 5.68181L16.6591 5.81318L16.6593 5.8135L16.8718 5.68181ZM15.3915 5.30915L15.2745 5.0882L15.2709 5.09013L15.3915 5.30915ZM13.5191 5.54977L13.5786 5.30694L13.5777 5.30674L13.5191 5.54977ZM12.0052 4.4839L12.2169 4.3509L12.2154 4.3486L12.0052 4.4839ZM11.6701 3.36677L11.42 3.3597L11.4201 3.36913L11.6701 3.36677ZM11.363 2.60754L11.1898 2.78782L11.1899 2.78783L11.363 2.60754ZM8.64972 2.59712L8.47982 2.41372L8.47898 2.4145L8.64972 2.59712ZM8.33704 3.30944L8.58707 3.3133L8.58703 3.3077L8.33704 3.30944ZM5.85146 5.60189L5.84896 5.85189H5.85146V5.60189ZM4.63901 5.28743L4.7606 5.06893L4.75598 5.06648L4.63901 5.28743ZM3.16801 5.66618L3.37735 5.80299L3.38071 5.79754L3.16801 5.66618ZM2.53611 6.63302L2.32678 6.49621L2.32355 6.50142L2.53611 6.63302ZM2.93933 7.99685L2.82034 8.21672L2.82078 8.21696L2.93933 7.99685ZM2.93747 12.0032L2.81894 11.7831L2.81883 11.7832L2.93747 12.0032ZM2.54451 13.3714L2.33216 13.5033L2.33234 13.5036L2.54451 13.3714ZM3.13347 14.3165L3.34822 14.1884L3.34565 14.1843L3.13347 14.3165ZM3.79244 14.8091L3.72911 15.0509L3.72962 15.0511L3.79244 14.8091ZM4.62127 14.7196L4.73613 14.9417L4.74112 14.939L4.62127 14.7196ZM6.92723 16.6867H7.17725L7.17721 16.6837L6.92723 16.6867ZM6.78629 16.2246L6.57337 16.3556L6.57567 16.3592L6.78629 16.2246ZM6.12919 15.7485L6.06868 15.9911L6.06907 15.9912L6.12919 15.7485ZM5.31529 15.8502L5.43042 16.0721L5.43407 16.0701L5.31529 15.8502ZM3.40841 16.063L3.34474 16.3047L3.34514 16.3048L3.40841 16.063ZM1.91501 14.9598L2.12965 14.8315L2.12715 14.8275L1.91501 14.9598ZM1.33165 14.0242L1.11912 14.1558L1.11951 14.1565L1.33165 14.0242ZM2.23702 10.8752L2.11881 10.6549L2.11855 10.6551L2.23702 10.8752ZM2.23702 9.1248L2.11812 9.34472L2.11881 9.34509L2.23702 9.1248ZM1.33071 5.96887L1.12147 5.83191L1.1181 5.83735L1.33071 5.96887ZM1.96354 5.00203L2.17279 5.13899L2.17623 5.13342L1.96354 5.00203ZM5.34423 4.16288L5.46541 3.94418L5.46208 3.9424L5.34423 4.16288ZM5.85945 4.29926L5.85701 4.54926H5.85945V4.29926ZM6.93656 3.30375L7.18659 3.308L7.18656 3.30221L6.93656 3.30375ZM7.65713 1.67844L7.48663 1.49561L7.48608 1.49611L7.65713 1.67844ZM12.3669 1.69929L12.5401 1.519L12.5394 1.51832L12.3669 1.69929ZM13.0688 3.37933L12.8187 3.37143L12.8189 3.38266L13.0688 3.37933ZM13.2098 3.82235L13.421 3.68868L13.421 3.68867L13.2098 3.82235ZM13.8706 4.28971L13.8114 4.53262L13.8143 4.53329L13.8706 4.28971ZM14.6873 4.18286L14.57 3.96208L14.5666 3.96393L14.6873 4.18286ZM18.0848 5.03156L17.8722 5.16306L17.8724 5.16336L18.0848 5.03156ZM18.6663 5.96887L18.8814 5.84136L18.8787 5.83708L18.6663 5.96887ZM18.7055 6.04358L18.4771 6.14514L18.4821 6.15642L18.4882 6.16715L18.7055 6.04358ZM17.7628 9.12306L17.8808 9.34345L17.8823 9.34267L17.7628 9.12306ZM17.367 9.48878L17.5796 9.62038L17.5797 9.62013L17.367 9.48878ZM17.255 10.2558L17.0146 10.3244L17.0147 10.3247L17.255 10.2558ZM17.759 10.8665L17.877 10.6461L17.8766 10.6459L17.759 10.8665ZM18.9174 12.2703L18.677 12.3391L18.6771 12.3392L18.9174 12.2703ZM18.6644 14.0259L18.8745 14.1614L18.8764 14.1584L18.6644 14.0259ZM18.0447 14.9867L17.8346 14.8511L17.8327 14.8541L18.0447 14.9867ZM14.6593 15.8197L14.7777 15.5996L14.7771 15.5992L14.6593 15.8197ZM14.1385 15.6851L14.1445 15.4351H14.1385V15.6851ZM13.3843 15.9787L13.2144 15.7953L13.214 15.7957L13.3843 15.9787ZM13.0698 16.6919L13.3198 16.6932L13.3198 16.6902L13.0698 16.6919ZM5.85613 14.6621C6.05023 14.6621 6.24363 14.685 6.43222 14.732L6.55316 14.2468C6.3236 14.1896 6.08952 14.1621 5.85613 14.1621V14.6621ZM6.43193 14.7319C7.00319 14.875 7.4948 15.2299 7.7835 15.6986L8.20921 15.4363C7.84829 14.8504 7.24412 14.42 6.55345 14.2469L6.43193 14.7319ZM7.78554 15.7018C7.97171 15.9939 8.07443 16.3349 8.07772 16.6817L8.5777 16.677C8.57351 16.2351 8.44289 15.8029 8.20718 15.4331L7.78554 15.7018ZM8.07771 16.6793C8.07771 17.3979 8.69321 17.9466 9.41416 17.9466V17.4466C8.93665 17.4466 8.57771 17.0901 8.57771 16.6793H8.07771ZM9.41416 17.9466H10.5837V17.4466H9.41416V17.9466ZM10.5837 17.9466C11.3001 17.9466 11.9165 17.4023 11.9201 16.6928L11.4201 16.6903C11.4181 17.0909 11.0601 17.4466 10.5837 17.4466V17.9466ZM11.9201 16.69C11.9168 16.1501 12.1429 15.6331 12.5657 15.2397L12.225 14.8736C11.7051 15.3576 11.4159 16.0064 11.4201 16.693L11.9201 16.69ZM12.5657 15.2397C12.9847 14.8497 13.5715 14.616 14.1528 14.6316L14.1661 14.1318C13.4481 14.1126 12.7357 14.3984 12.225 14.8736L12.5657 15.2397ZM14.1538 14.6316C14.5413 14.6403 14.9129 14.7376 15.2391 14.9102L15.4729 14.4682C15.0767 14.2586 14.6288 14.1422 14.165 14.1317L14.1538 14.6316ZM15.2384 14.9098C15.8669 15.2448 16.6771 15.052 17.0517 14.4566L16.6285 14.1904C16.4019 14.5505 15.8849 14.6878 15.4736 14.4686L15.2384 14.9098ZM17.0502 14.4589L17.67 13.4973L17.2497 13.2264L16.6299 14.188L17.0502 14.4589ZM17.672 13.4941C17.8475 13.2126 17.898 12.8614 17.8046 12.537L17.3241 12.6752C17.3782 12.8633 17.3484 13.0681 17.2477 13.2296L17.672 13.4941ZM17.8049 12.5378C17.7126 12.2128 17.483 11.9371 17.1797 11.7756L16.9448 12.217C17.1342 12.3178 17.2706 12.4868 17.3239 12.6744L17.8049 12.5378ZM17.1804 11.7759C16.6595 11.4967 16.2945 11.0508 16.1434 10.522L15.6626 10.6594C15.8531 11.326 16.3113 11.8774 16.9441 12.2166L17.1804 11.7759ZM16.1432 10.5215C15.9943 10.0048 16.0752 9.43779 16.3679 8.96935L15.9439 8.70439C15.5777 9.29053 15.4737 10.0039 15.6628 10.66L16.1432 10.5215ZM16.3686 8.96827C16.5591 8.6599 16.8403 8.39721 17.1801 8.2156L16.9444 7.77463C16.53 7.99609 16.1821 8.3189 15.9432 8.70547L16.3686 8.96827ZM17.1818 8.21469C17.8062 7.87478 18.0376 7.10201 17.6646 6.49366L17.2383 6.75501C17.4533 7.10568 17.33 7.56471 16.9427 7.77554L17.1818 8.21469ZM17.6625 6.49033C17.6552 6.47881 17.6502 6.46958 17.647 6.46224L17.1906 6.66655C17.206 6.7009 17.2234 6.73164 17.2404 6.75834L17.6625 6.49033ZM17.6313 6.4327L17.0843 5.55012L16.6593 5.8135L17.2063 6.69609L17.6313 6.4327ZM17.0845 5.55045C16.7131 4.94901 15.903 4.75533 15.2745 5.08822L15.5085 5.53007C15.9198 5.31222 16.4351 5.45038 16.6591 5.81317L17.0845 5.55045ZM15.2709 5.09013C14.7648 5.36871 14.1608 5.4495 13.5786 5.30694L13.4597 5.7926C14.1618 5.96451 14.8944 5.86808 15.512 5.52817L15.2709 5.09013ZM13.5777 5.30674C12.9964 5.16655 12.5154 4.82601 12.2169 4.35091L11.7935 4.61689C12.1652 5.20853 12.7594 5.62374 13.4605 5.79281L13.5777 5.30674ZM12.2154 4.3486C12.0261 4.05444 11.9234 3.71218 11.9201 3.36441L11.4201 3.36913C11.4243 3.81187 11.5549 4.24621 11.795 4.61919L12.2154 4.3486ZM11.92 3.37384C11.9304 3.00656 11.7908 2.67174 11.5362 2.42724L11.1899 2.78783C11.3423 2.93424 11.4266 3.1328 11.4202 3.3597L11.92 3.37384ZM11.5362 2.42726C11.2844 2.18533 10.9365 2.05263 10.5837 2.05263V2.55263C10.8151 2.55263 11.0366 2.64058 11.1898 2.78782L11.5362 2.42726ZM10.5837 2.05263H9.41416V2.55263H10.5837V2.05263ZM9.41416 2.05263C9.06368 2.05263 8.7318 2.18027 8.47982 2.41372L8.81962 2.78051C8.97646 2.63521 9.18594 2.55263 9.41416 2.55263V2.05263ZM8.47898 2.4145C8.22657 2.6505 8.08468 2.96928 8.08705 3.31117L8.58703 3.3077C8.58567 3.11101 8.66592 2.92422 8.82046 2.77973L8.47898 2.4145ZM8.08707 3.30558C8.06982 4.42359 7.08148 5.35189 5.85146 5.35189V5.85189C7.32263 5.85189 8.56506 4.73532 8.58701 3.31329L8.08707 3.30558ZM5.85397 5.35191C5.46086 5.34796 5.08482 5.24942 4.76058 5.06898L4.51744 5.50588C4.9175 5.72851 5.37589 5.84714 5.84896 5.85188L5.85397 5.35191ZM4.75598 5.06648C4.1373 4.73896 3.32593 4.93468 2.9553 5.53481L3.38071 5.79754C3.60558 5.43343 4.12334 5.29731 4.52204 5.50838L4.75598 5.06648ZM2.95874 5.5294L2.32684 6.49625L2.74538 6.76979L3.37728 5.80295L2.95874 5.5294ZM2.32355 6.50142C1.95224 7.10117 2.18939 7.87524 2.82034 8.21672L3.05833 7.77699C2.65883 7.56078 2.5413 7.09958 2.74867 6.76462L2.32355 6.50142ZM2.82078 8.21696C3.51004 8.58822 3.93072 9.27488 3.93072 10H4.43072C4.43072 9.07817 3.89749 8.229 3.05789 7.77675L2.82078 8.21696ZM3.93072 10C3.93072 10.725 3.51025 11.4109 2.81894 11.7831L3.05599 12.2233C3.89728 11.7703 4.43072 10.9221 4.43072 10H3.93072ZM2.81883 11.7832C2.18815 12.1232 1.95424 12.895 2.33216 13.5033L2.75687 13.2395C2.54116 12.8923 2.66193 12.4358 3.0561 12.2233L2.81883 11.7832ZM2.33234 13.5036L2.9213 14.4487L3.34565 14.1843L2.75669 13.2392L2.33234 13.5036ZM2.91877 14.4446C3.09866 14.7462 3.39166 14.9626 3.72911 15.0509L3.85577 14.5672C3.64252 14.5114 3.4595 14.3751 3.34818 14.1885L2.91877 14.4446ZM3.72962 15.0511C4.06158 15.1372 4.42745 15.1013 4.7361 14.9417L4.50645 14.4975C4.31107 14.5985 4.07212 14.6234 3.85525 14.5671L3.72962 15.0511ZM4.74112 14.939C5.07277 14.7578 5.46241 14.6621 5.85613 14.6621V14.1621C5.38367 14.1621 4.91088 14.2765 4.50143 14.5002L4.74112 14.939ZM10.5833 18.75H9.41374V19.25H10.5833V18.75ZM9.41374 18.75C8.16334 18.75 7.17723 17.808 7.17723 16.6867H6.67723C6.67723 18.1176 7.92188 19.25 9.41374 19.25V18.75ZM7.17721 16.6837C7.17478 16.4785 7.11191 16.2697 6.99692 16.0899L6.57567 16.3592C6.64174 16.4626 6.67595 16.5804 6.67725 16.6897L7.17721 16.6837ZM6.99918 16.0935C6.81735 15.7982 6.5246 15.5889 6.18932 15.5059L6.06907 15.9912C6.28075 16.0436 6.46215 16.1749 6.5734 16.3556L6.99918 16.0935ZM6.18971 15.5059C5.85793 15.4232 5.49621 15.4684 5.19651 15.6302L5.43407 16.0701C5.62347 15.9679 5.85724 15.9383 6.06868 15.9911L6.18971 15.5059ZM5.20018 15.6282C4.6694 15.9035 4.04323 15.9706 3.47167 15.8211L3.34514 16.3048C4.03551 16.4854 4.78887 16.4048 5.4304 16.0721L5.20018 15.6282ZM3.47207 15.8212C2.90236 15.6712 2.41379 15.3071 2.12961 14.8315L1.7004 15.088C2.05466 15.6809 2.65439 16.1229 3.34474 16.3047L3.47207 15.8212ZM2.12715 14.8275L1.54379 13.8919L1.11951 14.1565L1.70287 15.092L2.12715 14.8275ZM1.54418 13.8925C0.942492 12.9212 1.2926 11.6673 2.35549 11.0953L2.11855 10.6551C0.818138 11.3548 0.356206 12.9242 1.11912 14.1558L1.54418 13.8925ZM2.35523 11.0955C2.76573 10.8752 3.03024 10.4585 3.03024 10.0004H2.53024C2.53024 10.2616 2.37847 10.5156 2.11881 10.6549L2.35523 11.0955ZM3.03024 10.0004C3.03024 9.54261 2.76596 9.12493 2.35523 8.90452L2.11881 9.34509C2.37825 9.48431 2.53024 9.73899 2.53024 10.0004H3.03024ZM2.35592 8.90488C1.29173 8.32954 0.942369 7.07189 1.54332 6.10039L1.1181 5.83735C0.35633 7.06884 0.81714 8.64136 2.11812 9.34472L2.35592 8.90488ZM1.53989 6.10578L2.17272 5.13894L1.75436 4.86511L1.12154 5.83196L1.53989 6.10578ZM2.17623 5.13342C2.77535 4.16361 4.14884 3.80737 5.22637 4.38336L5.46208 3.9424C4.16697 3.25011 2.49766 3.66178 1.75085 4.87063L2.17623 5.13342ZM5.22306 4.38155C5.42114 4.49131 5.63746 4.54711 5.85701 4.54925L5.86189 4.04927C5.72489 4.04794 5.59026 4.0134 5.4654 3.94421L5.22306 4.38155ZM5.85945 4.54926C6.56222 4.54926 7.17463 4.00805 7.18653 3.308L6.6866 3.2995C6.67983 3.69746 6.31966 4.04926 5.85945 4.04926V4.54926ZM7.18656 3.30221C7.18328 2.77042 7.40827 2.25469 7.82818 1.86077L7.48608 1.49611C6.97075 1.97956 6.68238 2.62613 6.68657 3.30529L7.18656 3.30221ZM7.82763 1.86128C8.24908 1.46826 8.81096 1.25 9.41374 1.25V0.75C8.68926 0.75 8.00415 1.01299 7.48663 1.49561L7.82763 1.86128ZM9.41374 1.25H10.5833V0.75H9.41374V1.25ZM10.5833 1.25C11.1898 1.25 11.777 1.48235 12.1945 1.88026L12.5394 1.51832C12.0254 1.02844 11.3133 0.75 10.5833 0.75V1.25ZM12.1938 1.87958C12.6099 2.27936 12.8362 2.82436 12.819 3.37144L13.3187 3.38721C13.3407 2.69207 13.0536 2.01222 12.5401 1.519L12.1938 1.87958ZM12.8189 3.38266C12.8214 3.5742 12.8873 3.78032 12.9985 3.95604L13.421 3.68867C13.353 3.58119 13.32 3.46416 13.3188 3.37599L12.8189 3.38266ZM12.9985 3.95603C13.183 4.24763 13.4731 4.45018 13.8114 4.5326L13.9298 4.04681C13.7118 3.99372 13.5333 3.86617 13.421 3.68868L12.9985 3.95603ZM13.8143 4.53329C14.1485 4.61052 14.5033 4.56983 14.808 4.40178L14.5666 3.96393C14.3767 4.06865 14.149 4.09746 13.9269 4.04613L13.8143 4.53329ZM14.8046 4.40361C15.8909 3.82626 17.2637 4.17928 17.8722 5.16306L18.2974 4.90006C17.5413 3.67739 15.8732 3.26944 14.57 3.9621L14.8046 4.40361ZM17.8724 5.16336L18.4539 6.10067L18.8787 5.83708L18.2972 4.89977L17.8724 5.16336ZM18.4512 6.09636C18.4628 6.11593 18.4709 6.13136 18.4771 6.14514L18.9339 5.94201C18.9177 5.90542 18.8996 5.8722 18.8813 5.84139L18.4512 6.09636ZM18.4882 6.16715C19.0327 7.12487 18.6761 8.3416 17.6433 8.90346L17.8823 9.34267C19.1456 8.65535 19.6141 7.13574 18.9228 5.92001L18.4882 6.16715ZM17.6448 8.90268C17.4415 9.01153 17.2724 9.16627 17.1543 9.35743L17.5797 9.62013C17.6484 9.50898 17.7499 9.41354 17.8808 9.34345L17.6448 8.90268ZM17.1545 9.35718C16.974 9.64873 16.9219 9.99914 17.0146 10.3244L17.4954 10.1873C17.4426 10.0017 17.4707 9.79618 17.5796 9.62038L17.1545 9.35718ZM17.0147 10.3247C17.109 10.6538 17.3337 10.9232 17.6415 11.0871L17.8766 10.6459C17.6822 10.5423 17.5504 10.3791 17.4954 10.187L17.0147 10.3247ZM17.6411 11.0869C18.1516 11.3601 18.5278 11.8181 18.677 12.3391L19.1577 12.2015C18.9691 11.5428 18.4996 10.9792 17.877 10.6461L17.6411 11.0869ZM18.6771 12.3392C18.8261 12.8588 18.745 13.4251 18.4524 13.8934L18.8764 14.1584C19.2428 13.5721 19.3465 12.8597 19.1577 12.2014L18.6771 12.3392ZM18.4543 13.8904L17.8346 14.8512L18.2547 15.1222L18.8745 14.1614L18.4543 13.8904ZM17.8327 14.8541C17.2244 15.8269 15.8513 16.1768 14.7777 15.5996L14.5409 16.0399C15.8325 16.7344 17.5003 16.3286 18.2566 15.1192L17.8327 14.8541ZM14.7771 15.5992C14.5832 15.4957 14.3626 15.4404 14.1445 15.4352L14.1325 15.935C14.2765 15.9385 14.4199 15.9753 14.5415 16.0403L14.7771 15.5992ZM14.1385 15.4351H14.1329V15.9351H14.1385V15.4351ZM14.1329 15.4351C13.8006 15.4351 13.4626 15.5654 13.2144 15.7953L13.5542 16.1621C13.7092 16.0185 13.9256 15.9351 14.1329 15.9351V15.4351ZM13.214 15.7957C12.9606 16.0316 12.8174 16.3513 12.8198 16.6936L13.3198 16.6902C13.3184 16.4939 13.3993 16.3063 13.5546 16.1617L13.214 15.7957ZM12.8198 16.6906C12.814 17.8129 11.8271 18.75 10.5833 18.75V19.25C12.0686 19.25 13.3124 18.1231 13.3198 16.6932L12.8198 16.6906Z" fill="#93AABE"/>
</g>
<path fill-rule="evenodd" clip-rule="evenodd" d="M9.8419 8.3875C8.92046 8.3875 8.1709 9.13794 8.1709 10.0594C8.1709 10.9808 8.92046 11.7295 9.8419 11.7295C10.7633 11.7295 11.5129 10.9808 11.5129 10.0594C11.5129 9.13794 10.7633 8.3875 9.8419 8.3875ZM9.8418 13.0586C8.18763 13.0586 6.8418 11.7136 6.8418 10.0595C6.8418 8.40532 8.18763 7.05859 9.8418 7.05859C11.496 7.05859 12.8418 8.40532 12.8418 10.0595C12.8418 11.7136 11.496 13.0586 9.8418 13.0586Z" fill="#93AABE"/>
<path d="M9.8419 8.1375C8.78221 8.1375 7.9209 9.00004 7.9209 10.0594H8.4209C8.4209 9.27584 9.0587 8.6375 9.8419 8.6375V8.1375ZM7.9209 10.0594C7.9209 11.1191 8.78256 11.9795 9.8419 11.9795V11.4795C9.05835 11.4795 8.4209 10.8426 8.4209 10.0594H7.9209ZM9.8419 11.9795C10.9012 11.9795 11.7629 11.1191 11.7629 10.0594H11.2629C11.2629 10.8426 10.6254 11.4795 9.8419 11.4795V11.9795ZM11.7629 10.0594C11.7629 9.00004 10.9016 8.1375 9.8419 8.1375V8.6375C10.6251 8.6375 11.2629 9.27584 11.2629 10.0594H11.7629ZM9.8418 12.8086C8.32561 12.8086 7.0918 11.5755 7.0918 10.0595H6.5918C6.5918 11.8518 8.04966 13.3086 9.8418 13.3086V12.8086ZM7.0918 10.0595C7.0918 8.54329 8.3258 7.30859 9.8418 7.30859V6.80859C8.04947 6.80859 6.5918 8.26734 6.5918 10.0595H7.0918ZM9.8418 7.30859C11.3578 7.30859 12.5918 8.54329 12.5918 10.0595H13.0918C13.0918 8.26734 11.6341 6.80859 9.8418 6.80859V7.30859ZM12.5918 10.0595C12.5918 11.5755 11.358 12.8086 9.8418 12.8086V13.3086C11.6339 13.3086 13.0918 11.8518 13.0918 10.0595H12.5918Z" fill="#93AABE"/>
</svg>
