<svg width="19" height="18" viewBox="0 0 19 18" fill="none" xmlns="http://www.w3.org/2000/svg">
<mask id="mask0_6710_46902" style="mask-type:alpha" maskUnits="userSpaceOnUse" x="0" y="0" width="19" height="18">
<path fill-rule="evenodd" clip-rule="evenodd" d="M0.713867 0H18.7139V18H0.713867V0Z" fill="white"/>
</mask>
<g mask="url(#mask0_6710_46902)">
<path fill-rule="evenodd" clip-rule="evenodd" d="M5.57 13.4121C5.78374 13.4121 5.99748 13.4373 6.20656 13.4894C6.83752 13.6475 7.38541 14.0401 7.71023 14.5674C7.92117 14.8984 8.03784 15.285 8.04157 15.6793C8.04157 16.244 8.5288 16.6966 9.12802 16.6966H10.2975C10.894 16.6966 11.3812 16.2466 11.384 15.6915C11.3803 15.0782 11.6379 14.4953 12.1092 14.0566C12.574 13.624 13.2237 13.3643 13.8733 13.3817C14.2989 13.3912 14.7087 13.4981 15.0699 13.6892C15.5898 13.9663 16.2534 13.8013 16.554 13.3235L17.1737 12.3618C17.3119 12.1403 17.352 11.8624 17.2783 11.6061C17.2055 11.3498 17.0225 11.1274 16.7761 10.9963C16.1993 10.687 15.7877 10.1884 15.6168 9.59074C15.4479 9.00438 15.5403 8.36416 15.8698 7.83687C16.0845 7.4894 16.399 7.19665 16.7761 6.99512C17.282 6.71974 17.4593 6.10385 17.1653 5.62433C17.1532 5.60522 17.142 5.58524 17.1326 5.56439L16.5857 4.68181C16.2879 4.19969 15.6252 4.03377 15.1054 4.30915C14.5435 4.6184 13.8752 4.707 13.233 4.54977C12.5918 4.39515 12.0542 4.01727 11.7191 3.4839C11.5044 3.15032 11.3877 2.76202 11.384 2.36677C11.3924 2.06968 11.2804 1.80299 11.0769 1.60754C10.8744 1.41295 10.5897 1.30263 10.2975 1.30263H9.12802C8.83868 1.30263 8.568 1.40774 8.36359 1.59712C8.16011 1.78736 8.04904 2.04014 8.05091 2.30944C8.03131 3.57945 6.91592 4.60189 5.56533 4.60189C5.13224 4.59755 4.71502 4.48896 4.35288 4.28743C3.84419 4.01814 3.17962 4.18406 2.88188 4.66618L2.24998 5.63302C1.96063 6.10037 2.13798 6.71801 2.6532 6.99685C3.41763 7.40861 3.89459 8.17653 3.89459 9.00004C3.89459 9.82355 3.41763 10.5906 2.65133 11.0032C2.13891 11.2795 1.96157 11.8936 2.25838 12.3714L2.84734 13.3165C2.99295 13.5606 3.23096 13.737 3.5063 13.8091C3.78072 13.8803 4.08313 13.8499 4.33514 13.7196C4.70569 13.5172 5.13691 13.4121 5.57 13.4121ZM10.2971 18H9.12761C7.75648 18 6.6411 16.9628 6.6411 15.6867C6.63923 15.5295 6.5907 15.3661 6.50016 15.2246C6.35362 14.9865 6.11654 14.8163 5.84306 14.7485C5.57145 14.6808 5.2737 14.7181 5.02916 14.8502C4.443 15.1542 3.75324 15.228 3.12227 15.063C2.49225 14.8971 1.94809 14.494 1.62887 13.9598L1.04551 13.0242C0.363217 11.9227 0.769235 10.5111 1.95089 9.8752C2.28597 9.69538 2.49411 9.36007 2.49411 9.00043C2.49411 8.6408 2.28597 8.30462 1.95089 8.1248C0.768301 7.48545 0.363217 6.07036 1.04458 4.96887L1.67741 4.00203C2.35037 2.9127 3.87177 2.52874 5.05809 3.16288C5.21957 3.25235 5.39504 3.29752 5.57332 3.29926C6.15481 3.29926 6.6411 2.85276 6.65043 2.30375C6.6467 1.69828 6.90338 1.11713 7.371 0.678442C7.84048 0.240625 8.46398 0 9.12761 0H10.2971C10.9654 0 11.6151 0.255393 12.0808 0.699291C12.5456 1.14579 12.8023 1.75822 12.7827 2.37933C12.7846 2.51918 12.834 2.68076 12.9236 2.82235C13.0721 3.0569 13.3063 3.22195 13.5845 3.28971C13.8626 3.35399 14.1538 3.31924 14.4012 3.18286C15.5959 2.54785 17.1164 2.92833 17.7987 4.03156L18.3802 4.96887C18.3951 4.99406 18.4082 5.01839 18.4194 5.04358C19.0373 6.1303 18.6247 7.49848 17.4767 8.12306C17.3096 8.21254 17.1742 8.33763 17.0809 8.48878C16.9362 8.72246 16.8961 9.00043 16.9689 9.25583C17.0436 9.51643 17.2218 9.73273 17.4729 9.86651C18.0395 10.1697 18.4623 10.6805 18.6312 11.2703C18.8002 11.8593 18.7078 12.4986 18.3783 13.0259L17.7585 13.9867C17.0762 15.0777 15.5558 15.4556 14.3732 14.8197C14.2154 14.7355 14.0334 14.6894 13.8524 14.6851H13.8468C13.577 14.6851 13.2998 14.792 13.0982 14.9787C12.8938 15.169 12.7818 15.4226 12.7836 15.6919C12.7771 16.968 11.6617 18 10.2971 18Z" fill="#4C5D70"/>
</g>
<path fill-rule="evenodd" clip-rule="evenodd" d="M9.55576 7.39141C8.63432 7.39141 7.88477 8.14185 7.88477 9.06329C7.88477 9.98473 8.63432 10.7334 9.55576 10.7334C10.4772 10.7334 11.2268 9.98473 11.2268 9.06329C11.2268 8.14185 10.4772 7.39141 9.55576 7.39141ZM9.55566 12.0625C7.9015 12.0625 6.55566 10.7176 6.55566 9.06339C6.55566 7.40922 7.9015 6.0625 9.55566 6.0625C11.2098 6.0625 12.5557 7.40922 12.5557 9.06339C12.5557 10.7176 11.2098 12.0625 9.55566 12.0625Z" fill="#4C5D70"/>
</svg>
