<svg width="40" height="40" viewBox="0 0 40 40" fill="none" xmlns="http://www.w3.org/2000/svg">
<rect width="40" height="40" rx="4" fill="#D9EFFD"/>
<path d="M12.6359 8.1125C11.8156 8.39375 11.2016 9.0125 10.9531 9.82812C10.8594 10.1187 10.8594 10.3156 10.8594 20.0047C10.8594 29.6937 10.8594 29.8906 10.9531 30.1812C11.2016 30.9969 11.8156 31.6156 12.6359 31.8969L12.9453 32H20H27.0547L27.3641 31.8969C28.1891 31.6156 28.8031 30.9922 29.0516 30.1766C29.1406 29.8766 29.1406 29.7266 29.1313 22.0437L29.1172 14.2156L29.0094 13.9484C28.7844 13.3953 28.5969 13.1937 26.1688 10.8922C23.6188 8.48281 23.5578 8.42656 23.225 8.25781C22.7141 8 22.8594 8.00469 17.7031 8.00469L12.9453 8.00937L12.6359 8.1125ZM21.8375 11.6469L21.8516 13.8875L21.9688 14.1219C22.1141 14.4219 22.4422 14.75 22.7422 14.8953L22.9766 15.0125L25.3578 15.0266L27.7344 15.0406L27.725 22.3625L27.7109 29.6844L27.5703 29.9375C27.4297 30.1906 27.2844 30.3266 26.9844 30.4859C26.825 30.5703 26.5719 30.575 20 30.575H13.1797L12.9453 30.4484C12.6688 30.3031 12.5516 30.1812 12.4016 29.8953L12.2891 29.6844V20.0047V10.325L12.4016 10.1141C12.5984 9.73438 12.8797 9.52344 13.2734 9.45312C13.3766 9.43906 15.3406 9.42031 17.6422 9.41562L21.8234 9.41094L21.8375 11.6469ZM25.3578 12.1484L26.9 13.6062L25.2641 13.6203C24.3688 13.625 23.5625 13.6203 23.4781 13.6062C23.3703 13.5875 23.3094 13.5406 23.2813 13.4609C23.2531 13.3953 23.2344 12.6453 23.2344 11.7453V10.1516L23.5297 10.4234C23.6891 10.5734 24.5141 11.3469 25.3578 12.1484Z" fill="#3BA4E8"/>
<path d="M16.091 10.907C15.8051 11.0992 15.7816 11.1789 15.7816 12.093V12.9273H14.952C14.0332 12.9273 13.9535 12.9508 13.7613 13.2367C13.6395 13.4195 13.6395 13.8414 13.7613 14.0242C13.9535 14.3102 14.0332 14.3336 14.952 14.3336H15.7816V15.1633C15.7816 16.082 15.8051 16.1617 16.091 16.3539C16.2738 16.4758 16.6957 16.4758 16.8785 16.3539C17.1645 16.1617 17.1879 16.082 17.1879 15.1633V14.3336H18.0223C18.9363 14.3336 19.016 14.3102 19.2082 14.0242C19.3301 13.8414 19.3301 13.4195 19.2082 13.2367C19.016 12.9508 18.9363 12.9273 18.0223 12.9273H17.1879V12.093C17.1879 11.357 17.1785 11.2492 17.0988 11.1273C16.9535 10.9117 16.7754 10.818 16.4848 10.818C16.3113 10.818 16.1848 10.8461 16.091 10.907Z" fill="#3BA4E8"/>
<path d="M14.3094 18.8703C14.0938 19.0156 14 19.1937 14 19.4844C14 19.775 14.0938 19.9531 14.3094 20.0984C14.4406 20.1828 14.6328 20.1875 19.8594 20.1875C25.0859 20.1875 25.2781 20.1828 25.4094 20.0984C25.625 19.9531 25.7188 19.775 25.7188 19.4844C25.7188 19.1937 25.625 19.0156 25.4094 18.8703C25.2781 18.7859 25.0859 18.7812 19.8594 18.7812C14.6328 18.7812 14.4406 18.7859 14.3094 18.8703Z" fill="#3BA4E8"/>
<path d="M14.3094 22.6203C14.0938 22.7656 14 22.9437 14 23.2344C14 23.525 14.0938 23.7031 14.3094 23.8484C14.4406 23.9328 14.6328 23.9375 19.8594 23.9375C25.0859 23.9375 25.2781 23.9328 25.4094 23.8484C25.625 23.7031 25.7188 23.525 25.7188 23.2344C25.7188 22.9437 25.625 22.7656 25.4094 22.6203C25.2781 22.5359 25.0859 22.5312 19.8594 22.5312C14.6328 22.5312 14.4406 22.5359 14.3094 22.6203Z" fill="#3BA4E8"/>
<path d="M14.3094 26.3703C14.0938 26.5156 14 26.6937 14 26.9844C14 27.275 14.0938 27.4531 14.3094 27.5984C14.4359 27.6828 14.5625 27.6875 16.3906 27.6875C18.2516 27.6875 18.3406 27.6828 18.4906 27.5938C18.7016 27.4625 18.8281 27.2375 18.8281 26.9844C18.8281 26.7312 18.7016 26.5062 18.4906 26.375C18.3406 26.2859 18.2516 26.2812 16.3906 26.2812C14.5625 26.2812 14.4359 26.2859 14.3094 26.3703Z" fill="#3BA4E8"/>
</svg>
