<svg xmlns="http://www.w3.org/2000/svg" viewBox="0 0 69.69 69.64"><defs><style>.cls-1{fill:#484848;}</style></defs><g id="Layer_2" data-name="Layer 2"><g id="Layer_1-2" data-name="Layer 1"><path class="cls-1" d="M69.69,34.77A34.85,34.85,0,0,1,0,35.11a34.85,34.85,0,1,1,69.69-.34Zm-10,.23A24.87,24.87,0,1,0,34.54,59.66,25,25,0,0,0,59.71,35Z"/><path class="cls-1" d="M35.29,34.81c2.81,0,5.62-.08,8.43,0,4.64.16,6.53,2.47,5.93,7.05A15,15,0,0,1,20,42c-.65-4.56,1.27-7,5.83-7.15C29,34.71,32.15,34.81,35.29,34.81Z"/><path class="cls-1" d="M29.9,25.06c-.59,2.91-2.19,4.9-5.29,4.68S19.77,27.53,20,24.46A4.54,4.54,0,0,1,24.93,20C28,20.05,29.55,22,29.9,25.06Z"/><path class="cls-1" d="M45.05,19.87c2.9.63,4.9,2.25,4.62,5.35S47.41,30,44.33,29.73a4.54,4.54,0,0,1-4.42-5C40,21.69,42,20.18,45.05,19.87Z"/></g></g></svg>