<svg width="24" height="24" viewBox="0 0 24 24" fill="none" xmlns="http://www.w3.org/2000/svg">
<path d="M11.6117 1.45083C11.6079 1.45834 11.6028 1.46863 11.5962 1.48217C11.5725 1.53059 11.5396 1.60057 11.4975 1.69198C11.4138 1.87394 11.2999 2.12765 11.1638 2.43583C10.8918 3.05147 10.5345 3.87567 10.1582 4.75925L10.158 4.7597L10.0705 4.96475C9.44937 6.42056 9.12065 7.19102 8.93148 7.59662C8.84057 7.79155 8.75188 7.97052 8.65254 8.10076C8.59353 8.17811 8.50122 8.27913 8.36192 8.35575C8.22819 8.42931 8.1039 8.44874 8.07259 8.45363C8.07114 8.45386 8.06989 8.45405 8.06885 8.45422L8.053 8.45678L8.03706 8.45865C7.94387 8.46962 6.32537 8.6209 4.44953 8.78889C4.4494 8.7889 4.44927 8.78891 4.44913 8.78893L4.41244 8.79223C2.59896 8.95561 1.73719 9.03324 1.27955 9.10369C1.07424 9.1353 1.00286 9.15852 0.984242 9.16565C0.975619 9.17222 0.961688 9.18386 0.919428 9.22017L0.919456 9.2202L0.913264 9.22541C0.891526 9.24368 0.831304 9.31772 0.790085 9.45296C0.750639 9.58238 0.754496 9.68349 0.764663 9.72672C0.76526 9.72825 0.766054 9.73024 0.767069 9.7327C0.772266 9.74529 0.780398 9.76314 0.791229 9.78429C0.801936 9.8052 0.813483 9.82584 0.824592 9.84408C0.830072 9.85308 0.83481 9.86046 0.838655 9.86623C0.843703 9.87145 0.85041 9.8783 0.859031 9.88693C0.894369 9.9223 0.946898 9.973 1.01723 10.0393C1.15703 10.171 1.35325 10.351 1.59281 10.5676C2.07104 10.9999 2.71217 11.5688 3.39888 12.1691C4.69372 13.2966 5.86332 14.3215 6.05028 14.4956L6.05039 14.4954L6.18164 14.6173L6.49906 14.9121L6.40238 15.3343L5.62443 18.732C5.62441 18.7321 5.62439 18.7322 5.62436 18.7323C5.37154 19.8419 5.17796 20.7119 5.04725 21.326C4.98178 21.6335 4.93289 21.8731 4.90038 22.0449C4.8794 22.1557 4.86911 22.2196 4.8642 22.2499C4.86206 22.2633 4.86094 22.2702 4.86042 22.2718C4.86414 22.4684 4.95305 22.6089 5.14052 22.6998L5.14055 22.6997L5.1489 22.7039C5.2837 22.7713 5.45125 22.7683 5.5523 22.723L5.55675 22.7211C5.549 22.7245 5.55547 22.7209 5.58111 22.7066C5.61128 22.6898 5.668 22.6583 5.75933 22.606C5.90397 22.5232 6.10151 22.4084 6.3385 22.2695C6.81201 21.9919 7.43713 21.6215 8.09927 21.2261C8.47866 20.9996 8.8565 20.774 9.20901 20.5636C10.091 20.0371 10.8144 19.6052 11.0072 19.4888C11.1486 19.4036 11.2867 19.3229 11.3957 19.2609C11.45 19.2301 11.4994 19.2025 11.5398 19.1808C11.5409 19.1802 11.5422 19.1795 11.5437 19.1787C11.5659 19.1666 11.635 19.1291 11.6986 19.1053C11.8698 19.0411 12.0168 19.0584 12.0505 19.0624L12.0518 19.0625C12.1066 19.0689 12.1494 19.08 12.1706 19.086C12.2148 19.0983 12.2502 19.1124 12.2664 19.119C12.303 19.134 12.3382 19.1508 12.3638 19.1635C12.419 19.1907 12.4884 19.2276 12.566 19.2699C12.7235 19.3558 12.9438 19.4803 13.2127 19.6351C13.7518 19.9454 14.5009 20.386 15.3655 20.9029L15.3657 20.903C16.1758 21.3877 16.9349 21.8391 17.5055 22.1755C17.791 22.3439 18.028 22.4826 18.2002 22.582C18.3034 22.6416 18.3696 22.679 18.4069 22.7C18.4368 22.7169 18.4481 22.7233 18.445 22.7222L18.455 22.7269C18.545 22.7685 18.7085 22.7747 18.85 22.7039L18.8499 22.7039L18.8583 22.6998C19.0458 22.6089 19.1347 22.4684 19.1384 22.2718C19.1379 22.2702 19.1368 22.2633 19.1346 22.2499C19.1297 22.2196 19.1195 22.1557 19.0985 22.0449C19.066 21.8731 19.0171 21.6335 18.9516 21.326C18.8209 20.7119 18.6273 19.8417 18.3744 18.732L18.3744 18.7318L17.6009 15.3333L17.5065 14.9183L17.8144 14.6244L17.9175 14.526L17.9176 14.5261C18.0708 14.383 19.2541 13.3455 20.5757 12.1885L20.5768 12.1876C21.2704 11.5827 21.9174 11.0092 22.3997 10.5733C22.6413 10.3551 22.8391 10.1736 22.98 10.0408C23.0508 9.97409 23.1038 9.92297 23.1395 9.88729C23.1482 9.87852 23.155 9.87157 23.1601 9.86628C23.2348 9.75817 23.2512 9.67818 23.2396 9.56495C23.2177 9.36585 23.0889 9.20033 22.9488 9.1317C22.9135 9.12559 22.8598 9.11746 22.7842 9.10733C22.6265 9.08622 22.398 9.05968 22.093 9.0274C21.4843 8.963 20.5914 8.87787 19.3947 8.77015L19.3934 8.77003C18.4222 8.68088 17.5362 8.59757 16.8914 8.53532C16.5692 8.50422 16.3062 8.47827 16.1225 8.45944C16.0311 8.45007 15.9571 8.44224 15.9047 8.43631C15.8793 8.43343 15.8548 8.43054 15.8345 8.42784C15.8256 8.42665 15.8099 8.42451 15.7928 8.42159C15.7859 8.42042 15.7664 8.41705 15.7425 8.4114C15.732 8.40891 15.7051 8.40241 15.6719 8.39108C15.6556 8.38553 15.6248 8.37444 15.5877 8.35653C15.5636 8.34491 15.473 8.30112 15.3832 8.21131C15.3342 8.16237 15.3033 8.11732 15.2955 8.10592L15.2951 8.10542C15.2827 8.08734 15.2736 8.07239 15.2688 8.06437C15.2591 8.04801 15.252 8.0347 15.2491 8.02916C15.2426 8.01676 15.2375 8.00638 15.2355 8.00207C15.2305 7.99188 15.2259 7.98178 15.2225 7.97453C15.2154 7.95882 15.2063 7.93853 15.196 7.9155C15.1753 7.86868 15.1459 7.80172 15.1092 7.71764C15.0356 7.54908 14.9307 7.30725 14.8025 7.01034C14.546 6.41632 14.1952 5.5997 13.8127 4.70345C13.4318 3.81061 13.0711 2.98071 12.7974 2.3635C12.6604 2.05449 12.5462 1.80117 12.4627 1.62076C12.4233 1.53565 12.3922 1.47002 12.3696 1.42374C12.3271 1.38865 12.2488 1.34016 12.1357 1.30658C12.0679 1.28644 12.0048 1.27721 11.9539 1.27626C11.906 1.27535 11.8829 1.28195 11.8806 1.28262C11.8804 1.28268 11.8803 1.28269 11.8805 1.28263L11.6117 1.45083ZM12.3399 1.36546C12.3395 1.36493 12.3408 1.36739 12.3436 1.37212L12.3432 1.37149C12.3412 1.36776 12.3401 1.36584 12.3399 1.36546ZM22.978 9.13715C22.9814 9.13798 22.9833 9.13837 22.9834 9.13836C22.9835 9.13835 22.9818 9.13794 22.978 9.13715Z" stroke="#3BA4E8" stroke-width="1.5"/>
</svg>
