<svg width="18" height="18" viewBox="0 0 18 18" fill="none" xmlns="http://www.w3.org/2000/svg">
<path d="M8.71676 0.428705C8.49879 0.509563 8.33707 0.629095 8.23512 0.780268C8.17887 0.861126 7.6691 2.01425 7.10308 3.34316C6.08004 5.74081 6.07301 5.76191 5.96402 5.77949C5.90426 5.78652 4.70191 5.89902 3.28863 6.02558C0.556991 6.27167 0.574569 6.26816 0.324959 6.48261C0.082381 6.68652 -0.0512127 7.12597 0.0331623 7.43886C0.054256 7.51972 0.124569 7.65683 0.18785 7.7412C0.247615 7.82909 1.14762 8.6412 2.18121 9.54472C3.2148 10.4447 4.10426 11.2252 4.15699 11.2779L4.25543 11.3693L3.67183 13.9182C3.29215 15.5846 3.08824 16.5408 3.08473 16.6779C3.08121 17.0506 3.27105 17.36 3.61207 17.5252C3.85816 17.6482 4.16051 17.6553 4.39605 17.5498C4.48394 17.5111 5.36988 16.9908 6.3648 16.3967C7.35973 15.8025 8.3441 15.2154 8.54801 15.0924C8.75191 14.9693 8.94527 14.8603 8.9734 14.8498C9.00152 14.8392 9.94371 15.3807 11.2375 16.1541C12.4539 16.8818 13.5191 17.5111 13.607 17.5498C13.8425 17.6588 14.1449 17.6482 14.391 17.5252C14.732 17.36 14.9218 17.0506 14.9183 16.6779C14.9148 16.5408 14.7109 15.5846 14.3312 13.9182L13.7511 11.3693L13.8285 11.2955C13.8707 11.2533 14.7601 10.4728 15.8043 9.55878C16.8484 8.64823 17.7554 7.82909 17.8152 7.7412C17.9593 7.54433 18.0156 7.34394 17.991 7.10839C17.9523 6.7498 17.7132 6.42988 17.3898 6.30683C17.2914 6.26816 16.3949 6.17323 14.5984 6.01152C13.1429 5.87792 11.9441 5.76191 11.9371 5.75488C11.93 5.74784 11.4519 4.64394 10.8789 3.30097C10.3058 1.958 9.79254 0.801361 9.7398 0.731049C9.52184 0.460346 9.02965 0.312689 8.71676 0.428705Z" fill="#3BA4E8"/>
</svg>
