<svg width="20" height="20" viewBox="0 0 20 20" fill="none" xmlns="http://www.w3.org/2000/svg">
<path d="M5.51144 7.21019C5.99723 7.47413 6.54303 7.60604 7.08773 7.60604C7.6323 7.60604 8.17765 7.47405 8.66339 7.21023C9.81897 6.58247 10.446 5.34061 10.3831 3.80315C10.3487 2.96151 9.98693 2.31654 9.4594 1.85791C8.90436 1.36972 8.13727 1.07146 7.27187 1.01249C7.21889 1.00888 7.05456 0.993631 6.92077 1.003C5.4387 1.10507 3.86735 2.00453 3.79221 3.80108L3.78958 3.80336V3.80448C3.74431 5.34124 4.35627 6.58259 5.51144 7.21019ZM7.08909 1.82285C7.55435 1.84013 8.08379 1.96213 8.52657 2.2313C8.74578 2.36536 8.93985 2.53312 9.09461 2.73569C7.82351 3.25898 6.24423 3.5981 4.71244 3.67613C4.85031 2.45156 5.98318 1.86358 7.08909 1.82285ZM9.43873 3.50278C9.45967 3.60805 9.47291 3.71845 9.47762 3.83411C9.5277 5.05889 9.06244 6.02971 8.20103 6.49763C7.51506 6.87028 6.66285 6.87028 5.97688 6.49763C5.27981 6.11894 4.84215 5.41086 4.72713 4.50543C6.36582 4.42537 8.06321 4.06362 9.43873 3.50278ZM9.04925 9.77239L8.21948 10.7222C8.06326 10.901 7.77805 10.9302 7.5825 10.7873C7.38694 10.6445 7.35503 10.3837 7.5113 10.2048L8.18907 9.42904C7.50926 9.25183 6.73858 9.24089 6.01133 9.42481L6.6929 10.2048C6.84912 10.3836 6.81731 10.6444 6.62175 10.7873C6.42624 10.9301 6.14103 10.901 5.98477 10.7222L5.14639 9.76277C4.51417 10.1174 4.09772 10.6498 3.96697 11.2952L2.9981 16.078L7.51705 16.078C7.76731 16.078 7.97026 16.2635 7.97026 16.4924C7.97026 16.7213 7.76736 16.9068 7.51705 16.9068L2.45322 16.9069C2.31857 16.9069 2.1909 16.8521 2.10479 16.7575C2.01868 16.6628 1.98306 16.5381 2.00758 16.417L3.0756 11.1442C3.32233 9.9263 4.29015 9.01209 5.73093 8.63592C6.51003 8.43252 7.37942 8.41039 8.17887 8.57359C9.03728 8.74885 9.76849 9.11972 10.2934 9.64603C10.4621 9.81516 10.4489 10.0772 10.2639 10.2315C10.079 10.3857 9.79237 10.3737 9.62369 10.2045C9.45904 10.0395 9.26511 9.89489 9.04925 9.77239ZM12.0843 17.9226C12.0843 18.1515 11.8814 18.3371 11.6311 18.3371H9.63329C9.38299 18.3371 9.18281 18.1453 9.18281 17.9165V11.8569C9.18281 11.628 9.38299 11.4577 9.63329 11.4577H14.7397C14.99 11.4577 15.2104 11.628 15.2104 11.8569V12.3785C15.2104 12.6074 15.0075 12.7929 14.7572 12.7929C14.5069 12.7929 14.304 12.6074 14.304 12.3785V12.2865H10.0892V17.5082H11.6311C11.8814 17.5082 12.0843 17.6937 12.0843 17.9226ZM14.7397 15.8959C16.0283 15.8959 17 15.3616 17 14.6529C17 13.9442 16.0283 13.4097 14.7397 13.4097C13.4512 13.4097 12.4796 13.9442 12.4796 14.6529C12.4796 15.3616 13.4512 15.8959 14.7397 15.8959ZM13.6652 14.4373C13.9405 14.311 14.3322 14.2386 14.7397 14.2386C15.1472 14.2386 15.5389 14.311 15.8143 14.4373C16.045 14.5431 16.0936 14.6385 16.0936 14.6529C16.0936 14.6673 16.0451 14.7626 15.8144 14.8684C15.5389 14.9947 15.1472 15.0671 14.7397 15.0671C14.3322 15.0671 13.9405 14.9947 13.6652 14.8684C13.4345 14.7626 13.386 14.6673 13.386 14.6529C13.386 14.6385 13.4345 14.5431 13.6652 14.4373ZM16.7216 16.5578C16.8301 16.7641 16.7352 17.0117 16.5096 17.1109C16.0152 17.3283 15.3866 17.448 14.7396 17.448C14.0927 17.448 13.4642 17.3283 12.9699 17.1109C12.7443 17.0117 12.6494 16.7641 12.7578 16.5578C12.8663 16.3515 13.1371 16.2647 13.3627 16.3639C13.737 16.5285 14.226 16.6191 14.7396 16.6191C15.2534 16.6191 15.7425 16.5285 16.1168 16.3639C16.3424 16.2647 16.6132 16.3516 16.7216 16.5578ZM16.7216 18.1099C16.8301 18.3162 16.7352 18.5638 16.5096 18.663C16.0153 18.8803 15.3867 19 14.7396 19C14.0927 19 13.4642 18.8803 12.9699 18.663C12.7443 18.5637 12.6494 18.3161 12.7578 18.1099C12.8663 17.9036 13.1371 17.8168 13.3627 17.916C13.7369 18.0805 14.2259 18.1711 14.7396 18.1711C15.2535 18.1711 15.7425 18.0805 16.1168 17.916C16.3424 17.8168 16.6132 17.9036 16.7216 18.1099Z" fill="#93AABE" stroke="#93AABE" stroke-width="0.3"/>
</svg>
