<svg width="44" height="44" viewBox="0 0 44 44" fill="none" xmlns="http://www.w3.org/2000/svg">
<circle cx="22" cy="22" r="22" fill="#3BA4E8" fill-opacity="0.15"/>
<path d="M16.4868 18.9352C17.1076 19.2725 17.805 19.4411 18.501 19.4411C19.1968 19.4411 19.8937 19.2724 20.5143 18.9353C21.9909 18.1332 22.7921 16.5463 22.7118 14.5818C22.6678 13.5064 22.2055 12.6823 21.5315 12.0962C20.8222 11.4724 19.8421 11.0913 18.7363 11.016C18.6686 11.0113 18.4586 10.9919 18.2877 11.0038C16.3939 11.1343 14.3861 12.2836 14.29 14.5792L14.2867 14.5821V14.5835C14.2288 16.5471 15.0108 18.1333 16.4868 18.9352ZM18.5027 12.0514C19.0972 12.0735 19.7737 12.2294 20.3395 12.5733C20.6196 12.7446 20.8676 12.959 21.0653 13.2178C19.4412 13.8865 17.4232 14.3198 15.4659 14.4195C15.6421 12.8548 17.0896 12.1035 18.5027 12.0514ZM21.505 14.198C21.5318 14.3325 21.5487 14.4736 21.5547 14.6214C21.6187 16.1864 21.0242 17.4269 19.9235 18.0248C19.047 18.5009 17.9581 18.5009 17.0816 18.0248C16.1909 17.5409 15.6316 16.6361 15.4847 15.4792C17.5786 15.3769 19.7474 14.9146 21.505 14.198ZM21.0074 22.2092L19.9471 23.4228C19.7475 23.6513 19.3831 23.6885 19.1332 23.506C18.8833 23.3235 18.8425 22.9902 19.0422 22.7617L19.9083 21.7704C19.0396 21.544 18.0549 21.53 17.1256 21.765L17.9965 22.7617C18.1961 22.9901 18.1554 23.3234 17.9056 23.5059C17.6557 23.6885 17.2913 23.6513 17.0917 23.4228L16.0204 22.1969C15.2125 22.65 14.6804 23.3303 14.5133 24.1549L13.2754 30.2664L19.0496 30.2663C19.3693 30.2663 19.6287 30.5034 19.6287 30.7958C19.6287 31.0883 19.3694 31.3254 19.0496 31.3254L12.5791 31.3255C12.4071 31.3255 12.2439 31.2555 12.1339 31.1346C12.0239 31.0136 11.9784 30.8542 12.0097 30.6995L13.3744 23.962C13.6896 22.4058 14.9263 21.2377 16.7673 20.757C17.7628 20.4971 18.8737 20.4688 19.8952 20.6774C20.9921 20.9013 21.9264 21.3752 22.5971 22.0477C22.8126 22.2638 22.7958 22.5987 22.5595 22.7958C22.3231 22.9929 21.9569 22.9775 21.7414 22.7614C21.531 22.5504 21.2832 22.3657 21.0074 22.2092ZM24.8855 32.6234C24.8855 32.9158 24.6263 33.1529 24.3064 33.1529H21.7537C21.4338 33.1529 21.178 32.9079 21.178 32.6155V24.8727C21.178 24.5803 21.4338 24.3626 21.7537 24.3626H28.2785C28.5983 24.3626 28.88 24.5803 28.88 24.8727V25.5392C28.88 25.8317 28.6207 26.0687 28.3009 26.0687C27.9811 26.0687 27.7218 25.8317 27.7218 25.5392V25.4217H22.3362V32.0938H24.3064C24.6263 32.0938 24.8855 32.3309 24.8855 32.6234ZM28.2785 30.0337C29.925 30.0337 31.1667 29.3509 31.1667 28.4454C31.1667 27.5397 29.925 26.8569 28.2785 26.8569C26.6321 26.8569 25.3905 27.5397 25.3905 28.4454C25.3905 29.3509 26.6321 30.0337 28.2785 30.0337ZM26.9055 28.1699C27.2574 28.0085 27.7578 27.9159 28.2785 27.9159C28.7992 27.9159 29.2997 28.0085 29.6516 28.1699C29.9464 28.3051 30.0085 28.4269 30.0085 28.4454C30.0085 28.4638 29.9465 28.5855 29.6517 28.7207C29.2997 28.8821 28.7992 28.9746 28.2785 28.9746C27.7578 28.9746 27.2574 28.8821 26.9055 28.7207C26.6108 28.5855 26.5488 28.4637 26.5488 28.4454C26.5488 28.427 26.6108 28.3051 26.9055 28.1699ZM30.811 30.8794C30.9496 31.143 30.8283 31.4594 30.54 31.5862C29.9083 31.8639 29.1051 32.0169 28.2784 32.0169C27.4518 32.0169 26.6487 31.8639 26.0171 31.5862C25.7288 31.4594 25.6075 31.143 25.7461 30.8794C25.8847 30.6158 26.2308 30.5049 26.519 30.6317C26.9972 30.8419 27.6221 30.9578 28.2784 30.9578C28.9349 30.9578 29.5599 30.8419 30.0381 30.6317C30.3263 30.5049 30.6725 30.6159 30.811 30.8794ZM30.811 32.8626C30.9496 33.1262 30.8283 33.4426 30.54 33.5693C29.9084 33.8471 29.1052 34 28.2784 34C27.4518 34 26.6487 33.8471 26.0171 33.5693C25.7288 33.4426 25.6075 33.1262 25.7461 32.8626C25.8847 32.599 26.2308 32.4881 26.519 32.6148C26.9971 32.8251 27.622 32.9409 28.2784 32.9409C28.935 32.9409 29.5599 32.8251 30.0381 32.6148C30.3263 32.4881 30.6725 32.599 30.811 32.8626Z" fill="#3BA4E8" stroke="#3BA4E8" stroke-width="0.3"/>
</svg>
