<svg width="124" height="145" viewBox="0 0 124 145" fill="none" xmlns="http://www.w3.org/2000/svg">
<g clip-path="url(#clip0_492_7317)">
<path d="M59.0475 25.1641C26.5713 25.1641 -0.00012207 52.1272 -0.00012207 85.0821C-0.00012207 118.037 26.5713 145 59.0475 145C91.5237 145 118.095 118.037 118.095 85.0821C118.095 52.1272 91.5237 25.1641 59.0475 25.1641ZM59.0475 136.012C31.2951 136.012 8.85702 113.244 8.85702 85.0821C8.85702 56.9206 31.2951 34.1518 59.0475 34.1518C86.7999 34.1518 109.238 56.9206 109.238 85.0821C109.238 113.244 86.7999 136.012 59.0475 136.012ZM89.7522 68.3051C89.7522 69.5034 89.1618 70.7018 88.5713 71.301L55.5046 104.855C54.9141 105.454 53.7332 106.053 52.5522 106.053C51.3713 106.053 50.1903 105.454 49.5999 104.855L30.7046 85.6813C28.9332 85.0821 28.3427 83.8838 28.3427 82.6854C28.3427 80.2887 30.1142 77.892 33.0665 77.892C34.2475 78.4911 35.4284 79.0903 36.0189 79.6895L51.9618 95.8674L82.076 65.3092C82.6665 64.71 83.8475 64.1108 85.0284 64.1108C87.3903 63.5116 89.7522 65.9083 89.7522 68.3051Z" fill="#3BA4E8"/>
</g>
<path d="M42.0137 8.38853C42.0137 12.7522 38.5295 16.2771 34.247 16.2771C29.9645 16.2771 26.4803 12.7522 26.4803 8.38853C26.4803 4.02489 29.9645 0.5 34.247 0.5C38.5295 0.5 42.0137 4.02489 42.0137 8.38853Z" fill="white" stroke="#3BA4E8"/>
<path d="M123.5 133.015C123.5 136.055 121.074 138.507 118.095 138.507C115.117 138.507 112.691 136.055 112.691 133.015C112.691 129.975 115.117 127.523 118.095 127.523C121.074 127.523 123.5 129.975 123.5 133.015Z" fill="white" stroke="#3BA4E8"/>
<rect x="115.734" y="13.1836" width="2.3619" height="11.9836" fill="#3BA4E8"/>
<rect x="122.818" y="17.9766" width="2.39756" height="11.8095" transform="rotate(90 122.818 17.9766)" fill="#3BA4E8"/>
<defs>
<clipPath id="clip0_492_7317">
<rect width="118.095" height="119.836" fill="white" transform="translate(-0.00012207 25.1641)"/>
</clipPath>
</defs>
</svg>
