<svg width="20" height="20" viewBox="0 0 20 20" fill="none" xmlns="http://www.w3.org/2000/svg">
<path d="M10.9088 5.16129H7.11445C6.20381 5.16129 4.50586 5.16129 4.50586 2.58065C4.50586 0 6.20381 0 7.11445 0H10.9088C11.8194 0 13.5174 0 13.5174 2.58065C13.5174 3.48152 13.5174 5.16129 10.9088 5.16129ZM7.11445 1.40762C6.17536 1.40762 5.92873 1.40762 5.92873 2.58065C5.92873 3.75367 6.17536 3.75367 7.11445 3.75367H10.9088C12.0945 3.75367 12.0945 3.50968 12.0945 2.58065C12.0945 1.40762 11.8479 1.40762 10.9088 1.40762H7.11445Z" fill="#93AABE"/>
<path d="M12.2051 20.0001H6.46154C1.08171 20.0001 0 17.6076 0 13.7408V8.17706C0 3.9486 1.57949 2.14038 5.46598 1.94564C5.84889 1.9271 5.5594 2.21456 5.57854 2.60402C5.59769 2.99349 5.93504 3.30877 5.54256 3.32731C2.82393 3.47568 1.4359 4.26388 1.4359 8.17706V13.7408C1.4359 17.1718 2.1347 18.6091 6.46154 18.6091H12.2051C16.532 18.6091 17.2308 17.1718 17.2308 13.7408V8.17706C17.2308 4.26388 15.8427 3.47568 13.1241 3.32731C12.7316 3.30877 13.069 2.97494 13.0881 2.59475C13.1073 2.21456 12.8082 1.91783 13.2007 1.93637C17.0872 2.14038 18.6667 3.9486 18.6667 8.16779V13.7316C18.6667 17.6076 17.585 20.0001 12.2051 20.0001Z" fill="#93AABE"/>
<path d="M14.411 9.67753H9.40465C9.01368 9.67753 8.68945 9.38506 8.68945 9.03237C8.68945 8.67968 9.01368 8.38721 9.40465 8.38721H14.411C14.802 8.38721 15.1262 8.67968 15.1262 9.03237C15.1262 9.38506 14.8115 9.67753 14.411 9.67753Z" fill="#93AABE"/>
<path d="M5.04112 10.323C4.85067 10.323 4.66021 10.2627 4.50985 10.1336L3.75806 9.48801C3.46737 9.23838 3.46737 8.8252 3.75806 8.57557C4.04875 8.32594 4.5299 8.32594 4.82059 8.57557L5.04112 8.76495L6.76523 7.28439C7.05593 7.03476 7.53707 7.03476 7.82777 7.28439C8.11846 7.53402 8.11846 7.9472 7.82777 8.19683L5.57239 10.1336C5.43205 10.2541 5.2416 10.323 5.04112 10.323Z" fill="#93AABE"/>
<path d="M14.411 14.8387H9.40465C9.01368 14.8387 8.68945 14.5462 8.68945 14.1935C8.68945 13.8408 9.01368 13.5483 9.40465 13.5483H14.411C14.802 13.5483 15.1262 13.8408 15.1262 14.1935C15.1262 14.5462 14.8115 14.8387 14.411 14.8387Z" fill="#93AABE"/>
<path d="M5.04112 14.8386C4.85067 14.8386 4.66021 14.7783 4.50985 14.6492L3.75806 14.0036C3.46737 13.754 3.46737 13.3408 3.75806 13.0912C4.04875 12.8416 4.5299 12.8416 4.82059 13.0912L5.04112 13.2806L6.76523 11.8C7.05593 11.5504 7.53707 11.5504 7.82777 11.8C8.11846 12.0496 8.11846 12.4628 7.82777 12.7125L5.57239 14.6492C5.43205 14.7697 5.2416 14.8386 5.04112 14.8386Z" fill="#93AABE"/>
</svg>
