<svg width="24" height="24" viewBox="0 0 24 24" fill="none" xmlns="http://www.w3.org/2000/svg">
<g clip-path="url(#clip0_6416_80478)">
<path d="M8.52969 0.0651598C8.4125 0.0979724 8.24844 0.163597 8.15937 0.210472C7.93437 0.322972 7.58281 0.697972 7.47969 0.92766C7.4 1.10578 7.37187 1.12453 7.175 1.15266C6.60781 1.22766 6.30312 1.37297 6.00312 1.71516C5.73125 2.02453 5.60938 2.3761 5.60938 2.83547C5.60938 3.52453 5.91406 4.03078 6.50469 4.32141L6.81875 4.4761L8.87656 4.49016C10.8406 4.50422 10.9531 4.49953 11.2531 4.40578C11.6516 4.2886 12.0266 3.96047 12.2187 3.57141C12.3359 3.33235 12.35 3.25266 12.35 2.83547C12.35 2.41828 12.3359 2.3386 12.2187 2.09953C11.9562 1.56985 11.5203 1.25578 10.9109 1.17141C10.7281 1.14328 10.5734 1.11985 10.5687 1.11047C10.3109 0.45891 9.76719 0.0557847 9.07812 0.0182848C8.88125 0.0089097 8.65156 0.0276599 8.52969 0.0651598Z" fill="#4C5D70"/>
<path d="M1.87511 3.03281C1.66886 3.06562 1.20011 3.24375 1.01261 3.36562C0.745425 3.52968 0.421988 3.88125 0.271988 4.15781C-0.0139497 4.67812 0.000112776 4.19531 0.000112776 13.5C0.000112776 22.8047 -0.0139497 22.3219 0.271988 22.8469C0.553238 23.3766 1.16261 23.8219 1.77199 23.9484C1.94543 23.9859 3.97511 24 8.58761 24H15.1595L14.7282 23.5641C13.3314 22.1672 12.722 20.4328 12.9048 18.3844L12.947 17.9531H8.2173C3.55793 17.9531 3.4923 17.9531 3.33761 17.8594C3.12668 17.7281 2.98136 17.4047 3.02355 17.1516C3.06574 16.9125 3.29543 16.6687 3.53918 16.5984C3.67043 16.5609 5.17043 16.5469 8.55949 16.5469H13.3923L13.6407 16.1109C13.7767 15.8766 14.0111 15.5156 14.1611 15.3187L14.4376 14.9531L8.94386 14.9437C3.5298 14.9297 3.44543 14.9297 3.31886 14.8359C2.91105 14.5312 2.92511 13.9828 3.34699 13.6687C3.47355 13.5703 3.50168 13.5703 8.94386 13.5609L14.4142 13.5469L14.597 13.6547C14.8126 13.7766 14.9532 14.0156 14.9532 14.2641V14.4375L15.3189 14.1656C16.0126 13.6359 16.9361 13.1906 17.6861 13.0266L17.9532 12.9703V8.90156C17.9532 5.04375 17.9486 4.82343 17.8642 4.55156C17.6954 4.01719 17.2689 3.50625 16.772 3.25312C16.3548 3.04218 16.0454 3 14.8782 3H13.7954L13.7626 3.2625C13.6173 4.5 12.5626 5.61562 11.3064 5.85937C11.1282 5.89687 10.3032 5.90625 8.83605 5.89687C6.70793 5.88281 6.62355 5.87812 6.32824 5.77968C5.19855 5.39531 4.36886 4.40156 4.20011 3.22031L4.1673 3L3.0798 3.00468C2.4798 3.00937 1.94074 3.02343 1.87511 3.03281ZM14.6157 7.64062C15.0657 7.9125 15.0611 8.49844 14.6111 8.83125L14.4798 8.92969H9.00949C3.59074 8.92969 3.53918 8.92969 3.37511 8.83594C2.93449 8.57344 2.91574 7.89844 3.3423 7.64062C3.48761 7.55156 3.61886 7.54687 8.97668 7.54687C14.3673 7.54687 14.4657 7.54687 14.6157 7.64062ZM14.5736 10.6312C14.7986 10.7437 14.9157 10.9219 14.9392 11.1891C14.9673 11.4937 14.8454 11.7094 14.5736 11.85L14.3673 11.9531L8.92043 11.9437C3.50168 11.9297 3.47355 11.9297 3.34699 11.8312C3.00949 11.5828 2.92511 11.1984 3.13136 10.8656C3.3423 10.5281 2.9298 10.5469 8.97668 10.5469C14.0626 10.5469 14.4236 10.5516 14.5736 10.6312ZM7.80949 19.6687C8.1423 19.8281 8.27355 20.2969 8.08136 20.6297C8.0298 20.7234 7.90324 20.8312 7.78136 20.8922C7.57511 21 7.55168 21 5.62043 21C4.28918 21 3.61886 20.9812 3.51105 20.9484C2.95324 20.7609 2.85011 19.9875 3.3423 19.6875C3.48293 19.5984 3.59543 19.5937 5.56886 19.5937C7.38293 19.5937 7.66886 19.6031 7.80949 19.6687Z" fill="#4C5D70"/>
<path d="M18.5612 14.2966C15.9971 14.5966 14.0424 16.9872 14.3049 19.5091C14.4924 21.3653 15.4393 22.7622 17.0049 23.4935C17.8252 23.8778 18.9643 24.0419 19.883 23.906C21.894 23.6153 23.4221 22.195 23.8674 20.2075C24.2424 18.5153 23.7455 16.8419 22.5127 15.6466C21.4393 14.6106 20.0283 14.1278 18.5612 14.2966ZM20.9565 17.5638C21.2377 17.7325 21.369 18.1685 21.2237 18.4497C21.1815 18.5247 20.6612 19.0731 20.0565 19.6731C18.8424 20.8778 18.8096 20.9013 18.4065 20.7466C18.1768 20.6575 17.1033 19.6075 17.0237 19.3919C16.8643 18.97 17.1549 18.4966 17.6143 18.4356C17.8533 18.4028 18.0362 18.4966 18.3924 18.8341L18.6643 19.0966L19.4237 18.3372C19.8408 17.92 20.258 17.5497 20.3471 17.5075C20.5299 17.4278 20.769 17.4513 20.9565 17.5638Z" fill="#2EB42B"/>
</g>
<defs>
<clipPath id="clip0_6416_80478">
<rect width="24" height="24" fill="white"/>
</clipPath>
</defs>
</svg>
