<svg width="24" height="18" viewBox="0 0 24 18" fill="none" xmlns="http://www.w3.org/2000/svg">
<path d="M1.92203 0.263083C1.00797 0.459959 0.281407 1.17715 0.070469 2.08183C0.00484404 2.35371 0.000156542 3.08965 0.00953154 8.07715L0.023594 13.7584L0.131407 14.035C0.417344 14.7896 1.03609 15.3662 1.77672 15.5725C2.06734 15.6521 2.49391 15.6568 10.7345 15.6568H19.383L21.2345 16.7256C22.9642 17.7193 23.1002 17.7896 23.3111 17.785C23.5502 17.7803 23.7095 17.6912 23.8783 17.4662C23.9767 17.3396 23.9767 17.3303 23.9908 9.86308C24.0002 3.29121 23.9908 2.34902 23.9298 2.07715C23.7189 1.16308 22.9877 0.455271 22.0548 0.258396C21.572 0.155272 2.39078 0.159958 1.92203 0.263083ZM21.872 1.66465C22.0173 1.70683 22.172 1.80058 22.2798 1.90371C22.6173 2.2459 22.5986 1.71152 22.5845 9.16465L22.5705 15.8725L21.1877 15.0709L19.8048 14.274L14.6158 14.26L9.42203 14.2506V12.31V10.3693L9.72203 10.1303C10.4064 9.58183 10.9173 8.78965 11.1658 7.8709C11.3111 7.32715 11.3111 6.34277 11.1658 5.78965C10.8705 4.68808 10.0361 3.60527 9.12672 3.1459C8.86891 3.01465 8.78922 2.9959 8.62984 3.02402C8.52203 3.04277 8.36734 3.11308 8.28766 3.17871C8.03922 3.38965 8.01578 3.50215 8.01578 4.63652V5.66777L7.53766 6.00058L7.06422 6.33808L6.59078 6.00996L6.11734 5.68652L6.09391 4.58027C6.07047 3.5584 6.06109 3.46465 5.97203 3.34746C5.80328 3.12246 5.64391 3.0334 5.40484 3.02871C5.07672 3.02402 4.59391 3.32402 4.05484 3.86308C3.47359 4.45371 3.12672 5.06777 2.92047 5.88808C2.79859 6.37558 2.81266 7.40683 2.94859 7.89902C3.17359 8.72871 3.68453 9.53965 4.32672 10.074L4.68766 10.374V12.3146V14.2506H3.43609C2.31578 14.2506 2.16109 14.2412 1.98766 14.1615C1.76266 14.0584 1.51422 13.7771 1.45328 13.5475C1.42516 13.4443 1.40641 11.3162 1.40641 7.89902C1.40641 2.68652 1.41109 2.40527 1.49547 2.22715C1.61266 1.96465 1.85641 1.74433 2.10953 1.66465C2.43766 1.56621 21.5298 1.56152 21.872 1.66465ZM4.76734 6.35215C4.85172 6.50215 4.99234 6.61465 5.84547 7.20996C6.82047 7.89433 6.80172 7.88496 7.05484 7.88496C7.16734 7.88496 7.30328 7.86152 7.35484 7.82871C7.50953 7.74902 9.05641 6.65683 9.17828 6.54433C9.36578 6.37558 9.39859 6.27715 9.42203 5.78965L9.44547 5.3209L9.60016 5.63027C10.2283 6.90058 9.79235 8.40996 8.55953 9.23027C7.99234 9.60527 8.03922 9.36152 8.02516 11.9818L8.0111 14.2506H7.05484H6.09859L6.08453 11.9818C6.07047 9.36152 6.11734 9.60527 5.55016 9.23027C4.28922 8.39121 3.86266 6.8209 4.55172 5.53183L4.66422 5.3209L4.68766 5.78965C4.70172 6.04746 4.73453 6.30058 4.76734 6.35215Z" fill="#FF8F0B"/>
<path d="M13.1486 3.06523C12.5908 3.30898 12.5674 4.11523 13.1064 4.34023C13.3361 4.43867 20.5549 4.43867 20.7845 4.34023C21.0236 4.2418 21.1642 4.00742 21.1642 3.7168C21.1642 3.4543 21.0799 3.29492 20.8408 3.12148C20.7142 3.02305 20.6674 3.02305 17.0017 3.01367C13.9877 3.0043 13.2611 3.01367 13.1486 3.06523Z" fill="#FF8F0B"/>
<path d="M13.1486 5.87773C12.5908 6.12148 12.5674 6.92773 13.1064 7.15273C13.3361 7.25117 20.5549 7.25117 20.7845 7.15273C21.0236 7.0543 21.1642 6.81992 21.1642 6.5293C21.1642 6.2668 21.0799 6.10742 20.8408 5.93398C20.7142 5.83555 20.6674 5.83555 17.0017 5.82617C13.9877 5.8168 13.2611 5.82617 13.1486 5.87773Z" fill="#FF8F0B"/>
<path d="M13.1486 8.69023C12.5908 8.93398 12.5674 9.74023 13.1064 9.96523C13.3361 10.0637 20.5549 10.0637 20.7845 9.96523C21.0236 9.8668 21.1642 9.63242 21.1642 9.3418C21.1642 9.0793 21.0799 8.91992 20.8408 8.74648C20.7142 8.64805 20.6674 8.64805 17.0017 8.63867C13.9877 8.6293 13.2611 8.63867 13.1486 8.69023Z" fill="#FF8F0B"/>
<path d="M13.1486 11.5045C12.5908 11.7482 12.5674 12.5545 13.1064 12.7795C13.3361 12.8779 17.6955 12.8732 17.9252 12.7795C18.1642 12.681 18.3049 12.4467 18.3049 12.156C18.3049 11.8935 18.2205 11.7342 17.9814 11.5607C17.8549 11.467 17.7939 11.4623 15.572 11.4529C13.7439 11.4435 13.2611 11.4529 13.1486 11.5045Z" fill="#FF8F0B"/>
</svg>
