<svg width="44" height="44" viewBox="0 0 44 44" fill="none" xmlns="http://www.w3.org/2000/svg">
<circle cx="22" cy="22" r="22" fill="#F7E3F8"/>
<path d="M12.428 22.6519L13.524 23.2159C13.524 23.2159 14.024 23.5019 14.286 22.9679L17.002 17.2899C17.002 17.2899 17.26 16.8059 16.84 16.5779L15.642 15.9939C15.642 15.9939 15.27 15.7879 15.028 16.2239C15.02 16.3999 12.242 22.0099 12.242 22.0099C12.242 22.0099 12.066 22.4679 12.428 22.6519Z" fill="#D266D8"/>
<path d="M30.3332 23.233L31.4532 22.719C31.4532 22.719 31.9892 22.503 31.7312 21.963L28.9352 16.323C28.9352 16.323 28.7132 15.823 28.2732 16.011L27.0752 16.591C27.0752 16.591 26.6832 16.755 26.8752 17.213C27.0092 17.329 29.7092 22.979 29.7092 22.979C29.7092 22.979 29.9632 23.403 30.3332 23.233Z" fill="#D266D8"/>
<path d="M15.084 23.2079L15.454 22.4239L16.752 24.0619C16.752 24.0619 17.596 23.8699 17.892 24.3959C17.892 24.3959 18.17 24.7159 18.048 25.3239C18.048 25.3239 18.222 25.4499 18.236 25.5299C18.236 25.5299 18.816 25.3879 19.166 25.8019C19.166 25.8019 19.486 26.0579 19.45 26.5579C19.45 26.5579 19.68 26.6559 19.728 26.7939C19.728 26.7939 20.298 26.6519 20.576 26.9859C20.576 26.9859 20.914 27.3019 20.89 27.6719L21.42 28.0579C21.42 28.0579 21.914 28.0979 21.992 28.4859L22.468 28.8379C22.468 28.8379 23.228 29.1399 23.27 28.3799L21.486 27.0179C21.486 27.0179 21.276 26.4699 21.93 26.5559L24.59 28.4279C24.59 28.4279 25.024 28.6139 25.288 28.2019C25.288 28.2019 25.544 27.8459 25.18 27.4599L22.352 25.4159C22.352 25.4159 22.102 24.8439 22.744 24.8879L26.1 27.2619C26.1 27.2619 26.576 27.4519 26.776 27.0959C26.776 27.0959 27.048 26.7419 26.776 26.3759L23.074 23.6739C23.074 23.6739 22.852 23.0259 23.544 23.1939L27.364 25.9139C27.364 25.9139 27.942 26.0959 28.198 25.6239C28.198 25.6239 28.524 25.1179 28.086 24.6999L22.684 19.9859C22.684 19.9859 21.68 19.5059 21.08 20.5099C21.08 20.5099 20.974 22.1459 19.158 22.4439C19.158 22.4439 17.918 22.3479 18.206 21.5359C18.206 21.5359 18.57 21.0539 18.538 20.0399C18.538 20.0399 18.58 19.3119 19.084 18.6919H17.138L17.566 17.8039H20.504C20.504 17.8039 21.712 17.1199 22.622 17.1839C22.622 17.1839 23.81 17.2479 24.128 17.4299C24.128 17.4299 25.7 17.9339 26.404 17.8159L29.034 23.2659L28.616 24.2179C28.616 24.2179 29.386 25.0099 28.818 25.9679C28.66 26.2899 28.254 26.5999 27.59 26.6319C27.59 26.6319 27.692 27.2779 27.226 27.6439C27.226 27.6439 26.884 28.1139 26.054 27.9839C26.054 27.9839 26.102 28.5559 25.552 28.9359C25.552 28.9359 24.898 29.4979 23.89 28.8139C23.89 28.8139 23.73 29.4579 22.924 29.5879C22.924 29.5879 22.336 29.6799 21.994 29.3499C21.994 29.3499 21.378 30.5099 20.502 29.8559C20.502 29.8559 19.946 29.3959 20.336 28.7459C20.336 28.7459 19.59 29.9259 18.702 29.0399C18.702 29.0399 18.21 28.6699 18.664 27.8959C18.664 27.8959 17.96 28.6979 17.184 27.9719C17.184 27.9719 16.654 27.5399 17.078 26.7359C17.078 26.7359 16.358 27.5899 15.518 26.7759C15.518 26.7759 15.166 26.4519 15.368 25.7299L16.18 24.6199L15.084 23.2079Z" fill="#D266D8"/>
</svg>
