<svg width="44" height="44" viewBox="0 0 44 44" fill="none" xmlns="http://www.w3.org/2000/svg">
<circle cx="22" cy="22" r="22" fill="#2EB42B" fill-opacity="0.15"/>
<path d="M21.2234 24.4531H19.8574V25.2691H20.9114C20.9954 24.9871 21.0994 24.7151 21.2234 24.4531Z" fill="#2EB42B"/>
<path d="M19.8574 28.5347H20.9114C20.8334 28.2707 20.7734 27.9967 20.7334 27.7188H19.8594V28.5347H19.8574Z" fill="#2EB42B"/>
<path d="M25.5734 21.2455V21.1875H19.8574V22.0035H23.4454C24.0834 21.6195 24.8034 21.3555 25.5734 21.2455Z" fill="#2EB42B"/>
<path d="M28.0242 21.4291V21.0991V18.3311C28.0242 17.1991 27.1082 16.2871 25.9802 16.2871H25.5342C25.3442 15.3571 24.5202 14.6531 23.5322 14.6531H23.1242C23.1242 13.2991 22.0282 12.2031 20.6742 12.2031C19.3202 12.2031 18.2242 13.2991 18.2242 14.6531H17.8162C16.8262 14.6531 16.0042 15.3551 15.8142 16.2871H15.3682C14.2382 16.2871 13.3242 17.2031 13.3242 18.3311V29.7591C13.3242 30.8911 14.2402 31.8031 15.3682 31.8031H23.4442C23.0622 31.5731 22.7062 31.2971 22.3902 30.9871H15.3642C14.6882 30.9871 14.1402 30.4391 14.1402 29.7611V18.3291C14.1402 17.6511 14.6842 17.1031 15.3642 17.1031H15.7742V18.7371H25.5742V17.1031H25.9842C26.6602 17.1031 27.2082 17.6511 27.2082 18.3291V21.0111V21.4311V22.4831H28.0262L28.0242 21.4291ZM20.6742 15.8791C19.9982 15.8791 19.4502 15.3311 19.4502 14.6531C19.4502 13.9771 19.9982 13.4291 20.6742 13.4291C21.3502 13.4291 21.8982 13.9771 21.8982 14.6531C21.9002 15.3291 21.3522 15.8791 20.6742 15.8791Z" fill="#2EB42B"/>
<path d="M18.7954 20.6672C18.8474 20.6152 18.8754 20.5492 18.8794 20.4732C18.8814 20.3952 18.8574 20.3312 18.8054 20.2792C18.7534 20.2272 18.6874 20.2012 18.6114 20.2032C18.5354 20.2052 18.4714 20.2312 18.4174 20.2832L17.1774 21.5172L16.7514 21.0972C16.6994 21.0452 16.6334 21.0172 16.5574 21.0152C16.4814 21.0132 16.4174 21.0392 16.3634 21.0912C16.3114 21.1432 16.2834 21.2052 16.2814 21.2772C16.2794 21.3492 16.3054 21.4112 16.3574 21.4632L16.9674 22.0752C17.0194 22.1272 17.0894 22.1532 17.1734 22.1512C17.2574 22.1492 17.3274 22.1232 17.3794 22.0712L17.3614 22.0892L18.7954 20.6672Z" fill="#2EB42B"/>
<path d="M18.7856 23.5859H15.6016V26.0519H18.7856V23.5859ZM18.2016 25.5499H16.1596V24.0899H18.2016V25.3099V25.5499Z" fill="#2EB42B"/>
<path d="M18.7738 26.7812H15.5898V29.2472H18.7738V26.7812ZM18.1898 28.7453H16.1478V27.2853H18.1898V28.5053V28.7453Z" fill="#2EB42B"/>
<path d="M18.2016 21.5643V22.1283V22.3683H16.1596V20.9083H17.4116L17.9136 20.4062H15.6016V22.8722H18.7856V20.9843L18.2016 21.5643Z" fill="#2EB42B"/>
<path d="M26.13 22.7109C23.62 22.7109 21.584 24.7469 21.584 27.2569C21.584 29.7669 23.62 31.8029 26.13 31.8029C28.64 31.8029 30.676 29.7669 30.676 27.2569C30.676 24.7469 28.64 22.7109 26.13 22.7109ZM28.138 28.5689H25.756C25.492 28.5689 25.28 28.3569 25.28 28.0929V25.2349C25.28 24.9709 25.492 24.7589 25.756 24.7589C26.02 24.7589 26.232 24.9709 26.232 25.2349V27.6169H28.138C28.402 27.6169 28.614 27.8289 28.614 28.0929C28.614 28.3569 28.402 28.5689 28.138 28.5689Z" fill="#2EB42B"/>
</svg>
