<svg width="20" height="20" viewBox="0 0 20 20" fill="none" xmlns="http://www.w3.org/2000/svg">
<path d="M18 15.5C18 17.432 16.432 19 14.5 19C12.568 19 11 17.432 11 15.5C11 13.568 12.568 12 14.5 12C16.432 12 18 13.568 18 15.5Z" stroke="#93AABE" stroke-width="1.5" stroke-linecap="round" stroke-linejoin="round"/>
<path d="M14.5996 14.7002V16.5002" stroke="#93AABE" stroke-linecap="round" stroke-linejoin="round"/>
<path d="M6.40039 1V3.7" stroke="#93AABE" stroke-width="1.5" stroke-miterlimit="10" stroke-linecap="round" stroke-linejoin="round"/>
<path d="M12.7002 1V3.7" stroke="#93AABE" stroke-width="1.5" stroke-miterlimit="10" stroke-linecap="round" stroke-linejoin="round"/>
<path d="M1.90039 7.2998H16.3004" stroke="#93AABE" stroke-width="1.5" stroke-miterlimit="10" stroke-linecap="round" stroke-linejoin="round"/>
<path d="M17.2004 6.27828V13.1611C16.5799 12.4343 15.6704 11.9702 14.6504 11.9702C12.7719 11.9702 11.2504 13.5376 11.2504 15.4729C11.2504 16.1296 11.4289 16.7514 11.7434 17.2768C11.9219 17.592 12.1514 17.8722 12.4149 18.0999H6.15039C3.17539 18.0999 1.90039 16.3486 1.90039 13.7215V6.27828C1.90039 3.65125 3.17539 1.8999 6.15039 1.8999H12.9504C15.9254 1.8999 17.2004 3.65125 17.2004 6.27828Z" stroke="#93AABE" stroke-width="1.5" stroke-miterlimit="10" stroke-linecap="round" stroke-linejoin="round"/>
<path d="M9.54654 11.3499H9.55464" stroke="#93AABE" stroke-width="2" stroke-linecap="round" stroke-linejoin="round"/>
<path d="M6.84634 11.3499H6.85444" stroke="#93AABE" stroke-width="2" stroke-linecap="round" stroke-linejoin="round"/>
<path d="M6.84634 14.0501H6.85444" stroke="#93AABE" stroke-width="2" stroke-linecap="round" stroke-linejoin="round"/>
</svg>
