<svg width="44" height="44" viewBox="0 0 44 44" fill="none" xmlns="http://www.w3.org/2000/svg">
<circle cx="22" cy="22" r="22" fill="#A194FF" fill-opacity="0.15"/>
<path d="M18.666 13.6641V16.1641" stroke="#A194FF" stroke-width="1.5" stroke-miterlimit="10" stroke-linecap="round" stroke-linejoin="round"/>
<path d="M25.334 13.6641V16.1641" stroke="#A194FF" stroke-width="1.5" stroke-miterlimit="10" stroke-linecap="round" stroke-linejoin="round"/>
<path d="M14.916 19.5781H29.0827" stroke="#A194FF" stroke-width="1.5" stroke-miterlimit="10" stroke-linecap="round" stroke-linejoin="round"/>
<path d="M29.5 19.0807V26.1641C29.5 28.6641 28.25 30.3307 25.3333 30.3307H18.6667C15.75 30.3307 14.5 28.6641 14.5 26.1641V19.0807C14.5 16.5807 15.75 14.9141 18.6667 14.9141H25.3333C28.25 14.9141 29.5 16.5807 29.5 19.0807Z" stroke="#A194FF" stroke-width="1.5" stroke-miterlimit="10" stroke-linecap="round" stroke-linejoin="round"/>
<path d="M25.0781 23.4167H25.0856" stroke="#A194FF" stroke-width="2" stroke-linecap="round" stroke-linejoin="round"/>
<path d="M25.0781 25.9167H25.0856" stroke="#A194FF" stroke-width="2" stroke-linecap="round" stroke-linejoin="round"/>
<path d="M21.9961 23.4167H22.0036" stroke="#A194FF" stroke-width="2" stroke-linecap="round" stroke-linejoin="round"/>
<path d="M21.9961 25.9167H22.0036" stroke="#A194FF" stroke-width="2" stroke-linecap="round" stroke-linejoin="round"/>
<path d="M18.9121 23.4167H18.9196" stroke="#A194FF" stroke-width="2" stroke-linecap="round" stroke-linejoin="round"/>
<path d="M18.9121 25.9167H18.9196" stroke="#A194FF" stroke-width="2" stroke-linecap="round" stroke-linejoin="round"/>
</svg>
