<svg width="24" height="24" viewBox="0 0 24 24" fill="none" xmlns="http://www.w3.org/2000/svg">
<path d="M6.55666 17.8651C6.1301 17.6401 5.9051 17.1385 6.04572 16.7026C6.0926 16.5526 6.88947 15.7276 10.3535 12.2682L14.6004 8.01193H11.2863C9.03166 8.01193 7.8926 7.99318 7.72853 7.96036C7.20822 7.84786 6.89885 7.30411 7.03478 6.73224C7.1051 6.43224 7.38635 6.12755 7.66291 6.04786C7.93478 5.97286 17.127 5.97286 17.3473 6.05255C17.6145 6.14161 17.7692 6.28224 17.8863 6.53068L17.9988 6.76974V11.4572C17.9988 14.7479 17.9848 16.201 17.9473 16.3322C17.8676 16.6088 17.5629 16.8901 17.2629 16.9604C16.691 17.0963 16.1473 16.7869 16.0348 16.2666C16.002 16.1026 15.9832 14.9635 15.9832 12.7088V9.39474L11.7551 13.6229C8.77385 16.6041 7.47072 17.8744 7.34885 17.926C7.08635 18.0338 6.8426 18.0151 6.55666 17.8651Z" fill="#E34848"/>
</svg>
