<svg width="30" height="30" viewBox="0 0 30 30" fill="none" xmlns="http://www.w3.org/2000/svg">
<circle cx="15" cy="15" r="15" fill="#FBC02D"/>
<path d="M14.6636 7.57596C14.5517 7.64314 14.4653 7.7743 13.9951 8.58684C13.6976 9.09867 13.4352 9.54013 13.416 9.56892C13.3841 9.61051 13.3009 9.58172 12.7539 9.3418C12.4116 9.19144 12.0917 9.06668 12.0405 9.06668C11.8198 9.06668 11.5862 9.25862 11.5319 9.48575C11.5223 9.53693 11.6278 10.1831 11.8006 11.098C12.0469 12.4224 12.0949 12.6367 12.1652 12.7295C12.3316 12.947 12.1972 12.9374 14.9356 12.9374C17.6739 12.9374 17.5395 12.947 17.7059 12.7295C17.773 12.6367 17.8242 12.4192 18.0705 11.1012C18.2465 10.1639 18.3521 9.54333 18.3393 9.48895C18.2849 9.25862 18.0514 9.06668 17.8306 9.06668C17.7794 9.06668 17.4595 9.19144 17.1173 9.3418C16.775 9.49215 16.4839 9.60411 16.4711 9.58812C16.4551 9.57532 16.1928 9.13066 15.8857 8.60283C15.361 7.70072 15.3194 7.63994 15.1883 7.56957C15.0059 7.4768 14.8268 7.48 14.6636 7.57596Z" fill="white"/>
<path d="M14.4897 14.0067C14.1379 14.0835 13.7668 14.2914 13.4949 14.5665C12.6951 15.3663 12.6887 16.6427 13.4789 17.4296C13.8691 17.8167 14.2978 18.015 14.8192 18.0438C15.7533 18.095 16.6107 17.5 16.8954 16.5979C16.9945 16.2812 16.9945 15.731 16.8954 15.4143C16.5723 14.397 15.5262 13.7828 14.4897 14.0067Z" fill="white"/>
<path d="M9.11631 15.0356C8.74523 15.1347 8.43173 15.4034 8.24939 15.7681C8.14702 15.9793 8.14062 16.008 8.14062 16.3439C8.14062 16.6734 8.14702 16.7086 8.24299 16.9102C8.38375 17.2109 8.59168 17.422 8.88918 17.5691C9.12271 17.6843 9.1387 17.6875 9.48419 17.6875C9.82328 17.6875 9.84568 17.6811 10.06 17.5787C10.9045 17.1629 11.0997 16.0976 10.4567 15.4162C10.108 15.0484 9.60255 14.9044 9.11631 15.0356Z" fill="white"/>
<path d="M20.0545 15.0318C19.6962 15.1342 19.3475 15.4189 19.1844 15.742C18.8069 16.4969 19.194 17.399 20.0097 17.655C20.144 17.6997 20.2624 17.7093 20.4735 17.6997C20.7199 17.6869 20.787 17.671 20.995 17.5686C21.2861 17.4246 21.494 17.2103 21.6348 16.9128C21.7627 16.6377 21.7915 16.2442 21.7019 15.9627C21.5772 15.566 21.2605 15.2205 20.883 15.0766C20.6687 14.9966 20.256 14.971 20.0545 15.0318Z" fill="white"/>
<path d="M8.15369 18.4649C7.82419 18.5512 7.57787 18.6984 7.31556 18.9575C6.8933 19.3798 6.72695 19.8244 6.75254 20.4866C6.76214 20.7713 6.77173 20.8129 6.84851 20.9153C7.01486 21.1328 7.00526 21.1328 8.48638 21.1328H9.81715V20.9953C9.81715 20.9217 9.83315 20.7425 9.84914 20.5986C9.94511 19.85 10.2298 19.2326 10.7257 18.7176L10.9272 18.5033L10.844 18.4681C10.7864 18.4425 10.3802 18.4297 9.54524 18.4233C8.55676 18.4169 8.29764 18.4265 8.15369 18.4649Z" fill="white"/>
<path d="M19.1141 18.4489C19.0438 18.4649 18.9798 18.4841 18.9734 18.4937C18.9638 18.5001 19.0502 18.6056 19.1589 18.724C19.658 19.2678 19.9299 19.8564 20.0226 20.5986C20.0386 20.7425 20.0546 20.9217 20.0546 20.9953V21.1328H21.3854C22.8665 21.1328 22.8569 21.1328 23.0233 20.9153C23.1001 20.8129 23.1097 20.7713 23.1192 20.4866C23.1352 20.0708 23.0841 19.7988 22.9305 19.4725C22.7706 19.1303 22.4187 18.7656 22.102 18.612C21.7117 18.4233 21.6285 18.4137 20.3745 18.4169C19.7507 18.4201 19.1813 18.4329 19.1141 18.4489Z" fill="white"/>
<path d="M12.6789 19.1155C12.5926 19.1315 12.4006 19.2019 12.2535 19.269C11.908 19.4322 11.5433 19.7841 11.3897 20.1008C11.2138 20.4623 11.1914 20.6126 11.1914 21.4155C11.1914 22.1129 11.1946 22.1417 11.265 22.2473C11.3034 22.3081 11.3993 22.388 11.4793 22.4264L11.6201 22.5H14.9342H18.2483L18.3891 22.4264C18.4691 22.388 18.565 22.3081 18.6034 22.2473C18.6738 22.1417 18.677 22.1129 18.677 21.4155C18.677 20.6126 18.6546 20.4591 18.4787 20.1008C18.3347 19.8097 17.938 19.4194 17.6405 19.2754C17.2375 19.0803 17.2119 19.0771 14.9182 19.0803C13.7506 19.0835 12.7685 19.0963 12.6789 19.1155Z" fill="white"/>
</svg>
