<svg width="24" height="24" viewBox="0 0 24 24" fill="none" xmlns="http://www.w3.org/2000/svg">
<path d="M8.21 7.70514L10.5 5.40514V14.9951C10.5 15.2604 10.6054 15.5147 10.7929 15.7022C10.9804 15.8898 11.2348 15.9951 11.5 15.9951C11.7652 15.9951 12.0196 15.8898 12.2071 15.7022C12.3946 15.5147 12.5 15.2604 12.5 14.9951V5.40514L14.79 7.70514C14.883 7.79886 14.9936 7.87326 15.1154 7.92403C15.2373 7.9748 15.368 8.00093 15.5 8.00093C15.632 8.00093 15.7627 7.9748 15.8846 7.92403C16.0064 7.87326 16.117 7.79886 16.21 7.70514C16.3037 7.61217 16.3781 7.50157 16.4289 7.37971C16.4797 7.25785 16.5058 7.12715 16.5058 6.99514C16.5058 6.86312 16.4797 6.73242 16.4289 6.61056C16.3781 6.4887 16.3037 6.3781 16.21 6.28514L12.21 2.28514C12.1149 2.1941 12.0028 2.12273 11.88 2.07514C11.6365 1.97512 11.3635 1.97512 11.12 2.07514C10.9972 2.12273 10.8851 2.1941 10.79 2.28514L6.79 6.28514C6.69676 6.37837 6.6228 6.48906 6.57234 6.61089C6.52188 6.73271 6.49591 6.86328 6.49591 6.99514C6.49591 7.12699 6.52188 7.25756 6.57234 7.37938C6.6228 7.50121 6.69676 7.6119 6.79 7.70514C6.88324 7.79837 6.99393 7.87233 7.11575 7.9228C7.23757 7.97326 7.36814 7.99923 7.5 7.99923C7.63186 7.99923 7.76243 7.97326 7.88425 7.9228C8.00607 7.87233 8.11676 7.79837 8.21 7.70514ZM20.5 13.9951C20.2348 13.9951 19.9804 14.1005 19.7929 14.288C19.6054 14.4756 19.5 14.7299 19.5 14.9951V18.9951C19.5 19.2604 19.3946 19.5147 19.2071 19.7022C19.0196 19.8898 18.7652 19.9951 18.5 19.9951H4.5C4.23478 19.9951 3.98043 19.8898 3.79289 19.7022C3.60536 19.5147 3.5 19.2604 3.5 18.9951V14.9951C3.5 14.7299 3.39464 14.4756 3.20711 14.288C3.01957 14.1005 2.76522 13.9951 2.5 13.9951C2.23478 13.9951 1.98043 14.1005 1.79289 14.288C1.60536 14.4756 1.5 14.7299 1.5 14.9951V18.9951C1.5 19.7908 1.81607 20.5538 2.37868 21.1165C2.94129 21.6791 3.70435 21.9951 4.5 21.9951H18.5C19.2956 21.9951 20.0587 21.6791 20.6213 21.1165C21.1839 20.5538 21.5 19.7908 21.5 18.9951V14.9951C21.5 14.7299 21.3946 14.4756 21.2071 14.288C21.0196 14.1005 20.7652 13.9951 20.5 13.9951Z" fill="#4C5D70"/>
</svg>
