<svg width="111" height="89" viewBox="0 0 111 89" fill="none" xmlns="http://www.w3.org/2000/svg">
<path d="M57.9317 22.1255L57.6422 22.0457C56.7818 21.8088 56.2293 20.9412 56.5117 20.0665C56.5117 20.0664 56.5118 20.0662 56.5118 20.0662L56.9876 20.2198L57.9317 22.1255ZM57.9317 22.1255L57.9541 22.1017M57.9317 22.1255L57.9541 22.1017M57.9541 22.1017C58.7117 22.1682 59.4657 21.7386 59.7063 20.9888L57.9541 22.1017Z" fill="#93AABE" stroke="white"/>
<path d="M90.1957 62.6745H83.1746C82.5285 62.6745 82.0044 62.1905 82.0044 61.5938C82.0044 60.9972 82.5284 60.5132 83.1746 60.5132H90.1957C99.8741 60.5132 107.749 53.2411 107.749 44.3035C107.749 35.3659 99.8741 28.0939 90.1957 28.0939H90.0269C89.6875 28.0939 89.3649 27.958 89.1426 27.721C88.9202 27.4841 88.8199 27.1699 88.8684 26.8596C88.9729 26.1865 89.0255 25.5104 89.0255 24.852C89.0255 17.1061 82.2006 10.8035 73.8127 10.8035C70.5495 10.8035 67.4376 11.7452 64.8129 13.5275C64.2361 13.9188 63.417 13.7451 63.0835 13.1593C55.6502 0.0881659 36.2352 -1.66715 26.1695 9.70357C21.9293 14.4939 20.2632 20.7253 21.5982 26.7987C21.7454 27.4695 21.1895 28.0947 20.4514 28.0947H19.9825C10.3041 28.0947 2.4294 35.3667 2.4294 44.3043C2.4294 53.242 10.3041 60.514 19.9825 60.514H27.0037C27.6498 60.514 28.1739 60.998 28.1739 61.5946C28.1739 62.1913 27.6498 62.6753 27.0037 62.6753H19.9825C9.0134 62.6753 0.0888672 54.4338 0.0888672 44.3043C0.0888672 34.4588 8.51931 26.3972 19.0639 25.9526C18.0734 19.6516 19.9675 13.2959 24.3574 8.3358C35.1341 -3.83917 55.787 -2.47452 64.5174 11.1015C67.3026 9.48898 70.4896 8.64307 73.8123 8.64307C83.9748 8.64307 92.0275 16.6306 91.3229 25.9627C101.77 26.5038 110.089 34.5229 110.089 44.3035C110.089 54.4338 101.164 62.6745 90.1952 62.6745L90.1957 62.6745Z" fill="#93AABE"/>
<path d="M25.1768 60.9852C25.1768 76.195 38.563 88.5016 54.9323 88.5016C71.3019 88.5016 84.6879 76.1948 84.6879 60.9852C84.6879 45.7753 71.3019 33.4688 54.9323 33.4688C38.5628 33.4688 25.1768 45.7755 25.1768 60.9852ZM28.5177 60.9852C28.5177 47.5934 40.3295 36.6305 54.9323 36.6305C69.5349 36.6305 81.3469 47.5932 81.3469 60.9852C81.3469 74.3769 69.5349 85.3398 54.9323 85.3398C40.3297 85.3398 28.5177 74.3771 28.5177 60.9852Z" fill="#93AABE" stroke="white"/>
<path d="M54.1104 71.8614C54.1104 72.6111 54.7562 73.1525 55.4671 73.1525C56.1778 73.1525 56.8238 72.6118 56.8238 71.8614V51.2912C56.8238 50.5414 56.178 50 55.4671 50C54.7561 50 54.1104 50.5415 54.1104 51.2912V71.8614Z" fill="#93AABE" stroke="#93AABE"/>
<path d="M54.5221 50.3648L47.6687 56.6937C47.1196 57.2008 47.1196 58.0402 47.6687 58.5473C48.1947 59.0331 49.033 59.0335 49.559 58.5471L49.5587 58.5473L49.2195 58.1799L49.5591 58.5469L54.5221 50.3648ZM54.5221 50.3648C54.5221 50.3648 54.5222 50.3647 54.5223 50.3646M54.5221 50.3648L54.5223 50.3646M54.5223 50.3646C55.0482 49.8782 55.8864 49.8787 56.4125 50.3645L63.2662 56.6937C63.8153 57.2007 63.8153 58.04 63.2664 58.5471C62.9987 58.7949 62.6544 58.9116 62.3213 58.9116L54.5223 50.3646ZM61.3762 58.5473C61.6431 58.7937 61.987 58.9116 62.3212 58.9116L55.4675 53.0908L61.3762 58.5472C61.3762 58.5472 61.3762 58.5473 61.3762 58.5473Z" fill="#93AABE" stroke="#93AABE"/>
</svg>
