<svg width="18" height="20" viewBox="0 0 18 20" fill="none" xmlns="http://www.w3.org/2000/svg">
<path d="M8.15619 0.648438C7.14447 0.816406 6.21869 1.30078 5.46088 2.05078C4.49213 3.01562 3.99604 4.21875 3.99604 5.60547C3.99994 7.21875 4.70307 8.65234 5.96088 9.60938L6.25776 9.83594L5.98041 9.94141C4.15619 10.6445 2.52338 12.1758 1.6601 13.9844C1.15619 15.0469 0.921819 15.9883 0.886663 17.1289C0.867132 17.6875 0.874944 17.8359 0.929632 18.0273C1.10151 18.625 1.58198 19.1172 2.16791 19.3008C2.39448 19.3711 2.57807 19.375 5.80854 19.375C9.13666 19.375 9.21869 19.3711 9.34369 19.2969C9.71479 19.0703 9.73041 18.4531 9.36322 18.2148C9.26557 18.1484 9.05072 18.1445 5.93354 18.125C2.67182 18.1055 2.60932 18.1055 2.47651 18.0234C2.40229 17.9805 2.29682 17.8828 2.24604 17.8086C2.1601 17.6797 2.15619 17.6602 2.17573 17.1094C2.21479 16.1641 2.43354 15.3438 2.88666 14.4336C3.23432 13.7383 3.57416 13.2773 4.17573 12.6758C4.77729 12.0742 5.23822 11.7344 5.93354 11.3867C6.90229 10.9023 7.60932 10.7305 8.95697 10.6445C9.61713 10.6016 9.94135 10.5625 10.2343 10.4922C11.457 10.1914 12.5312 9.42969 13.2343 8.35938C14.0507 7.125 14.2656 5.46094 13.8007 4.04297C13.2851 2.48828 12.0468 1.26953 10.5156 0.804688C9.80072 0.585938 8.87494 0.527344 8.15619 0.648438ZM9.96479 2.03125C11.0156 2.31641 11.9218 3.08203 12.3828 4.07812C12.6406 4.63672 12.6913 4.90234 12.6874 5.64453C12.6874 6.25391 12.6796 6.33594 12.5781 6.66016C12.1249 8.14453 10.8163 9.21484 9.31635 9.32812C7.52729 9.46484 5.95307 8.38281 5.41791 6.65234C5.32026 6.33594 5.31244 6.25781 5.31244 5.625C5.31244 4.98828 5.32026 4.91797 5.42182 4.58984C5.80072 3.35156 6.76166 2.39844 7.97651 2.05078C8.5976 1.87109 9.35151 1.86328 9.96479 2.03125Z" fill="#3BA4E8"/>
<path d="M13.3438 11.3281C13.2734 11.3711 13.1836 11.4609 13.1406 11.5313C13.0664 11.6523 13.0625 11.7305 13.0625 12.8594V14.0625H11.8633C10.7305 14.0625 10.6523 14.0664 10.5313 14.1406C10.3438 14.2578 10.25 14.4336 10.25 14.6875C10.25 14.9414 10.3438 15.1172 10.5313 15.2344C10.6523 15.3086 10.7305 15.3125 11.8633 15.3125H13.0625V16.5117C13.0625 17.6445 13.0664 17.7227 13.1406 17.8438C13.2578 18.0313 13.4336 18.125 13.6875 18.125C13.9414 18.125 14.1172 18.0313 14.2344 17.8438C14.3086 17.7227 14.3125 17.6445 14.3125 16.5117V15.3125H15.5156C16.6445 15.3125 16.7227 15.3086 16.8438 15.2344C17.0313 15.1172 17.125 14.9414 17.125 14.6875C17.125 14.4336 17.0313 14.2578 16.8438 14.1406C16.7227 14.0664 16.6445 14.0625 15.5156 14.0625H14.3125V12.8594C14.3125 11.7305 14.3086 11.6523 14.2344 11.5313C14.1914 11.4609 14.1016 11.3711 14.0313 11.3281C13.8555 11.2227 13.5195 11.2227 13.3438 11.3281Z" fill="#3BA4E8"/>
</svg>
