<svg width="24" height="24" viewBox="0 0 24 24" fill="none" xmlns="http://www.w3.org/2000/svg">
<path d="M10.8797 0.0483208C9.4125 0.193634 8.02031 0.592072 6.66094 1.27176C5.4375 1.87645 4.45781 2.58895 3.48281 3.57332C2.50312 4.56238 1.86094 5.46707 1.24219 6.72801C0.651562 7.92332 0.31875 8.99676 0.107812 10.3608C-0.0046875 11.1155 -0.0046875 12.8874 0.107812 13.6421C0.31875 15.0061 0.651562 16.0796 1.2375 17.2749C1.86562 18.5499 2.56406 19.5249 3.57187 20.5186C4.56094 21.4983 5.46562 22.1405 6.72656 22.7593C8.30625 23.5374 9.81094 23.9171 11.5687 23.9874C14.3719 24.0952 17.1141 23.1999 19.4062 21.4327C19.9172 21.0389 21.0375 19.9186 21.4312 19.4077C23.1984 17.1155 24.0937 14.3733 23.9859 11.5702C23.9156 9.81238 23.5359 8.3077 22.7625 6.72801C22.1344 5.45301 21.4359 4.47801 20.4281 3.48426C19.4391 2.50457 18.5344 1.86238 17.2734 1.24363C16.0922 0.662384 14.9953 0.320196 13.6875 0.118633C13.0969 0.0295715 11.4937 -0.00792885 10.8797 0.0483208ZM13.5469 1.61863C17.6953 2.24676 21.0891 5.29832 22.1437 9.32957C22.4109 10.3468 22.4766 10.8952 22.4719 12.0483C22.4672 13.1358 22.3969 13.7452 22.1484 14.6921C21.4031 17.5655 19.3359 20.0874 16.6641 21.3999C15.6281 21.9061 14.8031 22.1733 13.6406 22.3702C12.7969 22.5155 11.2031 22.5155 10.3594 22.3702C9.19687 22.1733 8.37187 21.9061 7.33594 21.3999C4.66406 20.0874 2.59687 17.5655 1.85156 14.6921C1.59844 13.7218 1.52812 13.1405 1.52812 12.0014C1.52812 10.8624 1.59844 10.2811 1.85156 9.31082C2.10937 8.31707 2.64844 7.1077 3.21094 6.25926C5.00156 3.56863 7.76719 1.89051 10.9922 1.54832C11.5266 1.49207 12.9656 1.52957 13.5469 1.61863Z" fill="#4C5D70"/>
<path d="M11.5308 5.30195C10.0589 5.55039 8.80265 6.68945 8.38546 8.1707C8.28702 8.5082 8.27296 8.6582 8.27296 9.37539C8.27296 10.0926 8.28702 10.2426 8.38546 10.5801C8.56827 11.2316 8.89171 11.7941 9.36515 12.291L9.57609 12.5066L9.32296 12.6332C7.79015 13.4113 6.79171 14.8691 6.77765 16.3457C6.77296 16.8098 6.81984 16.9223 7.0964 17.1285C7.27921 17.2645 7.71984 17.2645 7.90265 17.1285C8.14171 16.9504 8.21202 16.8145 8.24952 16.4207C8.27296 16.2145 8.31515 15.9566 8.34327 15.8395C8.44171 15.4691 8.72296 15.0004 9.04171 14.677C9.75421 13.9504 10.5886 13.6035 11.8683 13.5051C13.012 13.4113 13.7433 13.1207 14.4511 12.4691C14.9995 11.9676 15.412 11.302 15.6136 10.5801C15.712 10.2426 15.7261 10.0926 15.7261 9.37539C15.7261 8.6582 15.712 8.5082 15.6136 8.1707C15.2573 6.90977 14.3105 5.89258 13.1105 5.48008C12.4823 5.26445 12.0558 5.21758 11.5308 5.30195ZM12.398 6.8207C13.2558 7.0457 13.9448 7.73945 14.1792 8.62539C14.2683 8.9582 14.2683 9.79258 14.1792 10.1254C13.9917 10.8332 13.5136 11.4285 12.8901 11.7379C12.2151 12.066 11.7698 12.066 11.0948 11.7332C10.4855 11.4285 10.0073 10.8238 9.81984 10.1254C9.73077 9.79258 9.73077 8.9582 9.81984 8.62539C10.0495 7.75352 10.7386 7.05039 11.5823 6.82539C11.9151 6.73633 12.0605 6.73633 12.398 6.8207Z" fill="#4C5D70"/>
<path d="M18.4687 12.8279C18.3656 12.8701 17.5499 13.6482 16.2796 14.9232L14.2499 16.9435L13.7015 16.3997C13.2749 15.9779 13.1015 15.8419 12.9515 15.7951C12.4124 15.6357 11.8874 16.1654 12.0421 16.6997C12.0937 16.8685 12.2578 17.056 12.9984 17.8013C13.7624 18.5654 13.9265 18.706 14.0765 18.7294C14.5078 18.8091 14.3999 18.8982 16.9828 16.3247C19.4999 13.8076 19.5515 13.7466 19.4812 13.4044C19.4343 13.1607 19.2749 12.9544 19.0593 12.8513C18.8249 12.7341 18.6937 12.7294 18.4687 12.8279Z" fill="#4C5D70"/>
</svg>
