<svg width="20" height="20" viewBox="0 0 20 20" fill="none" xmlns="http://www.w3.org/2000/svg">
<g clip-path="url(#clip0_7323_84397)">
<path d="M10.7233 0.0611572C11.2819 0.139282 11.7312 0.279907 12.2546 0.545532C13.9929 1.42053 15.0124 3.37366 14.8132 5.42834C14.6921 6.651 14.2897 7.61584 13.5163 8.53772C13.0788 9.06116 12.403 9.56116 11.7741 9.82287C9.68037 10.6979 7.38741 9.9635 6.06709 7.99084C5.02412 6.43616 4.87569 4.29553 5.69209 2.64319C6.61397 0.776001 8.58662 -0.235718 10.7233 0.0611572ZM9.11006 1.5885C8.22334 1.81116 7.42256 2.45178 7.01631 3.27209C6.73116 3.85022 6.6335 4.29163 6.63741 4.98303C6.64522 6.06116 7.03194 7.03381 7.73506 7.74084C8.06319 8.07288 8.26631 8.22131 8.65694 8.41662C9.49678 8.83069 10.5046 8.83069 11.3444 8.41662C11.7351 8.22131 11.9382 8.07288 12.2663 7.74084C13.7429 6.25256 13.739 3.60022 12.2585 2.28772C11.4343 1.56116 10.2624 1.29944 9.11006 1.5885Z" fill="#93AABE"/>
<path d="M10.7821 11.293C13.7665 11.418 16.122 12.3438 17.5282 13.9453C18.6103 15.1758 19.1923 16.7305 19.2938 18.6562C19.3407 19.5352 19.2704 19.75 18.8876 19.9258C18.7353 19.9961 18.4071 20 10.0009 20C1.59463 20 1.2665 19.9961 1.11416 19.9258C0.731346 19.75 0.661034 19.5352 0.707909 18.6562C0.934471 14.3594 3.61416 11.8086 8.37978 11.3516C9.16885 11.2773 9.95791 11.2578 10.7821 11.293ZM8.75088 12.7734C5.96572 13.0234 4.16885 13.8945 3.11806 15.5039C2.6415 16.2344 2.28603 17.3008 2.204 18.2305L2.17666 18.5547H10.0009H17.8251L17.7978 18.2344C17.7821 18.0547 17.7274 17.7148 17.6767 17.4805C17.286 15.668 16.2938 14.3867 14.6728 13.6094C13.7704 13.1758 12.786 12.9258 11.4462 12.793C10.8368 12.7305 9.34853 12.7227 8.75088 12.7734Z" fill="#93AABE"/>
</g>
<defs>
<clipPath id="clip0_7323_84397">
<rect width="20" height="20" fill="white" transform="matrix(-1 0 0 1 20 0)"/>
</clipPath>
</defs>
</svg>
