<svg width="537" height="400" viewBox="0 0 537 400" fill="none" xmlns="http://www.w3.org/2000/svg">
<g clip-path="url(#clip0_6897_84588)">
<path d="M537 351.523H0V351.792H537V351.523Z" fill="#EBEBEB"/>
<path d="M483.193 368.797H447.622V369.066H483.193V368.797Z" fill="#EBEBEB"/>
<path d="M355.73 371.711H346.397V371.98H355.73V371.711Z" fill="#EBEBEB"/>
<path d="M446.548 358.828H425.938V359.097H446.548V358.828Z" fill="#EBEBEB"/>
<path d="M102.728 360.633H56.342V360.902H102.728V360.633Z" fill="#EBEBEB"/>
<path d="M119.096 360.633H112.297V360.902H119.096V360.633Z" fill="#EBEBEB"/>
<path d="M241.811 365.164H141.199V365.433H241.811V365.164Z" fill="#EBEBEB"/>
<path d="M254.538 303.642H47.1594C45.5348 303.639 43.9777 302.992 42.83 301.843C41.6822 300.694 41.0376 299.136 41.0376 297.512V6.12973C41.0376 4.50589 41.6822 2.94839 42.83 1.79915C43.9777 0.649909 45.5348 0.00284387 47.1594 0L254.538 0C256.165 0 257.724 0.645809 258.874 1.79536C260.025 2.94491 260.671 4.50403 260.671 6.12973V297.512C260.671 298.317 260.512 299.114 260.204 299.858C259.896 300.602 259.444 301.277 258.874 301.847C258.305 302.416 257.629 302.867 256.885 303.175C256.141 303.483 255.343 303.642 254.538 303.642ZM47.1594 0.268377C45.606 0.271221 44.1172 0.89001 43.0198 1.98892C41.9224 3.08783 41.3061 4.57706 41.3061 6.12973V297.512C41.3061 299.065 41.9224 300.554 43.0198 301.653C44.1172 302.752 45.606 303.371 47.1594 303.374H254.538C256.092 303.371 257.582 302.752 258.681 301.654C259.781 300.555 260.399 299.066 260.402 297.512V6.12973C260.399 4.57608 259.781 3.08687 258.681 1.98826C257.582 0.88966 256.092 0.271215 254.538 0.268377H47.1594Z" fill="#EBEBEB"/>
<path d="M486.855 303.642H279.466C277.84 303.639 276.282 302.992 275.132 301.843C273.983 300.694 273.336 299.137 273.333 297.512V6.12973C273.336 4.5049 273.983 2.94743 275.132 1.79849C276.282 0.649559 277.84 0.00283815 279.466 0L486.855 0C488.478 0.00568124 490.032 0.653998 491.177 1.80293C492.323 2.95186 492.966 4.50774 492.966 6.12973V297.512C492.966 299.134 492.323 300.69 491.177 301.839C490.032 302.988 488.478 303.636 486.855 303.642ZM279.466 0.268377C277.911 0.271215 276.421 0.88966 275.322 1.98826C274.223 3.08687 273.604 4.57608 273.602 6.12973V297.512C273.604 299.066 274.223 300.555 275.322 301.654C276.421 302.752 277.911 303.371 279.466 303.374H486.855C488.409 303.371 489.899 302.752 490.998 301.654C492.097 300.555 492.716 299.066 492.719 297.512V6.12973C492.716 4.57608 492.097 3.08687 490.998 1.98826C489.899 0.88966 488.409 0.271215 486.855 0.268377H279.466Z" fill="#EBEBEB"/>
<path d="M360.22 144.802C384.865 144.802 404.844 124.832 404.844 100.198C404.844 75.5638 384.865 55.5938 360.22 55.5938C335.574 55.5938 315.595 75.5638 315.595 100.198C315.595 124.832 335.574 144.802 360.22 144.802Z" fill="#F5F5F5"/>
<path d="M439.857 91.4096C439.857 89.4821 439.091 87.6335 437.727 86.2706C436.363 84.9076 434.514 84.1419 432.586 84.1419C431.879 84.1397 431.177 84.2447 430.502 84.4532C430.605 83.7133 430.658 82.9674 430.663 82.2203C430.659 79.9592 430.157 77.7267 429.193 75.6811C428.229 73.6355 426.827 71.8268 425.086 70.3834C423.344 68.94 421.307 67.8971 419.117 67.3288C416.928 66.7604 414.64 66.6805 412.416 67.0946C410.898 64.6028 408.61 62.672 405.897 61.5934C403.185 60.5149 400.196 60.347 397.38 61.1152C394.564 61.8834 392.074 63.546 390.286 65.8522C388.498 68.1585 387.508 70.9833 387.467 73.9006H387.241C383.954 73.9006 380.802 75.2058 378.478 77.5291C376.153 79.8523 374.847 83.0034 374.847 86.2889C374.847 89.5745 376.153 92.7255 378.478 95.0488C380.802 97.372 383.954 98.6772 387.241 98.6772H432.822C434.71 98.6186 436.501 97.8267 437.814 96.4698C439.128 95.1128 439.86 93.2976 439.857 91.4096Z" fill="#EBEBEB"/>
<path d="M325.003 131.385C325.003 129.459 324.239 127.613 322.877 126.25C321.516 124.887 319.669 124.12 317.743 124.117C317.015 124.111 316.291 124.216 315.595 124.429C315.955 122.004 315.729 119.529 314.937 117.21C314.144 114.891 312.808 112.794 311.04 111.096C309.272 109.398 307.123 108.148 304.773 107.449C302.423 106.751 299.939 106.624 297.53 107.081C296.015 104.587 293.729 102.654 291.018 101.573C288.306 100.492 285.317 100.323 282.501 101.09C279.684 101.858 277.194 103.52 275.407 105.827C273.619 108.133 272.631 110.959 272.592 113.876H272.366C269.079 113.876 265.927 115.181 263.603 117.505C261.278 119.828 259.972 122.979 259.972 126.264C259.972 129.55 261.278 132.701 263.603 135.024C265.927 137.348 269.079 138.653 272.366 138.653H317.904C319.804 138.613 321.613 137.83 322.941 136.47C324.269 135.111 325.009 133.285 325.003 131.385Z" fill="#EBEBEB"/>
<path d="M124.584 145.127C124.584 143.203 123.819 141.357 122.457 139.996C121.096 138.635 119.249 137.87 117.324 137.87C116.597 137.866 115.873 137.968 115.176 138.171C115.506 135.984 115.358 133.751 114.744 131.626C114.129 129.502 113.062 127.535 111.615 125.861C110.168 124.188 108.376 122.847 106.362 121.931C104.348 121.015 102.159 120.545 99.9464 120.555C98.995 120.557 98.0459 120.647 97.111 120.823C95.5958 118.329 93.3099 116.396 90.5985 115.315C87.8872 114.235 84.8976 114.065 82.0814 114.833C79.2652 115.6 76.7753 117.262 74.9877 119.569C73.2002 121.876 72.2121 124.701 72.1727 127.618H71.9579C68.6651 127.618 65.5072 128.926 63.1789 131.253C60.8505 133.58 59.5425 136.737 59.5425 140.028C59.5425 143.319 60.8505 146.476 63.1789 148.803C65.5072 151.13 68.6651 152.438 71.9579 152.438H117.485C119.392 152.398 121.208 151.609 122.537 150.24C123.866 148.872 124.601 147.034 124.584 145.127Z" fill="#EBEBEB"/>
<path d="M435.657 179.792C435.657 178.628 435.195 177.511 434.371 176.687C433.547 175.864 432.43 175.401 431.265 175.401C430.835 175.405 430.408 175.47 429.997 175.595C430.19 174.274 430.096 172.927 429.722 171.646C429.348 170.364 428.702 169.178 427.829 168.168C426.956 167.158 425.876 166.348 424.662 165.791C423.448 165.235 422.129 164.947 420.793 164.945C420.22 164.944 419.648 164.998 419.086 165.106C418.161 163.618 416.781 162.468 415.149 161.828C413.518 161.188 411.723 161.091 410.032 161.554C408.342 162.016 406.846 163.012 405.768 164.393C404.69 165.774 404.087 167.467 404.05 169.218H403.824C401.947 169.377 400.198 170.235 398.923 171.621C397.648 173.008 396.941 174.823 396.941 176.706C396.941 178.589 397.648 180.403 398.923 181.79C400.198 183.177 401.947 184.034 403.824 184.193H431.34C432.494 184.174 433.593 183.701 434.401 182.877C435.209 182.054 435.66 180.945 435.657 179.792Z" fill="#EBEBEB"/>
<path d="M170.154 38.644C170.154 37.4795 169.691 36.3627 168.867 35.5393C168.044 34.7159 166.926 34.2533 165.761 34.2533C165.335 34.2512 164.911 34.3164 164.505 34.4465C164.569 33.9986 164.602 33.5465 164.601 33.0939C164.601 30.6283 163.621 28.2637 161.877 26.5202C160.133 24.7768 157.767 23.7973 155.301 23.7973C154.724 23.7962 154.148 23.8501 153.582 23.9584C152.658 22.4706 151.279 21.3209 149.648 20.6804C148.018 20.0399 146.224 19.9429 144.534 20.4038C142.844 20.8647 141.348 21.8589 140.269 23.2383C139.19 24.6178 138.586 26.3086 138.546 28.0592H138.417C137.38 27.9713 136.336 28.0997 135.351 28.4361C134.366 28.7725 133.462 29.3096 132.696 30.0135C131.929 30.7174 131.318 31.5726 130.899 32.5251C130.481 33.4776 130.264 34.5066 130.264 35.5469C130.264 36.5872 130.481 37.6162 130.899 38.5687C131.318 39.5212 131.929 40.3764 132.696 41.0803C133.462 41.7841 134.366 42.3213 135.351 42.6577C136.336 42.9941 137.38 43.1224 138.417 43.0346H165.933C167.067 42.9876 168.139 42.5046 168.926 41.6866C169.712 40.8685 170.152 39.7785 170.154 38.644Z" fill="#EBEBEB"/>
<path d="M96.5098 202.584L125.594 334.626L130.878 332.157L100.333 201.844L96.5098 202.584Z" fill="#EBEBEB"/>
<path d="M430.438 333.994C430.438 333.994 412.416 209.928 452.927 81.5905L446.58 76.6953C446.58 76.6953 399.152 173.74 406.058 337.472L430.438 333.994Z" fill="#E6E6E6"/>
<path d="M463.968 47.9139C478.789 38.1879 500.752 53.6786 503.77 77.8326C501.587 76.5776 499.307 75.5006 496.951 74.612C495.801 68.536 494.695 63.1577 494.695 63.1577L495.49 74.0753C494.18 73.6137 492.751 73.1521 491.194 72.7334L490.12 66.8613L489.744 72.3147C487.642 71.8241 485.511 71.4656 483.364 71.2412L480.594 54.0651L479.111 70.8548C476.913 70.7884 474.712 70.8853 472.528 71.1446L470.831 59.4756V71.4023C468.949 71.7047 467.09 72.135 465.267 72.6905L463.227 55.2889C463.227 55.2889 463.281 65.0793 463.173 73.3668C457.923 75.2777 453.067 78.1339 448.846 81.7938L448.685 79.6468C448.685 79.6468 450.403 56.7811 463.968 47.9139Z" fill="#E0E0E0"/>
<path d="M443.444 40.1387C431.63 26.8809 406.412 36.0701 397.187 58.6138C399.619 57.9612 402.101 57.5124 404.608 57.2719C407.304 51.7004 409.785 46.7945 409.785 46.7945L406.165 57.1216C407.551 57.0143 409.044 56.9392 410.644 56.9392L413.168 51.5716L412.201 56.9928C414.359 57.0515 416.511 57.2452 418.645 57.5725L425.809 41.749L422.78 58.3777C424.92 58.8947 427.02 59.5656 429.063 60.3851L433.756 49.5749L430.674 61.0185C432.411 61.8047 434.093 62.7048 435.711 63.713L442.23 47.4601C442.23 47.4601 439.61 56.8855 437.548 64.9153C442.119 68.1293 446.058 72.1579 449.168 76.7991L449.888 74.7701C449.888 74.7701 454.195 52.2372 443.444 40.1387Z" fill="#E0E0E0"/>
<path d="M432.092 71.581C443.906 60.0515 452.777 70.0888 452.777 70.0888C448.341 71.2374 444.378 74.0715 440.963 77.7L439.363 75.6174L439.62 79.1707C438.804 80.1153 438.009 81.103 437.247 82.1121L434.54 75.9609L435.7 84.2913C434.626 85.8908 433.552 87.5118 432.661 89.1543L431.469 83.046L431.565 91.1403C430.577 92.9652 429.697 94.7473 428.913 96.4434L427.624 85.2467L427.452 99.7176C425.562 104.183 424.574 107.329 424.574 107.329C424.574 107.329 420.278 83.1104 432.092 71.581Z" fill="#E0E0E0"/>
<path d="M463.968 98.7663L461.53 100.173C461.176 98.294 460.757 96.3187 460.295 94.322L461.949 91.2947L459.865 92.5829C459.704 91.9173 459.522 91.2517 459.35 90.5969L461.498 84.6497L458.276 87.0221C456.557 81.6546 454.366 76.9419 451.628 74.6875C451.628 74.6875 478.714 83.34 463.442 112.529C463.442 112.529 462.948 107.913 461.863 101.794L463.968 98.7663Z" fill="#E0E0E0"/>
<path d="M437.333 74.93L433.037 66.7713L434.82 75.2627L433.509 75.4989L427.892 68.5211L429.278 76.5617C427.358 77.1426 425.476 77.8381 423.639 78.6443C421.637 79.5192 419.683 80.5011 417.786 81.5857L415.047 74.4469L416.325 82.4338C414.467 83.5073 412.652 84.7204 410.955 85.9334L409.602 79.6427L409.731 86.8137C407.583 88.3488 405.585 89.9269 403.738 91.4513L403.824 80.0721L402.159 92.718C400.269 94.339 398.561 95.8848 397.112 97.2589L396.907 89.3472L394.899 99.3952C392.816 101.456 391.623 102.787 391.623 102.787C392.697 75.091 403.437 64.1412 421.201 61.1354C438.965 58.1295 451.767 76.6046 451.767 76.6046C451.767 76.6046 446.333 74.0711 437.333 74.93Z" fill="#E0E0E0"/>
<path d="M489.143 108.771L487.521 117.015C486.737 114.965 485.674 112.335 484.299 109.415L485.759 97.3377L483.096 106.849C481.014 102.522 478.601 98.3628 475.879 94.407L478.413 86.0337L474.311 92.2493C473.484 91.1758 472.635 90.1023 471.754 89.1146L473.194 83.8437L470.97 88.2451C470.369 87.5902 469.746 86.9569 469.112 86.345L470.863 79.3135L468.081 85.3896C466.35 83.8103 464.444 82.4344 462.4 81.2888L465.225 72.7007L460.832 80.5158C458.051 79.2064 455.001 78.5702 451.928 78.6587C451.928 78.6587 457.298 70.0706 467.169 67.1184C477.039 64.1663 498.315 82.0295 489.078 121.438C489.078 121.438 488.799 120.547 488.24 119.012L489.143 108.771Z" fill="#E0E0E0"/>
<path d="M472.861 32.2017L474.547 37.2043C473.924 37.2395 473.306 37.3293 472.7 37.4727L470.67 30.9565L472.023 37.6444C470.734 38.0245 469.504 38.5847 468.371 39.3083L465.579 30.5056L467.19 40.0813C466.739 40.4141 466.288 40.7791 465.826 41.1548L462.668 32.8995L465.042 41.8633C462.708 44.1984 460.716 46.8511 459.124 49.7429L458.254 37.6337L456.858 54.155C454.541 59.3205 452.673 64.6755 451.273 70.161C451.273 70.161 449.555 26.1471 460.155 21.209C470.756 16.2709 477.06 37.3975 477.06 37.3975C476.587 37.2652 476.101 37.186 475.61 37.1613L472.861 32.2017Z" fill="#E0E0E0"/>
<path d="M457.717 81.1436L456.772 89.4955L453.55 81.4442L449.254 87.7457L447.557 81.8843L442.595 86.0496C442.595 86.0496 443.208 75.4111 446.376 70.5481C449.544 65.6851 459.06 69.0989 457.717 81.1436Z" fill="#E0E0E0"/>
<path d="M325.422 215.269V157.117C325.422 157.117 313.608 169.613 305.8 167.938C297.992 166.263 287.832 172.168 287.832 172.168C287.832 172.168 298.067 170.676 301.869 174.83C305.671 178.985 322.64 179.425 322.64 179.425V217.405L325.422 215.269Z" fill="#EBEBEB"/>
<path d="M377.511 197.453H374.826V201.103H365.976V197.453H357.277V201.103H348.427V197.453H339.739V201.103H330.878V197.453H322.189V201.103H313.34V197.453H304.64V201.103H295.79V197.453H287.091V201.103H278.241V197.453H275.266L266.642 266.372L386.425 265.868L377.511 197.453Z" fill="#E0E0E0"/>
<path d="M396.564 247.477H392.88V252.501H380.722V247.477H368.779V252.501H356.611V247.477H344.668V252.501H332.51V247.477H320.567V252.501H308.399V247.477H296.456V252.501H284.288V247.477H272.345V252.501H260.187V247.477H256.095L244.238 342.16L408.829 341.484L396.564 247.477Z" fill="#EBEBEB"/>
<path d="M457.363 331.013C454.818 328.147 452.422 325.216 449.759 322.425C449.617 322.285 449.491 322.131 449.383 321.963C448.504 321.404 447.589 320.902 446.644 320.46C446.473 320.407 445.914 320.181 445.345 319.967C444.271 319.58 443.197 319.151 442.123 318.732C435.453 316.048 429.46 312.935 424.423 307.643C421.663 304.744 419.461 301.352 416.605 298.55C416.529 298.647 415.971 298.346 415.702 298.121C414.854 298.024 413.705 297.852 413.554 297.852C412.405 297.852 411.245 297.852 410.096 297.927C408.453 298.003 406.81 298.131 405.167 298.282C398.723 307.643 390.668 320.417 387.102 322.114C381.571 324.733 330.599 338.216 326.84 337.39C323.081 336.563 303.405 338.184 298.465 338.001C293.524 337.819 284.578 335.629 271.615 329.671C258.651 323.713 251.585 323.681 235.979 318.711C220.374 313.74 209.913 311.851 200.784 319.494C191.655 327.138 166.577 311.003 158.759 308.759C150.94 306.515 135.99 293.215 125.787 299.398C115.584 305.581 107.099 308.512 94.3509 319.548C81.6025 330.584 56.342 351.893 56.342 351.893H487.016L482.065 343.24C477.338 342.959 472.716 341.732 468.473 339.632C464.229 337.531 460.451 334.601 457.363 331.013Z" fill="#F5F5F5"/>
<path d="M46.3752 225.487C46.3752 225.487 58.9088 202.943 92.8687 183.491C92.8687 183.491 120.513 181.14 151.724 194.731C151.724 194.731 158.05 205.241 150.854 209.384C143.658 213.528 137.697 205.198 137.697 205.198C137.697 205.198 136.366 217.886 126.957 218.251C117.549 218.616 114.821 209.384 114.821 209.384C114.821 209.384 113.898 221.021 102.696 223.963C93.0083 226.507 86.9939 218.251 86.9939 218.251C86.9939 218.251 85.0607 227.816 76.3506 230.575C69.3481 232.798 64.5366 226.775 64.5366 226.775C64.5366 226.775 62.5282 237.167 55.0961 237.167C48.7058 237.167 46.3752 225.487 46.3752 225.487Z" fill="#E0E0E0"/>
<path d="M268.5 400C383.507 400 476.738 394.559 476.738 387.847C476.738 381.136 383.507 375.695 268.5 375.695C153.493 375.695 60.2622 381.136 60.2622 387.847C60.2622 394.559 153.493 400 268.5 400Z" fill="#F5F5F5"/>
<path d="M412.416 334.933C412.416 334.933 417.088 328.105 421.341 326.194C425.594 324.283 426.281 317.016 428.59 316.619C430.9 316.221 433.445 322.92 437.483 324.874C441.521 326.828 447.632 334.9 447.632 334.9L412.416 334.933Z" fill="#407BFF"/>
<path opacity="0.8" d="M412.416 334.933C412.416 334.933 417.088 328.105 421.341 326.194C425.594 324.283 426.281 317.016 428.59 316.619C430.9 316.221 433.445 322.92 437.483 324.874C441.521 326.828 447.632 334.9 447.632 334.9L412.416 334.933Z" fill="white"/>
<path d="M446.376 384.118H412.395L408.099 334.844H450.672L446.376 384.118Z" fill="#407BFF"/>
<path d="M452.723 332.289H406.036V337.474H452.723V332.289Z" fill="#407BFF"/>
<path opacity="0.2" d="M452.723 332.289H406.036V337.474H452.723V332.289Z" fill="white"/>
<path d="M427.377 335.931C430.47 340.784 443.712 360.815 451.918 362.275L452.927 359.849C452.927 359.849 445.581 360.73 429.299 334.708C429.142 334.459 428.896 334.279 428.611 334.203C428.327 334.128 428.024 334.162 427.763 334.3C427.626 334.377 427.506 334.481 427.411 334.607C427.316 334.733 427.248 334.877 427.211 335.031C427.175 335.184 427.171 335.343 427.199 335.498C427.228 335.653 427.288 335.801 427.377 335.931Z" fill="#263238"/>
<path d="M379.025 320.401C379.374 320.29 379.742 320.251 380.106 320.285C380.471 320.32 380.824 320.426 381.147 320.599C381.469 320.773 381.754 321.009 381.983 321.293C382.213 321.578 382.383 321.906 382.484 322.258L388.283 342.536L395.801 339.52C395.801 339.52 400.344 356.428 391.763 359.101C383.418 361.709 376.974 346.1 376.974 346.1L384.642 343.953L377.318 323.933C377.193 323.589 377.138 323.224 377.157 322.859C377.175 322.493 377.267 322.136 377.426 321.806C377.585 321.477 377.809 321.183 378.083 320.942C378.358 320.7 378.678 320.516 379.025 320.401Z" fill="#407BFF"/>
<path opacity="0.4" d="M391.795 359.097C383.418 361.706 376.974 346.097 376.974 346.097L384.642 343.95C384.642 343.95 385.963 346.205 387.445 345.646C388.928 345.088 388.326 342.501 388.326 342.501L395.844 339.484C395.844 339.484 400.376 356.403 391.795 359.097Z" fill="white"/>
<path d="M456.096 388.289C451.875 386.196 447.557 384.22 446.172 384.124C443.208 383.93 441.5 382.61 439.384 380.087C437.268 377.565 436.409 374.645 432.586 370.576C428.762 366.507 433.005 364.897 424.928 363.845C416.852 362.793 419.977 363.469 415.015 359.895C410.053 356.32 411.063 356.32 405.252 353.776C399.442 351.231 402.836 350.255 396.038 349.675C391.344 349.278 383.923 351.757 380.067 354.506C378.359 355.719 377.49 357.726 375.771 358.8C373.87 360.013 370.917 357.726 371.228 361.816C371.435 362.855 371.482 363.919 371.368 364.972C370.82 367.27 361.358 367.27 358.952 367.989C358.377 368.086 357.862 368.401 357.513 368.869C356.965 369.846 357.792 371.574 356.729 371.929C356.371 371.951 356.013 371.951 355.655 371.929C354.377 372.176 354.71 374.462 353.507 374.999C352.304 375.536 350.919 374.451 349.587 374.945C348.567 375.332 348.223 376.717 347.332 377.253C345.774 378.209 344.163 378.906 342.627 379.905C339.964 381.655 337.655 383.791 334.798 385.337L327.216 387.537L324.928 388.343L456.096 388.289Z" fill="#407BFF"/>
<path opacity="0.8" d="M456.096 388.289C451.875 386.196 447.557 384.22 446.172 384.124C443.208 383.93 441.5 382.61 439.384 380.087C437.268 377.565 436.409 374.645 432.586 370.576C428.762 366.507 433.005 364.897 424.928 363.845C416.852 362.793 419.977 363.469 415.015 359.895C410.053 356.32 411.063 356.32 405.252 353.776C399.442 351.231 402.836 350.255 396.038 349.675C391.344 349.278 383.923 351.757 380.067 354.506C378.359 355.719 377.49 357.726 375.771 358.8C373.87 360.013 370.917 357.726 371.228 361.816C371.435 362.855 371.482 363.919 371.368 364.972C370.82 367.27 361.358 367.27 358.952 367.989C358.377 368.086 357.862 368.401 357.513 368.869C356.965 369.846 357.792 371.574 356.729 371.929C356.371 371.951 356.013 371.951 355.655 371.929C354.377 372.176 354.71 374.462 353.507 374.999C352.304 375.536 350.919 374.451 349.587 374.945C348.567 375.332 348.223 376.717 347.332 377.253C345.774 378.209 344.163 378.906 342.627 379.905C339.964 381.655 337.655 383.791 334.798 385.337L327.216 387.537L324.928 388.343L456.096 388.289Z" fill="white"/>
<path d="M365.966 368.75C365.971 368.828 365.971 368.907 365.966 368.986C365.934 372.622 364.877 376.176 362.915 379.238C362.754 379.485 362.593 379.732 362.411 379.979C361.283 381.579 359.922 383.001 358.372 384.198C358.028 384.477 357.67 384.739 357.298 384.981C357.214 385.046 357.124 385.103 357.03 385.153L356.675 385.378C356.492 385.503 356.302 385.618 356.106 385.722C355.806 385.894 355.494 386.065 355.183 386.216C351.449 388.085 347.214 388.705 343.101 387.986C338.989 387.267 335.216 385.247 332.339 382.222C331.025 380.866 329.921 379.321 329.063 377.638C327.648 374.885 326.911 371.834 326.915 368.739V368.675C326.915 368.127 326.915 367.601 326.99 367.043C327.2 364.525 327.904 362.074 329.063 359.829C329.348 359.265 329.664 358.717 330.008 358.186C331.134 356.442 332.525 354.885 334.132 353.57C334.642 353.153 335.177 352.766 335.732 352.411C335.926 352.272 336.127 352.143 336.334 352.025C337.871 351.079 339.534 350.356 341.274 349.877L341.725 349.759C343.278 349.374 344.872 349.179 346.472 349.18C346.974 349.18 347.468 349.201 347.955 349.244H348.33C350.502 349.45 352.623 350.024 354.603 350.94L354.85 351.058C357.789 352.449 360.335 354.553 362.254 357.178C364.173 359.802 365.404 362.865 365.837 366.087C365.945 366.971 365.988 367.86 365.966 368.75Z" fill="#407BFF"/>
<path opacity="0.6" d="M365.965 368.746C365.969 372.378 364.957 375.939 363.044 379.027C361.131 382.115 358.394 384.607 355.14 386.223C354.693 385.863 354.327 385.413 354.066 384.902C357.674 374.382 354.066 368.746 354.066 368.746V368.639L354.323 366.953V366.642C354.882 363.518 356.289 357.668 359.339 354.125C361.418 355.953 363.084 358.202 364.227 360.723C365.369 363.244 365.962 365.979 365.965 368.746Z" fill="white"/>
<path opacity="0.6" d="M331.426 365.365C331.426 365.365 328 368.79 329.009 377.646C326.967 373.661 326.357 369.096 327.279 364.715C328.202 360.334 330.602 356.402 334.078 353.578C332.183 357.209 331.269 361.272 331.426 365.365Z" fill="white"/>
<path opacity="0.2" d="M359.393 354.13C355.097 359.111 354.023 368.751 354.023 368.751C342.209 371.639 331.393 365.37 331.393 365.37C331.237 361.27 332.151 357.2 334.046 353.561C337.645 350.635 342.167 349.084 346.804 349.184C351.441 349.285 355.892 351.03 359.36 354.109L359.393 354.13Z" fill="white"/>
<path opacity="0.2" d="M355.129 386.228C351.396 388.097 347.161 388.718 343.048 387.999C338.935 387.28 335.162 385.259 332.285 382.234C335.947 384.381 343.433 387.462 354.055 384.907C354.317 385.418 354.682 385.868 355.129 386.228Z" fill="white"/>
<g opacity="0.2">
<path d="M354.807 351.102C354.295 351.819 353.825 352.565 353.4 353.335C352.605 354.815 351.919 356.351 351.348 357.93C350.747 359.508 350.274 361.15 349.845 362.75C349.415 364.35 349.05 366.035 348.771 367.699C348.883 366.006 349.12 364.323 349.48 362.664C349.843 360.998 350.309 359.356 350.876 357.747C351.461 356.151 352.179 354.607 353.024 353.131C353.492 352.388 354.001 351.671 354.549 350.984L354.807 351.102Z" fill="black"/>
<path d="M348.277 349.287C348.008 349.77 347.761 350.264 347.525 350.758C346.736 352.423 346.086 354.15 345.581 355.921C345.012 357.682 344.582 359.485 344.174 361.289C343.766 363.092 343.422 364.917 343.1 366.742C343.209 364.884 343.432 363.034 343.766 361.203C344.087 359.368 344.518 357.555 345.055 355.771C345.59 353.975 346.292 352.232 347.149 350.565C347.385 350.124 347.632 349.684 347.89 349.266L348.277 349.287Z" fill="black"/>
<path d="M341.672 349.781L341.339 350.651C340.747 352.245 340.263 353.877 339.889 355.535C339.47 357.188 339.148 358.863 338.815 360.549C338.482 362.234 338.246 363.919 337.999 365.616C338.036 363.898 338.176 362.185 338.417 360.484C338.643 358.78 338.955 357.089 339.352 355.417C339.744 353.735 340.272 352.087 340.931 350.49C341.016 350.297 341.102 350.093 341.199 349.899L341.672 349.781Z" fill="black"/>
<path d="M336.28 352.039C335.915 353.241 335.571 354.444 335.324 355.668C335.077 356.891 334.787 358.416 334.573 359.801C334.358 361.185 334.207 362.581 334.078 363.987C334.005 362.577 334.034 361.164 334.164 359.758C334.3 358.348 334.512 356.947 334.798 355.56C335.037 354.501 335.331 353.455 335.679 352.426C335.873 352.287 336.073 352.158 336.28 352.039Z" fill="black"/>
<path d="M359.554 375.267C359.61 377.289 359.346 379.307 358.77 381.246C358.483 382.213 358.124 383.157 357.696 384.07C357.556 384.381 357.395 384.692 357.234 384.993C357.149 385.058 357.06 385.115 356.965 385.165C357.553 383.87 358.017 382.522 358.351 381.139C358.854 379.228 359.071 377.253 358.995 375.278C358.964 373.302 358.661 371.341 358.093 369.449C357.536 367.536 356.743 365.7 355.73 363.984C356.93 365.614 357.859 367.426 358.48 369.352C359.134 371.258 359.496 373.252 359.554 375.267Z" fill="black"/>
<path d="M363.409 374.719L363.356 376.34L363.13 377.95C363.082 378.387 363.007 378.821 362.905 379.249C362.744 379.496 362.582 379.743 362.4 379.99C362.563 379.283 362.671 378.566 362.722 377.843L362.883 376.254V374.665C362.921 374.132 362.921 373.598 362.883 373.065C362.829 372.539 362.829 371.992 362.733 371.487C362.488 369.375 361.957 367.306 361.154 365.336C360.379 363.345 359.315 361.479 357.996 359.797C359.483 361.363 360.679 363.18 361.53 365.164C362.408 367.152 362.994 369.257 363.27 371.412C363.356 371.949 363.345 372.486 363.388 373.033C363.436 373.594 363.443 374.157 363.409 374.719Z" fill="black"/>
<path d="M365.966 368.753C365.971 368.831 365.971 368.91 365.966 368.989L365.901 368.624C365.444 366.399 364.723 364.237 363.753 362.183C362.802 360.103 361.55 358.175 360.037 356.461C361.708 358.057 363.089 359.932 364.118 362C364.801 363.342 365.369 364.739 365.815 366.176C365.926 367.03 365.976 367.891 365.966 368.753Z" fill="black"/>
<path d="M330.47 362.273C329.607 363.253 328.868 364.335 328.268 365.494C327.71 366.526 327.239 367.604 326.861 368.714C326.861 368.167 326.861 367.641 326.936 367.083C327.224 366.462 327.55 365.859 327.914 365.279C328.583 364.136 329.449 363.118 330.47 362.273Z" fill="black"/>
<path d="M331.393 357.078C330.577 358.001 329.782 358.914 329.009 359.837C329.295 359.273 329.61 358.725 329.954 358.195C330.413 357.796 330.893 357.423 331.393 357.078Z" fill="black"/>
<path d="M331.393 369.516C333.176 370.192 334.981 370.804 336.763 371.33C338.583 371.88 340.433 372.321 342.305 372.65C346.026 373.458 349.882 373.41 353.582 372.511C351.784 373.204 349.881 373.585 347.955 373.638C346.029 373.672 344.104 373.517 342.209 373.176C340.321 372.829 338.462 372.344 336.645 371.727C334.843 371.12 333.087 370.38 331.393 369.516Z" fill="black"/>
<path d="M331.393 374.172C333.186 374.892 335.023 375.498 336.892 375.986C338.757 376.467 340.651 376.825 342.563 377.06C344.471 377.315 346.397 377.405 348.32 377.328L349.759 377.264L351.198 377.092C352.165 377.027 353.088 376.748 354.055 376.609C352.202 377.214 350.284 377.596 348.341 377.747C346.393 377.886 344.436 377.832 342.499 377.586C340.563 377.34 338.651 376.931 336.785 376.362C334.918 375.816 333.112 375.083 331.393 374.172Z" fill="black"/>
<path d="M331.866 378.211C333.552 379.007 335.301 379.661 337.096 380.165C338.882 380.675 340.707 381.035 342.552 381.238C343.476 381.378 344.4 381.41 345.323 381.474C346.247 381.539 347.181 381.474 348.116 381.421C349.975 381.31 351.821 381.045 353.636 380.626C351.861 381.245 350.019 381.652 348.148 381.839C346.265 382.029 344.366 382.004 342.488 381.764C340.615 381.537 338.769 381.123 336.978 380.53C335.189 379.96 333.473 379.181 331.866 378.211Z" fill="black"/>
<path d="M332.672 381.258C334.268 381.99 335.915 382.603 337.601 383.094C339.28 383.59 340.997 383.949 342.735 384.167C344.472 384.396 346.228 384.446 347.976 384.317L349.286 384.221L350.575 384.006C351.456 383.909 352.283 383.62 353.153 383.448C351.505 384.109 349.774 384.539 348.008 384.725C346.225 384.943 344.422 384.943 342.638 384.725C340.876 384.49 339.139 384.091 337.451 383.534C335.777 382.957 334.174 382.194 332.672 381.258Z" fill="black"/>
</g>
<path d="M122.21 338.025C122.21 338.025 126.034 332.293 132.832 331.874C139.631 331.455 145.366 340.108 145.366 340.108H143.218C143.218 340.108 137.73 334.204 133.799 334.204C129.868 334.204 126.045 339.088 126.045 339.088L122.21 338.025Z" fill="#263238"/>
<path d="M64.5259 383.363C66.8779 379.434 93.2232 381.978 99.1731 379.648L102.395 385.166C102.395 385.166 97.8521 387.689 90.3126 386.798C82.7731 385.907 71.378 385.671 68.403 388.29L64.5259 383.363Z" fill="#263238"/>
<path opacity="0.3" d="M64.5259 383.363C66.8779 379.434 93.2232 381.978 99.1731 379.648L102.395 385.166C102.395 385.166 97.8521 387.689 90.3126 386.798C82.7731 385.907 71.378 385.671 68.403 388.29L64.5259 383.363Z" fill="black"/>
<path d="M175.491 371.436C175.277 372.37 175.04 373.283 174.772 374.174C172.624 381.484 169.316 387.4 166.91 388.312H98.6145C97.6754 388.312 96.7487 388.097 95.9054 387.684C95.0621 387.271 94.3246 386.671 93.7493 385.929L93.6956 385.854C93.4434 385.522 93.2308 385.161 93.062 384.78C88.3471 374.936 83.5893 355.248 90.2803 346.273C90.9802 345.338 91.7877 344.487 92.6861 343.74L92.8794 343.59C94.2965 342.434 95.8647 341.477 97.5405 340.745H97.5943C102.298 338.598 108.076 337.642 113.704 337.224C115.347 337.095 116.926 337.02 118.58 336.988C122.769 336.869 126.678 336.988 129.793 337.063C140.769 337.342 149.404 340.605 155.29 340.036C157.451 339.81 159.636 339.985 161.734 340.552C162.338 340.721 162.933 340.922 163.516 341.153C166.195 342.285 168.686 343.816 170.905 345.694C177.629 351.04 177.725 361.947 175.491 371.436Z" fill="#263238"/>
<path opacity="0.1" d="M175.491 371.436C175.277 372.37 175.04 373.283 174.772 374.174C172.624 381.484 169.316 387.4 166.91 388.312H98.6145C97.6754 388.312 96.7487 388.097 95.9054 387.684C95.0621 387.271 94.3246 386.671 93.7493 385.929L93.6956 385.854C93.4434 385.522 93.2308 385.161 93.062 384.78C88.3471 374.936 83.5893 355.248 90.2803 346.273C90.9802 345.338 91.7877 344.487 92.6861 343.74L92.8794 343.59C94.2965 342.434 95.8647 341.477 97.5405 340.745H97.5943C102.298 338.598 108.076 337.642 113.704 337.224C115.347 337.095 116.926 337.02 118.58 336.988C122.769 336.869 126.678 336.988 129.793 337.063C140.769 337.342 149.404 340.605 155.29 340.036C157.451 339.81 159.636 339.985 161.734 340.552C162.338 340.721 162.933 340.922 163.516 341.153C166.195 342.285 168.686 343.816 170.905 345.694C177.629 351.04 177.725 361.947 175.491 371.436Z" fill="white"/>
<path opacity="0.2" d="M165.031 370.739C160.144 370.739 150.371 373.068 135.925 369.89C129.19 368.295 122.182 368.24 115.423 369.729C115.262 367.582 115.09 365.199 114.896 362.601C113.618 345.157 103.662 337.836 97.5943 340.734H97.5405C95.8941 341.521 94.3323 342.475 92.8794 343.579L92.6861 343.729C91.7877 344.477 90.9802 345.327 90.2803 346.263C83.5893 355.237 88.3471 374.925 93.062 384.769C93.2308 385.151 93.4434 385.511 93.6956 385.843L93.7493 385.918C94.3299 386.576 95.0438 387.103 95.8438 387.464C96.6437 387.825 97.5113 388.011 98.389 388.011H110.622C115.616 388.011 116.207 383.438 115.648 373.616C116.497 373.122 117.538 372.542 118.698 371.748C121.738 369.772 133.563 370.749 138.664 372.66C143.766 374.571 157.148 375.419 163.624 374.367C167.308 373.821 171.048 373.752 174.75 374.163C175.019 373.272 175.255 372.36 175.47 371.426C173.258 371.179 168.618 370.739 165.031 370.739Z" fill="black"/>
<path opacity="0.2" d="M120.632 346.1C123.607 356.932 125.647 360.754 126.431 361.817C127.215 362.879 148.846 365.445 152.905 365.434C157.591 365.393 162.264 364.933 166.867 364.06C169.628 363.362 170.519 349.471 163.559 341.141C162.976 340.91 162.381 340.709 161.777 340.54C165.568 349.042 165.654 359.455 165.203 360.936C164.558 362.997 158.189 362.697 155.214 362.632C152.239 362.568 133.734 361.419 131.844 360.668C130.019 359.911 128.465 358.62 127.387 356.964C125.894 355.053 125.69 348.473 122.994 342.794C121.85 340.637 120.359 338.682 118.58 337.008C116.98 337.008 115.358 337.115 113.704 337.244C115.403 338.169 116.894 339.432 118.085 340.956C119.276 342.479 120.143 344.23 120.632 346.1Z" fill="black"/>
<path d="M99.1731 356.07L93.2232 357.562C93.2232 357.562 89.0023 369.672 91.5262 374.739C94.0501 379.806 74.3422 386.859 64.5259 383.327L68.3708 388.254C68.3708 388.254 91.741 386.783 96.1981 377.884C100.655 368.985 94.2864 367.632 93.8676 365.131C93.4487 362.629 99.1731 356.07 99.1731 356.07Z" fill="#263238"/>
<path opacity="0.1" d="M99.1731 356.07L93.2232 357.562C93.2232 357.562 89.0023 369.672 91.5262 374.739C94.0501 379.806 74.3422 386.859 64.5259 383.327L68.3708 388.254C68.3708 388.254 91.741 386.783 96.1981 377.884C100.655 368.985 94.2864 367.632 93.8676 365.131C93.4487 362.629 99.1731 356.07 99.1731 356.07Z" fill="white"/>
<path d="M151.724 106.339C151.724 106.339 128.74 93.4572 123.983 90.1616C119.225 86.8659 93.7709 61.8639 92.364 61.1876C92.364 61.1876 93.3091 58.3321 91.1719 56.6681C89.0346 55.0042 80.6896 49.5078 79.476 49.5078C78.2624 49.5078 75.18 61.1876 75.6955 64.0109C76.2111 66.8342 87.8317 67.6286 87.8317 67.6286C87.8317 67.6286 112.093 95.8619 115.895 99.8339C119.697 103.806 145.624 120.671 145.624 120.671L151.724 106.339Z" fill="#E4897B"/>
<path d="M161.154 108.7C161.154 108.7 166.191 118.867 153.958 135.012L126.99 115.195L137.73 95.7109L161.154 108.7Z" fill="#407BFF"/>
<path opacity="0.6" d="M153.958 135.012L141.22 125.651L139.556 124.427L132.37 119.156L127 115.195L130.964 108.035L133.176 103.966L137.74 95.7109L142.144 98.1585L145.946 100.306L161.132 108.743C161.631 109.922 161.939 111.172 162.045 112.447C162.55 116.73 161.82 124.631 153.958 135.012Z" fill="white"/>
<path opacity="0.2" d="M153.958 135.014L141.22 125.653C145.591 116.614 156.901 113.426 162.067 112.406C162.55 116.732 161.82 124.634 153.958 135.014Z" fill="black"/>
<g opacity="0.2">
<path d="M145.967 100.26L142.166 102.472V98.1562L145.967 100.26Z" fill="white"/>
<path d="M137.698 105.292L132.929 111.98L130.953 108.03L133.198 103.961L137.698 105.292Z" fill="white"/>
<path d="M141.22 115.352L139.556 124.423L132.371 119.152L141.22 115.352Z" fill="white"/>
<path d="M144.518 110.182L147.17 116.977L152.68 109.484L144.518 110.182Z" fill="white"/>
</g>
<path d="M211.277 103.88C211.277 103.88 234.261 90.9983 239.019 87.7026C243.777 84.4069 269.23 59.4049 270.659 58.7179C270.659 58.7179 269.703 55.8624 271.84 54.1984C273.977 52.5345 282.312 47.0703 283.493 47.0703C284.674 47.0703 287.789 58.7179 287.306 61.5734C286.823 64.4289 275.17 65.1375 275.17 65.1375C275.17 65.1375 250.908 93.3707 247.106 97.3427C243.304 101.315 217.378 118.18 217.378 118.18L211.277 103.88Z" fill="#E4897B"/>
<path d="M183.815 239.93C183.815 239.93 183.321 248.056 182.537 258.877C182.043 265.619 181.463 273.402 180.765 280.927C179.863 291.039 178.843 300.68 177.822 306.691C176.888 312.198 164.483 380.592 164.483 380.592H156.17C158.791 316.814 162.851 292.081 163.001 288.366C163.001 287.153 163.098 285.468 163.151 283.46C163.313 276.182 163.452 264.685 163.538 256.322C163.602 250.289 163.635 245.898 163.635 245.898L183.815 239.93Z" fill="#E4897B"/>
<path d="M215.874 291.527C215.584 297.098 212.265 380.285 212.265 380.285H203.126C198.454 314.028 200.226 291.022 199.388 286.428C199.388 286.428 199.388 286.428 199.388 286.374C197.96 278.559 196.617 268.285 195.694 260.663C194.953 254.534 194.491 250.122 194.491 250.122L213.125 242.07C213.125 242.07 214.252 251.732 215.101 263.304C215.52 269.101 215.885 275.403 215.992 281.264C216.078 284.936 216.057 288.435 215.874 291.527Z" fill="#E4897B"/>
<path opacity="0.2" d="M163.538 256.297L182.537 258.873C182.043 265.615 181.463 273.398 180.765 280.923L163.151 283.403C163.312 276.157 163.452 264.66 163.538 256.297Z" fill="black"/>
<path opacity="0.2" d="M216.003 281.257L199.399 286.367C197.97 278.552 196.628 268.278 195.704 260.656L215.112 263.297C215.53 269.105 215.874 275.406 216.003 281.257Z" fill="black"/>
<path d="M166.47 378.009H155.483C155.303 378.011 155.129 378.074 154.989 378.187C154.849 378.3 154.751 378.456 154.71 378.632L152.938 386.661C152.864 387.006 152.93 387.365 153.122 387.661C153.313 387.957 153.614 388.165 153.958 388.24C154.058 388.25 154.159 388.25 154.259 388.24C157.803 388.175 160.391 387.96 164.838 387.96C167.587 387.96 175.868 388.25 179.648 388.25C183.429 388.25 183.944 384.504 182.387 384.16C175.427 382.647 170.186 380.553 167.963 378.546C167.552 378.183 167.018 377.991 166.47 378.009Z" fill="#407BFF"/>
<path d="M212.953 377.719H201.987C201.806 377.718 201.63 377.779 201.489 377.893C201.348 378.006 201.251 378.165 201.214 378.342L199.431 386.372C199.393 386.567 199.399 386.768 199.448 386.961C199.496 387.154 199.587 387.333 199.713 387.487C199.839 387.641 199.998 387.765 200.177 387.85C200.357 387.936 200.553 387.981 200.752 387.982C204.307 387.928 206.885 387.703 211.342 387.703C214.08 387.703 222.361 387.993 226.152 387.993C229.943 387.993 230.448 384.257 228.88 383.913C221.921 382.389 216.69 380.296 214.467 378.299C214.057 377.915 213.514 377.707 212.953 377.719Z" fill="#407BFF"/>
<path d="M184.567 276.232C184.653 275.502 184.739 274.729 184.825 273.881C185.899 262.888 187.069 249.694 188.047 236.973C191.752 246.946 193.352 260.956 195.286 276.232H217.84C215.971 236.684 211.073 204.532 208.474 190.812H160.638C160.574 195.729 160.026 243.414 158.791 276.232H184.567Z" fill="#263238"/>
<path opacity="0.2" d="M184.567 276.232C184.653 275.502 184.739 274.729 184.825 273.881C185.899 262.888 187.069 249.694 188.047 236.973C191.752 246.946 193.352 260.956 195.286 276.232H217.84C215.971 236.684 211.073 204.532 208.474 190.812H160.638C160.574 195.729 160.026 243.414 158.791 276.232H184.567Z" fill="white"/>
<path d="M191.172 92.8963C191.067 93.3291 190.938 93.7556 190.785 94.1738C189.93 96.561 188.372 98.6339 186.317 100.121C185.801 100.5 185.255 100.837 184.685 101.13C183.19 101.927 181.535 102.379 179.842 102.454C178.149 102.528 176.46 102.222 174.901 101.56C173.5 100.957 172.233 100.081 171.174 98.9831C166.653 94.4207 166.771 89.1498 166.255 80.2182C166.12 78.3048 166.432 76.3861 167.168 74.6145C167.784 73.1326 168.686 71.7866 169.823 70.6533C170.96 69.52 172.308 68.6217 173.792 68.0096C175.277 67.3975 176.867 67.0836 178.472 67.086C180.078 67.0883 181.667 67.4067 183.149 68.0231C191.87 71.5872 193.073 84.8665 191.172 92.8963Z" fill="#E4897B"/>
<path opacity="0.2" d="M186.285 100.124C185.769 100.503 185.223 100.841 184.653 101.134C183.157 101.931 181.502 102.383 179.809 102.457C178.116 102.531 176.428 102.226 174.869 101.563C175.273 100.491 175.81 99.4736 176.469 98.5357C179.826 98.1149 183.233 98.6664 186.285 100.124Z" fill="black"/>
<path d="M168.317 111.699C172.721 115.692 183.493 114.211 183.493 114.211C183.493 114.211 190.216 112.375 188.799 110.271C184.846 109.616 182.924 107.769 182.129 105.408C181.7 103.942 181.565 102.406 181.732 100.888C181.795 100.042 181.906 99.1995 182.065 98.3655L168.747 88.5C170.487 95.0162 172.624 106.986 168.317 111.699Z" fill="#E4897B"/>
<path d="M186.285 84.8011L188.208 85.5311L187.252 81.5806C187.252 81.5806 190.066 77.3402 187.252 73.5507C187.252 73.5507 195.028 71.1997 190.635 67.1097C189.002 65.5853 186.973 67.1097 181.603 64.7694C178.692 63.5027 169.585 63.4061 169.133 67.1097C169.133 67.1097 162.571 67.1097 161.862 78.2634C161.653 81.5347 162.167 84.8119 163.368 87.8622C164.569 90.9124 166.427 93.6608 168.811 95.9119C168.811 95.9119 176.737 97.7906 180.625 94.613C184.513 91.4354 186.285 84.8011 186.285 84.8011Z" fill="#263238"/>
<path d="M181.216 85.4144C181.386 86.2529 181.74 87.0432 182.252 87.7283C182.765 88.4134 183.424 88.976 184.18 89.3757C185.995 90.1486 187.198 87.5829 186.93 84.8991C186.683 82.5267 185.448 79.1773 183.504 79.6175C181.56 80.0576 180.582 83.0097 181.216 85.4144Z" fill="#E4897B"/>
<path opacity="0.2" d="M188.09 236.919C187.069 249.64 185.942 262.855 184.868 273.858C183.235 257.981 181.237 246.666 181.237 246.666C181.237 246.666 179.369 245.131 174.224 236.919C169.08 228.707 174.224 213.398 174.224 213.398C173.988 227.633 188.09 236.919 188.09 236.919Z" fill="black"/>
<path d="M219.504 274.367L218.516 278.103H194.501V274.657L219.504 274.367Z" fill="#407BFF"/>
<path d="M185.727 274.891L185.007 278.326H157.814L156.17 274.891H185.727Z" fill="#407BFF"/>
<path d="M189.078 109.106C189.078 109.106 185.168 102.933 175.32 102.482C165.471 102.032 164.719 108.827 164.719 108.827L189.078 109.106Z" fill="#407BFF"/>
<path opacity="0.5" d="M189.078 109.106C189.078 109.106 185.168 102.933 175.32 102.482C165.471 102.032 164.719 108.827 164.719 108.827L189.078 109.106Z" fill="white"/>
<path d="M153.711 105.297C156.682 138.718 156.322 172.352 152.637 205.702L210.343 202.181C209.699 143.31 201.805 106.242 201.805 106.242C201.805 106.242 186.93 109.355 174.826 108.904C167.665 108.578 160.573 107.367 153.711 105.297Z" fill="#407BFF"/>
<path d="M201.848 106.274C201.848 106.274 209.559 124.287 210.386 142.515C211.213 160.744 179.068 185.713 179.068 185.713C179.068 185.713 154.291 168.666 135.174 170.212C116.056 171.758 110.106 178.553 110.106 178.553C110.106 178.553 124.971 146.777 150.854 135.699C150.854 135.699 145.484 117.449 153.711 105.297C153.711 105.297 171.604 111.105 201.848 106.274Z" fill="#407BFF"/>
<path opacity="0.6" d="M210.386 142.487C210.413 143.002 210.413 143.518 210.386 144.033C210.342 144.829 210.245 145.622 210.096 146.405C209.746 148.249 209.195 150.049 208.453 151.773C206.157 156.818 203.164 161.516 199.56 165.729C197.734 167.961 195.801 170.108 193.889 172.105C189.257 176.967 184.306 181.515 179.068 185.717C172.561 181.412 165.643 177.762 158.415 174.821C156.213 173.941 153.926 173.114 151.595 172.417C146.306 170.686 140.743 169.94 135.184 170.216C129.882 170.569 124.645 171.593 119.601 173.265C118.731 173.565 117.925 173.887 117.184 174.199L116.518 174.488C114.904 175.188 113.364 176.048 111.922 177.054C111.76 177.161 111.61 177.28 111.47 177.387C111.331 177.494 110.966 177.773 110.772 177.945L110.515 178.171C110.449 178.222 110.388 178.28 110.332 178.342L110.203 178.471L110.128 178.546C110.128 178.493 110.257 178.267 110.45 177.881L110.751 177.29C111.052 176.689 111.47 175.884 112.018 174.907L112.254 174.478L112.673 173.737C112.813 173.479 112.963 173.211 113.124 172.943C113.747 171.869 114.478 170.624 115.272 169.303C119.687 162.163 124.913 155.556 130.845 149.615C132.961 147.513 135.198 145.538 137.547 143.7C141.607 140.471 146.069 137.782 150.822 135.703C149.595 131.006 149.034 126.16 149.157 121.307C149.188 119.773 149.314 118.242 149.533 116.723C150.034 112.633 151.463 108.711 153.711 105.258C156.35 106.025 159.042 106.595 161.766 106.965C165.325 107.507 168.91 107.866 172.506 108.038C179.739 108.362 186.987 108.107 194.179 107.276C196.628 107.011 199.173 106.653 201.815 106.202L202.062 106.804C203.771 111.089 205.245 115.465 206.476 119.911C206.949 121.618 207.422 123.443 207.873 125.354C208.324 127.265 208.667 128.972 209.011 130.872C209.721 134.71 210.181 138.59 210.386 142.487Z" fill="white"/>
<g opacity="0.2">
<path d="M202.986 157.117L199.592 165.791C197.766 168.024 195.833 170.171 193.921 172.168L187.016 159.286L202.986 157.117Z" fill="white"/>
<path d="M144.517 148.827L130.878 149.61C132.993 147.508 135.231 145.533 137.579 143.695L144.517 148.827Z" fill="white"/>
<path d="M160.251 114.484L158.791 128.655L149.125 121.344C149.156 119.81 149.282 118.279 149.501 116.76L160.251 114.484Z" fill="white"/>
<path d="M164.719 151.809L160.251 138.207L173.838 135.695L164.719 151.809Z" fill="white"/>
<path d="M188.09 138.844V149.042L197.842 145.532L188.09 138.844Z" fill="white"/>
<path d="M163.001 168.367L158.415 174.808C156.213 173.927 153.926 173.101 151.595 172.403L148.137 164.523L163.001 168.367Z" fill="white"/>
<path d="M128.16 158.594L135.174 161.567L128.16 166.344V158.594Z" fill="white"/>
<path d="M119.59 173.274C112.609 175.711 110.106 178.566 110.106 178.566C111.665 175.389 113.397 172.3 115.294 169.312L119.59 173.274Z" fill="white"/>
<path d="M176.898 160.078L170.863 166.347L179.992 167.936L176.898 160.078Z" fill="white"/>
<path d="M176.898 120.801L183.998 130.355L189.078 119.523L176.898 120.801Z" fill="white"/>
<path d="M209.043 130.961L199.968 124.992L206.509 120C207.432 123.253 208.356 126.978 209.043 130.961Z" fill="white"/>
<path d="M210.375 144.028C210.179 146.714 209.525 149.346 208.442 151.811L204.64 142.461L210.375 144.028Z" fill="white"/>
<path d="M202.095 106.842L196.349 112.714L194.201 107.261C196.649 106.996 199.195 106.638 201.837 106.188L202.095 106.842Z" fill="white"/>
<path d="M172.538 108.048L168.317 117.012L161.766 107.039C165.337 107.561 168.932 107.898 172.538 108.048Z" fill="white"/>
</g>
<path opacity="0.2" d="M210.386 142.487C210.413 143.002 210.413 143.518 210.386 144.032C210.342 144.829 210.245 145.621 210.096 146.405C202.578 134.489 204.361 123.711 204.361 123.711L207.916 125.396C208.324 127.168 208.71 129.014 209.054 130.914C209.748 134.739 210.193 138.604 210.386 142.487Z" fill="black"/>
<path d="M179.927 58.7951C192.676 54.4045 195.876 71.3767 183.214 82.8525C170.551 94.3283 156.009 95.7346 154.355 89.9162C152.701 84.0977 160.466 65.4831 179.927 58.7951Z" fill="#407BFF"/>
<path d="M167.157 57.9688C173.698 57.9688 182.988 64.6245 182.988 64.6245C182.988 64.6245 184.32 71.6989 177.801 77.9253C171.282 84.1516 165.396 85.1285 161.766 82.7239C158.136 80.3192 157.126 70.9153 157.126 70.9153C157.456 69.8034 158.05 68.7879 158.858 67.9559C159.666 67.1239 160.664 66.5001 161.766 66.1382C161.766 66.1382 162.84 57.9688 167.157 57.9688Z" fill="#407BFF"/>
<path opacity="0.2" d="M177.801 77.9108C171.282 84.1372 165.417 85.1248 161.766 82.7201C161.129 82.2736 160.589 81.7042 160.176 81.0455C157.814 77.4922 157.126 70.933 157.126 70.933C163.355 78.4476 170.573 70.6861 171.572 65.4474C171.867 64.2031 171.871 62.9072 171.582 61.6613C171.293 60.4154 170.72 59.2532 169.907 58.2656C174.203 59.1888 178.907 61.937 181.334 63.4936C182.408 64.1485 182.988 64.5671 182.988 64.5671C182.988 64.5671 184.32 71.6845 177.801 77.9108Z" fill="black"/>
<path opacity="0.6" d="M177.801 77.9094C171.281 84.1358 165.417 85.1234 161.766 82.7187C161.129 82.2722 160.589 81.7028 160.176 81.0441C166.706 82.9871 174.482 79.7558 178.66 73.9482C180.875 70.9418 181.834 67.1923 181.334 63.4922C182.408 64.147 182.988 64.5657 182.988 64.5657C182.988 64.5657 184.32 71.6831 177.801 77.9094Z" fill="white"/>
<path d="M201.848 106.278C201.848 106.278 196.811 116.444 209.043 132.589L236.012 112.719L225.272 93.2344L201.848 106.278Z" fill="#407BFF"/>
<path opacity="0.6" d="M236.011 112.713L228.977 117.876L218.57 125.595L209.043 132.594C208.42 131.778 207.851 130.973 207.314 130.189C206.223 128.592 205.233 126.929 204.35 125.208C202.17 121.209 200.966 116.75 200.838 112.197C200.765 110.157 201.131 108.126 201.912 106.239L207.905 102.912L218.226 97.1898L222.758 94.667L225.314 93.25L236.011 112.713Z" fill="white"/>
<g opacity="0.2">
<path d="M228.977 117.904L218.57 125.558L213.984 115.359L228.977 117.904Z" fill="white"/>
<path d="M228.01 101.499L218.409 105.3L218.162 97.1946L222.694 94.6719L228.01 101.499Z" fill="white"/>
<path d="M211.277 109.495L200.838 112.2C200.765 110.16 201.131 108.128 201.912 106.242L207.905 102.914L211.277 109.495Z" fill="white"/>
<path d="M209.043 122.508L207.282 130.151C206.191 128.554 205.201 126.89 204.318 125.17L209.043 122.508Z" fill="white"/>
</g>
<path d="M260.516 286.684L273.932 287.734L279.159 221.048L265.743 219.998L260.516 286.684Z" stroke="#263238" stroke-width="3" stroke-miterlimit="10"/>
<path d="M263.957 379.587L266.105 379.748C266.698 379.748 267.284 379.871 267.827 380.108C268.37 380.346 268.858 380.693 269.261 381.128C269.663 381.563 269.971 382.077 270.165 382.637C270.359 383.197 270.435 383.791 270.388 384.382C270.341 384.972 270.173 385.547 269.893 386.069C269.613 386.592 269.228 387.05 268.762 387.417C268.296 387.783 267.76 388.049 267.186 388.198C266.612 388.347 266.014 388.376 265.428 388.283L263.28 388.111C262.682 388.121 262.088 388.006 261.537 387.773C260.986 387.54 260.489 387.195 260.079 386.76C259.669 386.324 259.355 385.807 259.156 385.243C258.957 384.679 258.879 384.08 258.925 383.483C258.972 382.887 259.143 382.307 259.427 381.78C259.71 381.254 260.101 380.792 260.574 380.426C261.047 380.059 261.591 379.795 262.171 379.65C262.752 379.506 263.357 379.485 263.946 379.587H263.957Z" fill="#263238"/>
<path opacity="0.1" d="M259.285 383.423C259.218 384.283 259.407 385.143 259.828 385.896C260.25 386.648 260.886 387.258 261.654 387.649C262.423 388.04 263.291 388.195 264.148 388.093C265.004 387.991 265.811 387.637 266.467 387.077C267.122 386.516 267.597 385.774 267.83 384.944C268.063 384.113 268.045 383.233 267.778 382.413C267.51 381.593 267.005 380.871 266.327 380.338C265.649 379.805 264.828 379.486 263.968 379.419C262.816 379.33 261.676 379.702 260.798 380.453C259.92 381.204 259.376 382.272 259.285 383.423Z" fill="white"/>
<path d="M252.229 378.658L254.377 378.829C254.975 378.819 255.569 378.934 256.12 379.167C256.672 379.4 257.168 379.745 257.578 380.181C257.988 380.616 258.302 381.133 258.501 381.697C258.7 382.261 258.778 382.861 258.732 383.457C258.685 384.053 258.515 384.633 258.231 385.16C257.947 385.686 257.556 386.148 257.083 386.515C256.611 386.881 256.066 387.145 255.486 387.29C254.905 387.434 254.301 387.456 253.711 387.353L251.563 387.181C250.965 387.191 250.371 387.076 249.82 386.843C249.268 386.611 248.772 386.266 248.362 385.83C247.952 385.394 247.637 384.878 247.439 384.313C247.24 383.749 247.162 383.15 247.208 382.553C247.255 381.957 247.425 381.377 247.709 380.851C247.993 380.324 248.384 379.863 248.857 379.496C249.329 379.129 249.873 378.865 250.454 378.721C251.035 378.576 251.639 378.555 252.229 378.658Z" fill="#263238"/>
<path opacity="0.2" d="M247.557 382.506C247.487 383.366 247.674 384.228 248.095 384.981C248.515 385.734 249.15 386.346 249.918 386.739C250.687 387.132 251.554 387.288 252.412 387.187C253.269 387.087 254.077 386.734 254.733 386.174C255.39 385.614 255.866 384.872 256.1 384.042C256.334 383.211 256.317 382.33 256.05 381.51C255.783 380.69 255.278 379.967 254.6 379.433C253.922 378.9 253.1 378.58 252.24 378.513C251.089 378.424 249.951 378.794 249.073 379.543C248.195 380.291 247.65 381.357 247.557 382.506Z" fill="white"/>
<path d="M250.283 379.95L266.9 381.251C268.491 381.376 269.882 380.188 270.006 378.598L277.92 277.643C278.044 276.053 276.856 274.663 275.265 274.538L258.648 273.237C257.057 273.113 255.666 274.3 255.542 275.89L247.628 376.845C247.504 378.435 248.692 379.825 250.283 379.95Z" fill="#263238"/>
<path opacity="0.2" d="M258.567 380.599L266.897 381.251C268.488 381.376 269.878 380.188 270.003 378.598L277.916 277.643C278.041 276.053 276.853 274.663 275.262 274.539L266.932 273.886C265.341 273.762 263.95 274.949 263.826 276.539L255.912 377.494C255.788 379.084 256.976 380.474 258.567 380.599Z" fill="white"/>
<path d="M264.974 220.801L278.989 221.922C280.176 222.017 281.214 221.132 281.309 219.947L281.415 218.626C281.51 217.441 280.625 216.402 279.439 216.308L265.423 215.187C264.237 215.092 263.198 215.976 263.103 217.162L262.997 218.482C262.902 219.668 263.787 220.706 264.974 220.801Z" fill="#263238"/>
<path opacity="0.2" d="M264.974 220.801L278.989 221.922C280.176 222.017 281.214 221.132 281.309 219.947L281.415 218.626C281.51 217.441 280.625 216.402 279.439 216.308L265.423 215.187C264.237 215.092 263.198 215.976 263.103 217.162L262.997 218.482C262.902 219.668 263.787 220.706 264.974 220.801Z" fill="white"/>
<path opacity="0.2" d="M265.416 222.015L266.583 222.106C267.766 222.199 268.8 221.315 268.892 220.133L268.995 218.817C269.087 217.634 268.204 216.601 267.021 216.509L265.854 216.418C264.671 216.325 263.637 217.209 263.545 218.391L263.442 219.707C263.35 220.889 264.233 221.922 265.416 222.015Z" fill="black"/>
<path d="M308.818 285.226L301.665 376.474C301.539 378.086 300.778 379.581 299.55 380.631C298.321 381.682 296.726 382.203 295.114 382.078L261.82 379.469C260.691 379.374 259.645 378.836 258.911 377.973C258.177 377.111 257.813 375.993 257.9 374.864L265.278 279.998C265.369 278.868 265.903 277.819 266.764 277.081C267.625 276.343 268.743 275.975 269.875 276.058L303.169 278.678C303.971 278.735 304.753 278.95 305.472 279.31C306.19 279.671 306.831 280.169 307.355 280.778C307.88 281.387 308.28 282.093 308.531 282.856C308.782 283.62 308.879 284.425 308.818 285.226Z" fill="#407BFF"/>
<path opacity="0.2" d="M308.818 285.226L301.665 376.474C301.539 378.086 300.778 379.581 299.55 380.631C298.321 381.682 296.726 382.203 295.114 382.078L261.82 379.469C260.691 379.374 259.645 378.836 258.911 377.973C258.177 377.111 257.813 375.993 257.9 374.864L265.278 279.998C265.369 278.868 265.903 277.819 266.764 277.081C267.625 276.343 268.743 275.975 269.875 276.058L303.169 278.678C303.971 278.735 304.753 278.95 305.472 279.31C306.19 279.671 306.831 280.169 307.355 280.778C307.88 281.387 308.28 282.093 308.531 282.856C308.782 283.62 308.879 284.425 308.818 285.226Z" fill="white"/>
<path opacity="0.2" d="M285.92 277.322V277.451L284.728 277.354C283.597 277.271 282.478 277.639 281.617 278.377C280.756 279.115 280.222 280.164 280.131 281.294L272.699 376.128C272.632 377.08 272.883 378.027 273.414 378.82C273.945 379.613 274.725 380.207 275.631 380.508L261.787 379.434C260.659 379.341 259.612 378.806 258.876 377.946C258.14 377.085 257.773 375.969 257.857 374.84L265.278 280.006C265.368 278.876 265.903 277.827 266.764 277.089C267.625 276.351 268.743 275.983 269.875 276.066L285.92 277.322Z" fill="black"/>
<path opacity="0.2" d="M285.641 280.646L285.149 280.607C284.504 280.557 283.941 281.038 283.89 281.682L276.602 374.653C276.552 375.297 277.033 375.86 277.678 375.911L278.171 375.949C278.815 376 279.379 375.519 279.429 374.874L286.717 281.904C286.767 281.259 286.286 280.696 285.641 280.646Z" fill="black"/>
<path opacity="0.2" d="M292.31 281.63L291.817 281.591C291.173 281.541 290.609 282.022 290.559 282.667L283.271 375.637C283.221 376.282 283.702 376.845 284.347 376.895L284.839 376.934C285.484 376.984 286.047 376.503 286.098 375.859L293.385 282.888C293.436 282.244 292.954 281.68 292.31 281.63Z" fill="black"/>
<path opacity="0.2" d="M298.972 282.013L298.479 281.974C297.835 281.924 297.271 282.405 297.221 283.049L289.933 376.02C289.882 376.664 290.364 377.228 291.009 377.278L291.501 377.317C292.146 377.367 292.709 376.886 292.76 376.242L300.047 283.271C300.098 282.626 299.616 282.063 298.972 282.013Z" fill="black"/>
<path opacity="0.2" d="M305.622 282.411L305.129 282.373C304.485 282.322 303.921 282.804 303.871 283.448L296.583 376.419C296.533 377.063 297.014 377.626 297.659 377.677L298.151 377.715C298.796 377.766 299.359 377.284 299.41 376.64L306.698 283.669C306.748 283.025 306.267 282.462 305.622 282.411Z" fill="black"/>
</g>
<defs>
<clipPath id="clip0_6897_84588">
<rect width="537" height="400" fill="white"/>
</clipPath>
</defs>
</svg>
