<svg width="65" height="65" viewBox="0 0 65 65" fill="none" xmlns="http://www.w3.org/2000/svg">
<rect width="65" height="65" rx="8" fill="#D6DFF4"/>
<g clip-path="url(#clip0_1289_15258)">
<path d="M24.6763 14.0097C24.0887 14.191 23.5882 14.6335 23.3125 15.2212C23.1674 15.5331 23.1239 15.7652 23.0876 16.3674L23.0513 17.1218H21.3393C20.019 17.1218 19.5184 17.1508 19.192 17.2379C17.8934 17.5716 16.8996 18.5292 16.5368 19.7842C16.4062 20.2558 16.399 20.5749 16.399 26.8283V33.3863L16.6094 33.5967C16.9794 33.9667 17.6032 33.8361 17.7701 33.3573C17.8209 33.205 17.8499 31.7178 17.8499 28.8668V24.5939H30.9877C40.5201 24.5939 49.8372 24.4542 49.8372 24.4542L49.5937 23.8351L49.8372 23.2161C49.8372 23.2161 40.5201 23.143 30.9877 23.143H17.8499V21.7647C17.8499 20.5677 17.8717 20.3428 17.995 20.0018C18.1908 19.4723 18.5681 19.0588 19.0686 18.8121L19.4821 18.609L21.2813 18.5872L23.0731 18.5655V19.0225C23.0804 20.0526 23.3778 20.7781 23.9872 21.2061C24.4442 21.5253 24.6981 21.6051 25.2857 21.6123C25.9096 21.6196 26.4029 21.4165 26.8382 20.9667C27.2517 20.5387 27.4258 20.0309 27.4258 19.2256V18.5727H33.5195H39.6133V19.0225C39.6205 20.0526 39.9252 20.7781 40.5273 21.2061C40.9844 21.5253 41.2383 21.6051 41.8259 21.6123C42.4498 21.6196 42.9431 21.4165 43.3783 20.9667C43.7919 20.5387 43.966 20.0309 43.966 19.2184V18.5655L45.9827 18.5872C47.8616 18.609 48.014 18.6162 48.3259 18.7613C48.7612 18.9645 49.2327 19.436 49.4358 19.8713L49.5882 20.205L49.6099 34.3874L49.6244 48.5699L49.4648 48.8964C49.0006 49.8177 47.7165 49.854 47.2015 48.9689C47.0709 48.744 47.0419 48.5554 47.0128 47.431L46.9766 46.1397L46.7734 45.9438L46.5776 45.7407L42.2757 45.7189C39.918 45.7044 37.8722 45.7189 37.7344 45.7407C37.0742 45.864 36.9219 46.7418 37.5095 47.0465C37.6908 47.1408 38.2857 47.1553 41.6445 47.1553H45.5619V47.8953C45.5619 48.5554 45.649 49.085 45.8158 49.4912C45.8666 49.6146 45.1412 49.6218 31.1546 49.6218C17.0301 49.6218 16.4208 49.6146 16.1451 49.484C15.5647 49.2156 15.3834 48.8311 15.3834 47.8445V47.1553H23.6172L39.5673 47.1513L43.3402 47.1553V46.6256V45.7243L31.9235 45.7407C21.4384 45.7407 28.173 45.7044 28.173 45.7044C24.8287 45.6754 24.4442 45.6536 24.5603 45.5593C24.8577 45.3199 25.5759 44.3333 25.808 43.8545C26.2941 42.8389 26.3739 42.4617 26.3666 41.1704C26.3666 40.1112 26.3521 39.9589 26.1708 39.4293C25.3655 37.0426 23.3198 35.4466 20.8605 35.2797C17.7048 35.0766 14.8973 37.4561 14.5999 40.6045C14.4403 42.2731 14.9408 43.8473 16.0435 45.1241L16.5368 45.6972L15.4559 45.7189C14.3823 45.7407 14.3677 45.7407 14.1719 45.9438L13.9688 46.1397V47.5035C13.9688 48.6135 13.9905 48.9254 14.0993 49.2228C14.2734 49.7234 14.6942 50.2602 15.1657 50.5794C15.942 51.109 14.6434 51.0727 32.5039 51.0727C50.3644 51.0727 49.0658 51.109 49.8421 50.5794C50.2919 50.2747 50.7271 49.7379 50.9085 49.2591C51.0318 48.9544 51.0391 48.0911 51.0608 34.6776C51.0681 24.8478 51.0536 20.3065 51.0028 20.0526C50.7924 19.037 50.0162 18.0141 49.1311 17.5643C48.3331 17.1581 48.0502 17.1218 45.9174 17.1218H43.9805L43.9515 16.3021C43.9369 15.6201 43.9007 15.4388 43.7628 15.1631C43.3493 14.3724 42.6892 13.9734 41.7896 13.9661C41.1657 13.9661 40.7377 14.1402 40.2879 14.5755C39.8527 15.0108 39.6786 15.4968 39.6278 16.3674L39.5915 17.1218H33.5123H27.4403L27.4113 16.3021C27.3895 15.388 27.2734 15.0616 26.7946 14.5683C26.3158 14.0749 25.322 13.8138 24.6763 14.0097ZM25.5614 15.4605C25.9676 15.6709 25.9749 15.6927 25.9749 17.7892V19.7189L25.7863 19.9438C25.4163 20.3863 24.6836 20.1687 24.5675 19.5811C24.5458 19.4505 24.524 18.6162 24.524 17.7094C24.524 16.2948 24.5385 16.0337 24.6546 15.816C24.8432 15.4315 25.2204 15.2864 25.5614 15.4605ZM42.1016 15.4605C42.5078 15.6709 42.5151 15.6927 42.5151 17.7892V19.7189L42.3265 19.9438C41.9565 20.3863 41.2238 20.1687 41.1077 19.5811C41.0859 19.4505 41.0642 18.6162 41.0642 17.7094C41.0642 16.2948 41.0787 16.0337 41.1948 15.816C41.3834 15.4315 41.7606 15.2864 42.1016 15.4605ZM21.4408 36.8177C23.0586 37.1587 24.4224 38.479 24.8432 40.0967C24.9955 40.6626 24.9955 41.7507 24.8432 42.3166C24.1323 45.0588 21.0564 46.4879 18.5391 45.2401C16.9648 44.4566 16.029 42.9477 16.029 41.2066C16.029 38.3411 18.6334 36.2301 21.4408 36.8177Z" fill="#345DC7"/>
<path d="M20.9768 40.5105L19.7 41.7727L19.214 41.3157C18.6917 40.8152 18.416 40.7063 18.0896 40.8587C17.8211 40.982 17.6108 41.4173 17.676 41.6857C17.7341 41.9178 19.0109 43.2672 19.3156 43.4268C19.4244 43.4848 19.6202 43.5283 19.7436 43.5283C19.954 43.5283 20.1571 43.3542 21.6007 41.9178C22.8557 40.6701 23.2257 40.2566 23.262 40.0752C23.3418 39.6399 23.0008 39.2554 22.5365 39.2482C22.2681 39.2482 22.1956 39.3062 20.9768 40.5105Z" fill="#345DC7"/>
<path d="M22.8694 28.5546C22.3398 28.6924 21.8973 28.9681 21.5201 29.3888C21.0558 29.9039 20.8672 30.4262 20.8672 31.1952C20.8672 31.9787 21.0558 32.4937 21.5491 33.0306C22.6155 34.1985 24.3856 34.2348 25.5028 33.1176C27.0045 31.6159 26.3153 29.0841 24.2478 28.5473C23.7472 28.4167 23.37 28.4167 22.8694 28.5546ZM24.1462 30.0417C24.7773 30.3537 25.0458 31.1081 24.7411 31.7393C24.4219 32.4067 23.6456 32.6751 23 32.3414C22.0424 31.8481 22.0424 30.535 23 30.049C23.399 29.8458 23.7327 29.8458 24.1462 30.0417Z" fill="#345DC7"/>
<path d="M29.7249 28.5109C27.193 29.1493 26.8593 32.5661 29.2243 33.6833C29.6523 33.8864 29.7829 33.9155 30.327 33.9082C30.784 33.9082 31.0524 33.8647 31.3644 33.7413C31.952 33.5092 32.5686 32.9216 32.837 32.3412C33.0256 31.935 33.0474 31.8044 33.0474 31.195C33.0474 30.5857 33.0256 30.4551 32.837 30.0488C32.5613 29.4612 31.9447 28.8736 31.3644 28.656C30.8856 28.4746 30.1311 28.4093 29.7249 28.5109ZM30.8783 30.0271C31.0452 30.0996 31.2701 30.2882 31.3861 30.4406C31.5675 30.68 31.5965 30.7743 31.5965 31.195C31.5965 31.6158 31.5675 31.7101 31.3861 31.9495C30.9944 32.4646 30.3415 32.6242 29.7829 32.3557C28.8253 31.8915 28.818 30.5131 29.7756 30.0343C30.1456 29.853 30.4938 29.853 30.8783 30.0271Z" fill="#345DC7"/>
<path d="M36.4606 28.5332C35.5175 28.7799 34.7703 29.4908 34.4946 30.3904C34.2842 31.0868 34.4003 32.0299 34.7775 32.6175C35.7279 34.1337 37.8026 34.3731 39.0504 33.1253C40.3925 31.7905 39.9935 29.5198 38.2742 28.7218C37.7446 28.4752 36.9974 28.3954 36.4606 28.5332ZM37.5632 29.9696C38.042 30.151 38.3975 30.666 38.3975 31.1956C38.3975 31.6019 38.2597 31.8993 37.9187 32.1967C37.4617 32.5957 36.8015 32.5957 36.3227 32.1967C35.6843 31.6672 35.6771 30.7096 36.3082 30.209C36.7 29.8971 37.1497 29.81 37.5632 29.9696Z" fill="#345DC7"/>
<path d="M43.1819 28.5546C42.6523 28.6924 42.2098 28.9681 41.8326 29.3888C41.3683 29.9039 41.1797 30.4262 41.1797 31.1952C41.1797 31.9787 41.3683 32.4937 41.8616 33.0306C42.928 34.1985 44.6981 34.2348 45.8153 33.1176C47.317 31.6159 46.6278 29.0841 44.5603 28.5473C44.0597 28.4167 43.6825 28.4167 43.1819 28.5546ZM44.4587 30.0417C45.0898 30.3537 45.3583 31.1081 45.0536 31.7393C44.7344 32.4067 43.9581 32.6751 43.3125 32.3414C42.3549 31.8481 42.3549 30.535 43.3125 30.049C43.7115 29.8458 44.0452 29.8458 44.4587 30.0417Z" fill="#345DC7"/>
<path d="M29.7249 36.0558C27.193 36.6942 26.8593 40.111 29.2243 41.2282C29.6523 41.4314 29.7829 41.4604 30.327 41.4531C30.784 41.4531 31.0524 41.4096 31.3644 41.2863C31.952 41.0541 32.5686 40.4665 32.837 39.8862C33.0256 39.4799 33.0474 39.3493 33.0474 38.74C33.0474 38.1306 33.0256 38 32.837 37.5937C32.5613 37.0061 31.9447 36.4185 31.3644 36.2009C30.8856 36.0195 30.1311 35.9542 29.7249 36.0558ZM30.8783 37.572C31.0452 37.6445 31.2701 37.8331 31.3861 37.9855C31.5675 38.2249 31.5965 38.3192 31.5965 38.74C31.5965 39.1607 31.5675 39.255 31.3861 39.4944C30.9944 40.0095 30.3415 40.1691 29.7829 39.9007C28.8253 39.4364 28.818 38.058 29.7756 37.5792C30.1456 37.3979 30.4938 37.3979 30.8783 37.572Z" fill="#345DC7"/>
<path d="M36.4606 36.0782C35.5175 36.3248 34.7703 37.0357 34.4946 37.9353C34.2842 38.6317 34.4003 39.5748 34.7775 40.1624C35.7279 41.6786 37.8026 41.918 39.0504 40.6702C40.3925 39.3354 39.9935 37.0648 38.2742 36.2668C37.7446 36.0201 36.9974 35.9403 36.4606 36.0782ZM37.5632 37.5145C38.042 37.6959 38.3975 38.211 38.3975 38.7405C38.3975 39.1468 38.2597 39.4442 37.9187 39.7417C37.4617 40.1407 36.8015 40.1407 36.3227 39.7417C35.6843 39.2121 35.6771 38.2545 36.3082 37.7539C36.7 37.442 37.1497 37.3549 37.5632 37.5145Z" fill="#345DC7"/>
<path d="M43.1819 36.0995C42.6523 36.2373 42.2098 36.513 41.8326 36.9337C41.3683 37.4488 41.1797 37.9711 41.1797 38.7401C41.1797 39.5236 41.3683 40.0386 41.8616 40.5755C42.928 41.7434 44.6981 41.7797 45.8153 40.6625C47.317 39.1609 46.6278 36.629 44.5603 36.0922C44.0597 35.9616 43.6825 35.9616 43.1819 36.0995ZM44.4587 37.5866C45.0898 37.8986 45.3583 38.653 45.0536 39.2842C44.7344 39.9516 43.9581 40.22 43.3125 39.8863C42.3549 39.393 42.3549 38.0799 43.3125 37.5939C43.7115 37.3908 44.0452 37.3908 44.4587 37.5866Z" fill="#345DC7"/>
</g>
<defs>
<clipPath id="clip0_1289_15258">
<rect width="37.1429" height="37.1429" fill="white" transform="translate(13.9297 13.9297)"/>
</clipPath>
</defs>
</svg>
