<svg width="50" height="50" viewBox="0 0 50 50" fill="none" xmlns="http://www.w3.org/2000/svg">
<rect width="50" height="50" rx="8" fill="#D575DD"/>
<path d="M14.5824 11.0819C13.6856 11.328 12.9801 11.9077 12.5645 12.7335C12.2418 13.3843 12.2582 12.7991 12.2582 23.0585C12.2582 33.4983 12.2309 32.7437 12.6246 33.4929C13.0238 34.2476 13.8715 34.8874 14.7082 35.0569C14.8996 35.0952 16.2996 35.1171 18.9027 35.1171H22.8074L22.8731 35.2429C22.9059 35.3085 23.0699 35.5437 23.234 35.7679C24.4043 37.3374 26.1215 38.4366 28.0629 38.8632C28.6207 38.9835 30.1848 39.0327 30.7918 38.9507C33.7777 38.5241 36.266 36.5116 37.2777 33.6952C37.5895 32.8257 37.7426 31.9562 37.7426 30.9773C37.7426 29.3476 37.2723 27.8054 36.3699 26.4655C35.9488 25.8421 34.8824 24.7593 34.2809 24.3546C33.5317 23.8405 32.509 23.3812 31.5793 23.1405L31.3442 23.0804V20.3241V17.5679L30.8957 17.0866C29.0856 15.1562 25.1535 11.0601 25.0824 11.0327C25.0332 11.0163 22.709 10.9999 19.9254 11.0054C15.8238 11.0054 14.8012 11.0218 14.5824 11.0819ZM24.191 14.2648C24.2184 16.5233 24.2238 16.589 24.5793 17.1905C24.9129 17.7648 25.6238 18.2515 26.3074 18.3827C26.466 18.4101 27.3957 18.4374 28.3692 18.4374H30.141V20.6741V22.9054L29.4465 22.9382C28.6043 22.9765 27.9699 23.0858 27.2535 23.3101C26.3238 23.6108 25.2902 24.1632 24.6121 24.7319L24.3551 24.9452H20.5543H16.7535L16.584 25.0874C16.3762 25.2569 16.3215 25.514 16.4309 25.7819C16.5895 26.1593 16.4801 26.1483 20.0457 26.1483H23.2504L22.9332 26.6296C22.7637 26.8921 22.5395 27.2858 22.4356 27.5046L22.2442 27.8983H19.5754C16.5731 27.8983 16.5895 27.8983 16.4363 28.2593C16.3215 28.5327 16.3762 28.7843 16.584 28.9593L16.7535 29.1015H19.291C21.2871 29.1015 21.8285 29.1179 21.8285 29.1671C21.8285 29.2054 21.7902 29.4569 21.7465 29.7304C21.5496 30.928 21.7082 32.6343 22.1074 33.646L22.2113 33.9194L18.591 33.903L14.9653 33.8866L14.6481 33.739C14.2543 33.553 14.0356 33.3726 13.8059 33.0499C13.4395 32.5413 13.4613 33.1812 13.4613 23.0476C13.4613 12.903 13.4395 13.5976 13.8168 13.0507C14.0028 12.7773 14.2434 12.5585 14.5004 12.4218C14.8887 12.214 14.9543 12.2085 19.6246 12.2085L24.1692 12.203L24.191 14.2648ZM27.6582 15.4843L29.2934 17.2069L29.0473 17.2233C28.9106 17.2343 28.2871 17.2343 27.6527 17.2233C26.6957 17.2069 26.466 17.1851 26.2692 17.103C25.9848 16.9827 25.5692 16.5288 25.4926 16.2608C25.4653 16.146 25.4379 15.4241 25.4379 14.6093V13.1601L25.7332 13.4608C25.8918 13.6249 26.7613 14.5382 27.6582 15.4843ZM30.8684 24.2671C32.952 24.628 34.7949 25.9898 35.7574 27.8765C36.0692 28.478 36.3262 29.2491 36.4356 29.8671C36.5231 30.3812 36.5285 31.5241 36.441 32.0327C35.8887 35.3577 33.0395 37.7968 29.7035 37.7968C26.734 37.7968 24.1199 35.8718 23.1957 33.0116C22.4246 30.5999 23.1082 27.9038 24.9512 26.1101C25.5309 25.5468 26.0285 25.1968 26.7777 24.8194C27.1879 24.6171 27.9863 24.3546 28.4731 24.2671C29.0692 24.1632 30.2668 24.1577 30.8684 24.2671Z" fill="white"/>
<path d="M16.6897 22.0847C16.1811 22.3362 16.3179 23.1183 16.8921 23.2167C17.2476 23.2714 22.8202 23.255 23.039 23.1948C23.4765 23.069 23.6186 22.544 23.3069 22.1995L23.1483 22.019L20.0093 22.0081C17.1655 21.9917 16.8593 22.0026 16.6897 22.0847Z" fill="white"/>
<path d="M29.209 25.0597C26.5403 25.2511 24.3309 27.2417 23.8168 29.9105C23.7129 30.4519 23.7184 31.5456 23.8278 32.1144C24.402 35.1386 27.2184 37.2495 30.2645 36.9324C31.0301 36.8503 31.5551 36.7081 32.2004 36.4019C32.791 36.123 33.1739 35.8769 33.6004 35.505C35.7114 33.6566 36.2637 30.6324 34.9403 28.1714C33.9887 26.3941 32.1785 25.2128 30.2043 25.0652C29.9145 25.0433 29.466 25.0433 29.209 25.0597ZM30.4449 26.3175C31.8012 26.5527 32.9278 27.3019 33.6824 28.4613C34.1801 29.2214 34.4153 30.0472 34.4153 31.0152C34.4153 33.7988 31.9926 35.9863 29.2199 35.7128C27.2895 35.5214 25.709 34.198 25.1293 32.3003C24.9926 31.8628 24.9762 31.7206 24.9762 31.0152C24.9762 30.3589 24.9926 30.1511 25.091 29.8011C25.6051 28.0238 26.9723 26.7277 28.7442 26.3503C29.1981 26.2519 29.991 26.2355 30.4449 26.3175Z" fill="white"/>
<path d="M29.2109 27.882C29.1672 27.8984 29.0633 27.975 28.9812 28.0516L28.8281 28.1938V29.9273C28.8281 31.5898 28.8336 31.6609 28.9375 31.7977C29.107 32.0164 29.3586 32.0547 30.5508 32.0547C31.7977 32.0547 32.0109 32.0164 32.1641 31.7648C32.3828 31.4094 32.2297 30.9609 31.8523 30.857C31.7375 30.8242 31.2836 30.7969 30.8406 30.7969H30.0312V29.5938C30.0312 28.2102 29.9984 28.057 29.6812 27.9258C29.4844 27.8438 29.3531 27.8328 29.2109 27.882Z" fill="white"/>
</svg>
